<?xml version="1.0" standalone="no"?>
<!DOCTYPE svg PUBLIC "-//W3C//DTD SVG 1.1//EN" "http://www.w3.org/Graphics/SVG/1.1/DTD/svg11.dtd" >
<svg>
<metadata>
Created by FontForge 20090622 at Wed Sep 21 06:32:39 2016
 By deploy user
Copyright (c) 2015 by . All rights reserved.
</metadata>
<defs>
<font id="Baomoi-Italic" horiz-adv-x="1124" >
  <font-face 
    font-family="Baomoi"
    font-weight="400"
    font-style="italic"
    font-stretch="normal"
    units-per-em="2048"
    panose-1="0 0 0 0 0 0 0 0 0 0"
    ascent="1638"
    descent="-410"
    x-height="908"
    cap-height="1365"
    bbox="-249 -502 2563 2171"
    underline-thickness="135"
    underline-position="-134"
    unicode-range="U+0020-U+FB04"
  />
<missing-glyph horiz-adv-x="512" 
d="M410 51v1263h-308v-1263h308zM51 0v1365h410v-1365h-410z" />
    <glyph glyph-name=".notdef" horiz-adv-x="512" 
d="M410 51v1263h-308v-1263h308zM51 0v1365h410v-1365h-410z" />
    <glyph glyph-name="glyph1" horiz-adv-x="0" 
 />
    <glyph glyph-name="glyph2" horiz-adv-x="512" 
 />
    <glyph glyph-name="space" unicode=" " horiz-adv-x="512" 
 />
    <glyph glyph-name="exclam" unicode="!" horiz-adv-x="571" 
d="M265 307l151 1058h171l-185 -1058h-137zM314 182q37 0 61.5 -24t24.5 -61q0 -47 -36 -81q-36 -36 -82 -36q-38 0 -62 24t-24 62q0 46 36 81q37 35 82 35z" />
    <glyph glyph-name="quotedbl" unicode="&#x22;" horiz-adv-x="629" 
d="M650 839h-106l59 526h154zM352 839h-106l59 526h155z" />
    <glyph glyph-name="numbersign" unicode="#" horiz-adv-x="1199" 
d="M807 515l120 336h-318l-120 -336h318zM319 399h-153l42 116h153l121 336h-154l42 116h154l153 425l117 -29l-143 -396h318l154 425l117 -26l-144 -399h154l-42 -116h-153l-121 -336h154l-42 -116h-154l-153 -426l-117 29l143 397h-318l-153 -426l-117 29z" />
    <glyph glyph-name="dollar" unicode="$" horiz-adv-x="1162" 
d="M513 -23q-140 13 -226 102q-87 90 -99 248l155 41q22 -249 238 -249q159 0 258 132q62 83 62 172q0 65 -47 113t-155 93l-120 50q-233 98 -233 285q0 156 109 272q110 117 281 147l30 187h150l-30 -187q176 -33 257 -209l-134 -79q-74 152 -223 152q-118 0 -198 -74
q-89 -83 -89 -183q0 -119 167 -187l125 -52q266 -110 266 -305q0 -155 -113 -289q-113 -133 -279 -169l-31 -200h-150z" />
    <glyph glyph-name="percent" unicode="%" horiz-adv-x="1845" 
d="M617 1274q-132 0 -199 -148q-55 -123 -55 -283q0 -196 158 -196q132 0 198 148q56 126 56 285q0 194 -158 194zM634 1379q261 0 261 -276q0 -100 -23 -206q-24 -103 -62 -173q-101 -182 -305 -182q-262 0 -262 273q0 102 23 208q22 102 62 174q101 182 306 182z
M1495 1389l77 -49l-1007 -1365l-76 48zM1540 718q-132 0 -198 -148q-56 -126 -56 -282q0 -197 158 -197q134 0 198 148q56 126 56 285q0 194 -158 194zM1557 823q261 0 261 -276q0 -99 -23 -205q-24 -103 -62 -174q-101 -182 -306 -182q-261 0 -261 274q0 101 23 207
q22 102 62 174q101 182 306 182z" />
    <glyph glyph-name="ampersand" unicode="&#x26;" horiz-adv-x="1309" 
d="M633 682l-5 -4q-151 -101 -206 -165q-78 -92 -78 -183q0 -98 79 -162q68 -56 182 -56q181 0 320 130zM682 858q59 40 113 83q128 101 128 203q0 27 -10 49.5t-28.5 39t-44.5 26t-57 9.5q-81 0 -137 -56q-57 -56 -57 -136q0 -76 93 -218zM1024 354q57 76 132 225l131 -38
q-48 -99 -92.5 -175t-89.5 -131l159 -235h-178l-85 128q-188 -152 -415 -152q-120 0 -222 50q-97 49 -142 150q-26 60 -26 128q0 128 87 241q44 57 114.5 115t169.5 121l-6 9q-105 159 -105 264q0 95 60 184q103 151 286 151q136 0 203 -88q49 -62 49 -147q0 -105 -67 -191
q-67 -87 -238 -203z" />
    <glyph glyph-name="quotesingle" unicode="'" horiz-adv-x="332" 
d="M352 839h-106l59 526h155z" />
    <glyph glyph-name="parenleft" unicode="(" horiz-adv-x="601" 
d="M700 1442q-79 -144 -139 -299.5t-103 -325.5q-85 -337 -85 -680q0 -233 50 -448l-140 -60q-58 183 -58 485q0 369 95 735q53 204 117.5 366t142.5 287z" />
    <glyph glyph-name="parenright" unicode=")" horiz-adv-x="601" 
d="M80 -311q79 144 139 299.5t103 326.5q85 336 85 678q0 235 -49 449l139 60q58 -186 58 -484q0 -371 -95 -737q-104 -404 -260 -652z" />
    <glyph glyph-name="asterisk" unicode="*" horiz-adv-x="951" 
d="M614 1241l29 254h137l-51 -254l253 88l22 -129l-257 -69l127 -200l-123 -80l-108 212l-174 -212l-98 80l190 200l-235 69l63 129z" />
    <glyph glyph-name="plus" unicode="+" horiz-adv-x="1139" 
d="M614 703l65 410h133l-65 -410h407l-10 -63l-10 -64h-407l-65 -409h-133l65 409h-407l10 64l10 63h407z" />
    <glyph glyph-name="comma" unicode="," horiz-adv-x="464" 
d="M249 200l126 -49l-279 -462l-91 39z" />
    <glyph glyph-name="hyphen" unicode="-" horiz-adv-x="522" 
d="M160 537h372l-21 -131h-372z" />
    <glyph glyph-name="period" unicode="." horiz-adv-x="464" 
d="M261 182q37 0 61.5 -24t24.5 -61q0 -46 -35 -81q-36 -36 -82 -36q-39 0 -63 24.5t-24 62.5q0 45 36 80q37 35 82 35z" />
    <glyph glyph-name="slash" unicode="/" horiz-adv-x="1122" 
d="M1116 1392l103 -68l-997 -1351l-103 68z" />
    <glyph glyph-name="zero" unicode="0" horiz-adv-x="1171" 
d="M781 1249q-237 0 -356 -272q-23 -52 -40.5 -112t-30.5 -129q-27 -140 -27 -270q0 -350 278 -350q238 0 357 272q45 104 72 242q13 69 19.5 136.5t6.5 134.5q0 348 -279 348zM803 1389q231 0 333 -143q82 -113 82 -309q0 -176 -39 -356q-20 -91 -46 -166t-58 -136
q-164 -303 -490 -303q-233 0 -334 143q-82 115 -82 304q0 179 39 361q20 91 46 166t58 136q162 303 491 303z" />
    <glyph glyph-name="one" unicode="1" horiz-adv-x="614" 
d="M451 0h-152l189 1194l-235 -124l-51 122l326 173h139z" />
    <glyph glyph-name="two" unicode="2" horiz-adv-x="984" 
d="M95 0l21 135l590 563q210 201 210 362q0 88 -56.5 138t-156.5 50q-112 0 -185.5 -52t-124.5 -167l-132 38q36 91 93 156q145 166 376 166q149 0 240 -77q97 -82 97 -225q0 -108 -51.5 -216.5t-147.5 -199.5l-557 -531h642l-22 -140h-836z" />
    <glyph glyph-name="three" unicode="3" horiz-adv-x="966" 
d="M509 785h59q146 0 223 80q78 82 78 191q0 91 -54.5 141.5t-151.5 50.5q-82 0 -144 -32q-61 -32 -133 -113l-113 71q167 215 413 215q159 0 250 -91q83 -83 83 -216q0 -217 -194 -354q128 -101 128 -262t-95 -289q-72 -97 -194 -153q-105 -48 -218 -48q-146 0 -243 79
t-118 224l-3 29l155 41q7 -74 30 -120q53 -110 204 -110q173 0 269 135q59 83 59 181q0 210 -253 210h-59z" />
    <glyph glyph-name="four" unicode="4" horiz-adv-x="1060" 
d="M970 1312l-680 -870h448l58 361h151l-57 -361h168l-22 -139h-168l-48 -303h-151l48 303h-608l25 156l726 930z" />
    <glyph glyph-name="five" unicode="5" horiz-adv-x="1065" 
d="M493 871l10.5 3.5t18.5 6.5q62 20 133 20q171 0 281 -107q110 -108 110 -275q0 -162 -102 -304q-82 -114 -205 -179q-116 -60 -243 -60q-181 0 -297 116q-42 42 -82 126l134 86q18 -57 49 -94q78 -95 216 -95q182 0 301 155q75 99 75 224q0 105 -56 176q-77 96 -214 96
q-131 0 -229 -89l-114 26l238 662h601l-22 -141h-476z" />
    <glyph glyph-name="six" unicode="6" horiz-adv-x="1111" 
d="M670 750q-85 0 -161 -39t-130 -111q-74 -100 -74 -221q0 -98 56 -169q75 -95 208 -95q177 0 294 156q74 100 74 219q0 99 -56 169q-73 91 -211 91zM867 1389l102 -87l-374 -435q57 18 111 18q166 0 276 -104q108 -104 108 -265q0 -158 -100 -300q-81 -116 -202 -180
q-116 -60 -241 -60q-199 0 -313 148q-80 103 -80 243q0 199 159 384z" />
    <glyph glyph-name="seven" unicode="7" horiz-adv-x="922" 
d="M924 1224h-696l22 141h867l-19 -123l-871 -1267l-120 69z" />
    <glyph glyph-name="eight" unicode="8" horiz-adv-x="1038" 
d="M716 1254q-72 0 -134 -30.5t-104 -84.5q-55 -73 -55 -160t62 -143q60 -54 157 -54q121 0 207 81q86 80 86 193q0 88 -62 144q-59 54 -157 54zM618 648q-88 0 -162.5 -39.5t-117.5 -108.5q-49 -77 -49 -160q0 -101 68 -163t179 -62q91 0 165 38.5t119 110.5q49 76 49 158
q0 53 -17.5 95t-49.5 71t-79 44.5t-105 15.5zM390 727q-108 103 -108 235q0 136 94 254q137 173 361 173q177 0 269 -111q70 -85 70 -204q0 -203 -199 -347q145 -112 145 -274q0 -152 -93 -276q-73 -99 -194 -153q-107 -48 -222 -48q-110 0 -204 48q-172 88 -172 293
q0 253 253 410z" />
    <glyph glyph-name="nine" unicode="9" horiz-adv-x="1116" 
d="M758 1250q-85 0 -162 -40.5t-132 -115.5q-74 -98 -74 -217q0 -98 56 -166q75 -89 212 -89q177 0 290 147q74 97 74 217q0 98 -56 169q-75 95 -208 95zM460 -25l-102 87l378 437q-59 -12 -107 -12q-173 0 -283 101q-109 100 -109 263q0 156 100 298q81 117 202 180
q114 60 241 60q200 0 314 -148q79 -103 79 -243q0 -200 -160 -384z" />
    <glyph glyph-name="colon" unicode=":" horiz-adv-x="464" 
d="M371 874q37 0 61.5 -24t24.5 -60q0 -46 -35 -81q-37 -35 -83 -35q-38 0 -62 24t-24 62q0 45 36 80q35 34 82 34zM261 182q37 0 61.5 -24t24.5 -61q0 -46 -35 -81q-36 -36 -82 -36q-39 0 -63 24.5t-24 62.5q0 45 36 80q37 35 82 35z" />
    <glyph glyph-name="semicolon" unicode=";" horiz-adv-x="465" 
d="M403 874q37 0 61.5 -23.5t24.5 -60.5q0 -46 -35 -81q-37 -35 -83 -35q-38 0 -62 24t-24 62q0 44 36 79q37 35 82 35zM249 200l126 -49l-278 -462l-92 39z" />
    <glyph glyph-name="less" unicode="&#x3c;" horiz-adv-x="1139" 
d="M1199 1173l-25 -153l-775 -330l671 -331l-25 -153l-821 418l21 133z" />
    <glyph glyph-name="equal" unicode="=" horiz-adv-x="1139" 
d="M1073 569l-20 -128h-828l20 128h828zM1116 838l-20 -128h-828l20 128h828z" />
    <glyph glyph-name="greater" unicode="&#x3e;" horiz-adv-x="1139" 
d="M158 206l24 153l775 331l-670 330l24 153l822 -417l-22 -133z" />
    <glyph glyph-name="question" unicode="?" horiz-adv-x="863" 
d="M443 182q37 0 61.5 -24t24.5 -61q0 -47 -36 -81q-36 -36 -82 -36q-38 0 -62 24.5t-24 62.5q0 45 36 80q37 35 82 35zM388 307l25 154q15 94 44 143q29 47 113 110l101 76q173 131 173 278q0 74 -44 121q-54 58 -159 58q-91 0 -152 -34q-60 -34 -138 -127l-96 92
q157 211 398 211q174 0 265 -88q78 -77 78 -211q0 -111 -51 -199q-51 -89 -174 -189l-115 -94q-29 -25 -47 -42.5t-25 -28.5q-15 -24 -25 -94l-22 -136h-149z" />
    <glyph glyph-name="at" unicode="@" horiz-adv-x="1840" 
d="M1126 369l168 586h-125q-178 0 -282 -100q-29 -27 -51.5 -61t-38.5 -71.5t-24.5 -78t-8.5 -80.5q0 -91 57 -143t157 -52h148zM1446 1068l-199 -699h47q189 0 294 143q110 152 110 373q0 204 -118 328q-125 132 -377 132q-303 0 -518 -163q-149 -111 -231 -279
q-84 -168 -84 -355q0 -219 121 -353q63 -70 143 -105q157 -69 354 -69q213 0 462 74l23 -109q-236 -78 -512 -78q-223 0 -402 79q-156 69 -240 229q-68 130 -68 312q0 296 176 543q138 192 350 293q197 94 437 94q323 0 481 -189q122 -146 122 -362q0 -66 -10.5 -130.5
t-30 -124t-48 -112.5t-64.5 -97q-83 -100 -186 -143q-105 -44 -257 -44h-278q-141 0 -222 78q-82 76 -82 211q0 116 53 227q144 296 514 296h240z" />
    <glyph glyph-name="A" unicode="A" horiz-adv-x="1270" 
d="M456 528h523l-154 689zM380 386l-208 -386h-158l742 1365h191l309 -1365h-159l-86 386h-631z" />
    <glyph glyph-name="B" unicode="B" horiz-adv-x="1070" 
d="M338 141h188q134 0 203 33q78 38 123 105t45 147q0 112 -84 165q-70 43 -228 43h-169zM437 765h155q124 0 186 30q36 18 64.5 43.5t48.5 56.5t31 67t11 75q0 99 -63.5 143.5t-204.5 44.5h-155zM164 0l216 1365h284q221 0 317 -81q97 -81 97 -227q0 -199 -206 -336
q68 -30 100 -65q76 -85 76 -215q0 -180 -135 -304q-80 -74 -171 -105q-93 -32 -226 -32h-352z" />
    <glyph glyph-name="C" unicode="C" horiz-adv-x="1356" 
d="M1345 1066q-29 37 -56.5 64t-53.5 44q-107 72 -249 72q-232 0 -410 -157q-55 -48 -98 -105t-74 -124q-63 -134 -63 -272q0 -187 113 -317q134 -152 354 -152q116 0 212 43q97 42 211 141l88 -105q-103 -88 -185 -132q-167 -90 -347 -90q-202 0 -350 100q-137 93 -205 252
q-47 114 -47 244q0 242 159 463q121 167 297 260q176 94 369 94q143 0 250 -51q104 -50 206 -167z" />
    <glyph glyph-name="D" unicode="D" horiz-adv-x="1267" 
d="M511 1223l-172 -1081h134q336 0 524 228q146 178 146 418q0 199 -127 314q-133 121 -372 121h-133zM380 1365h280q307 0 478 -153q162 -146 162 -398q0 -154 -56 -304q-108 -289 -381 -421q-187 -89 -419 -89h-280z" />
    <glyph glyph-name="E" unicode="E" horiz-adv-x="973" 
d="M1061 1224h-550l-73 -461h489l-23 -142h-489l-76 -479h571l-22 -142h-724l216 1365h703z" />
    <glyph glyph-name="F" unicode="F" horiz-adv-x="894" 
d="M1013 1224h-502l-73 -461h458l-23 -142h-458l-98 -621h-153l216 1365h656z" />
    <glyph glyph-name="G" unicode="G" horiz-adv-x="1490" 
d="M952 705h560l-12 -75q-30 -187 -121 -330q-85 -136 -220 -221q-164 -103 -368 -103q-324 0 -495 238q-111 154 -111 356q0 244 159 465q122 167 297 260q176 94 369 94q142 0 250 -50q106 -51 206 -168l-121 -105q-29 37 -56.5 64t-53.5 44q-107 72 -249 72
q-232 0 -410 -157q-108 -95 -172 -230q-63 -134 -63 -273q0 -96 31 -177q50 -131 162 -209q118 -81 276 -81q186 0 326 111q157 124 196 333h-403z" />
    <glyph glyph-name="H" unicode="H" horiz-adv-x="1331" 
d="M438 763h697l96 602h153l-216 -1365h-153l98 621h-698l-98 -621h-153l216 1365h153z" />
    <glyph glyph-name="I" unicode="I" horiz-adv-x="481" 
d="M533 1365l-216 -1365h-153l216 1365h153z" />
    <glyph glyph-name="J" unicode="J" horiz-adv-x="823" 
d="M875 1365l-151 -956q-21 -129 -56 -207q-35 -77 -99 -132q-109 -94 -254 -94q-83 0 -149 33t-140 113l110 110q98 -113 200 -113q97 0 154 70t81 220l151 956h153z" />
    <glyph glyph-name="K" unicode="K" horiz-adv-x="1162" 
d="M746 800l402 -800h-178l-344 688l-235 -221l-74 -467h-153l216 1365h153l-110 -698l745 698h183z" />
    <glyph glyph-name="L" unicode="L" horiz-adv-x="872" 
d="M533 1365l-194 -1223h530l-22 -142h-683l216 1365h153z" />
    <glyph glyph-name="M" unicode="M" horiz-adv-x="1659" 
d="M164 0l216 1365h164l360 -894l644 894h163l-216 -1365h-153l175 1102l-570 -795h-137l-318 795l-175 -1102h-153z" />
    <glyph glyph-name="N" unicode="N" horiz-adv-x="1454" 
d="M164 0l216 1365h144l653 -1116l177 1116h153l-217 -1365h-143l-653 1116l-177 -1116h-153z" />
    <glyph glyph-name="O" unicode="O" horiz-adv-x="1565" 
d="M983 1246q-222 0 -404 -157q-111 -96 -174 -229q-64 -132 -64 -272q0 -186 116 -317q72 -81 177 -122q76 -30 160 -30q216 0 401 152q115 94 180 228q65 135 65 275q0 184 -108 315q-74 88 -182 126q-84 31 -167 31zM1008 1389q180 0 322 -94q147 -95 218 -260
q48 -113 48 -242q0 -246 -160 -464q-117 -159 -288 -253q-181 -100 -381 -100q-178 0 -326 100q-141 94 -208 253q-46 110 -46 249q0 248 158 457q126 168 300 260q175 94 363 94z" />
    <glyph glyph-name="P" unicode="P" horiz-adv-x="956" 
d="M427 692h145q122 0 193 38q70 39 114 116q42 76 42 166q0 109 -64 160.5t-201 51.5h-145zM404 553l-87 -553h-153l216 1365h280q63 0 113 -5.5t89.5 -18t70.5 -31.5t56 -46q84 -89 84 -233q0 -180 -121 -319q-72 -84 -171 -122q-96 -37 -250 -37h-127z" />
    <glyph glyph-name="Q" unicode="Q" horiz-adv-x="1560" 
d="M957 288l118 102l108 -128q120 94 189 231q68 138 68 282q0 184 -109 314q-130 157 -346 157q-225 0 -406 -157q-112 -96 -175 -229q-63 -134 -63 -271q0 -188 115 -318q135 -152 342 -152q127 0 251 59zM1380 27l-118 -102l-123 146q-179 -95 -368 -95q-182 0 -330 100
q-141 95 -208 252q-48 114 -48 243q0 244 160 464q121 166 300 260q175 94 366 94q175 0 320 -94q146 -94 217 -260q48 -113 48 -242q0 -247 -160 -464q-68 -93 -165 -171z" />
    <glyph glyph-name="R" unicode="R" horiz-adv-x="1092" 
d="M427 692h145q135 0 213 36q78 37 123 109.5t45 162.5q0 115 -72 169.5t-225 54.5h-145zM1041 0h-170l-218 559q-77 -6 -122 -6h-127l-87 -553h-153l216 1365h280q134 0 217 -24q80 -24 136 -80q92 -92 92 -242q0 -179 -126 -312q-71 -75 -172 -115z" />
    <glyph glyph-name="S" unicode="S" horiz-adv-x="1035" 
d="M955 1095q-74 152 -223 152q-118 0 -198 -74q-89 -83 -89 -183q0 -118 167 -187l125 -52q266 -110 266 -305q0 -138 -95 -265q-74 -98 -183 -152q-108 -53 -226 -53q-163 0 -258 91.5t-107 259.5l155 42q22 -250 238 -250q159 0 258 132q62 83 62 172q0 65 -47 113
t-155 93l-120 50q-233 98 -233 285q0 135 89 248q72 90 181 136q96 41 197 41q231 0 330 -215z" />
    <glyph glyph-name="T" unicode="T" horiz-adv-x="887" 
d="M715 1224l-194 -1224h-153l194 1224h-354l22 141h860l-22 -141h-353z" />
    <glyph glyph-name="U" unicode="U" horiz-adv-x="1301" 
d="M533 1365l-134 -846q-8 -50 -12 -87t-4 -63q0 -109 74 -175q85 -76 210 -76q130 0 239 76q72 49 105 117q32 65 55 208l134 846h153l-140 -887q-9 -55 -21.5 -100t-28.5 -82q-32 -74 -90 -135q-85 -91 -202 -140q-110 -46 -225 -46q-191 0 -315 119q-103 100 -103 251
q0 32 3 65t8 68l141 887h153z" />
    <glyph glyph-name="V" unicode="V" horiz-adv-x="1133" 
d="M389 1365l206 -1186l583 1186h158l-677 -1365h-184l-245 1365h159z" />
    <glyph glyph-name="W" unicode="W" horiz-adv-x="1802" 
d="M389 1365l157 -1143l503 1143h137l141 -1143l520 1143h158l-633 -1365h-80h-77l-139 1106l-489 -1106h-76h-81l-200 1365h159z" />
    <glyph glyph-name="X" unicode="X" horiz-adv-x="1085" 
d="M740 715l332 -715h-171l-266 584l-454 -584h-167l558 713l-301 652h167l240 -521l406 521h163z" />
    <glyph glyph-name="Y" unicode="Y" horiz-adv-x="1038" 
d="M532 570l-316 795h167l249 -652l456 652h166l-569 -795l-90 -570h-153z" />
    <glyph glyph-name="Z" unicode="Z" horiz-adv-x="1042" 
d="M251 142h763l-23 -142h-943l21 135l932 1089h-698l23 141h867l-22 -136z" />
    <glyph glyph-name="bracketleft" unicode="[" horiz-adv-x="600" 
d="M533 1356l-251 -1581h191l-22 -135h-337l293 1851h338l-22 -135h-190z" />
    <glyph glyph-name="backslash" unicode="\" horiz-adv-x="1122" 
d="M447 1392l569 -1351l-125 -68l-569 1351z" />
    <glyph glyph-name="bracketright" unicode="]" horiz-adv-x="600" 
d="M497 1356h-190l21 135h338l-294 -1851h-337l21 135h191z" />
    <glyph glyph-name="asciicircum" unicode="^" horiz-adv-x="1024" 
d="M216 745h-166l361 625h202l361 -625h-167l-296 502z" />
    <glyph glyph-name="underscore" unicode="_" horiz-adv-x="1024" 
d="M-21 -133h1024l-21 -135h-1024z" />
    <glyph glyph-name="grave" unicode="`" horiz-adv-x="975" 
d="M436 1312l156 77l160 -282l-100 -53z" />
    <glyph glyph-name="a" unicode="a" 
d="M658 800q-126 0 -232 -92q-140 -123 -140 -323q0 -103 48 -170q75 -107 222 -107q133 0 235 93q138 124 138 323q0 104 -48 172q-74 104 -223 104zM995 0h-146l19 119q-155 -143 -342 -143q-203 0 -315 157q-74 104 -74 243q0 170 105 317q80 114 203 178q113 61 238 61
q181 0 291 -144l18 120h146z" />
    <glyph glyph-name="b" unicode="b" 
d="M707 800q-127 0 -228 -92q-137 -125 -137 -324q0 -102 47 -170q72 -106 214 -106q134 0 239 93q140 123 140 322q0 105 -49 172q-77 105 -226 105zM129 0l216 1365h146l-91 -577q154 144 342 144q203 0 315 -157q74 -103 74 -243q0 -169 -105 -317q-80 -114 -203 -178
q-113 -61 -238 -61q-91 0 -165.5 37t-125.5 106l-19 -119h-146z" />
    <glyph glyph-name="c" unicode="c" horiz-adv-x="936" 
d="M895 680q-84 120 -228 120q-138 0 -242 -92q-140 -122 -140 -323q0 -104 49 -172q73 -105 227 -105q80 0 139 28q61 29 131 99l82 -98q-48 -44 -93 -74.5t-88 -49.5q-86 -37 -192 -37q-128 0 -227 60q-103 61 -147 179q-29 78 -29 162q0 168 104 317q82 115 204 178
q117 60 246 60q190 0 317 -154z" />
    <glyph glyph-name="d" unicode="d" 
d="M657 800q-126 0 -232 -92q-140 -123 -140 -323q0 -103 48 -170q75 -107 222 -107q132 0 234 93q137 125 137 324q0 103 -48 171q-72 104 -221 104zM995 0h-146l19 119q-155 -143 -342 -143q-203 0 -315 157q-74 104 -74 243q0 170 105 317q80 114 203 178q113 61 238 61
q181 0 291 -144l91 577h146z" />
    <glyph glyph-name="e" unicode="e" horiz-adv-x="1017" 
d="M882 517v17q0 42 -10 81q-23 91 -88 140q-60 45 -143 45q-115 0 -208 -78t-130 -205h579zM283 392q-1 -5 -1 -9.5v-7.5v-11q0 -83 55 -162q67 -94 200 -94q185 0 304 161l121 -55q-85 -115 -199 -176.5t-245 -61.5q-209 0 -315 157q-67 100 -67 241q0 130 62 252
q68 136 189 218q127 88 275 88q161 0 261 -109t100 -284q0 -61 -16 -147h-724z" />
    <glyph glyph-name="f" unicode="f" horiz-adv-x="511" 
d="M426 776l-123 -776h-146l123 776h-92l21 132h92l29 184q45 287 265 287q34 0 88 -14l-21 -132q-36 10 -60 10q-102 0 -126 -151l-29 -184h167l-21 -132h-167z" />
    <glyph glyph-name="g" unicode="g" 
d="M657 800q-126 0 -232 -92q-140 -123 -140 -323q0 -103 48 -170q75 -107 222 -107q133 0 235 93q137 125 137 323q0 104 -48 172q-74 104 -222 104zM1138 908l-146 -925q-32 -200 -159 -326q-159 -159 -393 -159q-150 0 -259 73q-60 39 -122 128l111 96q55 -81 100 -112
q77 -53 189 -53q155 0 258 94q102 95 129 259l21 136q-154 -143 -341 -143q-203 0 -315 157q-74 103 -74 243q0 171 104 317q82 114 204 178q113 61 238 61q180 0 290 -144l19 120h146z" />
    <glyph glyph-name="h" unicode="h" horiz-adv-x="1043" 
d="M403 805q123 127 293 127q120 0 202 -64q106 -81 106 -233q0 -68 -12 -144l-78 -491h-146l75 474q12 75 12 123q0 94 -50.5 144.5t-144.5 50.5q-133 0 -216 -86q-38 -38 -59 -94q-11 -29 -20.5 -68t-17.5 -90l-72 -454h-146l216 1365h146z" />
    <glyph glyph-name="i" unicode="i" horiz-adv-x="408" 
d="M412 1314q39 0 64 -24.5t25 -62.5q0 -48 -37 -85t-85 -37q-39 0 -64 25t-25 64q0 47 37 84q37 36 85 36zM421 908l-144 -908h-146l144 908h146z" />
    <glyph glyph-name="j" unicode="j" horiz-adv-x="427" 
d="M294 908h146l-176 -1113q-45 -286 -265 -286q-40 0 -88 13l21 133q36 -10 61 -10q101 0 125 150zM432 1314q39 0 64 -24.5t25 -62.5q0 -49 -37 -85q-37 -37 -85 -37q-39 0 -64 25t-25 64q0 47 37 84q37 36 85 36z" />
    <glyph glyph-name="k" unicode="k" horiz-adv-x="952" 
d="M615 539l333 -539h-181l-266 441l-180 -154l-46 -287h-146l216 1365h146l-142 -896l508 439h187z" />
    <glyph glyph-name="l" unicode="l" horiz-adv-x="408" 
d="M277 0h-146l216 1365h146z" />
    <glyph glyph-name="m" unicode="m" horiz-adv-x="1610" 
d="M933 782q133 151 321 151q146 0 232 -83q86 -84 86 -216q0 -31 -3 -66t-10 -76l-78 -492h-146l75 474q7 41 10 72t3 54q0 94 -45 143t-132 49q-122 0 -202 -86q-64 -70 -92 -252l-72 -454h-146l75 474q7 42 10 73t3 53q0 94 -45.5 143t-133.5 49q-123 0 -203 -86
q-65 -69 -93 -252l-72 -454h-146l144 908h146l-16 -102q115 126 276 126q174 0 254 -150z" />
    <glyph glyph-name="n" unicode="n" horiz-adv-x="1043" 
d="M403 806q123 126 293 126q120 0 202 -64q106 -81 106 -233q0 -67 -12 -143l-78 -492h-146l75 474q12 76 12 123q0 94 -50.5 144.5t-144.5 50.5q-132 0 -216 -86q-18 -19 -32.5 -42t-26.5 -52.5t-21 -68t-17 -89.5l-72 -454h-146l144 908h146z" />
    <glyph glyph-name="o" unicode="o" horiz-adv-x="1077" 
d="M660 800q-129 0 -235 -92q-140 -123 -140 -322q0 -104 48 -171q75 -107 224 -107q134 0 240 92q140 125 140 323q0 104 -50 172q-77 105 -227 105zM693 932q204 0 318 -157q74 -103 74 -242q0 -170 -105 -318q-80 -113 -203 -179q-116 -60 -243 -60q-125 0 -222 60
q-175 109 -175 342q0 173 104 316q87 117 204 178q115 60 248 60z" />
    <glyph glyph-name="p" unicode="p" 
d="M712 800q-132 0 -234 -93q-137 -125 -137 -324q0 -104 48 -171q72 -104 221 -104q126 0 232 92q140 122 140 323q0 102 -48 170q-77 107 -222 107zM272 908h146l-18 -120q150 144 342 144q202 0 314 -157q74 -103 74 -243q0 -169 -104 -317q-82 -115 -204 -179
q-114 -60 -238 -60q-183 0 -290 143l-95 -597h-146z" />
    <glyph glyph-name="q" unicode="q" 
d="M665 800q-134 0 -239 -93q-140 -123 -140 -322q0 -105 49 -172q75 -105 226 -105q127 0 228 92q137 125 137 324q0 102 -47 170q-72 106 -214 106zM1139 908l-220 -1386h-146l95 597q-158 -143 -340 -143q-205 0 -317 157q-74 103 -74 242q0 169 105 318q80 114 203 178
q113 61 238 61q184 0 291 -144l19 120h146z" />
    <glyph glyph-name="r" unicode="r" horiz-adv-x="600" 
d="M403 806q100 103 261 103q7 0 16.5 -0.5t22.5 -1.5l-21 -131q-12 1 -21.5 1h-17.5q-95 0 -161 -45q-57 -39 -87 -103q-31 -64 -51 -191l-69 -438h-146l144 908h146z" />
    <glyph glyph-name="s" unicode="s" horiz-adv-x="760" 
d="M657 706q-23 47 -46 66q-40 32 -96 32q-74 0 -123 -43q-50 -44 -50 -104q0 -43 24 -64q21 -21 114 -59l83 -35q91 -37 131.5 -83.5t40.5 -112.5q0 -91 -61 -176q-53 -71 -132 -111t-170 -40q-226 0 -278 232l134 53q14 -43 29.5 -72.5t36 -47.5t46 -26t58.5 -8
q77 0 133 51q56 50 56 119q0 42 -26 66t-112 59l-92 39q-153 63 -153 190q0 124 96 210q103 91 240 91q178 0 244 -164z" />
    <glyph glyph-name="t" unicode="t" horiz-adv-x="504" 
d="M415 776l-79 -503q-2 -16 -3.5 -30.5t-1.5 -28.5q0 -92 83 -92q24 0 63 10l-21 -132q-56 -14 -92 -14q-182 0 -182 199q0 20 2 41.5t6 46.5l79 503h-102l21 132h102l34 215l156 58l-44 -273h151l-21 -132h-151z" />
    <glyph glyph-name="u" unicode="u" horiz-adv-x="1043" 
d="M784 102q-120 -126 -293 -126q-120 0 -202 63q-106 82 -106 234q0 68 12 143l78 492h146l-75 -475q-12 -75 -12 -122q0 -94 50.5 -144.5t144.5 -50.5q132 0 216 86q69 70 97 252l72 454h146l-144 -908h-146z" />
    <glyph glyph-name="v" unicode="v" horiz-adv-x="924" 
d="M302 908l189 -731l419 731h157l-530 -908h-150l-242 908h157z" />
    <glyph glyph-name="w" unicode="w" horiz-adv-x="1368" 
d="M301 908l140 -690l325 690h123l108 -690l358 690h155l-485 -908h-123l-110 683l-327 -683h-122l-198 908h156z" />
    <glyph glyph-name="x" unicode="x" horiz-adv-x="905" 
d="M612 472l282 -472h-171l-214 361l-328 -361h-171l432 471l-261 437h171l193 -327l298 327h168z" />
    <glyph glyph-name="y" unicode="y" horiz-adv-x="904" 
d="M376 41l-231 867h157l179 -690l408 690h157l-827 -1386h-150z" />
    <glyph glyph-name="z" unicode="z" horiz-adv-x="857" 
d="M262 132h582l-20 -132h-765l19 120l667 657h-532l20 131h714l-19 -121z" />
    <glyph glyph-name="braceleft" unicode="{" horiz-adv-x="613" 
d="M324 565q56 -34 75 -79q15 -36 15 -87q0 -18 -1.5 -38t-5.5 -43l-64 -402q-4 -23 -5.5 -39t-1.5 -26q0 -45 29.5 -64t101.5 -19h6t11 1l-20 -129q-18 -1 -31.5 -1h-22.5q-115 0 -168 46.5t-53 148.5q0 37 10 96l61 388q6 37 6 68q0 52 -21 81t-72 43l19 121
q66 16 99.5 57.5t46.5 123.5l62 388q8 52 19.5 92t27.5 70t37.5 52t50.5 38q66 39 169 39h21.5t31.5 -1l-20 -129q-8 1 -13.5 1h-7.5q-86 0 -120 -29q-33 -29 -47 -119l-65 -411q-16 -96 -51 -149t-109 -89z" />
    <glyph glyph-name="bar" unicode="|" horiz-adv-x="1024" 
d="M439 1491h147v-1851h-147v1851z" />
    <glyph glyph-name="braceright" unicode="}" horiz-adv-x="613" 
d="M468 565q-48 28 -64 54q-27 40 -27 110q0 16 1.5 34.5t5.5 39.5l65 411q4 23 5.5 38.5t1.5 25.5q0 60 -60 77q-16 4 -88 6l20 129q18 1 31.5 1h22.5q115 0 168 -46.5t53 -148.5q0 -37 -10 -96l-61 -388q-2 -15 -3.5 -30t-1.5 -31q0 -95 94 -120l-20 -121
q-69 -18 -100 -60q-34 -44 -47 -132l-62 -388q-8 -52 -19.5 -92t-27.5 -70t-38 -52.5t-50 -38.5q-65 -38 -169 -38h-21.5t-31.5 1l20 129q8 -1 13.5 -1h7.5q86 0 120 29q33 29 47 119l64 402q17 101 52 154q34 53 109 93z" />
    <glyph glyph-name="asciitilde" unicode="~" horiz-adv-x="1365" 
d="M190 1249q42 85 75 129q81 107 206 107q77 0 229 -70l77.5 -33.5t48.5 -18.5q34 -12 72 -12q58 0 99 30q40 30 87 108l91 -53q-28 -57 -56 -96.5t-57 -64.5q-80 -70 -183 -70q-43 0 -95 18q-26 9 -74 29l-117 51q-81 36 -133 36q-54 0 -96 -34t-85 -113z" />
    <glyph glyph-name="nonbreakingspace" unicode="&#xa0;" horiz-adv-x="512" 
 />
    <glyph glyph-name="exclamdown" unicode="&#xa1;" horiz-adv-x="571" 
d="M325 682h136l-150 -1059h-171zM445 1009q37 0 61.5 -24t24.5 -61q0 -47 -35 -82q-37 -35 -83 -35q-38 0 -62 24t-24 63q0 45 36 80q37 35 82 35z" />
    <glyph glyph-name="cent" unicode="&#xa2;" 
d="M546 214q-72 15 -129 50q-175 111 -175 341q0 193 130 350q131 158 323 195l34 215h150l-33 -208q159 -20 267 -151l-113 -98q-86 119 -228 119q-138 0 -242 -92q-140 -122 -140 -321q0 -104 49 -172q25 -37 62 -60q73 -45 165 -45q80 0 139 28q30 14 63 38.5t68 59.5
l82 -98q-144 -138 -322 -158l-33 -207h-150z" />
    <glyph glyph-name="sterling" unicode="&#xa3;" horiz-adv-x="1145" 
d="M550 614q3 -41 3 -85q0 -116 -20 -188q-21 -71 -71 -129q-7 -8 -25 -25l-49 -45h677l-22 -142h-889l23 142q112 79 152 128q71 88 71 236q0 20 -1 47t-3 61h-145l22 137h115q-1 17 -1 33v32q0 107 24 205q47 188 188 283q125 85 275 85q222 0 314 -215l-134 -78
q-66 151 -208 151t-224 -106t-82 -291q0 -29 3 -99h421l-22 -137h-392z" />
    <glyph glyph-name="currency" unicode="&#xa4;" horiz-adv-x="1488" 
d="M901 1029q-128 0 -234 -92q-140 -123 -140 -322q0 -104 48 -171q75 -107 224 -107q134 0 239 93q140 123 140 322q0 104 -50 172q-77 105 -227 105zM622 1061q140 100 307 100q164 0 273 -100l212 185l71 -81l-215 -188q56 -92 56 -216q0 -209 -148 -372l155 -187
l-95 -83l-154 187q-143 -101 -308 -101t-275 101l-213 -187l-68 83l214 187q-55 91 -55 217q0 207 149 371l-155 188l96 81z" />
    <glyph glyph-name="yen" unicode="&#xa5;" horiz-adv-x="1242" 
d="M773 477l-76 -477h-152l75 477h-333l22 137h308l-54 136h-233l22 137h156l-190 478h168l249 -652l455 652h166l-342 -478h157l-22 -137h-232l-98 -136h309l-22 -137h-333z" />
    <glyph glyph-name="brokenbar" unicode="&#xa6;" horiz-adv-x="1024" 
d="M439 336h147v-696h-147v696zM439 1491h147v-696h-147v696z" />
    <glyph glyph-name="section" unicode="&#xa7;" horiz-adv-x="1113" 
d="M516 698q-67 -43 -106 -104t-39 -122q0 -119 167 -188l125 -52q49 -20 93 -45q123 111 123 236q0 66 -47 113.5t-155 92.5l-120 50q-10 4 -20 9zM866 100q63 -68 63 -173q0 -41 -9 -82t-25.5 -80t-40 -74t-53.5 -64q-134 -129 -346 -129q-141 0 -233.5 66.5t-148.5 209.5
l134 79q33 -84 73 -127q78 -86 204 -86q121 0 201 71q91 79 91 192q0 64 -48.5 113t-156.5 94l-120 51q-233 98 -233 284q0 99 42.5 178.5t136.5 157.5q-73 76 -73 186q0 132 89 245q72 90 180 136q96 41 196 41q227 0 325 -215l-134 -79q-72 152 -219 152t-232 -115
q-52 -70 -52 -142q0 -118 167 -187l125 -52q266 -110 266 -304q0 -164 -125 -303z" />
    <glyph glyph-name="dieresis" unicode="&#xa8;" horiz-adv-x="975" 
d="M507 1312q38 0 63 -24.5t25 -61.5q0 -47 -36 -83q-38 -36 -84 -36q-38 0 -62.5 24.5t-24.5 62.5q0 47 36 83q37 35 83 35zM884 1312q37 0 62 -24.5t25 -61.5q0 -47 -36 -83q-38 -36 -84 -36q-38 0 -63 24.5t-25 63.5q0 46 37 82q37 35 84 35z" />
    <glyph glyph-name="copyright" unicode="&#xa9;" horiz-adv-x="1754" 
d="M866 1344q-168 0 -320 -89q-154 -91 -242 -242q-89 -152 -89 -330q0 -177 89 -331q88 -154 242 -242q155 -89 331 -89t331 89t242 242q89 155 89 336q0 286 -219 486q-188 170 -454 170zM889 1457q199 0 375 -104q180 -106 284 -283q104 -179 104 -387q0 -207 -104 -388
q-103 -179 -284 -283t-387 -104t-387 104q-91 52 -161.5 122.5t-122.5 160.5q-104 182 -104 394q0 333 257 569q218 199 530 199zM1160 910q-65 67 -120 96q-56 28 -133 28q-166 0 -263 -126q-77 -98 -77 -226q0 -154 106 -257q97 -94 232 -94q76 0 132 27q55 27 128 100
l90 -91q-29 -29 -52 -49t-40 -32q-115 -80 -255 -80q-217 0 -356 160q-119 137 -119 316q0 127 63 238q65 114 173 176q109 63 239 63q99 0 177 -35q73 -34 165 -124z" />
    <glyph glyph-name="ordfeminine" unicode="&#xaa;" horiz-adv-x="733" 
d="M560 1290q-86 0 -148 -65q-61 -64 -61 -157q0 -57 28 -94q42 -57 126 -57q113 0 175 99q35 56 35 123q0 59 -28 96q-42 55 -127 55zM776 832h-111l9 61q-95 -75 -192 -75q-125 0 -195 93q-48 63 -48 147q0 101 64 189q49 67 126 106q71 37 147 37q95 0 165 -76l10 62h111
z" />
    <glyph glyph-name="guillemotleft" unicode="&#xab;" horiz-adv-x="883" 
d="M304 455l196 -301l-107 -75l-246 375l366 384l83 -75zM608 455l195 -301l-107 -75l-245 375l366 384l83 -75z" />
    <glyph glyph-name="logicalnot" unicode="&#xac;" horiz-adv-x="1365" 
d="M1229 166h-145v406h-947v131h1092v-537z" />
    <glyph glyph-name="uni00AD" unicode="&#xad;" horiz-adv-x="522" 
d="M160 537h372l-21 -131h-372z" />
    <glyph glyph-name="registered" unicode="&#xae;" horiz-adv-x="1754" 
d="M866 1344q-168 0 -320 -89q-154 -91 -242 -242q-89 -152 -89 -330q0 -177 89 -331q88 -154 242 -242q155 -89 331 -89t331 89t242 242q89 155 89 336q0 286 -219 486q-188 170 -454 170zM889 1457q199 0 375 -104q180 -106 284 -283q104 -179 104 -387q0 -207 -104 -388
q-103 -179 -284 -283t-387 -104t-387 104q-91 52 -161.5 122.5t-122.5 160.5q-104 182 -104 394q0 333 257 569q218 199 530 199zM745 1021v-314h128q181 0 181 157t-181 157h-128zM1242 222h-150l-214 364h-133v-364h-132v921h248q160 0 236 -70q88 -79 88 -209
q0 -93 -43.5 -158.5t-128.5 -100.5z" />
    <glyph glyph-name="macron" unicode="&#xaf;" horiz-adv-x="975" 
d="M410 1275h559l-20 -130h-560z" />
    <glyph glyph-name="degree" unicode="&#xb0;" horiz-adv-x="708" 
d="M641 1403q-78 0 -139 -61q-62 -62 -62 -140q0 -63 43 -105q42 -42 106 -42q80 0 142 62q61 61 61 140q0 31 -11 58t-31.5 46.5t-48 30.5t-60.5 11zM665 1515q101 0 172 -68q69 -69 69 -171q0 -121 -85 -215q-105 -118 -250 -118q-119 0 -189 84q-55 64 -55 157
q0 120 85 215q104 116 253 116z" />
    <glyph glyph-name="plusminus" unicode="&#xb1;" horiz-adv-x="1139" 
d="M1063 128l-20 -128h-947l20 128h947zM630 801l65 410h133l-65 -410h407l-20 -127h-407l-65 -409h-133l65 409h-407l20 127h407z" />
    <glyph glyph-name="twosuperior" unicode="&#xb2;" horiz-adv-x="792" 
d="M268 831l15 95l355 327q121 111 121 198q0 46 -31 72t-88 26q-33 0 -58.5 -6.5t-46.5 -22t-38.5 -40t-33.5 -60.5l-102 28q83 206 299 206q48 0 87.5 -13t67.5 -37.5t43.5 -58.5t15.5 -76q0 -136 -123 -248l-310 -285h369l-16 -105h-526z" />
    <glyph glyph-name="threesuperior" unicode="&#xb3;" horiz-adv-x="792" 
d="M538 1307h47q75 0 120 38.5t45 102.5q0 48 -30 74.5t-84 26.5q-49 0 -82 -18q-33 -17 -80 -69l-87 53q111 140 267 140q48 0 87 -13.5t66.5 -38t42.5 -59.5t15 -77q0 -129 -106 -204q69 -59 69 -151q0 -96 -59 -173q-21 -28 -49.5 -50.5t-62.5 -38t-71 -24t-75 -8.5
q-77 0 -135 36t-81 99q-8 18 -12 48l-3 29l117 30q4 -38 11 -58q27 -77 121 -77q77 0 130 48q52 48 52 118q0 112 -142 112h-48z" />
    <glyph glyph-name="acute" unicode="&#xb4;" horiz-adv-x="975" 
d="M955 1312l-297 -258l-84 53l250 282z" />
    <glyph glyph-name="mu" unicode="&#xb5;" horiz-adv-x="1043" 
d="M275 -478h-146v1386h146v-475q0 -49 3.5 -87t11 -67.5t19 -52.5t28.5 -41q63 -69 171 -69q132 0 203 86q57 69 57 252v454h146v-908h-146v89q-104 -113 -265 -113q-132 0 -228 113v-567z" />
    <glyph glyph-name="paragraph" unicode="&#xb6;" horiz-adv-x="1311" 
d="M675 450h-23q-203 0 -309 150q-69 97 -69 233q0 162 100 304q76 109 193 170q110 58 230 58h627l-20 -127h-133l-272 -1716h-133l272 1716h-202h-3l-272 -1716h-133z" />
    <glyph glyph-name="periodcentered" unicode="&#xb7;" horiz-adv-x="464" 
d="M356 784q37 0 61.5 -24t24.5 -61q0 -46 -35 -81q-36 -36 -83 -36q-38 0 -62 24.5t-24 62.5q0 45 36 80q37 35 82 35z" />
    <glyph glyph-name="cedilla" unicode="&#xb8;" horiz-adv-x="975" 
d="M631 -154l-249 -262l-92 50l215 270z" />
    <glyph glyph-name="onesuperior" unicode="&#xb9;" horiz-adv-x="792" 
d="M618 831h-116l107 678l-132 -67l-40 91l210 107h99z" />
    <glyph glyph-name="ordmasculine" unicode="&#xba;" horiz-adv-x="720" 
d="M560 1290q-85 0 -147 -65t-62 -157q0 -57 28 -94q43 -57 127 -57q115 0 178 100q34 55 34 123q0 57 -28 94q-44 56 -130 56zM584 1389q127 0 198 -93q48 -63 48 -147q0 -100 -64 -188q-49 -67 -122.5 -105t-154.5 -38q-132 0 -202 93q-47 62 -47 149q0 102 64 187
q108 142 280 142z" />
    <glyph glyph-name="guillemotright" unicode="&#xbb;" horiz-adv-x="883" 
d="M419 455l-194 308l106 75l245 -384l-365 -375l-83 75zM723 455l-195 308l107 75l245 -384l-365 -375l-83 75z" />
    <glyph glyph-name="onequarter" unicode="&#xbc;" horiz-adv-x="1707" 
d="M503 557h-116l107 677l-131 -67l-41 91l210 107h99zM1481 771l-398 -493h234l33 209h116l-33 -209h100l-16 -104h-101l-27 -174h-116l28 174h-365l17 105l442 549zM1338 1389l77 -49l-1006 -1365l-77 48z" />
    <glyph glyph-name="onehalf" unicode="&#xbd;" horiz-adv-x="1707" 
d="M1017 0l15 95l355 327q120 111 120 198q0 46 -31 72t-88 26q-67 0 -104 -28q-39 -28 -73 -101l-101 29q84 205 299 205q48 0 87.5 -13t67.5 -37.5t43 -58.5t15 -76q0 -135 -122 -248l-310 -285h369l-16 -105h-526zM503 557h-116l107 677l-131 -67l-41 91l210 107h99z
M1338 1389l77 -49l-1006 -1365l-77 48z" />
    <glyph glyph-name="threequarters" unicode="&#xbe;" horiz-adv-x="1707" 
d="M1561 771l-397 -493h234l33 209h115l-33 -209h101l-17 -104h-100l-28 -174h-115l27 174h-364l16 105l443 549zM483 1032h47q75 0 120 38.5t45 102.5q0 48 -30 74t-84 26q-49 0 -82 -18q-17 -9 -37 -26t-43 -42l-87 52q110 140 267 140q48 0 87 -13t66.5 -37.5t42.5 -59.5
t15 -78q0 -128 -106 -204q69 -59 69 -151q0 -96 -59 -173q-21 -27 -49.5 -49.5t-62.5 -38.5t-71 -24.5t-75 -8.5q-77 0 -135 36t-81 99q-8 19 -12 48l-3 29l117 30q4 -38 11 -58q27 -77 122 -77q77 0 129 49q52 48 52 118q0 111 -142 111h-48zM1464 1389l77 -49l-1006 -1365
l-77 48z" />
    <glyph glyph-name="questiondown" unicode="&#xbf;" horiz-adv-x="863" 
d="M642 1009q38 0 62 -24.5t24 -62.5q0 -45 -35 -80q-37 -35 -83 -35q-37 0 -61.5 24t-24.5 60q0 47 36 83q37 35 82 35zM665 682l-24 -154q-15 -95 -44 -142q-30 -48 -114 -111l-101 -76q-173 -131 -173 -278q0 -74 44 -121q54 -58 159 -58q92 0 153 34q60 34 138 127
l95 -92q-157 -211 -398 -211q-174 0 -265 88q-78 76 -78 211q0 110 51 199q51 88 174 189l115 94q29 25 47.5 43t25.5 29t13.5 34t11.5 58l21 137h149z" />
    <glyph glyph-name="Agrave" unicode="&#xc0;" horiz-adv-x="1270" 
d="M649 1722l156 77l160 -282l-101 -53zM456 528h523l-154 689zM380 386l-208 -386h-158l742 1365h191l309 -1365h-159l-86 386h-631z" />
    <glyph glyph-name="Aacute" unicode="&#xc1;" horiz-adv-x="1270" 
d="M1161 1722l-297 -258l-83 53l249 282zM456 528h523l-154 689zM380 386l-208 -386h-158l742 1365h191l309 -1365h-159l-86 386h-631z" />
    <glyph glyph-name="Acircumflex" unicode="&#xc2;" horiz-adv-x="1270" 
d="M895 1642l-216 -178l-97 53l276 258h117l194 -258l-113 -53zM456 528h523l-154 689zM380 386l-208 -386h-158l742 1365h191l309 -1365h-159l-86 386h-631z" />
    <glyph glyph-name="Atilde" unicode="&#xc3;" horiz-adv-x="1270" 
d="M1182 1694q-44 -174 -188 -174q-54 0 -133 39q-61 31 -83 31q-24 0 -38 -15.5t-28 -57.5l-111 27q22 82 72.5 128t117.5 46q46 0 136 -44q54 -26 82 -26q25 0 37.5 15.5t22.5 58.5zM456 528h523l-154 689zM380 386l-208 -386h-158l742 1365h191l309 -1365h-159l-86 386
h-631z" />
    <glyph glyph-name="Adieresis" unicode="&#xc4;" horiz-adv-x="1270" 
d="M719 1722q39 0 64 -24.5t25 -61.5q0 -47 -36 -83q-38 -36 -85 -36q-38 0 -62.5 24.5t-24.5 62.5q0 46 37 82q36 36 82 36zM1096 1722q38 0 62.5 -24t24.5 -62q0 -47 -36 -83t-83 -36q-38 0 -63 24.5t-25 63.5q0 45 37 81q36 36 83 36zM456 528h523l-154 689zM380 386
l-208 -386h-158l742 1365h191l309 -1365h-159l-86 386h-631z" />
    <glyph glyph-name="Aring" unicode="&#xc5;" horiz-adv-x="1270" 
d="M909 1725q-50 0 -87 -37q-38 -38 -38 -84q0 -39 25.5 -64.5t65.5 -25.5q50 0 87 37t37 85q0 39 -25.5 64t-64.5 25zM920 1799q69 0 113 -43q45 -44 45 -108q0 -76 -54 -134q-68 -74 -160 -74q-35 0 -64 11.5t-50 32t-32.5 49t-11.5 62.5q0 79 65 142q65 62 149 62z
M456 528h523l-154 689zM380 386l-208 -386h-158l742 1365h191l309 -1365h-159l-86 386h-631z" />
    <glyph glyph-name="AE" unicode="&#xc6;" horiz-adv-x="1720" 
d="M995 528l110 696h-106l-463 -696h459zM972 386h-530l-257 -386h-171l920 1365h896l-22 -141h-550l-73 -461h489l-23 -142h-489l-76 -479h571l-22 -142h-724z" />
    <glyph glyph-name="Ccedilla" unicode="&#xc7;" horiz-adv-x="1356" 
d="M821 -154l-249 -262l-92 50l215 270zM1345 1066q-29 37 -56.5 64t-53.5 44q-107 72 -249 72q-232 0 -410 -157q-55 -48 -98 -105t-74 -124q-63 -134 -63 -272q0 -187 113 -317q134 -152 354 -152q116 0 212 43q97 42 211 141l88 -105q-103 -88 -185 -132
q-167 -90 -347 -90q-202 0 -350 100q-137 93 -205 252q-47 114 -47 244q0 242 159 463q121 167 297 260q176 94 369 94q143 0 250 -51q104 -50 206 -167z" />
    <glyph glyph-name="Egrave" unicode="&#xc8;" horiz-adv-x="973" 
d="M556 1722l156 77l160 -282l-100 -53zM1061 1224h-550l-73 -461h489l-23 -142h-489l-76 -479h571l-22 -142h-724l216 1365h703z" />
    <glyph glyph-name="Eacute" unicode="&#xc9;" horiz-adv-x="973" 
d="M1041 1722l-297 -258l-84 53l250 282zM1061 1224h-550l-73 -461h489l-23 -142h-489l-76 -479h571l-22 -142h-724l216 1365h703z" />
    <glyph glyph-name="Ecircumflex" unicode="&#xca;" horiz-adv-x="973" 
d="M786 1642l-217 -178l-96 53l276 258h116l195 -258l-114 -53zM1061 1224h-550l-73 -461h489l-23 -142h-489l-76 -479h571l-22 -142h-724l216 1365h703z" />
    <glyph glyph-name="Edieresis" unicode="&#xcb;" horiz-adv-x="973" 
d="M607 1722q38 0 63 -24.5t25 -61.5q0 -47 -36 -83q-38 -36 -84 -36q-38 0 -62.5 24.5t-24.5 62.5q0 46 36 82t83 36zM983 1722q38 0 62.5 -24t24.5 -62q0 -47 -36 -83t-83 -36q-38 0 -63 24.5t-25 63.5q0 46 37 82q37 35 83 35zM1061 1224h-550l-73 -461h489l-23 -142
h-489l-76 -479h571l-22 -142h-724l216 1365h703z" />
    <glyph glyph-name="Igrave" unicode="&#xcc;" horiz-adv-x="481" 
d="M252 1722l155 77l160 -282l-100 -53zM533 1365l-216 -1365h-153l216 1365h153z" />
    <glyph glyph-name="Iacute" unicode="&#xcd;" horiz-adv-x="481" 
d="M775 1722l-297 -258l-84 53l250 282zM533 1365l-216 -1365h-153l216 1365h153z" />
    <glyph glyph-name="Icircumflex" unicode="&#xce;" horiz-adv-x="481" 
d="M501 1642l-217 -178l-97 53l277 258h116l194 -258l-113 -53zM533 1365l-216 -1365h-153l216 1365h153z" />
    <glyph glyph-name="Idieresis" unicode="&#xcf;" horiz-adv-x="481" 
d="M376 1722q38 0 63 -24.5t25 -61.5q0 -47 -36 -83q-38 -36 -84 -36q-38 0 -62.5 24.5t-24.5 62.5q0 46 36 82t83 36zM650 1722q38 0 62.5 -24t24.5 -62q0 -47 -36 -83t-83 -36q-38 0 -63 24.5t-25 63.5q0 46 37 82q37 35 83 35zM533 1365l-216 -1365h-153l216 1365h153z
" />
    <glyph glyph-name="Eth" unicode="&#xd0;" horiz-adv-x="1298" 
d="M475 804h328l-22 -137h-328l-83 -525h134q336 0 524 228q146 178 146 418q0 199 -127 314q-133 121 -372 121h-134zM322 804l89 561h280q307 0 478 -153q162 -146 162 -398q0 -154 -56 -304q-108 -288 -382 -421q-186 -89 -418 -89h-280l106 667h-137l22 137h136z" />
    <glyph glyph-name="Ntilde" unicode="&#xd1;" horiz-adv-x="1454" 
d="M1291 1694q-44 -174 -188 -174q-53 0 -132 39q-62 31 -84 31q-24 0 -38 -15.5t-28 -57.5l-111 27q22 82 72.5 128t117.5 46q46 0 136 -44q55 -26 82 -26q25 0 37.5 15.5t22.5 58.5zM164 0l216 1365h144l653 -1116l177 1116h153l-217 -1365h-143l-653 1116l-177 -1116
h-153z" />
    <glyph glyph-name="Ograve" unicode="&#xd2;" horiz-adv-x="1565" 
d="M799 1722l155 77l160 -282l-100 -53zM983 1246q-222 0 -404 -157q-111 -96 -174 -229q-64 -132 -64 -272q0 -186 116 -317q72 -81 177 -122q76 -30 160 -30q216 0 401 152q115 94 180 228q65 135 65 275q0 184 -108 315q-74 88 -182 126q-84 31 -167 31zM1008 1389
q180 0 322 -94q147 -95 218 -260q48 -113 48 -242q0 -246 -160 -464q-117 -159 -288 -253q-181 -100 -381 -100q-178 0 -326 100q-141 94 -208 253q-46 110 -46 249q0 248 158 457q126 168 300 260q175 94 363 94z" />
    <glyph glyph-name="Oacute" unicode="&#xd3;" horiz-adv-x="1565" 
d="M1311 1722l-297 -258l-83 53l249 282zM983 1246q-222 0 -404 -157q-111 -96 -174 -229q-64 -132 -64 -272q0 -186 116 -317q72 -81 177 -122q76 -30 160 -30q216 0 401 152q115 94 180 228q65 135 65 275q0 184 -108 315q-74 88 -182 126q-84 31 -167 31zM1008 1389
q180 0 322 -94q147 -95 218 -260q48 -113 48 -242q0 -246 -160 -464q-117 -159 -288 -253q-181 -100 -381 -100q-178 0 -326 100q-141 94 -208 253q-46 110 -46 249q0 248 158 457q126 168 300 260q175 94 363 94z" />
    <glyph glyph-name="Ocircumflex" unicode="&#xd4;" horiz-adv-x="1565" 
d="M1042 1642l-216 -178l-97 53l276 258h116l195 -258l-113 -53zM983 1246q-222 0 -404 -157q-111 -96 -174 -229q-64 -132 -64 -272q0 -186 116 -317q72 -81 177 -122q76 -30 160 -30q216 0 401 152q115 94 180 228q65 135 65 275q0 184 -108 315q-74 88 -182 126
q-84 31 -167 31zM1008 1389q180 0 322 -94q147 -95 218 -260q48 -113 48 -242q0 -246 -160 -464q-117 -159 -288 -253q-181 -100 -381 -100q-178 0 -326 100q-141 94 -208 253q-46 110 -46 249q0 248 158 457q126 168 300 260q175 94 363 94z" />
    <glyph glyph-name="Otilde" unicode="&#xd5;" horiz-adv-x="1565" 
d="M1329 1694q-44 -174 -188 -174q-54 0 -133 39q-61 31 -83 31q-24 0 -38 -15.5t-28 -57.5l-111 27q22 82 72.5 128t117.5 46q46 0 136 -44q54 -26 82 -26q25 0 37.5 15.5t22.5 58.5zM983 1246q-222 0 -404 -157q-111 -96 -174 -229q-64 -132 -64 -272q0 -186 116 -317
q72 -81 177 -122q76 -30 160 -30q216 0 401 152q115 94 180 228q65 135 65 275q0 184 -108 315q-74 88 -182 126q-84 31 -167 31zM1008 1389q180 0 322 -94q147 -95 218 -260q48 -113 48 -242q0 -246 -160 -464q-117 -159 -288 -253q-181 -100 -381 -100q-178 0 -326 100
q-141 94 -208 253q-46 110 -46 249q0 248 158 457q126 168 300 260q175 94 363 94z" />
    <glyph glyph-name="Odieresis" unicode="&#xd6;" horiz-adv-x="1565" 
d="M867 1722q38 0 63 -24.5t25 -61.5q0 -47 -36 -83q-38 -36 -85 -36q-38 0 -62.5 24.5t-24.5 62.5q0 46 37 82q36 36 83 36zM1243 1722q38 0 62.5 -24t24.5 -62q0 -47 -36 -83t-83 -36q-38 0 -63 24.5t-25 63.5q0 45 37 81q36 36 83 36zM983 1246q-222 0 -404 -157
q-111 -96 -174 -229q-64 -132 -64 -272q0 -186 116 -317q72 -81 177 -122q76 -30 160 -30q216 0 401 152q115 94 180 228q65 135 65 275q0 184 -108 315q-74 88 -182 126q-84 31 -167 31zM1008 1389q180 0 322 -94q147 -95 218 -260q48 -113 48 -242q0 -246 -160 -464
q-117 -159 -288 -253q-181 -100 -381 -100q-178 0 -326 100q-141 94 -208 253q-46 110 -46 249q0 248 158 457q126 168 300 260q175 94 363 94z" />
    <glyph glyph-name="multiply" unicode="&#xd7;" horiz-adv-x="1139" 
d="M578 639l-243 289l107 91l243 -288l334 288l77 -91l-334 -289l243 -289l-106 -91l-243 288l-335 -288l-77 91z" />
    <glyph glyph-name="Oslash" unicode="&#xd8;" horiz-adv-x="1580" 
d="M484 250q61 -61 145.5 -96t172.5 -35q215 0 400 152q115 94 180 228q65 135 65 276q0 138 -68 256zM1313 1116q-137 130 -320 130q-225 0 -406 -157q-112 -96 -175 -229q-63 -134 -63 -272q0 -135 68 -254zM295 228q-102 148 -102 345q0 244 160 462q120 165 299 260
q175 94 366 94q213 0 376 -134l38 -35l170 148l71 -80l-173 -151q103 -148 103 -346q0 -245 -160 -463q-116 -158 -288 -252q-181 -100 -377 -100q-241 0 -414 169l-170 -148l-71 80z" />
    <glyph glyph-name="Ugrave" unicode="&#xd9;" horiz-adv-x="1301" 
d="M680 1722l156 77l160 -282l-100 -53zM533 1365l-134 -846q-8 -50 -12 -87t-4 -63q0 -109 74 -175q85 -76 210 -76q130 0 239 76q72 49 105 117q32 65 55 208l134 846h153l-140 -887q-9 -55 -21.5 -100t-28.5 -82q-32 -74 -90 -135q-85 -91 -202 -140q-110 -46 -225 -46
q-191 0 -315 119q-103 100 -103 251q0 32 3 65t8 68l141 887h153z" />
    <glyph glyph-name="Uacute" unicode="&#xda;" horiz-adv-x="1301" 
d="M1165 1722l-297 -258l-83 53l249 282zM533 1365l-134 -846q-8 -50 -12 -87t-4 -63q0 -109 74 -175q85 -76 210 -76q130 0 239 76q72 49 105 117q32 65 55 208l134 846h153l-140 -887q-9 -55 -21.5 -100t-28.5 -82q-32 -74 -90 -135q-85 -91 -202 -140q-110 -46 -225 -46
q-191 0 -315 119q-103 100 -103 251q0 32 3 65t8 68l141 887h153z" />
    <glyph glyph-name="Ucircumflex" unicode="&#xdb;" horiz-adv-x="1301" 
d="M910 1642l-216 -178l-97 53l276 258h116l195 -258l-113 -53zM533 1365l-134 -846q-8 -50 -12 -87t-4 -63q0 -109 74 -175q85 -76 210 -76q130 0 239 76q72 49 105 117q32 65 55 208l134 846h153l-140 -887q-9 -55 -21.5 -100t-28.5 -82q-32 -74 -90 -135
q-85 -91 -202 -140q-110 -46 -225 -46q-191 0 -315 119q-103 100 -103 251q0 32 3 65t8 68l141 887h153z" />
    <glyph glyph-name="Udieresis" unicode="&#xdc;" horiz-adv-x="1301" 
d="M735 1722q38 0 63 -24.5t25 -61.5q0 -47 -36 -83q-38 -36 -85 -36q-38 0 -62.5 24.5t-24.5 62.5q0 46 37 82q36 36 83 36zM1111 1722q38 0 62.5 -24t24.5 -62q0 -47 -36 -83t-83 -36q-38 0 -63 24.5t-25 63.5q0 45 37 81q36 36 83 36zM533 1365l-134 -846q-8 -50 -12 -87
t-4 -63q0 -109 74 -175q85 -76 210 -76q130 0 239 76q72 49 105 117q32 65 55 208l134 846h153l-140 -887q-9 -55 -21.5 -100t-28.5 -82q-32 -74 -90 -135q-85 -91 -202 -140q-110 -46 -225 -46q-191 0 -315 119q-103 100 -103 251q0 32 3 65t8 68l141 887h153z" />
    <glyph glyph-name="Yacute" unicode="&#xdd;" horiz-adv-x="1038" 
d="M1034 1722l-297 -258l-84 53l249 282zM532 570l-316 795h167l249 -652l456 652h166l-569 -795l-90 -570h-153z" />
    <glyph glyph-name="Thorn" unicode="&#xde;" horiz-adv-x="956" 
d="M394 487h145q122 0 193 38q70 37 114 116q42 76 42 167q0 109 -64 160.5t-200 51.5h-146zM501 1161h127q63 0 112.5 -5.5t89 -18t70.5 -31.5t56 -46q84 -90 84 -233q0 -181 -121 -320q-72 -84 -171 -122q-96 -37 -249 -37h-127l-55 -348h-153l216 1365h153z" />
    <glyph glyph-name="germandbls" unicode="&#xdf;" horiz-adv-x="1061" 
d="M129 0l162 1021q24 152 129 251q126 117 290 117q139 0 225 -74q96 -84 96 -222q0 -104 -45 -198q-46 -96 -118 -146q169 -75 169 -286q0 -149 -92 -271q-146 -192 -419 -192h-115l22 140h122q175 0 273 128q61 82 61 177q0 106 -65.5 160.5t-191.5 54.5h-10l21 132h10
q117 0 179 93q53 82 53 185q0 88 -49.5 138t-137.5 50q-101 0 -172 -65q-73 -67 -89 -172l-162 -1021h-146z" />
    <glyph glyph-name="agrave" unicode="&#xe0;" 
d="M485 1312l155 77l160 -282l-100 -53zM658 800q-126 0 -232 -92q-140 -123 -140 -323q0 -103 48 -170q75 -107 222 -107q133 0 235 93q138 124 138 323q0 104 -48 172q-74 104 -223 104zM995 0h-146l19 119q-155 -143 -342 -143q-203 0 -315 157q-74 104 -74 243
q0 170 105 317q80 114 203 178q113 61 238 61q181 0 291 -144l18 120h146z" />
    <glyph glyph-name="aacute" unicode="&#xe1;" 
d="M1010 1312l-297 -258l-83 53l249 282zM658 800q-126 0 -232 -92q-140 -123 -140 -323q0 -103 48 -170q75 -107 222 -107q133 0 235 93q138 124 138 323q0 104 -48 172q-74 104 -223 104zM995 0h-146l19 119q-155 -143 -342 -143q-203 0 -315 157q-74 104 -74 243
q0 170 105 317q80 114 203 178q113 61 238 61q181 0 291 -144l18 120h146z" />
    <glyph glyph-name="acircumflex" unicode="&#xe2;" 
d="M729 1232l-217 -178l-97 53l277 258h116l194 -258l-113 -53zM658 800q-126 0 -232 -92q-140 -123 -140 -323q0 -103 48 -170q75 -107 222 -107q133 0 235 93q138 124 138 323q0 104 -48 172q-74 104 -223 104zM995 0h-146l19 119q-155 -143 -342 -143q-203 0 -315 157
q-74 104 -74 243q0 170 105 317q80 114 203 178q113 61 238 61q181 0 291 -144l18 120h146z" />
    <glyph glyph-name="atilde" unicode="&#xe3;" 
d="M1016 1285q-21 -85 -69 -129.5t-120 -44.5q-53 0 -132 39q-61 31 -84 31q-24 0 -38 -15.5t-27 -58.5l-112 28q22 81 72 127.5t119 46.5q45 0 135 -44q54 -26 82 -26q26 0 38.5 15t22.5 58zM658 800q-126 0 -232 -92q-140 -123 -140 -323q0 -103 48 -170q75 -107 222 -107
q133 0 235 93q138 124 138 323q0 104 -48 172q-74 104 -223 104zM995 0h-146l19 119q-155 -143 -342 -143q-203 0 -315 157q-74 104 -74 243q0 170 105 317q80 114 203 178q113 61 238 61q181 0 291 -144l18 120h146z" />
    <glyph glyph-name="adieresis" unicode="&#xe4;" 
d="M570 1312q38 0 63 -24.5t25 -61.5q0 -47 -36 -83q-38 -36 -84 -36q-38 0 -62.5 24.5t-24.5 62.5q0 47 36 83q37 35 83 35zM946 1312q38 0 62.5 -24.5t24.5 -61.5q0 -47 -36 -83t-83 -36q-38 0 -63 24.5t-25 63.5q0 46 37 82q37 35 83 35zM658 800q-126 0 -232 -92
q-140 -123 -140 -323q0 -103 48 -170q75 -107 222 -107q133 0 235 93q138 124 138 323q0 104 -48 172q-74 104 -223 104zM995 0h-146l19 119q-155 -143 -342 -143q-203 0 -315 157q-74 104 -74 243q0 170 105 317q80 114 203 178q113 61 238 61q181 0 291 -144l18 120h146z
" />
    <glyph glyph-name="aring" unicode="&#xe5;" 
d="M766 1315q-49 0 -86 -36q-38 -38 -38 -85q0 -39 25.5 -64.5t64.5 -25.5q50 0 87 37t37 85q0 39 -25.5 64t-64.5 25zM777 1389q69 0 113 -43q45 -44 45 -108q0 -74 -54 -134q-68 -74 -160 -74q-69 0 -113 44q-45 43 -45 110q0 80 65 143q65 62 149 62zM658 800
q-126 0 -232 -92q-140 -123 -140 -323q0 -103 48 -170q75 -107 222 -107q133 0 235 93q138 124 138 323q0 104 -48 172q-74 104 -223 104zM995 0h-146l19 119q-155 -143 -342 -143q-203 0 -315 157q-74 104 -74 243q0 170 105 317q80 114 203 178q113 61 238 61
q181 0 291 -144l18 120h146z" />
    <glyph glyph-name="ae" unicode="&#xe6;" horiz-adv-x="1683" 
d="M1548 517q1 6 1 10.5v6.5q0 41 -10 80q-22 91 -88 140q-60 45 -143 45q-116 0 -208 -77q-94 -79 -131 -205h579zM815 462h-264q-136 0 -210 -50q-83 -56 -83 -157q0 -66 49 -100q67 -47 188 -47q264 0 293 185zM861 150q-111 -174 -387 -174q-86 0 -153 17.5t-113 50.5
t-70.5 81t-24.5 110q0 160 118 256q117 96 311 96h288v30q0 88 -60 135t-174 47q-162 0 -309 -102l-52 98q187 136 399 136q249 0 315 -180q166 180 379 180q161 0 262 -108q100 -109 100 -284q0 -56 -17 -147h-723q-1 -7 -1 -11v-6q0 -99 55 -173q67 -94 200 -94
q184 0 303 161l122 -55q-87 -117 -200 -177.5t-244 -60.5q-215 0 -324 174z" />
    <glyph glyph-name="ccedilla" unicode="&#xe7;" horiz-adv-x="936" 
d="M577 -154l-249 -262l-92 50l215 270zM895 680q-84 120 -228 120q-138 0 -242 -92q-140 -122 -140 -323q0 -104 49 -172q73 -105 227 -105q80 0 139 28q61 29 131 99l82 -98q-48 -44 -93 -74.5t-88 -49.5q-86 -37 -192 -37q-128 0 -227 60q-103 61 -147 179
q-29 78 -29 162q0 168 104 317q82 115 204 178q117 60 246 60q190 0 317 -154z" />
    <glyph glyph-name="egrave" unicode="&#xe8;" horiz-adv-x="1017" 
d="M470 1312l156 77l160 -282l-100 -53zM882 517v17q0 42 -10 81q-23 91 -88 140q-60 45 -143 45q-115 0 -208 -78t-130 -205h579zM283 392q-1 -5 -1 -9.5v-7.5v-11q0 -83 55 -162q67 -94 200 -94q185 0 304 161l121 -55q-85 -115 -199 -176.5t-245 -61.5q-209 0 -315 157
q-67 100 -67 241q0 130 62 252q68 136 189 218q127 88 275 88q161 0 261 -109t100 -284q0 -61 -16 -147h-724z" />
    <glyph glyph-name="eacute" unicode="&#xe9;" horiz-adv-x="1017" 
d="M962 1312l-297 -258l-83 53l249 282zM882 517v17q0 42 -10 81q-23 91 -88 140q-60 45 -143 45q-115 0 -208 -78t-130 -205h579zM283 392q-1 -5 -1 -9.5v-7.5v-11q0 -83 55 -162q67 -94 200 -94q185 0 304 161l121 -55q-85 -115 -199 -176.5t-245 -61.5q-209 0 -315 157
q-67 100 -67 241q0 130 62 252q68 136 189 218q127 88 275 88q161 0 261 -109t100 -284q0 -61 -16 -147h-724z" />
    <glyph glyph-name="ecircumflex" unicode="&#xea;" horiz-adv-x="1017" 
d="M703 1232l-216 -178l-97 53l276 258h116l195 -258l-114 -53zM882 517v17q0 42 -10 81q-23 91 -88 140q-60 45 -143 45q-115 0 -208 -78t-130 -205h579zM283 392q-1 -5 -1 -9.5v-7.5v-11q0 -83 55 -162q67 -94 200 -94q185 0 304 161l121 -55q-85 -115 -199 -176.5
t-245 -61.5q-209 0 -315 157q-67 100 -67 241q0 130 62 252q68 136 189 218q127 88 275 88q161 0 261 -109t100 -284q0 -61 -16 -147h-724z" />
    <glyph glyph-name="edieresis" unicode="&#xeb;" horiz-adv-x="1017" 
d="M528 1312q38 0 63 -24.5t25 -61.5q0 -47 -36 -83q-38 -36 -85 -36q-38 0 -62.5 24.5t-24.5 62.5q0 47 37 83q37 35 83 35zM904 1312q37 0 62 -24.5t25 -61.5q0 -46 -36 -82q-36 -37 -83 -37q-38 0 -63 24.5t-25 63.5q0 46 37 82q37 35 83 35zM882 517v17q0 42 -10 81
q-23 91 -88 140q-60 45 -143 45q-115 0 -208 -78t-130 -205h579zM283 392q-1 -5 -1 -9.5v-7.5v-11q0 -83 55 -162q67 -94 200 -94q185 0 304 161l121 -55q-85 -115 -199 -176.5t-245 -61.5q-209 0 -315 157q-67 100 -67 241q0 130 62 252q68 136 189 218q127 88 275 88
q161 0 261 -109t100 -284q0 -61 -16 -147h-724z" />
    <glyph glyph-name="igrave" unicode="&#xec;" horiz-adv-x="408" 
d="M144 1312l155 77l160 -282l-100 -53zM421 908l-144 -908h-146l144 908h146z" />
    <glyph glyph-name="iacute" unicode="&#xed;" horiz-adv-x="408" 
d="M680 1312l-297 -258l-84 53l250 282zM421 908l-144 -908h-146l144 908h146z" />
    <glyph glyph-name="icircumflex" unicode="&#xee;" horiz-adv-x="408" 
d="M399 1232l-216 -178l-97 53l277 258h116l194 -258l-113 -53zM421 908l-144 -908h-146l144 908h146z" />
    <glyph glyph-name="idieresis" unicode="&#xef;" horiz-adv-x="408" 
d="M273 1312q38 0 63 -24.5t25 -61.5q0 -47 -36 -83q-38 -36 -85 -36q-38 0 -62.5 24.5t-24.5 62.5q0 47 37 83q37 35 83 35zM547 1312q38 0 62.5 -24.5t24.5 -61.5q0 -47 -36 -83t-84 -36q-38 0 -63 24.5t-25 63.5q0 46 37 82q38 35 84 35zM421 908l-144 -908h-146l144 908
h146z" />
    <glyph glyph-name="eth" unicode="&#xf0;" horiz-adv-x="1078" 
d="M660 800q-129 0 -235 -92q-140 -123 -140 -322q0 -104 48 -171q75 -107 224 -107q134 0 240 92q140 125 140 323q0 104 -50 172q-77 105 -227 105zM947 844q-8 54 -27.5 109.5t-48.5 115.5t-62 105.5t-68 79.5l-238 -115l-78 84l218 105q-91 65 -236 113l72 88
q164 -47 301 -136l243 114l72 -82l-227 -110q114 -123 172 -284t58 -357q0 -228 -67 -372q-71 -150 -207 -238q-134 -88 -290 -88q-125 0 -222 60q-103 64 -146 179q-29 78 -29 162q0 168 104 317q80 113 204 178q115 60 241 60q154 0 261 -88z" />
    <glyph glyph-name="ntilde" unicode="&#xf1;" horiz-adv-x="1043" 
d="M1014 1285q-20 -85 -68.5 -129.5t-120.5 -44.5q-53 0 -132 39q-61 31 -83 31q-25 0 -39 -15.5t-27 -58.5l-111 28q21 81 71 127.5t119 46.5q45 0 135 -44q55 -26 83 -26q25 0 37.5 15t22.5 58zM403 806q123 126 293 126q120 0 202 -64q106 -81 106 -233q0 -67 -12 -143
l-78 -492h-146l75 474q12 76 12 123q0 94 -50.5 144.5t-144.5 50.5q-132 0 -216 -86q-18 -19 -32.5 -42t-26.5 -52.5t-21 -68t-17 -89.5l-72 -454h-146l144 908h146z" />
    <glyph glyph-name="ograve" unicode="&#xf2;" horiz-adv-x="1077" 
d="M490 1312l156 77l160 -282l-100 -53zM660 800q-129 0 -235 -92q-140 -123 -140 -322q0 -104 48 -171q75 -107 224 -107q134 0 240 92q140 125 140 323q0 104 -50 172q-77 105 -227 105zM693 932q204 0 318 -157q74 -103 74 -242q0 -170 -105 -318q-80 -113 -203 -179
q-116 -60 -243 -60q-125 0 -222 60q-175 109 -175 342q0 173 104 316q87 117 204 178q115 60 248 60z" />
    <glyph glyph-name="oacute" unicode="&#xf3;" horiz-adv-x="1077" 
d="M1003 1312l-297 -258l-84 53l250 282zM660 800q-129 0 -235 -92q-140 -123 -140 -322q0 -104 48 -171q75 -107 224 -107q134 0 240 92q140 125 140 323q0 104 -50 172q-77 105 -227 105zM693 932q204 0 318 -157q74 -103 74 -242q0 -170 -105 -318q-80 -113 -203 -179
q-116 -60 -243 -60q-125 0 -222 60q-175 109 -175 342q0 173 104 316q87 117 204 178q115 60 248 60z" />
    <glyph glyph-name="ocircumflex" unicode="&#xf4;" horiz-adv-x="1077" 
d="M734 1232l-217 -178l-97 53l277 258h116l195 -258l-114 -53zM659 800q-128 0 -234 -92q-140 -122 -140 -323q0 -102 48 -171q75 -106 224 -106q133 0 239 92q140 125 140 322q0 105 -50 173q-77 105 -227 105zM692 932q205 0 319 -156q74 -104 74 -243q0 -170 -105 -318
q-80 -113 -203 -179q-116 -60 -244 -60q-124 0 -221 60q-175 109 -175 342q0 173 104 316q86 117 203 178q115 60 248 60z" />
    <glyph glyph-name="otilde" unicode="&#xf5;" horiz-adv-x="1077" 
d="M1021 1285q-20 -85 -68 -129.5t-120 -44.5q-54 0 -133 39q-61 31 -83 31q-25 0 -39 -15.5t-27 -58.5l-111 28q21 81 71 127.5t119 46.5q45 0 135 -44q55 -26 83 -26q25 0 37.5 15t22.5 58zM660 800q-129 0 -235 -92q-140 -123 -140 -322q0 -104 48 -171q75 -107 224 -107
q134 0 240 92q140 125 140 323q0 104 -50 172q-77 105 -227 105zM693 932q204 0 318 -157q74 -103 74 -242q0 -170 -105 -318q-80 -113 -203 -179q-116 -60 -243 -60q-125 0 -222 60q-175 109 -175 342q0 173 104 316q87 117 204 178q115 60 248 60z" />
    <glyph glyph-name="odieresis" unicode="&#xf6;" horiz-adv-x="1077" 
d="M558 1312q38 0 63 -24.5t25 -61.5q0 -47 -36 -83q-38 -36 -84 -36q-38 0 -62.5 24.5t-24.5 62.5q0 46 36 82t83 36zM935 1312q37 0 62 -24.5t25 -61.5q0 -47 -36 -83t-84 -36q-38 0 -63 25t-25 63q0 45 37 81t84 36zM660 800q-129 0 -235 -92q-140 -123 -140 -322
q0 -104 48 -171q75 -107 224 -107q134 0 240 92q140 125 140 323q0 104 -50 172q-77 105 -227 105zM693 932q204 0 318 -157q74 -103 74 -242q0 -170 -105 -318q-80 -113 -203 -179q-116 -60 -243 -60q-125 0 -222 60q-175 109 -175 342q0 173 104 316q87 117 204 178
q115 60 248 60z" />
    <glyph glyph-name="divide" unicode="&#xf7;" horiz-adv-x="1139" 
d="M632 390q39 0 65.5 -26.5t26.5 -65.5q0 -51 -39 -88q-40 -38 -90 -38q-39 0 -65.5 26.5t-26.5 65.5q0 50 39 88q40 38 90 38zM745 1106q39 0 65.5 -26.5t26.5 -65.5q0 -51 -39 -88q-40 -38 -90 -38q-39 0 -65.5 26.5t-26.5 65.5q0 50 39 88q40 38 90 38zM1119 703
l-20 -128h-878l20 128h878z" />
    <glyph glyph-name="oslash" unicode="&#xf8;" horiz-adv-x="1105" 
d="M875 732q-80 68 -195 68q-135 0 -241 -92q-140 -123 -140 -329q0 -63 18 -121zM374 177q76 -69 194 -69q136 0 242 92q140 125 140 329q0 74 -18 121zM205 163q-54 91 -54 213q0 169 104 318q80 113 204 178q115 60 243 60q166 0 282 -108l103 87l66 -74l-109 -92
q54 -95 54 -212q0 -170 -105 -318q-80 -113 -203 -179q-116 -60 -244 -60q-166 0 -281 109l-104 -88l-65 74z" />
    <glyph glyph-name="ugrave" unicode="&#xf9;" horiz-adv-x="1043" 
d="M477 1312l155 77l160 -282l-100 -53zM784 102q-120 -126 -293 -126q-120 0 -202 63q-106 82 -106 234q0 68 12 143l78 492h146l-75 -475q-12 -75 -12 -122q0 -94 50.5 -144.5t144.5 -50.5q132 0 216 86q69 70 97 252l72 454h146l-144 -908h-146z" />
    <glyph glyph-name="uacute" unicode="&#xfa;" horiz-adv-x="1043" 
d="M976 1312l-297 -258l-84 53l250 282zM784 102q-120 -126 -293 -126q-120 0 -202 63q-106 82 -106 234q0 68 12 143l78 492h146l-75 -475q-12 -75 -12 -122q0 -94 50.5 -144.5t144.5 -50.5q132 0 216 86q69 70 97 252l72 454h146l-144 -908h-146z" />
    <glyph glyph-name="ucircumflex" unicode="&#xfb;" horiz-adv-x="1043" 
d="M717 1232l-217 -178l-96 53l276 258h116l195 -258l-114 -53zM784 102q-120 -126 -293 -126q-120 0 -202 63q-106 82 -106 234q0 68 12 143l78 492h146l-75 -475q-12 -75 -12 -122q0 -94 50.5 -144.5t144.5 -50.5q132 0 216 86q69 70 97 252l72 454h146l-144 -908h-146z
" />
    <glyph glyph-name="udieresis" unicode="&#xfc;" horiz-adv-x="1043" 
d="M541 1312q38 0 63 -24.5t25 -61.5q0 -47 -36 -83q-38 -36 -84 -36q-38 0 -62.5 24.5t-24.5 62.5q0 47 36 83q37 35 83 35zM918 1312q37 0 62 -24.5t25 -61.5q0 -47 -36 -83q-38 -36 -84 -36q-38 0 -63 24.5t-25 63.5q0 46 37 82q37 35 84 35zM784 102
q-120 -126 -293 -126q-120 0 -202 63q-106 82 -106 234q0 68 12 143l78 492h146l-75 -475q-12 -75 -12 -122q0 -94 50.5 -144.5t144.5 -50.5q132 0 216 86q69 70 97 252l72 454h146l-144 -908h-146z" />
    <glyph glyph-name="yacute" unicode="&#xfd;" horiz-adv-x="904" 
d="M376 41l-231 867h157l179 -690l408 690h157l-827 -1386h-150zM911 1312l-297 -258l-84 53l250 282z" />
    <glyph glyph-name="thorn" unicode="&#xfe;" horiz-adv-x="1126" 
d="M714 800q-132 0 -234 -93q-137 -125 -137 -324q0 -104 48 -171q72 -104 221 -104q126 0 232 92q140 122 140 323q0 102 -48 170q-77 107 -222 107zM347 1365h146l-91 -577q150 144 342 144q202 0 314 -157q74 -103 74 -243q0 -169 -104 -317q-82 -115 -204 -179
q-114 -60 -238 -60q-183 0 -290 143l-95 -597h-146z" />
    <glyph glyph-name="ydieresis" unicode="&#xff;" horiz-adv-x="904" 
d="M376 41l-231 867h157l179 -690l408 690h157l-827 -1386h-150zM471 1312q38 0 63 -24.5t25 -61.5q0 -47 -36 -83q-38 -36 -84 -36q-38 0 -62.5 24.5t-24.5 62.5q0 47 36 83q37 35 83 35zM847 1312q38 0 62.5 -24t24.5 -62q0 -47 -36 -83t-83 -36q-38 0 -63 24.5t-25 63.5
q0 46 37 82q37 35 83 35z" />
    <glyph glyph-name="Amacron" unicode="&#x100;" horiz-adv-x="1270" 
d="M622 1684h560l-21 -130h-559zM456 528h523l-154 689zM380 386l-208 -386h-158l742 1365h191l309 -1365h-159l-86 386h-631z" />
    <glyph glyph-name="amacron" unicode="&#x101;" 
d="M480 1275h560l-21 -130h-560zM658 800q-126 0 -232 -92q-140 -123 -140 -323q0 -103 48 -170q75 -107 222 -107q133 0 235 93q138 124 138 323q0 104 -48 172q-74 104 -223 104zM995 0h-146l19 119q-155 -143 -342 -143q-203 0 -315 157q-74 104 -74 243q0 170 105 317
q80 114 203 178q113 61 238 61q181 0 291 -144l18 120h146z" />
    <glyph glyph-name="Abreve" unicode="&#x102;" horiz-adv-x="1270" 
d="M767 1744q-3 -24 -3 -40q0 -24 9 -45t25.5 -36.5t38.5 -24t49 -8.5q124 0 170 154l123 -10q-27 -103 -90 -169q-96 -101 -225 -101q-102 0 -165 63q-64 64 -64 149q0 11 1.5 25l3.5 33zM456 528h523l-154 689zM380 386l-208 -386h-158l742 1365h191l309 -1365h-159
l-86 386h-631z" />
    <glyph glyph-name="abreve" unicode="&#x103;" 
d="M603 1334q-3 -24 -3 -39q0 -51 34 -82.5t88 -31.5q123 0 170 153l124 -10q-29 -104 -91 -168q-96 -101 -225 -101q-102 0 -165 63q-64 63 -64 148q0 11 1.5 25l3.5 33zM658 800q-126 0 -232 -92q-140 -123 -140 -323q0 -103 48 -170q75 -107 222 -107q133 0 235 93
q138 124 138 323q0 104 -48 172q-74 104 -223 104zM995 0h-146l19 119q-155 -143 -342 -143q-203 0 -315 157q-74 104 -74 243q0 170 105 317q80 114 203 178q113 61 238 61q181 0 291 -144l18 120h146z" />
    <glyph glyph-name="Aogonek" unicode="&#x104;" horiz-adv-x="1270" 
d="M456 528h523l-154 689zM1097 0l-86 386h-631l-208 -386h-158l742 1365h191l309 -1365q-96 -95 -96 -150q0 -40 59 -40q31 0 78 15l25 -104q-78 -27 -134 -27q-67 0 -107 28q-58 39 -58 107q0 81 87 171h-13z" />
    <glyph glyph-name="aogonek" unicode="&#x105;" 
d="M658 800q-126 0 -232 -92q-140 -123 -140 -323q0 -103 48 -170q75 -107 222 -107q133 0 235 93q138 124 138 323q0 104 -48 172q-74 104 -223 104zM868 119q-155 -143 -342 -143q-203 0 -315 157q-74 104 -74 243q0 170 105 317q80 114 203 178q113 61 238 61
q181 0 291 -144l18 120h146l-143 -908q-97 -94 -97 -150q0 -40 59 -40q31 0 78 15l25 -104q-78 -27 -134 -27q-67 0 -107 28q-58 39 -58 107q0 82 88 171z" />
    <glyph glyph-name="Cacute" unicode="&#x106;" horiz-adv-x="1356" 
d="M1319 1722l-297 -258l-83 53l249 282zM1345 1066q-29 37 -56.5 64t-53.5 44q-107 72 -249 72q-232 0 -410 -157q-55 -48 -98 -105t-74 -124q-63 -134 -63 -272q0 -187 113 -317q134 -152 354 -152q116 0 212 43q97 42 211 141l88 -105q-103 -88 -185 -132
q-167 -90 -347 -90q-202 0 -350 100q-137 93 -205 252q-47 114 -47 244q0 242 159 463q121 167 297 260q176 94 369 94q143 0 250 -51q104 -50 206 -167z" />
    <glyph glyph-name="cacute" unicode="&#x107;" horiz-adv-x="936" 
d="M969 1312l-297 -258l-84 53l250 282zM895 680q-84 120 -228 120q-138 0 -242 -92q-140 -122 -140 -323q0 -104 49 -172q73 -105 227 -105q80 0 139 28q61 29 131 99l82 -98q-48 -44 -93 -74.5t-88 -49.5q-86 -37 -192 -37q-128 0 -227 60q-103 61 -147 179
q-29 78 -29 162q0 168 104 317q82 115 204 178q117 60 246 60q190 0 317 -154z" />
    <glyph glyph-name="Ccircumflex" unicode="&#x108;" horiz-adv-x="1356" 
d="M1016 1642l-216 -178l-97 53l276 258h116l195 -258l-114 -53zM1345 1066q-29 37 -56.5 64t-53.5 44q-107 72 -249 72q-232 0 -410 -157q-55 -48 -98 -105t-74 -124q-63 -134 -63 -272q0 -187 113 -317q134 -152 354 -152q116 0 212 43q97 42 211 141l88 -105
q-103 -88 -185 -132q-167 -90 -347 -90q-202 0 -350 100q-137 93 -205 252q-47 114 -47 244q0 242 159 463q121 167 297 260q176 94 369 94q143 0 250 -51q104 -50 206 -167z" />
    <glyph glyph-name="ccircumflex" unicode="&#x109;" horiz-adv-x="936" 
d="M704 1232l-216 -178l-97 53l276 258h116l195 -258l-113 -53zM895 680q-84 120 -228 120q-138 0 -242 -92q-140 -122 -140 -323q0 -104 49 -172q73 -105 227 -105q80 0 139 28q61 29 131 99l82 -98q-48 -44 -93 -74.5t-88 -49.5q-86 -37 -192 -37q-128 0 -227 60
q-103 61 -147 179q-29 78 -29 162q0 168 104 317q82 115 204 178q117 60 246 60q190 0 317 -154z" />
    <glyph glyph-name="Cdotaccent" unicode="&#x10a;" horiz-adv-x="1356" 
d="M1046 1722q38 0 63 -24.5t25 -61.5q0 -47 -36 -83q-38 -36 -84 -36q-38 0 -62.5 24.5t-24.5 62.5q0 46 36 82t83 36zM1345 1066q-29 37 -56.5 64t-53.5 44q-107 72 -249 72q-232 0 -410 -157q-55 -48 -98 -105t-74 -124q-63 -134 -63 -272q0 -187 113 -317
q134 -152 354 -152q116 0 212 43q97 42 211 141l88 -105q-103 -88 -185 -132q-167 -90 -347 -90q-202 0 -350 100q-137 93 -205 252q-47 114 -47 244q0 242 159 463q121 167 297 260q176 94 369 94q143 0 250 -51q104 -50 206 -167z" />
    <glyph glyph-name="cdotaccent" unicode="&#x10b;" horiz-adv-x="936" 
d="M724 1312q38 0 63 -24.5t25 -61.5q0 -47 -36 -83q-38 -36 -84 -36q-38 0 -62.5 24.5t-24.5 62.5q0 47 36 83q37 35 83 35zM895 680q-84 120 -228 120q-138 0 -242 -92q-140 -122 -140 -323q0 -104 49 -172q73 -105 227 -105q80 0 139 28q61 29 131 99l82 -98
q-48 -44 -93 -74.5t-88 -49.5q-86 -37 -192 -37q-128 0 -227 60q-103 61 -147 179q-29 78 -29 162q0 168 104 317q82 115 204 178q117 60 246 60q190 0 317 -154z" />
    <glyph glyph-name="Ccaron" unicode="&#x10c;" horiz-adv-x="1356" 
d="M1011 1609l216 178l97 -53l-276 -258h-116l-195 258l113 53zM1345 1066q-29 37 -56.5 64t-53.5 44q-107 72 -249 72q-232 0 -410 -157q-55 -48 -98 -105t-74 -124q-63 -134 -63 -272q0 -187 113 -317q134 -152 354 -152q116 0 212 43q97 42 211 141l88 -105
q-103 -88 -185 -132q-167 -90 -347 -90q-202 0 -350 100q-137 93 -205 252q-47 114 -47 244q0 242 159 463q121 167 297 260q176 94 369 94q143 0 250 -51q104 -50 206 -167z" />
    <glyph glyph-name="ccaron" unicode="&#x10d;" horiz-adv-x="936" 
d="M699 1199l217 178l96 -53l-276 -258h-116l-195 258l114 53zM895 680q-84 120 -228 120q-138 0 -242 -92q-140 -122 -140 -323q0 -104 49 -172q73 -105 227 -105q80 0 139 28q61 29 131 99l82 -98q-48 -44 -93 -74.5t-88 -49.5q-86 -37 -192 -37q-128 0 -227 60
q-103 61 -147 179q-29 78 -29 162q0 168 104 317q82 115 204 178q117 60 246 60q190 0 317 -154z" />
    <glyph glyph-name="Dcaron" unicode="&#x10e;" horiz-adv-x="1267" 
d="M849 1609l216 178l97 -53l-276 -258h-116l-195 258l114 53zM511 1223l-172 -1081h134q336 0 524 228q146 178 146 418q0 199 -127 314q-133 121 -372 121h-133zM380 1365h280q307 0 478 -153q162 -146 162 -398q0 -154 -56 -304q-108 -289 -381 -421q-187 -89 -419 -89
h-280z" />
    <glyph glyph-name="dcaron" unicode="&#x10f;" horiz-adv-x="1316" 
d="M1406 1389l134 -43l-183 -312l-98 32zM657 800q-126 0 -232 -92q-140 -123 -140 -323q0 -103 48 -170q75 -107 222 -107q132 0 234 93q137 125 137 324q0 103 -48 171q-72 104 -221 104zM995 0h-146l19 119q-155 -143 -342 -143q-203 0 -315 157q-74 104 -74 243
q0 170 105 317q80 114 203 178q113 61 238 61q181 0 291 -144l91 577h146z" />
    <glyph glyph-name="Dcroat" unicode="&#x110;" horiz-adv-x="1298" 
d="M475 804h328l-22 -137h-328l-83 -525h134q336 0 524 228q146 178 146 418q0 199 -127 314q-133 121 -372 121h-134zM322 804l89 561h280q307 0 478 -153q162 -146 162 -398q0 -154 -56 -304q-108 -288 -382 -421q-186 -89 -418 -89h-280l106 667h-137l22 137h136z" />
    <glyph glyph-name="dcroat" unicode="&#x111;" 
d="M657 800q-126 0 -232 -92q-140 -123 -140 -323q0 -103 48 -170q75 -107 222 -107q132 0 234 93q137 125 137 324q0 103 -48 171q-72 104 -221 104zM1038 1198l27 167h146l-27 -167h123l-21 -132h-122l-169 -1066h-146l19 119q-155 -143 -342 -143q-203 0 -315 157
q-74 104 -74 243q0 170 105 317q80 114 203 178q113 61 238 61q181 0 291 -144l44 278h-246l21 132h245z" />
    <glyph glyph-name="Emacron" unicode="&#x112;" horiz-adv-x="973" 
d="M513 1684h559l-20 -130h-560zM1061 1224h-550l-73 -461h489l-23 -142h-489l-76 -479h571l-22 -142h-724l216 1365h703z" />
    <glyph glyph-name="emacron" unicode="&#x113;" horiz-adv-x="1017" 
d="M430 1275h560l-21 -130h-560zM882 517v17q0 42 -10 81q-23 91 -88 140q-60 45 -143 45q-115 0 -208 -78t-130 -205h579zM283 392q-1 -5 -1 -9.5v-7.5v-11q0 -83 55 -162q67 -94 200 -94q185 0 304 161l121 -55q-85 -115 -199 -176.5t-245 -61.5q-209 0 -315 157
q-67 100 -67 241q0 130 62 252q68 136 189 218q127 88 275 88q161 0 261 -109t100 -284q0 -61 -16 -147h-724z" />
    <glyph glyph-name="Ebreve" unicode="&#x114;" horiz-adv-x="973" 
d="M657 1744q-1 -12 -1.5 -22t-0.5 -18q0 -24 9 -45t25.5 -36.5t38.5 -24t48 -8.5q125 0 171 154l123 -10q-28 -103 -90 -169q-96 -101 -225 -101q-102 0 -165 63q-64 64 -64 149q0 11 1.5 25.5l3.5 32.5zM1061 1224h-550l-73 -461h489l-23 -142h-489l-76 -479h571l-22 -142
h-724l216 1365h703z" />
    <glyph glyph-name="ebreve" unicode="&#x115;" horiz-adv-x="1017" 
d="M582 1334q-3 -26 -3 -40q0 -51 33.5 -82.5t87.5 -31.5q125 0 171 154l123 -10q-27 -103 -90 -169q-96 -101 -225 -101q-102 0 -165 63q-64 64 -64 148q0 11 1.5 25.5l3.5 33.5zM882 517v17q0 42 -10 81q-23 91 -88 140q-60 45 -143 45q-115 0 -208 -78t-130 -205h579z
M283 392q-1 -5 -1 -9.5v-7.5v-11q0 -83 55 -162q67 -94 200 -94q185 0 304 161l121 -55q-85 -115 -199 -176.5t-245 -61.5q-209 0 -315 157q-67 100 -67 241q0 130 62 252q68 136 189 218q127 88 275 88q161 0 261 -109t100 -284q0 -61 -16 -147h-724z" />
    <glyph glyph-name="Edotaccent" unicode="&#x116;" horiz-adv-x="973" 
d="M798 1722q38 0 63 -24.5t25 -61.5q0 -47 -36 -83q-38 -36 -84 -36q-38 0 -62.5 24.5t-24.5 62.5q0 46 36 82t83 36zM1061 1224h-550l-73 -461h489l-23 -142h-489l-76 -479h571l-22 -142h-724l216 1365h703z" />
    <glyph glyph-name="edotaccent" unicode="&#x117;" horiz-adv-x="1017" 
d="M715 1312q38 0 63 -24.5t25 -61.5q0 -47 -36 -83q-38 -36 -84 -36q-38 0 -62.5 24.5t-24.5 62.5q0 47 36 83q37 35 83 35zM882 517v17q0 42 -10 81q-23 91 -88 140q-60 45 -143 45q-115 0 -208 -78t-130 -205h579zM283 392q-1 -5 -1 -9.5v-7.5v-11q0 -83 55 -162
q67 -94 200 -94q185 0 304 161l121 -55q-85 -115 -199 -176.5t-245 -61.5q-209 0 -315 157q-67 100 -67 241q0 130 62 252q68 136 189 218q127 88 275 88q161 0 261 -109t100 -284q0 -61 -16 -147h-724z" />
    <glyph glyph-name="Eogonek" unicode="&#x118;" horiz-adv-x="973" 
d="M888 0q-97 -94 -97 -150q0 -40 59 -40q31 0 78 15l25 -104q-78 -27 -134 -27q-67 0 -107 28q-58 39 -58 107q0 82 88 171h-578l216 1365h703l-22 -141h-550l-73 -461h489l-23 -142h-489l-76 -479h571z" />
    <glyph glyph-name="eogonek" unicode="&#x119;" horiz-adv-x="1017" 
d="M882 517v17q0 42 -10 81q-23 91 -88 140q-60 45 -143 45q-115 0 -208 -78t-130 -205h579zM578 -20q-76 -76 -76 -130q0 -40 59 -40q30 0 78 15l25 -104q-77 -27 -134 -27q-67 0 -107 28q-58 39 -58 107q0 77 72 154q-77 15 -136 53q-165 109 -165 338q0 130 62 252
q68 136 189 218q127 88 275 88q161 0 261 -109t100 -284q0 -61 -16 -147h-724q-1 -5 -1 -9.5v-7.5v-11q0 -83 55 -162q67 -94 200 -94q185 0 304 161l121 -55q-152 -203 -384 -234z" />
    <glyph glyph-name="Ecaron" unicode="&#x11a;" horiz-adv-x="973" 
d="M781 1609l216 178l97 -53l-276 -258h-116l-195 258l113 53zM1061 1224h-550l-73 -461h489l-23 -142h-489l-76 -479h571l-22 -142h-724l216 1365h703z" />
    <glyph glyph-name="ecaron" unicode="&#x11b;" horiz-adv-x="1017" 
d="M698 1199l216 178l97 -53l-276 -258h-116l-195 258l114 53zM882 517v17q0 42 -10 81q-23 91 -88 140q-60 45 -143 45q-115 0 -208 -78t-130 -205h579zM283 392q-1 -5 -1 -9.5v-7.5v-11q0 -83 55 -162q67 -94 200 -94q185 0 304 161l121 -55q-85 -115 -199 -176.5
t-245 -61.5q-209 0 -315 157q-67 100 -67 241q0 130 62 252q68 136 189 218q127 88 275 88q161 0 261 -109t100 -284q0 -61 -16 -147h-724z" />
    <glyph glyph-name="Gcircumflex" unicode="&#x11c;" horiz-adv-x="1490" 
d="M1016 1642l-216 -178l-97 53l276 258h116l195 -258l-114 -53zM952 705h560l-12 -75q-30 -187 -121 -330q-85 -136 -220 -221q-164 -103 -368 -103q-324 0 -495 238q-111 154 -111 356q0 244 159 465q122 167 297 260q176 94 369 94q142 0 250 -50q106 -51 206 -168
l-121 -105q-29 37 -56.5 64t-53.5 44q-107 72 -249 72q-232 0 -410 -157q-108 -95 -172 -230q-63 -134 -63 -273q0 -96 31 -177q50 -131 162 -209q118 -81 276 -81q186 0 326 111q157 124 196 333h-403z" />
    <glyph glyph-name="gcircumflex" unicode="&#x11d;" 
d="M728 1232l-217 -178l-97 53l277 258h116l194 -258l-113 -53zM657 800q-126 0 -232 -92q-140 -123 -140 -323q0 -103 48 -170q75 -107 222 -107q133 0 235 93q137 125 137 323q0 104 -48 172q-74 104 -222 104zM1138 908l-146 -925q-32 -200 -159 -326
q-159 -159 -393 -159q-150 0 -259 73q-60 39 -122 128l111 96q55 -81 100 -112q77 -53 189 -53q155 0 258 94q102 95 129 259l21 136q-154 -143 -341 -143q-203 0 -315 157q-74 103 -74 243q0 171 104 317q82 114 204 178q113 61 238 61q180 0 290 -144l19 120h146z" />
    <glyph glyph-name="Gbreve" unicode="&#x11e;" horiz-adv-x="1490" 
d="M924 1744q-1 -12 -1.5 -22t-0.5 -18q0 -24 9 -45t25.5 -36.5t38.5 -24t49 -8.5q124 0 170 154l123 -10q-28 -103 -90 -169q-96 -101 -225 -101q-102 0 -165 63q-64 64 -64 149q0 11 1.5 25l3.5 33zM952 705h560l-12 -75q-30 -187 -121 -330q-85 -136 -220 -221
q-164 -103 -368 -103q-324 0 -495 238q-111 154 -111 356q0 244 159 465q122 167 297 260q176 94 369 94q142 0 250 -50q106 -51 206 -168l-121 -105q-29 37 -56.5 64t-53.5 44q-107 72 -249 72q-232 0 -410 -157q-108 -95 -172 -230q-63 -134 -63 -273q0 -96 31 -177
q50 -131 162 -209q118 -81 276 -81q186 0 326 111q157 124 196 333h-403z" />
    <glyph glyph-name="gbreve" unicode="&#x11f;" 
d="M603 1334q-3 -24 -3 -40q0 -24 9 -45t25.5 -36.5t38.5 -24t48 -8.5q125 0 171 154l123 -10q-27 -103 -90 -169q-96 -101 -225 -101q-102 0 -165 63q-64 64 -64 148q0 11 1.5 25.5l3.5 33.5zM657 800q-126 0 -232 -92q-140 -123 -140 -323q0 -103 48 -170
q75 -107 222 -107q133 0 235 93q137 125 137 323q0 104 -48 172q-74 104 -222 104zM1138 908l-146 -925q-32 -200 -159 -326q-159 -159 -393 -159q-150 0 -259 73q-60 39 -122 128l111 96q55 -81 100 -112q77 -53 189 -53q155 0 258 94q102 95 129 259l21 136
q-154 -143 -341 -143q-203 0 -315 157q-74 103 -74 243q0 171 104 317q82 114 204 178q113 61 238 61q180 0 290 -144l19 120h146z" />
    <glyph glyph-name="Gdotaccent" unicode="&#x120;" horiz-adv-x="1490" 
d="M1063 1722q38 0 63 -24.5t25 -61.5q0 -47 -36 -83q-38 -36 -84 -36q-38 0 -62.5 24.5t-24.5 62.5q0 46 36 82t83 36zM952 705h560l-12 -75q-30 -187 -121 -330q-85 -136 -220 -221q-164 -103 -368 -103q-324 0 -495 238q-111 154 -111 356q0 244 159 465q122 167 297 260
q176 94 369 94q142 0 250 -50q106 -51 206 -168l-121 -105q-29 37 -56.5 64t-53.5 44q-107 72 -249 72q-232 0 -410 -157q-108 -95 -172 -230q-63 -134 -63 -273q0 -96 31 -177q50 -131 162 -209q118 -81 276 -81q186 0 326 111q157 124 196 333h-403z" />
    <glyph glyph-name="gdotaccent" unicode="&#x121;" 
d="M741 1312q38 0 63 -24.5t25 -61.5q0 -47 -36 -83q-38 -36 -84 -36q-38 0 -62.5 24.5t-24.5 62.5q0 47 36 83q37 35 83 35zM657 800q-126 0 -232 -92q-140 -123 -140 -323q0 -103 48 -170q75 -107 222 -107q133 0 235 93q137 125 137 323q0 104 -48 172q-74 104 -222 104z
M1138 908l-146 -925q-32 -200 -159 -326q-159 -159 -393 -159q-150 0 -259 73q-60 39 -122 128l111 96q55 -81 100 -112q77 -53 189 -53q155 0 258 94q102 95 129 259l21 136q-154 -143 -341 -143q-203 0 -315 157q-74 103 -74 243q0 171 104 317q82 114 204 178
q113 61 238 61q180 0 290 -144l19 120h146z" />
    <glyph glyph-name="Gcommaaccent" unicode="&#x122;" horiz-adv-x="1490" 
d="M705 -95l134 -43l-184 -312l-97 32zM952 705h560l-12 -75q-30 -187 -121 -330q-85 -136 -220 -221q-164 -103 -368 -103q-324 0 -495 238q-111 154 -111 356q0 244 159 465q122 167 297 260q176 94 369 94q142 0 250 -50q106 -51 206 -168l-121 -105q-29 37 -56.5 64
t-53.5 44q-107 72 -249 72q-232 0 -410 -157q-108 -95 -172 -230q-63 -134 -63 -273q0 -96 31 -177q50 -131 162 -209q118 -81 276 -81q186 0 326 111q157 124 196 333h-403z" />
    <glyph glyph-name="gcommaaccent" unicode="&#x123;" 
d="M773 1034l-134 43l184 312l97 -32zM657 800q-126 0 -232 -92q-140 -123 -140 -323q0 -103 48 -170q75 -107 222 -107q133 0 235 93q137 125 137 323q0 104 -48 172q-74 104 -222 104zM1138 908l-146 -925q-32 -200 -159 -326q-159 -159 -393 -159q-150 0 -259 73
q-60 39 -122 128l111 96q55 -81 100 -112q77 -53 189 -53q155 0 258 94q102 95 129 259l21 136q-154 -143 -341 -143q-203 0 -315 157q-74 103 -74 243q0 171 104 317q82 114 204 178q113 61 238 61q180 0 290 -144l19 120h146z" />
    <glyph glyph-name="Hcircumflex" unicode="&#x124;" horiz-adv-x="1331" 
d="M926 1642l-217 -178l-96 53l276 258h116l195 -258l-114 -53zM438 763h697l96 602h153l-216 -1365h-153l98 621h-698l-98 -621h-153l216 1365h153z" />
    <glyph glyph-name="hcircumflex" unicode="&#x125;" horiz-adv-x="1043" 
d="M788 1642l-216 -178l-97 53l276 258h117l194 -258l-113 -53zM403 805q123 127 293 127q120 0 202 -64q106 -81 106 -233q0 -68 -12 -144l-78 -491h-146l75 474q12 75 12 123q0 94 -50.5 144.5t-144.5 50.5q-133 0 -216 -86q-38 -38 -59 -94q-11 -29 -20.5 -68t-17.5 -90
l-72 -454h-146l216 1365h146z" />
    <glyph glyph-name="Hbar" unicode="&#x126;" horiz-adv-x="1338" 
d="M1186 1066h-697l-48 -303h697zM1339 1066l-168 -1066h-153l98 621h-698l-98 -621h-153l169 1066h-123l21 132h123l26 167h153l-26 -167h697l27 167h153l-27 -167h123l-21 -132h-123z" />
    <glyph glyph-name="hbar" unicode="&#x127;" horiz-adv-x="1044" 
d="M445 1066l-41 -261q123 127 293 127q120 0 202 -64q106 -81 106 -233q0 -68 -12 -144l-78 -491h-146l75 474q12 75 12 123q0 94 -50.5 144.5t-144.5 50.5q-133 0 -216 -86q-38 -38 -59 -94q-11 -29 -20.5 -68t-17.5 -90l-72 -454h-146l169 1066h-123l21 132h123l26 167
h146l-26 -167h246l-21 -132h-246z" />
    <glyph glyph-name="Itilde" unicode="&#x128;" horiz-adv-x="481" 
d="M788 1694q-44 -174 -189 -174q-53 0 -132 39q-62 31 -84 31q-24 0 -38 -15.5t-27 -57.5l-112 27q23 82 72.5 128t118.5 46q45 0 135 -44q55 -26 83 -26q25 0 37.5 15.5t22.5 58.5zM533 1365l-216 -1365h-153l216 1365h153z" />
    <glyph glyph-name="itilde" unicode="&#x129;" horiz-adv-x="408" 
d="M686 1285q-20 -85 -68 -129.5t-120 -44.5q-53 0 -132 39q-62 31 -84 31q-24 0 -38 -15.5t-28 -58.5l-111 28q22 81 72.5 127.5t117.5 46.5q46 0 136 -44q54 -26 82 -26q25 0 37.5 15t22.5 58zM421 908l-144 -908h-146l144 908h146z" />
    <glyph glyph-name="Imacron" unicode="&#x12a;" horiz-adv-x="481" 
d="M227 1684h560l-20 -130h-560zM533 1365l-216 -1365h-153l216 1365h153z" />
    <glyph glyph-name="imacron" unicode="&#x12b;" horiz-adv-x="408" 
d="M127 1275h559l-20 -130h-560zM421 908l-143 -908h-146l143 908h146z" />
    <glyph glyph-name="Ibreve" unicode="&#x12c;" horiz-adv-x="481" 
d="M372 1744q-3 -26 -3 -40q0 -24 9 -45t25.5 -36.5t38.5 -24t49 -8.5q124 0 170 154l124 -10q-29 -104 -91 -169q-96 -101 -225 -101q-102 0 -165 63q-64 64 -64 149q0 11 1.5 25l3.5 33zM533 1365l-216 -1365h-153l216 1365h153z" />
    <glyph glyph-name="ibreve" unicode="&#x12d;" horiz-adv-x="408" 
d="M271 1334q-3 -24 -3 -40q0 -24 9 -45t25.5 -36.5t38.5 -24t48 -8.5q125 0 171 154l123 -10q-27 -103 -90 -169q-96 -101 -225 -101q-102 0 -165 63q-64 64 -64 148q0 11 1.5 25.5l3.5 33.5zM421 908l-144 -908h-146l144 908h146z" />
    <glyph glyph-name="Iogonek" unicode="&#x12e;" horiz-adv-x="481" 
d="M164 0l216 1365h153l-217 -1365q-96 -95 -96 -150q0 -40 59 -40q31 0 78 15l25 -104q-77 -27 -134 -27q-67 0 -107 28q-58 39 -58 107q0 81 87 171h-6z" />
    <glyph glyph-name="iogonek" unicode="&#x12f;" horiz-adv-x="408" 
d="M413 1314q38 0 63.5 -24.5t25.5 -62.5q0 -49 -37 -85q-37 -37 -86 -37q-39 0 -64 25t-25 64q0 47 37 84q37 36 86 36zM277 0q-96 -95 -96 -150q0 -40 59 -40q31 0 78 15l25 -104q-78 -27 -134 -27q-67 0 -107 28q-58 39 -58 107q0 81 87 171l144 908h146z" />
    <glyph glyph-name="Idotaccent" unicode="&#x130;" horiz-adv-x="481" 
d="M512 1722q39 0 64 -24.5t25 -61.5q0 -47 -36 -83q-38 -36 -85 -36q-38 0 -62.5 24.5t-24.5 62.5q0 46 37 82q36 36 82 36zM533 1365l-216 -1365h-153l216 1365h153z" />
    <glyph glyph-name="dotlessi" unicode="&#x131;" horiz-adv-x="408" 
d="M421 908l-144 -908h-146l144 908h146z" />
    <glyph glyph-name="IJ" unicode="&#x132;" horiz-adv-x="1279" 
d="M1332 1365l-152 -956q-10 -66 -24 -117.5t-31 -89.5q-35 -77 -99 -132q-109 -94 -254 -94q-83 0 -149 33t-140 113l110 110q98 -113 200 -113q97 0 154 70t81 220l151 956h153zM533 1365l-216 -1365h-153l216 1365h153z" />
    <glyph glyph-name="ij" unicode="&#x133;" horiz-adv-x="807" 
d="M673 908h147l-177 -1113q-45 -286 -265 -286q-40 0 -88 13l21 133q36 -10 61 -10q101 0 125 150zM811 1314q39 0 64 -24.5t25 -62.5q0 -49 -37 -85q-37 -37 -85 -37q-39 0 -64 25t-25 64q0 47 37 84q37 36 85 36zM412 1314q39 0 64 -24.5t25 -62.5q0 -48 -37 -85t-85 -37
q-39 0 -64 25t-25 64q0 47 37 84q37 36 85 36zM421 908l-144 -908h-146l144 908h146z" />
    <glyph glyph-name="Jcircumflex" unicode="&#x134;" horiz-adv-x="823" 
d="M766 1642l-217 -178l-96 53l276 258h116l195 -258l-114 -53zM875 1365l-151 -956q-21 -129 -56 -207q-35 -77 -99 -132q-109 -94 -254 -94q-83 0 -149 33t-140 113l110 110q98 -113 200 -113q97 0 154 70t81 220l151 956h153z" />
    <glyph glyph-name="jcircumflex" unicode="&#x135;" horiz-adv-x="427" 
d="M389 1232l-216 -178l-97 53l277 258h116l194 -258l-113 -53zM294 908h146l-176 -1113q-45 -286 -265 -286q-40 0 -88 13l21 133q36 -10 61 -10q101 0 125 150z" />
    <glyph glyph-name="Kcommaaccent" unicode="&#x136;" horiz-adv-x="1162" 
d="M746 800l402 -800h-178l-344 688l-235 -221l-74 -467h-153l216 1365h153l-110 -698l745 698h183zM573 -95l135 -43l-184 -312l-97 32z" />
    <glyph glyph-name="kcommaaccent" unicode="&#x137;" horiz-adv-x="952" 
d="M432 -95l135 -43l-184 -312l-97 32zM615 539l333 -539h-181l-266 441l-180 -154l-46 -287h-146l216 1365h146l-142 -896l508 439l187 -1z" />
    <glyph glyph-name="kgreenlandic" unicode="&#x138;" horiz-adv-x="952" 
d="M615 539l333 -539h-181l-266 441l-180 -154l-46 -287h-146l144 908h146l-70 -439l508 439h187z" />
    <glyph glyph-name="Lacute" unicode="&#x139;" horiz-adv-x="860" 
d="M775 1722l-297 -258l-84 53l250 282zM533 1365l-194 -1223h530l-22 -142h-683l216 1365h153z" />
    <glyph glyph-name="lacute" unicode="&#x13a;" horiz-adv-x="408" 
d="M749 1746l-297 -258l-84 53l250 282zM277 0h-146l216 1365h146z" />
    <glyph glyph-name="Lcommaaccent" unicode="&#x13b;" horiz-adv-x="872" 
d="M467 -95l135 -43l-184 -312l-97 32zM533 1365l-194 -1223h530l-22 -142h-683l216 1365h153z" />
    <glyph glyph-name="lcommaaccent" unicode="&#x13c;" horiz-adv-x="408" 
d="M131 -95l134 -43l-184 -312l-97 32zM277 0h-146l216 1365h146z" />
    <glyph glyph-name="Lcaron" unicode="&#x13d;" horiz-adv-x="872" 
d="M837 1389l135 -43l-184 -312l-97 32zM533 1365l-194 -1223h530l-22 -142h-683l216 1365h153z" />
    <glyph glyph-name="lcaron" unicode="&#x13e;" horiz-adv-x="599" 
d="M688 1389l135 -43l-184 -312l-97 32zM277 0h-146l216 1365h146z" />
    <glyph glyph-name="Ldot" unicode="&#x13f;" horiz-adv-x="872" 
d="M533 1365l-194 -1223h530l-22 -142h-683l216 1365h153zM778 784q37 0 61.5 -24t24.5 -61q0 -46 -35 -81q-36 -36 -83 -36q-38 0 -62 24.5t-24 62.5q0 45 36 80q37 35 82 35z" />
    <glyph glyph-name="ldot" unicode="&#x140;" horiz-adv-x="692" 
d="M674 784q38 0 62.5 -24t24.5 -61q0 -47 -36 -81q-36 -36 -82 -36q-38 0 -62.5 24.5t-24.5 62.5q0 45 36 80q37 35 82 35zM277 0h-146l216 1365h146z" />
    <glyph glyph-name="Lslash" unicode="&#x141;" horiz-adv-x="902" 
d="M311 739l99 626h153l-88 -559l259 164l-24 -155l-260 -164l-80 -509h529l-22 -142h-683l93 584l-152 -95l25 155z" />
    <glyph glyph-name="lslash" unicode="&#x142;" horiz-adv-x="512" 
d="M276 586l-146 -88l25 160l146 88l98 619h146l-82 -521l145 88l-25 -160l-146 -88l-108 -684h-146z" />
    <glyph glyph-name="Nacute" unicode="&#x143;" horiz-adv-x="1454" 
d="M1276 1722l-297 -258l-83 53l249 282zM164 0l216 1365h144l653 -1116l177 1116h153l-217 -1365h-143l-653 1116l-177 -1116h-153z" />
    <glyph glyph-name="nacute" unicode="&#x144;" horiz-adv-x="1043" 
d="M1009 1312l-297 -258l-83 53l249 282zM403 806q123 126 293 126q120 0 202 -64q106 -81 106 -233q0 -67 -12 -143l-78 -492h-146l75 474q12 76 12 123q0 94 -50.5 144.5t-144.5 50.5q-132 0 -216 -86q-18 -19 -32.5 -42t-26.5 -52.5t-21 -68t-17 -89.5l-72 -454h-146
l144 908h146z" />
    <glyph glyph-name="Ncommaaccent" unicode="&#x145;" horiz-adv-x="1454" 
d="M689 -95l135 -43l-184 -312l-97 32zM164 0l216 1365h144l653 -1116l177 1116h153l-217 -1365h-143l-653 1116l-177 -1116h-153z" />
    <glyph glyph-name="ncommaaccent" unicode="&#x146;" horiz-adv-x="1043" 
d="M484 -95l134 -43l-184 -312l-97 32zM403 806q123 126 293 126q120 0 202 -64q106 -81 106 -233q0 -67 -12 -143l-78 -492h-146l75 474q12 76 12 123q0 94 -50.5 144.5t-144.5 50.5q-132 0 -216 -86q-18 -19 -32.5 -42t-26.5 -52.5t-21 -68t-17 -89.5l-72 -454h-146
l144 908h146z" />
    <glyph glyph-name="Ncaron" unicode="&#x147;" horiz-adv-x="1454" 
d="M1016 1609l217 178l97 -53l-277 -258h-116l-195 258l114 53zM164 0l216 1365h144l653 -1116l177 1116h153l-217 -1365h-143l-653 1116l-177 -1116h-153z" />
    <glyph glyph-name="ncaron" unicode="&#x148;" horiz-adv-x="1043" 
d="M722 1199l216 178l97 -53l-276 -258h-116l-195 258l113 53zM403 806q123 126 293 126q120 0 202 -64q106 -81 106 -233q0 -67 -12 -143l-78 -492h-146l75 474q12 76 12 123q0 94 -50.5 144.5t-144.5 50.5q-132 0 -216 -86q-18 -19 -32.5 -42t-26.5 -52.5t-21 -68
t-17 -89.5l-72 -454h-146l144 908h146z" />
    <glyph glyph-name="napostrophe" unicode="&#x149;" horiz-adv-x="1208" 
d="M382 1343l127 -49l-279 -461l-92 39zM567 806q123 126 294 126q120 0 202 -64q106 -81 106 -233q0 -66 -13 -143l-77 -492h-147l76 474q12 79 12 123q0 94 -50.5 144.5t-144.5 50.5q-133 0 -217 -86q-36 -36 -58 -94q-11 -29 -20.5 -68t-17.5 -90l-72 -454h-146l143 908
h146z" />
    <glyph glyph-name="Eng" unicode="&#x14a;" horiz-adv-x="1454" 
d="M1507 1365l-220 -1384q-45 -287 -265 -287q-35 0 -88 14l21 132q37 -10 61 -10q103 0 125 151l4 23l-651 1112l-177 -1116h-153l216 1365h144l653 -1116l177 1116h153z" />
    <glyph glyph-name="eng" unicode="&#x14b;" horiz-adv-x="1043" 
d="M579 -160q37 -10 60 -10q102 0 126 151l78 493q12 76 12 123q0 94 -50.5 144.5t-144.5 50.5q-132 0 -216 -86q-18 -19 -32.5 -42t-26.5 -52.5t-21 -68t-17 -89.5l-72 -454h-146l144 908h146l-16 -102q123 126 293 126q120 0 202 -64q106 -81 106 -233q0 -67 -12 -143
l-81 -511q-45 -287 -265 -287q-35 0 -88 14z" />
    <glyph glyph-name="Omacron" unicode="&#x14c;" horiz-adv-x="1565" 
d="M769 1684h560l-21 -130h-560zM983 1246q-222 0 -404 -157q-111 -96 -174 -229q-64 -132 -64 -272q0 -186 116 -317q72 -81 177 -122q76 -30 160 -30q216 0 401 152q115 94 180 228q65 135 65 275q0 184 -108 315q-74 88 -182 126q-84 31 -167 31zM1008 1389
q180 0 322 -94q147 -95 218 -260q48 -113 48 -242q0 -246 -160 -464q-117 -159 -288 -253q-181 -100 -381 -100q-178 0 -326 100q-141 94 -208 253q-46 110 -46 249q0 248 158 457q126 168 300 260q175 94 363 94z" />
    <glyph glyph-name="omacron" unicode="&#x14d;" horiz-adv-x="1077" 
d="M461 1275h560l-21 -130h-560zM660 800q-129 0 -235 -92q-140 -123 -140 -322q0 -104 48 -171q75 -107 224 -107q134 0 240 92q140 125 140 323q0 104 -50 172q-77 105 -227 105zM693 932q204 0 318 -157q74 -103 74 -242q0 -170 -105 -318q-80 -113 -203 -179
q-116 -60 -243 -60q-125 0 -222 60q-175 109 -175 342q0 173 104 316q87 117 204 178q115 60 248 60z" />
    <glyph glyph-name="Obreve" unicode="&#x14e;" horiz-adv-x="1565" 
d="M914 1744q-3 -26 -3 -40q0 -51 34 -82.5t88 -31.5q124 0 170 154l123 -10q-27 -103 -90 -169q-96 -101 -225 -101q-102 0 -165 63q-64 64 -64 149q0 11 1.5 25l3.5 33zM983 1246q-222 0 -404 -157q-111 -96 -174 -229q-64 -132 -64 -272q0 -186 116 -317q72 -81 177 -122
q76 -30 160 -30q216 0 401 152q115 94 180 228q65 135 65 275q0 184 -108 315q-74 88 -182 126q-84 31 -167 31zM1008 1389q180 0 322 -94q147 -95 218 -260q48 -113 48 -242q0 -246 -160 -464q-117 -159 -288 -253q-181 -100 -381 -100q-178 0 -326 100q-141 94 -208 253
q-46 110 -46 249q0 248 158 457q126 168 300 260q175 94 363 94z" />
    <glyph glyph-name="obreve" unicode="&#x14f;" horiz-adv-x="1077" 
d="M605 1334q-1 -12 -1.5 -22t-0.5 -18q0 -24 9 -45t25.5 -36.5t38.5 -24t48 -8.5q125 0 171 154l123 -10q-28 -103 -90 -169q-96 -101 -225 -101q-102 0 -165 63q-64 64 -64 148q0 11 1.5 26t3.5 33zM660 800q-129 0 -235 -92q-140 -123 -140 -322q0 -104 48 -171
q75 -107 224 -107q134 0 240 92q140 125 140 323q0 104 -50 172q-77 105 -227 105zM693 932q204 0 318 -157q74 -103 74 -242q0 -170 -105 -318q-80 -113 -203 -179q-116 -60 -243 -60q-125 0 -222 60q-175 109 -175 342q0 173 104 316q87 117 204 178q115 60 248 60z" />
    <glyph glyph-name="Ohungarumlaut" unicode="&#x150;" horiz-adv-x="1565" 
d="M1458 1722l-297 -258l-77 53l249 282zM1171 1722l-297 -258l-77 53l250 282zM983 1246q-222 0 -404 -157q-111 -96 -174 -229q-64 -132 -64 -272q0 -186 116 -317q72 -81 177 -122q76 -30 160 -30q216 0 401 152q115 94 180 228q65 135 65 275q0 184 -108 315
q-74 88 -182 126q-84 31 -167 31zM1008 1389q180 0 322 -94q147 -95 218 -260q48 -113 48 -242q0 -246 -160 -464q-117 -159 -288 -253q-181 -100 -381 -100q-178 0 -326 100q-141 94 -208 253q-46 110 -46 249q0 248 158 457q126 168 300 260q175 94 363 94z" />
    <glyph glyph-name="ohungarumlaut" unicode="&#x151;" horiz-adv-x="1077" 
d="M1170 1312l-297 -258l-77 53l249 282zM883 1312l-297 -258l-77 53l250 282zM660 800q-129 0 -235 -92q-140 -123 -140 -322q0 -104 48 -171q75 -107 224 -107q134 0 240 92q140 125 140 323q0 104 -50 172q-77 105 -227 105zM693 932q204 0 318 -157q74 -103 74 -242
q0 -170 -105 -318q-80 -113 -203 -179q-116 -60 -243 -60q-125 0 -222 60q-175 109 -175 342q0 173 104 316q87 117 204 178q115 60 248 60z" />
    <glyph glyph-name="OE" unicode="&#x152;" horiz-adv-x="2134" 
d="M982 1245q-222 0 -403 -157q-109 -94 -174 -229q-64 -132 -64 -271q0 -186 116 -317q72 -81 177 -122q76 -30 159 -30q217 0 401 152q117 96 181 228t64 275q0 183 -108 314q-74 88 -182 126q-84 31 -167 31zM1541 1365h703l-23 -141h-550l-73 -461h489l-23 -142h-488
l-76 -479h570l-22 -142h-724l38 242q-29 -32 -60 -59.5t-65 -50.5q-218 -156 -468 -156q-180 0 -328 100q-141 96 -208 253q-48 112 -48 242q0 244 160 464q121 166 300 260q175 94 365 94q175 0 320 -94q106 -67 172 -172z" />
    <glyph glyph-name="oe" unicode="&#x153;" horiz-adv-x="1804" 
d="M1670 517v17q0 42 -10 81q-22 90 -88 140q-60 45 -143 45q-115 0 -208 -78t-130 -205h579zM659 800q-128 0 -234 -92q-140 -123 -140 -322q0 -104 48 -171q75 -107 224 -107q133 0 239 92q140 125 140 323q0 104 -50 172q-77 105 -227 105zM1045 719q171 213 403 213
q200 0 300 -157q63 -98 63 -235q0 -29 -4 -66t-12 -82h-724v-17q0 -100 54 -173q70 -94 200 -94q185 0 304 161l121 -55q-175 -238 -444 -238q-245 0 -345 214q-47 -61 -105 -104q-148 -110 -323 -110q-124 0 -221 60q-103 64 -146 179q-29 76 -29 161q0 169 104 318
q80 113 204 178q115 60 242 60q60 0 114.5 -14.5t100.5 -42t82.5 -67t60.5 -89.5z" />
    <glyph glyph-name="Racute" unicode="&#x154;" horiz-adv-x="1092" 
d="M427 692h145q135 0 213 36q78 37 123 109.5t45 162.5q0 115 -72 169.5t-225 54.5h-145zM1041 0h-170l-218 559q-77 -6 -122 -6h-127l-87 -553h-153l216 1365h280q134 0 217 -24q80 -24 136 -80q92 -92 92 -242q0 -179 -126 -312q-71 -75 -172 -115zM1044 1722l-297 -258
l-83 53l249 282z" />
    <glyph glyph-name="racute" unicode="&#x155;" horiz-adv-x="600" 
d="M753 1312l-297 -258l-83 53l249 282zM403 806q100 103 261 103q7 0 16.5 -0.5t22.5 -1.5l-21 -131q-12 1 -21.5 1h-17.5q-95 0 -161 -45q-57 -39 -87 -103q-31 -64 -51 -191l-69 -438h-146l144 908h146z" />
    <glyph glyph-name="Rcommaaccent" unicode="&#x156;" horiz-adv-x="1092" 
d="M427 692h145q135 0 213 36q78 37 123 109.5t45 162.5q0 115 -72 169.5t-225 54.5h-145zM1041 0h-170l-218 559q-77 -6 -122 -6h-127l-87 -553h-153l216 1365h280q134 0 217 -24q80 -24 136 -80q92 -92 92 -242q0 -179 -126 -312q-71 -75 -172 -115zM525 -95l135 -43
l-184 -312l-97 32z" />
    <glyph glyph-name="rcommaaccent" unicode="&#x157;" horiz-adv-x="600" 
d="M129 -95l134 -43l-184 -312l-97 32zM402 806q100 103 262 103q7 0 16.5 -0.5t21.5 -1.5l-20 -131q-12 1 -21.5 1h-17.5q-95 0 -161 -45q-57 -39 -87 -103q-31 -64 -51 -191l-69 -438h-146l144 908h146z" />
    <glyph glyph-name="Rcaron" unicode="&#x158;" horiz-adv-x="1092" 
d="M427 692h145q135 0 213 36q78 37 123 109.5t45 162.5q0 115 -72 169.5t-225 54.5h-145zM1041 0h-170l-218 559q-77 -6 -122 -6h-127l-87 -553h-153l216 1365h280q134 0 217 -24q80 -24 136 -80q92 -92 92 -242q0 -179 -126 -312q-71 -75 -172 -115zM781 1609l216 178
l97 -53l-276 -258h-116l-195 258l113 53z" />
    <glyph glyph-name="rcaron" unicode="&#x159;" horiz-adv-x="600" 
d="M534 1199l216 178l97 -53l-276 -258h-116l-195 258l114 53zM403 806q100 103 261 103q7 0 16.5 -0.5t22.5 -1.5l-21 -131q-12 1 -21.5 1h-17.5q-95 0 -161 -45q-57 -39 -87 -103q-31 -64 -51 -191l-69 -438h-146l144 908h146z" />
    <glyph glyph-name="Sacute" unicode="&#x15a;" horiz-adv-x="1035" 
d="M1066 1722l-297 -258l-84 53l250 282zM955 1095q-74 152 -223 152q-118 0 -198 -74q-89 -83 -89 -183q0 -118 167 -187l125 -52q266 -110 266 -305q0 -138 -95 -265q-74 -98 -183 -152q-108 -53 -226 -53q-163 0 -258 91.5t-107 259.5l155 42q22 -250 238 -250
q159 0 258 132q62 83 62 172q0 65 -47 113t-155 93l-120 50q-233 98 -233 285q0 135 89 248q72 90 181 136q96 41 197 41q231 0 330 -215z" />
    <glyph glyph-name="sacute" unicode="&#x15b;" horiz-adv-x="760" 
d="M842 1312l-297 -258l-84 53l249 282zM657 706q-23 47 -46 66q-40 32 -96 32q-74 0 -123 -43q-50 -44 -50 -104q0 -43 24 -64q21 -21 114 -59l83 -35q91 -37 131.5 -83.5t40.5 -112.5q0 -91 -61 -176q-53 -71 -132 -111t-170 -40q-226 0 -278 232l134 53
q14 -43 29.5 -72.5t36 -47.5t46 -26t58.5 -8q77 0 133 51q56 50 56 119q0 42 -26 66t-112 59l-92 39q-153 63 -153 190q0 124 96 210q103 91 240 91q178 0 244 -164z" />
    <glyph glyph-name="Scircumflex" unicode="&#x15c;" horiz-adv-x="1035" 
d="M770 1642l-217 -178l-97 53l277 258h116l194 -258l-113 -53zM955 1095q-74 152 -223 152q-118 0 -198 -74q-89 -83 -89 -183q0 -118 167 -187l125 -52q266 -110 266 -305q0 -138 -95 -265q-74 -98 -183 -152q-108 -53 -226 -53q-163 0 -258 91.5t-107 259.5l155 42
q22 -250 238 -250q159 0 258 132q62 83 62 172q0 65 -47 113t-155 93l-120 50q-233 98 -233 285q0 135 89 248q72 90 181 136q96 41 197 41q231 0 330 -215z" />
    <glyph glyph-name="scircumflex" unicode="&#x15d;" horiz-adv-x="760" 
d="M573 1232l-217 -178l-97 53l277 258h116l194 -258l-113 -53zM657 706q-23 47 -46 66q-40 32 -96 32q-74 0 -123 -43q-50 -44 -50 -104q0 -43 24 -64q21 -21 114 -59l83 -35q91 -37 131.5 -83.5t40.5 -112.5q0 -91 -61 -176q-53 -71 -132 -111t-170 -40q-226 0 -278 232
l134 53q14 -43 29.5 -72.5t36 -47.5t46 -26t58.5 -8q77 0 133 51q56 50 56 119q0 42 -26 66t-112 59l-92 39q-153 63 -153 190q0 124 96 210q103 91 240 91q178 0 244 -164z" />
    <glyph glyph-name="Scedilla" unicode="&#x15e;" horiz-adv-x="1035" 
d="M639 -154l-249 -262l-92 50l215 270zM955 1095q-74 152 -223 152q-118 0 -198 -74q-89 -83 -89 -183q0 -118 167 -187l125 -52q266 -110 266 -305q0 -138 -95 -265q-74 -98 -183 -152q-108 -53 -226 -53q-163 0 -258 91.5t-107 259.5l155 42q22 -250 238 -250
q159 0 258 132q62 83 62 172q0 65 -47 113t-155 93l-120 50q-233 98 -233 285q0 135 89 248q72 90 181 136q96 41 197 41q231 0 330 -215z" />
    <glyph glyph-name="scedilla" unicode="&#x15f;" horiz-adv-x="760" 
d="M490 -154l-249 -262l-92 50l215 270zM657 706q-23 47 -46 66q-40 32 -96 32q-74 0 -123 -43q-50 -44 -50 -104q0 -43 24 -64q21 -21 114 -59l83 -35q91 -37 131.5 -83.5t40.5 -112.5q0 -91 -61 -176q-53 -71 -132 -111t-170 -40q-226 0 -278 232l134 53
q14 -43 29.5 -72.5t36 -47.5t46 -26t58.5 -8q77 0 133 51q56 50 56 119q0 42 -26 66t-112 59l-92 39q-153 63 -153 190q0 124 96 210q103 91 240 91q178 0 244 -164z" />
    <glyph glyph-name="Scaron" unicode="&#x160;" horiz-adv-x="1035" 
d="M764 1609l217 178l97 -53l-277 -258h-116l-194 258l113 53zM955 1095q-74 152 -223 152q-118 0 -198 -74q-89 -83 -89 -183q0 -118 167 -187l125 -52q266 -110 266 -305q0 -138 -95 -265q-74 -98 -183 -152q-108 -53 -226 -53q-163 0 -258 91.5t-107 259.5l155 42
q22 -250 238 -250q159 0 258 132q62 83 62 172q0 65 -47 113t-155 93l-120 50q-233 98 -233 285q0 135 89 248q72 90 181 136q96 41 197 41q231 0 330 -215z" />
    <glyph glyph-name="scaron" unicode="&#x161;" horiz-adv-x="760" 
d="M567 1199l217 178l97 -53l-277 -258h-116l-194 258l113 53zM657 706q-23 47 -46 66q-40 32 -96 32q-74 0 -123 -43q-50 -44 -50 -104q0 -43 24 -64q21 -21 114 -59l83 -35q91 -37 131.5 -83.5t40.5 -112.5q0 -91 -61 -176q-53 -71 -132 -111t-170 -40q-226 0 -278 232
l134 53q14 -43 29.5 -72.5t36 -47.5t46 -26t58.5 -8q77 0 133 51q56 50 56 119q0 42 -26 66t-112 59l-92 39q-153 63 -153 190q0 124 96 210q103 91 240 91q178 0 244 -164z" />
    <glyph glyph-name="Tcommaaccent" unicode="&#x162;" horiz-adv-x="887" 
d="M374 -95l135 -43l-184 -312l-97 32zM715 1224l-194 -1224h-153l194 1224h-354l22 141h860l-22 -141h-353z" />
    <glyph glyph-name="tcommaaccent" unicode="&#x163;" horiz-adv-x="504" 
d="M213 -95l134 -43l-184 -312l-97 32zM416 776l-80 -503q-2 -17 -3.5 -31.5t-1.5 -27.5q0 -92 83 -92q24 0 64 10l-21 -132q-28 -7 -50.5 -10.5t-41.5 -3.5q-183 0 -183 199q0 19 2 40.5t6 47.5l80 503h-103l21 132h103l34 215l155 58l-43 -273h150l-21 -132h-150z" />
    <glyph glyph-name="Tcaron" unicode="&#x164;" horiz-adv-x="887" 
d="M699 1609l216 178l97 -53l-276 -258h-116l-195 258l114 53zM715 1224l-194 -1224h-153l194 1224h-354l22 141h860l-22 -141h-353z" />
    <glyph glyph-name="tcaron" unicode="&#x165;" horiz-adv-x="614" 
d="M704 1389l134 -43l-184 -312l-97 32zM415 776l-79 -503q-2 -16 -3.5 -30.5t-1.5 -28.5q0 -92 83 -92q24 0 63 10l-21 -132q-56 -14 -92 -14q-182 0 -182 199q0 20 2 41.5t6 46.5l79 503h-102l21 132h102l34 215l156 58l-44 -273h151l-21 -132h-151z" />
    <glyph glyph-name="Tbar" unicode="&#x166;" horiz-adv-x="887" 
d="M643 776l-122 -776h-153l122 776h-217l21 132h217l51 316h-354l22 141h860l-22 -141h-353l-51 -316h217l-21 -132h-217z" />
    <glyph glyph-name="tbar" unicode="&#x167;" horiz-adv-x="504" 
d="M233 545h-102l20 125h102l18 113h-102l19 125h103l34 215l155 58l-43 -273h150l-20 -125h-150l-18 -113h150l-19 -125h-151l-43 -272q-2 -17 -3.5 -32t-1.5 -28q0 -91 83 -91q24 0 64 10l-21 -132q-28 -7 -50.5 -10.5t-41.5 -3.5q-183 0 -183 199q0 18 2 40t6 48z" />
    <glyph glyph-name="Utilde" unicode="&#x168;" horiz-adv-x="1301" 
d="M1197 1694q-44 -174 -188 -174q-54 0 -133 39q-61 31 -83 31q-24 0 -38 -15.5t-28 -57.5l-111 27q22 82 72.5 128t117.5 46q46 0 136 -44q54 -26 82 -26q25 0 37.5 15.5t22.5 58.5zM533 1365l-134 -846q-8 -50 -12 -87t-4 -63q0 -109 74 -175q85 -76 210 -76
q130 0 239 76q72 49 105 117q32 65 55 208l134 846h153l-140 -887q-9 -55 -21.5 -100t-28.5 -82q-32 -74 -90 -135q-85 -91 -202 -140q-110 -46 -225 -46q-191 0 -315 119q-103 100 -103 251q0 32 3 65t8 68l141 887h153z" />
    <glyph glyph-name="utilde" unicode="&#x169;" horiz-adv-x="1043" 
d="M1004 1285q-20 -85 -68.5 -129.5t-120.5 -44.5q-53 0 -132 39q-61 31 -83 31q-25 0 -39 -15.5t-27 -58.5l-112 28q22 81 72 127.5t119 46.5q45 0 135 -44q55 -26 83 -26q25 0 37.5 15t22.5 58zM784 102q-120 -126 -293 -126q-120 0 -202 63q-106 82 -106 234q0 68 12 143
l78 492h146l-75 -475q-12 -75 -12 -122q0 -94 50.5 -144.5t144.5 -50.5q132 0 216 86q69 70 97 252l72 454h146l-144 -908h-146z" />
    <glyph glyph-name="Umacron" unicode="&#x16a;" horiz-adv-x="1301" 
d="M637 1684h560l-21 -130h-560zM533 1365l-134 -846q-8 -50 -12 -87t-4 -63q0 -109 74 -175q85 -76 210 -76q130 0 239 76q72 49 105 117q32 65 55 208l134 846h153l-140 -887q-9 -55 -21.5 -100t-28.5 -82q-32 -74 -90 -135q-85 -91 -202 -140q-110 -46 -225 -46
q-191 0 -315 119q-103 100 -103 251q0 32 3 65t8 68l141 887h153z" />
    <glyph glyph-name="umacron" unicode="&#x16b;" horiz-adv-x="1043" 
d="M444 1275h559l-20 -130h-560zM784 102q-120 -126 -293 -126q-120 0 -202 63q-106 82 -106 234q0 68 12 143l78 492h146l-75 -475q-12 -75 -12 -122q0 -94 50.5 -144.5t144.5 -50.5q132 0 216 86q69 70 97 252l72 454h146l-144 -908h-146z" />
    <glyph glyph-name="Ubreve" unicode="&#x16c;" horiz-adv-x="1301" 
d="M782 1744q-3 -24 -3 -40q0 -24 9 -45t25.5 -36.5t38.5 -24t49 -8.5q124 0 170 154l123 -10q-27 -103 -90 -169q-96 -101 -225 -101q-102 0 -165 63q-64 64 -64 149q0 11 1.5 25l3.5 33zM533 1365l-134 -846q-8 -50 -12 -87t-4 -63q0 -109 74 -175q85 -76 210 -76
q130 0 239 76q72 49 105 117q32 65 55 208l134 846h153l-140 -887q-9 -55 -21.5 -100t-28.5 -82q-32 -74 -90 -135q-85 -91 -202 -140q-110 -46 -225 -46q-191 0 -315 119q-103 100 -103 251q0 32 3 65t8 68l141 887h153z" />
    <glyph glyph-name="ubreve" unicode="&#x16d;" horiz-adv-x="1043" 
d="M588 1334q-1 -11 -1.5 -21.5t-0.5 -18.5q0 -24 9 -45t25.5 -36.5t38.5 -24t48 -8.5q125 0 171 154l123 -10q-29 -104 -91 -169q-95 -101 -224 -101q-102 0 -165 63q-64 64 -64 148q0 11 1.5 26t3.5 33zM784 102q-120 -126 -293 -126q-120 0 -202 63q-106 82 -106 234
q0 68 12 143l78 492h146l-75 -475q-12 -75 -12 -122q0 -94 50.5 -144.5t144.5 -50.5q132 0 216 86q69 70 97 252l72 454h146l-144 -908h-146z" />
    <glyph glyph-name="Uring" unicode="&#x16e;" horiz-adv-x="1301" 
d="M924 1725q-50 0 -87 -37q-38 -38 -38 -84q0 -39 25.5 -64.5t65.5 -25.5q50 0 87 37t37 85q0 39 -25.5 64t-64.5 25zM935 1799q69 0 113 -43q45 -44 45 -108q0 -76 -54 -134q-68 -74 -160 -74q-35 0 -64 11.5t-50 32t-32.5 49t-11.5 62.5q0 79 65 142q65 62 149 62z
M533 1365l-134 -846q-8 -50 -12 -87t-4 -63q0 -109 74 -175q85 -76 210 -76q130 0 239 76q72 49 105 117q32 65 55 208l134 846h153l-140 -887q-9 -55 -21.5 -100t-28.5 -82q-32 -74 -90 -135q-85 -91 -202 -140q-110 -46 -225 -46q-191 0 -315 119q-103 100 -103 251
q0 32 3 65t8 68l141 887h153z" />
    <glyph glyph-name="uring" unicode="&#x16f;" horiz-adv-x="1043" 
d="M730 1315q-49 0 -86 -37q-38 -38 -38 -84q0 -39 25.5 -64.5t64.5 -25.5q50 0 87 37t37 85q0 39 -25.5 64t-64.5 25zM741 1389q69 0 113 -43q45 -44 45 -108q0 -74 -54 -134q-68 -74 -159 -74q-69 0 -113 44q-45 43 -45 110q0 80 65 143q65 62 148 62zM784 102
q-120 -126 -293 -126q-120 0 -202 63q-106 82 -106 234q0 68 12 143l78 492h146l-75 -475q-12 -75 -12 -122q0 -94 50.5 -144.5t144.5 -50.5q132 0 216 86q69 70 97 252l72 454h146l-144 -908h-146z" />
    <glyph glyph-name="Uhungarumlaut" unicode="&#x170;" horiz-adv-x="1301" 
d="M1305 1722l-297 -258l-77 53l250 282zM1018 1722l-297 -258l-76 53l249 282zM533 1365l-134 -846q-8 -50 -12 -87t-4 -63q0 -109 74 -175q85 -76 210 -76q130 0 239 76q72 49 105 117q32 65 55 208l134 846h153l-140 -887q-9 -55 -21.5 -100t-28.5 -82q-32 -74 -90 -135
q-85 -91 -202 -140q-110 -46 -225 -46q-191 0 -315 119q-103 100 -103 251q0 32 3 65t8 68l141 887h153z" />
    <glyph glyph-name="uhungarumlaut" unicode="&#x171;" horiz-adv-x="1043" 
d="M1122 1312l-297 -258l-77 53l250 282zM835 1312l-297 -258l-77 53l250 282zM784 102q-120 -126 -293 -126q-120 0 -202 63q-106 82 -106 234q0 68 12 143l78 492h146l-75 -475q-12 -75 -12 -122q0 -94 50.5 -144.5t144.5 -50.5q132 0 216 86q69 70 97 252l72 454h146
l-144 -908h-146z" />
    <glyph glyph-name="Uogonek" unicode="&#x172;" horiz-adv-x="1301" 
d="M728 -19q-78 -77 -78 -131q0 -40 59 -40q31 0 78 15l25 -104q-77 -27 -134 -27q-67 0 -107 28q-58 39 -58 107q0 71 68 150q-78 10 -144 42q-104 50 -159 140q-50 83 -50 184q0 32 3 65t8 68l141 887h153l-134 -846q-8 -50 -12 -87t-4 -63q0 -109 74 -175q85 -76 210 -76
q130 0 239 76q72 49 105 117q32 65 55 208l134 846h153l-140 -887q-25 -161 -91 -257q-108 -157 -305 -219q-41 -13 -89 -21z" />
    <glyph glyph-name="uogonek" unicode="&#x173;" horiz-adv-x="1043" 
d="M914 0q-96 -95 -96 -150q0 -40 59 -40q30 0 78 15l24 -104q-77 -27 -133 -27q-67 0 -107 28q-58 39 -58 107q0 82 87 171l16 102q-120 -126 -293 -126q-120 0 -202 63q-106 82 -106 234q0 68 12 143l78 492h146l-75 -475q-12 -75 -12 -122q0 -94 50.5 -144.5t144.5 -50.5
q132 0 216 86q69 70 97 252l72 454h146z" />
    <glyph glyph-name="Wcircumflex" unicode="&#x174;" horiz-adv-x="1802" 
d="M1161 1642l-216 -178l-97 53l276 258h116l195 -258l-113 -53zM389 1365l157 -1143l503 1143h137l141 -1143l520 1143h158l-633 -1365h-80h-77l-139 1106l-489 -1106h-76h-81l-200 1365h159z" />
    <glyph glyph-name="wcircumflex" unicode="&#x175;" horiz-adv-x="1368" 
d="M301 908l140 -690l325 690h123l108 -690l358 690h155l-485 -908h-123l-110 683l-327 -683h-122l-198 908h156zM879 1232l-216 -178l-97 53l276 258h116l195 -258l-114 -53z" />
    <glyph glyph-name="Ycircumflex" unicode="&#x176;" horiz-adv-x="1038" 
d="M779 1642l-216 -178l-97 53l276 258h117l194 -258l-113 -53zM532 570l-316 795h167l249 -652l456 652h166l-569 -795l-90 -570h-153z" />
    <glyph glyph-name="ycircumflex" unicode="&#x177;" horiz-adv-x="904" 
d="M376 41l-231 867h157l179 -690l408 690h157l-827 -1386h-150zM649 1232l-217 -178l-97 53l277 258h116l194 -258l-113 -53z" />
    <glyph glyph-name="Ydieresis" unicode="&#x178;" horiz-adv-x="1038" 
d="M603 1722q38 0 63 -24.5t25 -61.5q0 -47 -36 -83q-38 -36 -84 -36q-38 0 -62.5 24.5t-24.5 62.5q0 46 36 82t83 36zM979 1722q38 0 62.5 -24t24.5 -62q0 -47 -36 -83t-83 -36q-38 0 -63 24.5t-25 63.5q0 45 37 81q36 36 83 36zM532 570l-316 795h167l249 -652l456 652
h166l-569 -795l-90 -570h-153z" />
    <glyph glyph-name="Zacute" unicode="&#x179;" horiz-adv-x="1042" 
d="M1035 1722l-297 -258l-84 53l250 282zM251 142h763l-23 -142h-943l21 135l932 1089h-698l23 141h867l-22 -136z" />
    <glyph glyph-name="zacute" unicode="&#x17a;" horiz-adv-x="857" 
d="M262 132h582l-20 -132h-765l19 120l667 657h-532l20 131h714l-19 -121zM891 1312l-297 -258l-83 53l249 282z" />
    <glyph glyph-name="Zdotaccent" unicode="&#x17b;" horiz-adv-x="1042" 
d="M826 1722q38 0 63 -24.5t25 -61.5q0 -47 -36 -83q-38 -36 -84 -36q-38 0 -62.5 24.5t-24.5 62.5q0 46 36 82t83 36zM251 142h763l-23 -142h-943l21 135l932 1089h-698l23 141h867l-22 -136z" />
    <glyph glyph-name="zdotaccent" unicode="&#x17c;" horiz-adv-x="857" 
d="M262 132h582l-20 -132h-765l19 120l667 657h-532l20 131h714l-19 -121zM648 1312q38 0 63 -24.5t25 -61.5q0 -47 -36 -83q-38 -36 -84 -36q-38 0 -62.5 24.5t-24.5 62.5q0 47 36 83q37 35 83 35z" />
    <glyph glyph-name="Zcaron" unicode="&#x17d;" horiz-adv-x="1042" 
d="M809 1609l216 178l97 -53l-276 -258h-116l-195 258l113 53zM251 142h763l-23 -142h-943l21 135l932 1089h-698l23 141h867l-22 -136z" />
    <glyph glyph-name="zcaron" unicode="&#x17e;" horiz-adv-x="857" 
d="M262 132h582l-20 -132h-765l19 120l667 657h-532l20 131h714l-19 -121zM631 1199l216 178l97 -53l-276 -258h-116l-195 258l114 53z" />
    <glyph glyph-name="longs" unicode="&#x17f;" horiz-adv-x="467" 
d="M303 0h-146l123 776h-92l21 132h92l29 184q45 287 265 287q34 0 88 -14l-21 -132q-36 10 -60 10q-102 0 -126 -151z" />
    <glyph glyph-name="florin" unicode="&#x192;" horiz-adv-x="950" 
d="M3 -257q36 -10 58 -10q102 0 157 151l322 892h-92l48 132h92l25 68l42 116q104 287 324 287q34 0 85 -14l-48 -132q-36 10 -59 10q-101 0 -156 -151l-67 -184h167l-47 -132h-167l-323 -892q-104 -287 -324 -287q-37 0 -85 14z" />
    <glyph glyph-name="Ohorn" unicode="&#x1a0;" horiz-adv-x="1565" 
d="M983 1246q-222 0 -404 -157q-111 -96 -174 -229q-64 -132 -64 -272q0 -186 116 -317q72 -81 177 -122q76 -30 160 -30q216 0 401 152q115 94 180 228q65 135 65 275q0 184 -108 315q-74 88 -182 126q-84 31 -167 31zM1470 1168q130 60 130 170q0 72 -64 133l110 51
q84 -68 84 -173q0 -172 -197 -282q63 -132 63 -274q0 -246 -160 -464q-117 -159 -288 -253q-181 -100 -378 -100q-181 0 -329 100q-141 96 -208 253q-48 112 -48 242q0 246 160 464q121 164 300 260q175 94 365 94q138 0 258 -58q122 -59 202 -163z" />
    <glyph glyph-name="ohorn" unicode="&#x1a1;" horiz-adv-x="1146" 
d="M659 800q-128 0 -234 -92q-140 -123 -140 -322q0 -104 48 -171q75 -107 224 -107q133 0 239 92q140 125 140 323q0 104 -50 172q-77 105 -227 105zM1036 735q84 55 84 147q0 71 -64 132l111 51q83 -68 83 -173q0 -160 -174 -269q9 -41 9 -86q0 -173 -106 -322
q-78 -114 -203 -179q-116 -60 -243 -60q-211 0 -323 156q-73 101 -73 244q0 169 104 318q80 113 204 178q115 60 244 60q115 0 204 -50.5t143 -146.5z" />
    <glyph glyph-name="Uhorn" unicode="&#x1af;" horiz-adv-x="1361" 
d="M1323 1177q111 57 111 161q0 72 -64 133l110 51q84 -69 84 -173q0 -49 -18 -95t-52 -86t-83 -73.5t-110 -57.5l-88 -559q-9 -54 -21 -99t-29 -83.5t-39 -71.5t-51 -63q-83 -90 -203 -140q-110 -46 -224 -46q-191 0 -315 119q-103 100 -103 251q0 32 3 65t8 68l141 887
h153l-134 -846q-8 -50 -12 -87t-4 -63q0 -109 74 -174q86 -77 210 -77q129 0 239 77q73 50 105 116t55 208l134 846h153z" />
    <glyph glyph-name="uhorn" unicode="&#x1b0;" horiz-adv-x="1165" 
d="M1028 720q111 57 111 162q0 71 -64 132l110 51q84 -68 84 -173q0 -49 -18 -95t-52 -86t-83 -73.5t-110 -57.5l-92 -580h-146l16 102q-120 -126 -293 -126q-120 0 -202 63q-106 82 -106 234q0 68 12 143l78 492h146l-75 -475q-12 -75 -12 -122q0 -94 50.5 -144.5
t144.5 -50.5q132 0 216 86q69 70 97 252l72 454h146z" />
    <glyph glyph-name="uni01C4" unicode="&#x1c4;" horiz-adv-x="2275" 
d="M2042 1609l216 178l97 -53l-276 -258h-116l-195 258l113 53zM1484 142h763l-23 -142h-943l21 135l932 1089h-698l23 141h867l-22 -136zM511 1223l-172 -1081h134q336 0 524 228q146 178 146 418q0 199 -127 314q-133 121 -372 121h-133zM380 1365h280q307 0 478 -153
q162 -146 162 -398q0 -154 -56 -304q-108 -289 -381 -421q-187 -89 -419 -89h-280z" />
    <glyph glyph-name="uni01C5" unicode="&#x1c5;" horiz-adv-x="2090" 
d="M1495 132h582l-21 -132h-764l19 120l667 657h-532l20 131h714l-19 -121zM1864 1199l216 178l97 -53l-276 -258h-116l-195 258l113 53zM511 1223l-172 -1081h134q336 0 524 228q146 178 146 418q0 199 -127 314q-133 121 -372 121h-133zM380 1365h280q307 0 478 -153
q162 -146 162 -398q0 -154 -56 -304q-108 -289 -381 -421q-187 -89 -419 -89h-280z" />
    <glyph glyph-name="uni01C6" unicode="&#x1c6;" horiz-adv-x="1981" 
d="M1754 1199l217 178l97 -53l-276 -258h-117l-194 258l113 53zM1385 132h583l-21 -132h-765l19 120l668 657h-533l21 131h713l-19 -121zM657 800q-126 0 -232 -92q-140 -123 -140 -323q0 -103 48 -170q75 -107 222 -107q132 0 234 93q137 125 137 324q0 103 -48 171
q-72 104 -221 104zM995 0h-146l19 119q-155 -143 -342 -143q-203 0 -315 157q-74 104 -74 243q0 170 105 317q80 114 203 178q113 61 238 61q181 0 291 -144l91 577h146z" />
    <glyph glyph-name="uni01C7" unicode="&#x1c7;" horiz-adv-x="1696" 
d="M1749 1365l-151 -956q-21 -129 -56 -207q-35 -77 -99 -132q-109 -94 -253 -94q-84 0 -150 33t-140 113l110 110q98 -113 200 -113q97 0 154 70t81 220l151 956h153zM533 1365l-194 -1223h530l-22 -142h-683l216 1365h153z" />
    <glyph glyph-name="uni01C8" unicode="&#x1c8;" horiz-adv-x="1288" 
d="M1154 908h146l-176 -1113q-45 -286 -265 -286q-40 0 -88 13l21 133q36 -10 61 -10q101 0 125 150zM1292 1314q39 0 64 -24.5t25 -62.5q0 -49 -37 -85q-37 -37 -85 -37q-39 0 -64 25t-25 64q0 47 37 84q37 36 85 36zM533 1365l-194 -1223h530l-22 -142h-683l216 1365h153z
" />
    <glyph glyph-name="uni01C9" unicode="&#x1c9;" horiz-adv-x="807" 
d="M673 908h147l-177 -1113q-45 -286 -265 -286q-40 0 -88 13l21 133q36 -10 61 -10q101 0 125 150zM811 1314q39 0 64 -24.5t25 -62.5q0 -49 -37 -85q-37 -37 -85 -37q-39 0 -64 25t-25 64q0 47 37 84q37 36 85 36zM277 0h-146l216 1365h146z" />
    <glyph glyph-name="uni01CA" unicode="&#x1ca;" horiz-adv-x="2270" 
d="M2322 1365l-151 -956q-21 -129 -56 -207q-34 -76 -98 -132q-109 -94 -254 -94q-83 0 -149 33q-65 33 -141 113l111 110q98 -113 200 -113q97 0 153.5 70t80.5 220l152 956h152zM164 0l216 1365h144l653 -1116l177 1116h153l-217 -1365h-143l-653 1116l-177 -1116h-153z
" />
    <glyph glyph-name="uni01CB" unicode="&#x1cb;" horiz-adv-x="1881" 
d="M1748 908h146l-176 -1113q-45 -286 -265 -286q-40 0 -88 13l21 133q36 -10 60 -10q102 0 126 150zM1886 1314q38 0 63.5 -24.5t25.5 -62.5q0 -49 -37 -85q-37 -37 -86 -37q-39 0 -64 25t-25 64q0 47 37 84q37 36 86 36zM164 0l216 1365h144l653 -1116l177 1116h153
l-217 -1365h-143l-653 1116l-177 -1116h-153z" />
    <glyph glyph-name="uni01CC" unicode="&#x1cc;" horiz-adv-x="1444" 
d="M1310 908h147l-177 -1113q-45 -286 -265 -286q-40 0 -88 13l21 133q36 -10 61 -10q101 0 125 150zM1448 1314q39 0 64 -24.5t25 -62.5q0 -49 -37 -85q-37 -37 -85 -37q-39 0 -64 25t-25 64q0 47 37 84q37 36 85 36zM403 806q123 126 293 126q120 0 202 -64
q106 -81 106 -233q0 -67 -12 -143l-78 -492h-146l75 474q12 76 12 123q0 94 -50.5 144.5t-144.5 50.5q-132 0 -216 -86q-18 -19 -32.5 -42t-26.5 -52.5t-21 -68t-17 -89.5l-72 -454h-146l144 908h146z" />
    <glyph glyph-name="uni01CD" unicode="&#x1cd;" horiz-adv-x="1270" 
d="M890 1609l217 178l96 -53l-276 -258h-116l-195 258l114 53zM456 528h523l-154 689zM380 386l-208 -386h-158l742 1365h191l309 -1365h-159l-86 386h-631z" />
    <glyph glyph-name="uni01CE" unicode="&#x1ce;" 
d="M723 1199l217 178l97 -53l-277 -258h-116l-194 258l113 53zM658 800q-126 0 -232 -92q-140 -123 -140 -323q0 -103 48 -170q75 -107 222 -107q133 0 235 93q138 124 138 323q0 104 -48 172q-74 104 -223 104zM995 0h-146l19 119q-155 -143 -342 -143q-203 0 -315 157
q-74 104 -74 243q0 170 105 317q80 114 203 178q113 61 238 61q181 0 291 -144l18 120h146z" />
    <glyph glyph-name="uni01CF" unicode="&#x1cf;" horiz-adv-x="481" 
d="M495 1609l217 178l97 -53l-277 -258h-116l-194 258l113 53zM533 1365l-216 -1365h-153l216 1365h153z" />
    <glyph glyph-name="uni01D0" unicode="&#x1d0;" horiz-adv-x="408" 
d="M394 1199l216 178l97 -53l-276 -258h-116l-195 258l113 53zM421 908l-144 -908h-146l144 908h146z" />
    <glyph glyph-name="uni01D1" unicode="&#x1d1;" horiz-adv-x="1565" 
d="M1037 1609l216 178l97 -53l-276 -258h-116l-195 258l114 53zM983 1246q-222 0 -404 -157q-111 -96 -174 -229q-64 -132 -64 -272q0 -186 116 -317q72 -81 177 -122q76 -30 160 -30q216 0 401 152q115 94 180 228q65 135 65 275q0 184 -108 315q-74 88 -182 126
q-84 31 -167 31zM1008 1389q180 0 322 -94q147 -95 218 -260q48 -113 48 -242q0 -246 -160 -464q-117 -159 -288 -253q-181 -100 -381 -100q-178 0 -326 100q-141 94 -208 253q-46 110 -46 249q0 248 158 457q126 168 300 260q175 94 363 94z" />
    <glyph glyph-name="uni01D2" unicode="&#x1d2;" horiz-adv-x="1077" 
d="M729 1199l216 178l97 -53l-276 -258h-116l-195 258l113 53zM660 800q-129 0 -235 -92q-140 -123 -140 -322q0 -104 48 -171q75 -107 224 -107q134 0 240 92q140 125 140 323q0 104 -50 172q-77 105 -227 105zM693 932q204 0 318 -157q74 -103 74 -242q0 -170 -105 -318
q-80 -113 -203 -179q-116 -60 -243 -60q-125 0 -222 60q-175 109 -175 342q0 173 104 316q87 117 204 178q115 60 248 60z" />
    <glyph glyph-name="uni01D3" unicode="&#x1d3;" horiz-adv-x="1301" 
d="M905 1609l216 178l97 -53l-276 -258h-116l-195 258l114 53zM533 1365l-134 -846q-8 -50 -12 -87t-4 -63q0 -109 74 -175q85 -76 210 -76q130 0 239 76q72 49 105 117q32 65 55 208l134 846h153l-140 -887q-9 -55 -21.5 -100t-28.5 -82q-32 -74 -90 -135
q-85 -91 -202 -140q-110 -46 -225 -46q-191 0 -315 119q-103 100 -103 251q0 32 3 65t8 68l141 887h153z" />
    <glyph glyph-name="uni01D4" unicode="&#x1d4;" horiz-adv-x="1043" 
d="M712 1199l216 178l97 -53l-276 -258h-116l-195 258l113 53zM784 102q-120 -126 -293 -126q-120 0 -202 63q-106 82 -106 234q0 68 12 143l78 492h146l-75 -475q-12 -75 -12 -122q0 -94 50.5 -144.5t144.5 -50.5q132 0 216 86q69 70 97 252l72 454h146l-144 -908h-146z
" />
    <glyph glyph-name="Gcaron" unicode="&#x1e6;" horiz-adv-x="1490" 
d="M1045 1609l216 178l97 -53l-276 -258h-116l-195 258l114 53zM952 705h560l-12 -75q-30 -187 -121 -330q-85 -136 -220 -221q-164 -103 -368 -103q-324 0 -495 238q-111 154 -111 356q0 244 159 465q122 167 297 260q176 94 369 94q142 0 250 -50q106 -51 206 -168
l-121 -105q-29 37 -56.5 64t-53.5 44q-107 72 -249 72q-232 0 -410 -157q-108 -95 -172 -230q-63 -134 -63 -273q0 -96 31 -177q50 -131 162 -209q118 -81 276 -81q186 0 326 111q157 124 196 333h-403z" />
    <glyph glyph-name="gcaron" unicode="&#x1e7;" 
d="M723 1199l217 178l96 -53l-276 -258h-116l-195 258l114 53zM657 800q-126 0 -232 -92q-140 -123 -140 -323q0 -103 48 -170q75 -107 222 -107q133 0 235 93q137 125 137 323q0 104 -48 172q-74 104 -222 104zM1138 908l-146 -925q-32 -200 -159 -326q-159 -159 -393 -159
q-150 0 -259 73q-60 39 -122 128l111 96q55 -81 100 -112q77 -53 189 -53q155 0 258 94q102 95 129 259l21 136q-154 -143 -341 -143q-203 0 -315 157q-74 103 -74 243q0 171 104 317q82 114 204 178q113 61 238 61q180 0 290 -144l19 120h146z" />
    <glyph glyph-name="uni01F4" unicode="&#x1f4;" horiz-adv-x="1490" 
d="M1319 1722l-297 -258l-83 53l249 282zM952 705h560l-12 -75q-30 -187 -121 -330q-85 -136 -220 -221q-164 -103 -368 -103q-324 0 -495 238q-111 154 -111 356q0 244 159 465q122 167 297 260q176 94 369 94q142 0 250 -50q106 -51 206 -168l-121 -105q-29 37 -56.5 64
t-53.5 44q-107 72 -249 72q-232 0 -410 -157q-108 -95 -172 -230q-63 -134 -63 -273q0 -96 31 -177q50 -131 162 -209q118 -81 276 -81q186 0 326 111q157 124 196 333h-403z" />
    <glyph glyph-name="uni01F5" unicode="&#x1f5;" 
d="M994 1312l-297 -258l-84 53l250 282zM657 800q-126 0 -232 -92q-140 -123 -140 -323q0 -103 48 -170q75 -107 222 -107q133 0 235 93q137 125 137 323q0 104 -48 172q-74 104 -222 104zM1138 908l-146 -925q-32 -200 -159 -326q-159 -159 -393 -159q-150 0 -259 73
q-60 39 -122 128l111 96q55 -81 100 -112q77 -53 189 -53q155 0 258 94q102 95 129 259l21 136q-154 -143 -341 -143q-203 0 -315 157q-74 103 -74 243q0 171 104 317q82 114 204 178q113 61 238 61q180 0 290 -144l19 120h146z" />
    <glyph glyph-name="Aringacute" unicode="&#x1fa;" horiz-adv-x="1270" 
d="M1141 2094l-297 -258l-83 53l249 282zM908 1725q-49 0 -86 -37q-38 -38 -38 -84q0 -39 25.5 -64.5t64.5 -25.5q50 0 87 37t37 85q0 39 -25.5 64t-64.5 25zM919 1799q69 0 113 -43q45 -44 45 -108q0 -74 -54 -134q-68 -74 -159 -74q-35 0 -64 11.5t-50 32t-32.5 49
t-11.5 62.5q0 79 65 142q65 62 148 62zM456 528h523l-154 689zM380 386l-208 -386h-158l742 1365h191l309 -1365h-159l-86 386h-631z" />
    <glyph glyph-name="aringacute" unicode="&#x1fb;" 
d="M1007 1722l-297 -258l-83 53l249 282zM769 1315q-49 0 -86 -36q-38 -38 -38 -85q0 -39 25.5 -64.5t64.5 -25.5q50 0 87 37t37 85q0 39 -25.5 64t-64.5 25zM780 1389q69 0 113 -43q45 -44 45 -108q0 -74 -54 -134q-68 -74 -160 -74q-69 0 -113 44q-45 43 -45 110
q0 80 65 143q65 62 149 62zM658 800q-126 0 -232 -92q-140 -123 -140 -323q0 -103 48 -170q75 -107 222 -107q133 0 235 93q138 124 138 323q0 104 -48 172q-74 104 -223 104zM995 0h-146l19 119q-155 -143 -342 -143q-203 0 -315 157q-74 104 -74 243q0 170 105 317
q80 114 203 178q113 61 238 61q181 0 291 -144l18 120h146z" />
    <glyph glyph-name="AEacute" unicode="&#x1fc;" horiz-adv-x="1720" 
d="M1593 1722l-297 -258l-84 53l250 282zM995 528l110 696h-106l-463 -696h459zM972 386h-530l-257 -386h-171l920 1365h896l-22 -141h-550l-73 -461h489l-23 -142h-489l-76 -479h571l-22 -142h-724z" />
    <glyph glyph-name="aeacute" unicode="&#x1fd;" horiz-adv-x="1683" 
d="M1294 1312l-297 -258l-83 53l249 282zM1548 517q1 6 1 10.5v6.5q0 41 -10 80q-22 91 -88 140q-60 45 -143 45q-116 0 -208 -77q-94 -79 -131 -205h579zM815 462h-264q-136 0 -210 -50q-83 -56 -83 -157q0 -66 49 -100q67 -47 188 -47q264 0 293 185zM861 150
q-111 -174 -387 -174q-86 0 -153 17.5t-113 50.5t-70.5 81t-24.5 110q0 160 118 256q117 96 311 96h288v30q0 88 -60 135t-174 47q-162 0 -309 -102l-52 98q187 136 399 136q249 0 315 -180q166 180 379 180q161 0 262 -108q100 -109 100 -284q0 -56 -17 -147h-723
q-1 -7 -1 -11v-6q0 -99 55 -173q67 -94 200 -94q184 0 303 161l122 -55q-87 -117 -200 -177.5t-244 -60.5q-215 0 -324 174z" />
    <glyph glyph-name="Oslashacute" unicode="&#x1fe;" horiz-adv-x="1580" 
d="M1319 1722l-297 -258l-84 53l250 282zM484 250q61 -61 145.5 -96t172.5 -35q215 0 400 152q115 94 180 228q65 135 65 276q0 138 -68 256zM1313 1116q-137 130 -320 130q-225 0 -406 -157q-112 -96 -175 -229q-63 -134 -63 -272q0 -135 68 -254zM295 228
q-102 148 -102 345q0 244 160 462q120 165 299 260q175 94 366 94q213 0 376 -134l38 -35l170 148l71 -80l-173 -151q103 -148 103 -346q0 -245 -160 -463q-116 -158 -288 -252q-181 -100 -377 -100q-241 0 -414 169l-170 -148l-71 80z" />
    <glyph glyph-name="oslashacute" unicode="&#x1ff;" horiz-adv-x="1105" 
d="M1017 1312l-297 -258l-84 53l249 282zM875 732q-80 68 -195 68q-135 0 -241 -92q-140 -123 -140 -329q0 -63 18 -121zM374 177q76 -69 194 -69q136 0 242 92q140 125 140 329q0 74 -18 121zM205 163q-54 91 -54 213q0 169 104 318q80 113 204 178q115 60 243 60
q166 0 282 -108l103 87l66 -74l-109 -92q54 -95 54 -212q0 -170 -105 -318q-80 -113 -203 -179q-116 -60 -244 -60q-166 0 -281 109l-104 -88l-65 74z" />
    <glyph glyph-name="uni0200" unicode="&#x200;" horiz-adv-x="1270" 
d="M509 1722l149 77l160 -282l-93 -53zM796 1722l149 77l160 -282l-93 -53zM456 528h523l-154 689zM380 386l-208 -386h-158l742 1365h191l309 -1365h-159l-86 386h-631z" />
    <glyph glyph-name="uni0201" unicode="&#x201;" 
d="M297 1312l149 77l160 -282l-93 -53zM584 1312l149 77l160 -282l-94 -53zM658 800q-126 0 -232 -92q-140 -123 -140 -323q0 -103 48 -170q75 -107 222 -107q133 0 235 93q138 124 138 323q0 104 -48 172q-74 104 -223 104zM995 0h-146l19 119q-155 -143 -342 -143
q-203 0 -315 157q-74 104 -74 243q0 170 105 317q80 114 203 178q113 61 238 61q181 0 291 -144l18 120h146z" />
    <glyph glyph-name="Scommaaccent" unicode="&#x218;" horiz-adv-x="1035" 
d="M628 -154l-249 -262l-92 50l215 270zM955 1095q-74 152 -223 152q-118 0 -198 -74q-89 -83 -89 -183q0 -118 167 -187l125 -52q266 -110 266 -305q0 -138 -95 -265q-74 -98 -183 -152q-108 -53 -226 -53q-163 0 -258 91.5t-107 259.5l155 42q22 -250 238 -250
q159 0 258 132q62 83 62 172q0 65 -47 113t-155 93l-120 50q-233 98 -233 285q0 135 89 248q72 90 181 136q96 41 197 41q231 0 330 -215z" />
    <glyph glyph-name="scommaaccent" unicode="&#x219;" horiz-adv-x="760" 
d="M337 -95l135 -43l-184 -312l-97 32zM657 706q-23 47 -46 66q-40 32 -96 32q-74 0 -123 -43q-50 -44 -50 -104q0 -43 24 -64q21 -21 114 -59l83 -35q91 -37 131.5 -83.5t40.5 -112.5q0 -91 -61 -176q-53 -71 -132 -111t-170 -40q-226 0 -278 232l134 53q14 -43 29.5 -72.5
t36 -47.5t46 -26t58.5 -8q77 0 133 51q56 50 56 119q0 42 -26 66t-112 59l-92 39q-153 63 -153 190q0 124 96 210q103 91 240 91q178 0 244 -164z" />
    <glyph glyph-name="uni021A" unicode="&#x21a;" horiz-adv-x="887" 
d="M374 -95l135 -43l-184 -312l-97 32zM715 1224l-194 -1224h-153l194 1224h-354l22 141h860l-22 -141h-353z" />
    <glyph glyph-name="uni021B" unicode="&#x21b;" horiz-adv-x="504" 
d="M213 -95l134 -43l-184 -312l-97 32zM416 776l-80 -503q-2 -17 -3.5 -31.5t-1.5 -27.5q0 -92 83 -92q24 0 64 10l-21 -132q-28 -7 -50.5 -10.5t-41.5 -3.5q-183 0 -183 199q0 19 2 40.5t6 47.5l80 503h-103l21 132h103l34 215l155 58l-43 -273h150l-21 -132h-150z" />
    <glyph glyph-name="uni0226" unicode="&#x226;" horiz-adv-x="1270" 
d="M907 1722q38 0 63 -24.5t25 -61.5q0 -47 -36 -83q-38 -36 -84 -36q-38 0 -62.5 24.5t-24.5 62.5q0 46 36 82t83 36zM456 528h523l-154 689zM380 386l-208 -386h-158l742 1365h191l309 -1365h-159l-86 386h-631z" />
    <glyph glyph-name="uni0227" unicode="&#x227;" 
d="M741 1312q38 0 63 -24.5t25 -61.5q0 -47 -36 -83q-38 -36 -84 -36q-38 0 -62.5 24.5t-24.5 62.5q0 46 36 82t83 36zM658 800q-126 0 -232 -92q-140 -123 -140 -323q0 -103 48 -170q75 -107 222 -107q133 0 235 93q138 124 138 323q0 104 -48 172q-74 104 -223 104zM995 0
h-146l19 119q-155 -143 -342 -143q-203 0 -315 157q-74 104 -74 243q0 170 105 317q80 114 203 178q113 61 238 61q181 0 291 -144l18 120h146z" />
    <glyph glyph-name="uni0237" unicode="&#x237;" horiz-adv-x="427" 
d="M294 908h146l-176 -1113q-45 -286 -265 -286q-40 0 -88 13l21 133q36 -10 61 -10q101 0 125 150z" />
    <glyph glyph-name="uni02BB" unicode="&#x2bb;" horiz-adv-x="467" 
d="M375 923l-126 49l279 462l92 -39z" />
    <glyph glyph-name="afii57929" unicode="&#x2bc;" horiz-adv-x="536" 
d="M512 1434l126 -49l-278 -462l-92 39z" />
    <glyph glyph-name="circumflex" unicode="&#x2c6;" horiz-adv-x="975" 
d="M682 1232l-216 -178l-97 53l277 258h116l194 -258l-113 -53z" />
    <glyph glyph-name="caron" unicode="&#x2c7;" horiz-adv-x="975" 
d="M678 1199l216 178l97 -53l-276 -258h-116l-195 258l113 53z" />
    <glyph glyph-name="uni02C9" unicode="&#x2c9;" horiz-adv-x="975" 
d="M410 1275h559l-20 -130h-560z" />
    <glyph glyph-name="breve" unicode="&#x2d8;" horiz-adv-x="975" 
d="M554 1334q-1 -12 -1.5 -22t-0.5 -18q0 -24 9 -45t25.5 -36.5t38.5 -24t48 -8.5q125 0 171 154l123 -10q-27 -103 -90 -169q-96 -101 -225 -101q-102 0 -165 63q-64 64 -64 148q0 11 1.5 25.5l3.5 33.5z" />
    <glyph glyph-name="dotaccent" unicode="&#x2d9;" horiz-adv-x="975" 
d="M695 1312q38 0 63 -24.5t25 -61.5q0 -47 -36 -83q-38 -36 -84 -36q-38 0 -62.5 24.5t-24.5 62.5q0 47 36 83q37 35 83 35z" />
    <glyph glyph-name="ring" unicode="&#x2da;" horiz-adv-x="975" 
d="M696 1315q-50 0 -87 -37q-38 -38 -38 -84q0 -39 26 -64.5t65 -25.5q50 0 87 37t37 85q0 39 -25.5 64t-64.5 25zM707 1389q69 0 113 -43q45 -44 45 -108q0 -74 -54 -134q-68 -74 -160 -74q-69 0 -113 44q-45 43 -45 110q0 80 65 143q65 62 149 62z" />
    <glyph glyph-name="ogonek" unicode="&#x2db;" horiz-adv-x="975" 
d="M875 0q-96 -95 -96 -149q0 -41 59 -41q31 0 78 15l25 -104q-78 -27 -134 -27q-67 0 -107 28q-58 39 -58 107q0 82 87 171h146z" />
    <glyph glyph-name="tilde" unicode="&#x2dc;" horiz-adv-x="975" 
d="M969 1285q-20 -85 -68 -129.5t-120 -44.5q-53 0 -132 39q-62 31 -84 31q-24 0 -38 -15.5t-28 -58.5l-111 28q22 81 72.5 127.5t117.5 46.5q46 0 136 -44q54 -26 82 -26q25 0 37.5 15t22.5 58z" />
    <glyph glyph-name="hungarumlaut" unicode="&#x2dd;" horiz-adv-x="975" 
d="M1094 1312l-297 -258l-77 53l249 282zM807 1312l-297 -258l-77 53l250 282z" />
    <glyph glyph-name="uni0309" unicode="&#x309;" horiz-adv-x="975" 
d="M711 1476q9 44 41 81l24 28q38 44 38 68q0 42 -60 42q-32 0 -79 -16l-24 104q75 28 138 28q76 0 119.5 -31.5t43.5 -86.5q0 -59 -49 -120l-39 -49q-17 -22 -22 -48h-131z" />
    <glyph glyph-name="uni0323" unicode="&#x323;" horiz-adv-x="975" 
d="M468 -124q39 0 64 -25t25 -63q0 -47 -37 -84q-38 -36 -85 -36q-39 0 -64 25t-25 64q0 46 37 82q37 37 85 37z" />
    <glyph glyph-name="uni037E" unicode="&#x37e;" horiz-adv-x="465" 
d="M403 874q37 0 61.5 -23.5t24.5 -60.5q0 -46 -35 -81q-37 -35 -83 -35q-38 0 -62 24t-24 62q0 44 36 79q37 35 82 35zM249 200l126 -49l-278 -462l-92 39z" />
    <glyph glyph-name="uni0387" unicode="&#x387;" horiz-adv-x="464" 
d="M356 784q37 0 61.5 -24t24.5 -61q0 -46 -35 -81q-36 -36 -83 -36q-38 0 -62 24.5t-24 62.5q0 45 36 80q37 35 82 35z" />
    <glyph glyph-name="uni1E1E" unicode="&#x1e1e;" horiz-adv-x="894" 
d="M764 1722q38 0 63 -24.5t25 -61.5q0 -47 -36 -83q-38 -36 -84 -36q-38 0 -62.5 24.5t-24.5 62.5q0 46 36 82t83 36zM1013 1224h-502l-73 -461h458l-23 -142h-458l-98 -621h-153l216 1365h656z" />
    <glyph glyph-name="uni1E1F" unicode="&#x1e1f;" horiz-adv-x="511" 
d="M592 1722q38 0 63 -24.5t25 -61.5q0 -47 -36 -83q-38 -36 -84 -36q-38 0 -62.5 24.5t-24.5 62.5q0 46 36 82t83 36zM426 776l-123 -776h-146l123 776h-92l21 132h92l29 184q45 287 265 287q34 0 88 -14l-21 -132q-36 10 -60 10q-102 0 -126 -151l-29 -184h167l-21 -132
h-167z" />
    <glyph glyph-name="Wgrave" unicode="&#x1e80;" horiz-adv-x="1802" 
d="M932 1722l155 77l160 -282l-100 -53zM389 1365l157 -1143l503 1143h137l141 -1143l520 1143h158l-633 -1365h-80h-77l-139 1106l-489 -1106h-76h-81l-200 1365h159z" />
    <glyph glyph-name="wgrave" unicode="&#x1e81;" horiz-adv-x="1368" 
d="M635 1312l156 77l160 -282l-100 -53zM301 908l140 -690l325 690h123l108 -690l358 690h155l-485 -908h-123l-110 683l-327 -683h-122l-198 908h156z" />
    <glyph glyph-name="Wacute" unicode="&#x1e82;" horiz-adv-x="1802" 
d="M1430 1722l-297 -258l-83 53l249 282zM389 1365l157 -1143l503 1143h137l141 -1143l520 1143h158l-633 -1365h-80h-77l-139 1106l-489 -1106h-76h-81l-200 1365h159z" />
    <glyph glyph-name="wacute" unicode="&#x1e83;" horiz-adv-x="1368" 
d="M1087 1312l-297 -258l-84 53l249 282zM301 908l140 -690l325 690h123l108 -690l358 690h155l-485 -908h-123l-110 683l-327 -683h-122l-198 908h156z" />
    <glyph glyph-name="Wdieresis" unicode="&#x1e84;" horiz-adv-x="1802" 
d="M985 1722q39 0 64 -24.5t25 -61.5q0 -47 -36 -83q-38 -36 -85 -36q-38 0 -62.5 24.5t-24.5 62.5q0 46 37 82q36 36 82 36zM1362 1722q38 0 62.5 -24t24.5 -62q0 -47 -36 -83t-83 -36q-38 0 -63 24.5t-25 63.5q0 45 37 81q36 36 83 36zM389 1365l157 -1143l503 1143h137
l141 -1143l520 1143h158l-633 -1365h-80h-77l-139 1106l-489 -1106h-76h-81l-200 1365h159z" />
    <glyph glyph-name="wdieresis" unicode="&#x1e85;" horiz-adv-x="1368" 
d="M703 1312q38 0 63 -24.5t25 -61.5q0 -47 -36 -83q-38 -36 -84 -36q-38 0 -62.5 24.5t-24.5 62.5q0 47 36 83q37 35 83 35zM1080 1312q38 0 62.5 -24t24.5 -62q0 -47 -36 -83t-83 -36q-38 0 -63 25t-25 63q0 46 37 82q37 35 83 35zM301 908l140 -690l325 690h123l108 -690
l358 690h155l-485 -908h-123l-110 683l-327 -683h-122l-198 908h156z" />
    <glyph glyph-name="uni1EA0" unicode="&#x1ea0;" horiz-adv-x="1270" 
d="M615 -123q38 0 63 -24.5t25 -61.5q0 -47 -36 -83q-38 -36 -84 -36q-38 0 -62.5 24.5t-24.5 62.5q0 47 36 82q36 36 83 36zM456 528h523l-154 689zM380 386l-208 -386h-158l742 1365h191l309 -1365h-159l-86 386h-631z" />
    <glyph glyph-name="uni1EA1" unicode="&#x1ea1;" 
d="M538 -123q38 0 63 -24.5t25 -61.5q0 -47 -36 -83q-38 -36 -84 -36q-38 0 -62.5 24.5t-24.5 62.5q0 47 36 82q36 36 83 36zM658 800q-126 0 -232 -92q-140 -123 -140 -323q0 -103 48 -170q75 -107 222 -107q133 0 235 93q138 124 138 323q0 104 -48 172q-74 104 -223 104z
M995 0h-146l19 119q-155 -143 -342 -143q-203 0 -315 157q-74 104 -74 243q0 170 105 317q80 114 203 178q113 61 238 61q181 0 291 -144l18 120h146z" />
    <glyph glyph-name="uni1EA2" unicode="&#x1ea2;" horiz-adv-x="1270" 
d="M820 1476q7 44 40 81l24 28q38 44 38 68q0 42 -60 42q-33 0 -78 -16l-25 104q75 28 139 28q76 0 119.5 -31.5t43.5 -86.5q0 -58 -50 -120l-39 -49q-17 -22 -22 -48h-130zM456 528h523l-154 689zM380 386l-208 -386h-158l742 1365h191l309 -1365h-159l-86 386h-631z" />
    <glyph glyph-name="uni1EA3" unicode="&#x1ea3;" 
d="M670 1055q9 46 40 81l24 28q38 44 38 68q0 41 -60 41q-32 0 -78 -15l-25 104q79 27 139 27q76 0 119.5 -31.5t43.5 -86.5q0 -57 -50 -119l-39 -50q-8 -11 -14 -22.5t-8 -24.5h-130zM658 800q-126 0 -232 -92q-140 -123 -140 -323q0 -103 48 -170q75 -107 222 -107
q133 0 235 93q138 124 138 323q0 104 -48 172q-74 104 -223 104zM995 0h-146l19 119q-155 -143 -342 -143q-203 0 -315 157q-74 104 -74 243q0 170 105 317q80 114 203 178q113 61 238 61q181 0 291 -144l18 120h146z" />
    <glyph glyph-name="uni1EA4" unicode="&#x1ea4;" horiz-adv-x="1270" 
d="M456 528h523l-154 689zM380 386l-208 -386h-158l742 1365h191l309 -1365h-159l-86 386h-631zM1113 1591l56 -74l-113 -53l-161 178l-216 -178l-97 53l276 258h117l76 -102l211 238l131 -77z" />
    <glyph glyph-name="uni1EA5" unicode="&#x1ea5;" 
d="M1307 1522l-297 -258l-83 53l249 282zM658 800q-126 0 -232 -92q-140 -123 -140 -323q0 -103 48 -170q75 -107 222 -107q133 0 235 93q138 124 138 323q0 104 -48 172q-74 104 -223 104zM995 0h-146l19 119q-155 -143 -342 -143q-203 0 -315 157q-74 104 -74 243
q0 170 105 317q80 114 203 178q113 61 238 61q181 0 291 -144l18 120h146zM802 1331l195 -258l-114 -53l-160 178l-216 -178l-97 53l276 258h116z" />
    <glyph glyph-name="uni1EA6" unicode="&#x1ea6;" horiz-adv-x="1270" 
d="M1018 1834l156 77l160 -281l-100 -53zM895 1642l-216 -178l-97 53l276 258h117l194 -258l-113 -53zM456 528h523l-154 689zM380 386l-208 -386h-158l742 1365h191l309 -1365h-159l-86 386h-631z" />
    <glyph glyph-name="uni1EA7" unicode="&#x1ea7;" 
d="M778 1522l156 77l160 -282l-101 -53zM723 1198l-216 -178l-97 53l276 258h116l195 -258l-114 -53zM658 800q-126 0 -232 -92q-140 -123 -140 -323q0 -103 48 -170q75 -107 222 -107q133 0 235 93q138 124 138 323q0 104 -48 172q-74 104 -223 104zM995 0h-146l19 119
q-155 -143 -342 -143q-203 0 -315 157q-74 104 -74 243q0 170 105 317q80 114 203 178q113 61 238 61q181 0 291 -144l18 120h146z" />
    <glyph glyph-name="uni1EA8" unicode="&#x1ea8;" horiz-adv-x="1270" 
d="M1144 1577q9 44 41 81l24 28q38 44 38 68q0 42 -60 42q-34 0 -79 -16l-24 104q77 28 138 28q76 0 119.5 -31.5t43.5 -86.5q0 -59 -49 -120l-39 -50q-17 -20 -22 -47h-131zM456 528h523l-154 689zM380 386l-208 -386h-158l742 1365h191l309 -1365h-159l-86 386h-631z
M975 1775l194 -258l-113 -53l-161 178l-216 -178l-97 53l276 258h117z" />
    <glyph glyph-name="uni1EA9" unicode="&#x1ea9;" 
d="M931 1264q11 47 41 81l24 28q38 46 38 69q0 41 -60 41q-32 0 -79 -16l-24 104q75 28 138 28q76 0 119.5 -31.5t43.5 -86.5q0 -59 -49 -120l-39 -49q-18 -24 -22 -48h-131zM802 1331l195 -258l-114 -53l-160 178l-216 -178l-97 53l276 258h116zM658 800q-126 0 -232 -92
q-140 -123 -140 -323q0 -103 48 -170q75 -107 222 -107q133 0 235 93q138 124 138 323q0 104 -48 172q-74 104 -223 104zM995 0h-146l19 119q-155 -143 -342 -143q-203 0 -315 157q-74 104 -74 243q0 170 105 317q80 114 203 178q113 61 238 61q181 0 291 -144l18 120h146z
" />
    <glyph glyph-name="uni1EAA" unicode="&#x1eaa;" horiz-adv-x="1270" 
d="M1221 1935q-21 -85 -69 -129.5t-120 -44.5q-53 0 -132 39q-62 31 -84 31q-24 0 -38 -15.5t-28 -57.5l-111 27q22 82 72.5 128t117.5 46q46 0 136 -44q54 -26 82 -26q26 0 38 15t23 59zM887 1591l-216 -178l-97 53l276 258h116l195 -258l-114 -53zM456 528h523l-154 689z
M380 386l-208 -386h-158l742 1365h191l309 -1365h-159l-86 386h-631z" />
    <glyph glyph-name="uni1EAB" unicode="&#x1eab;" 
d="M723 1198l-217 -178l-97 53l277 258h116l194 -258l-113 -53zM1061 1571q-21 -85 -69 -129.5t-120 -44.5q-53 0 -132 39q-62 31 -84 31q-24 0 -37.5 -15t-27.5 -58l-112 27q22 81 72.5 127.5t117.5 46.5q46 0 136 -44q55 -26 83 -26q25 0 37.5 15t22.5 59zM658 800
q-126 0 -232 -92q-140 -123 -140 -323q0 -103 48 -170q75 -107 222 -107q133 0 235 93q138 124 138 323q0 104 -48 172q-74 104 -223 104zM995 0h-146l19 119q-155 -143 -342 -143q-203 0 -315 157q-74 104 -74 243q0 170 105 317q80 114 203 178q113 61 238 61
q181 0 291 -144l18 120h146z" />
    <glyph glyph-name="uni1EAC" unicode="&#x1eac;" horiz-adv-x="1270" 
d="M615 -123q38 0 63 -24.5t25 -61.5q0 -47 -36 -83q-38 -36 -84 -36q-38 0 -62.5 24.5t-24.5 62.5q0 47 36 82q36 36 83 36zM895 1642l-216 -178l-97 53l276 258h117l194 -258l-113 -53zM456 528h523l-154 689zM380 386l-208 -386h-158l742 1365h191l309 -1365h-159
l-86 386h-631z" />
    <glyph glyph-name="uni1EAD" unicode="&#x1ead;" 
d="M729 1232l-217 -178l-97 53l277 258h116l194 -258l-113 -53zM538 -123q38 0 63 -24.5t25 -61.5q0 -47 -36 -83q-38 -36 -84 -36q-38 0 -62.5 24.5t-24.5 62.5q0 47 36 82q36 36 83 36zM658 800q-126 0 -232 -92q-140 -123 -140 -323q0 -103 48 -170q75 -107 222 -107
q133 0 235 93q138 124 138 323q0 104 -48 172q-74 104 -223 104zM995 0h-146l19 119q-155 -143 -342 -143q-203 0 -315 157q-74 104 -74 243q0 170 105 317q80 114 203 178q113 61 238 61q181 0 291 -144l18 120h146z" />
    <glyph glyph-name="uni1EAE" unicode="&#x1eae;" horiz-adv-x="1270" 
d="M1183 1886l-297 -258l-84 53l250 282zM759 1693q-3 -24 -3 -40q0 -24 9 -45t25.5 -36.5t38.5 -24t48 -8.5q125 0 171 154l124 -10q-28 -103 -91 -169q-96 -101 -225 -101q-102 0 -165 63q-64 64 -64 148q0 11 1.5 25.5l3.5 33.5zM456 528h523l-154 689zM380 386
l-208 -386h-158l742 1365h191l309 -1365h-159l-86 386h-631z" />
    <glyph glyph-name="uni1EAF" unicode="&#x1eaf;" 
d="M1037 1522l-297 -258l-83 53l249 282zM598 1300q-3 -26 -3 -40q0 -49 34.5 -81t86.5 -32q124 0 171 153l123 -10q-29 -104 -90 -168q-96 -101 -225 -101q-102 0 -165 63q-64 63 -64 148q0 11 1.5 25.5l3.5 32.5zM658 800q-126 0 -232 -92q-140 -123 -140 -323
q0 -103 48 -170q75 -107 222 -107q133 0 235 93q138 124 138 323q0 104 -48 172q-74 104 -223 104zM995 0h-146l19 119q-155 -143 -342 -143q-203 0 -315 157q-74 104 -74 243q0 170 105 317q80 114 203 178q113 61 238 61q181 0 291 -144l18 120h146z" />
    <glyph glyph-name="uni1EB0" unicode="&#x1eb0;" horiz-adv-x="1270" 
d="M675 1886l155 77l161 -282l-101 -53zM759 1693q-3 -24 -3 -40q0 -24 9 -45t25.5 -36.5t38.5 -24t48 -8.5q125 0 171 154l124 -10q-28 -103 -91 -169q-96 -101 -225 -101q-102 0 -165 63q-64 64 -64 148q0 11 1.5 25.5l3.5 33.5zM456 528h523l-154 689zM380 386l-208 -386
h-158l742 1365h191l309 -1365h-159l-86 386h-631z" />
    <glyph glyph-name="uni1EB1" unicode="&#x1eb1;" 
d="M511 1522l156 77l160 -282l-100 -53zM598 1300q-3 -26 -3 -40q0 -49 34.5 -81t86.5 -32q124 0 171 153l123 -10q-29 -104 -90 -168q-96 -101 -225 -101q-102 0 -165 63q-64 63 -64 148q0 11 1.5 25.5l3.5 32.5zM658 800q-126 0 -232 -92q-140 -123 -140 -323
q0 -103 48 -170q75 -107 222 -107q133 0 235 93q138 124 138 323q0 104 -48 172q-74 104 -223 104zM995 0h-146l19 119q-155 -143 -342 -143q-203 0 -315 157q-74 104 -74 243q0 170 105 317q80 114 203 178q113 61 238 61q181 0 291 -144l18 120h146z" />
    <glyph glyph-name="uni1EB2" unicode="&#x1eb2;" horiz-adv-x="1270" 
d="M819 1628q9 46 40 81l24 28q38 44 38 69q0 41 -60 41q-33 0 -78 -16l-25 104q75 28 139 28q76 0 119.5 -31.5t43.5 -86.5q0 -58 -50 -120l-39 -49q-18 -24 -22 -48h-130zM759 1693q-3 -24 -3 -40q0 -24 9 -45t25.5 -36.5t38.5 -24t48 -8.5q125 0 171 154l124 -10
q-28 -103 -91 -169q-96 -101 -225 -101q-102 0 -165 63q-64 64 -64 148q0 11 1.5 25.5l3.5 33.5zM456 528h523l-154 689zM380 386l-208 -386h-158l742 1365h191l309 -1365h-159l-86 386h-631z" />
    <glyph glyph-name="uni1EB3" unicode="&#x1eb3;" 
d="M662 1264q9 46 40 81l24 28q39 45 39 69q0 41 -61 41q-31 0 -78 -16l-25 104q77 28 139 28q76 0 119.5 -31.5t43.5 -86.5q0 -59 -49 -120l-40 -49q-18 -24 -22 -48h-130zM598 1300q-3 -26 -3 -40q0 -49 34.5 -81t86.5 -32q124 0 171 153l123 -10q-29 -104 -90 -168
q-96 -101 -225 -101q-102 0 -165 63q-64 63 -64 148q0 11 1.5 25.5l3.5 32.5zM658 800q-126 0 -232 -92q-140 -123 -140 -323q0 -103 48 -170q75 -107 222 -107q133 0 235 93q138 124 138 323q0 104 -48 172q-74 104 -223 104zM995 0h-146l19 119q-155 -143 -342 -143
q-203 0 -315 157q-74 104 -74 243q0 170 105 317q80 114 203 178q113 61 238 61q181 0 291 -144l18 120h146z" />
    <glyph glyph-name="uni1EB4" unicode="&#x1eb4;" horiz-adv-x="1270" 
d="M759 1693q-3 -24 -3 -40q0 -24 9 -45t25.5 -36.5t38.5 -24t48 -8.5q125 0 171 154l124 -10q-28 -103 -91 -169q-96 -101 -225 -101q-102 0 -165 63q-64 64 -64 148q0 11 1.5 25.5l3.5 33.5zM1221 1935q-21 -85 -69 -129.5t-120 -44.5q-53 0 -132 39q-62 31 -84 31
q-24 0 -38 -15.5t-28 -57.5l-111 27q22 82 72.5 128t117.5 46q46 0 136 -44q54 -26 82 -26q26 0 38 15t23 59zM456 528h523l-154 689zM380 386l-208 -386h-158l742 1365h191l309 -1365h-159l-86 386h-631z" />
    <glyph glyph-name="uni1EB5" unicode="&#x1eb5;" 
d="M597 1300q-3 -26 -3 -40q0 -49 34.5 -81t86.5 -32q125 0 172 153l123 -10q-29 -104 -91 -168q-96 -101 -225 -101q-102 0 -165 63q-64 64 -64 148q0 20 6 58zM1061 1571q-21 -85 -69 -129.5t-120 -44.5q-53 0 -132 39q-62 31 -84 31q-24 0 -37.5 -15t-27.5 -58l-112 27
q22 81 72.5 127.5t117.5 46.5q46 0 136 -44q55 -26 83 -26q25 0 37.5 15t22.5 59zM658 800q-126 0 -232 -92q-140 -123 -140 -323q0 -103 48 -170q75 -107 222 -107q133 0 235 93q138 124 138 323q0 104 -48 172q-74 104 -223 104zM995 0h-146l19 119q-155 -143 -342 -143
q-203 0 -315 157q-74 104 -74 243q0 170 105 317q80 114 203 178q113 61 238 61q181 0 291 -144l18 120h146z" />
    <glyph glyph-name="uni1EB6" unicode="&#x1eb6;" horiz-adv-x="1270" 
d="M767 1744q-3 -24 -3 -40q0 -24 9 -45t25.5 -36.5t38.5 -24t49 -8.5q124 0 170 154l123 -10q-27 -103 -90 -169q-96 -101 -225 -101q-102 0 -165 63q-64 64 -64 149q0 11 1.5 25l3.5 33zM615 -123q38 0 63 -24.5t25 -61.5q0 -47 -36 -83q-38 -36 -84 -36q-38 0 -62.5 24.5
t-24.5 62.5q0 47 36 82q36 36 83 36zM456 528h523l-154 689zM380 386l-208 -386h-158l742 1365h191l309 -1365h-159l-86 386h-631z" />
    <glyph glyph-name="uni1EB7" unicode="&#x1eb7;" 
d="M600 1334q-3 -24 -3 -40q0 -24 9 -45t25.5 -36.5t38.5 -24t48 -8.5q125 0 171 154l123 -10q-27 -103 -90 -169q-96 -101 -225 -101q-102 0 -165 63q-64 64 -64 148q0 11 1.5 25.5l3.5 33.5zM538 -123q38 0 63 -24.5t25 -61.5q0 -47 -36 -83q-38 -36 -84 -36
q-38 0 -62.5 24.5t-24.5 62.5q0 47 36 82q36 36 83 36zM658 800q-126 0 -232 -92q-140 -123 -140 -323q0 -103 48 -170q75 -107 222 -107q133 0 235 93q138 124 138 323q0 104 -48 172q-74 104 -223 104zM995 0h-146l19 119q-155 -143 -342 -143q-203 0 -315 157
q-74 104 -74 243q0 170 105 317q80 114 203 178q113 61 238 61q181 0 291 -144l18 120h146z" />
    <glyph glyph-name="uni1EB8" unicode="&#x1eb8;" horiz-adv-x="973" 
d="M533 -123q38 0 63 -24.5t25 -61.5q0 -47 -36 -83q-38 -36 -84 -36q-38 0 -62.5 24.5t-24.5 62.5q0 47 36 82q36 36 83 36zM1061 1224h-550l-73 -461h489l-23 -142h-489l-76 -479h571l-22 -142h-724l216 1365h703z" />
    <glyph glyph-name="uni1EB9" unicode="&#x1eb9;" horiz-adv-x="1017" 
d="M503 -123q38 0 63 -24.5t25 -61.5q0 -47 -36 -83q-38 -36 -84 -36q-38 0 -62.5 24.5t-24.5 62.5q0 47 36 82q36 36 83 36zM882 517v17q0 42 -10 81q-23 91 -88 140q-60 45 -143 45q-115 0 -208 -78t-130 -205h579zM283 392q-1 -5 -1 -9.5v-7.5v-11q0 -83 55 -162
q67 -94 200 -94q185 0 304 161l121 -55q-85 -115 -199 -176.5t-245 -61.5q-209 0 -315 157q-67 100 -67 241q0 130 62 252q68 136 189 218q127 88 275 88q161 0 261 -109t100 -284q0 -61 -16 -147h-724z" />
    <glyph glyph-name="uni1EBA" unicode="&#x1eba;" horiz-adv-x="973" 
d="M710 1476q9 46 40 81l24 28q39 45 39 68q0 42 -60 42q-34 0 -79 -16l-24 104q75 28 138 28q76 0 119.5 -31.5t43.5 -86.5q0 -59 -49 -120l-40 -49q-17 -23 -21 -48h-131zM1061 1224h-550l-73 -461h489l-23 -142h-489l-76 -479h571l-22 -142h-724l216 1365h703z" />
    <glyph glyph-name="uni1EBB" unicode="&#x1ebb;" horiz-adv-x="1017" 
d="M645 1055q9 46 40 81l24 28q39 45 39 68q0 41 -61 41q-32 0 -78 -15l-25 104q79 27 139 27q76 0 119.5 -31.5t43.5 -86.5q0 -57 -50 -119l-39 -50q-8 -11 -14 -22.5t-8 -24.5h-130zM882 517v17q0 42 -10 81q-23 91 -88 140q-60 45 -143 45q-115 0 -208 -78t-130 -205h579
zM283 392q-1 -5 -1 -9.5v-7.5v-11q0 -83 55 -162q67 -94 200 -94q185 0 304 161l121 -55q-85 -115 -199 -176.5t-245 -61.5q-209 0 -315 157q-67 100 -67 241q0 130 62 252q68 136 189 218q127 88 275 88q161 0 261 -109t100 -284q0 -61 -16 -147h-724z" />
    <glyph glyph-name="uni1EBC" unicode="&#x1ebc;" horiz-adv-x="973" 
d="M1031 1694q-44 -174 -189 -174q-53 0 -132 39q-61 31 -83 31q-25 0 -39 -15.5t-27 -57.5l-112 27q23 82 72.5 128t118.5 46q45 0 135 -44q55 -26 83 -26q25 0 37.5 15.5t22.5 58.5zM1061 1224h-550l-73 -461h489l-23 -142h-489l-76 -479h571l-22 -142h-724l216 1365h703z
" />
    <glyph glyph-name="uni1EBD" unicode="&#x1ebd;" horiz-adv-x="1017" 
d="M990 1285q-20 -85 -68 -129.5t-120 -44.5q-52 0 -133 39q-61 31 -83 31q-25 0 -38.5 -15.5t-27.5 -58.5l-111 28q22 81 72.5 127.5t117.5 46.5q46 0 136 -44q54 -26 82 -26q25 0 37.5 15t22.5 58zM882 517v17q0 42 -10 81q-23 91 -88 140q-60 45 -143 45q-115 0 -208 -78
t-130 -205h579zM283 392q-1 -5 -1 -9.5v-7.5v-11q0 -83 55 -162q67 -94 200 -94q185 0 304 161l121 -55q-85 -115 -199 -176.5t-245 -61.5q-209 0 -315 157q-67 100 -67 241q0 130 62 252q68 136 189 218q127 88 275 88q161 0 261 -109t100 -284q0 -61 -16 -147h-724z" />
    <glyph glyph-name="uni1EBE" unicode="&#x1ebe;" horiz-adv-x="973" 
d="M980 1591l56 -74l-114 -53l-160 178l-217 -178l-96 53l276 258h116l77 -102l211 238l131 -77zM1061 1224h-550l-73 -461h489l-23 -142h-489l-76 -479h571l-22 -142h-724l216 1365h703z" />
    <glyph glyph-name="uni1EBF" unicode="&#x1ebf;" horiz-adv-x="1017" 
d="M781 1331l195 -258l-114 -53l-160 178l-217 -178l-97 53l277 258h116zM1286 1522l-297 -258l-84 53l250 282zM882 517v17q0 42 -10 81q-23 91 -88 140q-60 45 -143 45q-115 0 -208 -78t-130 -205h579zM283 392q-1 -5 -1 -9.5v-7.5v-11q0 -83 55 -162q67 -94 200 -94
q185 0 304 161l121 -55q-85 -115 -199 -176.5t-245 -61.5q-209 0 -315 157q-67 100 -67 241q0 130 62 252q68 136 189 218q127 88 275 88q161 0 261 -109t100 -284q0 -61 -16 -147h-724z" />
    <glyph glyph-name="uni1EC0" unicode="&#x1ec0;" horiz-adv-x="973" 
d="M762 1642l-217 -178l-96 53l276 258h116l195 -258l-114 -53zM885 1834l155 77l160 -281l-100 -53zM1061 1224h-550l-73 -461h489l-23 -142h-489l-76 -479h571l-22 -142h-724l216 1365h703z" />
    <glyph glyph-name="uni1EC1" unicode="&#x1ec1;" horiz-adv-x="1017" 
d="M702 1198l-217 -178l-97 53l277 258h116l195 -258l-114 -53zM757 1522l155 77l160 -282l-100 -53zM882 517v17q0 42 -10 81q-23 91 -88 140q-60 45 -143 45q-115 0 -208 -78t-130 -205h579zM283 392q-1 -5 -1 -9.5v-7.5v-11q0 -83 55 -162q67 -94 200 -94q185 0 304 161
l121 -55q-85 -115 -199 -176.5t-245 -61.5q-209 0 -315 157q-67 100 -67 241q0 130 62 252q68 136 189 218q127 88 275 88q161 0 261 -109t100 -284q0 -61 -16 -147h-724z" />
    <glyph glyph-name="uni1EC2" unicode="&#x1ec2;" horiz-adv-x="973" 
d="M1011 1577q9 46 40 81l24 28q39 45 39 68q0 42 -60 42q-34 0 -79 -16l-24 104q75 28 138 28q76 0 119.5 -31.5t43.5 -86.5q0 -59 -49 -120l-40 -50q-18 -22 -22 -47h-130zM841 1775l195 -258l-114 -53l-160 178l-217 -178l-96 53l276 258h116zM1061 1224h-550l-73 -461
h489l-23 -142h-489l-76 -479h571l-22 -142h-724l216 1365h703z" />
    <glyph glyph-name="uni1EC3" unicode="&#x1ec3;" horiz-adv-x="1017" 
d="M910 1264q9 44 41 81l23 28q39 45 39 69q0 41 -61 41q-31 0 -78 -16l-24 104q75 28 138 28q76 0 119.5 -31.5t43.5 -86.5q0 -59 -49 -120l-39 -49q-17 -22 -22 -48h-131zM781 1331l195 -258l-114 -53l-160 178l-217 -178l-97 53l277 258h116zM882 517v17q0 42 -10 81
q-23 91 -88 140q-60 45 -143 45q-115 0 -208 -78t-130 -205h579zM283 392q-1 -5 -1 -9.5v-7.5v-11q0 -83 55 -162q67 -94 200 -94q185 0 304 161l121 -55q-85 -115 -199 -176.5t-245 -61.5q-209 0 -315 157q-67 100 -67 241q0 130 62 252q68 136 189 218q127 88 275 88
q161 0 261 -109t100 -284q0 -61 -16 -147h-724z" />
    <glyph glyph-name="uni1EC4" unicode="&#x1ec4;" horiz-adv-x="973" 
d="M1087 1935q-20 -85 -68 -129.5t-120 -44.5q-52 0 -133 39q-62 31 -83 31q-25 0 -38.5 -15.5t-27.5 -57.5l-111 27q22 82 72.5 128t117.5 46q46 0 136 -44q54 -26 82 -26q25 0 37.5 15t22.5 59zM754 1591l-217 -178l-97 53l277 258h116l195 -258l-114 -53zM1061 1224h-550
l-73 -461h489l-23 -142h-489l-76 -479h571l-22 -142h-724l216 1365h703z" />
    <glyph glyph-name="uni1EC5" unicode="&#x1ec5;" horiz-adv-x="1017" 
d="M702 1198l-217 -178l-97 53l277 258h116l195 -258l-114 -53zM1040 1571q-20 -85 -68.5 -129.5t-120.5 -44.5q-53 0 -132 39q-62 31 -84 31q-24 0 -37.5 -15t-27.5 -58l-112 27q22 81 72 127.5t119 46.5q45 0 135 -44q55 -26 83 -26q25 0 37.5 15t22.5 59zM882 517v17
q0 42 -10 81q-23 91 -88 140q-60 45 -143 45q-115 0 -208 -78t-130 -205h579zM283 392q-1 -5 -1 -9.5v-7.5v-11q0 -83 55 -162q67 -94 200 -94q185 0 304 161l121 -55q-85 -115 -199 -176.5t-245 -61.5q-209 0 -315 157q-67 100 -67 241q0 130 62 252q68 136 189 218
q127 88 275 88q161 0 261 -109t100 -284q0 -61 -16 -147h-724z" />
    <glyph glyph-name="uni1EC6" unicode="&#x1ec6;" horiz-adv-x="973" 
d="M786 1642l-217 -178l-96 53l276 258h116l195 -258l-114 -53zM533 -123q38 0 63 -24.5t25 -61.5q0 -47 -36 -83q-38 -36 -84 -36q-38 0 -62.5 24.5t-24.5 62.5q0 47 36 82q36 36 83 36zM1061 1224h-550l-73 -461h489l-23 -142h-489l-76 -479h571l-22 -142h-724l216 1365
h703z" />
    <glyph glyph-name="uni1EC7" unicode="&#x1ec7;" horiz-adv-x="1017" 
d="M707 1232l-216 -178l-97 53l276 258h116l195 -258l-113 -53zM503 -123q38 0 63 -24.5t25 -61.5q0 -47 -36 -83q-38 -36 -84 -36q-38 0 -62.5 24.5t-24.5 62.5q0 47 36 82q36 36 83 36zM882 517v17q0 42 -10 81q-23 91 -88 140q-60 45 -143 45q-115 0 -208 -78t-130 -205
h579zM283 392q-1 -5 -1 -9.5v-7.5v-11q0 -83 55 -162q67 -94 200 -94q185 0 304 161l121 -55q-85 -115 -199 -176.5t-245 -61.5q-209 0 -315 157q-67 100 -67 241q0 130 62 252q68 136 189 218q127 88 275 88q161 0 261 -109t100 -284q0 -61 -16 -147h-724z" />
    <glyph glyph-name="uni1EC8" unicode="&#x1ec8;" horiz-adv-x="481" 
d="M420 1476q9 44 41 81l24 28q38 44 38 68q0 42 -60 42q-34 0 -79 -16l-24 104q75 28 138 28q76 0 119.5 -31.5t43.5 -86.5q0 -59 -49 -120l-39 -49q-17 -22 -22 -48h-131zM533 1365l-216 -1365h-153l216 1365h153z" />
    <glyph glyph-name="uni1EC9" unicode="&#x1ec9;" horiz-adv-x="408" 
d="M314 1055q9 46 40 81l24 28q38 44 38 68q0 41 -60 41q-32 0 -78 -15l-25 104q78 27 139 27q76 0 119.5 -31.5t43.5 -86.5q0 -57 -50 -119l-39 -50q-8 -11 -14 -22.5t-8 -24.5h-130zM421 908l-144 -908h-146l144 908h146z" />
    <glyph glyph-name="uni1ECA" unicode="&#x1eca;" horiz-adv-x="481" 
d="M220 -123q38 0 63 -24.5t25 -61.5q0 -47 -36 -83q-38 -36 -84 -36q-38 0 -62.5 24.5t-24.5 63.5q0 46 36 81q36 36 83 36zM533 1365l-217 -1365h-152l216 1365h153z" />
    <glyph glyph-name="uni1ECB" unicode="&#x1ecb;" horiz-adv-x="408" 
d="M184 -123q38 0 63 -24.5t25 -61.5q0 -47 -36 -83q-38 -36 -84 -36q-38 0 -62.5 24.5t-24.5 63.5q0 46 36 81q36 36 83 36zM412 1314q38 0 63.5 -25t25.5 -62q0 -48 -37 -85t-85 -37q-39 0 -64 25t-25 64q0 47 37 84q37 36 85 36zM421 908l-144 -908h-146l144 908h146z
" />
    <glyph glyph-name="uni1ECC" unicode="&#x1ecc;" horiz-adv-x="1565" 
d="M763 -123q38 0 63 -24.5t25 -61.5q0 -47 -36 -83q-38 -36 -84 -36q-38 0 -62.5 24.5t-24.5 62.5q0 47 36 82q36 36 83 36zM983 1246q-222 0 -404 -157q-111 -96 -174 -229q-64 -132 -64 -272q0 -186 116 -317q72 -81 177 -122q76 -30 160 -30q216 0 401 152
q115 94 180 228q65 135 65 275q0 184 -108 315q-74 88 -182 126q-84 31 -167 31zM1008 1389q180 0 322 -94q147 -95 218 -260q48 -113 48 -242q0 -246 -160 -464q-117 -159 -288 -253q-181 -100 -381 -100q-178 0 -326 100q-141 94 -208 253q-46 110 -46 249q0 248 158 457
q126 168 300 260q175 94 363 94z" />
    <glyph glyph-name="uni1ECD" unicode="&#x1ecd;" horiz-adv-x="1077" 
d="M519 -123q39 0 64 -24.5t25 -61.5q0 -47 -36 -83q-38 -36 -85 -36q-38 0 -62.5 24.5t-24.5 62.5q0 47 36 82q36 36 83 36zM660 800q-129 0 -235 -92q-140 -123 -140 -322q0 -104 48 -171q75 -107 224 -107q134 0 240 92q140 125 140 323q0 104 -50 172q-77 105 -227 105z
M693 932q204 0 318 -157q74 -103 74 -242q0 -170 -105 -318q-80 -113 -203 -179q-116 -60 -243 -60q-125 0 -222 60q-175 109 -175 342q0 173 104 316q87 117 204 178q115 60 248 60z" />
    <glyph glyph-name="uni1ECE" unicode="&#x1ece;" horiz-adv-x="1565" 
d="M966 1476q9 44 41 81l24 28q38 44 38 68q0 42 -60 42q-32 0 -79 -16l-24 104q75 28 138 28q76 0 119.5 -31.5t43.5 -86.5q0 -59 -49 -120l-39 -49q-17 -22 -22 -48h-131zM983 1246q-222 0 -404 -157q-111 -96 -174 -229q-64 -132 -64 -272q0 -186 116 -317
q72 -81 177 -122q76 -30 160 -30q216 0 401 152q115 94 180 228q65 135 65 275q0 184 -108 315q-74 88 -182 126q-84 31 -167 31zM1008 1389q180 0 322 -94q147 -95 218 -260q48 -113 48 -242q0 -246 -160 -464q-117 -159 -288 -253q-181 -100 -381 -100q-178 0 -326 100
q-141 94 -208 253q-46 110 -46 249q0 248 158 457q126 168 300 260q175 94 363 94z" />
    <glyph glyph-name="uni1ECF" unicode="&#x1ecf;" horiz-adv-x="1077" 
d="M656 1055q9 44 41 81l24 28q38 44 38 68q0 41 -61 41q-32 0 -78 -15l-24 104q78 27 138 27q76 0 119.5 -31.5t43.5 -86.5q0 -58 -49 -119l-39 -50q-18 -22 -22 -47h-131zM660 800q-129 0 -235 -92q-140 -123 -140 -322q0 -104 48 -171q75 -107 224 -107q134 0 240 92
q140 125 140 323q0 104 -50 172q-77 105 -227 105zM693 932q204 0 318 -157q74 -103 74 -242q0 -170 -105 -318q-80 -113 -203 -179q-116 -60 -243 -60q-125 0 -222 60q-175 109 -175 342q0 173 104 316q87 117 204 178q115 60 248 60z" />
    <glyph glyph-name="uni1ED0" unicode="&#x1ed0;" horiz-adv-x="1565" 
d="M1260 1591l56 -74l-113 -53l-161 178l-216 -178l-97 53l276 258h116l77 -102l211 238l131 -77zM983 1246q-222 0 -404 -157q-111 -96 -174 -229q-64 -132 -64 -272q0 -186 116 -317q72 -81 177 -122q76 -30 160 -30q216 0 401 152q115 94 180 228q65 135 65 275
q0 184 -108 315q-74 88 -182 126q-84 31 -167 31zM1008 1389q180 0 322 -94q147 -95 218 -260q48 -113 48 -242q0 -246 -160 -464q-117 -159 -288 -253q-181 -100 -381 -100q-178 0 -326 100q-141 94 -208 253q-46 110 -46 249q0 248 158 457q126 168 300 260q175 94 363 94
z" />
    <glyph glyph-name="uni1ED1" unicode="&#x1ed1;" horiz-adv-x="1077" 
d="M1312 1522l-297 -258l-83 53l249 282zM808 1331l194 -258l-113 -53l-161 178l-216 -178l-97 53l277 258h116zM660 800q-129 0 -235 -92q-140 -123 -140 -322q0 -104 48 -171q75 -107 224 -107q134 0 240 92q140 125 140 323q0 104 -50 172q-77 105 -227 105zM693 932
q204 0 318 -157q74 -103 74 -242q0 -170 -105 -318q-80 -113 -203 -179q-116 -60 -243 -60q-125 0 -222 60q-175 109 -175 342q0 173 104 316q87 117 204 178q115 60 248 60z" />
    <glyph glyph-name="uni1ED2" unicode="&#x1ed2;" horiz-adv-x="1565" 
d="M1165 1834l155 77l161 -281l-101 -53zM1042 1642l-216 -178l-97 53l276 258h116l195 -258l-113 -53zM983 1246q-222 0 -404 -157q-111 -96 -174 -229q-64 -132 -64 -272q0 -186 116 -317q72 -81 177 -122q76 -30 160 -30q216 0 401 152q115 94 180 228q65 135 65 275
q0 184 -108 315q-74 88 -182 126q-84 31 -167 31zM1008 1389q180 0 322 -94q147 -95 218 -260q48 -113 48 -242q0 -246 -160 -464q-117 -159 -288 -253q-181 -100 -381 -100q-178 0 -326 100q-141 94 -208 253q-46 110 -46 249q0 248 158 457q126 168 300 260q175 94 363 94
z" />
    <glyph glyph-name="uni1ED3" unicode="&#x1ed3;" horiz-adv-x="1077" 
d="M783 1522l156 77l160 -282l-100 -53zM728 1198l-216 -178l-97 53l277 258h116l194 -258l-113 -53zM660 800q-129 0 -235 -92q-140 -123 -140 -322q0 -104 48 -171q75 -107 224 -107q134 0 240 92q140 125 140 323q0 104 -50 172q-77 105 -227 105zM693 932
q204 0 318 -157q74 -103 74 -242q0 -170 -105 -318q-80 -113 -203 -179q-116 -60 -243 -60q-125 0 -222 60q-175 109 -175 342q0 173 104 316q87 117 204 178q115 60 248 60z" />
    <glyph glyph-name="uni1ED4" unicode="&#x1ed4;" horiz-adv-x="1565" 
d="M1291 1577q9 44 41 81l24 28q38 44 38 68q0 42 -60 42q-34 0 -79 -16l-24 104q77 28 138 28q76 0 119.5 -31.5t43.5 -86.5q0 -59 -49 -120l-39 -50q-17 -20 -22 -47h-131zM1121 1775l195 -258l-113 -53l-161 178l-216 -178l-97 53l276 258h116zM983 1246
q-222 0 -404 -157q-111 -96 -174 -229q-64 -132 -64 -272q0 -186 116 -317q72 -81 177 -122q76 -30 160 -30q216 0 401 152q115 94 180 228q65 135 65 275q0 184 -108 315q-74 88 -182 126q-84 31 -167 31zM1008 1389q180 0 322 -94q147 -95 218 -260q48 -113 48 -242
q0 -246 -160 -464q-117 -159 -288 -253q-181 -100 -381 -100q-178 0 -326 100q-141 94 -208 253q-46 110 -46 249q0 248 158 457q126 168 300 260q175 94 363 94z" />
    <glyph glyph-name="uni1ED5" unicode="&#x1ed5;" horiz-adv-x="1077" 
d="M937 1264q9 46 40 81l24 28q39 45 39 69q0 41 -61 41q-31 0 -78 -16l-25 104q77 28 139 28q76 0 119.5 -31.5t43.5 -86.5q0 -59 -49 -120l-40 -49q-18 -24 -22 -48h-130zM808 1331l194 -258l-113 -53l-161 178l-216 -178l-97 53l277 258h116zM660 800q-129 0 -235 -92
q-140 -123 -140 -322q0 -104 48 -171q75 -107 224 -107q134 0 240 92q140 125 140 323q0 104 -50 172q-77 105 -227 105zM693 932q204 0 318 -157q74 -103 74 -242q0 -170 -105 -318q-80 -113 -203 -179q-116 -60 -243 -60q-125 0 -222 60q-175 109 -175 342q0 173 104 316
q87 117 204 178q115 60 248 60z" />
    <glyph glyph-name="uni1ED6" unicode="&#x1ed6;" horiz-adv-x="1565" 
d="M1367 1935q-20 -85 -68 -129.5t-120 -44.5q-53 0 -132 39q-62 31 -84 31q-24 0 -38 -15.5t-28 -57.5l-111 27q22 82 72.5 128t117.5 46q46 0 136 -44q54 -26 82 -26q26 0 38 15t23 59zM1034 1591l-216 -178l-97 53l276 258h116l195 -258l-114 -53zM983 1246
q-222 0 -404 -157q-111 -96 -174 -229q-64 -132 -64 -272q0 -186 116 -317q72 -81 177 -122q76 -30 160 -30q216 0 401 152q115 94 180 228q65 135 65 275q0 184 -108 315q-74 88 -182 126q-84 31 -167 31zM1008 1389q180 0 322 -94q147 -95 218 -260q48 -113 48 -242
q0 -246 -160 -464q-117 -159 -288 -253q-181 -100 -381 -100q-178 0 -326 100q-141 94 -208 253q-46 110 -46 249q0 248 158 457q126 168 300 260q175 94 363 94z" />
    <glyph glyph-name="uni1ED7" unicode="&#x1ed7;" horiz-adv-x="1077" 
d="M728 1198l-216 -178l-97 53l277 258h116l194 -258l-113 -53zM1066 1571q-20 -85 -68 -129.5t-120 -44.5q-53 0 -132 39q-62 31 -84 31q-25 0 -38.5 -15t-27.5 -58l-111 27q22 81 72.5 127.5t117.5 46.5q46 0 136 -44q54 -26 82 -26q25 0 37.5 15t22.5 59zM660 800
q-129 0 -235 -92q-140 -123 -140 -322q0 -104 48 -171q75 -107 224 -107q134 0 240 92q140 125 140 323q0 104 -50 172q-77 105 -227 105zM693 932q204 0 318 -157q74 -103 74 -242q0 -170 -105 -318q-80 -113 -203 -179q-116 -60 -243 -60q-125 0 -222 60
q-175 109 -175 342q0 173 104 316q87 117 204 178q115 60 248 60z" />
    <glyph glyph-name="uni1ED8" unicode="&#x1ed8;" horiz-adv-x="1565" 
d="M762 -123q38 0 63 -24.5t25 -61.5q0 -47 -36 -83q-38 -36 -84 -36q-38 0 -62.5 24.5t-24.5 62.5q0 47 36 82q36 36 83 36zM1042 1642l-216 -178l-97 53l276 258h116l195 -258l-113 -53zM983 1246q-222 0 -404 -157q-111 -96 -174 -229q-64 -132 -64 -272q0 -186 116 -317
q72 -81 177 -122q76 -30 160 -30q216 0 401 152q115 94 180 228q65 135 65 275q0 184 -108 315q-74 88 -182 126q-84 31 -167 31zM1008 1389q180 0 322 -94q147 -95 218 -260q48 -113 48 -242q0 -246 -160 -464q-117 -159 -288 -253q-181 -100 -381 -100q-178 0 -326 100
q-141 94 -208 253q-46 110 -46 249q0 248 158 457q126 168 300 260q175 94 363 94z" />
    <glyph glyph-name="uni1ED9" unicode="&#x1ed9;" horiz-adv-x="1077" 
d="M734 1232l-217 -178l-97 53l277 258h116l195 -258l-114 -53zM519 -123q39 0 64 -24.5t25 -61.5q0 -47 -36 -83q-38 -36 -85 -36q-38 0 -62.5 24.5t-24.5 62.5q0 47 36 82q36 36 83 36zM660 800q-129 0 -235 -92q-140 -123 -140 -322q0 -104 48 -171q75 -107 224 -107
q134 0 240 92q140 125 140 323q0 104 -50 172q-77 105 -227 105zM693 932q204 0 318 -157q74 -103 74 -242q0 -170 -105 -318q-80 -113 -203 -179q-116 -60 -243 -60q-125 0 -222 60q-175 109 -175 342q0 173 104 316q87 117 204 178q115 60 248 60z" />
    <glyph glyph-name="uni1EDA" unicode="&#x1eda;" horiz-adv-x="1565" 
d="M1311 1722l-297 -258l-83 53l249 282zM983 1246q-222 0 -404 -157q-111 -96 -174 -229q-64 -132 -64 -272q0 -186 116 -317q72 -81 177 -122q76 -30 160 -30q216 0 401 152q115 94 180 228q65 135 65 275q0 184 -108 315q-74 88 -182 126q-84 31 -167 31zM1470 1168
q130 60 130 170q0 72 -64 133l110 51q84 -68 84 -173q0 -172 -197 -282q63 -132 63 -274q0 -246 -160 -464q-117 -159 -288 -253q-181 -100 -378 -100q-181 0 -329 100q-141 96 -208 253q-48 112 -48 242q0 246 160 464q121 164 300 260q175 94 365 94q138 0 258 -58
q122 -59 202 -163z" />
    <glyph glyph-name="uni1EDB" unicode="&#x1edb;" horiz-adv-x="1146" 
d="M974 1312l-297 -258l-84 53l249 282zM659 800q-128 0 -234 -92q-140 -123 -140 -322q0 -104 48 -171q75 -107 224 -107q133 0 239 92q140 125 140 323q0 104 -50 172q-77 105 -227 105zM1036 735q84 55 84 147q0 71 -64 132l111 51q83 -68 83 -173q0 -160 -174 -269
q9 -41 9 -86q0 -173 -106 -322q-78 -114 -203 -179q-116 -60 -243 -60q-211 0 -323 156q-73 101 -73 244q0 169 104 318q80 113 204 178q115 60 244 60q115 0 204 -50.5t143 -146.5z" />
    <glyph glyph-name="uni1EDC" unicode="&#x1edc;" horiz-adv-x="1565" 
d="M799 1722l155 77l160 -282l-100 -53zM983 1246q-222 0 -404 -157q-111 -96 -174 -229q-64 -132 -64 -272q0 -186 116 -317q72 -81 177 -122q76 -30 160 -30q216 0 401 152q115 94 180 228q65 135 65 275q0 184 -108 315q-74 88 -182 126q-84 31 -167 31zM1470 1168
q130 60 130 170q0 72 -64 133l110 51q84 -68 84 -173q0 -172 -197 -282q63 -132 63 -274q0 -246 -160 -464q-117 -159 -288 -253q-181 -100 -378 -100q-181 0 -329 100q-141 96 -208 253q-48 112 -48 242q0 246 160 464q121 164 300 260q175 94 365 94q138 0 258 -58
q122 -59 202 -163z" />
    <glyph glyph-name="uni1EDD" unicode="&#x1edd;" horiz-adv-x="1146" 
d="M490 1312l156 77l160 -282l-100 -53zM659 800q-128 0 -234 -92q-140 -123 -140 -322q0 -104 48 -171q75 -107 224 -107q133 0 239 92q140 125 140 323q0 104 -50 172q-77 105 -227 105zM1036 735q84 55 84 147q0 71 -64 132l111 51q83 -68 83 -173q0 -160 -174 -269
q9 -41 9 -86q0 -173 -106 -322q-78 -114 -203 -179q-116 -60 -243 -60q-211 0 -323 156q-73 101 -73 244q0 169 104 318q80 113 204 178q115 60 244 60q115 0 204 -50.5t143 -146.5z" />
    <glyph glyph-name="uni1EDE" unicode="&#x1ede;" horiz-adv-x="1565" 
d="M985 1476q9 46 40 81l25 28q38 46 38 68q0 42 -61 42q-31 0 -78 -16l-24 104q75 28 138 28q76 0 119.5 -31.5t43.5 -86.5q0 -59 -49 -120l-40 -49q-17 -23 -21 -48h-131zM983 1246q-222 0 -404 -157q-111 -96 -174 -229q-64 -132 -64 -272q0 -186 116 -317
q72 -81 177 -122q76 -30 160 -30q216 0 401 152q115 94 180 228q65 135 65 275q0 184 -108 315q-74 88 -182 126q-84 31 -167 31zM1470 1168q130 60 130 170q0 72 -64 133l110 51q84 -68 84 -173q0 -172 -197 -282q63 -132 63 -274q0 -246 -160 -464q-117 -159 -288 -253
q-181 -100 -378 -100q-181 0 -329 100q-141 96 -208 253q-48 112 -48 242q0 246 160 464q121 164 300 260q175 94 365 94q138 0 258 -58q122 -59 202 -163z" />
    <glyph glyph-name="uni1EDF" unicode="&#x1edf;" horiz-adv-x="1146" 
d="M672 1055q9 46 40 81l24 28q38 44 38 68q0 41 -60 41q-32 0 -78 -15l-25 104q78 27 139 27q75 0 119 -31.5t44 -86.5q0 -57 -50 -119l-39 -50q-18 -22 -22 -47h-130zM659 800q-128 0 -234 -92q-140 -123 -140 -322q0 -104 48 -171q75 -107 224 -107q133 0 239 92
q140 125 140 323q0 104 -50 172q-77 105 -227 105zM1036 735q84 55 84 147q0 71 -64 132l111 51q83 -68 83 -173q0 -160 -174 -269q9 -41 9 -86q0 -173 -106 -322q-78 -114 -203 -179q-116 -60 -243 -60q-211 0 -323 156q-73 101 -73 244q0 169 104 318q80 113 204 178
q115 60 244 60q115 0 204 -50.5t143 -146.5z" />
    <glyph glyph-name="uni1EE0" unicode="&#x1ee0;" horiz-adv-x="1565" 
d="M1329 1694q-44 -174 -188 -174q-54 0 -133 39q-61 31 -83 31q-24 0 -38 -15.5t-28 -57.5l-111 27q22 82 72.5 128t117.5 46q46 0 136 -44q54 -26 82 -26q25 0 37.5 15t22.5 59zM983 1246q-222 0 -404 -157q-111 -96 -174 -229q-64 -132 -64 -272q0 -186 116 -317
q72 -81 177 -122q76 -30 160 -30q216 0 401 152q115 94 180 228q65 135 65 275q0 184 -108 315q-74 88 -182 126q-84 31 -167 31zM1470 1168q130 60 130 170q0 72 -64 133l110 51q84 -68 84 -173q0 -172 -197 -282q63 -132 63 -274q0 -246 -160 -464q-117 -159 -288 -253
q-181 -100 -378 -100q-181 0 -329 100q-141 96 -208 253q-48 112 -48 242q0 246 160 464q121 164 300 260q175 94 365 94q138 0 258 -58q122 -59 202 -163z" />
    <glyph glyph-name="uni1EE1" unicode="&#x1ee1;" horiz-adv-x="1146" 
d="M1021 1285q-20 -85 -68 -129.5t-120 -44.5q-54 0 -133 39q-61 31 -83 31q-25 0 -39 -15.5t-27 -58.5l-111 28q21 81 71 127.5t119 46.5q45 0 135 -44q55 -26 83 -26q25 0 37.5 15t22.5 58zM659 800q-128 0 -234 -92q-140 -123 -140 -322q0 -104 48 -171q75 -107 224 -107
q133 0 239 92q140 125 140 323q0 104 -50 172q-77 105 -227 105zM1036 735q84 55 84 147q0 71 -64 132l111 51q83 -68 83 -173q0 -160 -174 -269q9 -41 9 -86q0 -173 -106 -322q-78 -114 -203 -179q-116 -60 -243 -60q-211 0 -323 156q-73 101 -73 244q0 169 104 318
q80 113 204 178q115 60 244 60q115 0 204 -50.5t143 -146.5z" />
    <glyph glyph-name="uni1EE2" unicode="&#x1ee2;" horiz-adv-x="1565" 
d="M763 -123q38 0 63 -24.5t25 -61.5q0 -47 -36 -83q-38 -36 -84 -36q-38 0 -62.5 24.5t-24.5 62.5q0 47 36 82q36 36 83 36zM983 1246q-222 0 -404 -157q-111 -96 -174 -229q-64 -132 -64 -272q0 -186 116 -317q72 -81 177 -122q76 -30 160 -30q216 0 401 152
q115 94 180 228q65 135 65 275q0 184 -108 315q-74 88 -182 126q-84 31 -167 31zM1470 1168q130 60 130 170q0 72 -64 133l110 51q84 -68 84 -173q0 -172 -197 -282q63 -132 63 -274q0 -246 -160 -464q-117 -159 -288 -253q-181 -100 -378 -100q-181 0 -329 100
q-141 96 -208 253q-48 112 -48 242q0 246 160 464q121 164 300 260q175 94 365 94q138 0 258 -58q122 -59 202 -163z" />
    <glyph glyph-name="uni1EE3" unicode="&#x1ee3;" horiz-adv-x="1146" 
d="M519 -123q39 0 64 -24.5t25 -61.5q0 -47 -36 -83q-38 -36 -85 -36q-38 0 -62.5 24.5t-24.5 62.5q0 47 36 82q36 36 83 36zM659 800q-128 0 -234 -92q-140 -123 -140 -322q0 -104 48 -171q75 -107 224 -107q133 0 239 92q140 125 140 323q0 104 -50 172q-77 105 -227 105z
M1036 735q84 55 84 147q0 71 -64 132l111 51q83 -68 83 -173q0 -160 -174 -269q9 -41 9 -86q0 -173 -106 -322q-78 -114 -203 -179q-116 -60 -243 -60q-211 0 -323 156q-73 101 -73 244q0 169 104 318q80 113 204 178q115 60 244 60q115 0 204 -50.5t143 -146.5z" />
    <glyph glyph-name="uni1EE4" unicode="&#x1ee4;" horiz-adv-x="1301" 
d="M631 -123q38 0 63 -24.5t25 -61.5q0 -47 -36 -83q-38 -36 -84 -36q-38 0 -62.5 24.5t-24.5 62.5q0 47 36 82q36 36 83 36zM533 1365l-134 -846q-8 -50 -12 -87t-4 -63q0 -109 74 -175q85 -76 210 -76q130 0 239 76q72 49 105 117q32 65 55 208l134 846h153l-140 -887
q-9 -55 -21.5 -100t-28.5 -82q-32 -74 -90 -135q-85 -91 -202 -140q-110 -46 -225 -46q-191 0 -315 119q-103 100 -103 251q0 32 3 65t8 68l141 887h153z" />
    <glyph glyph-name="uni1EE5" unicode="&#x1ee5;" horiz-adv-x="1043" 
d="M479 -123q38 0 63 -24.5t25 -61.5q0 -47 -36 -83q-38 -36 -84 -36q-38 0 -62.5 24.5t-24.5 62.5q0 47 36 82q36 36 83 36zM784 102q-120 -126 -293 -126q-120 0 -202 63q-106 82 -106 234q0 68 12 143l78 492h146l-75 -475q-12 -75 -12 -122q0 -94 50.5 -144.5
t144.5 -50.5q132 0 216 86q69 70 97 252l72 454h146l-144 -908h-146z" />
    <glyph glyph-name="uni1EE6" unicode="&#x1ee6;" horiz-adv-x="1301" 
d="M834 1476q9 44 41 81l24 28q38 44 38 68q0 42 -60 42q-32 0 -79 -16l-24 104q75 28 138 28q76 0 119.5 -31.5t43.5 -86.5q0 -59 -49 -120l-39 -49q-17 -22 -22 -48h-131zM533 1365l-134 -846q-8 -50 -12 -87t-4 -63q0 -109 74 -175q85 -76 210 -76q130 0 239 76
q72 49 105 117q32 65 55 208l134 846h153l-140 -887q-9 -55 -21.5 -100t-28.5 -82q-32 -74 -90 -135q-85 -91 -202 -140q-110 -46 -225 -46q-191 0 -315 119q-103 100 -103 251q0 32 3 65t8 68l141 887h153z" />
    <glyph glyph-name="uni1EE7" unicode="&#x1ee7;" horiz-adv-x="1043" 
d="M639 1055q9 44 41 81l23 28q39 43 39 68q0 41 -61 41q-32 0 -78 -15l-24 104q78 27 138 27q76 0 119.5 -31.5t43.5 -86.5q0 -58 -49 -119l-39 -50q-18 -22 -22 -47h-131zM784 102q-120 -126 -293 -126q-120 0 -202 63q-106 82 -106 234q0 68 12 143l78 492h146l-75 -475
q-12 -75 -12 -122q0 -94 50.5 -144.5t144.5 -50.5q132 0 216 86q69 70 97 252l72 454h146l-144 -908h-146z" />
    <glyph glyph-name="uni1EE8" unicode="&#x1ee8;" horiz-adv-x="1361" 
d="M1179 1722l-297 -258l-84 53l250 282zM1323 1177q111 57 111 161q0 72 -64 133l110 51q84 -69 84 -173q0 -49 -18 -95t-52 -86t-83 -73.5t-110 -57.5l-88 -559q-9 -54 -21 -99t-29 -83.5t-39 -71.5t-51 -63q-83 -90 -203 -140q-110 -46 -224 -46q-191 0 -315 119
q-103 100 -103 251q0 32 3 65t8 68l141 887h153l-134 -846q-8 -50 -12 -87t-4 -63q0 -109 74 -174q86 -77 210 -77q129 0 239 77q73 50 105 116t55 208l134 846h153z" />
    <glyph glyph-name="uni1EE9" unicode="&#x1ee9;" horiz-adv-x="1165" 
d="M976 1312l-297 -258l-84 53l250 282zM1028 720q111 57 111 162q0 71 -64 132l110 51q84 -68 84 -173q0 -49 -18 -95t-52 -86t-83 -73.5t-110 -57.5l-92 -580h-146l16 102q-120 -126 -293 -126q-120 0 -202 63q-106 82 -106 234q0 68 12 143l78 492h146l-75 -475
q-12 -75 -12 -122q0 -94 50.5 -144.5t144.5 -50.5q132 0 216 86q69 70 97 252l72 454h146z" />
    <glyph glyph-name="uni1EEA" unicode="&#x1eea;" horiz-adv-x="1361" 
d="M666 1722l156 77l160 -282l-100 -53zM1323 1177q111 57 111 161q0 72 -64 133l110 51q84 -69 84 -173q0 -49 -18 -95t-52 -86t-83 -73.5t-110 -57.5l-88 -559q-9 -54 -21 -99t-29 -83.5t-39 -71.5t-51 -63q-83 -90 -203 -140q-110 -46 -224 -46q-191 0 -315 119
q-103 100 -103 251q0 32 3 65t8 68l141 887h153l-134 -846q-8 -50 -12 -87t-4 -63q0 -109 74 -174q86 -77 210 -77q129 0 239 77q73 50 105 116t55 208l134 846h153z" />
    <glyph glyph-name="uni1EEB" unicode="&#x1eeb;" horiz-adv-x="1165" 
d="M463 1312l156 77l160 -282l-100 -53zM1028 720q111 57 111 162q0 71 -64 132l110 51q84 -68 84 -173q0 -49 -18 -95t-52 -86t-83 -73.5t-110 -57.5l-92 -580h-146l16 102q-120 -126 -293 -126q-120 0 -202 63q-106 82 -106 234q0 68 12 143l78 492h146l-75 -475
q-12 -75 -12 -122q0 -94 50.5 -144.5t144.5 -50.5q132 0 216 86q69 70 97 252l72 454h146z" />
    <glyph glyph-name="uni1EEC" unicode="&#x1eec;" horiz-adv-x="1361" 
d="M850 1476q9 46 40 81l24 28q38 44 38 68q0 42 -60 42q-33 0 -78 -16l-25 104q77 28 139 28q76 0 119.5 -31.5t43.5 -86.5q0 -58 -50 -120l-39 -49q-17 -22 -22 -48h-130zM1323 1177q111 57 111 161q0 72 -64 133l110 51q84 -69 84 -173q0 -49 -18 -95t-52 -86t-83 -73.5
t-110 -57.5l-88 -559q-9 -54 -21 -99t-29 -83.5t-39 -71.5t-51 -63q-83 -90 -203 -140q-110 -46 -224 -46q-191 0 -315 119q-103 100 -103 251q0 32 3 65t8 68l141 887h153l-134 -846q-8 -50 -12 -87t-4 -63q0 -109 74 -174q86 -77 210 -77q129 0 239 77q73 50 105 116
t55 208l134 846h153z" />
    <glyph glyph-name="uni1EED" unicode="&#x1eed;" horiz-adv-x="1165" 
d="M644 1055q9 44 41 81l24 28q38 44 38 68q0 41 -61 41q-32 0 -78 -15l-24 104q78 27 138 27q76 0 119.5 -31.5t43.5 -86.5q0 -58 -49 -119l-39 -50q-18 -22 -22 -47h-131zM1028 720q111 57 111 162q0 71 -64 132l110 51q84 -68 84 -173q0 -49 -18 -95t-52 -86t-83 -73.5
t-110 -57.5l-92 -580h-146l16 102q-120 -126 -293 -126q-120 0 -202 63q-106 82 -106 234q0 68 12 143l78 492h146l-75 -475q-12 -75 -12 -122q0 -94 50.5 -144.5t144.5 -50.5q132 0 216 86q69 70 97 252l72 454h146z" />
    <glyph glyph-name="uni1EEE" unicode="&#x1eee;" horiz-adv-x="1361" 
d="M1197 1694q-44 -174 -188 -174q-54 0 -133 39q-61 31 -83 31q-24 0 -38 -15.5t-28 -57.5l-111 27q22 82 72.5 128t117.5 46q46 0 136 -44q54 -26 82 -26q25 0 37.5 15.5t22.5 58.5zM1323 1177q111 57 111 161q0 72 -64 133l110 51q84 -69 84 -173q0 -49 -18 -95t-52 -86
t-83 -73.5t-110 -57.5l-88 -559q-9 -54 -21 -99t-29 -83.5t-39 -71.5t-51 -63q-83 -90 -203 -140q-110 -46 -224 -46q-191 0 -315 119q-103 100 -103 251q0 32 3 65t8 68l141 887h153l-134 -846q-8 -50 -12 -87t-4 -63q0 -109 74 -174q86 -77 210 -77q129 0 239 77
q73 50 105 116t55 208l134 846h153z" />
    <glyph glyph-name="uni1EEF" unicode="&#x1eef;" horiz-adv-x="1165" 
d="M1004 1285q-20 -85 -68.5 -129.5t-120.5 -44.5q-53 0 -132 39q-61 31 -83 31q-25 0 -39 -15.5t-27 -58.5l-112 28q22 81 72 127.5t119 46.5q45 0 135 -44q55 -26 83 -26q25 0 37.5 15t22.5 58zM1028 720q111 57 111 162q0 71 -64 132l110 51q84 -68 84 -173
q0 -49 -18 -95t-52 -86t-83 -73.5t-110 -57.5l-92 -580h-146l16 102q-120 -126 -293 -126q-120 0 -202 63q-106 82 -106 234q0 68 12 143l78 492h146l-75 -475q-12 -75 -12 -122q0 -94 50.5 -144.5t144.5 -50.5q132 0 216 86q69 70 97 252l72 454h146z" />
    <glyph glyph-name="uni1EF0" unicode="&#x1ef0;" horiz-adv-x="1361" 
d="M631 -123q38 0 63 -24.5t25 -61.5q0 -47 -36 -83q-38 -36 -84 -36q-38 0 -62.5 24.5t-24.5 62.5q0 47 36 82q36 36 83 36zM1323 1177q111 57 111 161q0 72 -64 133l110 51q84 -69 84 -173q0 -49 -18 -95t-52 -86t-83 -73.5t-110 -57.5l-88 -559q-9 -54 -21 -99t-29 -83.5
t-39 -71.5t-51 -63q-83 -90 -203 -140q-110 -46 -224 -46q-191 0 -315 119q-103 100 -103 251q0 32 3 65t8 68l141 887h153l-134 -846q-8 -50 -12 -87t-4 -63q0 -109 74 -174q86 -77 210 -77q129 0 239 77q73 50 105 116t55 208l134 846h153z" />
    <glyph glyph-name="uni1EF1" unicode="&#x1ef1;" horiz-adv-x="1165" 
d="M502 -123q39 0 64 -24.5t25 -61.5q0 -47 -36 -83q-38 -36 -85 -36q-38 0 -62.5 24.5t-24.5 62.5q0 47 36 82q36 36 83 36zM1028 720q111 57 111 162q0 71 -64 132l110 51q84 -68 84 -173q0 -49 -18 -95t-52 -86t-83 -73.5t-110 -57.5l-92 -580h-146l16 102
q-120 -126 -293 -126q-120 0 -202 63q-106 82 -106 234q0 68 12 143l78 492h146l-75 -475q-12 -75 -12 -122q0 -94 50.5 -144.5t144.5 -50.5q132 0 216 86q69 70 97 252l72 454h146z" />
    <glyph glyph-name="Ygrave" unicode="&#x1ef2;" horiz-adv-x="1038" 
d="M549 1722l156 77l160 -282l-101 -53zM532 570l-316 795h167l249 -652l456 652h166l-569 -795l-90 -570h-153z" />
    <glyph glyph-name="ygrave" unicode="&#x1ef3;" horiz-adv-x="904" 
d="M417 1312l156 77l160 -282l-101 -53zM376 41l-231 867h157l179 -690l408 690h157l-827 -1386h-150z" />
    <glyph glyph-name="uni1EF4" unicode="&#x1ef4;" horiz-adv-x="1038" 
d="M498 -123q39 0 64 -24.5t25 -61.5q0 -47 -36 -83q-38 -36 -85 -36q-38 0 -62.5 24.5t-24.5 62.5q0 47 36 82q36 36 83 36zM532 570l-316 795h167l249 -652l456 652h166l-569 -795l-90 -570h-153z" />
    <glyph glyph-name="uni1EF5" unicode="&#x1ef5;" horiz-adv-x="904" 
d="M643 -123q38 0 63 -24.5t25 -61.5q0 -47 -36 -83q-38 -36 -84 -36q-38 0 -62.5 24.5t-24.5 62.5q0 47 36 82q36 36 83 36zM376 41l-231 867h157l179 -690l408 690h157l-827 -1386h-150z" />
    <glyph glyph-name="uni1EF6" unicode="&#x1ef6;" horiz-adv-x="1038" 
d="M703 1476q9 46 40 81l24 28q39 45 39 68q0 42 -61 42q-31 0 -78 -16l-25 104q77 28 139 28q76 0 119.5 -31.5t43.5 -86.5q0 -59 -49 -120l-40 -49q-18 -24 -22 -48h-130zM532 570l-316 795h167l249 -652l456 652h166l-569 -795l-90 -570h-153z" />
    <glyph glyph-name="uni1EF7" unicode="&#x1ef7;" horiz-adv-x="904" 
d="M569 1055q9 46 40 81l24 28q39 45 39 68q0 41 -61 41q-32 0 -78 -15l-24 104q78 27 138 27q76 0 119.5 -31.5t43.5 -86.5q0 -58 -49 -119l-40 -50q-17 -23 -21 -47h-131zM376 41l-231 867h157l179 -690l408 690h157l-827 -1386h-150z" />
    <glyph glyph-name="uni1EF8" unicode="&#x1ef8;" horiz-adv-x="1038" 
d="M1066 1694q-44 -174 -189 -174q-53 0 -132 39q-61 31 -83 31q-25 0 -39 -15.5t-27 -57.5l-112 27q23 82 72.5 128t118.5 46q45 0 135 -44q55 -26 83 -26q25 0 37.5 15.5t22.5 58.5zM532 570l-316 795h167l249 -652l456 652h166l-569 -795l-90 -570h-153z" />
    <glyph glyph-name="uni1EF9" unicode="&#x1ef9;" horiz-adv-x="904" 
d="M934 1285q-21 -85 -69 -129.5t-120 -44.5q-53 0 -132 39q-61 31 -84 31q-24 0 -38 -15.5t-27 -58.5l-112 28q22 81 72 127.5t119 46.5q45 0 135 -44q54 -26 83 -26q25 0 37.5 15t22.5 58zM376 41l-231 867h157l179 -690l408 690h157l-827 -1386h-150z" />
    <glyph glyph-name="uni2002" unicode="&#x2002;" horiz-adv-x="1024" 
 />
    <glyph glyph-name="uni2003" unicode="&#x2003;" horiz-adv-x="2048" 
 />
    <glyph glyph-name="uni2004" unicode="&#x2004;" horiz-adv-x="683" 
 />
    <glyph glyph-name="uni2005" unicode="&#x2005;" horiz-adv-x="512" 
 />
    <glyph glyph-name="uni2006" unicode="&#x2006;" horiz-adv-x="137" 
 />
    <glyph glyph-name="uni2007" unicode="&#x2007;" horiz-adv-x="1139" 
 />
    <glyph glyph-name="uni2009" unicode="&#x2009;" horiz-adv-x="256" 
 />
    <glyph glyph-name="uni200A" unicode="&#x200a;" horiz-adv-x="68" 
 />
    <glyph glyph-name="uni2011" unicode="&#x2011;" horiz-adv-x="522" 
d="M160 537h372l-21 -131h-372z" />
    <glyph glyph-name="figuredash" unicode="&#x2012;" horiz-adv-x="1159" 
d="M324 537h681l-21 -131h-681z" />
    <glyph glyph-name="endash" unicode="&#x2013;" horiz-adv-x="1159" 
d="M324 537h681l-21 -131h-681z" />
    <glyph glyph-name="emdash" unicode="&#x2014;" horiz-adv-x="1264" 
d="M160 537h1114l-21 -131h-1114z" />
    <glyph glyph-name="afii00208" unicode="&#x2015;" horiz-adv-x="1264" 
d="M160 537h1114l-21 -131h-1114z" />
    <glyph glyph-name="underscoredbl" unicode="&#x2017;" horiz-adv-x="1024" 
d="M-54 -345h1024l-17 -106h-1024zM-21 -133h1024l-16 -106h-1024z" />
    <glyph glyph-name="quoteleft" unicode="&#x2018;" horiz-adv-x="535" 
d="M396 923l-126 49l279 462l91 -39z" />
    <glyph glyph-name="quoteright" unicode="&#x2019;" horiz-adv-x="467" 
d="M465 1434l126 -49l-278 -462l-92 39z" />
    <glyph glyph-name="quotesinglbase" unicode="&#x201a;" horiz-adv-x="467" 
d="M270 200l126 -49l-278 -462l-92 39z" />
    <glyph glyph-name="quotereversed" unicode="&#x201b;" horiz-adv-x="467" 
d="M456 1434l95 -472l-104 -39l-133 462z" />
    <glyph glyph-name="quotedblleft" unicode="&#x201c;" horiz-adv-x="836" 
d="M396 923l-126 49l279 462l91 -39zM696 923l-126 49l279 462l92 -39z" />
    <glyph glyph-name="quotedblright" unicode="&#x201d;" horiz-adv-x="835" 
d="M812 1434l126 -49l-279 -462l-91 39zM512 1434l126 -49l-279 -462l-91 39z" />
    <glyph glyph-name="quotedblbase" unicode="&#x201e;" horiz-adv-x="835" 
d="M617 200l126 -49l-279 -462l-91 39zM317 200l126 -49l-279 -462l-91 39z" />
    <glyph glyph-name="dagger" unicode="&#x2020;" 
d="M703 1361h148l-72 -453h307l-22 -142h-307l-181 -1143h-148l181 1143h-307l22 142h308z" />
    <glyph glyph-name="daggerdbl" unicode="&#x2021;" 
d="M500 77h-307l23 142h307l86 547h-307l23 142h307l72 453h147l-72 -453h307l-22 -142h-307l-87 -547h307l-22 -142h-307l-72 -454h-148z" />
    <glyph glyph-name="bullet" unicode="&#x2022;" horiz-adv-x="983" 
d="M648 969q124 0 195 -95q47 -65 47 -146q0 -100 -65 -189q-48 -66 -121 -105q-74 -38 -152 -38q-124 0 -195 95q-47 64 -47 147q0 103 64 188q108 143 274 143z" />
    <glyph glyph-name="ellipsis" unicode="&#x2026;" horiz-adv-x="1528" 
d="M792 182q38 0 62.5 -24t24.5 -61q0 -46 -35 -81q-36 -36 -83 -36q-39 0 -63 24t-24 63q0 45 36 80q37 35 82 35zM1302 182q37 0 61.5 -24t24.5 -61q0 -46 -35 -81q-36 -36 -82 -36q-39 0 -63 24.5t-24 62.5q0 45 36 80q37 35 82 35zM283 182q37 0 61.5 -24t24.5 -61
q0 -46 -35 -81q-36 -36 -82 -36q-39 0 -63 24.5t-24 62.5q0 45 36 80q37 35 82 35z" />
    <glyph glyph-name="perthousand" unicode="&#x2030;" horiz-adv-x="2590" 
d="M2285 718q-132 0 -198 -148q-56 -124 -56 -282q0 -197 158 -197q132 0 198 148q56 126 56 285q0 194 -158 194zM2302 823q261 0 261 -276q0 -99 -23 -205q-24 -103 -62 -174q-101 -182 -306 -182q-261 0 -261 274q0 101 23 207q22 102 62 174q101 182 306 182zM617 1274
q-132 0 -199 -148q-55 -123 -55 -283q0 -196 158 -196q132 0 198 148q56 126 56 285q0 194 -158 194zM634 1379q261 0 261 -276q0 -100 -23 -206q-24 -103 -62 -173q-101 -182 -305 -182q-262 0 -262 273q0 102 23 208q22 102 62 174q101 182 306 182zM1495 1389l77 -49
l-1007 -1365l-76 48zM1540 718q-132 0 -198 -148q-56 -126 -56 -282q0 -197 158 -197q134 0 198 148q56 126 56 285q0 194 -158 194zM1557 823q261 0 261 -276q0 -99 -23 -205q-24 -103 -62 -174q-101 -182 -306 -182q-261 0 -261 274q0 101 23 207q22 102 62 174
q101 182 306 182z" />
    <glyph glyph-name="minute" unicode="&#x2032;" horiz-adv-x="351" 
d="M328 1434l126 -49l-278 -462l-92 39z" />
    <glyph glyph-name="second" unicode="&#x2033;" horiz-adv-x="651" 
d="M628 1434l126 -49l-279 -462l-91 39zM328 1434l126 -49l-279 -462l-91 39z" />
    <glyph glyph-name="guilsinglleft" unicode="&#x2039;" horiz-adv-x="579" 
d="M304 455l196 -301l-107 -75l-246 375l366 384l83 -75z" />
    <glyph glyph-name="guilsinglright" unicode="&#x203a;" horiz-adv-x="579" 
d="M419 455l-194 308l106 75l245 -384l-365 -375l-83 75z" />
    <glyph glyph-name="uni203E" unicode="&#x203e;" horiz-adv-x="1024" 
d="M269 1703h1024l-21 -135h-1024z" />
    <glyph glyph-name="slash.aalt" unicode="&#x2044;" horiz-adv-x="369" 
d="M757 1389l77 -49l-1006 -1365l-77 48z" />
    <glyph glyph-name="zerosuperior" unicode="&#x2070;" horiz-adv-x="792" 
d="M640 1550q-132 0 -199 -148q-55 -122 -55 -283q0 -196 157 -196q133 0 199 148q56 126 56 285q0 194 -158 194zM657 1655q261 0 261 -276q0 -100 -23 -206q-24 -103 -62 -173q-101 -182 -305 -182q-262 0 -262 273q0 102 23 208q22 102 62 174q101 182 306 182z" />
    <glyph glyph-name="foursuperior" unicode="&#x2074;" horiz-adv-x="792" 
d="M803 1602l-397 -492h234l33 208h115l-32 -208h100l-16 -104h-101l-28 -175h-115l28 175h-365l17 105l442 548z" />
    <glyph glyph-name="fivesuperior" unicode="&#x2075;" horiz-adv-x="792" 
d="M513 1363q23 5 42.5 8t36.5 3q107 0 178 -65q69 -65 69 -167q0 -95 -62 -180q-51 -67 -124 -105.5t-154 -38.5q-67 0 -124.5 26.5t-89.5 72.5q-5 7 -12.5 21l-18.5 35l104 64q2 -5 3 -8t2 -5q33 -101 149 -101q86 0 148 60t62 142q0 33 -11 60t-31.5 46.5t-48.5 30
t-62 10.5q-75 0 -133 -52l-86 18l148 403h383l-17 -105h-287z" />
    <glyph glyph-name="sixsuperior" unicode="&#x2076;" horiz-adv-x="792" 
d="M593 1262q-84 0 -143 -58q-61 -58 -61 -139q0 -32 11 -58t30.5 -44.5t47.5 -29t61 -10.5q82 0 144 60q61 60 61 140q0 31 -11 56.5t-31 44t-48 28.5t-61 10zM710 1659l80 -64l-207 -234q25 3 37 3q104 0 172 -63q68 -65 68 -161q0 -93 -62 -178q-49 -69 -121.5 -106.5
t-153.5 -37.5q-128 0 -198 88q-51 63 -51 149q0 117 98 227z" />
    <glyph glyph-name="sevensuperior" unicode="&#x2077;" horiz-adv-x="792" 
d="M798 1535h-410l17 105h545l-14 -86l-526 -742l-93 51z" />
    <glyph glyph-name="eightsuperior" unicode="&#x2078;" horiz-adv-x="792" 
d="M641 1553q-67 0 -113 -42q-47 -42 -47 -101q0 -46 34 -75t88 -29q67 0 114 42q47 41 47 100q0 48 -33 76.5t-90 28.5zM585 1204q-75 0 -128 -47q-53 -48 -53 -115q0 -55 37.5 -87.5t100.5 -32.5q77 0 131 48q53 47 53 114q0 57 -37.5 88.5t-103.5 31.5zM430 1263
q-58 59 -58 133q0 81 59 154q85 105 227 105q111 0 169 -67q46 -52 46 -126q0 -113 -110 -199q80 -69 80 -158q0 -92 -58 -166q-43 -57 -112.5 -89t-147.5 -32q-106 0 -171 58q-66 57 -66 150q0 140 142 237z" />
    <glyph glyph-name="ninesuperior" unicode="&#x2079;" horiz-adv-x="792" 
d="M645 1550q-83 0 -144 -60q-62 -60 -62 -139q0 -63 42 -100.5t109 -37.5q85 0 144 58q60 57 60 137q0 31 -11 57t-31 45t-47 29.5t-60 10.5zM473 812l-80 65l213 236q-14 -1 -24 -1.5t-15 -0.5q-108 0 -175 63q-69 61 -69 159q0 92 62 178q24 33 55 60t66.5 45.5
t74.5 28.5t79 10q128 0 198 -88q51 -63 51 -150q0 -118 -98 -228z" />
    <glyph glyph-name="zeroinferior" unicode="&#x2080;" horiz-adv-x="792" 
d="M466 453q-132 0 -198 -148q-56 -124 -56 -283q0 -197 158 -197q134 0 198 148q56 126 56 286q0 194 -158 194zM483 558q261 0 261 -276q0 -99 -23 -206q-24 -103 -62 -174q-101 -182 -305 -182q-262 0 -262 275q0 101 23 207q22 102 62 174q101 182 306 182z" />
    <glyph glyph-name="oneinferior" unicode="&#x2081;" horiz-adv-x="792" 
d="M444 -265h-116l107 677l-132 -67l-40 91l210 107h99z" />
    <glyph glyph-name="twoinferior" unicode="&#x2082;" horiz-adv-x="792" 
d="M94 -265l15 95l355 327q121 111 121 198q0 45 -32 71.5t-87 26.5q-33 0 -59 -7t-47 -22.5t-38.5 -40t-32.5 -59.5l-102 28q83 206 299 206q49 0 88.5 -13t67.5 -37.5t43 -58.5t15 -76q0 -136 -123 -248l-309 -285h369l-17 -105h-526z" />
    <glyph glyph-name="threeinferior" unicode="&#x2083;" horiz-adv-x="792" 
d="M365 210h47q75 0 120 38.5t45 102.5q0 101 -114 101q-49 0 -82 -18q-34 -19 -80 -69l-87 52q112 141 267 141q48 0 87 -13.5t66.5 -38t42.5 -59.5t15 -77q0 -61 -27.5 -115t-78.5 -89q69 -59 69 -152q0 -95 -59 -172q-43 -57 -112 -89t-145 -32q-78 0 -136 35.5t-81 98.5
q-8 20 -12 49l-3 29l117 29q4 -37 11 -57q27 -77 121 -77q77 0 130 48q52 48 52 118q0 111 -143 111h-47z" />
    <glyph glyph-name="fourinferior" unicode="&#x2084;" horiz-adv-x="792" 
d="M629 506l-397 -493h234l33 209h115l-33 -209h101l-16 -104h-101l-28 -174h-115l28 174h-365l17 105l442 549z" />
    <glyph glyph-name="fiveinferior" unicode="&#x2085;" horiz-adv-x="792" 
d="M339 267q47 11 79 11q107 0 178 -65q69 -65 69 -167q0 -95 -62 -181q-51 -67 -124 -105.5t-154 -38.5q-67 0 -124.5 26.5t-89.5 72.5q-5 7 -12.5 21l-18.5 35l104 64q2 -4 3 -7t2 -5q33 -102 149 -102q86 0 148 60t62 143q0 66 -42 106.5t-111 40.5q-74 0 -133 -53
l-86 19l148 402h383l-17 -105h-287z" />
    <glyph glyph-name="sixinferior" unicode="&#x2086;" horiz-adv-x="792" 
d="M419 164q-84 0 -143 -58q-61 -58 -61 -138q0 -32 11 -58t30.5 -44.5t47 -29t60.5 -10.5q83 0 145 59q61 60 61 140q0 31 -11 56.5t-31 44t-48 28.5t-61 10zM536 563l80 -65l-208 -233q13 1 22.5 1.5t15.5 0.5q104 0 172 -63q68 -65 68 -161q0 -93 -62 -178
q-49 -69 -121.5 -106.5t-153.5 -37.5q-128 0 -198 88q-51 63 -51 149q0 117 98 227z" />
    <glyph glyph-name="seveninferior" unicode="&#x2087;" horiz-adv-x="792" 
d="M624 438h-410l17 105h545l-14 -86l-526 -742l-93 51z" />
    <glyph glyph-name="eightinferior" unicode="&#x2088;" horiz-adv-x="792" 
d="M468 456q-68 0 -114 -42q-47 -42 -47 -101q0 -46 34 -75t88 -29q67 0 114 42q47 41 47 100q0 48 -33.5 76.5t-88.5 28.5zM412 107q-76 0 -129 -47q-53 -48 -53 -116q0 -54 37.5 -86.5t100.5 -32.5q75 0 130 47q54 48 54 115q0 57 -37 88.5t-103 31.5zM256 165
q-58 61 -58 135q0 80 59 153q85 105 227 105q111 0 169 -67q46 -52 46 -126q0 -113 -110 -200q80 -68 80 -158q0 -91 -58 -165q-43 -56 -112.5 -88.5t-147.5 -32.5q-105 0 -171 57q-66 58 -66 151q0 140 142 236z" />
    <glyph glyph-name="nineinferior" unicode="&#x2089;" horiz-adv-x="792" 
d="M470 453q-82 0 -143 -60q-62 -60 -62 -139q0 -63 41.5 -100.5t110.5 -37.5q84 0 143 58q60 57 60 137q0 31 -11 57t-31 45t-47.5 29.5t-60.5 10.5zM299 -285l-80 64l213 237q-14 -1 -23.5 -1.5t-15.5 -0.5q-108 0 -175 63q-69 61 -69 160q0 91 62 177q49 69 121.5 106.5
t153.5 37.5q128 0 198 -88q51 -63 51 -150q0 -118 -98 -228z" />
    <glyph glyph-name="franc" unicode="&#x20a3;" horiz-adv-x="1412" 
d="M1083 661q101 104 261 104q15 0 39 -3l-21 -131q-13 1 -22.5 1h-16.5q-95 0 -161 -45q-58 -39 -88 -103q-15 -32 -27.5 -79.5t-22.5 -111.5l-46 -293h-146l121 763h146zM1095 1224h-502l-73 -461h364l-22 -142h-365l-98 -621h-153l216 1365h656z" />
    <glyph glyph-name="lira" unicode="&#x20a4;" horiz-adv-x="1145" 
d="M552 481q-5 -131 -45 -206q-35 -60 -119 -133h677l-22 -142h-889l23 142q137 98 179 165q39 64 44 174h-170l21 130h145q-1 23 -2 41t-2 29q-2 28 -2.5 46t-1.5 27h-115l21 130h95q2 33 8 67.5t14 69.5q47 188 188 283q125 85 275 85q222 0 314 -215l-134 -78
q-66 151 -208 151q-52 0 -97.5 -15.5t-82 -44.5t-63 -71t-41.5 -95q-11 -38 -16 -72.5t-6 -64.5h445l-21 -130h-422q5 -83 9 -143h391l-21 -130h-369z" />
    <glyph glyph-name="peseta" unicode="&#x20a7;" horiz-adv-x="1234" 
d="M601 1026h442q-4 58 -25 98q-28 53 -84.5 76.5t-155.5 23.5h-145zM581 896l-32 -204h145q132 0 211 49t117 155h-441zM1174 896q-112 -343 -501 -343h-20h-127l-87 -553h-153l142 896h-115l20 130h115l54 339h280q63 0 113 -5.5t89.5 -18t70.5 -31.5t56 -46
q84 -90 84 -227v-11h120l-21 -130h-120z" />
    <glyph glyph-name="uni20AB" unicode="&#x20ab;" horiz-adv-x="1152" 
d="M61 -133h1024l-21 -135h-1024zM657 800q-126 0 -232 -92q-140 -123 -140 -323q0 -103 48 -170q75 -107 222 -107q132 0 234 93q137 125 137 324q0 103 -48 171q-72 104 -221 104zM1038 1198l27 167h146l-26 -167h122l-20 -132h-123l-169 -1066h-146l19 119
q-155 -143 -342 -143q-203 0 -315 157q-74 103 -74 243q0 171 104 317q82 114 204 178q113 61 238 61q181 0 291 -144l44 278h-246l21 132h245z" />
    <glyph glyph-name="Euro" unicode="&#x20ac;" horiz-adv-x="1630" 
d="M212 477l76 137h122q2 34 7.5 68t14.5 68h-177l76 137h150q20 41 41.5 77.5t44.5 70.5q121 168 298 260q176 94 369 94q136 0 241.5 -48t198.5 -153l-77 -139q-167 197 -390 197q-229 0 -407 -157q-90 -79 -159 -202h866l-76 -137h-844q-10 -38 -15.5 -71.5t-6.5 -64.5
h790l-76 -137h-704q4 -19 9 -35.5t11 -32.5q49 -131 163 -210q118 -80 272 -80q116 0 221 47q103 46 231 156l-32 -198q-205 -148 -437 -148q-238 0 -399 134q-160 133 -199 367h-203z" />
    <glyph glyph-name="uni20B4" unicode="&#x20b4;" horiz-adv-x="1249" 
d="M406 611q95 85 255 140l9 3h-380l21 130h643q85 72 85 168q0 87 -59 141q-60 54 -157 54q-147 0 -271 -151l-108 78q164 215 398 215q180 0 278 -111q72 -81 72 -199q0 -104 -55 -195h81l-20 -130h-193q-76 -46 -154 -75l-137 -50l-20 -7.5t-26 -10.5h507l-21 -130h-679
q-40 -58 -40 -134q0 -103 70 -167q64 -61 166 -61q214 0 318 249l141 -41q-45 -113 -111 -187q-150 -164 -366 -164q-198 0 -302 134q-71 92 -71 216q0 80 31 155h-64l21 130h138z" />
    <glyph glyph-name="uni2101" unicode="&#x2101;" horiz-adv-x="1946" 
d="M1641 1389l77 -49l-1006 -1365l-77 48zM534 884h278l-84 351zM475 778l-122 -222h-122l453 809h132l166 -684l-92 -125l-53 222h-362zM1779 625q-47 92 -131 92q-66 0 -109 -39q-48 -42 -48 -95q0 -60 95 -98l76 -30q167 -66 167 -186q0 -83 -59 -160q-45 -58 -113 -90.5
t-144 -32.5q-81 0 -139.5 39t-79.5 108q-8 24 -12 76l117 30q2 -25 5.5 -42.5t7.5 -27.5q30 -76 122 -76q70 0 123 49q54 48 54 110q0 35 -26.5 60t-90.5 50l-72 29q-147 58 -147 175q0 80 56 150q40 51 103.5 79t132.5 28q39 0 70.5 -7.5t57 -24t46.5 -43t40 -65.5z" />
    <glyph glyph-name="afii61248" unicode="&#x2105;" horiz-adv-x="2161" 
d="M1647 1389l77 -49l-1007 -1365l-76 48zM1701 716q-126 0 -231 -87q-63 -52 -99.5 -125.5t-36.5 -149.5q0 -104 69 -177q78 -84 194 -84q124 0 231 84q66 52 103 125t37 151q0 103 -64 176q-77 87 -203 87zM1721 823q184 0 292 -139q74 -95 74 -217q0 -145 -97 -272
q-71 -95 -177 -150q-113 -59 -233 -59q-110 0 -204 59q-159 102 -159 301q0 144 96 267q77 99 184 155q107 55 224 55zM995 1164q-37 43 -55 57q-66 51 -161 51q-132 0 -236 -86q-63 -54 -98.5 -127t-35.5 -149q0 -105 67 -178q77 -83 204 -83q71 0 125 25q54 23 129 86
l69 -78q-56 -47 -94 -70q-115 -70 -244 -70q-199 0 -303 140q-71 95 -71 216q0 142 96 271q74 100 183 155t228 55q131 0 225 -74q23 -18 65 -63z" />
    <glyph glyph-name="afii61352" unicode="&#x2116;" horiz-adv-x="2170" 
d="M1953 1285q-85 0 -143 -63q-60 -63 -60 -153q0 -55 27 -92q40 -55 123 -55q112 0 173 97q33 54 33 120q0 57 -28 92q-41 54 -125 54zM1977 1389q128 0 199 -93q47 -64 47 -147q0 -100 -64 -188q-49 -67 -122.5 -105t-154.5 -38q-132 0 -202 93q-47 62 -47 149
q0 102 64 187q108 142 280 142zM164 0l216 1365h144l653 -1116l177 1116h153l-217 -1365h-143l-653 1116l-177 -1116h-153zM1587 580l17 109h515l-17 -109h-515z" />
    <glyph glyph-name="uni2117" unicode="&#x2117;" horiz-adv-x="1754" 
d="M866 1344q-168 0 -320 -89q-154 -91 -242 -242q-89 -152 -89 -330q0 -177 89 -331q88 -154 242 -242q155 -89 331 -89t331 89t242 242q89 155 89 336q0 286 -219 486q-188 170 -454 170zM889 1457q199 0 375 -104q180 -106 284 -283q104 -179 104 -387q0 -207 -104 -388
q-103 -179 -284 -283t-387 -104t-387 104q-91 52 -161.5 122.5t-122.5 160.5q-104 182 -104 394q0 333 257 569q218 199 530 199zM770 707h127q180 0 180 157t-180 157h-127v-314zM770 585v-363h-132v921h247q85 0 139.5 -16.5t95.5 -54.5q88 -81 88 -211q0 -128 -88 -207
q-41 -37 -95.5 -53t-139.5 -16h-115z" />
    <glyph glyph-name="trademark" unicode="&#x2122;" horiz-adv-x="1424" 
d="M391 1302v-563h-84v563h-170v76h424v-76h-170zM638 739v639h88l237 -406l238 406h87v-639h-84v492l-205 -351h-71l-205 351v-492h-85z" />
    <glyph glyph-name="Omega" unicode="&#x2126;" horiz-adv-x="1638" 
d="M970 248q74 23 126 52q129 73 199 190q67 112 67 246q0 220 -167 369q-158 141 -376 141q-153 0 -283 -75q-129 -74 -197 -197q-62 -112 -62 -238q0 -194 134 -334q103 -107 258 -154v-248h-512v142h359v7l-25.5 12t-24.5 13q-79 45 -140.5 103.5t-107.5 131.5
q-95 152 -95 327q0 174 95 326q95 153 258 241q161 86 343 86q183 0 344 -86q164 -89 259 -241q94 -151 94 -326q0 -251 -180 -435q-95 -100 -213 -152v-7h359v-142h-512v248z" />
    <glyph glyph-name="estimated" unicode="&#x212e;" horiz-adv-x="1515" 
d="M1180 755v248q-26 66 -62 111q-129 159 -357 159q-191 0 -302 -115q-50 -51 -104 -154v-249h825zM355 663v-283q28 -77 53 -120q12 -20 27 -38.5t34 -34.5q104 -95 294 -95q322 0 450 281h117q-39 -126 -114 -214q-158 -183 -455 -183q-295 0 -458 190q-160 185 -160 508
q0 340 177 531q172 184 446 184q226 0 387 -125q173 -134 207 -401q5 -35 7.5 -85t3.5 -115h-1016z" />
    <glyph glyph-name="onethird" unicode="&#x2153;" horiz-adv-x="1707" 
d="M503 557h-116l107 677l-131 -67l-41 91l210 107h99zM1292 476h48q75 0 120 38.5t45 102.5q0 100 -114 100q-49 0 -82 -18q-17 -9 -37 -26t-43 -42l-88 52q113 140 268 140q48 0 87 -13.5t66.5 -38t42.5 -59.5t15 -77q0 -127 -107 -204q69 -59 69 -151q0 -97 -58 -173
q-43 -57 -112.5 -89t-145.5 -32q-106 0 -170 63q-46 46 -58 120l-3 29l117 30q2 -20 4.5 -34.5t6.5 -23.5q27 -77 121 -77q76 0 129 48q52 48 52 119q0 111 -142 111h-47zM1338 1389l77 -49l-1006 -1365l-77 48z" />
    <glyph glyph-name="twothirds" unicode="&#x2154;" horiz-adv-x="1707" 
d="M1292 476h48q75 0 120 37.5t45 103.5q0 100 -114 100q-48 0 -82 -17q-34 -19 -80 -69l-87 52q113 140 267 140q48 0 87 -13.5t66.5 -38t42.5 -59.5t15 -77q0 -128 -106 -204q69 -59 69 -151q0 -96 -59 -173q-43 -57 -112.5 -89t-145.5 -32q-78 0 -135.5 36t-81.5 99
q-7 19 -11 48l-3 29l117 30q4 -38 11 -58q27 -77 121 -77q77 0 130 48q52 48 52 119q0 111 -143 111h-47zM202 555l15 95l355 327q121 111 121 197q0 46 -31 72t-88 26q-68 0 -105 -27q-38 -29 -72 -101l-102 28q84 205 299 205q48 0 87.5 -13t67.5 -37.5t43.5 -58.5
t15.5 -76q0 -135 -123 -247l-310 -285h369l-16 -105h-526zM1434 1389l77 -49l-1006 -1365l-77 48z" />
    <glyph glyph-name="onefifth" unicode="&#x2155;" horiz-adv-x="1707" 
d="M503 557h-116l107 677l-131 -67l-41 91l210 107h99zM1242 532q47 11 79 11q107 0 178 -65q69 -65 69 -166q0 -97 -63 -182q-24 -33 -55.5 -60t-67.5 -45.5t-75.5 -28.5t-79.5 -10q-66 0 -123 26.5t-90 72.5q-5 8 -12.5 22l-18.5 34l104 64q2 -4 2.5 -7t1.5 -5
q34 -102 150 -102q86 0 148 60t62 143q0 66 -42 106.5t-111 40.5q-68 0 -133 -53l-86 19l148 402h383l-17 -105h-288zM1338 1389l77 -49l-1006 -1365l-77 48z" />
    <glyph glyph-name="twofifth" unicode="&#x2156;" horiz-adv-x="1707" 
d="M1242 532q23 5 42.5 8t36.5 3q107 0 178 -65q69 -65 69 -166q0 -97 -63 -182q-49 -67 -122.5 -105.5t-154.5 -38.5q-67 0 -124 26.5t-89 72.5q-11 16 -32 56l104 64q2 -4 3 -7t2 -5q33 -102 149 -102q86 0 148 60t62 143q0 66 -42 106.5t-111 40.5q-68 0 -133 -53l-86 19
l148 402h383l-17 -105h-287zM202 555l15 95l355 327q121 111 121 197q0 46 -31 72t-88 26q-68 0 -105 -27q-38 -29 -72 -101l-102 28q84 205 299 205q48 0 87.5 -13t67.5 -37.5t43.5 -58.5t15.5 -76q0 -135 -123 -247l-310 -285h369l-16 -105h-526zM1442 1389l77 -49
l-1006 -1365l-77 48z" />
    <glyph glyph-name="threefifth" unicode="&#x2157;" horiz-adv-x="1707" 
d="M483 1032h47q75 0 120 38.5t45 102.5q0 48 -30 74t-84 26q-49 0 -82 -18q-17 -9 -37 -26t-43 -42l-87 52q110 140 267 140q48 0 87 -13t66.5 -37.5t42.5 -59.5t15 -78q0 -128 -106 -204q69 -59 69 -151q0 -96 -59 -173q-21 -27 -49.5 -49.5t-62.5 -38.5t-71 -24.5
t-75 -8.5q-77 0 -135 36t-81 99q-8 19 -12 48l-3 29l117 30q4 -38 11 -58q27 -77 122 -77q77 0 129 49q52 48 52 118q0 111 -142 111h-48zM1242 532q47 11 79 11q107 0 178 -65q69 -65 69 -166q0 -97 -63 -182q-24 -33 -55.5 -60t-67.5 -45.5t-75.5 -28.5t-79.5 -10
q-66 0 -123.5 26.5t-89.5 72.5q-5 8 -13 22l-19 34l105 64q2 -4 2.5 -7t1.5 -5q34 -102 150 -102q86 0 148 60t62 143q0 66 -42 106.5t-111 40.5q-68 0 -133 -53l-87 19l149 402h382l-16 -105h-288zM1400 1389l77 -49l-1006 -1365l-77 48z" />
    <glyph glyph-name="fourfifth" unicode="&#x2158;" horiz-adv-x="1707" 
d="M1242 532q47 11 78 11q108 0 179 -65q69 -65 69 -166q0 -97 -63 -182q-24 -33 -55.5 -60t-67.5 -45.5t-75.5 -28.5t-79.5 -10q-66 0 -123.5 26.5t-89.5 72.5q-5 8 -13 22l-19 34l105 64q2 -4 2.5 -7t1.5 -5q34 -102 150 -102q86 0 148 60t62 143q0 66 -42 106.5
t-111 40.5q-68 0 -133 -53l-87 19l149 402h382l-17 -105h-287zM773 1325l-397 -492h234l33 208h115l-32 -208h100l-16 -104h-101l-28 -175h-115l28 175h-365l17 105l442 548zM1430 1389l76 -49l-1006 -1365l-77 48z" />
    <glyph glyph-name="onesixth" unicode="&#x2159;" horiz-adv-x="1707" 
d="M503 557h-116l107 677l-131 -67l-41 91l210 107h99zM1302 430q-84 0 -143 -58q-61 -58 -61 -140q0 -31 11 -57t31 -44.5t47 -29t60 -10.5q83 0 145 60q61 58 61 139q0 31 -11 57t-31 44.5t-48 28.5t-61 10zM1418 828l80 -64l-208 -234q27 3 38 3q105 0 172 -64
q68 -65 68 -161q0 -92 -62 -178q-49 -69 -121.5 -106.5t-153.5 -37.5q-128 0 -198 88q-51 63 -51 149q0 118 98 228zM1366 1389l76 -49l-1006 -1365l-77 48z" />
    <glyph glyph-name="fivesixth" unicode="&#x215a;" horiz-adv-x="1707" 
d="M1301 430q-84 0 -143 -58q-61 -58 -61 -140q0 -31 11 -57t31 -44.5t47.5 -29t60.5 -10.5q82 0 144 60q61 58 61 139q0 31 -11 57t-31 44.5t-48 28.5t-61 10zM1418 828l79 -64l-207 -234q25 3 38 3q105 0 172 -64q68 -65 68 -161q0 -92 -62 -178q-49 -69 -121.5 -106.5
t-153.5 -37.5q-128 0 -198 88q-51 63 -51 149q0 118 98 228zM475 1088q23 5 42.5 8t36.5 3q107 0 178 -65q69 -65 69 -166q0 -96 -62 -182q-51 -67 -124 -105.5t-154 -38.5q-67 0 -124.5 27t-89.5 72q-5 7 -12.5 21l-18.5 35l104 64q2 -4 3 -7t2 -5q33 -102 149 -102
q86 0 148 60t62 143q0 66 -42 106.5t-111 40.5q-75 0 -124 -44l-9 -8l-86 18l148 402h383l-17 -105h-287zM1446 1389l77 -49l-1006 -1365l-77 48z" />
    <glyph glyph-name="oneeighth" unicode="&#x215b;" horiz-adv-x="1707" 
d="M1381 721q-68 0 -114 -42q-47 -42 -47 -101q0 -46 34 -75t88 -29q67 0 114 42q47 41 47 100q0 48 -33.5 76.5t-88.5 28.5zM1324 372q-75 0 -128 -47q-53 -48 -53 -115q0 -54 37.5 -87t100.5 -33q77 0 131 48q53 47 53 114q0 57 -37.5 88.5t-103.5 31.5zM1169 431
q-58 59 -58 134q0 80 59 153q85 105 227 105q111 0 169 -67q46 -52 46 -126q0 -113 -110 -199q80 -69 80 -158q0 -92 -58 -166q-43 -56 -112.5 -88.5t-147.5 -32.5q-106 0 -171 58q-66 57 -66 150q0 141 142 237zM503 555h-116l107 678l-132 -68l-40 92l210 107h99z
M1339 1389l76 -49l-1006 -1365l-77 48z" />
    <glyph glyph-name="threeeighths" unicode="&#x215c;" horiz-adv-x="1707" 
d="M1392 1389l76 -49l-1006 -1365l-77 48zM483 1032h47q75 0 120 38.5t45 102.5q0 48 -30 74t-84 26q-49 0 -82 -18q-17 -9 -37 -26t-43 -42l-87 52q110 140 267 140q48 0 87 -13t66.5 -37.5t42.5 -59.5t15 -78q0 -128 -106 -204q69 -59 69 -151q0 -96 -59 -173
q-21 -27 -49.5 -49.5t-62.5 -38.5t-71 -24.5t-75 -8.5q-77 0 -135 36t-81 99q-8 19 -12 48l-3 29l117 30q4 -38 11 -58q27 -77 122 -77q77 0 129 49q52 48 52 118q0 111 -142 111h-48zM1362 721q-68 0 -114 -42q-47 -42 -47 -101q0 -46 34 -75t88 -29q67 0 114 42
q47 41 47 100q0 48 -33.5 76.5t-88.5 28.5zM1304 372q-75 0 -128 -47q-53 -48 -53 -115q0 -54 37.5 -87t100.5 -33q77 0 131 48q53 47 53 114q0 57 -37.5 88.5t-103.5 31.5zM1149 431q-57 60 -57 134q0 80 59 153q85 105 227 105q111 0 169 -67q46 -52 46 -126
q0 -113 -110 -199q79 -69 79 -158q0 -92 -58 -166q-43 -56 -112.5 -88.5t-147.5 -32.5q-106 0 -171 58q-66 57 -66 150q0 141 142 237z" />
    <glyph glyph-name="fiveeighths" unicode="&#x215d;" horiz-adv-x="1707" 
d="M1397 1389l77 -49l-1007 -1365l-76 48zM1304 372q-75 0 -128 -47q-53 -48 -53 -115q0 -55 37.5 -87.5t100.5 -32.5q77 0 131 48q53 47 53 114q0 57 -37.5 88.5t-103.5 31.5zM1362 721q-68 0 -114 -42q-47 -42 -47 -101q0 -46 34 -75t88 -29q67 0 114 42q47 41 47 100
q0 48 -33.5 76.5t-88.5 28.5zM1149 431q-57 60 -57 134q0 80 59 153q85 105 227 105q111 0 169 -67q46 -52 46 -126q0 -113 -110 -199q79 -69 79 -158q0 -92 -58 -166q-43 -57 -112 -89t-147 -32q-107 0 -172 58q-66 57 -66 150q0 141 142 237zM475 1088q23 5 42.5 8t36.5 3
q107 0 178 -65q69 -65 69 -166q0 -96 -62 -182q-51 -67 -124 -105.5t-154 -38.5q-67 0 -124.5 27t-89.5 72q-5 7 -12.5 21l-18.5 35l104 64q2 -4 3 -7t2 -5q33 -102 149 -102q86 0 148 60t62 143q0 66 -42 106.5t-111 40.5q-75 0 -124 -44l-9 -8l-86 18l148 402h383
l-17 -105h-287z" />
    <glyph glyph-name="seveneighths" unicode="&#x215e;" horiz-adv-x="1707" 
d="M1304 372q-75 0 -128 -47q-53 -48 -53 -115q0 -55 37.5 -87.5t100.5 -32.5q77 0 131 48q53 47 53 114q0 57 -37.5 88.5t-103.5 31.5zM1362 721q-68 0 -114 -42q-47 -42 -47 -101q0 -46 34 -75t88 -29q67 0 114 42q47 41 47 100q0 48 -33.5 76.5t-88.5 28.5zM1149 431
q-57 60 -57 134q0 80 59 153q85 105 227 105q111 0 169 -67q46 -52 46 -126q0 -113 -110 -199q79 -69 79 -158q0 -92 -58 -166q-43 -57 -112 -89t-147 -32q-107 0 -172 58q-66 57 -66 150q0 141 142 237zM766 1260h-410l17 105h545l-14 -86l-527 -742l-92 51zM1324 1389
l77 -49l-1006 -1365l-77 48z" />
    <glyph glyph-name="partialdiff" unicode="&#x2202;" horiz-adv-x="1217" 
d="M599 800q-151 0 -245 -120q-70 -89 -70 -225q0 -158 95 -255q92 -92 226 -92q158 0 251 121q69 90 69 227q0 157 -94 252q-92 92 -232 92zM853 860q-64 147 -218 249q-153 100 -353 129l19 127q319 -44 511 -215q269 -239 269 -633q0 -178 -70 -303q-65 -116 -177 -180
q-103 -58 -229 -58q-213 0 -349 156q-119 137 -119 322q0 217 154 358q130 120 312 120q140 0 250 -72z" />
    <glyph glyph-name="emptyset" unicode="&#x2205;" horiz-adv-x="1266" 
d="M754 1044q-48 19 -118 19q-181 0 -296 -138q-89 -107 -89 -242q0 -183 159 -310l3 -1zM513 320h1q67 -18 119 -18q168 0 282 123q101 109 101 257q0 95 -45 182q-45 85 -117 129zM337 -25l-100 51l123 241q-6 4 -12.5 9l-13.5 10q-197 161 -197 395q0 228 171 377
q139 121 327 121q89 0 172 -30l123 241l100 -51l-124 -244q224 -161 224 -411q0 -141 -75 -262q-32 -54 -74.5 -95t-95.5 -72q-119 -69 -263 -69q-92 0 -161 33z" />
    <glyph glyph-name="Delta" unicode="&#x2206;" horiz-adv-x="1365" 
d="M272 141h818l-411 1077zM1303 0h-1242l526 1365h191z" />
    <glyph glyph-name="product" unicode="&#x220f;" horiz-adv-x="1365" 
d="M392 1223v-1223h-153v1223h-171v142h1229v-142h-171v-1223h-153v1223h-581z" />
    <glyph glyph-name="summation" unicode="&#x2211;" horiz-adv-x="1365" 
d="M623 708l-358 521v136h861v-141h-691l359 -516l-389 -566h762v-142h-943v135z" />
    <glyph glyph-name="minus" unicode="&#x2212;" horiz-adv-x="1139" 
d="M1091 703l-21 -128h-819l20 128h820z" />
    <glyph glyph-name="fraction" unicode="&#x2215;" horiz-adv-x="369" 
d="M757 1389l77 -49l-1006 -1365l-77 48z" />
    <glyph glyph-name="uni2218" unicode="&#x2218;" horiz-adv-x="983" 
d="M488 872q-80 0 -137 -62q-48 -54 -48 -127q0 -85 62 -141q54 -48 126 -48q85 0 141 62q48 54 48 128q0 81 -62 140q-53 48 -130 48zM496 970q122 0 208 -95q74 -83 74 -192q0 -127 -95 -213q-83 -74 -192 -74q-126 0 -212 95q-74 83 -74 194q0 124 95 211q80 74 196 74z
" />
    <glyph glyph-name="radical" unicode="&#x221a;" horiz-adv-x="1292" 
d="M380 682l167 -503l506 1517h158h422v-142h-469l-525 -1554h-184l-230 682h-157v128h270z" />
    <glyph glyph-name="infinity" unicode="&#x221e;" horiz-adv-x="1427" 
d="M636 691q-62 98 -119 141t-125 43q-83 0 -137 -58q-48 -51 -48 -126q0 -92 71 -145q53 -38 116 -38q67 0 122 41q53 41 120 142zM790 692q65 -101 120 -143t124 -42q83 0 138 58q47 52 47 126q0 93 -71 146q-53 38 -116 38q-67 0 -122 -41q-53 -40 -120 -142zM717 589
q-152 -212 -337 -212q-156 0 -245 110q-67 83 -67 208q0 176 140 263q78 48 173 48q187 0 329 -211q145 211 338 211q161 0 248 -116q62 -83 62 -201q0 -147 -98 -236q-88 -77 -210 -77q-191 0 -333 213z" />
    <glyph glyph-name="integral" unicode="&#x222b;" horiz-adv-x="610" 
d="M68 -228q39 -10 62 -10q102 0 102 150v1306q0 286 220 286q39 0 90 -13v-133q-39 10 -62 10q-102 0 -102 -150v-1306q0 -286 -220 -286q-41 0 -90 13v133z" />
    <glyph glyph-name="similar" unicode="&#x223c;" horiz-adv-x="1139" 
d="M77 558q33 72 75 129q81 109 206 109q76 0 229 -71l76 -33.5t50 -19.5q36 -12 72 -12q57 0 98 30q40 31 86 109l93 -54q-56 -114 -114 -163q-81 -69 -182 -69q-44 0 -96 18q-26 9 -73.5 29l-117.5 52q-80 37 -135 37q-51 0 -92 -35t-85 -115z" />
    <glyph glyph-name="uni2243" unicode="&#x2243;" horiz-adv-x="1139" 
d="M1062 536v-126h-985v126h985zM77 704q34 74 75 130q81 108 207 108q75 0 228 -71l77.5 -34.5t48.5 -18.5q34 -12 72 -12q58 0 98 31q39 29 86 109l93 -55q-55 -112 -114 -163q-81 -69 -182 -69q-44 0 -96 18q-55 19 -191 81q-80 37 -134 37q-98 0 -178 -149z" />
    <glyph glyph-name="approxequal" unicode="&#x2248;" horiz-adv-x="1139" 
d="M77 394q34 73 75 129q81 109 207 109q78 0 228 -70l76.5 -34.5t49.5 -18.5q34 -12 72 -12q58 0 98 31q39 29 86 108l93 -55q-56 -113 -114 -162q-81 -69 -182 -69q-44 0 -96 18q-26 9 -74 29l-117 51q-80 37 -134 37q-99 0 -178 -150zM77 739q34 73 75 129
q81 108 207 108q78 0 228 -70q93 -43 127 -53q34 -12 71 -12q57 0 98 30q39 29 86 109l93 -54q-56 -114 -114 -163q-81 -69 -182 -69q-44 0 -96 18q-26 9 -74 29l-117 51q-80 37 -134 37q-97 0 -178 -149z" />
    <glyph glyph-name="notequal" unicode="&#x2260;" horiz-adv-x="1139" 
d="M732 838h330v-128h-394l-70 -141h464v-128h-528l-137 -274l-105 43l115 231h-330v128h394l70 141h-464v128h528l137 274l105 -43z" />
    <glyph glyph-name="lessequal" unicode="&#x2264;" horiz-adv-x="1139" 
d="M1013 0h-887l20 128h888zM1056 270l-824 398l21 134l951 403l-23 -147l-774 -320l673 -321z" />
    <glyph glyph-name="greaterequal" unicode="&#x2265;" horiz-adv-x="1139" 
d="M126 0l20 128h888l-21 -128h-887zM169 270l23 147l774 321l-672 320l23 147l823 -403l-21 -134z" />
    <glyph glyph-name="dotmath" unicode="&#x22c5;" horiz-adv-x="464" 
d="M356 784q37 0 61.5 -24t24.5 -61q0 -46 -35 -81q-36 -36 -83 -36q-38 0 -62 24.5t-24 62.5q0 45 36 80q37 35 82 35z" />
    <glyph glyph-name="lozenge" unicode="&#x25ca;" horiz-adv-x="1365" 
d="M1047 683l-365 517l-363 -517l363 -518zM682 -81l-543 764l543 764l544 -764z" />
    <glyph glyph-name="openbullet" unicode="&#x25e6;" horiz-adv-x="983" 
d="M488 872q-80 0 -137 -62q-48 -54 -48 -127q0 -85 62 -141q54 -48 126 -48q85 0 141 62q48 54 48 128q0 81 -62 140q-53 48 -130 48zM496 970q122 0 208 -95q74 -83 74 -192q0 -127 -95 -213q-83 -74 -192 -74q-126 0 -212 95q-74 83 -74 194q0 124 95 211q80 74 196 74z
" />
    <glyph glyph-name="ff" unicode="&#xfb00;" horiz-adv-x="985" 
d="M900 776l-123 -776h-146l123 776h-93l21 132h93l29 184q45 287 265 287q34 0 88 -14l-21 -132q-36 10 -61 10q-101 0 -125 -151l-29 -184h167l-21 -132h-167zM426 776l-123 -776h-146l123 776h-92l21 132h92l26 164q45 286 265 286q39 0 88 -13l-21 -133q-37 10 -61 10
q-101 0 -125 -150l-26 -164h167l-21 -132h-167z" />
    <glyph glyph-name="fi" unicode="&#xfb01;" horiz-adv-x="889" 
d="M893 1314q39 0 64 -24.5t25 -62.5q0 -49 -37 -85q-37 -37 -85 -37q-39 0 -64 25t-25 64q0 47 37 84q37 36 85 36zM902 908l-144 -908h-146l143 908h147zM426 776l-123 -776h-146l123 776h-92l21 132h92l29 184q45 287 265 287q34 0 88 -14l-21 -132q-36 10 -60 10
q-102 0 -126 -151l-29 -184h167l-21 -132h-167z" />
    <glyph glyph-name="fl" unicode="&#xfb02;" horiz-adv-x="889" 
d="M758 0h-146l216 1365h146zM426 776l-123 -776h-146l123 776h-92l21 132h92l29 184q45 287 265 287q34 0 88 -14l-21 -132q-36 10 -60 10q-102 0 -126 -151l-29 -184h167l-21 -132h-167z" />
    <glyph glyph-name="ffi" unicode="&#xfb03;" horiz-adv-x="1363" 
d="M426 776l-123 -776h-146l123 776h-92l21 132h92l26 164q45 286 265 286q39 0 88 -13l-21 -133q-37 10 -61 10q-101 0 -125 -150l-26 -164h167l-21 -132h-167zM1367 1314q38 0 63.5 -24.5t25.5 -62.5q0 -49 -37 -85q-37 -37 -86 -37q-39 0 -64 25t-25 64q0 46 38 84
q37 36 85 36zM1375 908l-143 -908h-147l144 908h146zM900 776l-123 -776h-146l123 776h-93l21 132h93l29 184q45 287 265 287q34 0 88 -14l-21 -132q-36 10 -61 10q-101 0 -125 -151l-29 -184h167l-21 -132h-167z" />
    <glyph glyph-name="ffl" unicode="&#xfb04;" horiz-adv-x="1363" 
d="M426 776l-123 -776h-146l123 776h-92l21 132h92l26 164q45 286 265 286q39 0 88 -13l-21 -133q-37 10 -61 10q-101 0 -125 -150l-26 -164h167l-21 -132h-167zM1448 1365l-216 -1365h-147l217 1365h146zM900 776l-123 -776h-146l123 776h-93l21 132h93l29 184
q45 287 265 287q34 0 88 -14l-21 -132q-36 10 -61 10q-101 0 -125 -151l-29 -184h167l-21 -132h-167z" />
    <glyph glyph-name="glyph155" horiz-adv-x="512" 
 />
    <glyph glyph-name="glyph172" horiz-adv-x="1171" 
 />
    <glyph glyph-name="glyph210" horiz-adv-x="512" 
 />
    <glyph glyph-name="seven.denominator" horiz-adv-x="792" 
d="M666 704h-410l17 105h545l-14 -86l-527 -743l-92 52z" />
    <glyph glyph-name="eight.denominator" horiz-adv-x="792" 
d="M510 721q-68 0 -114 -42q-47 -42 -47 -101q0 -46 34 -75t88 -29q67 0 114 42q47 41 47 100q0 48 -33.5 76.5t-88.5 28.5zM453 372q-75 0 -128 -47q-53 -48 -53 -115q0 -55 37.5 -87.5t100.5 -32.5q77 0 131 48q53 47 53 114q0 57 -37.5 88.5t-103.5 31.5zM298 431
q-58 59 -58 134q0 80 59 153q85 105 227 105q111 0 169 -67q46 -52 46 -126q0 -113 -110 -199q80 -68 80 -158q0 -92 -58 -166q-43 -57 -112 -89t-147 -32q-107 0 -172 58q-66 57 -66 150q0 141 142 237z" />
    <glyph glyph-name="nine.denominator" horiz-adv-x="792" 
d="M512 718q-82 0 -143 -60q-62 -60 -62 -139q0 -63 41.5 -100.5t110.5 -37.5q84 0 143 58q60 57 60 137q0 31 -11 57t-31 45t-47.5 29.5t-60.5 10.5zM341 -20l-80 65l212 236q-14 -1 -23.5 -1.5t-14.5 -0.5q-108 0 -175 63q-69 61 -69 159q0 93 61 178q49 69 122 106.5
t154 37.5q128 0 198 -88q51 -63 51 -150q0 -117 -98 -227z" />
    <glyph glyph-name="four.fitted" horiz-adv-x="1139" 
d="M1007 1312l-680 -870h448l58 361h151l-57 -361h168l-22 -139h-168l-48 -303h-151l48 303h-608l25 156l726 930z" />
    </font>
</defs>
</svg>
