<?xml version="1.0" standalone="no"?>
<!DOCTYPE svg PUBLIC "-//W3C//DTD SVG 1.1//EN" "http://www.w3.org/Graphics/SVG/1.1/DTD/svg11.dtd" >
<svg>
<metadata>
Created by FontForge 20090622 at Wed Sep 21 06:31:55 2016
 By deploy user
Copyright (c) 2015 by . All rights reserved.
</metadata>
<defs>
<font id="Baomoi-SemiBold" horiz-adv-x="792" >
  <font-face 
    font-family="Baomoi"
    font-weight="600"
    font-stretch="normal"
    units-per-em="2048"
    panose-1="0 0 0 0 0 0 0 0 0 0"
    ascent="1638"
    descent="-410"
    x-height="908"
    cap-height="1365"
    bbox="-266 -535 2503 2205"
    underline-thickness="186"
    underline-position="-108"
    unicode-range="U+0020-U+FB04"
  />
<missing-glyph horiz-adv-x="485" 
d="M387 49v1267h-289v-1267h289zM49 0v1365h387v-1365h-387z" />
    <glyph glyph-name=".notdef" horiz-adv-x="485" 
d="M387 49v1267h-289v-1267h289zM49 0v1365h387v-1365h-387z" />
    <glyph glyph-name="glyph1" horiz-adv-x="0" 
 />
    <glyph glyph-name="glyph2" horiz-adv-x="485" 
 />
    <glyph glyph-name="space" unicode=" " horiz-adv-x="485" 
 />
    <glyph glyph-name="exclam" unicode="!" horiz-adv-x="603" 
d="M206 335l-19 1030h230l-19 -1030h-192zM302 234q55 0 93 -38t38 -91q0 -54 -38 -92t-94 -38q-55 0 -92 39q-38 38 -38 93q0 52 39 90q37 37 92 37z" />
    <glyph glyph-name="quotedbl" unicode="&#x22;" horiz-adv-x="662" 
d="M560 812h-158l-27 581h212zM260 812h-159l-26 581h211z" />
    <glyph glyph-name="numbersign" unicode="#" horiz-adv-x="1205" 
d="M703 545l55 271h-255l-55 -271h255zM238 384h-149l33 161h149l55 271h-149l33 161h149l84 415l169 -40l-77 -375h256l84 415l169 -36l-77 -379h149l-32 -161h-149l-56 -271h149l-32 -161h-149l-85 -415l-169 39l77 376h-255l-85 -415l-169 39z" />
    <glyph glyph-name="dollar" unicode="$" horiz-adv-x="1182" 
d="M498 -23q-146 23 -245 122q-90 89 -130 265l207 55q2 -11 4 -19.5t4 -13.5q23 -90 59 -133q67 -82 177 -82q108 0 177 77q58 64 58 151q0 54 -29 94q-42 54 -180 108l-124 48q-295 114 -295 358q0 137 86 240q86 101 231 134v189h209v-188q97 -23 163 -76t133 -161
l-172 -109q-23 35 -43.5 61t-39.5 43q-61 55 -150 55q-100 0 -158 -66q-48 -56 -48 -124q0 -109 173 -177l129 -50q208 -80 279 -194q51 -81 51 -184q0 -142 -86 -254q-86 -113 -231 -156v-202h-209v189z" />
    <glyph glyph-name="percent" unicode="%" horiz-adv-x="1839" 
d="M414 1244q-171 0 -171 -276q0 -290 170 -290q172 0 172 283t-171 283zM410 1382q329 0 329 -421t-327 -421q-323 0 -323 426q0 176 61 279q80 137 260 137zM1254 1393l116 -67l-784 -1355l-116 67zM1425 688q-171 0 -171 -276q0 -291 170 -291q172 0 172 283
q0 284 -171 284zM1421 826q329 0 329 -422q0 -421 -327 -421q-323 0 -323 427q0 176 61 279q80 137 260 137z" />
    <glyph glyph-name="ampersand" unicode="&#x26;" horiz-adv-x="1340" 
d="M522 644q-102 -79 -145 -140q-42 -59 -42 -124q0 -90 72 -156q70 -63 186 -63q136 0 243 104zM559 889q97 79 126 118q30 40 30 92q0 27 -10 50.5t-27 40t-41.5 26t-52.5 9.5q-61 0 -98 -43q-35 -41 -35 -93q0 -37 23 -80q23 -44 85 -120zM950 426q30 56 80 196l191 -52
q-8 -23 -21 -66q-23 -72 -50.5 -132.5t-58.5 -111.5l219 -260h-253l-92 110q-165 -138 -371 -138q-147 0 -266 67q-93 52 -148 148q-50 88 -50 184q0 114 64 205q64 93 216 202l-2 3q-141 166 -141 301q0 139 102 232q86 79 217 79q148 0 236 -100q77 -88 77 -200
q0 -93 -49 -166q-25 -37 -69.5 -79t-109.5 -91z" />
    <glyph glyph-name="quotesingle" unicode="'" horiz-adv-x="362" 
d="M260 812h-159l-26 581h211z" />
    <glyph glyph-name="parenleft" unicode="(" horiz-adv-x="637" 
d="M521 1434q-157 -399 -157 -870t157 -867l-183 -86q-17 36 -28.5 63l-18.5 44q-22 56 -41 126t-36 157q-57 292 -57 571q0 268 48 516q23 124 56.5 231t76.5 200z" />
    <glyph glyph-name="parenright" unicode=")" horiz-adv-x="637" 
d="M116 -303q157 401 157 867q0 468 -157 870l182 85q58 -122 92 -249q90 -332 90 -698q0 -358 -82 -686q-16 -65 -41 -133.5t-59 -141.5z" />
    <glyph glyph-name="asterisk" unicode="*" horiz-adv-x="991" 
d="M182 1363l228 -84l-10 242h191l-10 -242l228 84l59 -182l-234 -65l151 -190l-155 -112l-135 201l-134 -201l-155 112l151 190l-234 65z" />
    <glyph glyph-name="plus" unicode="+" horiz-adv-x="1139" 
d="M476 730v410h188v-410h406v-91v-91h-406v-409h-188v409h-407v91v91h407z" />
    <glyph glyph-name="comma" unicode="," horiz-adv-x="509" 
d="M223 235l187 -68l-228 -513l-147 59z" />
    <glyph glyph-name="hyphen" unicode="-" horiz-adv-x="550" 
d="M61 565h427v-186h-427v186z" />
    <glyph glyph-name="period" unicode="." horiz-adv-x="497" 
d="M248 234q55 0 93 -38t38 -91q0 -54 -38 -92t-93 -38t-93 38t-38 94q0 52 39 90q37 37 92 37z" />
    <glyph glyph-name="slash" unicode="/" horiz-adv-x="1131" 
d="M872 1396l160 -96l-772 -1331l-161 96z" />
    <glyph glyph-name="zero" unicode="0" horiz-adv-x="1180" 
d="M589 1195q-123 0 -199 -84q-48 -54 -76 -168q-30 -116 -30 -248q0 -258 77 -398q70 -127 229 -127q305 0 305 520q0 229 -76 378q-30 58 -92 93q-59 34 -138 34zM584 1393q527 0 527 -711q0 -710 -520 -710q-523 0 -523 720q0 304 103 482q58 101 152 154q116 65 261 65z
" />
    <glyph glyph-name="one" unicode="1" horiz-adv-x="648" 
d="M499 0h-212v1115l-187 -107l-100 172l324 185h175v-1365z" />
    <glyph glyph-name="two" unicode="2" horiz-adv-x="1002" 
d="M88 0v174l492 547q143 160 143 289q0 83 -57 136q-53 48 -152 48q-118 0 -172 -66q-39 -46 -69 -152l-195 54q31 136 100 218q123 145 341 145q205 0 319 -127q94 -103 94 -261q0 -195 -142 -352l-410 -456h582v-197h-874z" />
    <glyph glyph-name="three" unicode="3" horiz-adv-x="986" 
d="M19 347l207 54q29 -112 69 -161q57 -68 169 -68q117 0 185 75q57 63 57 155q0 101 -65 161q-57 54 -184 54h-90v194h90q124 0 176 61q46 55 46 131q0 90 -60 144q-55 49 -146 49q-74 0 -124 -32q-25 -17 -51.5 -46t-54.5 -72l-177 97q56 96 116 148q118 102 290 102
q202 0 319 -130q96 -107 96 -255q0 -169 -129 -280q160 -129 160 -326t-136 -315q-130 -115 -320 -115q-205 0 -331 137q-44 48 -65 94q-22 47 -45 134z" />
    <glyph glyph-name="four" unicode="4" horiz-adv-x="1064" 
d="M800 1293l-508 -809h341v325h211v-325h162v-194h-162v-290h-211v290h-585v189l579 921z" />
    <glyph glyph-name="five" unicode="5" horiz-adv-x="1085" 
d="M937 1170h-464l-54 -264q31 16 105 16q220 0 361 -156q118 -130 118 -312q0 -215 -158 -358q-136 -124 -334 -124q-144 0 -246 65q-106 65 -197 208l169 117q24 -42 43.5 -69.5t33.5 -42.5q77 -80 200 -80q127 0 208 90q69 78 69 188q0 128 -90 211q-77 69 -184 69
q-116 0 -197 -88l-164 35l141 690h640v-195z" />
    <glyph glyph-name="six" unicode="6" horiz-adv-x="1117" 
d="M556 707q-123 0 -202 -87q-67 -73 -67 -179q0 -126 88 -205q73 -67 181 -67q118 0 198 89q69 78 69 189q0 109 -71 180q-80 80 -196 80zM804 1278l-274 -384q16 6 40 6q130 0 244 -66q102 -58 161 -159q59 -103 59 -225q0 -128 -65 -241q-64 -111 -175 -175
q-110 -62 -237 -62q-216 0 -359 158q-122 134 -122 318q0 164 107 315l456 637z" />
    <glyph glyph-name="seven" unicode="7" horiz-adv-x="927" 
d="M72 61l598 1109h-650v195h900v-157l-664 -1244z" />
    <glyph glyph-name="eight" unicode="8" horiz-adv-x="1050" 
d="M526 1207q-106 0 -167 -69q-50 -56 -50 -133q0 -89 63 -146q60 -54 156 -54q103 0 165 68q49 55 49 135q0 86 -65 145q-59 54 -151 54zM521 623q-117 0 -185 -74q-58 -64 -58 -154q0 -104 73 -170q67 -60 174 -60q122 0 189 76q58 64 58 155q0 101 -72 167
q-65 60 -179 60zM247 727q-136 123 -136 279q0 168 128 284q115 103 286 103q196 0 315 -132q99 -110 99 -255q0 -154 -137 -279q57 -43 97 -90q83 -101 83 -242q0 -188 -135 -308q-130 -115 -322 -115q-136 0 -252 65q-95 55 -151 150q-54 93 -54 208q0 159 110 272
q30 31 69 60z" />
    <glyph glyph-name="nine" unicode="9" horiz-adv-x="1122" 
d="M561 1196q-118 0 -198 -89q-69 -78 -69 -190q0 -115 83 -189q77 -68 184 -68q123 0 203 87q66 73 66 177q0 124 -88 205q-73 67 -181 67zM313 86l275 385q-17 -4 -45 -4q-129 0 -241 66q-103 60 -160 159q-59 101 -59 224q0 127 65 240q64 111 176 175q109 62 236 62
q216 0 359 -158q122 -136 122 -319q0 -164 -108 -314l-456 -638z" />
    <glyph glyph-name="colon" unicode=":" horiz-adv-x="497" 
d="M248 878q55 0 93 -37q38 -38 38 -92q0 -53 -38 -91q-40 -38 -94 -38t-92 38t-38 93q0 52 39 90q37 37 92 37zM248 234q55 0 93 -38t38 -91q0 -54 -38 -92t-93 -38t-93 38t-38 94q0 52 39 90q37 37 92 37z" />
    <glyph glyph-name="semicolon" unicode=";" horiz-adv-x="502" 
d="M286 878q55 0 93 -37q38 -38 38 -92q0 -53 -38 -91q-40 -38 -94 -38t-92 38t-38 93q0 52 39 90q37 37 92 37zM223 235l187 -68l-228 -513l-147 59z" />
    <glyph glyph-name="less" unicode="&#x3c;" horiz-adv-x="1166" 
d="M1054 1216v-214l-684 -312l684 -314v-213l-942 443v168z" />
    <glyph glyph-name="equal" unicode="=" horiz-adv-x="1139" 
d="M1011 578v-183h-883v183h883zM1011 885v-183h-883v183h883z" />
    <glyph glyph-name="greater" unicode="&#x3e;" horiz-adv-x="1166" 
d="M112 163v214l684 313l-684 313v213l942 -443v-168z" />
    <glyph glyph-name="question" unicode="?" horiz-adv-x="882" 
d="M430 234q56 0 93 -37q38 -38 38 -92t-38 -92t-94 -38q-55 0 -92 39q-38 38 -38 93q0 52 39 90q38 37 92 37zM325 335v141q0 99 25 150q25 53 100 116l86 72q116 99 116 206q0 78 -54 128q-50 46 -142 46q-32 0 -57.5 -4.5t-48 -15t-43.5 -28t-42 -42.5q-11 -14 -25 -33.5
t-30 -44.5l-155 127q129 240 393 240q213 0 323 -123q91 -103 91 -250q0 -95 -30 -156q-42 -86 -143 -181l-97 -90q-44 -42 -51 -57t-7 -76v-125h-209z" />
    <glyph glyph-name="at" unicode="@" horiz-adv-x="1839" 
d="M1045 398l68 529h-98q-166 0 -245 -90q-75 -86 -75 -211q0 -117 66 -175q59 -53 157 -53h127zM1297 1081l-87 -683h20q141 0 218 86q39 45 62.5 121t23.5 163q0 165 -76 302q-130 238 -468 238q-221 0 -392 -96q-129 -72 -207 -208q-87 -153 -87 -340q0 -265 165 -430
q176 -176 519 -176q202 0 453 78l55 -147q-243 -85 -512 -85q-299 0 -497 114q-159 92 -244 246q-100 181 -100 398q0 231 109 421q98 172 261 263q209 116 471 116q229 0 392 -94q75 -43 131 -100t96 -129q92 -167 92 -366q0 -219 -105 -355q-70 -93 -167 -133
q-99 -41 -246 -41h-275q-84 0 -158.5 31t-125.5 85q-89 98 -89 260q0 133 65 248q123 213 440 213h263z" />
    <glyph glyph-name="A" unicode="A" horiz-adv-x="1292" 
d="M425 550h440l-221 595zM352 352l-129 -352h-223l515 1365h262l515 -1365h-224l-130 352h-586z" />
    <glyph glyph-name="B" unicode="B" horiz-adv-x="1078" 
d="M360 195h150q126 0 184 34q100 55 100 172q0 52 -25.5 98.5t-67.5 70.5q-64 37 -209 37h-132v-412zM360 790h119q114 0 164 28q92 53 92 166q0 85 -56 139q-53 50 -200 50h-119v-383zM150 0v1365h306q197 0 303 -61q78 -46 128 -130q51 -87 51 -185q0 -149 -127 -263
q65 -34 106 -84q87 -108 87 -249q0 -151 -100 -255q-35 -37 -73.5 -63.5t-85 -43t-102 -24t-122.5 -7.5h-371z" />
    <glyph glyph-name="C" unicode="C" horiz-adv-x="1372" 
d="M1162 1007q-69 72 -126 112q-110 74 -250 74q-226 0 -368 -162q-130 -146 -130 -349q0 -233 166 -383q140 -127 331 -127q163 0 294 105q14 12 36.5 33t52.5 52l149 -145q-92 -92 -170 -142q-160 -103 -359 -103q-197 0 -363 96q-163 95 -257 259q-96 165 -96 355
q0 188 95 354q96 169 261 263q163 94 358 94q151 0 276 -57q126 -59 249 -185z" />
    <glyph glyph-name="D" unicode="D" horiz-adv-x="1267" 
d="M363 1167v-969h96q176 0 301 71q221 128 221 415q0 284 -221 412q-125 71 -301 71h-96zM150 1365h303q251 0 429 -103q148 -86 225 -222q88 -155 88 -356q0 -284 -164 -463q-204 -221 -578 -221h-303v1365z" />
    <glyph glyph-name="E" unicode="E" horiz-adv-x="984" 
d="M892 1169h-529v-378h470v-198h-470v-395h549v-198h-762v1365h742v-196z" />
    <glyph glyph-name="F" unicode="F" horiz-adv-x="907" 
d="M846 1169h-483v-378h441v-198h-441v-593h-213v1365h696v-196z" />
    <glyph glyph-name="G" unicode="G" horiz-adv-x="1488" 
d="M803 735h609v-103q0 -206 -90 -371q-73 -132 -208 -208q-144 -81 -323 -81q-200 0 -365 96q-164 94 -258 258q-96 166 -96 356q0 188 95 354q96 169 261 263q163 94 357 94q245 0 429 -151q14 -12 38 -34.5l58 -54.5l-148 -144q-74 75 -128 112q-108 72 -248 72
q-224 0 -368 -162q-130 -146 -130 -350q0 -232 166 -382q140 -127 334 -127q208 0 322 146q63 81 82 219h-389v198z" />
    <glyph glyph-name="H" unicode="H" horiz-adv-x="1332" 
d="M150 1365h213v-574h606v574h213v-1365h-213v593h-606v-593h-213v1365z" />
    <glyph glyph-name="I" unicode="I" horiz-adv-x="513" 
d="M363 1365v-1365h-213v1365h213z" />
    <glyph glyph-name="J" unicode="J" horiz-adv-x="851" 
d="M701 1365v-946q0 -104 -12 -164q-12 -62 -46 -119q-40 -70 -115 -115q-82 -49 -185 -49q-97 0 -176 39q-81 39 -174 129l132 154q116 -122 215 -122q62 0 101 43q47 52 47 204v946h213z" />
    <glyph glyph-name="K" unicode="K" horiz-adv-x="1196" 
d="M663 791l529 -791h-250l-423 635l-156 -170v-465h-213v1365h213v-615l565 615h264z" />
    <glyph glyph-name="L" unicode="L" horiz-adv-x="884" 
d="M363 1365v-1168h510v-197h-723v1365h213z" />
    <glyph glyph-name="M" unicode="M" horiz-adv-x="1648" 
d="M150 0v1365h208l466 -830l466 830h207v-1365h-213v964l-376 -671h-169l-376 671v-964h-213z" />
    <glyph glyph-name="N" unicode="N" horiz-adv-x="1450" 
d="M150 0v1365h187l751 -1004v1004h212v-1365h-187l-750 1004v-1004h-213z" />
    <glyph glyph-name="O" unicode="O" horiz-adv-x="1562" 
d="M777 1193q-212 0 -358 -164q-131 -146 -131 -355q0 -167 100 -300q77 -104 195 -158q97 -44 197 -44q124 0 240 66q60 34 105.5 80t79.5 104q68 119 68 260q0 230 -168 385q-138 126 -328 126zM780 1393q190 0 350 -94q166 -97 263 -262q96 -165 96 -355t-97 -356
q-94 -163 -261 -259q-166 -95 -348 -95q-270 0 -473 182q-238 211 -238 537q0 185 96 346q101 168 263 262q163 94 349 94z" />
    <glyph glyph-name="P" unicode="P" horiz-adv-x="966" 
d="M363 721h107q149 0 206 66q54 61 54 161q0 138 -97 192q-55 31 -163 31h-107v-450zM150 1365h303q189 0 290 -58q88 -49 138 -139q58 -100 58 -220q0 -168 -104 -287q-65 -71 -152 -102t-230 -31h-90v-528h-213v1365z" />
    <glyph glyph-name="Q" unicode="Q" horiz-adv-x="1557" 
d="M859 304l145 144l126 -124q143 152 143 356q0 235 -167 387q-140 126 -326 126q-215 0 -361 -164q-131 -146 -131 -348q0 -231 168 -381q143 -128 321 -128q84 0 179 36zM1403 54l-146 -144l-147 146q-161 -84 -331 -84q-185 0 -349 95q-167 96 -261 259q-97 166 -97 356
q0 188 96 355q98 167 263 262q163 94 349 94q187 0 350 -94q165 -95 263 -262q96 -167 96 -356q0 -290 -212 -502z" />
    <glyph glyph-name="R" unicode="R" horiz-adv-x="1121" 
d="M363 721h107q130 0 194 37q99 55 99 186q0 132 -101 191q-65 36 -192 36h-107v-450zM1083 0h-239l-295 532q-28 -2 -52 -3t-44 -1h-90v-528h-213v1365h303q206 0 317 -63q90 -53 144 -144q58 -98 58 -216q0 -59 -14.5 -112.5t-42.5 -99.5t-67.5 -83.5t-90.5 -63.5z" />
    <glyph glyph-name="S" unicode="S" horiz-adv-x="1054" 
d="M777 1036q-47 72 -84 104q-61 55 -150 55q-101 0 -158 -66q-48 -56 -48 -124q0 -109 173 -177l130 -49q207 -80 279 -195q51 -80 51 -183q0 -188 -141 -314q-128 -115 -312 -115q-150 0 -265 81q-135 95 -184 312l207 54q2 -11 4 -19t4 -13q22 -88 59 -134
q67 -82 178 -82q108 0 177 77q58 64 58 151q0 56 -29 94q-40 53 -181 108l-124 48q-295 114 -295 357q0 171 124 280q122 107 299 107q193 0 319 -137q37 -41 81 -111z" />
    <glyph glyph-name="T" unicode="T" horiz-adv-x="894" 
d="M894 1169h-340v-1169h-213v1169h-341v196h894v-196z" />
    <glyph glyph-name="U" unicode="U" horiz-adv-x="1307" 
d="M150 1365h213v-842q0 -46 2 -80.5t6 -57.5q8 -49 28 -84q33 -56 104 -92q70 -37 150 -37q117 0 205 73q51 42 68 98q17 57 17 180v842h213v-881q0 -171 -59 -272q-62 -105 -172 -167q-124 -73 -272 -73q-204 0 -351 129q-82 70 -117 160t-35 223v881z" />
    <glyph glyph-name="V" unicode="V" horiz-adv-x="1156" 
d="M0 1365h222l356 -1076l357 1076h221l-454 -1365h-248z" />
    <glyph glyph-name="W" unicode="W" horiz-adv-x="1797" 
d="M222 1365l288 -1009l298 1009h181l298 -1009l289 1009h221l-409 -1365h-102h-99l-288 969l-289 -969h-98h-102l-410 1365h222z" />
    <glyph glyph-name="X" unicode="X" horiz-adv-x="1137" 
d="M1097 1365l-410 -651l450 -714h-242l-328 527l-329 -527h-238l449 711l-409 654h238l292 -468l292 468h235z" />
    <glyph glyph-name="Y" unicode="Y" horiz-adv-x="1083" 
d="M1097 1365l-449 -798v-567h-213v567l-449 798h236l320 -586l320 586h235z" />
    <glyph glyph-name="Z" unicode="Z" horiz-adv-x="1046" 
d="M993 1194l-692 -996h707v-198h-974v171l703 999h-644v195h900v-171z" />
    <glyph glyph-name="bracketleft" unicode="[" horiz-adv-x="625" 
d="M363 1306v-1481h183v-191h-389v1863h389v-191h-183z" />
    <glyph glyph-name="backslash" unicode="\" horiz-adv-x="1131" 
d="M259 1396l773 -1331l-161 -96l-772 1331z" />
    <glyph glyph-name="bracketright" unicode="]" horiz-adv-x="625" 
d="M262 1306h-183v191h389v-1863h-389v191h183v1481z" />
    <glyph glyph-name="asciicircum" unicode="^" horiz-adv-x="1117" 
d="M1080 711h-247l-276 468l-276 -468h-245l401 693h242z" />
    <glyph glyph-name="underscore" unicode="_" horiz-adv-x="1051" 
d="M-14 -108h1079v-186h-1079v186z" />
    <glyph glyph-name="grave" unicode="`" horiz-adv-x="975" 
d="M187 1319l195 104l235 -324l-135 -77z" />
    <glyph glyph-name="a" unicode="a" horiz-adv-x="1117" 
d="M529 751q-114 0 -194 -86q-72 -78 -72 -210q0 -151 92 -232q75 -66 178 -66q118 0 195 84q72 79 72 216q0 150 -91 229q-74 65 -180 65zM1001 0h-204v79q-139 -107 -280 -107q-113 0 -219 61q-113 65 -176 176q-65 113 -65 246q0 218 159 361q135 120 301 120
q140 0 280 -107v79h204v-908z" />
    <glyph glyph-name="b" unicode="b" horiz-adv-x="1117" 
d="M583 751q-116 0 -193 -83q-72 -80 -72 -213q0 -151 92 -234q71 -64 175 -64q117 0 195 85q73 79 73 217q0 137 -82 216q-77 76 -188 76zM115 0v1365h204v-536q140 107 280 107q113 0 219 -61q112 -64 177 -175q64 -112 64 -245q0 -221 -159 -363q-135 -120 -301 -120
q-141 0 -280 107v-79h-204z" />
    <glyph glyph-name="c" unicode="c" horiz-adv-x="947" 
d="M773 626q-68 74 -116 99q-50 26 -119 26q-126 0 -203 -86q-72 -78 -72 -210q0 -150 91 -231q74 -67 184 -67q72 0 126 30q54 29 115 102l137 -133q-34 -37 -65 -64.5t-60 -46.5q-112 -73 -254 -73q-219 0 -358 156q-122 137 -122 327q0 217 156 360q133 121 324 121
q54 0 102.5 -10t93.5 -31.5t88.5 -55t88.5 -80.5z" />
    <glyph glyph-name="d" unicode="d" horiz-adv-x="1117" 
d="M529 751q-115 0 -193 -85q-73 -79 -73 -211q0 -151 92 -232q76 -66 178 -66q117 0 192 83q73 79 73 217q0 149 -91 230q-71 64 -178 64zM1001 0h-204v79q-139 -107 -280 -107q-113 0 -219 61q-113 65 -176 176q-65 113 -65 246q0 218 159 361q135 120 301 120
q140 0 280 -107v536h204v-1365z" />
    <glyph glyph-name="e" unicode="e" horiz-adv-x="1012" 
d="M751 534q-23 88 -65 140q-64 82 -175 82q-94 0 -158 -58t-86 -164h484zM267 376q15 -72 53 -124q71 -95 203 -95q72 0 132.5 31t96.5 86l18 29l176 -73q-153 -258 -424 -258q-210 0 -343 151q-122 140 -122 332q0 224 156 367q125 115 296 115q194 0 323 -144
q67 -75 98 -185q24 -84 24 -174v-22t-1 -36h-686z" />
    <glyph glyph-name="f" unicode="f" horiz-adv-x="530" 
d="M503 724h-160v-724h-204v724h-88v184h88v171q0 174 82 246q64 56 159 56q56 0 120 -16v-184q-54 14 -81 14q-76 0 -76 -116v-171h160v-184z" />
    <glyph glyph-name="g" unicode="g" horiz-adv-x="1117" 
d="M529 751q-115 0 -194 -85q-72 -80 -72 -211q0 -151 92 -232q75 -66 178 -66q116 0 193 83q72 79 72 217q0 149 -91 230q-71 64 -178 64zM1001 908v-925q0 -237 -148 -369q-135 -120 -336 -120q-210 0 -353 131q-13 12 -34 35l-50 57l133 133l24 -27q60 -70 97 -94
q77 -50 178 -50q141 0 216 84q69 78 69 220v96q-122 -107 -271 -107q-122 0 -228 61q-112 64 -176 176q-65 113 -65 246q0 220 159 361q135 120 311 120q145 0 270 -107v79h204z" />
    <glyph glyph-name="h" unicode="h" horiz-adv-x="1043" 
d="M115 1365h204v-523q95 94 231 94q148 0 254 -94q33 -29 56 -63.5t38 -77t22 -95t7 -117.5v-489h-204v473q0 133 -33 195q-44 80 -159 80q-58 0 -106.5 -24.5t-71.5 -64.5q-34 -61 -34 -205v-454h-204v1365z" />
    <glyph glyph-name="i" unicode="i" horiz-adv-x="436" 
d="M218 1344q54 0 94 -38q38 -38 38 -92q0 -55 -38 -93q-40 -38 -94 -38q-56 0 -93 39q-39 37 -39 93q0 53 39 91q40 38 93 38zM320 908v-908h-204v908h204z" />
    <glyph glyph-name="j" unicode="j" horiz-adv-x="456" 
d="M-20 -284q63 -19 95 -19q28 0 41 16q20 23 20 94v1101h204v-1101q0 -174 -82 -246q-64 -56 -155 -56q-55 0 -123 20v191zM238 1344q54 0 94 -38q38 -38 38 -92q0 -55 -38 -93q-40 -38 -95 -38q-56 0 -93 39q-38 38 -38 94q0 52 39 90q40 38 93 38z" />
    <glyph glyph-name="k" unicode="k" horiz-adv-x="975" 
d="M568 531l416 -531h-252l-303 394l-110 -108v-286h-204v1365h204v-819l365 362h268z" />
    <glyph glyph-name="l" unicode="l" horiz-adv-x="439" 
d="M321 0h-204v1365h204v-1365z" />
    <glyph glyph-name="m" unicode="m" horiz-adv-x="1583" 
d="M795 813q112 123 282 123q160 0 267 -96q67 -62 95 -141q28 -80 28 -210v-489h-204v473q0 138 -33 200q-41 75 -142 75q-51 0 -95 -23t-65 -61q-34 -61 -34 -210v-454h-204v473q0 138 -33 200q-41 75 -143 75q-52 0 -96 -23t-65 -61q-34 -62 -34 -210v-454h-204v908h204
v-66q91 94 217 94q149 0 259 -123z" />
    <glyph glyph-name="n" unicode="n" horiz-adv-x="1043" 
d="M115 908h204v-66q97 94 231 94q148 0 254 -94q33 -29 56 -63.5t38 -77t22 -95t7 -117.5v-489h-204v473q0 133 -33 195q-44 80 -159 80q-58 0 -106.5 -24.5t-71.5 -64.5q-34 -61 -34 -205v-454h-204v908z" />
    <glyph glyph-name="o" unicode="o" horiz-adv-x="1070" 
d="M530 751q-115 0 -195 -86q-72 -78 -72 -210q0 -149 92 -232q75 -66 179 -66q122 0 200 86q72 79 72 214q0 146 -91 227q-74 67 -185 67zM542 936q207 0 347 -156q123 -137 123 -325q0 -222 -159 -364q-134 -119 -318 -119q-214 0 -354 155q-124 136 -124 327
q0 185 114 317q144 165 371 165z" />
    <glyph glyph-name="p" unicode="p" horiz-adv-x="1117" 
d="M583 751q-115 0 -192 -83q-73 -79 -73 -216q0 -150 91 -231q71 -64 176 -64q73 0 138 38q130 79 130 258q0 151 -92 232q-75 66 -178 66zM115 908h204v-79q139 107 280 107q113 0 219 -61q113 -65 176 -176q65 -113 65 -246q0 -219 -159 -361q-135 -120 -301 -120
q-140 0 -280 107v-557h-204v1386z" />
    <glyph glyph-name="q" unicode="q" horiz-adv-x="1117" 
d="M533 751q-117 0 -197 -86q-73 -79 -73 -210q0 -181 130 -260q64 -38 144 -38q114 0 189 83q72 79 72 216q0 148 -92 231q-71 64 -173 64zM1001 908v-1386h-204v557q-140 -107 -280 -107q-113 0 -219 61q-112 64 -177 175q-64 112 -64 245q0 220 159 363q135 120 301 120
q141 0 280 -107v79h204z" />
    <glyph glyph-name="r" unicode="r" horiz-adv-x="619" 
d="M115 908h204v-73q60 48 97 62q37 15 99 15q15 0 33.5 -1t41.5 -3v-183q-25 1 -42.5 1.5t-28.5 0.5q-123 0 -166 -81q-34 -64 -34 -209v-437h-204v908z" />
    <glyph glyph-name="s" unicode="s" horiz-adv-x="777" 
d="M216 306q42 -85 80 -117q37 -33 95 -33q65 0 97 39q28 32 28 73q0 27 -15 48q-17 24 -116 61l-93 36q-197 77 -197 244q0 122 90 200q91 79 219 79q197 0 302 -198l-160 -81q-18 27 -34.5 46t-33.5 30.5t-36 16.5t-41 5q-49 0 -80 -25t-31 -67q0 -27 14 -47
q16 -20 115 -59l84 -32q114 -44 165.5 -103t51.5 -146q0 -133 -100 -221q-94 -83 -231 -83q-125 0 -208 64.5t-134 200.5z" />
    <glyph glyph-name="t" unicode="t" horiz-adv-x="532" 
d="M476 908v-184h-144v-438q0 -58 14.5 -83.5t46.5 -25.5q31 0 96 18v-191q-69 -20 -124 -20q-107 0 -171 72q-66 73 -66 230v438h-97v184h97v201l204 81v-282h144z" />
    <glyph glyph-name="u" unicode="u" horiz-adv-x="1043" 
d="M927 0h-204v66q-97 -94 -231 -94q-148 0 -254 94q-33 29 -56.5 63.5t-38 77t-21.5 95t-7 117.5v489h204v-473q0 -135 33 -195q44 -80 160 -80q28 0 55.5 6.5t50.5 18t41.5 28t29.5 36.5q34 61 34 205v454h204v-908z" />
    <glyph glyph-name="v" unicode="v" horiz-adv-x="943" 
d="M-12 908h221l263 -625l263 625h221l-391 -908h-187z" />
    <glyph glyph-name="w" unicode="w" horiz-adv-x="1360" 
d="M207 908l196 -578l196 578h163l196 -578l196 578h219l-334 -908h-164l-195 571l-195 -571h-163l-334 908h219z" />
    <glyph glyph-name="x" unicode="x" horiz-adv-x="954" 
d="M932 908l-334 -437l360 -471h-241l-239 316l-239 -316h-242l361 470l-335 438h241l215 -284l215 284h238z" />
    <glyph glyph-name="y" unicode="y" horiz-adv-x="948" 
d="M132 -478l228 521l-372 865h221l261 -617l270 617h220l-614 -1386h-214z" />
    <glyph glyph-name="z" unicode="z" horiz-adv-x="849" 
d="M809 752l-496 -568h515v-184h-783v155l497 570h-468v183h735v-156z" />
    <glyph glyph-name="braceleft" unicode="{" horiz-adv-x="634" 
d="M556 -365q-31 -1 -51.5 -1.5t-31.5 -0.5q-139 0 -209 69q-72 70 -72 240v389q0 80 -21 110q-23 30 -92 48v164q68 18 91 47q22 28 22 101v387q0 169 72 240q70 69 207 69q8 0 29.5 -0.5t55.5 -1.5v-183h-50h-12q-60 0 -77 -18q-19 -19 -19 -91v-410q0 -42 -5 -75.5
t-16 -61t-28.5 -49.5t-42.5 -42q37 -30 54 -57q38 -62 38 -177v-404q0 -71 20 -91q19 -18 96 -18h12.5t29.5 1v-184z" />
    <glyph glyph-name="bar" unicode="|" horiz-adv-x="1054" 
d="M425 1491h204v-1851h-204v1851z" />
    <glyph glyph-name="braceright" unicode="}" horiz-adv-x="634" 
d="M79 -181q19 -1 30 -1h13q76 0 96 18q19 19 19 91v404q0 45 5 79.5t16 62.5t28.5 50t42.5 42q-37 29 -54 56q-38 62 -38 172v410q0 71 -19 90t-88 19h-15h-36v183q34 1 55.5 1.5t29.5 0.5q136 0 207 -69q72 -71 72 -240v-387q0 -72 22 -100q23 -29 91 -48v-164
q-70 -18 -91 -48q-22 -29 -22 -110v-389q0 -170 -72 -240q-71 -69 -209 -69q-11 0 -31.5 0.5t-51.5 1.5v184z" />
    <glyph glyph-name="asciitilde" unicode="~" horiz-adv-x="1407" 
d="M177 1240q71 141 130 201q32 32 82.5 51.5t100.5 19.5q93 0 242 -73q130 -62 188 -62q52 0 88 30q35 31 87 118l135 -79q-62 -125 -123 -185q-37 -37 -92 -59q-57 -24 -105 -24q-56 0 -107 17q-25 8 -74.5 28.5t-124.5 54.5q-78 35 -128 35q-22 0 -42 -8.5t-39.5 -27
t-40.5 -49t-45 -74.5z" />
    <glyph glyph-name="nonbreakingspace" unicode="&#xa0;" horiz-adv-x="485" 
 />
    <glyph glyph-name="exclamdown" unicode="&#xa1;" horiz-adv-x="603" 
d="M206 653h192l19 -1030h-230zM302 1013q53 0 93 -38q38 -38 38 -92q0 -53 -38 -91q-40 -38 -94 -38q-55 0 -92 39q-38 38 -38 93q0 52 39 90q37 37 92 37z" />
    <glyph glyph-name="cent" unicode="&#xa2;" horiz-adv-x="1135" 
d="M491 213q-109 27 -191 94q-81 66 -127 163q-47 102 -47 213q0 172 100 300q101 128 265 168v214h209v-211q152 -31 279 -167l-136 -133q-68 73 -117 99q-50 26 -119 26q-125 0 -203 -86q-72 -78 -72 -210q0 -150 91 -231q74 -67 184 -67q72 0 126 30q55 29 116 102
l136 -133q-132 -144 -285 -175v-209h-209v213z" />
    <glyph glyph-name="sterling" unicode="&#xa3;" horiz-adv-x="1153" 
d="M874 781v-191h-372q21 -98 21 -190q0 -29 -4 -53.5t-13 -48.5t-24 -49t-36 -53h619v-196h-925v184l20 15q88 70 119 116q30 45 30 108q0 32 -6 73.5t-17 93.5h-146v191h105q-16 89 -16 168q0 225 132 338q122 106 294 106q247 0 382 -248l-170 -106q-25 42 -49.5 72
t-51 48.5t-55.5 27t-64 8.5q-93 0 -151 -63q-56 -59 -56 -174q0 -72 21 -177h413z" />
    <glyph glyph-name="currency" unicode="&#xa4;" horiz-adv-x="1483" 
d="M737 989q-121 0 -202 -89q-75 -81 -75 -216q0 -154 95 -238q78 -69 187 -69q126 0 207 89q75 82 75 220q0 150 -94 234q-78 69 -193 69zM466 1077q127 88 276 88q148 0 275 -88l177 180l115 -112l-180 -183q85 -130 85 -278q0 -155 -84 -279l179 -182l-113 -115l-178 181
q-127 -88 -276 -88q-146 0 -277 88l-178 -181l-113 115l180 182q-85 125 -85 279q0 142 85 278l-180 183l115 112z" />
    <glyph glyph-name="yen" unicode="&#xa5;" horiz-adv-x="1288" 
d="M217 460v177h282l-51 89h-231v177h132l-260 462h236l320 -586l320 586h235l-260 -462h132v-177h-232l-50 -89h282v-177h-321v-460h-213v460h-321z" />
    <glyph glyph-name="brokenbar" unicode="&#xa6;" horiz-adv-x="1054" 
d="M425 336h204v-696h-204v696zM425 1491h204v-696h-204v696z" />
    <glyph glyph-name="section" unicode="&#xa7;" horiz-adv-x="1146" 
d="M735 236q64 73 64 152q0 57 -30 96q-41 53 -184 109l-140 54l-15 6q-77 -68 -77 -152q0 -115 174 -181l131 -50l34.5 -14.5zM912 111q81 -93 81 -226q0 -177 -123 -288q-115 -103 -309 -103q-226 0 -368 163q-20 23 -44.5 60.5t-52.5 88.5l175 110q31 -55 59 -94.5
t54 -62.5q73 -67 184 -67q104 0 163 65q48 54 48 128q0 33 -11.5 60.5t-37.5 52t-67 47t-99 45.5l-126 48q-298 115 -298 363q0 151 114 270q-90 94 -90 232q0 171 126 282q121 108 300 108q192 0 318 -139q19 -20 39 -48.5t42 -63.5l-175 -110q-46 72 -82 107
q-61 56 -149 56q-100 0 -158 -67q-49 -56 -49 -128q0 -109 176 -177l131 -51q209 -79 283 -196q51 -83 51 -187q0 -163 -105 -278z" />
    <glyph glyph-name="dieresis" unicode="&#xa8;" horiz-adv-x="975" 
d="M299 1344q54 0 94 -38q38 -38 38 -92t-38 -92q-40 -38 -93 -38q-28 0 -52 10t-42 28t-28 42t-10 52q0 52 39 90q40 38 92 38zM676 1344q53 0 93 -38q38 -38 38 -92t-38 -92q-40 -38 -94 -38q-56 0 -93 39q-38 38 -38 93q0 53 39 91q38 37 93 37z" />
    <glyph glyph-name="copyright" unicode="&#xa9;" horiz-adv-x="1727" 
d="M854 1313q-162 0 -305 -85q-147 -86 -230 -230q-85 -145 -85 -315t85 -315q84 -146 230 -230q145 -85 315 -85q169 0 315 85q147 84 231 230q84 147 84 320q0 272 -209 463q-179 162 -431 162zM876 1458q199 0 375 -104q180 -105 284 -284t104 -387q0 -207 -104 -388
q-103 -179 -284 -283q-179 -104 -387 -104q-206 0 -387 104q-91 52 -161.5 122.5t-122.5 160.5q-104 182 -104 394q0 335 257 569q220 200 530 200zM1145 871q-20 22 -36.5 37.5l-28.5 26.5q-73 64 -181 64q-138 0 -226 -100q-81 -92 -81 -217q0 -146 103 -237
q86 -79 204 -79q73 0 123 26q25 13 56.5 39t71.5 66l121 -118l-9 -8l-15 -15q-84 -81 -165.5 -117.5t-180.5 -36.5q-219 0 -361 159q-123 138 -123 321q0 128 64 240q66 112 177 177q110 64 241 64q170 0 292 -104q11 -9 30 -27l46 -44z" />
    <glyph glyph-name="ordfeminine" unicode="&#xaa;" horiz-adv-x="721" 
d="M354 1263q-65 0 -107 -45q-43 -46 -43 -116q0 -80 48 -120q41 -37 102 -37q33 0 60.5 11.5t47 33t30.5 51t11 65.5q0 35 -11 64t-30.5 49.5t-47 32t-60.5 11.5zM647 831h-147v40q-70 -58 -152 -58q-129 0 -219 97q-73 79 -73 190q0 130 97 217q86 77 195 77q81 0 152 -57
v39h147v-545z" />
    <glyph glyph-name="guillemotleft" unicode="&#xab;" horiz-adv-x="956" 
d="M532 150l-136 -108l-335 412l335 421l136 -107l-246 -313zM865 150l-136 -108l-335 412l335 421l136 -107l-247 -313z" />
    <glyph glyph-name="logicalnot" unicode="&#xac;" horiz-adv-x="1393" 
d="M1270 139h-199v405h-948v186h1147v-591z" />
    <glyph glyph-name="uni00AD" unicode="&#xad;" horiz-adv-x="550" 
d="M61 565h427v-186h-427v186z" />
    <glyph glyph-name="registered" unicode="&#xae;" horiz-adv-x="1727" 
d="M854 1313q-162 0 -304 -85q-147 -85 -231 -230q-84 -146 -84 -315q0 -170 84 -315q84 -146 231 -230q145 -85 314 -85t315 85q148 86 231 230q84 147 84 320q0 272 -209 463q-179 162 -431 162zM874 1458q201 0 377 -104q182 -107 284 -284q104 -178 104 -386t-104 -389
q-104 -182 -284 -284q-178 -103 -387 -103t-387 103q-180 104 -284 284q-104 181 -104 385q0 206 104 390q130 234 394 336q131 52 287 52zM761 983v-257h79q100 0 136 40q30 34 30 88q0 66 -40.5 97.5t-125.5 31.5h-79zM1254 222h-192l-196 346q-18 -1 -44 -1h-61v-345
h-171v921h239q134 0 208 -42q61 -35 99 -99q40 -67 40 -148q0 -82 -37 -146.5t-106 -99.5z" />
    <glyph glyph-name="macron" unicode="&#xaf;" horiz-adv-x="975" 
d="M181 1301h613v-183h-613v183z" />
    <glyph glyph-name="degree" unicode="&#xb0;" horiz-adv-x="689" 
d="M412 1366q-56 0 -96 -40t-40 -96t41 -97t96 -41q56 0 97 41q40 40 40 98q0 56 -40 96q-41 39 -98 39zM418 1519q123 0 211 -97q74 -80 74 -192q0 -132 -96 -217q-83 -74 -194 -74q-129 0 -216 96q-74 83 -74 197q0 125 96 212q82 75 199 75z" />
    <glyph glyph-name="plusminus" unicode="&#xb1;" horiz-adv-x="1139" 
d="M1070 182v-182h-1001v182h1001zM476 856v410h188v-410h406v-182h-406v-409h-188v409h-407v182h407z" />
    <glyph glyph-name="twosuperior" unicode="&#xb2;" 
d="M127 831v117l298 318q82 88 82 158q0 45 -30 69.5t-84 24.5q-58 0 -84 -25q-27 -25 -51 -103l-140 37q54 230 277 230q133 0 205 -79q57 -65 57 -156q0 -117 -89 -212l-226 -241h333v-138h-548z" />
    <glyph glyph-name="threesuperior" unicode="&#xb3;" 
d="M314 1186v136h66q121 0 121 98q0 45 -30 72t-81 27q-21 0 -38 -4t-32.5 -14.5t-30.5 -27.5t-33 -44l-128 67q52 86 113.5 123.5t147.5 37.5q131 0 204 -82q58 -64 58 -152q0 -95 -71 -160q89 -74 89 -188q0 -116 -82 -188q-83 -72 -204 -72q-221 0 -278 227l-2 10l147 37
q19 -77 49 -106q29 -29 86 -29q60 0 96 33.5t36 87.5q0 111 -137 111h-66z" />
    <glyph glyph-name="acute" unicode="&#xb4;" horiz-adv-x="975" 
d="M788 1319l-295 -297l-135 77l236 324z" />
    <glyph glyph-name="mu" unicode="&#xb5;" horiz-adv-x="1043" 
d="M927 0h-204v61q-95 -89 -209 -89q-109 0 -195 89v-539h-204v1386h204v-477q0 -131 33 -191q44 -80 160 -80q28 0 55.5 6.5t50.5 18t41.5 28t29.5 36.5q34 61 34 205v454h204v-908z" />
    <glyph glyph-name="paragraph" unicode="&#xb6;" horiz-adv-x="1317" 
d="M582 424h-8q-118 0 -221 61q-105 62 -166 167q-64 110 -64 242q0 215 155 355q130 116 308 116h643v-176h-131v-1667h-184v1667h-148v-1667h-184v902z" />
    <glyph glyph-name="periodcentered" unicode="&#xb7;" horiz-adv-x="497" 
d="M248 813q55 0 93 -37q38 -38 38 -92t-38 -92q-40 -38 -94 -38q-55 0 -92 39q-38 38 -38 93q0 52 39 90q37 37 92 37z" />
    <glyph glyph-name="cedilla" unicode="&#xb8;" horiz-adv-x="975" 
d="M507 -62l187 -81l-241 -306l-146 73z" />
    <glyph glyph-name="onesuperior" unicode="&#xb9;" 
d="M505 831h-152v632l-104 -57l-73 120l208 114h121v-809z" />
    <glyph glyph-name="ordmasculine" unicode="&#xba;" horiz-adv-x="708" 
d="M352 1261q-33 0 -60.5 -11.5t-47 -32.5t-30.5 -50t-11 -63q0 -78 49 -121q41 -37 102 -37q33 0 61 11.5t48 32.5t31 50.5t11 65.5q0 34 -11 63t-31.5 49t-48.5 31.5t-62 11.5zM359 1393q132 0 220 -97q74 -80 74 -192q0 -128 -95 -214q-85 -76 -204 -76q-137 0 -225 97
q-74 82 -74 195q0 125 96 211q82 76 208 76z" />
    <glyph glyph-name="guillemotright" unicode="&#xbb;" horiz-adv-x="956" 
d="M90 150l247 305l-247 313l137 107l334 -421l-335 -412zM423 150l246 305l-246 313l136 107l335 -421l-335 -412z" />
    <glyph glyph-name="onequarter" unicode="&#xbc;" horiz-adv-x="1707" 
d="M438 557h-152v631l-104 -57l-73 120l208 114h121v-808zM904 291l356 544l125 -75l-300 -457h170v187h151v-187h97v-136h-97v-167h-151v167h-351v124zM1104 1393l116 -67l-784 -1355l-116 67z" />
    <glyph glyph-name="onehalf" unicode="&#xbd;" horiz-adv-x="1707" 
d="M1009 0v117l298 318q82 88 82 158q0 45 -30.5 69.5t-82.5 24.5q-57 0 -85 -26q-27 -26 -51 -102l-140 37q53 230 278 230q134 0 204 -79q57 -65 57 -156q0 -118 -88 -212l-226 -241h332v-138h-548zM437 557h-152v631l-104 -57l-73 120l208 114h121v-808zM1103 1393
l116 -67l-784 -1355l-116 67z" />
    <glyph glyph-name="threequarters" unicode="&#xbe;" horiz-adv-x="1707" 
d="M983 291l357 544l125 -75l-300 -457h170v187h151v-187h97v-136h-97v-167h-151v167h-352v124zM304 911v136h66q121 0 121 98q0 45 -30 72t-81 27q-21 0 -38 -4t-32.5 -14.5t-30.5 -27.5t-33 -44l-128 67q27 43 55 73.5t59.5 50t67.5 28.5t80 9q130 0 203 -82
q58 -64 58 -152q0 -96 -71 -161q89 -74 89 -188q0 -115 -82 -187q-83 -72 -203 -72q-223 0 -279 227l-2 9l147 38q10 -39 21.5 -64.5t27 -41.5t36 -22.5t49.5 -6.5q60 0 96.5 33t36.5 87q0 112 -137 112h-66zM1229 1393l116 -67l-784 -1355l-116 67z" />
    <glyph glyph-name="questiondown" unicode="&#xbf;" horiz-adv-x="882" 
d="M488 1013q55 0 93 -38q37 -38 37 -94q0 -51 -38 -89q-40 -38 -93 -38q-54 0 -92 38q-39 37 -39 91q0 55 39 93q37 37 93 37zM592 653v-141q0 -98 -24 -150q-25 -52 -101 -116l-86 -72q-116 -98 -116 -206q0 -79 54 -128q50 -46 142 -46q31 0 57 4.5t48.5 15t43 28
t41.5 42.5q12 14 26 33.5t30 44.5l155 -127q-131 -240 -393 -240q-214 0 -323 123q-91 103 -91 250q0 94 30 156q42 86 143 181l96 90q45 42 52 58q7 14 7 75v125h209z" />
    <glyph glyph-name="Agrave" unicode="&#xc0;" horiz-adv-x="1292" 
d="M343 1728l195 105l236 -324l-135 -78zM425 550h440l-221 595zM352 352l-129 -352h-223l515 1365h262l515 -1365h-224l-130 352h-586z" />
    <glyph glyph-name="Aacute" unicode="&#xc1;" horiz-adv-x="1292" 
d="M943 1728l-295 -297l-135 78l235 324zM425 550h440l-221 595zM352 352l-129 -352h-223l515 1365h262l515 -1365h-224l-130 352h-586z" />
    <glyph glyph-name="Acircumflex" unicode="&#xc2;" horiz-adv-x="1292" 
d="M646 1612l-184 -180l-153 77l267 292h140l266 -292l-153 -77zM425 550h440l-221 595zM352 352l-129 -352h-223l515 1365h262l515 -1365h-224l-130 352h-586z" />
    <glyph glyph-name="Atilde" unicode="&#xc3;" horiz-adv-x="1292" 
d="M953 1715q-18 -221 -188 -221q-76 0 -151 42q-47 26 -74 27h-1q-23 0 -35 -78l-166 39q11 90 46 145q49 76 146 76q68 0 153 -46q44 -23 72 -23q21 0 29 78zM425 550h440l-221 595zM352 352l-129 -352h-223l515 1365h262l515 -1365h-224l-130 352h-586z" />
    <glyph glyph-name="Adieresis" unicode="&#xc4;" horiz-adv-x="1292" 
d="M457 1749q54 0 94 -38q38 -38 38 -92t-38 -92q-40 -38 -95 -38t-92 39q-38 38 -38 93q0 52 39 90q40 38 92 38zM835 1749q53 0 93 -38q38 -38 38 -92t-38 -92q-40 -38 -94 -38q-56 0 -93 39q-38 38 -38 93q0 53 39 91q38 37 93 37zM425 550h440l-221 595zM352 352
l-129 -352h-223l515 1365h262l515 -1365h-224l-130 352h-586z" />
    <glyph glyph-name="Aring" unicode="&#xc5;" horiz-adv-x="1292" 
d="M645 1725q-22 0 -41 -8.5t-33.5 -22.5t-22.5 -34t-8 -42q0 -41 32 -73q31 -31 74 -31q45 0 75.5 30.5t30.5 75.5q0 22 -8.5 41t-22.5 33.5t-34 22.5t-42 8zM645 1825q95 0 158 -69q53 -59 53 -136q0 -92 -68 -152q-60 -54 -142 -54q-87 0 -148 60q-62 62 -62 149
q0 86 69 149q59 53 140 53zM425 550h440l-221 595zM352 352l-129 -352h-223l515 1365h262l515 -1365h-224l-130 352h-586z" />
    <glyph glyph-name="AE" unicode="&#xc6;" horiz-adv-x="1719" 
d="M884 550v619h-49l-317 -619h366zM884 352h-468l-180 -352h-237l711 1365h917v-196h-530v-378h471v-198h-471v-395h550v-198h-763v352z" />
    <glyph glyph-name="Ccedilla" unicode="&#xc7;" horiz-adv-x="1372" 
d="M708 -62l187 -81l-242 -306l-145 73zM1162 1007q-69 72 -126 112q-110 74 -250 74q-226 0 -368 -162q-130 -146 -130 -349q0 -233 166 -383q140 -127 331 -127q163 0 294 105q14 12 36.5 33t52.5 52l149 -145q-92 -92 -170 -142q-160 -103 -359 -103q-197 0 -363 96
q-163 95 -257 259q-96 165 -96 355q0 188 95 354q96 169 261 263q163 94 358 94q151 0 276 -57q126 -59 249 -185z" />
    <glyph glyph-name="Egrave" unicode="&#xc8;" horiz-adv-x="984" 
d="M246 1728l195 105l235 -324l-135 -78zM892 1169h-529v-378h470v-198h-470v-395h549v-198h-762v1365h742v-196z" />
    <glyph glyph-name="Eacute" unicode="&#xc9;" horiz-adv-x="984" 
d="M818 1728l-296 -297l-135 78l236 324zM892 1169h-529v-378h470v-198h-470v-395h549v-198h-762v1365h742v-196z" />
    <glyph glyph-name="Ecircumflex" unicode="&#xca;" horiz-adv-x="984" 
d="M532 1612l-184 -180l-153 77l267 292h140l266 -292l-152 -77zM892 1169h-529v-378h470v-198h-470v-395h549v-198h-762v1365h742v-196z" />
    <glyph glyph-name="Edieresis" unicode="&#xcb;" horiz-adv-x="984" 
d="M341 1749q54 0 94 -38q38 -38 38 -92t-38 -92q-40 -38 -93 -38q-28 0 -52 10t-42 28t-28 42t-10 52q0 52 39 90q38 38 92 38zM717 1749q54 0 94 -38q38 -38 38 -92t-38 -92q-40 -38 -93 -38q-28 0 -52 10t-42 28t-28 42t-10 52q0 52 39 90q40 38 92 38zM892 1169h-529
v-378h470v-198h-470v-395h549v-198h-762v1365h742v-196z" />
    <glyph glyph-name="Igrave" unicode="&#xcc;" horiz-adv-x="513" 
d="M-49 1728l195 105l235 -324l-135 -78zM363 1365v-1365h-213v1365h213z" />
    <glyph glyph-name="Iacute" unicode="&#xcd;" horiz-adv-x="513" 
d="M561 1728l-295 -297l-135 78l236 324zM363 1365v-1365h-213v1365h213z" />
    <glyph glyph-name="Icircumflex" unicode="&#xce;" horiz-adv-x="513" 
d="M257 1612l-184 -180l-153 77l267 292h139l267 -292l-153 -77zM363 1365v-1365h-213v1365h213z" />
    <glyph glyph-name="Idieresis" unicode="&#xcf;" horiz-adv-x="513" 
d="M108 1749q54 0 94 -38q38 -38 38 -92t-38 -92q-40 -38 -94 -38q-56 0 -93 39q-38 38 -38 93q0 53 39 91q38 37 92 37zM406 1749q53 0 93 -38q38 -38 38 -92t-38 -92q-40 -38 -94 -38q-56 0 -93 39q-38 38 -38 93q0 52 39 90q40 38 93 38zM364 1365v-1365h-213v1365h213z
" />
    <glyph glyph-name="Eth" unicode="&#xd0;" horiz-adv-x="1293" 
d="M388 831h305v-189h-305v-444h96q177 0 302 71q221 128 221 415q0 284 -221 412q-125 71 -302 71h-96v-336zM44 642v189h131v534h303q252 0 430 -103q148 -86 225 -222q88 -154 88 -355q0 -284 -164 -463q-204 -222 -579 -222h-303v642h-131z" />
    <glyph glyph-name="Ntilde" unicode="&#xd1;" horiz-adv-x="1450" 
d="M1038 1715q-17 -221 -188 -221q-76 0 -151 42q-47 25 -75 27h-1q-20 0 -34 -78l-166 39q23 221 192 221q68 0 153 -46q44 -23 72 -23q21 0 29 78zM150 0v1365h187l751 -1004v1004h212v-1365h-187l-750 1004v-1004h-213z" />
    <glyph glyph-name="Ograve" unicode="&#xd2;" horiz-adv-x="1562" 
d="M480 1728l195 105l236 -324l-135 -78zM777 1193q-212 0 -358 -164q-131 -146 -131 -355q0 -167 100 -300q77 -104 195 -158q97 -44 197 -44q124 0 240 66q60 34 105.5 80t79.5 104q68 119 68 260q0 230 -168 385q-138 126 -328 126zM780 1393q190 0 350 -94
q166 -97 263 -262q96 -165 96 -355t-97 -356q-94 -163 -261 -259q-166 -95 -348 -95q-270 0 -473 182q-238 211 -238 537q0 185 96 346q101 168 263 262q163 94 349 94z" />
    <glyph glyph-name="Oacute" unicode="&#xd3;" horiz-adv-x="1562" 
d="M1080 1728l-295 -297l-135 78l235 324zM777 1193q-212 0 -358 -164q-131 -146 -131 -355q0 -167 100 -300q77 -104 195 -158q97 -44 197 -44q124 0 240 66q60 34 105.5 80t79.5 104q68 119 68 260q0 230 -168 385q-138 126 -328 126zM780 1393q190 0 350 -94
q166 -97 263 -262q96 -165 96 -355t-97 -356q-94 -163 -261 -259q-166 -95 -348 -95q-270 0 -473 182q-238 211 -238 537q0 185 96 346q101 168 263 262q163 94 349 94z" />
    <glyph glyph-name="Ocircumflex" unicode="&#xd4;" horiz-adv-x="1562" 
d="M780 1612l-183 -180l-153 77l267 292h139l267 -292l-153 -77zM777 1193q-212 0 -358 -164q-131 -146 -131 -355q0 -167 100 -300q77 -104 195 -158q97 -44 197 -44q124 0 240 66q60 34 105.5 80t79.5 104q68 119 68 260q0 230 -168 385q-138 126 -328 126zM780 1393
q190 0 350 -94q166 -97 263 -262q96 -165 96 -355t-97 -356q-94 -163 -261 -259q-166 -95 -348 -95q-270 0 -473 182q-238 211 -238 537q0 185 96 346q101 168 263 262q163 94 349 94z" />
    <glyph glyph-name="Otilde" unicode="&#xd5;" horiz-adv-x="1562" 
d="M1088 1715q-17 -221 -188 -221q-76 0 -151 42q-50 27 -75 27q-6 0 -11 -3t-8.5 -11.5t-7.5 -24t-8 -39.5l-166 39q9 89 45 145q49 76 146 76q69 0 154 -46q44 -23 72 -23q20 0 28 78zM777 1193q-212 0 -358 -164q-131 -146 -131 -355q0 -167 100 -300q77 -104 195 -158
q97 -44 197 -44q124 0 240 66q60 34 105.5 80t79.5 104q68 119 68 260q0 230 -168 385q-138 126 -328 126zM780 1393q190 0 350 -94q166 -97 263 -262q96 -165 96 -355t-97 -356q-94 -163 -261 -259q-166 -95 -348 -95q-270 0 -473 182q-238 211 -238 537q0 185 96 346
q101 168 263 262q163 94 349 94z" />
    <glyph glyph-name="Odieresis" unicode="&#xd6;" horiz-adv-x="1562" 
d="M592 1749q54 0 94 -38q38 -38 38 -92t-38 -92q-40 -38 -93 -38q-28 0 -52 10t-42 28t-28 42t-10 52q0 53 39 91q37 37 92 37zM969 1749q53 0 93 -38q38 -38 38 -92t-38 -92q-40 -38 -94 -38q-56 0 -93 39q-38 38 -38 93q0 52 39 90q40 38 93 38zM777 1193
q-212 0 -358 -164q-131 -146 -131 -355q0 -167 100 -300q77 -104 195 -158q97 -44 197 -44q124 0 240 66q60 34 105.5 80t79.5 104q68 119 68 260q0 230 -168 385q-138 126 -328 126zM780 1393q190 0 350 -94q166 -97 263 -262q96 -165 96 -355t-97 -356q-94 -163 -261 -259
q-166 -95 -348 -95q-270 0 -473 182q-238 211 -238 537q0 185 96 346q101 168 263 262q163 94 349 94z" />
    <glyph glyph-name="multiply" unicode="&#xd7;" horiz-adv-x="1139" 
d="M439 639l-289 289l130 130l289 -289l289 289l130 -130l-289 -289l289 -289l-130 -130l-289 289l-289 -289l-130 130z" />
    <glyph glyph-name="Oslash" unicode="&#xd8;" horiz-adv-x="1577" 
d="M494 275q133 -103 293 -103q125 0 241 66q60 34 105.5 80t79.5 104q68 119 68 264q0 150 -87 287zM1084 1091q-137 102 -292 102q-220 0 -365 -163q-131 -148 -131 -354q0 -148 87 -284zM233 244q-153 192 -153 437q0 189 96 356q95 165 263 262q163 94 350 94
q246 0 440 -157l134 134l117 -113l-137 -136q154 -193 154 -438q0 -191 -97 -357q-95 -165 -261 -259q-166 -95 -351 -95q-245 0 -441 157l-134 -134l-116 113z" />
    <glyph glyph-name="Ugrave" unicode="&#xd9;" horiz-adv-x="1307" 
d="M367 1728l195 105l236 -324l-135 -78zM150 1365h213v-842q0 -46 2 -80.5t6 -57.5q8 -49 28 -84q33 -56 104 -92q70 -37 150 -37q117 0 205 73q51 42 68 98q17 57 17 180v842h213v-881q0 -171 -59 -272q-62 -105 -172 -167q-124 -73 -272 -73q-204 0 -351 129
q-82 70 -117 160t-35 223v881z" />
    <glyph glyph-name="Uacute" unicode="&#xda;" horiz-adv-x="1307" 
d="M939 1728l-295 -297l-135 78l235 324zM150 1365h213v-842q0 -46 2 -80.5t6 -57.5q8 -49 28 -84q33 -56 104 -92q70 -37 150 -37q117 0 205 73q51 42 68 98q17 57 17 180v842h213v-881q0 -171 -59 -272q-62 -105 -172 -167q-124 -73 -272 -73q-204 0 -351 129
q-82 70 -117 160t-35 223v881z" />
    <glyph glyph-name="Ucircumflex" unicode="&#xdb;" horiz-adv-x="1307" 
d="M653 1612l-184 -180l-152 77l267 292h139l267 -292l-153 -77zM150 1365h213v-842q0 -46 2 -80.5t6 -57.5q8 -49 28 -84q33 -56 104 -92q70 -37 150 -37q117 0 205 73q51 42 68 98q17 57 17 180v842h213v-881q0 -171 -59 -272q-62 -105 -172 -167q-124 -73 -272 -73
q-204 0 -351 129q-82 70 -117 160t-35 223v881z" />
    <glyph glyph-name="Udieresis" unicode="&#xdc;" horiz-adv-x="1307" 
d="M465 1749q54 0 94 -38q38 -38 38 -92t-38 -92q-40 -38 -95 -38t-92 39q-38 38 -38 93q0 52 39 90q40 38 92 38zM842 1749q53 0 93 -38q38 -38 38 -92t-38 -92q-40 -38 -94 -38q-56 0 -93 39q-38 38 -38 93q0 52 39 90q40 38 93 38zM150 1365h213v-842q0 -46 2 -80.5
t6 -57.5q8 -49 28 -84q33 -56 104 -92q70 -37 150 -37q117 0 205 73q51 42 68 98q17 57 17 180v842h213v-881q0 -171 -59 -272q-62 -105 -172 -167q-124 -73 -272 -73q-204 0 -351 129q-82 70 -117 160t-35 223v881z" />
    <glyph glyph-name="Yacute" unicode="&#xdd;" horiz-adv-x="1083" 
d="M827 1728l-296 -297l-135 78l236 324zM1097 1365l-449 -798v-567h-213v567l-449 798h236l320 -586l320 586h235z" />
    <glyph glyph-name="Thorn" unicode="&#xde;" horiz-adv-x="966" 
d="M363 529h107q150 0 206 66q54 63 54 161q0 138 -97 192q-55 31 -163 31h-107v-450zM363 1173h90q189 0 290 -58q88 -49 138 -139q58 -100 58 -220q0 -168 -104 -287q-65 -71 -152 -102t-230 -31h-90v-336h-213v1365h213v-192z" />
    <glyph glyph-name="germandbls" unicode="&#xdf;" horiz-adv-x="1071" 
d="M115 0v1008q0 226 185 334q88 51 194 51q191 0 300 -121q95 -106 95 -261q0 -156 -99 -253q63 -38 94 -69q24 -24 44 -56t34 -68.5t21.5 -76t7.5 -79.5q0 -179 -128 -298q-122 -111 -332 -111h-121v193h127q127 0 192 75q56 64 56 149q0 96 -67 160q-58 56 -185 56h-31
v187h31q76 0 113 43q43 50 43 142q0 108 -60 161q-50 44 -125 44q-87 0 -138 -58q-47 -55 -47 -144v-1008h-204z" />
    <glyph glyph-name="agrave" unicode="&#xe0;" horiz-adv-x="1117" 
d="M229 1319l195 104l236 -324l-136 -77zM529 751q-114 0 -194 -86q-72 -78 -72 -210q0 -151 92 -232q75 -66 178 -66q118 0 195 84q72 79 72 216q0 150 -91 229q-74 65 -180 65zM1001 0h-204v79q-139 -107 -280 -107q-113 0 -219 61q-113 65 -176 176q-65 113 -65 246
q0 218 159 361q135 120 301 120q140 0 280 -107v79h204v-908z" />
    <glyph glyph-name="aacute" unicode="&#xe1;" horiz-adv-x="1117" 
d="M842 1319l-295 -297l-135 77l235 324zM529 751q-114 0 -194 -86q-72 -78 -72 -210q0 -151 92 -232q75 -66 178 -66q118 0 195 84q72 79 72 216q0 150 -91 229q-74 65 -180 65zM1001 0h-204v79q-139 -107 -280 -107q-113 0 -219 61q-113 65 -176 176q-65 113 -65 246
q0 218 159 361q135 120 301 120q140 0 280 -107v79h204v-908z" />
    <glyph glyph-name="acircumflex" unicode="&#xe2;" horiz-adv-x="1117" 
d="M529 1203l-184 -180l-152 76l267 293h139l267 -293l-153 -76zM529 751q-114 0 -194 -86q-72 -78 -72 -210q0 -151 92 -232q75 -66 178 -66q118 0 195 84q72 79 72 216q0 150 -91 229q-74 65 -180 65zM1001 0h-204v79q-139 -107 -280 -107q-113 0 -219 61
q-113 65 -176 176q-65 113 -65 246q0 218 159 361q135 120 301 120q140 0 280 -107v79h204v-908z" />
    <glyph glyph-name="atilde" unicode="&#xe3;" horiz-adv-x="1117" 
d="M836 1305q-18 -221 -188 -221q-76 0 -151 42q-47 26 -74 27h-1q-22 0 -34 -78l-166 39q9 89 45 145q49 76 146 76q68 0 153 -46q44 -23 72 -23q21 0 29 78zM529 751q-114 0 -194 -86q-72 -78 -72 -210q0 -151 92 -232q75 -66 178 -66q118 0 195 84q72 79 72 216
q0 150 -91 229q-74 65 -180 65zM1001 0h-204v79q-139 -107 -280 -107q-113 0 -219 61q-113 65 -176 176q-65 113 -65 246q0 218 159 361q135 120 301 120q140 0 280 -107v79h204v-908z" />
    <glyph glyph-name="adieresis" unicode="&#xe4;" horiz-adv-x="1117" 
d="M357 1344q54 0 94 -38q38 -38 38 -92t-38 -92q-40 -38 -93 -38q-28 0 -52 10t-42 28t-28 42t-10 52q0 52 39 90q38 38 92 38zM735 1344q53 0 93 -38q38 -38 38 -92t-38 -92q-40 -38 -94 -38q-56 0 -93 39q-38 38 -38 93q0 52 39 90q40 38 93 38zM529 751q-114 0 -194 -86
q-72 -78 -72 -210q0 -151 92 -232q75 -66 178 -66q118 0 195 84q72 79 72 216q0 150 -91 229q-74 65 -180 65zM1001 0h-204v79q-139 -107 -280 -107q-113 0 -219 61q-113 65 -176 176q-65 113 -65 246q0 218 159 361q135 120 301 120q140 0 280 -107v79h204v-908z" />
    <glyph glyph-name="aring" unicode="&#xe5;" horiz-adv-x="1117" 
d="M552 1316q-21 0 -40.5 -8.5t-33.5 -23t-22.5 -34t-8.5 -41.5q0 -21 8.5 -40.5t23 -33.5t34 -22.5t40.5 -8.5q45 0 75.5 30.5t30.5 75.5q0 22 -8.5 41.5t-22.5 33.5t-34 22.5t-42 8.5zM552 1416q95 0 158 -69q53 -59 53 -137q0 -90 -68 -152q-60 -54 -144 -54
q-94 0 -155 69q-53 59 -53 140q0 86 69 149q58 54 140 54zM529 751q-114 0 -194 -86q-72 -78 -72 -210q0 -151 92 -232q75 -66 178 -66q118 0 195 84q72 79 72 216q0 150 -91 229q-74 65 -180 65zM1001 0h-204v79q-139 -107 -280 -107q-113 0 -219 61q-113 65 -176 176
q-65 113 -65 246q0 218 159 361q135 120 301 120q140 0 280 -107v79h204v-908z" />
    <glyph glyph-name="ae" unicode="&#xe6;" horiz-adv-x="1674" 
d="M1412 534q-19 83 -64 139q-66 82 -176 82q-46 0 -86 -15.5t-71.5 -44t-53.5 -69.5t-32 -92h483zM713 436h-228q-224 0 -224 -144q0 -139 227 -139q225 0 225 150v133zM1607 230q-152 -258 -426 -258q-197 0 -332 144q-102 -144 -361 -144q-168 0 -283 65
q-148 85 -148 252q0 164 141 247q100 58 259 58h250q-36 162 -232 162q-147 0 -283 -104l-104 133q104 83 196 117t212 34q121 0 211 -38.5t135 -110.5q137 149 328 149q197 0 322 -141q124 -140 124 -366v-21.5t-1 -31.5h-686q15 -74 52 -124q71 -95 203 -95q72 0 133 31
t96 86l19 29z" />
    <glyph glyph-name="ccedilla" unicode="&#xe7;" horiz-adv-x="947" 
d="M461 -62l187 -81l-241 -306l-146 73zM773 626q-68 74 -116 99q-50 26 -119 26q-126 0 -203 -86q-72 -78 -72 -210q0 -150 91 -231q74 -67 184 -67q72 0 126 30q54 29 115 102l137 -133q-34 -37 -65 -64.5t-60 -46.5q-112 -73 -254 -73q-219 0 -358 156q-122 137 -122 327
q0 217 156 360q133 121 324 121q54 0 102.5 -10t93.5 -31.5t88.5 -55t88.5 -80.5z" />
    <glyph glyph-name="egrave" unicode="&#xe8;" horiz-adv-x="1012" 
d="M216 1319l195 104l236 -324l-135 -77zM751 534q-23 88 -65 140q-64 82 -175 82q-94 0 -158 -58t-86 -164h484zM267 376q15 -72 53 -124q71 -95 203 -95q72 0 132.5 31t96.5 86l18 29l176 -73q-153 -258 -424 -258q-210 0 -343 151q-122 140 -122 332q0 224 156 367
q125 115 296 115q194 0 323 -144q67 -75 98 -185q24 -84 24 -174v-22t-1 -36h-686z" />
    <glyph glyph-name="eacute" unicode="&#xe9;" horiz-adv-x="1012" 
d="M796 1319l-296 -297l-135 77l236 324zM751 534q-23 88 -65 140q-64 82 -175 82q-94 0 -158 -58t-86 -164h484zM267 376q15 -72 53 -124q71 -95 203 -95q72 0 132.5 31t96.5 86l18 29l176 -73q-153 -258 -424 -258q-210 0 -343 151q-122 140 -122 332q0 224 156 367
q125 115 296 115q194 0 323 -144q67 -75 98 -185q24 -84 24 -174v-22t-1 -36h-686z" />
    <glyph glyph-name="ecircumflex" unicode="&#xea;" horiz-adv-x="1012" 
d="M505 1203l-184 -180l-152 76l267 293h139l267 -293l-153 -76zM751 534q-23 88 -65 140q-64 82 -175 82q-94 0 -158 -58t-86 -164h484zM267 376q15 -72 53 -124q71 -95 203 -95q72 0 132.5 31t96.5 86l18 29l176 -73q-153 -258 -424 -258q-210 0 -343 151
q-122 140 -122 332q0 224 156 367q125 115 296 115q194 0 323 -144q67 -75 98 -185q24 -84 24 -174v-22t-1 -36h-686z" />
    <glyph glyph-name="edieresis" unicode="&#xeb;" horiz-adv-x="1012" 
d="M317 1344q54 0 94 -38q38 -38 38 -92t-38 -92q-40 -38 -93 -38q-28 0 -52 10t-42 28t-28 42t-10 52q0 52 39 90q40 38 92 38zM694 1344q53 0 93 -38q38 -38 38 -92t-38 -92q-40 -38 -93 -38q-28 0 -52 10t-42 28t-28 42t-10 52q0 52 39 90q40 38 93 38zM751 534
q-23 88 -65 140q-64 82 -175 82q-94 0 -158 -58t-86 -164h484zM267 376q15 -72 53 -124q71 -95 203 -95q72 0 132.5 31t96.5 86l18 29l176 -73q-153 -258 -424 -258q-210 0 -343 151q-122 140 -122 332q0 224 156 367q125 115 296 115q194 0 323 -144q67 -75 98 -185
q24 -84 24 -174v-22t-1 -36h-686z" />
    <glyph glyph-name="igrave" unicode="&#xec;" horiz-adv-x="436" 
d="M-94 1319l195 104l235 -324l-135 -77zM320 908v-908h-204v908h204z" />
    <glyph glyph-name="iacute" unicode="&#xed;" horiz-adv-x="436" 
d="M530 1319l-295 -297l-135 77l236 324zM320 908v-908h-204v908h204z" />
    <glyph glyph-name="icircumflex" unicode="&#xee;" horiz-adv-x="436" 
d="M219 1203l-184 -180l-153 76l267 293h139l267 -293l-153 -76zM320 908v-908h-204v908h204z" />
    <glyph glyph-name="idieresis" unicode="&#xef;" horiz-adv-x="436" 
d="M69 1344q54 0 94 -38q38 -38 38 -92t-38 -92q-40 -38 -93 -38q-28 0 -52 10t-42 28t-28 42t-10 52q0 52 39 90q40 38 92 38zM367 1344q53 0 93 -38q38 -38 38 -92t-38 -92q-40 -38 -94 -38q-56 0 -93 39q-38 38 -38 93q0 52 39 90q40 38 93 38zM320 908v-908h-204v908
h204z" />
    <glyph glyph-name="eth" unicode="&#xf0;" horiz-adv-x="1070" 
d="M530 751q-115 0 -195 -86q-72 -78 -72 -210q0 -149 92 -232q75 -66 179 -66q122 0 200 86q72 79 72 214q0 146 -91 227q-74 67 -185 67zM754 881q-2 4 -5 8.5t-5 9.5q-29 60 -55.5 106t-49.5 78t-50.5 62t-59.5 58l-216 -111l-129 118l189 97q-117 58 -237 93l87 129
q181 -48 327 -132l224 112l121 -116l-204 -106q64 -66 115.5 -138t91.5 -151q53 -108 84 -244q16 -69 23.5 -136t7.5 -133q0 -253 -158 -393q-137 -120 -320 -120q-214 0 -354 155q-124 136 -124 327q0 219 157 361q133 121 319 121q120 0 221 -55z" />
    <glyph glyph-name="ntilde" unicode="&#xf1;" horiz-adv-x="1043" 
d="M832 1305q-17 -221 -188 -221q-76 0 -151 42q-50 27 -75 27q-6 0 -11 -3t-8.5 -11.5t-7.5 -24t-8 -39.5l-166 39q9 90 46 145q49 76 146 76q68 0 153 -46q44 -23 72 -23q20 0 28 78zM115 908h204v-66q97 94 231 94q148 0 254 -94q33 -29 56 -63.5t38 -77t22 -95t7 -117.5
v-489h-204v473q0 133 -33 195q-44 80 -159 80q-58 0 -106.5 -24.5t-71.5 -64.5q-34 -61 -34 -205v-454h-204v908z" />
    <glyph glyph-name="ograve" unicode="&#xf2;" horiz-adv-x="1070" 
d="M235 1319l195 104l235 -324l-135 -77zM530 751q-115 0 -195 -86q-72 -78 -72 -210q0 -149 92 -232q75 -66 179 -66q122 0 200 86q72 79 72 214q0 146 -91 227q-74 67 -185 67zM543 936q206 0 346 -156q123 -137 123 -325q0 -222 -159 -364q-134 -119 -318 -119
q-214 0 -354 155q-124 136 -124 331q0 215 157 357q133 121 329 121z" />
    <glyph glyph-name="oacute" unicode="&#xf3;" horiz-adv-x="1070" 
d="M835 1319l-296 -297l-135 77l236 324zM530 751q-115 0 -195 -86q-72 -78 -72 -210q0 -149 92 -232q75 -66 179 -66q122 0 200 86q72 79 72 214q0 146 -91 227q-74 67 -185 67zM543 936q206 0 346 -156q123 -137 123 -325q0 -222 -159 -364q-134 -119 -318 -119
q-214 0 -354 155q-124 136 -124 331q0 215 157 357q133 121 329 121z" />
    <glyph glyph-name="ocircumflex" unicode="&#xf4;" horiz-adv-x="1070" 
d="M535 1203l-184 -180l-153 76l267 293h139l267 -293l-153 -76zM532 751q-74 0 -139 -38q-130 -79 -130 -258q0 -150 92 -231q74 -67 179 -67q122 0 200 86q72 79 72 216q0 144 -91 225q-74 67 -183 67zM542 936q207 0 347 -156q123 -137 123 -325q0 -222 -159 -364
q-134 -119 -318 -119q-214 0 -354 155q-124 136 -124 331q0 215 157 357q133 121 328 121z" />
    <glyph glyph-name="otilde" unicode="&#xf5;" horiz-adv-x="1070" 
d="M842 1305q-17 -221 -188 -221q-76 0 -151 42q-47 25 -75 27h-1q-20 0 -34 -78l-166 39q9 89 45 145q49 76 146 76q68 0 154 -46q44 -23 72 -23q20 0 28 78zM530 751q-115 0 -195 -86q-72 -78 -72 -210q0 -149 92 -232q75 -66 179 -66q122 0 200 86q72 79 72 214
q0 146 -91 227q-74 67 -185 67zM543 936q206 0 346 -156q123 -137 123 -325q0 -222 -159 -364q-134 -119 -318 -119q-214 0 -354 155q-124 136 -124 331q0 215 157 357q133 121 329 121z" />
    <glyph glyph-name="odieresis" unicode="&#xf6;" horiz-adv-x="1070" 
d="M344 1344q54 0 94 -38q38 -38 38 -92t-38 -92q-40 -38 -95 -38t-92 39q-38 38 -38 93q0 53 39 91q38 37 92 37zM721 1344q53 0 93 -38q38 -38 38 -92t-38 -92q-40 -38 -93 -38q-56 0 -93 39q-39 37 -39 93q0 52 39 90q40 38 93 38zM530 751q-115 0 -195 -86
q-72 -78 -72 -210q0 -149 92 -232q75 -66 179 -66q122 0 200 86q72 79 72 214q0 146 -91 227q-74 67 -185 67zM543 936q206 0 346 -156q123 -137 123 -325q0 -222 -159 -364q-134 -119 -318 -119q-214 0 -354 155q-124 136 -124 331q0 215 157 357q133 121 329 121z" />
    <glyph glyph-name="divide" unicode="&#xf7;" horiz-adv-x="1139" 
d="M571 418q55 0 95 -40t40 -96q0 -57 -40 -97t-97 -40q-55 0 -96 41q-40 40 -40 96t41 97q40 39 97 39zM571 1134q55 0 95 -40t40 -96q0 -57 -40 -97t-97 -40q-55 0 -96 41q-40 40 -40 96t41 97q40 39 97 39zM1036 730v-183h-933v183h933z" />
    <glyph glyph-name="oslash" unicode="&#xf8;" horiz-adv-x="1097" 
d="M705 704q-68 47 -155 47q-124 0 -201 -86q-72 -80 -72 -211q0 -70 26 -137zM393 204q67 -47 155 -47q123 0 199 85q73 79 73 215q0 74 -26 134zM71 95l85 82q-85 127 -85 275q0 222 159 365q134 119 320 119q166 0 293 -100l80 77l103 -100l-84 -81q84 -123 84 -277
q0 -222 -159 -364q-134 -119 -321 -119q-159 0 -292 100l-80 -77z" />
    <glyph glyph-name="ugrave" unicode="&#xf9;" horiz-adv-x="1043" 
d="M225 1319l195 104l235 -324l-135 -77zM927 0h-204v66q-97 -94 -231 -94q-148 0 -254 94q-33 29 -56.5 63.5t-38 77t-21.5 95t-7 117.5v489h204v-473q0 -135 33 -195q44 -80 160 -80q28 0 55.5 6.5t50.5 18t41.5 28t29.5 36.5q34 61 34 205v454h204v-908z" />
    <glyph glyph-name="uacute" unicode="&#xfa;" horiz-adv-x="1043" 
d="M811 1319l-295 -297l-135 77l235 324zM927 0h-204v66q-97 -94 -231 -94q-148 0 -254 94q-33 29 -56.5 63.5t-38 77t-21.5 95t-7 117.5v489h204v-473q0 -135 33 -195q44 -80 160 -80q28 0 55.5 6.5t50.5 18t41.5 28t29.5 36.5q34 61 34 205v454h204v-908z" />
    <glyph glyph-name="ucircumflex" unicode="&#xfb;" horiz-adv-x="1043" 
d="M521 1203l-183 -180l-153 76l267 293h139l267 -293l-153 -76zM927 0h-204v66q-97 -94 -231 -94q-148 0 -254 94q-33 29 -56.5 63.5t-38 77t-21.5 95t-7 117.5v489h204v-473q0 -135 33 -195q44 -80 160 -80q28 0 55.5 6.5t50.5 18t41.5 28t29.5 36.5q34 61 34 205v454h204
v-908z" />
    <glyph glyph-name="udieresis" unicode="&#xfc;" horiz-adv-x="1043" 
d="M333 1344q54 0 94 -38q38 -38 38 -92t-38 -92q-40 -38 -93 -38q-28 0 -52 10t-42 28t-28 42t-10 52q0 52 39 90q40 38 92 38zM710 1344q53 0 93 -38q38 -38 38 -92t-38 -92q-40 -38 -94 -38q-56 0 -93 39q-38 38 -38 93q0 53 39 91q38 37 93 37zM927 0h-204v66
q-97 -94 -231 -94q-148 0 -254 94q-33 29 -56.5 63.5t-38 77t-21.5 95t-7 117.5v489h204v-473q0 -135 33 -195q44 -80 160 -80q28 0 55.5 6.5t50.5 18t41.5 28t29.5 36.5q34 61 34 205v454h204v-908z" />
    <glyph glyph-name="yacute" unicode="&#xfd;" horiz-adv-x="948" 
d="M132 -478l228 521l-372 865h221l261 -617l270 617h220l-614 -1386h-214zM769 1319l-295 -297l-135 77l235 324z" />
    <glyph glyph-name="thorn" unicode="&#xfe;" horiz-adv-x="1119" 
d="M585 751q-115 0 -192 -83q-73 -79 -73 -216q0 -150 91 -231q71 -64 176 -64q73 0 138 38q130 79 130 258q0 151 -92 232q-75 66 -178 66zM117 1365h204v-536q139 107 280 107q113 0 219 -61q113 -65 176 -176q65 -113 65 -246q0 -219 -159 -361q-135 -120 -301 -120
q-140 0 -280 107v-557h-204v1843z" />
    <glyph glyph-name="ydieresis" unicode="&#xff;" horiz-adv-x="948" 
d="M132 -478l228 521l-372 865h221l261 -617l270 617h220l-614 -1386h-214zM285 1344q54 0 94 -38q38 -38 38 -92t-38 -92q-40 -38 -93 -38q-28 0 -52 10t-42 28t-28 42t-10 52q0 52 39 90q38 38 92 38zM663 1344q53 0 93 -38q38 -38 38 -92t-38 -92q-40 -38 -94 -38
q-56 0 -93 39q-38 38 -38 93q0 52 39 90q40 38 93 38z" />
    <glyph glyph-name="Amacron" unicode="&#x100;" horiz-adv-x="1292" 
d="M340 1711h612v-183h-612v183zM425 550h440l-221 595zM352 352l-129 -352h-223l515 1365h262l515 -1365h-224l-130 352h-586z" />
    <glyph glyph-name="amacron" unicode="&#x101;" horiz-adv-x="1117" 
d="M247 1301h613v-183h-613v183zM529 751q-114 0 -194 -86q-72 -78 -72 -210q0 -151 92 -232q75 -66 178 -66q118 0 195 84q72 79 72 216q0 150 -91 229q-74 65 -180 65zM1001 0h-204v79q-139 -107 -280 -107q-113 0 -219 61q-113 65 -176 176q-65 113 -65 246
q0 218 159 361q135 120 301 120q140 0 280 -107v79h204v-908z" />
    <glyph glyph-name="Abreve" unicode="&#x102;" horiz-adv-x="1292" 
d="M525 1773q3 -74 13 -94q31 -67 104 -67t106 71q10 18 19 89l177 -14q-12 -104 -38 -154q-84 -166 -263 -166q-133 0 -218 93q-45 49 -59 94q-17 45 -18 133zM425 550h440l-221 595zM352 352l-129 -352h-223l515 1365h262l515 -1365h-224l-130 352h-586z" />
    <glyph glyph-name="abreve" unicode="&#x103;" horiz-adv-x="1117" 
d="M412 1363q5 -75 14 -94q31 -67 103 -67t107 71q9 19 18 90l177 -15q-12 -106 -37 -154q-85 -166 -264 -166q-133 0 -218 93q-45 49 -59 94q-16 45 -18 134zM529 751q-114 0 -194 -86q-72 -78 -72 -210q0 -151 92 -232q75 -66 178 -66q118 0 195 84q72 79 72 216
q0 150 -91 229q-74 65 -180 65zM1001 0h-204v79q-139 -107 -280 -107q-113 0 -219 61q-113 65 -176 176q-65 113 -65 246q0 218 159 361q135 120 301 120q140 0 280 -107v79h204v-908z" />
    <glyph glyph-name="Aogonek" unicode="&#x104;" horiz-adv-x="1292" 
d="M425 550h440l-221 595zM515 1365h262l515 -1365q-2 -2 -4.5 -5.5l-5.5 -7.5q-64 -79 -64 -121q0 -29 36 -29t96 22l60 -152q-102 -39 -173 -39q-99 0 -159 67q-46 49 -46 120q0 68 55 145h-19l-130 352h-586l-129 -352h-223z" />
    <glyph glyph-name="aogonek" unicode="&#x105;" horiz-adv-x="1117" 
d="M529 751q-114 0 -194 -86q-72 -78 -72 -210q0 -151 92 -232q75 -66 178 -66q118 0 195 84q72 79 72 216q0 150 -91 229q-74 65 -180 65zM797 79q-139 -107 -280 -107q-113 0 -219 61q-113 65 -176 176q-65 113 -65 246q0 218 159 361q135 120 301 120q140 0 280 -107v79
h204v-908q-9 -10 -12 -16q-61 -76 -61 -118q0 -29 36 -29q35 0 95 22l60 -152q-102 -39 -172 -39q-99 0 -159 67q-46 50 -46 120q0 68 55 145v79z" />
    <glyph glyph-name="Cacute" unicode="&#x106;" horiz-adv-x="1372" 
d="M1098 1728l-296 -297l-135 78l236 324zM1162 1007q-69 72 -126 112q-110 74 -250 74q-226 0 -368 -162q-130 -146 -130 -349q0 -233 166 -383q140 -127 331 -127q163 0 294 105q14 12 36.5 33t52.5 52l149 -145q-92 -92 -170 -142q-160 -103 -359 -103q-197 0 -363 96
q-163 95 -257 259q-96 165 -96 355q0 188 95 354q96 169 261 263q163 94 358 94q151 0 276 -57q126 -59 249 -185z" />
    <glyph glyph-name="cacute" unicode="&#x107;" horiz-adv-x="947" 
d="M810 1319l-296 -297l-135 77l236 324zM773 626q-68 74 -116 99q-50 26 -119 26q-126 0 -203 -86q-72 -78 -72 -210q0 -150 91 -231q74 -67 184 -67q72 0 126 30q54 29 115 102l137 -133q-34 -37 -65 -64.5t-60 -46.5q-112 -73 -254 -73q-219 0 -358 156
q-122 137 -122 327q0 217 156 360q133 121 324 121q54 0 102.5 -10t93.5 -31.5t88.5 -55t88.5 -80.5z" />
    <glyph glyph-name="Ccircumflex" unicode="&#x108;" horiz-adv-x="1372" 
d="M764 1612l-184 -180l-153 77l267 292h140l266 -292l-153 -77zM1162 1007q-69 72 -126 112q-110 74 -250 74q-226 0 -368 -162q-130 -146 -130 -349q0 -233 166 -383q140 -127 331 -127q163 0 294 105q14 12 36.5 33t52.5 52l149 -145q-92 -92 -170 -142
q-160 -103 -359 -103q-197 0 -363 96q-163 95 -257 259q-96 165 -96 355q0 188 95 354q96 169 261 263q163 94 358 94q151 0 276 -57q126 -59 249 -185z" />
    <glyph glyph-name="ccircumflex" unicode="&#x109;" horiz-adv-x="947" 
d="M514 1203l-184 -180l-153 76l267 293h140l267 -293l-153 -76zM773 626q-68 74 -116 99q-50 26 -119 26q-126 0 -203 -86q-72 -78 -72 -210q0 -150 91 -231q74 -67 184 -67q72 0 126 30q54 29 115 102l137 -133q-34 -37 -65 -64.5t-60 -46.5q-112 -73 -254 -73
q-219 0 -358 156q-122 137 -122 327q0 217 156 360q133 121 324 121q54 0 102.5 -10t93.5 -31.5t88.5 -55t88.5 -80.5z" />
    <glyph glyph-name="Cdotaccent" unicode="&#x10a;" horiz-adv-x="1372" 
d="M781 1749q54 0 94 -38q38 -38 38 -92t-38 -92q-40 -38 -93 -38q-28 0 -52 10t-42 28t-28 42t-10 52q0 52 39 90q38 38 92 38zM1162 1007q-69 72 -126 112q-110 74 -250 74q-226 0 -368 -162q-130 -146 -130 -349q0 -233 166 -383q140 -127 331 -127q163 0 294 105
q14 12 36.5 33t52.5 52l149 -145q-92 -92 -170 -142q-160 -103 -359 -103q-197 0 -363 96q-163 95 -257 259q-96 165 -96 355q0 188 95 354q96 169 261 263q163 94 358 94q151 0 276 -57q126 -59 249 -185z" />
    <glyph glyph-name="cdotaccent" unicode="&#x10b;" horiz-adv-x="947" 
d="M521 1344q54 0 94 -38q38 -38 38 -92t-38 -92q-40 -38 -93 -38q-28 0 -52 10t-42 28t-28 42t-10 52q0 52 39 90q40 38 92 38zM773 626q-68 74 -116 99q-50 26 -119 26q-126 0 -203 -86q-72 -78 -72 -210q0 -150 91 -231q74 -67 184 -67q72 0 126 30q54 29 115 102
l137 -133q-34 -37 -65 -64.5t-60 -46.5q-112 -73 -254 -73q-219 0 -358 156q-122 137 -122 327q0 217 156 360q133 121 324 121q54 0 102.5 -10t93.5 -31.5t88.5 -55t88.5 -80.5z" />
    <glyph glyph-name="Ccaron" unicode="&#x10c;" horiz-adv-x="1372" 
d="M764 1639l183 180l153 -77l-266 -292h-140l-267 292l153 77zM1162 1007q-69 72 -126 112q-110 74 -250 74q-226 0 -368 -162q-130 -146 -130 -349q0 -233 166 -383q140 -127 331 -127q163 0 294 105q14 12 36.5 33t52.5 52l149 -145q-92 -92 -170 -142
q-160 -103 -359 -103q-197 0 -363 96q-163 95 -257 259q-96 165 -96 355q0 188 95 354q96 169 261 263q163 94 358 94q151 0 276 -57q126 -59 249 -185z" />
    <glyph glyph-name="ccaron" unicode="&#x10d;" horiz-adv-x="947" 
d="M514 1229l184 180l153 -77l-267 -292h-140l-267 292l153 77zM773 626q-68 74 -116 99q-50 26 -119 26q-126 0 -203 -86q-72 -78 -72 -210q0 -150 91 -231q74 -67 184 -67q72 0 126 30q54 29 115 102l137 -133q-34 -37 -65 -64.5t-60 -46.5q-112 -73 -254 -73
q-219 0 -358 156q-122 137 -122 327q0 217 156 360q133 121 324 121q54 0 102.5 -10t93.5 -31.5t88.5 -55t88.5 -80.5z" />
    <glyph glyph-name="Dcaron" unicode="&#x10e;" horiz-adv-x="1267" 
d="M596 1639l183 180l153 -77l-267 -292h-139l-267 292l153 77zM363 1167v-969h96q176 0 301 71q221 128 221 415q0 284 -221 412q-125 71 -301 71h-96zM150 1365h303q251 0 429 -103q148 -86 225 -222q88 -155 88 -356q0 -284 -164 -463q-204 -221 -578 -221h-303v1365z
" />
    <glyph glyph-name="dcaron" unicode="&#x10f;" horiz-adv-x="1360" 
d="M1079 1049l110 373l195 -59l-156 -361zM529 751q-115 0 -193 -85q-73 -79 -73 -211q0 -151 92 -232q76 -66 178 -66q117 0 192 83q73 79 73 217q0 149 -91 230q-71 64 -178 64zM1001 0h-204v79q-139 -107 -280 -107q-113 0 -219 61q-113 65 -176 176q-65 113 -65 246
q0 218 159 361q135 120 301 120q140 0 280 -107v536h204v-1365z" />
    <glyph glyph-name="Dcroat" unicode="&#x110;" horiz-adv-x="1293" 
d="M388 831h305v-189h-305v-444h96q177 0 302 71q221 128 221 415q0 284 -221 412q-125 71 -302 71h-96v-336zM44 642v189h131v534h303q252 0 430 -103q148 -86 225 -222q88 -154 88 -355q0 -284 -164 -463q-204 -222 -579 -222h-303v642h-131z" />
    <glyph glyph-name="dcroat" unicode="&#x111;" horiz-adv-x="1118" 
d="M528 751q-114 0 -193 -85q-72 -80 -72 -211q0 -151 92 -232q75 -66 178 -66q117 0 192 83q73 79 73 217q0 149 -91 230q-71 64 -179 64zM797 1224v141h204v-141h119v-184h-119v-1040h-204v79q-140 -107 -280 -107q-113 0 -219 61q-113 65 -176 176q-65 113 -65 246
q0 218 159 361q135 120 301 120q140 0 280 -107v211h-235v184h235z" />
    <glyph glyph-name="Emacron" unicode="&#x112;" horiz-adv-x="984" 
d="M226 1711h612v-183h-612v183zM892 1169h-529v-378h470v-198h-470v-395h549v-198h-762v1365h742v-196z" />
    <glyph glyph-name="emacron" unicode="&#x113;" horiz-adv-x="1012" 
d="M199 1301h612v-183h-612v183zM751 534q-23 88 -65 140q-64 82 -175 82q-94 0 -158 -58t-86 -164h484zM267 376q15 -72 53 -124q71 -95 203 -95q72 0 132.5 31t96.5 86l18 29l176 -73q-153 -258 -424 -258q-210 0 -343 151q-122 140 -122 332q0 224 156 367
q125 115 296 115q194 0 323 -144q67 -75 98 -185q24 -84 24 -174v-22t-1 -36h-686z" />
    <glyph glyph-name="Ebreve" unicode="&#x114;" horiz-adv-x="984" 
d="M410 1773q5 -75 14 -94q31 -67 103 -67t107 71q9 19 18 89l177 -14q-12 -106 -37 -154q-85 -166 -264 -166q-133 0 -218 93q-45 49 -59 94q-17 45 -18 133zM892 1169h-529v-378h470v-198h-470v-395h549v-198h-762v1365h742v-196z" />
    <glyph glyph-name="ebreve" unicode="&#x115;" horiz-adv-x="1012" 
d="M387 1363q1 -10 1 -16.5t1 -11.5q2 -51 18 -76q32 -56 97 -56q74 0 107 71q8 20 18 89l177 -15q-12 -106 -37 -154q-85 -166 -264 -166q-133 0 -218 93q-45 49 -59 94q-16 45 -18 134zM751 534q-23 88 -65 140q-64 82 -175 82q-94 0 -158 -58t-86 -164h484zM267 376
q15 -72 53 -124q71 -95 203 -95q72 0 132.5 31t96.5 86l18 29l176 -73q-153 -258 -424 -258q-210 0 -343 151q-122 140 -122 332q0 224 156 367q125 115 296 115q194 0 323 -144q67 -75 98 -185q24 -84 24 -174v-22t-1 -36h-686z" />
    <glyph glyph-name="Edotaccent" unicode="&#x116;" horiz-adv-x="984" 
d="M530 1749q54 0 94 -38q38 -38 38 -92t-38 -92q-40 -38 -95 -38t-92 39q-38 38 -38 93q0 52 39 90q40 38 92 38zM892 1169h-529v-378h470v-198h-470v-395h549v-198h-762v1365h742v-196z" />
    <glyph glyph-name="edotaccent" unicode="&#x117;" horiz-adv-x="1012" 
d="M504 1344q54 0 94 -38q38 -38 38 -92t-38 -92q-40 -38 -93 -38q-28 0 -52 10t-42 28t-28 42t-10 52q0 52 39 90q40 38 92 38zM751 534q-23 88 -65 140q-64 82 -175 82q-94 0 -158 -58t-86 -164h484zM267 376q15 -72 53 -124q71 -95 203 -95q72 0 132.5 31t96.5 86l18 29
l176 -73q-153 -258 -424 -258q-210 0 -343 151q-122 140 -122 332q0 224 156 367q125 115 296 115q194 0 323 -144q67 -75 98 -185q24 -84 24 -174v-22t-1 -36h-686z" />
    <glyph glyph-name="Eogonek" unicode="&#x118;" horiz-adv-x="984" 
d="M912 198v-198q-5 -7 -13 -16q-61 -73 -61 -118q0 -29 36 -29t96 22l60 -152q-102 -39 -173 -39q-99 0 -159 67q-46 50 -46 120q0 66 55 145h-557v1365h742v-196h-529v-378h470v-198h-470v-395h549z" />
    <glyph glyph-name="eogonek" unicode="&#x119;" horiz-adv-x="1012" 
d="M751 534q-23 88 -65 140q-64 82 -175 82q-94 0 -158 -58t-86 -164h484zM946 230q-131 -219 -346 -251q-57 -74 -57 -113q0 -29 36 -29t96 22l60 -152q-102 -39 -173 -39q-98 0 -159 67q-46 50 -46 120q0 65 46 132q-98 24 -175 88q-78 64 -123 162q-48 102 -48 218
q0 224 156 367q125 115 296 115q194 0 323 -144q67 -75 98 -185q24 -84 24 -174v-22t-1 -36h-686q15 -72 53 -124q71 -95 203 -95q72 0 132.5 31t96.5 86l18 30z" />
    <glyph glyph-name="Ecaron" unicode="&#x11a;" horiz-adv-x="984" 
d="M532 1639l184 180l152 -77l-266 -292h-140l-267 292l153 77zM892 1169h-529v-378h470v-198h-470v-395h549v-198h-762v1365h742v-196z" />
    <glyph glyph-name="ecaron" unicode="&#x11b;" horiz-adv-x="1012" 
d="M505 1229l184 180l153 -77l-267 -292h-139l-267 292l152 77zM751 534q-23 88 -65 140q-64 82 -175 82q-94 0 -158 -58t-86 -164h484zM267 376q15 -72 53 -124q71 -95 203 -95q72 0 132.5 31t96.5 86l18 29l176 -73q-153 -258 -424 -258q-210 0 -343 151
q-122 140 -122 332q0 224 156 367q125 115 296 115q194 0 323 -144q67 -75 98 -185q24 -84 24 -174v-22t-1 -36h-686z" />
    <glyph glyph-name="Gcircumflex" unicode="&#x11c;" horiz-adv-x="1488" 
d="M755 1612l-184 -180l-152 77l267 292h139l267 -292l-153 -77zM803 735h609v-103q0 -206 -90 -371q-73 -132 -208 -208q-144 -81 -323 -81q-200 0 -365 96q-164 94 -258 258q-96 166 -96 356q0 188 95 354q96 169 261 263q163 94 357 94q245 0 429 -151q14 -12 38 -34.5
l58 -54.5l-148 -144q-74 75 -128 112q-108 72 -248 72q-224 0 -368 -162q-130 -146 -130 -350q0 -232 166 -382q140 -127 334 -127q208 0 322 146q63 81 82 219h-389v198z" />
    <glyph glyph-name="gcircumflex" unicode="&#x11d;" horiz-adv-x="1117" 
d="M529 1203l-184 -180l-153 76l268 293h139l267 -293l-153 -76zM529 751q-115 0 -194 -85q-72 -80 -72 -211q0 -151 92 -232q75 -66 178 -66q116 0 193 83q72 79 72 217q0 149 -91 230q-71 64 -178 64zM1001 908v-925q0 -237 -148 -369q-135 -120 -336 -120
q-210 0 -353 131q-13 12 -34 35l-50 57l133 133l24 -27q60 -70 97 -94q77 -50 178 -50q141 0 216 84q69 78 69 220v96q-122 -107 -271 -107q-122 0 -228 61q-112 64 -176 176q-65 113 -65 246q0 220 159 361q135 120 311 120q145 0 270 -107v79h204z" />
    <glyph glyph-name="Gbreve" unicode="&#x11e;" horiz-adv-x="1488" 
d="M672 1773q1 -10 1.5 -17t0.5 -12q2 -51 18 -76q33 -56 97 -56q74 0 107 71q9 19 18 89l177 -14q-12 -106 -37 -154q-84 -166 -264 -166q-132 0 -217 93q-45 48 -60 94q-8 23 -12 55.5t-5 77.5zM803 735h609v-103q0 -206 -90 -371q-73 -132 -208 -208q-144 -81 -323 -81
q-200 0 -365 96q-164 94 -258 258q-96 166 -96 356q0 188 95 354q96 169 261 263q163 94 357 94q245 0 429 -151q14 -12 38 -34.5l58 -54.5l-148 -144q-74 75 -128 112q-108 72 -248 72q-224 0 -368 -162q-130 -146 -130 -350q0 -232 166 -382q140 -127 334 -127
q208 0 322 146q63 81 82 219h-389v198z" />
    <glyph glyph-name="gbreve" unicode="&#x11f;" horiz-adv-x="1117" 
d="M413 1363q1 -10 1 -16.5v-11.5q3 -51 18 -76q33 -56 97 -56q74 0 107 71q9 19 18 89l177 -15q-5 -53 -14.5 -91t-22.5 -63q-84 -166 -264 -166q-132 0 -217 93q-45 48 -60 94q-16 47 -17 134zM529 751q-115 0 -194 -85q-72 -80 -72 -211q0 -151 92 -232q75 -66 178 -66
q116 0 193 83q72 79 72 217q0 149 -91 230q-71 64 -178 64zM1001 908v-925q0 -237 -148 -369q-135 -120 -336 -120q-210 0 -353 131q-13 12 -34 35l-50 57l133 133l24 -27q60 -70 97 -94q77 -50 178 -50q141 0 216 84q69 78 69 220v96q-122 -107 -271 -107q-122 0 -228 61
q-112 64 -176 176q-65 113 -65 246q0 220 159 361q135 120 311 120q145 0 270 -107v79h204z" />
    <glyph glyph-name="Gdotaccent" unicode="&#x120;" horiz-adv-x="1488" 
d="M789 1749q54 0 94 -38q38 -38 38 -92t-38 -92q-40 -38 -95 -38t-92 39q-38 38 -38 93q0 52 39 90q40 38 92 38zM803 735h609v-103q0 -206 -90 -371q-73 -132 -208 -208q-144 -81 -323 -81q-200 0 -365 96q-164 94 -258 258q-96 166 -96 356q0 188 95 354q96 169 261 263
q163 94 357 94q245 0 429 -151q14 -12 38 -34.5l58 -54.5l-148 -144q-74 75 -128 112q-108 72 -248 72q-224 0 -368 -162q-130 -146 -130 -350q0 -232 166 -382q140 -127 334 -127q208 0 322 146q63 81 82 219h-389v198z" />
    <glyph glyph-name="gdotaccent" unicode="&#x121;" horiz-adv-x="1117" 
d="M529 1344q54 0 94 -38q38 -38 38 -92t-38 -92q-40 -38 -93 -38q-28 0 -52 10t-42 28t-28 42t-10 52q0 52 39 90q40 38 92 38zM529 751q-115 0 -194 -85q-72 -80 -72 -211q0 -151 92 -232q75 -66 178 -66q116 0 193 83q72 79 72 217q0 149 -91 230q-71 64 -178 64z
M1001 908v-925q0 -237 -148 -369q-135 -120 -336 -120q-210 0 -353 131q-13 12 -34 35l-50 57l133 133l24 -27q60 -70 97 -94q77 -50 178 -50q141 0 216 84q69 78 69 220v96q-122 -107 -271 -107q-122 0 -228 61q-112 64 -176 176q-65 113 -65 246q0 220 159 361
q135 120 311 120q145 0 270 -107v79h204z" />
    <glyph glyph-name="Gcommaaccent" unicode="&#x122;" horiz-adv-x="1488" 
d="M591 -436l110 374l195 -60l-155 -361zM803 735h609v-103q0 -206 -90 -371q-73 -132 -208 -208q-144 -81 -323 -81q-200 0 -365 96q-164 94 -258 258q-96 166 -96 356q0 188 95 354q96 169 261 263q163 94 357 94q245 0 429 -151q14 -12 38 -34.5l58 -54.5l-148 -144
q-74 75 -128 112q-108 72 -248 72q-224 0 -368 -162q-130 -146 -130 -350q0 -232 166 -382q140 -127 334 -127q208 0 322 146q63 81 82 219h-389v198z" />
    <glyph glyph-name="gcommaaccent" unicode="&#x123;" horiz-adv-x="1117" 
d="M734 1374l-110 -373l-195 59l155 362zM529 751q-115 0 -194 -85q-72 -80 -72 -211q0 -151 92 -232q75 -66 178 -66q116 0 193 83q72 79 72 217q0 149 -91 230q-71 64 -178 64zM1001 908v-925q0 -237 -148 -369q-135 -120 -336 -120q-210 0 -353 131q-13 12 -34 35l-50 57
l133 133l24 -27q60 -70 97 -94q77 -50 178 -50q141 0 216 84q69 78 69 220v96q-122 -107 -271 -107q-122 0 -228 61q-112 64 -176 176q-65 113 -65 246q0 220 159 361q135 120 311 120q145 0 270 -107v79h204z" />
    <glyph glyph-name="Hcircumflex" unicode="&#x124;" horiz-adv-x="1332" 
d="M666 1612l-184 -180l-153 77l267 292h140l267 -292l-153 -77zM150 1365h213v-574h606v574h213v-1365h-213v593h-606v-593h-213v1365z" />
    <glyph glyph-name="hcircumflex" unicode="&#x125;" horiz-adv-x="1043" 
d="M528 1612l-184 -180l-153 77l267 292h140l266 -292l-152 -77zM115 1365h204v-523q95 94 231 94q148 0 254 -94q33 -29 56 -63.5t38 -77t22 -95t7 -117.5v-489h-204v473q0 133 -33 195q-44 80 -159 80q-58 0 -106.5 -24.5t-71.5 -64.5q-34 -61 -34 -205v-454h-204v1365z
" />
    <glyph glyph-name="Hbar" unicode="&#x126;" horiz-adv-x="1330" 
d="M969 1040h-608v-249h608v249zM1181 1040v-1040h-212v593h-608v-593h-212v1040h-118v184h118v141h212v-141h608v141h212v-141h118v-184h-118z" />
    <glyph glyph-name="hbar" unicode="&#x127;" horiz-adv-x="1040" 
d="M316 1040v-198q100 94 231 94q149 0 255 -94q33 -29 56.5 -63t38 -76.5t21.5 -95t7 -118.5v-489h-204v473q0 133 -33 195q-44 80 -159 80q-60 0 -108 -24.5t-71 -64.5q-34 -61 -34 -205v-454h-204v1040h-119v184h119v141h204v-141h240v-184h-240z" />
    <glyph glyph-name="Itilde" unicode="&#x128;" horiz-adv-x="513" 
d="M564 1715q-17 -221 -188 -221q-76 0 -151 42q-50 27 -75 27q-7 0 -11.5 -3t-8.5 -11.5t-7.5 -24t-7.5 -39.5l-166 39q9 89 45 145q49 76 146 76q68 0 154 -46q44 -23 72 -23q20 0 28 78zM362 1365v-1365h-212v1365h212z" />
    <glyph glyph-name="itilde" unicode="&#x129;" horiz-adv-x="436" 
d="M526 1305q-17 -221 -188 -221q-76 0 -151 42q-50 27 -75 27q-6 0 -11 -3t-8.5 -11.5t-7.5 -24t-8 -39.5l-166 39q9 89 45 145q49 76 146 76q68 0 154 -46q44 -23 72 -23q20 0 28 78zM320 908v-908h-204v908h204z" />
    <glyph glyph-name="Imacron" unicode="&#x12a;" horiz-adv-x="513" 
d="M-50 1711h613v-183h-613v183zM363 1365v-1365h-213v1365h213z" />
    <glyph glyph-name="imacron" unicode="&#x12b;" horiz-adv-x="436" 
d="M-88 1301h613v-183h-613v183zM320 908v-908h-204v908h204z" />
    <glyph glyph-name="Ibreve" unicode="&#x12c;" horiz-adv-x="513" 
d="M136 1773q3 -74 13 -94q31 -67 104 -67t106 71q10 18 19 89l177 -14q-12 -104 -38 -154q-84 -166 -263 -166q-133 0 -218 93q-44 48 -60 94q-16 47 -17 133zM364 1365v-1365h-213v1365h213z" />
    <glyph glyph-name="ibreve" unicode="&#x12d;" horiz-adv-x="436" 
d="M98 1363q3 -75 13 -93q31 -67 104 -67t106 71q10 18 19 89l177 -15q-12 -104 -38 -154q-84 -166 -263 -166q-133 0 -218 93q-44 48 -60 94q-16 47 -17 134zM321 908v-908h-204v908h204z" />
    <glyph glyph-name="Iogonek" unicode="&#x12e;" horiz-adv-x="513" 
d="M150 1365h212v-1365q-2 -2 -4.5 -5.5l-5.5 -7.5q-63 -81 -63 -121q0 -29 36 -29t95 21l60 -152q-102 -38 -172 -38q-99 0 -159 66q-46 52 -46 121q0 66 55 145h-8v1365z" />
    <glyph glyph-name="iogonek" unicode="&#x12f;" horiz-adv-x="436" 
d="M218 1344q54 0 94 -38q38 -38 38 -92q0 -55 -38 -93q-40 -38 -95 -38q-56 0 -93 39q-38 38 -38 94q0 52 39 90q40 38 93 38zM320 0q-4 -6 -9 -11q-65 -82 -65 -123q0 -29 37 -29q36 0 95 22l60 -152q-102 -39 -172 -39q-99 0 -160 67q-46 50 -46 120q0 65 56 145v908h204
v-908z" />
    <glyph glyph-name="Idotaccent" unicode="&#x130;" horiz-adv-x="513" 
d="M256 1749q54 0 94 -38q38 -38 38 -92t-38 -92q-40 -38 -93 -38q-28 0 -52 10t-42 28t-28 42t-10 52q0 53 39 91q37 37 92 37zM362 1365v-1365h-212v1365h212z" />
    <glyph glyph-name="dotlessi" unicode="&#x131;" horiz-adv-x="436" 
d="M320 908v-908h-204v908h204z" />
    <glyph glyph-name="IJ" unicode="&#x132;" horiz-adv-x="1347" 
d="M1197 1365v-946q0 -104 -12 -164q-14 -62 -46 -119q-40 -72 -115 -115q-82 -49 -185 -49q-97 0 -176 39q-81 37 -174 129l132 154q116 -122 215 -122q62 0 101 43q47 52 47 204v946h213zM363 1365v-1365h-213v1365h213z" />
    <glyph glyph-name="ij" unicode="&#x133;" horiz-adv-x="886" 
d="M409 -284q63 -19 96 -19q26 0 41 16q20 23 20 94v1101h204v-1101q0 -174 -82 -246q-64 -56 -155 -56q-56 0 -124 20v191zM667 1344q54 0 94 -38q38 -38 38 -92q0 -55 -38 -93q-40 -38 -95 -38q-56 0 -93 39q-38 38 -38 94q0 52 39 90q40 38 93 38zM218 1344q54 0 94 -38
q38 -38 38 -92q0 -55 -38 -93q-40 -38 -94 -38q-56 0 -93 39q-39 37 -39 93q0 53 39 91q40 38 93 38zM320 908v-908h-204v908h204z" />
    <glyph glyph-name="Jcircumflex" unicode="&#x134;" horiz-adv-x="851" 
d="M520 1612l-184 -180l-153 77l267 292h140l267 -292l-153 -77zM701 1365v-946q0 -104 -12 -164q-12 -62 -46 -119q-40 -70 -115 -115q-82 -49 -185 -49q-97 0 -176 39q-81 39 -174 129l132 154q116 -122 215 -122q62 0 101 43q47 52 47 204v946h213z" />
    <glyph glyph-name="jcircumflex" unicode="&#x135;" horiz-adv-x="456" 
d="M213 1203l-184 -180l-153 76l267 293h139l267 -293l-153 -76zM-20 -284q63 -19 95 -19q28 0 41 16q20 23 20 94v1101h204v-1101q0 -174 -82 -246q-64 -56 -155 -56q-54 0 -123 20v191z" />
    <glyph glyph-name="Kcommaaccent" unicode="&#x136;" horiz-adv-x="1196" 
d="M663 791l529 -791h-250l-423 635l-156 -170v-465h-213v1365h213v-615l565 615h264zM475 -436l110 374l195 -60l-156 -361z" />
    <glyph glyph-name="kcommaaccent" unicode="&#x137;" horiz-adv-x="975" 
d="M331 -436l110 374l195 -60l-155 -361zM568 531l416 -531h-252l-303 394l-110 -108v-286h-204v1365h204v-819l365 362h268z" />
    <glyph glyph-name="kgreenlandic" unicode="&#x138;" horiz-adv-x="975" 
d="M568 531l416 -531h-252l-303 394l-110 -108v-286h-204v908h204v-362l365 362h268z" />
    <glyph glyph-name="Lacute" unicode="&#x139;" horiz-adv-x="873" 
d="M564 1728l-295 -297l-135 78l236 324zM363 1365v-1168h510v-197h-723v1365h213z" />
    <glyph glyph-name="lacute" unicode="&#x13a;" horiz-adv-x="439" 
d="M531 1752l-295 -297l-135 77l236 325zM321 0h-204v1365h204v-1365z" />
    <glyph glyph-name="Lcommaaccent" unicode="&#x13b;" horiz-adv-x="884" 
d="M373 -436l110 374l196 -60l-156 -361zM363 1365v-1168h510v-197h-723v1365h213z" />
    <glyph glyph-name="lcommaaccent" unicode="&#x13c;" horiz-adv-x="439" 
d="M33 -436l110 374l196 -60l-156 -361zM321 0h-204v1365h204v-1365z" />
    <glyph glyph-name="Lcaron" unicode="&#x13d;" horiz-adv-x="884" 
d="M513 1033l110 373l195 -59l-155 -361zM363 1365v-1168h510v-197h-723v1365h213z" />
    <glyph glyph-name="lcaron" unicode="&#x13e;" horiz-adv-x="680" 
d="M399 1049l110 373l195 -59l-155 -361zM321 0h-204v1365h204v-1365z" />
    <glyph glyph-name="Ldot" unicode="&#x13f;" horiz-adv-x="884" 
d="M363 1365v-1168h510v-197h-723v1365h213zM679 813q56 0 93 -37q38 -38 38 -92t-38 -92q-40 -38 -94 -38t-92 38t-38 94q0 52 39 90q37 37 92 37z" />
    <glyph glyph-name="ldot" unicode="&#x140;" horiz-adv-x="728" 
d="M583 813q56 0 93 -37q38 -38 38 -92t-38 -92q-40 -38 -94 -38q-55 0 -92 39q-38 38 -38 93q0 52 39 90q37 37 92 37zM321 0h-204v1365h204v-1365z" />
    <glyph glyph-name="Lslash" unicode="&#x141;" horiz-adv-x="910" 
d="M175 745v620h213v-493l225 150v-220l-225 -150v-455h510v-197h-723v525l-131 -88v220z" />
    <glyph glyph-name="lslash" unicode="&#x142;" horiz-adv-x="533" 
d="M165 0v540l-127 -85v223l127 85v602h204v-465l127 84v-222l-127 -85v-677h-204z" />
    <glyph glyph-name="Nacute" unicode="&#x143;" horiz-adv-x="1450" 
d="M1045 1728l-295 -297l-135 78l235 324zM150 0v1365h187l751 -1004v1004h212v-1365h-187l-750 1004v-1004h-213z" />
    <glyph glyph-name="nacute" unicode="&#x144;" horiz-adv-x="1043" 
d="M845 1319l-296 -297l-135 77l236 324zM115 908h204v-66q97 94 231 94q148 0 254 -94q33 -29 56 -63.5t38 -77t22 -95t7 -117.5v-489h-204v473q0 133 -33 195q-44 80 -159 80q-58 0 -106.5 -24.5t-71.5 -64.5q-34 -61 -34 -205v-454h-204v908z" />
    <glyph glyph-name="Ncommaaccent" unicode="&#x145;" horiz-adv-x="1450" 
d="M574 -436l111 374l194 -60l-155 -361zM150 0v1365h187l751 -1004v1004h212v-1365h-187l-750 1004v-1004h-213z" />
    <glyph glyph-name="ncommaaccent" unicode="&#x146;" horiz-adv-x="1043" 
d="M370 -436l111 374l195 -60l-156 -361zM115 908h204v-66q97 94 231 94q148 0 254 -94q33 -29 56 -63.5t38 -77t22 -95t7 -117.5v-489h-204v473q0 133 -33 195q-44 80 -159 80q-58 0 -106.5 -24.5t-71.5 -64.5q-34 -61 -34 -205v-454h-204v908z" />
    <glyph glyph-name="Ncaron" unicode="&#x147;" horiz-adv-x="1450" 
d="M759 1639l184 180l153 -77l-267 -292h-139l-267 292l152 77zM150 0v1365h187l751 -1004v1004h212v-1365h-187l-750 1004v-1004h-213z" />
    <glyph glyph-name="ncaron" unicode="&#x148;" horiz-adv-x="1043" 
d="M531 1229l184 180l153 -77l-267 -292h-139l-267 292l153 77zM115 908h204v-66q97 94 231 94q148 0 254 -94q33 -29 56 -63.5t38 -77t22 -95t7 -117.5v-489h-204v473q0 133 -33 195q-44 80 -159 80q-58 0 -106.5 -24.5t-71.5 -64.5q-34 -61 -34 -205v-454h-204v908z" />
    <glyph glyph-name="napostrophe" unicode="&#x149;" horiz-adv-x="1227" 
d="M173 1377l186 -68l-228 -510l-145 57zM299 908h204v-66q100 94 231 94q149 0 255 -94q33 -29 56.5 -63t38 -76.5t21.5 -95t7 -118.5v-489h-204v473q0 133 -33 195q-44 80 -160 80q-58 0 -106.5 -24.5t-71.5 -64.5q-34 -61 -34 -205v-454h-204v908z" />
    <glyph glyph-name="Eng" unicode="&#x14a;" horiz-adv-x="1450" 
d="M1300 1365v-1371q0 -118 -42 -197q-25 -49 -78 -78t-117 -29q-54 0 -123 20v191q63 -19 95 -19q28 0 41 16q20 23 20 94v31l-733 981v-1004h-213v1365h187l751 -1004v1004h212z" />
    <glyph glyph-name="eng" unicode="&#x14b;" horiz-adv-x="1043" 
d="M115 0v908h204v-66q97 94 231 94q148 0 254 -94q33 -29 56 -63.5t38 -77t22 -95t7 -117.5v-514q0 -156 -82 -229q-64 -56 -155 -56q-54 0 -123 20v191q63 -19 96 -19q60 0 60 108v483q0 133 -33 195q-44 80 -159 80q-58 0 -106.5 -24.5t-71.5 -64.5q-34 -61 -34 -205
v-454h-204z" />
    <glyph glyph-name="Omacron" unicode="&#x14c;" horiz-adv-x="1562" 
d="M474 1711h613v-183h-613v183zM777 1193q-212 0 -358 -164q-131 -146 -131 -355q0 -167 100 -300q77 -104 195 -158q97 -44 197 -44q124 0 240 66q60 34 105.5 80t79.5 104q68 119 68 260q0 230 -168 385q-138 126 -328 126zM780 1393q190 0 350 -94q166 -97 263 -262
q96 -165 96 -355t-97 -356q-94 -163 -261 -259q-166 -95 -348 -95q-270 0 -473 182q-238 211 -238 537q0 185 96 346q101 168 263 262q163 94 349 94z" />
    <glyph glyph-name="omacron" unicode="&#x14d;" horiz-adv-x="1070" 
d="M228 1301h613v-183h-613v183zM530 751q-115 0 -195 -86q-72 -78 -72 -210q0 -149 92 -232q75 -66 179 -66q122 0 200 86q72 79 72 214q0 146 -91 227q-74 67 -185 67zM542 936q207 0 347 -156q123 -137 123 -325q0 -222 -159 -364q-134 -119 -318 -119q-214 0 -354 155
q-124 136 -124 327q0 185 114 317q144 165 371 165z" />
    <glyph glyph-name="Obreve" unicode="&#x14e;" horiz-adv-x="1562" 
d="M660 1773q1 -10 1 -17v-12q2 -51 18 -76q33 -56 97 -56q74 0 107 71q9 20 18 89l177 -14q-12 -106 -37 -154q-84 -166 -264 -166q-132 0 -217 93q-45 48 -60 94q-16 47 -17 133zM777 1193q-212 0 -358 -164q-131 -146 -131 -355q0 -167 100 -300q77 -104 195 -158
q97 -44 197 -44q124 0 240 66q60 34 105.5 80t79.5 104q68 119 68 260q0 230 -168 385q-138 126 -328 126zM780 1393q190 0 350 -94q166 -97 263 -262q96 -165 96 -355t-97 -356q-94 -163 -261 -259q-166 -95 -348 -95q-270 0 -473 182q-238 211 -238 537q0 185 96 346
q101 168 263 262q163 94 349 94z" />
    <glyph glyph-name="obreve" unicode="&#x14f;" horiz-adv-x="1070" 
d="M414 1363q1 -10 1 -16.5v-11.5q3 -51 18 -76q33 -56 97 -56q74 0 107 71q8 18 19 89l176 -15q-5 -53 -14.5 -91t-22.5 -63q-84 -166 -263 -166q-133 0 -218 93q-45 49 -59 94q-16 45 -18 134zM530 751q-115 0 -195 -86q-72 -78 -72 -210q0 -149 92 -232q75 -66 179 -66
q122 0 200 86q72 79 72 214q0 146 -91 227q-74 67 -185 67zM542 936q207 0 347 -156q123 -137 123 -325q0 -222 -159 -364q-134 -119 -318 -119q-214 0 -354 155q-124 136 -124 327q0 185 114 317q144 165 371 165z" />
    <glyph glyph-name="Ohungarumlaut" unicode="&#x150;" horiz-adv-x="1562" 
d="M1226 1728l-296 -297l-119 74l239 328zM932 1732l-300 -301l-115 78l235 324zM777 1193q-212 0 -358 -164q-131 -146 -131 -355q0 -167 100 -300q77 -104 195 -158q97 -44 197 -44q124 0 240 66q60 34 105.5 80t79.5 104q68 119 68 260q0 230 -168 385q-138 126 -328 126
zM780 1393q190 0 350 -94q166 -97 263 -262q96 -165 96 -355t-97 -356q-94 -163 -261 -259q-166 -95 -348 -95q-270 0 -473 182q-238 211 -238 537q0 185 96 346q101 168 263 262q163 94 349 94z" />
    <glyph glyph-name="ohungarumlaut" unicode="&#x151;" horiz-adv-x="1074" 
d="M1001 1318l-295 -297l-120 74l239 329zM707 1322l-300 -301l-115 79l235 324zM530 751q-115 0 -195 -86q-72 -78 -72 -210q0 -149 92 -232q75 -66 179 -66q122 0 200 86q72 79 72 214q0 146 -91 227q-74 67 -185 67zM543 936q206 0 346 -156q123 -137 123 -325
q0 -222 -159 -364q-134 -119 -318 -119q-214 0 -354 155q-124 136 -124 331q0 215 157 357q133 121 329 121z" />
    <glyph glyph-name="OE" unicode="&#x152;" horiz-adv-x="2108" 
d="M777 1193q-213 0 -358 -163q-131 -146 -131 -356q0 -166 100 -299q79 -104 195 -158q97 -44 197 -44q124 0 240 66q118 67 185 184q68 119 68 259q0 232 -168 385q-138 126 -328 126zM1273 1365h742v-196h-529v-378h470v-198h-470v-395h549v-198h-762v179
q-213 -207 -489 -207q-188 0 -355 95q-165 96 -260 260q-97 166 -97 355q0 190 96 355q49 84 114 149t149 113q164 94 353 94q277 0 489 -206v178z" />
    <glyph glyph-name="oe" unicode="&#x153;" horiz-adv-x="1761" 
d="M1500 533q-21 85 -65 140q-64 82 -175 82q-94 0 -158 -58t-86 -164h484zM530 751q-115 0 -195 -86q-72 -78 -72 -210q0 -149 92 -232q75 -66 179 -66q122 0 200 86q72 79 72 214q0 148 -91 227q-74 67 -185 67zM1695 229q-155 -258 -426 -258q-228 0 -362 179
q-141 -178 -371 -178q-215 0 -355 155q-124 136 -124 327q0 219 157 361q133 121 322 121q230 0 371 -178q141 178 350 178q196 0 325 -145q28 -32 50.5 -72.5t38.5 -86.5t24 -96.5t8 -101.5v-18.5t-1 -40.5h-686q17 -75 53 -124q69 -95 203 -95q36 0 70 8t64 23.5t54 37
t41 48.5l10.5 17l7.5 12z" />
    <glyph glyph-name="Racute" unicode="&#x154;" horiz-adv-x="1121" 
d="M363 721h107q130 0 194 37q99 55 99 186q0 132 -101 191q-65 36 -192 36h-107v-450zM1083 0h-239l-295 532q-28 -2 -52 -3t-44 -1h-90v-528h-213v1365h303q206 0 317 -63q90 -53 144 -144q58 -98 58 -216q0 -59 -14.5 -112.5t-42.5 -99.5t-67.5 -83.5t-90.5 -63.5z
M819 1728l-295 -297l-135 78l236 324z" />
    <glyph glyph-name="racute" unicode="&#x155;" horiz-adv-x="619" 
d="M597 1319l-295 -297l-135 77l236 324zM115 908h204v-73q60 48 97 62q37 15 99 15q15 0 33.5 -1t41.5 -3v-183q-25 1 -42.5 1.5t-28.5 0.5q-123 0 -166 -81q-34 -64 -34 -209v-437h-204v908z" />
    <glyph glyph-name="Rcommaaccent" unicode="&#x156;" horiz-adv-x="1121" 
d="M363 721h107q130 0 194 37q99 55 99 186q0 132 -101 191q-65 36 -192 36h-107v-450zM1083 0h-239l-295 532q-28 -2 -52 -3t-44 -1h-90v-528h-213v1365h303q206 0 317 -63q90 -53 144 -144q58 -98 58 -216q0 -59 -14.5 -112.5t-42.5 -99.5t-67.5 -83.5t-90.5 -63.5z
M417 -436l110 374l195 -60l-156 -361z" />
    <glyph glyph-name="rcommaaccent" unicode="&#x157;" horiz-adv-x="620" 
d="M24 -436l110 374l196 -60l-156 -361zM115 908h204v-73q29 23 53 38.5t44 23.5q37 15 99 15q15 0 33.5 -1t41.5 -3v-183q-25 1 -42.5 1.5t-28.5 0.5q-124 0 -166 -81q-34 -64 -34 -209v-437h-204v908z" />
    <glyph glyph-name="Rcaron" unicode="&#x158;" horiz-adv-x="1121" 
d="M363 721h107q130 0 194 37q99 55 99 186q0 132 -101 191q-65 36 -192 36h-107v-450zM1083 0h-239l-295 532q-28 -2 -52 -3t-44 -1h-90v-528h-213v1365h303q206 0 317 -63q90 -53 144 -144q58 -98 58 -216q0 -59 -14.5 -112.5t-42.5 -99.5t-67.5 -83.5t-90.5 -63.5z
M530 1639l184 180l153 -77l-267 -292h-140l-267 292l153 77z" />
    <glyph glyph-name="rcaron" unicode="&#x159;" horiz-adv-x="615" 
d="M353 1229l183 180l153 -77l-267 -292h-139l-267 292l153 77zM115 908h204v-73q60 48 97 62q37 15 99 15q15 0 33.5 -1t41.5 -3v-183q-25 1 -42.5 1.5t-28.5 0.5q-123 0 -166 -81q-34 -64 -34 -209v-437h-204v908z" />
    <glyph glyph-name="Sacute" unicode="&#x15a;" horiz-adv-x="1054" 
d="M849 1728l-296 -297l-135 78l236 324zM777 1036q-47 72 -84 104q-61 55 -150 55q-101 0 -158 -66q-48 -56 -48 -124q0 -109 173 -177l130 -49q207 -80 279 -195q51 -80 51 -183q0 -188 -141 -314q-128 -115 -312 -115q-150 0 -265 81q-135 95 -184 312l207 54
q2 -11 4 -19t4 -13q22 -88 59 -134q67 -82 178 -82q108 0 177 77q58 64 58 151q0 56 -29 94q-40 53 -181 108l-124 48q-295 114 -295 357q0 171 124 280q122 107 299 107q193 0 319 -137q37 -41 81 -111z" />
    <glyph glyph-name="sacute" unicode="&#x15b;" horiz-adv-x="777" 
d="M689 1319l-295 -297l-136 77l236 324zM216 306q42 -85 80 -117q37 -33 95 -33q65 0 97 39q28 32 28 73q0 27 -15 48q-17 24 -116 61l-93 36q-197 77 -197 244q0 122 90 200q91 79 219 79q197 0 302 -198l-160 -81q-18 27 -34.5 46t-33.5 30.5t-36 16.5t-41 5
q-49 0 -80 -25t-31 -67q0 -27 14 -47q16 -20 115 -59l84 -32q114 -44 165.5 -103t51.5 -146q0 -133 -100 -221q-94 -83 -231 -83q-125 0 -208 64.5t-134 200.5z" />
    <glyph glyph-name="Scircumflex" unicode="&#x15c;" horiz-adv-x="1054" 
d="M521 1612l-183 -180l-153 77l267 292h139l267 -292l-153 -77zM777 1036q-47 72 -84 104q-61 55 -150 55q-101 0 -158 -66q-48 -56 -48 -124q0 -109 173 -177l130 -49q207 -80 279 -195q51 -80 51 -183q0 -188 -141 -314q-128 -115 -312 -115q-150 0 -265 81
q-135 95 -184 312l207 54q2 -11 4 -19t4 -13q22 -88 59 -134q67 -82 178 -82q108 0 177 77q58 64 58 151q0 56 -29 94q-40 53 -181 108l-124 48q-295 114 -295 357q0 171 124 280q122 107 299 107q193 0 319 -137q37 -41 81 -111z" />
    <glyph glyph-name="scircumflex" unicode="&#x15d;" horiz-adv-x="791" 
d="M389 1203l-184 -180l-153 76l268 293h139l267 -293l-153 -76zM216 306q42 -85 80 -117q37 -33 95 -33q65 0 97 39q28 32 28 73q0 27 -15 48q-17 24 -116 61l-93 36q-197 77 -197 244q0 122 90 200q91 79 219 79q197 0 302 -198l-160 -81q-18 27 -34.5 46t-33.5 30.5
t-36 16.5t-41 5q-49 0 -80 -25t-31 -67q0 -27 14 -47q16 -20 115 -59l84 -32q114 -44 165.5 -103t51.5 -146q0 -133 -100 -221q-94 -83 -231 -83q-125 0 -208 64.5t-134 200.5z" />
    <glyph glyph-name="Scedilla" unicode="&#x15e;" horiz-adv-x="1054" 
d="M529 -62l188 -81l-242 -306l-145 73zM777 1036q-47 72 -84 104q-61 55 -150 55q-101 0 -158 -66q-48 -56 -48 -124q0 -109 173 -177l130 -49q207 -80 279 -195q51 -80 51 -183q0 -188 -141 -314q-128 -115 -312 -115q-150 0 -265 81q-135 95 -184 312l207 54q2 -11 4 -19
t4 -13q22 -88 59 -134q67 -82 178 -82q108 0 177 77q58 64 58 151q0 56 -29 94q-40 53 -181 108l-124 48q-295 114 -295 357q0 171 124 280q122 107 299 107q193 0 319 -137q37 -41 81 -111z" />
    <glyph glyph-name="scedilla" unicode="&#x15f;" horiz-adv-x="777" 
d="M380 -62l187 -81l-241 -306l-146 73zM216 306q42 -85 80 -117q37 -33 95 -33q65 0 97 39q28 32 28 73q0 27 -15 48q-17 24 -116 61l-93 36q-197 77 -197 244q0 122 90 200q91 79 219 79q197 0 302 -198l-160 -81q-18 27 -34.5 46t-33.5 30.5t-36 16.5t-41 5
q-49 0 -80 -25t-31 -67q0 -27 14 -47q16 -20 115 -59l84 -32q114 -44 165.5 -103t51.5 -146q0 -133 -100 -221q-94 -83 -231 -83q-125 0 -208 64.5t-134 200.5z" />
    <glyph glyph-name="Scaron" unicode="&#x160;" horiz-adv-x="1054" 
d="M521 1639l184 180l153 -77l-267 -292h-139l-267 292l153 77zM777 1036q-47 72 -84 104q-61 55 -150 55q-101 0 -158 -66q-48 -56 -48 -124q0 -109 173 -177l130 -49q207 -80 279 -195q51 -80 51 -183q0 -188 -141 -314q-128 -115 -312 -115q-150 0 -265 81
q-135 95 -184 312l207 54q2 -11 4 -19t4 -13q22 -88 59 -134q67 -82 178 -82q108 0 177 77q58 64 58 151q0 56 -29 94q-40 53 -181 108l-124 48q-295 114 -295 357q0 171 124 280q122 107 299 107q193 0 319 -137q37 -41 81 -111z" />
    <glyph glyph-name="scaron" unicode="&#x161;" horiz-adv-x="791" 
d="M389 1229l184 180l153 -77l-267 -292h-139l-268 292l153 77zM216 306q42 -85 80 -117q37 -33 95 -33q65 0 97 39q28 32 28 73q0 27 -15 48q-17 24 -116 61l-93 36q-197 77 -197 244q0 122 90 200q91 79 219 79q197 0 302 -198l-160 -81q-18 27 -34.5 46t-33.5 30.5
t-36 16.5t-41 5q-49 0 -80 -25t-31 -67q0 -27 14 -47q16 -20 115 -59l84 -32q114 -44 165.5 -103t51.5 -146q0 -133 -100 -221q-94 -83 -231 -83q-125 0 -208 64.5t-134 200.5z" />
    <glyph glyph-name="Tcommaaccent" unicode="&#x162;" horiz-adv-x="894" 
d="M264 -436l110 374l195 -60l-155 -361zM894 1169h-340v-1169h-213v1169h-341v196h894v-196z" />
    <glyph glyph-name="tcommaaccent" unicode="&#x163;" horiz-adv-x="532" 
d="M109 -436l111 374l195 -60l-156 -361zM476 908v-184h-144v-438q0 -58 14.5 -83.5t46.5 -25.5q31 0 96 18v-191q-69 -20 -124 -20q-107 0 -171 72q-66 73 -66 230v438h-97v184h97v201l204 81v-282h144z" />
    <glyph glyph-name="Tcaron" unicode="&#x164;" horiz-adv-x="894" 
d="M447 1639l183 180l153 -77l-266 -292h-140l-267 292l153 77zM894 1169h-340v-1169h-213v1169h-341v196h894v-196z" />
    <glyph glyph-name="tcaron" unicode="&#x165;" horiz-adv-x="691" 
d="M410 1049l111 373l195 -59l-156 -361zM476 908v-184h-144v-438q0 -58 14.5 -83.5t46.5 -25.5q31 0 96 18v-191q-69 -20 -124 -20q-107 0 -171 72q-66 73 -66 230v438h-97v184h97v201l204 81v-282h144z" />
    <glyph glyph-name="Tbar" unicode="&#x166;" horiz-adv-x="894" 
d="M762 720h-208v-720h-213v720h-209v188h209v261h-341v196h894v-196h-340v-261h208v-188z" />
    <glyph glyph-name="tbar" unicode="&#x167;" horiz-adv-x="532" 
d="M489 4q-69 -20 -124 -20q-107 0 -171 72q-66 73 -66 230v184h-97v182h97v74h-97v182h97v201l204 81v-282h144v-182h-144v-74h144v-182h-144v-184q0 -60 14.5 -85t46.5 -25q35 0 96 19v-191z" />
    <glyph glyph-name="Utilde" unicode="&#x168;" horiz-adv-x="1307" 
d="M960 1715q-17 -221 -187 -221q-76 0 -151 42q-47 25 -75 27h-1q-20 0 -34 -78l-166 39q9 89 45 145q49 76 146 76q68 0 154 -46q44 -23 71 -23q21 0 29 78zM150 1365h213v-842q0 -46 2 -80.5t6 -57.5q8 -49 28 -84q33 -56 104 -92q70 -37 150 -37q117 0 205 73
q51 42 68 98q17 57 17 180v842h213v-881q0 -171 -59 -272q-62 -105 -172 -167q-124 -73 -272 -73q-204 0 -351 129q-82 70 -117 160t-35 223v881z" />
    <glyph glyph-name="utilde" unicode="&#x169;" horiz-adv-x="1043" 
d="M829 1305q-18 -221 -188 -221q-76 0 -151 42q-47 25 -75 27h-1q-20 0 -34 -78l-166 39q9 89 45 145q49 76 146 76q68 0 154 -46q44 -23 71 -23q21 0 29 78zM927 0h-204v66q-97 -94 -231 -94q-148 0 -254 94q-33 29 -56.5 63.5t-38 77t-21.5 95t-7 117.5v489h204v-473
q0 -135 33 -195q44 -80 160 -80q28 0 55.5 6.5t50.5 18t41.5 28t29.5 36.5q34 61 34 205v454h204v-908z" />
    <glyph glyph-name="Umacron" unicode="&#x16a;" horiz-adv-x="1307" 
d="M347 1711h612v-183h-612v183zM150 1365h213v-842q0 -46 2 -80.5t6 -57.5q8 -49 28 -84q33 -56 104 -92q70 -37 150 -37q117 0 205 73q51 42 68 98q17 57 17 180v842h213v-881q0 -171 -59 -272q-62 -105 -172 -167q-124 -73 -272 -73q-204 0 -351 129q-82 70 -117 160
t-35 223v881z" />
    <glyph glyph-name="umacron" unicode="&#x16b;" horiz-adv-x="1043" 
d="M215 1301h612v-183h-612v183zM927 0h-204v66q-97 -94 -231 -94q-148 0 -254 94q-33 29 -56.5 63.5t-38 77t-21.5 95t-7 117.5v489h204v-473q0 -135 33 -195q44 -80 160 -80q28 0 55.5 6.5t50.5 18t41.5 28t29.5 36.5q34 61 34 205v454h204v-908z" />
    <glyph glyph-name="Ubreve" unicode="&#x16c;" horiz-adv-x="1307" 
d="M532 1773q5 -75 14 -94q31 -67 103 -67t107 71q9 19 18 89l177 -14q-12 -106 -37 -154q-85 -166 -264 -166q-133 0 -218 93q-45 49 -59 94q-17 45 -18 133zM150 1365h213v-842q0 -46 2 -80.5t6 -57.5q8 -49 28 -84q33 -56 104 -92q70 -37 150 -37q117 0 205 73
q51 42 68 98q17 57 17 180v842h213v-881q0 -171 -59 -272q-62 -105 -172 -167q-124 -73 -272 -73q-204 0 -351 129q-82 70 -117 160t-35 223v881z" />
    <glyph glyph-name="ubreve" unicode="&#x16d;" horiz-adv-x="1043" 
d="M400 1363q2 -37 5.5 -60t8.5 -33q31 -67 103 -67q74 0 107 71q9 19 18 89l177 -15q-12 -106 -37 -154q-85 -166 -264 -166q-133 0 -218 93q-45 49 -59 94q-16 47 -17 134zM927 0h-204v66q-97 -94 -231 -94q-148 0 -254 94q-33 29 -56.5 63.5t-38 77t-21.5 95t-7 117.5
v489h204v-473q0 -135 33 -195q44 -80 160 -80q28 0 55.5 6.5t50.5 18t41.5 28t29.5 36.5q34 61 34 205v454h204v-908z" />
    <glyph glyph-name="Uring" unicode="&#x16e;" horiz-adv-x="1307" 
d="M652 1725q-22 0 -41 -8.5t-33.5 -22.5t-22.5 -34t-8 -42q0 -41 32 -73q31 -31 74 -31q45 0 75.5 30.5t30.5 75.5q0 22 -8.5 41t-22.5 33.5t-34 22.5t-42 8zM652 1825q95 0 158 -69q53 -59 53 -136q0 -90 -68 -152q-60 -54 -142 -54q-87 0 -148 60q-62 62 -62 149
q0 86 69 149q59 53 140 53zM150 1365h213v-842q0 -46 2 -80.5t6 -57.5q8 -49 28 -84q33 -56 104 -92q70 -37 150 -37q117 0 205 73q51 42 68 98q17 57 17 180v842h213v-881q0 -171 -59 -272q-62 -105 -172 -167q-124 -73 -272 -73q-204 0 -351 129q-82 70 -117 160t-35 223
v881z" />
    <glyph glyph-name="uring" unicode="&#x16f;" horiz-adv-x="1043" 
d="M520 1316q-21 0 -40.5 -8.5t-33.5 -23t-22.5 -34t-8.5 -41.5q0 -21 8.5 -40.5t23 -33.5t34 -22.5t40.5 -8.5q45 0 75.5 30.5t30.5 75.5q0 22 -8.5 41.5t-22.5 33.5t-34 22.5t-42 8.5zM520 1416q95 0 158 -69q53 -59 53 -137q0 -90 -68 -152q-60 -54 -142 -54
q-87 0 -148 60q-62 62 -62 149q0 86 69 149q58 54 140 54zM927 0h-204v66q-97 -94 -231 -94q-148 0 -254 94q-33 29 -56.5 63.5t-38 77t-21.5 95t-7 117.5v489h204v-473q0 -135 33 -195q44 -80 160 -80q28 0 55.5 6.5t50.5 18t41.5 28t29.5 36.5q34 61 34 205v454h204v-908z
" />
    <glyph glyph-name="Uhungarumlaut" unicode="&#x170;" horiz-adv-x="1307" 
d="M1079 1728l-296 -297l-119 74l239 328zM785 1732l-300 -301l-116 78l236 324zM150 1365h213v-842q0 -46 2 -80.5t6 -57.5q8 -49 28 -84q33 -56 104 -92q70 -37 150 -37q117 0 205 73q51 42 68 98q17 57 17 180v842h213v-881q0 -171 -59 -272q-62 -105 -172 -167
q-124 -73 -272 -73q-204 0 -351 129q-82 70 -117 160t-35 223v881z" />
    <glyph glyph-name="uhungarumlaut" unicode="&#x171;" horiz-adv-x="1043" 
d="M957 1318l-296 -297l-119 74l239 329zM663 1322l-300 -301l-115 79l235 324zM927 0h-204v66q-97 -94 -231 -94q-148 0 -254 94q-33 29 -56.5 63.5t-38 77t-21.5 95t-7 117.5v489h204v-473q0 -135 33 -195q44 -80 160 -80q28 0 55.5 6.5t50.5 18t41.5 28t29.5 36.5
q34 61 34 205v454h204v-908z" />
    <glyph glyph-name="Uogonek" unicode="&#x172;" horiz-adv-x="1307" 
d="M1156 1365v-881q0 -128 -29 -209q-42 -109 -134.5 -185t-224.5 -106q-61 -76 -61 -118q0 -29 36 -29t95 21l60 -152q-102 -38 -172 -38q-99 0 -159 66q-46 52 -46 120q0 57 41 125q-200 35 -306 164.5t-106 340.5v881h213v-842q0 -46 2 -80.5t6 -57.5q8 -49 28 -84
q33 -57 104 -93q70 -36 150 -36q119 0 205 73q51 42 68 98q17 57 17 180v842h213z" />
    <glyph glyph-name="uogonek" unicode="&#x173;" horiz-adv-x="1043" 
d="M927 0q-9 -10 -12 -16q-61 -74 -61 -118q0 -29 36 -29q35 0 95 22l60 -152q-101 -39 -172 -39q-99 0 -159 67q-46 50 -46 120q0 68 55 145v66q-97 -94 -231 -94q-148 0 -254 94q-33 29 -56.5 63.5t-38 77t-21.5 95t-7 117.5v489h204v-473q0 -135 33 -195q44 -80 159 -80
q58 0 106.5 24.5t71.5 64.5q34 61 34 205v454h204v-908z" />
    <glyph glyph-name="Wcircumflex" unicode="&#x174;" horiz-adv-x="1797" 
d="M899 1612l-184 -180l-153 77l267 292h139l267 -292l-153 -77zM222 1365l288 -1009l298 1009h181l298 -1009l289 1009h221l-409 -1365h-102h-99l-288 969l-289 -969h-98h-102l-410 1365h222z" />
    <glyph glyph-name="wcircumflex" unicode="&#x175;" horiz-adv-x="1360" 
d="M207 908l196 -578l196 578h163l196 -578l196 578h219l-334 -908h-164l-195 571l-195 -571h-163l-334 908h219zM680 1203l-183 -180l-153 76l267 293h139l267 -293l-153 -76z" />
    <glyph glyph-name="Ycircumflex" unicode="&#x176;" horiz-adv-x="1083" 
d="M541 1612l-183 -180l-153 77l267 292h139l267 -292l-153 -77zM1097 1365l-449 -798v-567h-213v567l-449 798h236l320 -586l320 586h235z" />
    <glyph glyph-name="ycircumflex" unicode="&#x177;" horiz-adv-x="948" 
d="M132 -478l228 521l-372 865h221l261 -617l270 617h220l-614 -1386h-214zM476 1203l-184 -180l-153 76l267 293h140l267 -293l-153 -76z" />
    <glyph glyph-name="Ydieresis" unicode="&#x178;" horiz-adv-x="1083" 
d="M353 1749q54 0 94 -38q38 -38 38 -92t-38 -92q-40 -38 -94 -38q-55 0 -93 38t-38 94q0 53 39 91q37 37 92 37zM729 1749q54 0 94 -38q38 -38 38 -92t-38 -92q-40 -38 -94 -38q-55 0 -93 38t-38 94q0 52 39 90q38 38 92 38zM1097 1365l-449 -798v-567h-213v567l-449 798
h236l320 -586l320 586h235z" />
    <glyph glyph-name="Zacute" unicode="&#x179;" horiz-adv-x="1046" 
d="M807 1728l-296 -297l-135 78l236 324zM993 1194l-692 -996h707v-198h-974v171l703 999h-644v195h900v-171z" />
    <glyph glyph-name="zacute" unicode="&#x17a;" horiz-adv-x="849" 
d="M809 752l-496 -568h515v-184h-783v155l497 570h-468v183h735v-156zM722 1319l-295 -297l-135 77l236 324z" />
    <glyph glyph-name="Zdotaccent" unicode="&#x17b;" horiz-adv-x="1046" 
d="M554 1749q54 0 94 -38q38 -38 38 -92t-38 -92q-40 -38 -93 -38q-28 0 -52 10t-42 28t-28 42t-10 52q0 53 39 91q37 37 92 37zM993 1194l-692 -996h707v-198h-974v171l703 999h-644v195h900v-171z" />
    <glyph glyph-name="zdotaccent" unicode="&#x17c;" horiz-adv-x="849" 
d="M809 752l-496 -568h515v-184h-783v155l497 570h-468v183h735v-156zM435 1344q54 0 94 -38q38 -38 38 -92t-38 -92q-40 -38 -94 -38q-55 0 -93 38t-38 94q0 52 39 90q38 38 92 38z" />
    <glyph glyph-name="Zcaron" unicode="&#x17d;" horiz-adv-x="1046" 
d="M555 1639l183 180l153 -77l-267 -292h-139l-267 292l153 77zM993 1194l-692 -996h707v-198h-974v171l703 999h-644v195h900v-171z" />
    <glyph glyph-name="zcaron" unicode="&#x17e;" horiz-adv-x="849" 
d="M809 752l-496 -568h515v-184h-783v155l497 570h-468v183h735v-156zM436 1229l184 180l153 -77l-267 -292h-139l-267 292l153 77z" />
    <glyph glyph-name="longs" unicode="&#x17f;" horiz-adv-x="482" 
d="M496 1181q-54 14 -81 14q-76 0 -76 -116v-1079h-204v724h-88v184h88v171q0 174 82 246q64 56 159 56q56 0 120 -16v-184z" />
    <glyph glyph-name="florin" unicode="&#x192;" horiz-adv-x="983" 
d="M43 -191q66 -19 88 -19q67 0 93 120l167 814h-90l38 184h90l5 23l30 148q37 178 135 249q74 55 165 55q48 0 129 -23l-39 -192q-69 18 -88 18q-69 0 -93 -120l-33 -158h164l-38 -184h-164l-170 -827q-36 -177 -134 -249q-74 -55 -165 -55q-47 0 -130 23z" />
    <glyph glyph-name="Ohorn" unicode="&#x1a0;" horiz-adv-x="1576" 
d="M777 1193q-211 0 -358 -164q-131 -146 -131 -355q0 -167 100 -300q77 -104 195 -158q99 -44 198 -44q123 0 239 66q118 67 185 184q68 119 68 259q0 233 -168 386q-138 126 -328 126zM1271 1192q91 43 91 119q0 45 -22 79q-11 17 -33 38.5t-54 47.5l153 77
q138 -99 138 -241q0 -156 -159 -262q104 -179 104 -367q0 -191 -97 -357q-94 -163 -261 -259q-166 -95 -351 -95t-351 95q-166 97 -260 259q-97 166 -97 356q0 188 96 355q95 165 263 262q163 94 350 94q219 0 401 -128q23 -16 45 -34.5z" />
    <glyph glyph-name="ohorn" unicode="&#x1a1;" horiz-adv-x="1155" 
d="M530 751q-115 0 -195 -86q-72 -78 -72 -210q0 -149 92 -232q75 -66 179 -66q122 0 200 86q72 79 72 214q0 146 -91 227q-74 67 -185 67zM990 603q22 -75 22 -150q0 -220 -159 -362q-134 -119 -319 -119q-213 0 -353 155q-124 136 -124 327q0 219 157 361q133 121 321 121
q180 0 310 -112q16 -14 31.5 -29.5t29.5 -33.5q47 36 47 94q0 44 -23 79q-21 33 -86 85l153 77q138 -99 138 -242q0 -149 -145 -251z" />
    <glyph glyph-name="Uhorn" unicode="&#x1af;" horiz-adv-x="1400" 
d="M1156 1204q67 42 67 108q0 45 -22 79q-21 33 -86 85l153 77q138 -98 138 -243q0 -204 -250 -304v-522q0 -171 -59 -272q-62 -105 -172 -167q-124 -73 -272 -73q-204 0 -351 129q-82 70 -117 160t-35 223v881h213v-842q0 -46 2 -80.5t6 -57.5q8 -49 28 -84q33 -56 104 -92
q70 -37 150 -37q117 0 205 73q51 42 68 98q17 57 17 180v842h213v-161z" />
    <glyph glyph-name="uhorn" unicode="&#x1b0;" horiz-adv-x="1201" 
d="M927 745q70 42 70 110q0 45 -22 79q-21 33 -86 85l153 77q138 -98 138 -244q0 -96 -62 -174t-171 -123l-10 -4l-10 -4v-547h-204v66q-97 -94 -231 -94q-148 0 -254 94q-33 29 -56.5 63.5t-38 77t-21.5 95t-7 117.5v489h204v-473q0 -135 33 -195q44 -80 160 -80
q28 0 55.5 6.5t50.5 18t41.5 28t29.5 36.5q34 61 34 205v454h204v-163z" />
    <glyph glyph-name="uni01C4" unicode="&#x1c4;" horiz-adv-x="2313" 
d="M1822 1639l184 180l153 -77l-267 -292h-140l-267 292l153 77zM2261 1194l-692 -996h706v-198h-974v171l704 999h-644v195h900v-171zM363 1167v-969h96q176 0 301 71q221 128 221 415q0 284 -221 412q-125 71 -301 71h-96zM150 1365h303q251 0 429 -103q148 -86 225 -222
q88 -155 88 -356q0 -284 -164 -463q-204 -221 -578 -221h-303v1365z" />
    <glyph glyph-name="uni01C5" unicode="&#x1c5;" horiz-adv-x="2116" 
d="M2076 752l-496 -568h516v-184h-784v155l497 570h-468v183h735v-156zM1704 1229l183 180l153 -77l-266 -292h-140l-267 292l153 77zM363 1167v-969h96q176 0 301 71q221 128 221 415q0 284 -221 412q-125 71 -301 71h-96zM150 1365h303q251 0 429 -103q148 -86 225 -222
q88 -155 88 -356q0 -284 -164 -463q-204 -221 -578 -221h-303v1365z" />
    <glyph glyph-name="uni01C6" unicode="&#x1c6;" horiz-adv-x="1966" 
d="M1926 752l-497 -568h516v-184h-783v155l497 570h-469v183h736v-156zM1553 1229l184 180l153 -77l-267 -292h-140l-267 292l153 77zM529 751q-115 0 -193 -85q-73 -79 -73 -211q0 -151 92 -232q76 -66 178 -66q117 0 192 83q73 79 73 217q0 149 -91 230q-71 64 -178 64z
M1001 0h-204v79q-139 -107 -280 -107q-113 0 -219 61q-113 65 -176 176q-65 113 -65 246q0 218 159 361q135 120 301 120q140 0 280 -107v536h204v-1365z" />
    <glyph glyph-name="uni01C7" unicode="&#x1c7;" horiz-adv-x="1736" 
d="M1585 1365v-946q0 -104 -12 -164q-14 -62 -46 -119q-40 -70 -115 -115q-82 -49 -185 -49q-97 0 -176 39q-81 37 -174 129l132 154q117 -122 215 -122q62 0 101 43q47 52 47 204v946h213zM363 1365v-1168h510v-197h-723v1365h213z" />
    <glyph glyph-name="uni01C8" unicode="&#x1c8;" horiz-adv-x="1341" 
d="M864 -284q63 -19 96 -19q25 0 40 16q20 23 20 94v1101h204v-1101q0 -174 -82 -246q-64 -56 -155 -56q-55 0 -123 20v191zM1122 1344q54 0 94 -38q38 -38 38 -92q0 -55 -38 -93q-40 -38 -95 -38q-56 0 -93 39q-38 38 -38 94q0 52 39 90q40 38 93 38zM363 1365v-1168h510
v-197h-723v1365h213z" />
    <glyph glyph-name="uni01C9" unicode="&#x1c9;" horiz-adv-x="895" 
d="M418 -284q63 -19 96 -19q26 0 41 16q20 23 20 94v1101h204v-1101q0 -174 -82 -246q-64 -56 -155 -56q-56 0 -124 20v191zM677 1344q54 0 94 -38q38 -38 38 -92q0 -55 -38 -93q-40 -38 -95 -38q-56 0 -93 39q-38 38 -38 94q0 52 39 90q40 38 93 38zM321 0h-204v1365h204
v-1365z" />
    <glyph glyph-name="uni01CA" unicode="&#x1ca;" horiz-adv-x="2302" 
d="M2151 1365v-946q0 -104 -12 -164q-12 -62 -46 -119q-40 -70 -115 -115q-82 -49 -185 -49q-97 0 -176 39q-80 37 -174 129l132 154q117 -122 215 -122q62 0 102 43q46 50 46 204v946h213zM150 0v1365h187l751 -1004v1004h212v-1365h-187l-750 1004v-1004h-213z" />
    <glyph glyph-name="uni01CB" unicode="&#x1cb;" horiz-adv-x="1907" 
d="M1430 -284q63 -19 95 -19q28 0 41 16q20 23 20 94v1101h204v-1101q0 -174 -82 -246q-64 -56 -155 -56q-55 0 -123 20v191zM1688 1344q54 0 94 -38q38 -38 38 -92q0 -55 -38 -93q-40 -38 -95 -38q-56 0 -93 39q-38 38 -38 94q0 52 39 90q40 38 93 38zM150 0v1365h187
l751 -1004v1004h212v-1365h-187l-750 1004v-1004h-213z" />
    <glyph glyph-name="uni01CC" unicode="&#x1cc;" horiz-adv-x="1499" 
d="M1022 -284q63 -19 96 -19q26 0 41 16q20 23 20 94v1101h204v-1101q0 -174 -82 -246q-64 -56 -155 -56q-55 0 -124 20v191zM1281 1344q54 0 94 -38q38 -38 38 -92q0 -55 -38 -93q-40 -38 -95 -38q-56 0 -93 39q-38 38 -38 94q0 52 39 90q40 38 93 38zM115 908h204v-66
q97 94 231 94q148 0 254 -94q33 -29 56 -63.5t38 -77t22 -95t7 -117.5v-489h-204v473q0 133 -33 195q-44 80 -159 80q-58 0 -106.5 -24.5t-71.5 -64.5q-34 -61 -34 -205v-454h-204v908z" />
    <glyph glyph-name="uni01CD" unicode="&#x1cd;" horiz-adv-x="1292" 
d="M646 1639l183 180l153 -77l-266 -292h-140l-267 292l153 77zM425 550h440l-221 595zM352 352l-129 -352h-223l515 1365h262l515 -1365h-224l-130 352h-586z" />
    <glyph glyph-name="uni01CE" unicode="&#x1ce;" horiz-adv-x="1117" 
d="M529 1229l184 180l153 -77l-267 -292h-139l-267 292l152 77zM529 751q-114 0 -194 -86q-72 -78 -72 -210q0 -151 92 -232q75 -66 178 -66q118 0 195 84q72 79 72 216q0 150 -91 229q-74 65 -180 65zM1001 0h-204v79q-139 -107 -280 -107q-113 0 -219 61q-113 65 -176 176
q-65 113 -65 246q0 218 159 361q135 120 301 120q140 0 280 -107v79h204v-908z" />
    <glyph glyph-name="uni01CF" unicode="&#x1cf;" horiz-adv-x="513" 
d="M257 1639l183 180l153 -77l-267 -292h-139l-267 292l153 77zM363 1365v-1365h-213v1365h213z" />
    <glyph glyph-name="uni01D0" unicode="&#x1d0;" horiz-adv-x="436" 
d="M219 1229l183 180l153 -77l-267 -292h-139l-267 292l153 77zM320 908v-908h-204v908h204z" />
    <glyph glyph-name="uni01D1" unicode="&#x1d1;" horiz-adv-x="1562" 
d="M780 1639l184 180l153 -77l-267 -292h-139l-267 292l153 77zM777 1193q-212 0 -358 -164q-131 -146 -131 -355q0 -167 100 -300q77 -104 195 -158q97 -44 197 -44q124 0 240 66q60 34 105.5 80t79.5 104q68 119 68 260q0 230 -168 385q-138 126 -328 126zM780 1393
q190 0 350 -94q166 -97 263 -262q96 -165 96 -355t-97 -356q-94 -163 -261 -259q-166 -95 -348 -95q-270 0 -473 182q-238 211 -238 537q0 185 96 346q101 168 263 262q163 94 349 94z" />
    <glyph glyph-name="uni01D2" unicode="&#x1d2;" horiz-adv-x="1070" 
d="M535 1229l183 180l153 -77l-267 -292h-139l-267 292l153 77zM530 751q-115 0 -195 -86q-72 -78 -72 -210q0 -149 92 -232q75 -66 179 -66q122 0 200 86q72 79 72 214q0 146 -91 227q-74 67 -185 67zM542 936q207 0 347 -156q123 -137 123 -325q0 -222 -159 -364
q-134 -119 -318 -119q-214 0 -354 155q-124 136 -124 327q0 185 114 317q144 165 371 165z" />
    <glyph glyph-name="uni01D3" unicode="&#x1d3;" horiz-adv-x="1307" 
d="M653 1639l184 180l153 -77l-267 -292h-139l-267 292l152 77zM150 1365h213v-842q0 -46 2 -80.5t6 -57.5q8 -49 28 -84q33 -56 104 -92q70 -37 150 -37q117 0 205 73q51 42 68 98q17 57 17 180v842h213v-881q0 -171 -59 -272q-62 -105 -172 -167q-124 -73 -272 -73
q-204 0 -351 129q-82 70 -117 160t-35 223v881z" />
    <glyph glyph-name="uni01D4" unicode="&#x1d4;" horiz-adv-x="1043" 
d="M521 1229l184 180l153 -77l-267 -292h-139l-267 292l153 77zM927 0h-204v66q-97 -94 -231 -94q-148 0 -254 94q-33 29 -56.5 63.5t-38 77t-21.5 95t-7 117.5v489h204v-473q0 -135 33 -195q44 -80 160 -80q28 0 55.5 6.5t50.5 18t41.5 28t29.5 36.5q34 61 34 205v454h204
v-908z" />
    <glyph glyph-name="Gcaron" unicode="&#x1e6;" horiz-adv-x="1488" 
d="M789 1639l184 180l153 -77l-267 -292h-139l-267 292l153 77zM803 735h609v-103q0 -206 -90 -371q-73 -132 -208 -208q-144 -81 -323 -81q-200 0 -365 96q-164 94 -258 258q-96 166 -96 356q0 188 95 354q96 169 261 263q163 94 357 94q245 0 429 -151q14 -12 38 -34.5
l58 -54.5l-148 -144q-74 75 -128 112q-108 72 -248 72q-224 0 -368 -162q-130 -146 -130 -350q0 -232 166 -382q140 -127 334 -127q208 0 322 146q63 81 82 219h-389v198z" />
    <glyph glyph-name="gcaron" unicode="&#x1e7;" horiz-adv-x="1117" 
d="M530 1229l183 180l153 -77l-267 -292h-139l-267 292l153 77zM529 751q-115 0 -194 -85q-72 -80 -72 -211q0 -151 92 -232q75 -66 178 -66q116 0 193 83q72 79 72 217q0 149 -91 230q-71 64 -178 64zM1001 908v-925q0 -237 -148 -369q-135 -120 -336 -120q-210 0 -353 131
q-13 12 -34 35l-50 57l133 133l24 -27q60 -70 97 -94q77 -50 178 -50q141 0 216 84q69 78 69 220v96q-122 -107 -271 -107q-122 0 -228 61q-112 64 -176 176q-65 113 -65 246q0 220 159 361q135 120 311 120q145 0 270 -107v79h204z" />
    <glyph glyph-name="uni01F4" unicode="&#x1f4;" horiz-adv-x="1488" 
d="M1089 1728l-295 -297l-135 78l235 324zM803 735h609v-103q0 -206 -90 -371q-73 -132 -208 -208q-144 -81 -323 -81q-200 0 -365 96q-164 94 -258 258q-96 166 -96 356q0 188 95 354q96 169 261 263q163 94 357 94q245 0 429 -151q14 -12 38 -34.5l58 -54.5l-148 -144
q-74 75 -128 112q-108 72 -248 72q-224 0 -368 -162q-130 -146 -130 -350q0 -232 166 -382q140 -127 334 -127q208 0 322 146q63 81 82 219h-389v198z" />
    <glyph glyph-name="uni01F5" unicode="&#x1f5;" horiz-adv-x="1117" 
d="M826 1319l-296 -297l-135 77l236 324zM529 751q-115 0 -194 -85q-72 -80 -72 -211q0 -151 92 -232q75 -66 178 -66q116 0 193 83q72 79 72 217q0 149 -91 230q-71 64 -178 64zM1001 908v-925q0 -237 -148 -369q-135 -120 -336 -120q-210 0 -353 131q-13 12 -34 35l-50 57
l133 133l24 -27q60 -70 97 -94q77 -50 178 -50q141 0 216 84q69 78 69 220v96q-122 -107 -271 -107q-122 0 -228 61q-112 64 -176 176q-65 113 -65 246q0 220 159 361q135 120 311 120q145 0 270 -107v79h204z" />
    <glyph glyph-name="Aringacute" unicode="&#x1fa;" horiz-adv-x="1292" 
d="M425 550h440l-221 595zM352 352l-129 -352h-223l515 1365h262l515 -1365h-224l-130 352h-586zM645 1725q-22 0 -41 -8.5t-33.5 -22.5t-22.5 -34t-8 -42q0 -41 32 -73q31 -31 74 -31q45 0 75.5 30.5t30.5 75.5q0 22 -8.5 41t-22.5 33.5t-34 22.5t-42 8zM433 1880l236 325
l195 -105l-283 -285q30 10 62 10q98 0 160 -69q53 -59 53 -136q0 -92 -68 -152q-62 -54 -142 -54q-96 0 -157 69q-53 59 -53 137q0 30 9 58.5t25.5 53.5t39.5 44.5t50 31.5z" />
    <glyph glyph-name="aringacute" unicode="&#x1fb;" horiz-adv-x="1117" 
d="M774 1728l-295 -297l-135 78l235 324zM555 1311q-21 0 -40.5 -8.5t-33.5 -23t-22.5 -34t-8.5 -41.5q0 -21 8.5 -40.5t23 -33.5t34 -22.5t40.5 -8.5q45 0 75.5 30.5t30.5 75.5q0 22 -8.5 41.5t-22.5 33.5t-34 22.5t-42 8.5zM555 1411q95 0 158 -70q53 -58 53 -136
q0 -90 -68 -152q-60 -54 -142 -54q-87 0 -148 60q-62 62 -62 149q0 86 69 149q58 54 140 54zM529 751q-114 0 -194 -86q-72 -78 -72 -210q0 -151 92 -232q75 -66 178 -66q118 0 195 84q72 79 72 216q0 150 -91 229q-74 65 -180 65zM1001 0h-204v79q-139 -107 -280 -107
q-113 0 -219 61q-113 65 -176 176q-65 113 -65 246q0 218 159 361q135 120 301 120q140 0 280 -107v79h204v-908z" />
    <glyph glyph-name="AEacute" unicode="&#x1fc;" horiz-adv-x="1719" 
d="M1363 1728l-296 -297l-135 78l236 324zM884 550v619h-49l-317 -619h366zM884 352h-468l-180 -352h-237l711 1365h917v-196h-530v-378h471v-198h-471v-395h550v-198h-763v352z" />
    <glyph glyph-name="aeacute" unicode="&#x1fd;" horiz-adv-x="1674" 
d="M1125 1319l-295 -297l-135 77l235 324zM1412 534q-19 83 -64 139q-66 82 -176 82q-46 0 -86 -15.5t-71.5 -44t-53.5 -69.5t-32 -92h483zM713 436h-228q-224 0 -224 -144q0 -139 227 -139q225 0 225 150v133zM1607 230q-152 -258 -426 -258q-197 0 -332 144
q-102 -144 -361 -144q-168 0 -283 65q-148 85 -148 252q0 164 141 247q100 58 259 58h250q-36 162 -232 162q-147 0 -283 -104l-104 133q104 83 196 117t212 34q121 0 211 -38.5t135 -110.5q137 149 328 149q197 0 322 -141q124 -140 124 -366v-21.5t-1 -31.5h-686
q15 -74 52 -124q71 -95 203 -95q72 0 133 31t96 86l19 29z" />
    <glyph glyph-name="Oslashacute" unicode="&#x1fe;" horiz-adv-x="1577" 
d="M1088 1728l-295 -297l-135 78l235 324zM494 275q133 -103 293 -103q125 0 241 66q60 34 105.5 80t79.5 104q68 119 68 264q0 150 -87 287zM1084 1091q-137 102 -292 102q-220 0 -365 -163q-131 -148 -131 -354q0 -148 87 -284zM233 244q-153 192 -153 437q0 189 96 356
q95 165 263 262q163 94 350 94q246 0 440 -157l134 134l117 -113l-137 -136q154 -193 154 -438q0 -191 -97 -357q-95 -165 -261 -259q-166 -95 -351 -95q-245 0 -441 157l-134 -134l-116 113z" />
    <glyph glyph-name="oslashacute" unicode="&#x1ff;" horiz-adv-x="1097" 
d="M849 1319l-296 -297l-135 77l236 324zM705 704q-68 47 -155 47q-124 0 -201 -86q-72 -80 -72 -211q0 -70 26 -137zM393 204q67 -47 155 -47q123 0 199 85q73 79 73 215q0 74 -26 134zM71 95l85 82q-85 127 -85 275q0 222 159 365q134 119 320 119q166 0 293 -100l80 77
l103 -100l-84 -81q84 -123 84 -277q0 -222 -159 -364q-134 -119 -321 -119q-159 0 -292 100l-80 -77z" />
    <glyph glyph-name="uni0200" unicode="&#x200;" horiz-adv-x="1292" 
d="M204 1728l187 105l236 -324l-128 -78zM491 1728l187 105l235 -324l-127 -78zM425 550h440l-221 595zM352 352l-129 -352h-223l515 1365h262l515 -1365h-224l-130 352h-586z" />
    <glyph glyph-name="uni0201" unicode="&#x201;" horiz-adv-x="1117" 
d="M36 1318l187 106l236 -324l-128 -79zM323 1318l187 106l235 -324l-127 -79zM523 751q-114 0 -194 -86q-72 -78 -72 -210q0 -151 92 -232q75 -66 178 -66q118 0 195 84q72 79 72 216q0 150 -91 229q-73 65 -180 65zM995 0h-204v79q-139 -107 -280 -107q-113 0 -219 61
q-113 65 -176 176q-65 113 -65 246q0 218 159 361q135 120 301 120q140 0 280 -107v79h204v-908z" />
    <glyph glyph-name="Scommaaccent" unicode="&#x218;" horiz-adv-x="1054" 
d="M519 -62l187 -81l-242 -306l-145 73zM777 1036q-47 72 -84 104q-61 55 -150 55q-101 0 -158 -66q-48 -56 -48 -124q0 -109 173 -177l130 -49q207 -80 279 -195q51 -80 51 -183q0 -188 -141 -314q-128 -115 -312 -115q-150 0 -265 81q-135 95 -184 312l207 54q2 -11 4 -19
t4 -13q22 -88 59 -134q67 -82 178 -82q108 0 177 77q58 64 58 151q0 56 -29 94q-40 53 -181 108l-124 48q-295 114 -295 357q0 171 124 280q122 107 299 107q193 0 319 -137q37 -41 81 -111z" />
    <glyph glyph-name="scommaaccent" unicode="&#x219;" horiz-adv-x="777" 
d="M236 -436l110 374l195 -60l-155 -361zM216 306q42 -85 80 -117q37 -33 95 -33q65 0 97 39q28 32 28 73q0 27 -15 48q-17 24 -116 61l-93 36q-197 77 -197 244q0 122 90 200q91 79 219 79q197 0 302 -198l-160 -81q-18 27 -34.5 46t-33.5 30.5t-36 16.5t-41 5
q-49 0 -80 -25t-31 -67q0 -27 14 -47q16 -20 115 -59l84 -32q114 -44 165.5 -103t51.5 -146q0 -133 -100 -221q-94 -83 -231 -83q-125 0 -208 64.5t-134 200.5z" />
    <glyph glyph-name="uni021A" unicode="&#x21a;" horiz-adv-x="894" 
d="M264 -436l110 374l195 -60l-155 -361zM894 1169h-340v-1169h-213v1169h-341v196h894v-196z" />
    <glyph glyph-name="uni021B" unicode="&#x21b;" horiz-adv-x="532" 
d="M109 -436l111 374l195 -60l-156 -361zM476 908v-184h-144v-438q0 -58 14.5 -83.5t46.5 -25.5q31 0 96 18v-191q-69 -20 -124 -20q-107 0 -171 72q-66 73 -66 230v438h-97v184h97v201l204 81v-282h144z" />
    <glyph glyph-name="uni0226" unicode="&#x226;" horiz-adv-x="1292" 
d="M645 1749q54 0 94 -38q38 -38 38 -92t-38 -92q-40 -38 -95 -38t-92 39q-38 38 -38 93q0 52 39 90q40 38 92 38zM425 550h440l-221 595zM352 352l-129 -352h-223l515 1365h262l515 -1365h-224l-130 352h-586z" />
    <glyph glyph-name="uni0227" unicode="&#x227;" horiz-adv-x="1117" 
d="M529 1344q54 0 94 -38q38 -38 38 -92t-38 -92q-40 -38 -93 -38q-28 0 -52 10t-42 28t-28 42t-10 52q0 52 39 90q40 38 92 38zM529 751q-114 0 -194 -86q-72 -78 -72 -210q0 -151 92 -232q75 -66 178 -66q118 0 195 84q72 79 72 216q0 150 -91 229q-74 65 -180 65zM1001 0
h-204v79q-139 -107 -280 -107q-113 0 -219 61q-113 65 -176 176q-65 113 -65 246q0 218 159 361q135 120 301 120q140 0 280 -107v79h204v-908z" />
    <glyph glyph-name="uni0237" unicode="&#x237;" horiz-adv-x="456" 
d="M-20 -284q63 -19 95 -19q28 0 41 16q20 23 20 94v1101h204v-1101q0 -174 -82 -246q-64 -56 -155 -56q-55 0 -123 20v191z" />
    <glyph glyph-name="uni02BB" unicode="&#x2bb;" horiz-adv-x="509" 
d="M266 890l-185 67l228 511l145 -58z" />
    <glyph glyph-name="afii57929" unicode="&#x2bc;" horiz-adv-x="580" 
d="M290 1469l187 -68l-228 -513l-147 59z" />
    <glyph glyph-name="circumflex" unicode="&#x2c6;" horiz-adv-x="975" 
d="M488 1203l-184 -180l-153 76l267 293h139l267 -293l-153 -76z" />
    <glyph glyph-name="caron" unicode="&#x2c7;" horiz-adv-x="975" 
d="M488 1229l183 180l153 -77l-267 -292h-139l-267 292l153 77z" />
    <glyph glyph-name="uni02C9" unicode="&#x2c9;" horiz-adv-x="975" 
d="M181 1301h613v-183h-613v183z" />
    <glyph glyph-name="breve" unicode="&#x2d8;" horiz-adv-x="975" 
d="M367 1363q1 -10 1 -16.5v-11.5q3 -51 18 -76q35 -56 97 -56q74 0 107 71q8 18 19 89l176 -15q-5 -53 -14.5 -91t-22.5 -63q-84 -166 -263 -166q-133 0 -218 93q-45 49 -59 94q-16 45 -18 134z" />
    <glyph glyph-name="dotaccent" unicode="&#x2d9;" horiz-adv-x="975" 
d="M487 1344q54 0 94 -38q38 -38 38 -92t-38 -92q-40 -38 -93 -38q-28 0 -52 10t-42 28t-28 42t-10 52q0 52 39 90q40 38 92 38z" />
    <glyph glyph-name="ring" unicode="&#x2da;" horiz-adv-x="975" 
d="M486 1316q-21 0 -40.5 -8.5t-33.5 -23t-22.5 -34t-8.5 -41.5q0 -21 8.5 -40.5t23 -33.5t34 -22.5t40.5 -8.5q45 0 75.5 30.5t30.5 75.5q0 22 -8.5 41.5t-22.5 33.5t-34 22.5t-42 8.5zM486 1416q95 0 158 -69q53 -59 53 -137q0 -90 -68 -152q-60 -54 -142 -54
q-88 0 -148 60q-62 62 -62 149q0 86 69 149q58 54 140 54z" />
    <glyph glyph-name="ogonek" unicode="&#x2db;" horiz-adv-x="975" 
d="M897 0q-74 -94 -74 -134q0 -29 36 -29q37 0 96 22l60 -152q-102 -39 -172 -39q-99 0 -160 67q-46 50 -46 120q0 65 56 145h204z" />
    <glyph glyph-name="tilde" unicode="&#x2dc;" horiz-adv-x="975" 
d="M795 1305q-17 -221 -188 -221q-76 0 -151 42q-50 27 -75 27q-6 0 -11 -3t-8.5 -11.5t-7.5 -24t-8 -39.5l-166 39q9 89 45 145q49 76 146 76q68 0 154 -46q44 -23 72 -23q20 0 28 78z" />
    <glyph glyph-name="hungarumlaut" unicode="&#x2dd;" horiz-adv-x="975" 
d="M926 1318l-295 -297l-119 74l238 329zM632 1322l-299 -301l-116 79l235 324z" />
    <glyph glyph-name="uni0309" unicode="&#x309;" horiz-adv-x="975" 
d="M338 1799q102 38 177 38q105 0 161 -62q40 -43 40 -103q0 -58 -36 -113l-31 -49q-11 -17 -11 -43v-17h-184q1 50 8 73q6 21 26 50l19 27q22 31 22 43q0 26 -34 26t-97 -22z" />
    <glyph glyph-name="uni0323" unicode="&#x323;" horiz-adv-x="975" 
d="M487 -98q54 0 94 -38q38 -38 38 -93q0 -54 -38 -92q-40 -38 -95 -38t-93 38q-38 40 -38 94q0 53 39 91q40 38 93 38z" />
    <glyph glyph-name="uni037E" unicode="&#x37e;" horiz-adv-x="502" 
d="M286 878q55 0 93 -37q38 -38 38 -92q0 -53 -38 -91q-40 -38 -94 -38t-92 38t-38 93q0 52 39 90q37 37 92 37zM223 235l187 -68l-228 -513l-147 59z" />
    <glyph glyph-name="uni0387" unicode="&#x387;" horiz-adv-x="497" 
d="M248 813q55 0 93 -37q38 -38 38 -92t-38 -92q-40 -38 -94 -38q-55 0 -92 39q-38 38 -38 93q0 52 39 90q37 37 92 37z" />
    <glyph glyph-name="uni1E1E" unicode="&#x1e1e;" horiz-adv-x="907" 
d="M498 1749q54 0 94 -38q38 -38 38 -92t-38 -92q-40 -38 -95 -38t-92 39q-38 38 -38 93q0 52 39 90q38 38 92 38zM846 1169h-483v-378h441v-198h-441v-593h-213v1365h696v-196z" />
    <glyph glyph-name="uni1E1F" unicode="&#x1e1f;" horiz-adv-x="530" 
d="M328 1743q54 0 94 -38q38 -38 38 -92t-38 -92q-40 -38 -93 -38q-28 0 -52 10t-42 28t-28 42t-10 52q0 52 39 90q38 38 92 38zM503 724h-160v-724h-204v724h-88v184h88v171q0 174 82 246q64 56 159 56q56 0 120 -16v-184q-54 14 -81 14q-76 0 -76 -116v-171h160v-184z" />
    <glyph glyph-name="Wgrave" unicode="&#x1e80;" horiz-adv-x="1797" 
d="M612 1728l195 105l236 -324l-135 -78zM222 1365l288 -1009l298 1009h181l298 -1009l289 1009h221l-409 -1365h-102h-99l-288 969l-289 -969h-98h-102l-410 1365h222z" />
    <glyph glyph-name="wgrave" unicode="&#x1e81;" horiz-adv-x="1360" 
d="M381 1319l194 104l236 -324l-135 -77zM207 908l196 -578l196 578h163l196 -578l196 578h219l-334 -908h-164l-195 571l-195 -571h-163l-334 908h219z" />
    <glyph glyph-name="Wacute" unicode="&#x1e82;" horiz-adv-x="1797" 
d="M1198 1728l-295 -297l-135 78l236 324zM222 1365l288 -1009l298 1009h181l298 -1009l289 1009h221l-409 -1365h-102h-99l-288 969l-289 -969h-98h-102l-410 1365h222z" />
    <glyph glyph-name="wacute" unicode="&#x1e83;" horiz-adv-x="1364" 
d="M919 1319l-295 -297l-135 77l235 324zM207 908l196 -578l196 578h163l196 -578l196 578h219l-334 -908h-164l-195 571l-195 -571h-163l-334 908h219z" />
    <glyph glyph-name="Wdieresis" unicode="&#x1e84;" horiz-adv-x="1797" 
d="M710 1749q54 0 94 -38q38 -38 38 -92t-38 -92q-40 -38 -95 -38t-92 39q-38 38 -38 93q0 52 39 90q40 38 92 38zM1087 1749q53 0 93 -38q38 -38 38 -92t-38 -92q-40 -38 -94 -38q-56 0 -93 39q-38 38 -38 93q0 52 39 90q40 38 93 38zM222 1365l288 -1009l298 1009h181
l298 -1009l289 1009h221l-409 -1365h-102h-99l-288 969l-289 -969h-98h-102l-410 1365h222z" />
    <glyph glyph-name="wdieresis" unicode="&#x1e85;" horiz-adv-x="1360" 
d="M492 1344q54 0 94 -38q38 -38 38 -92t-38 -92q-40 -38 -93 -38q-28 0 -52 10t-42 28t-28 42t-10 52q0 52 39 90q40 38 92 38zM869 1344q53 0 93 -38q38 -38 38 -92t-38 -92q-40 -38 -94 -38q-56 0 -93 39q-38 38 -38 93q0 52 39 90q40 38 93 38zM207 908l196 -578
l196 578h163l196 -578l196 578h219l-334 -908h-164l-195 571l-195 -571h-163l-334 908h219z" />
    <glyph glyph-name="uni1EA0" unicode="&#x1ea0;" horiz-adv-x="1292" 
d="M645 -97q54 0 94 -38q38 -38 38 -92t-38 -92q-40 -38 -93 -38q-28 0 -52 10t-42 28t-28 42t-10 52q0 52 39 90q40 38 92 38zM425 550h440l-221 595zM352 352l-129 -352h-223l515 1365h262l515 -1365h-224l-130 352h-586z" />
    <glyph glyph-name="uni1EA1" unicode="&#x1ea1;" horiz-adv-x="1117" 
d="M553 -97q54 0 94 -38q38 -38 38 -92t-38 -92q-40 -38 -95 -38q-54 0 -92 38q-38 40 -38 94q0 52 39 90q40 38 92 38zM529 751q-114 0 -194 -86q-72 -78 -72 -210q0 -151 92 -232q75 -66 178 -66q118 0 195 84q72 79 72 216q0 150 -91 229q-74 65 -180 65zM1001 0h-204v79
q-139 -107 -280 -107q-113 0 -219 61q-113 65 -176 176q-65 113 -65 246q0 218 159 361q135 120 301 120q140 0 280 -107v79h204v-908z" />
    <glyph glyph-name="uni1EA2" unicode="&#x1ea2;" horiz-adv-x="1292" 
d="M453 1799q102 38 177 38q105 0 161 -62q40 -43 40 -103q0 -58 -36 -113l-32 -49q-11 -19 -11 -42v-6.5t1 -11.5h-184q2 52 7 72q6 21 26 51l20 27q22 31 22 43q0 26 -34 26t-97 -22zM425 550h440l-221 595zM352 352l-129 -352h-223l515 1365h262l515 -1365h-224l-130 352
h-586z" />
    <glyph glyph-name="uni1EA3" unicode="&#x1ea3;" horiz-adv-x="1117" 
d="M346 1377q102 38 178 38q105 0 161 -62q40 -43 40 -103q0 -57 -37 -113l-31 -49q-11 -17 -11 -43v-17h-183q2 54 7 73q6 21 26 50l19 27q23 34 23 43q0 26 -34 26t-97 -22zM529 751q-114 0 -194 -86q-72 -78 -72 -210q0 -151 92 -232q75 -66 178 -66q118 0 195 84
q72 79 72 216q0 150 -91 229q-74 65 -180 65zM1001 0h-204v79q-139 -107 -280 -107q-113 0 -219 61q-113 65 -176 176q-65 113 -65 246q0 218 159 361q135 120 301 120q140 0 280 -107v79h204v-908z" />
    <glyph glyph-name="uni1EA4" unicode="&#x1ea4;" horiz-adv-x="1292" 
d="M425 550h440l-221 595zM352 352l-129 -352h-223l515 1365h262l515 -1365h-224l-130 352h-586zM908 1590l74 -81l-153 -77l-183 180l-184 -180l-153 77l267 292h140l79 -87l167 231l195 -105z" />
    <glyph glyph-name="uni1EA5" unicode="&#x1ea5;" horiz-adv-x="1117" 
d="M1106 1528l-296 -297l-135 78l236 324zM529 751q-114 0 -194 -86q-72 -78 -72 -210q0 -151 92 -232q75 -66 178 -66q118 0 195 84q72 79 72 216q0 150 -91 229q-74 65 -180 65zM1001 0h-204v79q-139 -107 -280 -107q-113 0 -219 61q-113 65 -176 176q-65 113 -65 246
q0 218 159 361q135 120 301 120q140 0 280 -107v79h204v-908zM529 1169l-184 -180l-152 77l267 292h139l267 -292l-153 -77z" />
    <glyph glyph-name="uni1EA6" unicode="&#x1ea6;" horiz-adv-x="1292" 
d="M740 1841l195 105l236 -325l-136 -77zM646 1612l-184 -180l-153 77l267 292h140l266 -292l-153 -77zM425 550h440l-221 595zM352 352l-129 -352h-223l515 1365h262l515 -1365h-224l-130 352h-586z" />
    <glyph glyph-name="uni1EA7" unicode="&#x1ea7;" horiz-adv-x="1117" 
d="M500 1528l195 105l236 -324l-135 -78zM529 1169l-184 -180l-152 77l267 292h139l267 -292l-153 -77zM529 751q-114 0 -194 -86q-72 -78 -72 -210q0 -151 92 -232q75 -66 178 -66q118 0 195 84q72 79 72 216q0 150 -91 229q-74 65 -180 65zM1001 0h-204v79
q-139 -107 -280 -107q-113 0 -219 61q-113 65 -176 176q-65 113 -65 246q0 218 159 361q135 120 301 120q140 0 280 -107v79h204v-908z" />
    <glyph glyph-name="uni1EA8" unicode="&#x1ea8;" horiz-adv-x="1292" 
d="M425 550h440l-221 595zM352 352l-129 -352h-223l515 1365h262l515 -1365h-224l-130 352h-586zM884 1616q1 4 3 6q7 28 24 51l19 28q23 32 23 43q0 25 -34 25t-97 -22l-61 152q100 39 178 39q105 0 161 -62q40 -43 40 -104q0 -56 -36 -113l-32 -49q-11 -19 -11 -42v-6.5
t1 -11.5h-118l38 -42l-153 -76l-183 180l-184 -180l-153 76l267 293h140z" />
    <glyph glyph-name="uni1EA9" unicode="&#x1ea9;" horiz-adv-x="1117" 
d="M529 751q-114 0 -194 -86q-72 -78 -72 -210q0 -151 92 -232q75 -66 178 -66q118 0 195 84q72 79 72 216q0 150 -91 229q-74 65 -180 65zM1001 0h-204v79q-139 -107 -280 -107q-113 0 -219 61q-113 65 -176 176q-65 113 -65 246q0 218 159 361q135 120 301 120
q140 0 280 -107v79h204v-908zM699 1248q4 70 34 113l20 28q22 31 22 43q0 26 -34 26q-31 0 -97 -23l-61 152q100 39 178 39q105 0 161 -62q40 -43 40 -104q0 -56 -36 -113l-32 -49q-11 -19 -11 -42v-6.5t1 -11.5h-176l158 -173l-153 -76l-184 180l-184 -180l-152 76l267 293
h139z" />
    <glyph glyph-name="uni1EAA" unicode="&#x1eaa;" horiz-adv-x="1292" 
d="M953 2007q-18 -221 -188 -221q-76 0 -151 42q-48 27 -74 27q-7 0 -12 -3t-8.5 -11t-7.5 -23.5t-8 -40.5l-166 39q23 221 192 221q68 0 153 -46q44 -23 72 -23q22 0 29 79zM646 1573l-184 -181l-153 77l267 293h140l266 -293l-153 -77zM425 550h440l-221 595zM352 352
l-129 -352h-223l515 1365h262l515 -1365h-224l-130 352h-586z" />
    <glyph glyph-name="uni1EAB" unicode="&#x1eab;" horiz-adv-x="1117" 
d="M529 1169l-184 -180l-153 77l267 292h139l267 -292l-153 -77zM836 1626q-18 -221 -188 -221q-76 0 -151 42q-50 27 -75 27q-6 0 -11 -3t-8.5 -11.5t-7.5 -24t-8 -39.5l-166 39q9 89 45 145q49 76 146 76q66 0 154 -46q44 -23 72 -23q20 0 28 78zM529 751q-114 0 -194 -86
q-72 -78 -72 -210q0 -151 92 -232q75 -66 178 -66q118 0 195 84q72 79 72 216q0 150 -91 229q-74 65 -180 65zM1001 0h-204v79q-139 -107 -280 -107q-113 0 -219 61q-113 65 -176 176q-65 113 -65 246q0 218 159 361q135 120 301 120q140 0 280 -107v79h204v-908z" />
    <glyph glyph-name="uni1EAC" unicode="&#x1eac;" horiz-adv-x="1292" 
d="M645 -97q54 0 94 -38q38 -38 38 -92t-38 -92q-40 -38 -93 -38q-28 0 -52 10t-42 28t-28 42t-10 52q0 52 39 90q40 38 92 38zM646 1612l-184 -180l-153 77l267 292h140l266 -292l-153 -77zM425 550h440l-221 595zM352 352l-129 -352h-223l515 1365h262l515 -1365h-224
l-130 352h-586z" />
    <glyph glyph-name="uni1EAD" unicode="&#x1ead;" horiz-adv-x="1117" 
d="M529 1203l-184 -180l-153 76l267 293h140l267 -293l-153 -76zM537 -97q54 0 94 -38q38 -38 38 -92t-38 -92q-40 -38 -93 -38q-28 0 -52 10t-42 28t-28 42t-10 52q0 52 39 90q40 38 92 38zM529 751q-114 0 -194 -86q-72 -78 -72 -210q0 -151 92 -232q75 -66 178 -66
q118 0 195 84q72 79 72 216q0 150 -91 229q-74 65 -180 65zM1001 0h-204v79q-139 -107 -280 -107q-113 0 -219 61q-113 65 -176 176q-65 113 -65 246q0 218 159 361q135 120 301 120q140 0 280 -107v79h204v-908z" />
    <glyph glyph-name="uni1EAE" unicode="&#x1eae;" horiz-adv-x="1292" 
d="M425 550h440l-221 595zM352 352l-129 -352h-223l515 1365h262l515 -1365h-224l-130 352h-586zM510 1735l234 322l195 -105l-296 -297l-116 67q0 -9 1 -13q1 -51 18 -78q33 -56 97 -56q72 0 107 71q9 19 18 90l177 -14q-12 -105 -37 -155q-85 -166 -264 -166
q-133 0 -218 93q-45 49 -59 94q-16 45 -18 134z" />
    <glyph glyph-name="uni1EAF" unicode="&#x1eaf;" horiz-adv-x="1117" 
d="M836 1574l-296 -297l-135 77l236 324zM412 1329q5 -75 14 -94q31 -67 103 -67t107 71q9 19 18 89l177 -14q-12 -106 -37 -154q-85 -166 -264 -166q-132 0 -218 92q-45 51 -59 95q-17 45 -18 133zM529 751q-114 0 -194 -86q-72 -78 -72 -210q0 -151 92 -232
q75 -66 178 -66q118 0 195 84q72 79 72 216q0 150 -91 229q-74 65 -180 65zM1001 0h-204v79q-139 -107 -280 -107q-113 0 -219 61q-113 65 -176 176q-65 113 -65 246q0 218 159 361q135 120 301 120q140 0 280 -107v79h204v-908z" />
    <glyph glyph-name="uni1EB0" unicode="&#x1eb0;" horiz-adv-x="1292" 
d="M425 550h440l-221 595zM352 352l-129 -352h-223l515 1365h262l515 -1365h-224l-130 352h-586zM767 1729l-128 -74l-296 297l195 105l233 -321l174 -14q-12 -105 -37 -155q-85 -166 -264 -166q-133 0 -218 93q-45 49 -59 94q-16 45 -18 134l177 14q5 -75 14 -94
q31 -67 103 -67q54 0 83 35.5t40 113.5z" />
    <glyph glyph-name="uni1EB1" unicode="&#x1eb1;" horiz-adv-x="1117" 
d="M222 1574l195 104l236 -324l-135 -77zM412 1329q5 -75 14 -94q31 -67 103 -67t107 71q9 19 18 89l177 -14q-12 -106 -37 -154q-85 -166 -264 -166q-132 0 -218 92q-45 51 -59 95q-17 45 -18 133zM529 751q-114 0 -194 -86q-72 -78 -72 -210q0 -151 92 -232
q75 -66 178 -66q118 0 195 84q72 79 72 216q0 150 -91 229q-74 65 -180 65zM1001 0h-204v79q-139 -107 -280 -107q-113 0 -219 61q-113 65 -176 176q-65 113 -65 246q0 218 159 361q135 120 301 120q140 0 280 -107v79h204v-908z" />
    <glyph glyph-name="uni1EB2" unicode="&#x1eb2;" horiz-adv-x="1292" 
d="M425 550h440l-221 595zM352 352l-129 -352h-223l515 1365h262l515 -1365h-224l-130 352h-586zM428 2039q102 38 177 38q105 0 161 -62q40 -43 40 -103q0 -58 -36 -113l-32 -49q-11 -19 -11 -42v-6t1 -12h-185q3 79 34 123l20 27q22 31 22 43q0 26 -34 26t-97 -22z
M526 1744l2 -33q3 -48 19 -73q33 -54 96 -54q72 0 107 71q9 19 18 89l177 -14q-12 -107 -37 -155q-85 -166 -264 -166q-133 0 -218 93q-45 49 -59 94q-16 45 -18 134z" />
    <glyph glyph-name="uni1EB3" unicode="&#x1eb3;" horiz-adv-x="1117" 
d="M314 1677q102 39 177 39q105 0 161 -62q40 -43 40 -104q0 -57 -36 -112l-32 -50q-10 -16 -10 -59h-184q1 47 8 72q6 22 25 50l20 28q22 31 22 43q0 26 -34 26q-30 0 -97 -23zM412 1329q5 -75 14 -94q31 -67 103 -67t107 71q9 19 18 89l177 -14q-12 -106 -37 -154
q-85 -166 -264 -166q-132 0 -218 92q-45 51 -59 95q-17 45 -18 133zM529 751q-114 0 -194 -86q-72 -78 -72 -210q0 -151 92 -232q75 -66 178 -66q118 0 195 84q72 79 72 216q0 150 -91 229q-74 65 -180 65zM1001 0h-204v79q-139 -107 -280 -107q-113 0 -219 61
q-113 65 -176 176q-65 113 -65 246q0 218 159 361q135 120 301 120q140 0 280 -107v79h204v-908z" />
    <glyph glyph-name="uni1EB4" unicode="&#x1eb4;" horiz-adv-x="1292" 
d="M525 1744q1 -9 1 -16v-12q3 -51 18 -76q35 -56 98 -56q73 0 106 71q10 18 19 89l177 -14q-12 -107 -37 -155q-85 -166 -264 -166q-133 0 -218 93q-45 49 -59 94q-17 47 -18 134zM953 2007q-18 -221 -188 -221q-76 0 -151 42q-48 27 -74 27q-7 0 -12 -3t-8.5 -11
t-7.5 -23.5t-8 -40.5l-166 39q23 221 192 221q68 0 153 -46q44 -23 72 -23q22 0 29 79zM425 550h440l-221 595zM352 352l-129 -352h-223l515 1365h262l515 -1365h-224l-130 352h-586z" />
    <glyph glyph-name="uni1EB5" unicode="&#x1eb5;" horiz-adv-x="1117" 
d="M409 1340q1 -10 1 -16.5t1 -11.5q2 -52 18 -77q32 -56 97 -56q74 0 107 72q8 20 18 89l177 -14q-12 -106 -37 -155q-85 -166 -264 -166q-133 0 -218 93q-45 49 -59 94q-17 47 -18 134zM836 1626q-17 -221 -187 -221q-76 0 -151 42q-50 27 -75 27q-7 0 -12 -3t-8.5 -11.5
t-7 -24t-7.5 -39.5l-166 39q9 89 45 145q49 76 146 76q66 0 154 -46q44 -23 71 -23q21 0 29 78zM529 751q-114 0 -194 -86q-72 -78 -72 -210q0 -151 92 -232q75 -66 178 -66q118 0 195 84q72 79 72 216q0 150 -91 229q-74 65 -180 65zM1001 0h-204v79q-139 -107 -280 -107
q-113 0 -219 61q-113 65 -176 176q-65 113 -65 246q0 218 159 361q135 120 301 120q140 0 280 -107v79h204v-908z" />
    <glyph glyph-name="uni1EB6" unicode="&#x1eb6;" horiz-adv-x="1292" 
d="M525 1773q3 -74 13 -94q31 -67 104 -67t106 71q10 18 19 89l177 -14q-12 -104 -38 -154q-84 -166 -263 -166q-133 0 -218 93q-45 49 -59 94q-17 45 -18 133zM645 -97q54 0 94 -38q38 -38 38 -92t-38 -92q-40 -38 -93 -38q-28 0 -52 10t-42 28t-28 42t-10 52q0 52 39 90
q40 38 92 38zM425 550h440l-221 595zM352 352l-129 -352h-223l515 1365h262l515 -1365h-224l-130 352h-586z" />
    <glyph glyph-name="uni1EB7" unicode="&#x1eb7;" horiz-adv-x="1117" 
d="M408 1363q1 -10 1 -16.5t1 -11.5q2 -51 18 -76q33 -56 97 -56q74 0 107 71q8 20 18 89l177 -15q-12 -106 -37 -154q-85 -166 -264 -166q-133 0 -218 93q-45 49 -59 94q-16 45 -18 134zM537 -97q54 0 94 -38q38 -38 38 -92t-38 -92q-40 -38 -93 -38q-28 0 -52 10t-42 28
t-28 42t-10 52q0 52 39 90q40 38 92 38zM529 751q-114 0 -194 -86q-72 -78 -72 -210q0 -151 92 -232q75 -66 178 -66q118 0 195 84q72 79 72 216q0 150 -91 229q-74 65 -180 65zM1001 0h-204v79q-139 -107 -280 -107q-113 0 -219 61q-113 65 -176 176q-65 113 -65 246
q0 218 159 361q135 120 301 120q140 0 280 -107v79h204v-908z" />
    <glyph glyph-name="uni1EB8" unicode="&#x1eb8;" horiz-adv-x="984" 
d="M558 -97q54 0 94 -38q38 -38 38 -92t-38 -92q-40 -38 -95 -38q-54 0 -92 38q-38 40 -38 94q0 52 39 90q40 38 92 38zM892 1169h-529v-378h470v-198h-470v-395h549v-198h-762v1365h742v-196z" />
    <glyph glyph-name="uni1EB9" unicode="&#x1eb9;" horiz-adv-x="1012" 
d="M519 -97q54 0 94 -38q38 -38 38 -92t-38 -92q-40 -38 -95 -38q-54 0 -92 38q-38 40 -38 94q0 52 39 90q40 38 92 38zM751 534q-23 88 -65 140q-64 82 -175 82q-94 0 -158 -58t-86 -164h484zM267 376q15 -72 53 -124q71 -95 203 -95q72 0 132.5 31t96.5 86l18 29l176 -73
q-153 -258 -424 -258q-210 0 -343 151q-122 140 -122 332q0 224 156 367q125 115 296 115q194 0 323 -144q67 -75 98 -185q24 -84 24 -174v-22t-1 -36h-686z" />
    <glyph glyph-name="uni1EBA" unicode="&#x1eba;" horiz-adv-x="984" 
d="M342 1799q102 38 177 38q105 0 161 -62q40 -43 40 -103q0 -58 -36 -113l-32 -49q-10 -16 -10 -60h-184q1 47 8 72q6 24 25 51l20 27q22 31 22 43q0 26 -34 26t-97 -22zM892 1169h-529v-378h470v-198h-470v-395h549v-198h-762v1365h742v-196z" />
    <glyph glyph-name="uni1EBB" unicode="&#x1ebb;" horiz-adv-x="1012" 
d="M323 1377q102 38 177 38q105 0 161 -62q40 -43 40 -103q0 -58 -36 -113l-31 -49q-11 -17 -11 -60h-184q1 50 8 73q6 21 26 50l19 27q22 31 22 43q0 26 -34 26t-97 -22zM751 534q-23 88 -65 140q-64 82 -175 82q-94 0 -158 -58t-86 -164h484zM267 376q15 -72 53 -124
q71 -95 203 -95q72 0 132.5 31t96.5 86l18 29l176 -73q-153 -258 -424 -258q-210 0 -343 151q-122 140 -122 332q0 224 156 367q125 115 296 115q194 0 323 -144q67 -75 98 -185q24 -84 24 -174v-22t-1 -36h-686z" />
    <glyph glyph-name="uni1EBC" unicode="&#x1ebc;" horiz-adv-x="984" 
d="M798 1715q-17 -221 -188 -221q-76 0 -151 42q-47 25 -75 27h-1q-20 0 -34 -78l-166 39q23 221 192 221q68 0 153 -46q44 -23 72 -23q21 0 29 78zM892 1169h-529v-378h470v-198h-470v-395h549v-198h-762v1365h742v-196z" />
    <glyph glyph-name="uni1EBD" unicode="&#x1ebd;" horiz-adv-x="1012" 
d="M813 1305q-17 -221 -188 -221q-76 0 -151 42q-47 25 -75 27h-1q-20 0 -34 -78l-166 39q11 90 46 145q49 76 146 76q68 0 153 -46q44 -23 72 -23q21 0 29 78zM751 534q-23 88 -65 140q-64 82 -175 82q-94 0 -158 -58t-86 -164h484zM267 376q15 -72 53 -124q71 -95 203 -95
q72 0 132.5 31t96.5 86l18 29l176 -73q-153 -258 -424 -258q-210 0 -343 151q-122 140 -122 332q0 224 156 367q125 115 296 115q194 0 323 -144q67 -75 98 -185q24 -84 24 -174v-22t-1 -36h-686z" />
    <glyph glyph-name="uni1EBE" unicode="&#x1ebe;" horiz-adv-x="984" 
d="M892 1169h-529v-378h470v-198h-470v-395h549v-198h-762v1365h742v-196zM770 1590l75 -81l-153 -77l-184 180l-184 -180l-153 77l267 292h140l79 -87l167 231l195 -105z" />
    <glyph glyph-name="uni1EBF" unicode="&#x1ebf;" horiz-adv-x="1012" 
d="M751 534q-23 88 -65 140q-64 82 -175 82q-94 0 -158 -58t-86 -164h484zM267 376q15 -72 53 -124q71 -95 203 -95q72 0 132.5 31t96.5 86l18 29l176 -73q-153 -258 -424 -258q-210 0 -343 151q-122 140 -122 332q0 224 156 367q125 115 296 115q194 0 323 -144
q67 -75 98 -185q24 -84 24 -174v-22t-1 -36h-686zM509 1169l-183 -180l-153 77l267 292h139l267 -292l-153 -77zM1086 1528l-296 -297l-135 78l236 324z" />
    <glyph glyph-name="uni1EC0" unicode="&#x1ec0;" horiz-adv-x="984" 
d="M508 1612l-184 -180l-153 77l267 292h140l266 -292l-153 -77zM602 1841l195 105l236 -325l-135 -77zM892 1169h-529v-378h470v-198h-470v-395h549v-198h-762v1365h742v-196z" />
    <glyph glyph-name="uni1EC1" unicode="&#x1ec1;" horiz-adv-x="1012" 
d="M509 1169l-183 -180l-153 77l267 292h139l267 -292l-153 -77zM481 1528l194 105l236 -324l-135 -78zM751 534q-23 88 -65 140q-64 82 -175 82q-94 0 -158 -58t-86 -164h484zM267 376q15 -72 53 -124q71 -95 203 -95q72 0 132.5 31t96.5 86l18 29l176 -73
q-153 -258 -424 -258q-210 0 -343 151q-122 140 -122 332q0 224 156 367q125 115 296 115q194 0 323 -144q67 -75 98 -185q24 -84 24 -174v-22t-1 -36h-686z" />
    <glyph glyph-name="uni1EC2" unicode="&#x1ec2;" horiz-adv-x="984" 
d="M892 1169h-529v-378h470v-198h-470v-395h549v-198h-762v1365h742v-196zM746 1617q8 29 27 56l20 28q22 31 22 42q0 26 -34 26t-97 -22l-61 152q100 39 178 39q105 0 161 -62q40 -43 40 -104q0 -56 -36 -113l-32 -49q-11 -19 -11 -42v-6t1 -12h-117l38 -42l-153 -76
l-184 180l-184 -180l-153 76l267 293h140z" />
    <glyph glyph-name="uni1EC3" unicode="&#x1ec3;" horiz-adv-x="1012" 
d="M751 534q-23 88 -65 140q-64 82 -175 82q-94 0 -158 -58t-86 -164h484zM267 376q15 -72 53 -124q71 -95 203 -95q72 0 132.5 31t96.5 86l18 29l176 -73q-153 -258 -424 -258q-210 0 -343 151q-122 140 -122 332q0 224 156 367q125 115 296 115q194 0 323 -144
q67 -75 98 -185q24 -84 24 -174v-22t-1 -36h-686zM679 1248q4 70 34 113l20 28q22 31 22 43q0 26 -34 26q-31 0 -97 -23l-60 152q100 39 177 39q105 0 161 -62q40 -43 40 -104q0 -56 -36 -113l-32 -49q-11 -19 -11 -42v-6.5t1 -11.5h-176l158 -173l-153 -76l-184 180
l-183 -180l-153 76l267 293h139z" />
    <glyph glyph-name="uni1EC4" unicode="&#x1ec4;" horiz-adv-x="984" 
d="M815 2007q-17 -221 -188 -221q-75 0 -150 42q-50 27 -75 27q-7 0 -12 -3t-8.5 -11t-7 -23.5t-7.5 -40.5l-166 39q23 221 191 221q68 0 153 -46q44 -23 72 -23q22 0 29 79zM508 1573l-184 -181l-153 77l267 293h140l267 -293l-153 -77zM892 1169h-529v-378h470v-198h-470
v-395h549v-198h-762v1365h742v-196z" />
    <glyph glyph-name="uni1EC5" unicode="&#x1ec5;" horiz-adv-x="1012" 
d="M509 1169l-183 -180l-153 77l267 292h139l267 -292l-153 -77zM816 1626q-17 -221 -188 -221q-75 0 -150 42q-50 27 -75 27q-7 0 -12 -3t-8.5 -11.5t-7 -24t-7.5 -39.5l-166 39q23 221 191 221q67 0 153 -46q46 -23 72 -23q21 0 29 78zM751 534q-23 88 -65 140
q-64 82 -175 82q-94 0 -158 -58t-86 -164h484zM267 376q15 -72 53 -124q71 -95 203 -95q72 0 132.5 31t96.5 86l18 29l176 -73q-153 -258 -424 -258q-210 0 -343 151q-122 140 -122 332q0 224 156 367q125 115 296 115q194 0 323 -144q67 -75 98 -185q24 -84 24 -174v-22
t-1 -36h-686z" />
    <glyph glyph-name="uni1EC6" unicode="&#x1ec6;" horiz-adv-x="984" 
d="M532 1612l-184 -180l-153 77l267 292h140l266 -292l-152 -77zM558 -97q54 0 94 -38q38 -38 38 -92t-38 -92q-40 -38 -95 -38q-54 0 -92 38q-38 40 -38 94q0 52 39 90q40 38 92 38zM892 1169h-529v-378h470v-198h-470v-395h549v-198h-762v1365h742v-196z" />
    <glyph glyph-name="uni1EC7" unicode="&#x1ec7;" horiz-adv-x="1012" 
d="M516 1203l-184 -180l-153 76l267 293h140l266 -293l-152 -76zM519 -97q54 0 94 -38q38 -38 38 -92t-38 -92q-40 -38 -95 -38q-54 0 -92 38q-38 40 -38 94q0 52 39 90q38 38 92 38zM751 534q-23 88 -65 140q-64 82 -175 82q-94 0 -158 -58t-86 -164h484zM267 376
q15 -72 53 -124q71 -95 203 -95q72 0 132.5 31t96.5 86l18 29l176 -73q-153 -258 -424 -258q-210 0 -343 151q-122 140 -122 332q0 224 156 367q125 115 296 115q194 0 323 -144q67 -75 98 -185q24 -84 24 -174v-22t-1 -36h-686z" />
    <glyph glyph-name="uni1EC8" unicode="&#x1ec8;" horiz-adv-x="513" 
d="M66 1799q102 38 177 38q105 0 161 -62q40 -43 40 -103q0 -58 -36 -113l-31 -49q-11 -17 -11 -43v-17h-184q1 50 8 73q6 21 26 50l19 27q22 31 22 43q0 26 -34 26t-97 -22zM363 1365v-1365h-212v1365h212z" />
    <glyph glyph-name="uni1EC9" unicode="&#x1ec9;" horiz-adv-x="436" 
d="M26 1377q102 38 177 38q105 0 161 -62q40 -43 40 -103q0 -58 -36 -113l-31 -49q-11 -17 -11 -42v-18h-184q1 47 8 72q6 21 26 51l19 27q22 31 22 43q0 26 -34 26t-97 -22zM320 908v-908h-204v908h204z" />
    <glyph glyph-name="uni1ECA" unicode="&#x1eca;" horiz-adv-x="513" 
d="M256 -97q54 0 94 -38q38 -38 38 -92t-38 -92q-40 -38 -93 -38q-28 0 -52 10t-42 28t-28 42t-10 52q0 52 39 90q40 38 92 38zM362 1365v-1365h-212v1365h212z" />
    <glyph glyph-name="uni1ECB" unicode="&#x1ecb;" horiz-adv-x="436" 
d="M218 -97q54 0 94 -38q38 -38 38 -92t-38 -92q-40 -38 -93 -38q-56 0 -94 38q-38 40 -38 94q0 52 39 90q40 38 92 38zM218 1344q54 0 94 -38q38 -38 38 -92q0 -55 -38 -93q-40 -38 -95 -38q-56 0 -93 39q-38 38 -38 94q0 52 39 90q40 38 93 38zM320 908v-908h-204v908h204
z" />
    <glyph glyph-name="uni1ECC" unicode="&#x1ecc;" horiz-adv-x="1562" 
d="M780 -97q54 0 94 -38q38 -38 38 -92t-38 -92q-40 -38 -93 -38q-28 0 -52 10t-42 28t-28 42t-10 52q0 52 39 90q40 38 92 38zM777 1193q-212 0 -358 -164q-131 -146 -131 -355q0 -167 100 -300q77 -104 195 -158q97 -44 197 -44q124 0 240 66q60 34 105.5 80t79.5 104
q68 119 68 260q0 230 -168 385q-138 126 -328 126zM780 1393q190 0 350 -94q166 -97 263 -262q96 -165 96 -355t-97 -356q-94 -163 -261 -259q-166 -95 -348 -95q-270 0 -473 182q-238 211 -238 537q0 185 96 346q101 168 263 262q163 94 349 94z" />
    <glyph glyph-name="uni1ECD" unicode="&#x1ecd;" horiz-adv-x="1070" 
d="M535 -97q54 0 94 -38q38 -38 38 -92t-38 -92q-40 -38 -95 -38q-54 0 -92 38q-38 40 -38 94q0 52 39 90q40 38 92 38zM530 751q-115 0 -195 -86q-72 -78 -72 -210q0 -149 92 -232q75 -66 179 -66q122 0 200 86q72 79 72 214q0 146 -91 227q-74 67 -185 67zM542 936
q207 0 347 -156q123 -137 123 -325q0 -222 -159 -364q-134 -119 -318 -119q-214 0 -354 155q-124 136 -124 327q0 185 114 317q144 165 371 165z" />
    <glyph glyph-name="uni1ECE" unicode="&#x1ece;" horiz-adv-x="1562" 
d="M591 1799q102 38 178 38q104 0 161 -62q40 -43 40 -103q0 -56 -36 -113l-32 -49q-11 -17 -11 -42v-18h-183q2 52 7 72q6 21 26 51l19 27q23 34 23 43q0 26 -34 26q-35 0 -98 -22zM777 1193q-212 0 -358 -164q-131 -146 -131 -355q0 -167 100 -300q77 -104 195 -158
q97 -44 197 -44q124 0 240 66q60 34 105.5 80t79.5 104q68 119 68 260q0 230 -168 385q-138 126 -328 126zM780 1393q190 0 350 -94q166 -97 263 -262q96 -165 96 -355t-97 -356q-94 -163 -261 -259q-166 -95 -348 -95q-270 0 -473 182q-238 211 -238 537q0 185 96 346
q101 168 263 262q163 94 349 94z" />
    <glyph glyph-name="uni1ECF" unicode="&#x1ecf;" horiz-adv-x="1070" 
d="M345 1377q103 38 178 38q105 0 161 -62q40 -43 40 -103q0 -56 -36 -113l-32 -49q-11 -19 -11 -43v-6t1 -11h-184q1 50 8 73q4 20 25 50l20 27q22 31 22 43q0 26 -34 26t-97 -22zM530 751q-115 0 -195 -86q-72 -78 -72 -210q0 -149 92 -232q75 -66 179 -66q122 0 200 86
q72 79 72 214q0 146 -91 227q-74 67 -185 67zM542 936q207 0 347 -156q123 -137 123 -325q0 -222 -159 -364q-134 -119 -318 -119q-214 0 -354 155q-124 136 -124 327q0 185 114 317q144 165 371 165z" />
    <glyph glyph-name="uni1ED0" unicode="&#x1ed0;" horiz-adv-x="1562" 
d="M777 1193q-212 0 -358 -164q-131 -146 -131 -355q0 -167 100 -300q77 -104 195 -158q97 -44 197 -44q124 0 240 66q60 34 105.5 80t79.5 104q68 119 68 260q0 230 -168 385q-138 126 -328 126zM780 1393q190 0 350 -94q166 -97 263 -262q96 -165 96 -355t-97 -356
q-94 -163 -261 -259q-166 -95 -348 -95q-270 0 -473 182q-238 211 -238 537q0 185 96 346q101 168 263 262q163 94 349 94zM1042 1590l75 -81l-153 -77l-184 173l-183 -173l-153 77l267 292h139l79 -87l168 231l195 -105z" />
    <glyph glyph-name="uni1ED1" unicode="&#x1ed1;" horiz-adv-x="1070" 
d="M1111 1528l-295 -297l-135 78l235 324zM535 1169l-184 -180l-153 77l267 292h139l267 -292l-153 -77zM530 751q-115 0 -195 -86q-72 -78 -72 -210q0 -149 92 -232q75 -66 179 -66q122 0 200 86q72 79 72 214q0 146 -91 227q-74 67 -185 67zM542 936q207 0 347 -156
q123 -137 123 -325q0 -222 -159 -364q-134 -119 -318 -119q-214 0 -354 155q-124 136 -124 327q0 185 114 317q144 165 371 165z" />
    <glyph glyph-name="uni1ED2" unicode="&#x1ed2;" horiz-adv-x="1562" 
d="M874 1841l195 105l236 -325l-135 -77zM780 1612l-183 -180l-153 77l267 292h139l267 -292l-153 -77zM777 1193q-212 0 -358 -164q-131 -146 -131 -355q0 -167 100 -300q77 -104 195 -158q97 -44 197 -44q124 0 240 66q60 34 105.5 80t79.5 104q68 119 68 260
q0 230 -168 385q-138 126 -328 126zM780 1393q190 0 350 -94q166 -97 263 -262q96 -165 96 -355t-97 -356q-94 -163 -261 -259q-166 -95 -348 -95q-270 0 -473 182q-238 211 -238 537q0 185 96 346q101 168 263 262q163 94 349 94z" />
    <glyph glyph-name="uni1ED3" unicode="&#x1ed3;" horiz-adv-x="1070" 
d="M506 1528l195 105l235 -324l-135 -78zM535 1169l-184 -180l-153 77l267 292h139l267 -292l-153 -77zM530 751q-115 0 -195 -86q-72 -78 -72 -210q0 -149 92 -232q75 -66 179 -66q122 0 200 86q72 79 72 214q0 146 -91 227q-74 67 -185 67zM542 936q207 0 347 -156
q123 -137 123 -325q0 -222 -159 -364q-134 -119 -318 -119q-214 0 -354 155q-124 136 -124 327q0 185 114 317q144 165 371 165z" />
    <glyph glyph-name="uni1ED4" unicode="&#x1ed4;" horiz-adv-x="1562" 
d="M777 1193q-212 0 -358 -164q-131 -146 -131 -355q0 -167 100 -300q77 -104 195 -158q97 -44 197 -44q124 0 240 66q60 34 105.5 80t79.5 104q68 119 68 260q0 230 -168 385q-138 126 -328 126zM780 1393q190 0 350 -94q166 -97 263 -262q96 -165 96 -355t-97 -356
q-94 -163 -261 -259q-166 -95 -348 -95q-270 0 -473 182q-238 211 -238 537q0 185 96 346q101 168 263 262q163 94 349 94zM1018 1617q10 31 28 56l19 28q22 31 22 42q0 26 -34 26t-97 -22l-60 152q100 39 177 39q105 0 161 -62q40 -43 40 -104q0 -58 -36 -113l-31 -49
q-11 -17 -11 -42v-18h-117l38 -42l-153 -76l-184 180l-183 -180l-153 76l267 293h139z" />
    <glyph glyph-name="uni1ED5" unicode="&#x1ed5;" horiz-adv-x="1070" 
d="M530 751q-115 0 -195 -86q-72 -78 -72 -210q0 -149 92 -232q75 -66 179 -66q122 0 200 86q72 79 72 214q0 146 -91 227q-74 67 -185 67zM542 936q207 0 347 -156q123 -137 123 -325q0 -222 -159 -364q-134 -119 -318 -119q-214 0 -354 155q-124 136 -124 327
q0 185 114 317q144 165 371 165zM704 1248q4 68 34 113l20 28q22 31 22 43q0 26 -34 26q-31 0 -97 -23l-60 152q100 39 177 39q105 0 161 -62q40 -43 40 -104q0 -58 -36 -113l-31 -49q-11 -17 -11 -60h-175l157 -173l-153 -76l-183 180l-184 -180l-153 76l267 293h139z" />
    <glyph glyph-name="uni1ED6" unicode="&#x1ed6;" horiz-adv-x="1562" 
d="M1088 2007q-17 -221 -188 -221q-76 0 -151 42q-50 27 -75 27q-7 0 -11.5 -3t-8.5 -11t-7.5 -23.5t-7.5 -40.5l-166 39q23 221 191 221q69 0 154 -46q44 -23 71 -23q22 0 29 79zM780 1573l-183 -181l-153 77l267 293h139l267 -293l-153 -77zM777 1193q-212 0 -358 -164
q-131 -146 -131 -355q0 -167 100 -300q77 -104 195 -158q97 -44 197 -44q124 0 240 66q60 34 105.5 80t79.5 104q68 119 68 260q0 230 -168 385q-138 126 -328 126zM780 1393q190 0 350 -94q166 -97 263 -262q96 -165 96 -355t-97 -356q-94 -163 -261 -259
q-166 -95 -348 -95q-270 0 -473 182q-238 211 -238 537q0 185 96 346q101 168 263 262q163 94 349 94z" />
    <glyph glyph-name="uni1ED7" unicode="&#x1ed7;" horiz-adv-x="1070" 
d="M535 1169l-184 -180l-153 77l267 292h139l267 -292l-153 -77zM842 1626q-17 -221 -188 -221q-76 0 -151 42q-50 27 -75 27q-6 0 -11 -3t-8.5 -11.5t-7.5 -24t-8 -39.5l-166 39q23 221 191 221q66 0 154 -46q44 -23 72 -23q20 0 28 78zM530 751q-115 0 -195 -86
q-72 -78 -72 -210q0 -149 92 -232q75 -66 179 -66q122 0 200 86q72 79 72 214q0 146 -91 227q-74 67 -185 67zM542 936q207 0 347 -156q123 -137 123 -325q0 -222 -159 -364q-134 -119 -318 -119q-214 0 -354 155q-124 136 -124 327q0 185 114 317q144 165 371 165z" />
    <glyph glyph-name="uni1ED8" unicode="&#x1ed8;" horiz-adv-x="1562" 
d="M780 -97q54 0 94 -38q38 -38 38 -92t-38 -92q-40 -38 -93 -38q-28 0 -52 10t-42 28t-28 42t-10 52q0 52 39 90q40 38 92 38zM780 1612l-183 -180l-153 77l267 292h139l267 -292l-153 -77zM777 1193q-212 0 -358 -164q-131 -146 -131 -355q0 -167 100 -300
q77 -104 195 -158q97 -44 197 -44q124 0 240 66q60 34 105.5 80t79.5 104q68 119 68 260q0 230 -168 385q-138 126 -328 126zM780 1393q190 0 350 -94q166 -97 263 -262q96 -165 96 -355t-97 -356q-94 -163 -261 -259q-166 -95 -348 -95q-270 0 -473 182q-238 211 -238 537
q0 185 96 346q101 168 263 262q163 94 349 94z" />
    <glyph glyph-name="uni1ED9" unicode="&#x1ed9;" horiz-adv-x="1070" 
d="M535 1203l-184 -180l-153 76l267 293h139l267 -293l-153 -76zM535 -97q54 0 94 -38q38 -38 38 -92t-38 -92q-40 -38 -95 -38q-54 0 -92 38q-38 40 -38 94q0 52 39 90q40 38 92 38zM530 751q-115 0 -195 -86q-72 -78 -72 -210q0 -149 92 -232q75 -66 179 -66q122 0 200 86
q72 79 72 214q0 146 -91 227q-74 67 -185 67zM542 936q207 0 347 -156q123 -137 123 -325q0 -222 -159 -364q-134 -119 -318 -119q-214 0 -354 155q-124 136 -124 327q0 185 114 317q144 165 371 165z" />
    <glyph glyph-name="uni1EDA" unicode="&#x1eda;" horiz-adv-x="1576" 
d="M1080 1728l-295 -297l-135 78l235 324zM777 1193q-211 0 -358 -164q-131 -146 -131 -355q0 -167 100 -300q77 -104 195 -158q99 -44 198 -44q123 0 239 66q118 67 185 184q68 119 68 259q0 233 -168 386q-138 126 -328 126zM1271 1192q91 43 91 119q0 45 -22 79
q-11 17 -33 38.5t-54 47.5l153 77q138 -99 138 -241q0 -156 -159 -262q104 -179 104 -367q0 -191 -97 -357q-94 -163 -261 -259q-166 -95 -351 -95t-351 95q-166 97 -260 259q-97 166 -97 356q0 188 96 355q95 165 263 262q163 94 350 94q219 0 401 -128q23 -16 45 -34.5z
" />
    <glyph glyph-name="uni1EDB" unicode="&#x1edb;" horiz-adv-x="1155" 
d="M805 1319l-295 -297l-135 77l236 324zM530 751q-115 0 -195 -86q-72 -78 -72 -210q0 -149 92 -232q75 -66 179 -66q122 0 200 86q72 79 72 214q0 146 -91 227q-74 67 -185 67zM990 603q22 -75 22 -150q0 -220 -159 -362q-134 -119 -319 -119q-213 0 -353 155
q-124 136 -124 327q0 219 157 361q133 121 321 121q180 0 310 -112q16 -14 31.5 -29.5t29.5 -33.5q47 36 47 94q0 44 -23 79q-21 33 -86 85l153 77q138 -99 138 -242q0 -149 -145 -251z" />
    <glyph glyph-name="uni1EDC" unicode="&#x1edc;" horiz-adv-x="1576" 
d="M480 1728l195 105l236 -324l-135 -78zM777 1193q-211 0 -358 -164q-131 -146 -131 -355q0 -167 100 -300q77 -104 195 -158q99 -44 198 -44q123 0 239 66q118 67 185 184q68 119 68 259q0 233 -168 386q-138 126 -328 126zM1271 1192q91 43 91 119q0 45 -22 79
q-11 17 -33 38.5t-54 47.5l153 77q138 -99 138 -241q0 -156 -159 -262q104 -179 104 -367q0 -191 -97 -357q-94 -163 -261 -259q-166 -95 -351 -95t-351 95q-166 97 -260 259q-97 166 -97 356q0 188 96 355q95 165 263 262q163 94 350 94q219 0 401 -128q23 -16 45 -34.5z
" />
    <glyph glyph-name="uni1EDD" unicode="&#x1edd;" horiz-adv-x="1155" 
d="M235 1319l195 104l235 -324l-135 -77zM530 751q-115 0 -195 -86q-72 -78 -72 -210q0 -149 92 -232q75 -66 179 -66q122 0 200 86q72 79 72 214q0 146 -91 227q-74 67 -185 67zM990 603q22 -75 22 -150q0 -220 -159 -362q-134 -119 -319 -119q-213 0 -353 155
q-124 136 -124 327q0 219 157 361q133 121 321 121q180 0 310 -112q16 -14 31.5 -29.5t29.5 -33.5q47 36 47 94q0 44 -23 79q-21 33 -86 85l153 77q138 -99 138 -242q0 -149 -145 -251z" />
    <glyph glyph-name="uni1EDE" unicode="&#x1ede;" horiz-adv-x="1576" 
d="M606 1799q102 38 177 38q105 0 161 -62q40 -43 40 -103q0 -58 -36 -113l-31 -49q-11 -17 -11 -42v-18h-184q1 47 8 72q6 24 25 51l20 27q22 31 22 43q0 26 -34 26t-97 -22zM777 1193q-211 0 -358 -164q-131 -146 -131 -355q0 -167 100 -300q77 -104 195 -158
q99 -44 198 -44q123 0 239 66q118 67 185 184q68 119 68 259q0 233 -168 386q-138 126 -328 126zM1271 1192q91 43 91 119q0 45 -22 79q-11 17 -33 38.5t-54 47.5l153 77q138 -99 138 -241q0 -156 -159 -262q104 -179 104 -367q0 -191 -97 -357q-94 -163 -261 -259
q-166 -95 -351 -95t-351 95q-166 97 -260 259q-97 166 -97 356q0 188 96 355q95 165 263 262q163 94 350 94q219 0 401 -128q23 -16 45 -34.5z" />
    <glyph glyph-name="uni1EDF" unicode="&#x1edf;" horiz-adv-x="1155" 
d="M357 1377q102 38 177 38q105 0 161 -62q40 -43 40 -103q0 -58 -36 -113l-31 -49q-11 -17 -11 -60h-184q1 47 8 72q6 24 25 51l20 27q22 31 22 43q0 26 -34 26t-97 -22zM530 751q-115 0 -195 -86q-72 -78 -72 -210q0 -149 92 -232q75 -66 179 -66q122 0 200 86
q72 79 72 214q0 146 -91 227q-74 67 -185 67zM990 603q22 -75 22 -150q0 -220 -159 -362q-134 -119 -319 -119q-213 0 -353 155q-124 136 -124 327q0 219 157 361q133 121 321 121q180 0 310 -112q16 -14 31.5 -29.5t29.5 -33.5q47 36 47 94q0 44 -23 79q-21 33 -86 85
l153 77q138 -99 138 -242q0 -149 -145 -251z" />
    <glyph glyph-name="uni1EE0" unicode="&#x1ee0;" horiz-adv-x="1576" 
d="M1087 1715q-17 -221 -188 -221q-76 0 -151 42q-50 27 -75 27q-6 0 -11 -3t-8.5 -11.5t-7.5 -24t-8 -39.5l-166 39q9 89 45 145q49 76 146 76q68 0 154 -46q44 -23 72 -23q20 0 28 78zM777 1193q-211 0 -358 -164q-131 -146 -131 -355q0 -167 100 -300q77 -104 195 -158
q99 -44 198 -44q123 0 239 66q118 67 185 184q68 119 68 259q0 233 -168 386q-138 126 -328 126zM1271 1192q91 43 91 119q0 45 -22 79q-11 17 -33 38.5t-54 47.5l153 77q138 -99 138 -241q0 -156 -159 -262q104 -179 104 -367q0 -191 -97 -357q-94 -163 -261 -259
q-166 -95 -351 -95t-351 95q-166 97 -260 259q-97 166 -97 356q0 188 96 355q95 165 263 262q163 94 350 94q219 0 401 -128q23 -16 45 -34.5z" />
    <glyph glyph-name="uni1EE1" unicode="&#x1ee1;" horiz-adv-x="1155" 
d="M842 1305q-17 -221 -188 -221q-76 0 -151 42q-47 25 -75 27h-1q-20 0 -34 -78l-166 39q9 89 45 145q49 76 146 76q68 0 154 -46q44 -23 72 -23q20 0 28 78zM530 751q-115 0 -195 -86q-72 -78 -72 -210q0 -149 92 -232q75 -66 179 -66q122 0 200 86q72 79 72 214
q0 146 -91 227q-74 67 -185 67zM990 603q22 -75 22 -150q0 -220 -159 -362q-134 -119 -319 -119q-213 0 -353 155q-124 136 -124 327q0 219 157 361q133 121 321 121q180 0 310 -112q16 -14 31.5 -29.5t29.5 -33.5q47 36 47 94q0 44 -23 79q-21 33 -86 85l153 77
q138 -99 138 -242q0 -149 -145 -251z" />
    <glyph glyph-name="uni1EE2" unicode="&#x1ee2;" horiz-adv-x="1576" 
d="M780 -97q54 0 94 -38q38 -38 38 -92t-38 -92q-40 -38 -93 -38q-28 0 -52 10t-42 28t-28 42t-10 52q0 52 39 90q40 38 92 38zM777 1193q-211 0 -358 -164q-131 -146 -131 -355q0 -167 100 -300q77 -104 195 -158q99 -44 198 -44q123 0 239 66q118 67 185 184
q68 119 68 259q0 233 -168 386q-138 126 -328 126zM1271 1192q91 43 91 119q0 45 -22 79q-11 17 -33 38.5t-54 47.5l153 77q138 -99 138 -241q0 -156 -159 -262q104 -179 104 -367q0 -191 -97 -357q-94 -163 -261 -259q-166 -95 -351 -95t-351 95q-166 97 -260 259
q-97 166 -97 356q0 188 96 355q95 165 263 262q163 94 350 94q219 0 401 -128q23 -16 45 -34.5z" />
    <glyph glyph-name="uni1EE3" unicode="&#x1ee3;" horiz-adv-x="1155" 
d="M534 -97q54 0 94 -38q38 -38 38 -92t-38 -92q-40 -38 -95 -38q-54 0 -92 38q-38 40 -38 94q0 52 39 90q40 38 92 38zM530 751q-115 0 -195 -86q-72 -78 -72 -210q0 -149 92 -232q75 -66 179 -66q122 0 200 86q72 79 72 214q0 146 -91 227q-74 67 -185 67zM990 603
q22 -75 22 -150q0 -220 -159 -362q-134 -119 -319 -119q-213 0 -353 155q-124 136 -124 327q0 219 157 361q133 121 321 121q180 0 310 -112q16 -14 31.5 -29.5t29.5 -33.5q47 36 47 94q0 44 -23 79q-21 33 -86 85l153 77q138 -99 138 -242q0 -149 -145 -251z" />
    <glyph glyph-name="uni1EE4" unicode="&#x1ee4;" horiz-adv-x="1307" 
d="M653 -97q54 0 94 -38q38 -38 38 -92t-38 -92q-40 -38 -95 -38q-54 0 -92 38q-38 40 -38 94q0 52 39 90q40 38 92 38zM150 1365h213v-842q0 -46 2 -80.5t6 -57.5q8 -49 28 -84q33 -56 104 -92q70 -37 150 -37q117 0 205 73q51 42 68 98q17 57 17 180v842h213v-881
q0 -171 -59 -272q-62 -105 -172 -167q-124 -73 -272 -73q-204 0 -351 129q-82 70 -117 160t-35 223v881z" />
    <glyph glyph-name="uni1EE5" unicode="&#x1ee5;" horiz-adv-x="1043" 
d="M513 -97q54 0 94 -38q38 -38 38 -92t-38 -92q-40 -38 -95 -38q-54 0 -92 38q-38 40 -38 94q0 52 39 90q40 38 92 38zM927 0h-204v66q-97 -94 -231 -94q-148 0 -254 94q-33 29 -56.5 63.5t-38 77t-21.5 95t-7 117.5v489h204v-473q0 -135 33 -195q44 -80 160 -80
q28 0 55.5 6.5t50.5 18t41.5 28t29.5 36.5q34 61 34 205v454h204v-908z" />
    <glyph glyph-name="uni1EE6" unicode="&#x1ee6;" horiz-adv-x="1307" 
d="M460 1799q102 38 177 38q105 0 161 -62q40 -43 40 -103q0 -58 -36 -113l-31 -49q-11 -17 -11 -42v-18h-184q1 47 8 72q6 21 26 51l19 27q22 31 22 43q0 26 -34 26t-97 -22zM150 1365h213v-842q0 -46 2 -80.5t6 -57.5q8 -49 28 -84q33 -56 104 -92q70 -37 150 -37
q117 0 205 73q51 42 68 98q17 57 17 180v842h213v-881q0 -171 -59 -272q-62 -105 -172 -167q-124 -73 -272 -73q-204 0 -351 129q-82 70 -117 160t-35 223v881z" />
    <glyph glyph-name="uni1EE7" unicode="&#x1ee7;" horiz-adv-x="1043" 
d="M328 1377q102 38 177 38q105 0 161 -62q40 -43 40 -103q0 -58 -36 -113l-31 -49q-11 -17 -11 -42v-18h-184q1 47 8 72q6 21 26 51l19 27q22 31 22 43q0 26 -34 26t-97 -22zM927 0h-204v66q-97 -94 -231 -94q-148 0 -254 94q-33 29 -56.5 63.5t-38 77t-21.5 95t-7 117.5
v489h204v-473q0 -135 33 -195q44 -80 160 -80q28 0 55.5 6.5t50.5 18t41.5 28t29.5 36.5q34 61 34 205v454h204v-908z" />
    <glyph glyph-name="uni1EE8" unicode="&#x1ee8;" horiz-adv-x="1400" 
d="M953 1728l-296 -297l-135 78l236 324zM1156 1204q67 42 67 108q0 45 -22 79q-21 33 -86 85l153 77q138 -98 138 -243q0 -204 -250 -304v-522q0 -171 -59 -272q-62 -105 -172 -167q-124 -73 -272 -73q-204 0 -351 129q-82 70 -117 160t-35 223v881h213v-842q0 -46 2 -80.5
t6 -57.5q8 -49 28 -84q33 -56 104 -92q70 -37 150 -37q117 0 205 73q51 42 68 98q17 57 17 180v842h213v-161z" />
    <glyph glyph-name="uni1EE9" unicode="&#x1ee9;" horiz-adv-x="1201" 
d="M811 1319l-295 -297l-135 77l235 324zM927 745q70 42 70 110q0 45 -22 79q-21 33 -86 85l153 77q138 -98 138 -244q0 -96 -62 -174t-171 -123l-10 -4l-10 -4v-547h-204v66q-97 -94 -231 -94q-148 0 -254 94q-33 29 -56.5 63.5t-38 77t-21.5 95t-7 117.5v489h204v-473
q0 -135 33 -195q44 -80 160 -80q28 0 55.5 6.5t50.5 18t41.5 28t29.5 36.5q34 61 34 205v454h204v-163z" />
    <glyph glyph-name="uni1EEA" unicode="&#x1eea;" horiz-adv-x="1400" 
d="M353 1728l195 105l236 -324l-135 -78zM1156 1204q67 42 67 108q0 45 -22 79q-21 33 -86 85l153 77q138 -98 138 -243q0 -204 -250 -304v-522q0 -171 -59 -272q-62 -105 -172 -167q-124 -73 -272 -73q-204 0 -351 129q-82 70 -117 160t-35 223v881h213v-842q0 -46 2 -80.5
t6 -57.5q8 -49 28 -84q33 -56 104 -92q70 -37 150 -37q117 0 205 73q51 42 68 98q17 57 17 180v842h213v-161z" />
    <glyph glyph-name="uni1EEB" unicode="&#x1eeb;" horiz-adv-x="1201" 
d="M211 1319l195 104l236 -324l-135 -77zM927 745q70 42 70 110q0 45 -22 79q-21 33 -86 85l153 77q138 -98 138 -244q0 -96 -62 -174t-171 -123l-10 -4l-10 -4v-547h-204v66q-97 -94 -231 -94q-148 0 -254 94q-33 29 -56.5 63.5t-38 77t-21.5 95t-7 117.5v489h204v-473
q0 -135 33 -195q44 -80 160 -80q28 0 55.5 6.5t50.5 18t41.5 28t29.5 36.5q34 61 34 205v454h204v-163z" />
    <glyph glyph-name="uni1EEC" unicode="&#x1eec;" horiz-adv-x="1400" 
d="M475 1799q102 38 178 38q105 0 161 -62q40 -43 40 -103q0 -57 -37 -113l-31 -49q-11 -17 -11 -43v-17h-184q1 50 8 73q6 21 26 50l19 27q23 34 23 43q0 26 -34 26q-35 0 -98 -22zM1156 1204q67 42 67 108q0 45 -22 79q-21 33 -86 85l153 77q138 -98 138 -243
q0 -204 -250 -304v-522q0 -171 -59 -272q-62 -105 -172 -167q-124 -73 -272 -73q-204 0 -351 129q-82 70 -117 160t-35 223v881h213v-842q0 -46 2 -80.5t6 -57.5q8 -49 28 -84q33 -56 104 -92q70 -37 150 -37q117 0 205 73q51 42 68 98q17 57 17 180v842h213v-161z" />
    <glyph glyph-name="uni1EED" unicode="&#x1eed;" horiz-adv-x="1201" 
d="M333 1377q102 38 178 38q105 0 161 -62q40 -43 40 -103q0 -57 -37 -113l-31 -49q-11 -17 -11 -42v-18h-183q2 52 7 72q6 21 26 51l19 27q23 34 23 43q0 26 -34 26q-33 0 -98 -22zM927 745q70 42 70 110q0 45 -22 79q-21 33 -86 85l153 77q138 -98 138 -244
q0 -96 -62 -174t-171 -123l-10 -4l-10 -4v-547h-204v66q-97 -94 -231 -94q-148 0 -254 94q-33 29 -56.5 63.5t-38 77t-21.5 95t-7 117.5v489h204v-473q0 -135 33 -195q44 -80 160 -80q28 0 55.5 6.5t50.5 18t41.5 28t29.5 36.5q34 61 34 205v454h204v-163z" />
    <glyph glyph-name="uni1EEE" unicode="&#x1eee;" horiz-adv-x="1400" 
d="M962 1715q-17 -221 -188 -221q-76 0 -151 42q-47 25 -75 27h-1q-20 0 -34 -78l-166 39q23 221 192 221q68 0 153 -46q44 -23 72 -23q21 0 29 78zM1156 1204q67 42 67 108q0 45 -22 79q-21 33 -86 85l153 77q138 -98 138 -243q0 -204 -250 -304v-522q0 -171 -59 -272
q-62 -105 -172 -167q-124 -73 -272 -73q-204 0 -351 129q-82 70 -117 160t-35 223v881h213v-842q0 -46 2 -80.5t6 -57.5q8 -49 28 -84q33 -56 104 -92q70 -37 150 -37q117 0 205 73q51 42 68 98q17 57 17 180v842h213v-161z" />
    <glyph glyph-name="uni1EEF" unicode="&#x1eef;" horiz-adv-x="1201" 
d="M829 1305q-17 -221 -188 -221q-75 0 -151 42q-50 27 -74 27q-7 0 -12 -3t-8.5 -11.5t-7 -24t-7.5 -39.5l-166 39q9 89 45 145q49 76 146 76q68 0 153 -46q44 -23 72 -23q21 0 29 78zM927 745q70 42 70 110q0 45 -22 79q-21 33 -86 85l153 77q138 -98 138 -244
q0 -96 -62 -174t-171 -123l-10 -4l-10 -4v-547h-204v66q-97 -94 -231 -94q-148 0 -254 94q-33 29 -56.5 63.5t-38 77t-21.5 95t-7 117.5v489h204v-473q0 -135 33 -195q44 -80 160 -80q28 0 55.5 6.5t50.5 18t41.5 28t29.5 36.5q34 61 34 205v454h204v-163z" />
    <glyph glyph-name="uni1EF0" unicode="&#x1ef0;" horiz-adv-x="1400" 
d="M653 -97q54 0 94 -38q38 -38 38 -92t-38 -92q-40 -38 -93 -38q-28 0 -52 10t-42 28t-28 42t-10 52q0 52 39 90q40 38 92 38zM1156 1204q67 42 67 108q0 45 -22 79q-21 33 -86 85l153 77q138 -98 138 -243q0 -204 -250 -304v-522q0 -171 -59 -272q-62 -105 -172 -167
q-124 -73 -272 -73q-204 0 -351 129q-82 70 -117 160t-35 223v881h213v-842q0 -46 2 -80.5t6 -57.5q8 -49 28 -84q33 -56 104 -92q70 -37 150 -37q117 0 205 73q51 42 68 98q17 57 17 180v842h213v-161z" />
    <glyph glyph-name="uni1EF1" unicode="&#x1ef1;" horiz-adv-x="1201" 
d="M521 -97q54 0 94 -38q38 -38 38 -92t-38 -92q-40 -38 -93 -38q-28 0 -52 10t-42 28t-28 42t-10 52q0 52 39 90q40 38 92 38zM927 745q70 42 70 110q0 45 -22 79q-21 33 -86 85l153 77q138 -98 138 -244q0 -96 -62 -174t-171 -123l-10 -4l-10 -4v-547h-204v66
q-97 -94 -231 -94q-148 0 -254 94q-33 29 -56.5 63.5t-38 77t-21.5 95t-7 117.5v489h204v-473q0 -135 33 -195q44 -80 160 -80q28 0 55.5 6.5t50.5 18t41.5 28t29.5 36.5q34 61 34 205v454h204v-163z" />
    <glyph glyph-name="Ygrave" unicode="&#x1ef2;" horiz-adv-x="1083" 
d="M255 1728l195 105l235 -324l-135 -78zM1097 1365l-449 -798v-567h-213v567l-449 798h236l320 -586l320 586h235z" />
    <glyph glyph-name="ygrave" unicode="&#x1ef3;" horiz-adv-x="948" 
d="M188 1319l195 104l236 -324l-136 -77zM132 -478l228 521l-372 865h221l261 -617l270 617h220l-614 -1386h-214z" />
    <glyph glyph-name="uni1EF4" unicode="&#x1ef4;" horiz-adv-x="1083" 
d="M541 -97q54 0 94 -38q38 -38 38 -92t-38 -92q-40 -38 -93 -38q-28 0 -52 10t-42 28t-28 42t-10 52q0 52 39 90q38 38 92 38zM1097 1365l-449 -798v-567h-213v567l-449 798h236l320 -586l320 586h235z" />
    <glyph glyph-name="uni1EF5" unicode="&#x1ef5;" horiz-adv-x="948" 
d="M701 -97q54 0 94 -38q38 -38 38 -92t-38 -92q-40 -38 -93 -38q-28 0 -52 10t-42 28t-28 42t-10 52q0 52 39 90q40 38 92 38zM132 -478l228 521l-372 865h221l261 -617l270 617h220l-614 -1386h-214z" />
    <glyph glyph-name="uni1EF6" unicode="&#x1ef6;" horiz-adv-x="1083" 
d="M352 1799q102 38 177 38q105 0 161 -62q40 -43 40 -103q0 -58 -36 -113l-31 -49q-11 -17 -11 -42v-18h-184q1 47 8 72q6 24 25 51l20 27q22 31 22 43q0 26 -34 26t-97 -22zM1097 1365l-449 -798v-567h-213v567l-449 798h236l320 -586l320 586h235z" />
    <glyph glyph-name="uni1EF7" unicode="&#x1ef7;" horiz-adv-x="948" 
d="M285 1377q102 38 177 38q105 0 161 -62q40 -43 40 -103q0 -58 -36 -113l-31 -49q-11 -17 -11 -60h-184q1 47 8 72q6 24 25 51l20 27q22 31 22 43q0 26 -34 26t-97 -22zM132 -478l228 521l-372 865h221l261 -617l270 617h220l-614 -1386h-214z" />
    <glyph glyph-name="uni1EF8" unicode="&#x1ef8;" horiz-adv-x="1083" 
d="M848 1715q-17 -221 -188 -221q-75 0 -150 42q-50 27 -75 27q-7 0 -12 -3t-8.5 -11.5t-7 -24t-7.5 -39.5l-166 39q9 89 45 145q49 76 146 76q68 0 153 -46q44 -23 72 -23q21 0 29 78zM1097 1365l-449 -798v-567h-213v567l-449 798h236l320 -586l320 586h235z" />
    <glyph glyph-name="uni1EF9" unicode="&#x1ef9;" horiz-adv-x="948" 
d="M781 1305q-17 -221 -187 -221q-76 0 -151 42q-47 25 -75 27h-1q-22 0 -34 -78l-166 39q9 89 45 145q49 76 146 76q68 0 153 -46q44 -23 72 -23q21 0 29 78zM132 -478l228 521l-372 865h221l261 -617l270 617h220l-614 -1386h-214z" />
    <glyph glyph-name="uni2002" unicode="&#x2002;" horiz-adv-x="1024" 
 />
    <glyph glyph-name="uni2003" unicode="&#x2003;" horiz-adv-x="2048" 
 />
    <glyph glyph-name="uni2004" unicode="&#x2004;" horiz-adv-x="683" 
 />
    <glyph glyph-name="uni2005" unicode="&#x2005;" horiz-adv-x="512" 
 />
    <glyph glyph-name="uni2006" unicode="&#x2006;" horiz-adv-x="137" 
 />
    <glyph glyph-name="uni2007" unicode="&#x2007;" horiz-adv-x="1139" 
 />
    <glyph glyph-name="uni2009" unicode="&#x2009;" horiz-adv-x="256" 
 />
    <glyph glyph-name="uni200A" unicode="&#x200a;" horiz-adv-x="68" 
 />
    <glyph glyph-name="uni2011" unicode="&#x2011;" horiz-adv-x="550" 
d="M61 565h427v-186h-427v186z" />
    <glyph glyph-name="figuredash" unicode="&#x2012;" horiz-adv-x="1186" 
d="M225 565h736v-186h-736v186z" />
    <glyph glyph-name="endash" unicode="&#x2013;" horiz-adv-x="1186" 
d="M225 565h736v-186h-736v186z" />
    <glyph glyph-name="emdash" unicode="&#x2014;" horiz-adv-x="1292" 
d="M61 565h1169v-186h-1169v186z" />
    <glyph glyph-name="afii00208" unicode="&#x2015;" horiz-adv-x="1292" 
d="M61 565h1169v-186h-1169v186z" />
    <glyph glyph-name="underscoredbl" unicode="&#x2017;" horiz-adv-x="1051" 
d="M-14 -375h1079v-160h-1079v160zM-14 -118h1079v-160h-1079v160z" />
    <glyph glyph-name="quoteleft" unicode="&#x2018;" horiz-adv-x="580" 
d="M289 888l-187 69l228 512l147 -58z" />
    <glyph glyph-name="quoteright" unicode="&#x2019;" horiz-adv-x="511" 
d="M243 1469l187 -68l-228 -513l-147 59z" />
    <glyph glyph-name="quotesinglbase" unicode="&#x201a;" horiz-adv-x="511" 
d="M243 235l187 -68l-228 -513l-147 59z" />
    <glyph glyph-name="quotereversed" unicode="&#x201b;" horiz-adv-x="512" 
d="M268 1469l188 -522l-147 -59l-228 513z" />
    <glyph glyph-name="quotedblleft" unicode="&#x201c;" horiz-adv-x="880" 
d="M289 888l-187 69l228 512l147 -58zM589 888l-187 69l228 512l147 -58z" />
    <glyph glyph-name="quotedblright" unicode="&#x201d;" horiz-adv-x="880" 
d="M590 1469l187 -68l-228 -513l-147 59zM290 1469l187 -68l-228 -513l-147 59z" />
    <glyph glyph-name="quotedblbase" unicode="&#x201e;" horiz-adv-x="880" 
d="M590 235l187 -68l-228 -513l-147 59zM290 235l187 -68l-228 -513l-147 59z" />
    <glyph glyph-name="dagger" unicode="&#x2020;" horiz-adv-x="1131" 
d="M167 908h296v453h205v-453h296v-193h-296v-1092h-205v1092h-296v193z" />
    <glyph glyph-name="daggerdbl" unicode="&#x2021;" horiz-adv-x="1131" 
d="M964 77h-296v-454h-205v454h-296v193h296v445h-296v193h296v453h205v-453h296v-193h-296v-445h296v-193z" />
    <glyph glyph-name="bullet" unicode="&#x2022;" horiz-adv-x="1010" 
d="M510 996q133 0 228 -104q81 -89 81 -210q0 -140 -104 -233q-89 -81 -210 -81q-140 0 -233 104q-81 88 -81 212q0 136 104 231q88 81 215 81z" />
    <glyph glyph-name="ellipsis" unicode="&#x2026;" horiz-adv-x="1560" 
d="M780 234q55 0 93 -38t38 -91q0 -54 -38 -92t-93 -38t-93 38t-38 94q0 52 39 90q37 37 92 37zM1290 234q53 0 93 -38q38 -38 38 -91q0 -54 -38 -92t-93 -38t-93 38t-38 94q0 52 39 90q37 37 92 37zM271 234q55 0 93 -38t38 -91q0 -54 -38 -92t-93 -38t-93 38t-38 94
q0 52 39 90q37 37 92 37z" />
    <glyph glyph-name="perthousand" unicode="&#x2030;" horiz-adv-x="2592" 
d="M2178 688q-171 0 -171 -276q0 -291 170 -291q172 0 172 283q0 284 -171 284zM2174 826q329 0 329 -422q0 -421 -327 -421q-323 0 -323 427q0 176 61 279q80 137 260 137zM414 1244q-171 0 -171 -276q0 -290 170 -290q172 0 172 283t-171 283zM410 1382q329 0 329 -421
t-327 -421q-323 0 -323 426q0 176 61 279q80 137 260 137zM1254 1393l116 -67l-784 -1355l-116 67zM1425 688q-171 0 -171 -276q0 -291 170 -291q172 0 172 283q0 284 -171 284zM1421 826q329 0 329 -422q0 -421 -327 -421q-323 0 -323 427q0 176 61 279q80 137 260 137z
" />
    <glyph glyph-name="minute" unicode="&#x2032;" horiz-adv-x="393" 
d="M105 1468l186 -68l-228 -510l-145 57z" />
    <glyph glyph-name="second" unicode="&#x2033;" horiz-adv-x="693" 
d="M405 1468l185 -68l-227 -510l-145 57zM105 1468l185 -68l-227 -510l-145 57z" />
    <glyph glyph-name="guilsinglleft" unicode="&#x2039;" horiz-adv-x="625" 
d="M535 150l-138 -110l-336 414l336 423l137 -109l-246 -313z" />
    <glyph glyph-name="guilsinglright" unicode="&#x203a;" horiz-adv-x="625" 
d="M90 150l247 305l-247 313l138 109l336 -423l-336 -414z" />
    <glyph glyph-name="uni203E" unicode="&#x203e;" horiz-adv-x="1051" 
d="M-14 1728h1079v-186h-1079v186z" />
    <glyph glyph-name="slash.aalt" unicode="&#x2044;" horiz-adv-x="368" 
d="M518 1393l116 -67l-784 -1355l-116 67z" />
    <glyph glyph-name="zerosuperior" unicode="&#x2070;" 
d="M396 1519q-171 0 -171 -276q0 -290 170 -290q73 0 113 46q26 29 42 97q17 70 17 141q0 282 -171 282zM392 1657q329 0 329 -421t-324 -421q-326 0 -326 426q0 176 61 279q80 137 260 137z" />
    <glyph glyph-name="foursuperior" unicode="&#x2074;" 
d="M90 1122l356 543l125 -74l-300 -457h170v187h151v-187h97v-136h-97v-167h-151v167h-351v124z" />
    <glyph glyph-name="fivesuperior" unicode="&#x2075;" 
d="M355 1503l-27 -123q16 2 29.5 3.5t24.5 1.5q134 0 222 -97q71 -77 71 -184q0 -127 -96 -212q-86 -77 -211 -77q-134 0 -227 100q-26 28 -56 73l123 81q56 -116 160 -116q67 0 111 42t44 105q0 64 -43 107q-44 42 -109 42q-39 0 -58 -9q-22 -9 -56 -42l-117 24l89 418h407
v-137h-281z" />
    <glyph glyph-name="sixsuperior" unicode="&#x2076;" 
d="M394 1237q-65 0 -106 -40q-43 -40 -43 -100q0 -63 43 -103q43 -41 106 -41t106 43q42 42 42 104q0 59 -42 98q-44 39 -106 39zM441 1665l119 -84l-156 -210q5 1 9 1h6q64 0 141 -41q61 -34 97 -95.5t36 -133.5q0 -125 -95 -211q-85 -76 -203 -76q-138 0 -228 98
q-73 79 -73 189q0 99 67 187z" />
    <glyph glyph-name="sevensuperior" unicode="&#x2077;" 
d="M517 1503h-382v137h565v-106l-406 -728l-133 66z" />
    <glyph glyph-name="eightsuperior" unicode="&#x2078;" 
d="M396 1525q-51 0 -84 -29.5t-33 -75.5q0 -45 33.5 -73t84.5 -28t84 28.5t33 73.5q0 46 -33 75t-85 29zM396 1190q-60 0 -97.5 -33t-37.5 -87q0 -27 10 -49t28 -37.5t42.5 -24.5t53.5 -9q61 0 99 33.5t38 87.5t-37.5 86.5t-98.5 32.5zM210 1263q-74 71 -74 160q0 98 77 169
q71 65 183 65q128 0 202 -83q59 -68 59 -151q0 -90 -75 -160q101 -80 101 -192t-82 -184q-83 -72 -204 -72q-142 0 -224 91q-63 69 -63 165q0 113 100 192z" />
    <glyph glyph-name="ninesuperior" unicode="&#x2079;" 
d="M398 1519q-63 0 -105 -42q-43 -43 -43 -106q0 -58 43 -97q42 -39 105 -39q64 0 107 40q42 40 42 100q0 61 -42 103q-44 41 -107 41zM351 806l-119 84l157 211q-5 -1 -8.5 -1h-5.5q-66 0 -143 41q-61 34 -97 95t-36 133q0 126 95 212q85 76 204 76q137 0 227 -98
q73 -79 73 -189q0 -100 -67 -188z" />
    <glyph glyph-name="zeroinferior" unicode="&#x2080;" 
d="M396 422q-171 0 -171 -276q0 -290 170 -290q73 0 113 46q25 28 42 96q17 71 17 142q0 282 -171 282zM392 560q329 0 329 -421t-324 -421q-326 0 -326 426q0 177 61 280q79 136 260 136z" />
    <glyph glyph-name="oneinferior" unicode="&#x2081;" 
d="M505 -265h-152v631l-104 -57l-73 120l208 114h121v-808z" />
    <glyph glyph-name="twoinferior" unicode="&#x2082;" 
d="M127 -265v117l298 318q82 88 82 158q0 45 -30 69.5t-84 24.5q-58 0 -84 -25q-28 -25 -51 -103l-140 37q54 230 277 230q133 0 205 -79q57 -65 57 -156q0 -117 -89 -212l-226 -241h333v-138h-548z" />
    <glyph glyph-name="threeinferior" unicode="&#x2083;" 
d="M314 89v136h66q121 0 121 98q0 45 -30 72t-81 27q-21 0 -38 -4t-32.5 -14.5t-30.5 -27.5t-33 -44l-128 67q52 85 113.5 123t147.5 38q131 0 204 -82q58 -64 58 -152q0 -96 -71 -161q89 -74 89 -188q0 -115 -82 -187q-83 -72 -204 -72q-221 0 -278 227l-2 10l147 37
q19 -77 49 -106q29 -29 86 -29q60 0 96 33t36 87q0 112 -137 112h-66z" />
    <glyph glyph-name="fourinferior" unicode="&#x2084;" 
d="M90 26l356 543l125 -74l-300 -457h170v187h151v-187h97v-136h-97v-167h-151v167h-351v124z" />
    <glyph glyph-name="fiveinferior" unicode="&#x2085;" 
d="M355 407l-27 -123q16 2 29.5 3.5t24.5 1.5q134 0 222 -97q71 -77 71 -184q0 -128 -96 -213q-86 -77 -211 -77q-134 0 -227 100q-26 28 -56 73l123 82q55 -117 160 -117q67 0 111 42t44 106q0 66 -48 110q-44 39 -104 39q-39 0 -58 -9q-22 -9 -56 -42l-117 23l89 419h407
v-137h-281z" />
    <glyph glyph-name="sixinferior" unicode="&#x2086;" 
d="M394 141q-65 0 -106 -40q-43 -40 -43 -101q0 -63 43 -103q43 -41 106 -41q62 0 106 42q42 43 42 106q0 60 -44 99q-43 38 -104 38zM441 569l119 -84l-156 -210q6 1 9.5 1h5.5q64 0 141 -41q61 -34 97 -95.5t36 -133.5q0 -126 -95 -212q-85 -76 -203 -76q-138 0 -228 98
q-73 79 -73 189q0 99 67 188z" />
    <glyph glyph-name="seveninferior" unicode="&#x2087;" 
d="M517 406h-382v137h565v-106l-406 -728l-133 66z" />
    <glyph glyph-name="eightinferior" unicode="&#x2088;" 
d="M396 428q-51 0 -84 -29.5t-33 -75.5q0 -45 33.5 -73t84.5 -28t84 28.5t33 73.5q0 46 -33 75t-85 29zM396 93q-60 0 -97.5 -33t-37.5 -87q0 -27 10 -49t28 -37.5t42.5 -24.5t53.5 -9q61 0 99 33.5t38 87.5t-37.5 86.5t-98.5 32.5zM210 166q-74 71 -74 159q0 99 77 170
q71 65 183 65q128 0 202 -83q59 -68 59 -152q0 -89 -75 -159q101 -80 101 -192t-82 -184q-83 -72 -204 -72q-142 0 -224 91q-63 69 -63 165q0 113 100 192z" />
    <glyph glyph-name="nineinferior" unicode="&#x2089;" 
d="M398 422q-63 0 -105 -42q-43 -43 -43 -105q0 -58 43 -97q42 -39 105 -39q64 0 107 40q42 40 42 99q0 62 -42 103q-44 41 -107 41zM351 -291l-119 84l157 211h-14q-67 0 -143 41q-63 35 -98 95.5t-35 132.5q0 125 95 211q85 76 204 76q137 0 227 -98q73 -79 73 -189
q0 -100 -67 -188z" />
    <glyph glyph-name="franc" unicode="&#x20a3;" horiz-adv-x="1489" 
d="M878 791h204v-73q79 78 196 78q17 0 35.5 -1.5t38.5 -3.5v-183q-48 3 -71 3q-123 0 -165 -82q-34 -64 -34 -209v-320h-204v791zM928 1169h-483v-378h364v-198h-364v-593h-213v1365h696v-196z" />
    <glyph glyph-name="lira" unicode="&#x20a4;" horiz-adv-x="1153" 
d="M472 727l10 -48t10 -43h382v-175h-354q1 -3 1 -7q1 -18 1.5 -28.5t0.5 -13.5q0 -31 -13 -82q-13 -50 -29 -79l-35 -55h619v-196h-925v184q99 77 134 126q35 50 35 111q0 5 -0.5 15.5t-1.5 24.5h-167v175h136l-14 67l-5 23l-117 1v175h91q-1 10 -1.5 20t-0.5 20
q0 232 132 345q124 106 294 106q245 0 382 -248l-170 -107q-25 43 -49.5 73t-51 48.5t-56 27t-63.5 8.5q-99 0 -153 -64.5t-54 -179.5q0 -8 0.5 -20t1.5 -29h432v-175h-402z" />
    <glyph glyph-name="peseta" unicode="&#x20a7;" horiz-adv-x="1236" 
d="M481 1032h353q-24 73 -82 106t-164 33h-107v-139zM481 861v-140h107q106 0 164 32.5t81 107.5h-352zM1049 861q-75 -333 -460 -333h-18h-90v-528h-213v861h-111v171h111v333h303q127 0 210 -24q81 -24 143 -80q98 -88 125 -229h119v-171h-119z" />
    <glyph glyph-name="uni20AB" unicode="&#x20ab;" horiz-adv-x="1141" 
d="M68 -108h1041v-186h-1041v186zM529 751q-115 0 -193 -85q-73 -79 -73 -211q0 -151 92 -232q76 -66 178 -66q117 0 192 83q73 79 73 217q0 149 -91 230q-71 64 -178 64zM797 1224v141h204v-141h119v-184h-119v-1040h-204v79q-139 -107 -280 -107q-113 0 -219 61
q-113 65 -176 176q-65 113 -65 246q0 218 159 361q135 120 301 120q140 0 280 -107v211h-239v184h239z" />
    <glyph glyph-name="Euro" unicode="&#x20ac;" horiz-adv-x="1646" 
d="M123 460l75 177h107v17t-1 20v33q0 15 1 19h-182l75 177h141q55 156 157 266q99 106 233 165q138 59 288 59q73 0 138.5 -13t126 -40t118.5 -69.5t116 -100.5l-80 -190q-81 84 -153 130q-131 83 -278 83q-203 0 -344 -158q-68 -75 -93 -132h837l-74 -177h-810
q-1 -15 -1.5 -26t-0.5 -19q0 -7 0.5 -18t1.5 -26h773l-75 -177h-650q19 -37 46 -73t62 -73q136 -142 335 -142q124 0 225 54q101 53 220 181v-276q-195 -159 -437 -159q-237 0 -413 127q-179 128 -267 361h-217z" />
    <glyph glyph-name="uni20B4" unicode="&#x20b4;" horiz-adv-x="1265" 
d="M299 636q22 23 55 46t79 45h-276v171h632q51 46 51 106q0 81 -62 140q-56 51 -145 51q-74 0 -123 -34q-52 -35 -111 -125l-172 109q57 93 114 144q116 104 286 104q128 0 235 -61q91 -51 140 -138q49 -83 49 -185q0 -56 -18 -111h69v-171h-197q-32 -22 -63.5 -39
t-63.5 -29l-43 -17l-15 -6h382v-171h-667q-14 -36 -14 -70q0 -97 76 -164q64 -60 159 -60q146 0 210 133q14 28 36 115l206 -54q-35 -150 -101 -234q-60 -75 -149 -116q-90 -43 -198 -43q-212 0 -345 147q-109 119 -109 276q0 29 6 70h-55v171h142z" />
    <glyph glyph-name="uni2101" unicode="&#x2101;" horiz-adv-x="1922" 
d="M1383 1393l116 -67l-784 -1355l-116 67zM422 896h226l-113 295zM369 758l-79 -202h-160l319 809h173l254 -644l-96 -165l-79 202h-332zM1771 667l-125 -75q-18 27 -33.5 45.5t-31.5 30t-33.5 16t-38.5 4.5q-48 0 -80 -28t-32 -70q0 -54 96 -90l79 -29q207 -77 207 -229
q0 -112 -86 -189q-83 -72 -200 -72q-110 0 -188 66q-39 33 -58 70q-20 35 -39 113l148 37q11 -41 23.5 -69t29 -45t37.5 -24.5t49 -7.5q27 0 51 9t41.5 25.5t27.5 38t10 47.5t-14 45q-23 28 -105 60l-75 27q-186 69 -186 219q0 101 76 168t191 67q155 0 240 -130z" />
    <glyph glyph-name="afii61248" unicode="&#x2105;" horiz-adv-x="2151" 
d="M1403 1393l116 -67l-784 -1355l-116 67zM1581 686q-125 0 -210 -94q-72 -80 -72 -193q0 -119 92 -202q82 -75 192 -75q126 0 213 95q71 79 71 186q0 124 -93 210q-79 73 -193 73zM1582 827q197 0 331 -146q109 -118 109 -277q0 -184 -142 -310q-128 -113 -296 -113
t-295 111q-145 126 -145 317q0 177 142 304q124 114 296 114zM799 1131q-62 63 -112 89q-50 24 -114 24q-134 0 -216 -93q-72 -81 -72 -190q0 -126 91 -208q82 -75 197 -75q68 0 111 22q45 23 119 93l108 -101q-89 -84 -164 -118q-77 -36 -173 -36q-205 0 -335 144
q-109 121 -109 279q0 184 141 310q127 113 302 113q48 0 90.5 -8.5t82.5 -27t79.5 -47.5t81.5 -70z" />
    <glyph glyph-name="afii61352" unicode="&#x2116;" horiz-adv-x="2171" 
d="M1761 1258q-32 0 -59 -11.5t-46.5 -32t-30.5 -49t-11 -61.5q0 -35 11 -63.5t30.5 -48.5t46.5 -31.5t60 -11.5t60 11.5t46.5 32t30.5 49t11 63.5q0 33 -11 61.5t-30.5 48.5t-47 31.5t-60.5 11.5zM1767 1393q128 0 217 -96q74 -82 74 -193q0 -129 -95 -215
q-84 -75 -201 -75q-135 0 -222 96q-74 83 -74 196q0 126 95 212q82 75 206 75zM150 0v1365h187l751 -1004v1004h212v-1365h-187l-750 1004v-1004h-213zM1501 561v146h523v-146h-523z" />
    <glyph glyph-name="uni2117" unicode="&#x2117;" horiz-adv-x="1727" 
d="M854 1313q-162 0 -305 -85q-147 -86 -230 -230q-85 -145 -85 -315t85 -315q84 -146 230 -230q145 -85 315 -85q169 0 315 85q147 84 231 230q84 147 84 320q0 272 -209 463q-179 162 -431 162zM876 1458q199 0 375 -104q180 -105 284 -284t104 -387q0 -207 -104 -388
q-103 -179 -284 -283q-179 -104 -387 -104q-206 0 -387 104q-91 52 -161.5 122.5t-122.5 160.5q-104 182 -104 394q0 335 257 569q220 200 530 200zM796 725h79q90 0 121 37q31 35 31 93q0 66 -37 97.5t-115 31.5h-79v-259zM796 567v-345h-171v921h238q126 0 196 -40
q64 -36 100.5 -102.5t36.5 -145.5q0 -115 -72 -197q-43 -49 -104 -70t-157 -21h-67z" />
    <glyph glyph-name="trademark" unicode="&#x2122;" horiz-adv-x="1382" 
d="M549 1283h-161v-544h-104v544h-161v95h426v-95zM620 739v639h101l219 -385l218 385h101v-639h-104v443l-174 -307h-82l-175 307v-443h-104z" />
    <glyph glyph-name="Omega" unicode="&#x2126;" horiz-adv-x="1630" 
d="M1487 0h-560v292q142 40 230 119q148 132 148 325q0 199 -153 333q-143 125 -337 125q-138 0 -257 -68q-114 -65 -175 -171q-58 -101 -58 -220q0 -111 53 -206.5t150 -161.5q66 -44 175 -75v-292h-561v198h274v2q-307 213 -307 536q0 165 85 310q88 153 252 248
q171 99 369 99t369 -99q163 -95 252 -248q84 -146 84 -310q0 -323 -307 -536v-2h274v-198z" />
    <glyph glyph-name="estimated" unicode="&#x212e;" horiz-adv-x="1517" 
d="M1137 784v200q-36 89 -102 146q-106 91 -263 91q-141 0 -220 -51q-78 -50 -152 -188v-198h737zM400 631v-233q45 -121 100 -170q91 -84 266 -84q151 0 251 66.5t162 207.5h180q-53 -173 -141 -270q-70 -77 -169 -120q-133 -56 -280 -56q-348 0 -519 250
q-120 175 -120 451q0 305 144 490q179 230 496 230q214 0 375 -113q187 -134 225 -390q8 -51 12 -115t5 -144h-987z" />
    <glyph glyph-name="onethird" unicode="&#x2153;" horiz-adv-x="1707" 
d="M437 557h-152v631l-104 -57l-73 120l208 114h121v-808zM1202 354v137h66q121 0 121 98q0 45 -30 72t-81 27q-21 0 -38 -4.5t-32.5 -15t-30.5 -27.5t-33 -43l-128 67q52 85 113.5 123t147.5 38q131 0 204 -82q58 -64 58 -153q0 -95 -71 -160q89 -74 89 -189t-82 -187
q-83 -72 -203 -72q-220 0 -279 227l-2 10l148 37q19 -77 48 -106t86 -29q60 0 96 33.5t36 87.5q0 111 -137 111h-66zM1103 1393l116 -67l-784 -1355l-116 67z" />
    <glyph glyph-name="twothirds" unicode="&#x2154;" horiz-adv-x="1707" 
d="M1200 354v137h66q121 0 121 98q0 45 -30.5 72t-81.5 27q-21 0 -38 -4.5t-32 -15t-30.5 -27.5t-33.5 -43l-127 67q35 58 70 90q77 71 191 71q130 0 203 -82q59 -65 59 -153q0 -95 -71 -160q89 -74 89 -188q0 -116 -83 -188t-203 -72q-222 0 -278 227l-3 10l148 37
q10 -39 21.5 -64.5t27 -41.5t36 -22.5t49.5 -6.5q60 0 96.5 33.5t36.5 87.5q0 111 -137 111h-66zM104 556v117l298 318q82 88 82 158q0 43 -30 68t-84 25q-58 0 -84 -25q-27 -26 -51 -102l-140 37q55 229 278 229q132 0 204 -79q57 -65 57 -156q0 -116 -89 -211l-226 -241
h333v-138h-548zM1196 1393l116 -67l-784 -1355l-116 67z" />
    <glyph glyph-name="onefifth" unicode="&#x2155;" horiz-adv-x="1707" 
d="M437 557h-152v631l-104 -57l-73 120l208 114h121v-808zM1216 672l-26 -123q16 2 29.5 3.5t24.5 1.5q134 0 222 -97q71 -77 71 -184q0 -128 -96 -213q-86 -77 -212 -77q-134 0 -227 101q-13 14 -27 32t-29 40l123 82q55 -117 161 -117q67 0 111 42t44 106q0 66 -48 110
q-44 39 -104 39q-62 0 -114 -51l-117 23l89 419h406v-137h-281zM1103 1393l116 -67l-784 -1355l-116 67z" />
    <glyph glyph-name="twofifth" unicode="&#x2156;" horiz-adv-x="1707" 
d="M1215 672l-27 -123q16 2 29.5 3.5t24.5 1.5q133 0 223 -97q71 -77 71 -184q0 -128 -96 -213q-88 -77 -212 -77q-134 0 -227 100q-26 28 -56 73l123 82q60 -117 160 -117q67 0 112 42q44 42 44 106q0 62 -44 106q-43 43 -108 43q-61 0 -115 -51l-117 23l89 419h407v-137
h-281zM105 556v117l298 318q82 88 82 158q0 43 -30 68t-84 25q-58 0 -84 -25q-27 -26 -51 -102l-140 37q55 229 278 229q132 0 204 -79q57 -65 57 -156q0 -116 -89 -211l-226 -241h333v-138h-548zM1205 1393l116 -67l-784 -1355l-116 67z" />
    <glyph glyph-name="threefifth" unicode="&#x2157;" horiz-adv-x="1707" 
d="M303 911v136h66q121 0 121 98q0 45 -30 72t-81 27q-21 0 -38 -4t-32.5 -14.5t-30.5 -27.5t-33 -44l-128 67q27 43 55 73.5t59.5 50t67.5 28.5t80 9q130 0 203 -82q58 -64 58 -152q0 -96 -71 -161q89 -74 89 -188q0 -115 -82 -187q-83 -72 -203 -72q-223 0 -279 227l-2 9
l147 38q10 -39 21.5 -64.5t27 -41.5t36 -22.5t49.5 -6.5q60 0 96.5 33t36.5 87q0 112 -137 112h-66zM1215 672l-26 -123q16 2 29.5 3.5t24.5 1.5q134 0 222 -97q71 -77 71 -184q0 -128 -96 -213q-88 -77 -211 -77q-135 0 -228 100q-26 28 -56 73l123 82q60 -117 161 -117
q67 0 111 42t44 106q0 63 -43 106t-109 43q-62 0 -114 -51l-117 23l89 419h406v-137h-281zM1164 1393l116 -67l-784 -1355l-116 67z" />
    <glyph glyph-name="fourfifth" unicode="&#x2158;" horiz-adv-x="1707" 
d="M1212 672l-26 -123q16 2 29.5 3.5t24.5 1.5q133 0 221 -97q71 -77 71 -184q0 -128 -96 -213q-86 -77 -211 -77q-134 0 -227 100q-26 28 -56 73l123 82q55 -117 160 -117q67 0 111 42t44 106q0 63 -43 106t-109 43q-60 0 -114 -51l-116 23l89 419h406v-137h-281zM104 847
l356 543l125 -74l-300 -457h170v187h151v-187h97v-136h-97v-167h-151v167h-351v124zM1191 1393l116 -67l-784 -1355l-116 67z" />
    <glyph glyph-name="onesixth" unicode="&#x2159;" horiz-adv-x="1707" 
d="M438 557h-152v631l-104 -57l-73 120l208 114h121v-808zM1237 406q-65 0 -106 -40q-43 -40 -43 -101q0 -63 43 -103q43 -41 106 -41t106 43q42 42 42 105q0 59 -42 98q-44 39 -106 39zM1284 835l119 -85l-156 -210q5 1 9 1h6q64 0 141 -41q61 -34 97 -95.5t36 -133.5
q0 -126 -95 -212q-85 -76 -203 -76q-138 0 -228 98q-73 80 -73 189q0 100 67 188zM1131 1393l116 -67l-784 -1355l-116 67z" />
    <glyph glyph-name="fivesixth" unicode="&#x215a;" horiz-adv-x="1707" 
d="M1236 406q-65 0 -106 -40q-43 -40 -43 -101q0 -63 43 -103q43 -41 106 -41t106 43q42 42 42 105q0 57 -42 98q-44 39 -106 39zM1283 835l119 -85l-156 -210q5 1 9 1h6q64 0 140 -41q63 -35 98.5 -96.5t35.5 -133.5q0 -126 -96 -211q-83 -76 -203 -76q-137 0 -227 98
q-73 79 -73 189q0 99 66 188zM364 1228l-27 -123q16 2 29.5 3.5t24.5 1.5q134 0 222 -97q71 -77 71 -184q0 -128 -96 -213q-88 -77 -211 -77q-134 0 -227 101q-29 30 -56 72l123 82q55 -117 160 -117q67 0 111 42t44 106q0 63 -43 106t-109 43q-39 0 -58 -9q-22 -11 -56 -42
l-117 23l89 419h407v-137h-281zM1211 1393l116 -67l-784 -1355l-116 67z" />
    <glyph glyph-name="oneeighth" unicode="&#x215b;" horiz-adv-x="1707" 
d="M1269 694q-51 0 -83.5 -29.5t-32.5 -75.5q0 -45 33 -73.5t84 -28.5q52 0 85 29t33 74t-33.5 74.5t-85.5 29.5zM1270 358q-60 0 -97.5 -33t-37.5 -87q0 -27 10 -49t28 -37.5t42.5 -24.5t53.5 -9q61 0 99 33.5t38 87.5t-37.5 86.5t-98.5 32.5zM1084 431q-74 72 -74 160
q0 99 77 170q73 65 184 65q127 0 201 -83q59 -68 59 -152q0 -88 -75 -160q101 -80 101 -192t-82 -184q-83 -72 -204 -72q-142 0 -224 91q-63 69 -63 165q0 113 100 192zM437 556h-152v632l-104 -57l-73 120l208 114h121v-809zM1103 1393l116 -67l-784 -1355l-116 67z" />
    <glyph glyph-name="threeeighths" unicode="&#x215c;" horiz-adv-x="1707" 
d="M1155 1393l116 -67l-784 -1355l-116 67zM303 911v136h66q121 0 121 98q0 45 -30 72t-81 27q-21 0 -38 -4t-32.5 -14.5t-30.5 -27.5t-33 -44l-128 67q27 43 55 73.5t59.5 50t67.5 28.5t80 9q130 0 203 -82q58 -64 58 -152q0 -96 -71 -161q89 -74 89 -188q0 -115 -82 -187
q-83 -72 -203 -72q-223 0 -279 227l-2 9l147 38q10 -39 21.5 -64.5t27 -41.5t36 -22.5t49.5 -6.5q60 0 96.5 33t36.5 87q0 112 -137 112h-66zM1249 694q-51 0 -83.5 -29t-32.5 -77q0 -45 33 -73t84 -28q52 0 85 29t33 74t-33.5 74.5t-85.5 29.5zM1248 358q-60 0 -96.5 -33
t-36.5 -87q0 -27 10 -49t28 -37.5t43 -24.5t55 -9q60 0 97.5 33.5t37.5 87.5t-37.5 86.5t-100.5 32.5zM1064 431q-74 72 -74 160q0 99 77 170q73 65 183 65q128 0 202 -83q59 -68 59 -152q0 -88 -75 -160q101 -80 101 -192t-82 -184q-83 -72 -204 -72q-140 0 -224 91
q-63 69 -63 165q0 113 100 192z" />
    <glyph glyph-name="fiveeighths" unicode="&#x215d;" horiz-adv-x="1707" 
d="M1160 1393l115 -67l-784 -1355l-116 67zM1246 358q-58 0 -95 -33t-37 -87t37.5 -87t97.5 -33t97.5 33.5t37.5 87.5t-37.5 86.5t-100.5 32.5zM1247 694q-51 0 -83.5 -29t-32.5 -77q0 -45 33.5 -73t84.5 -28t84.5 29t33.5 74t-33 74.5t-87 29.5zM1063 431q-75 70 -75 160
q0 99 77 170q73 65 184 65q127 0 201 -83q60 -68 60 -152q0 -88 -75 -160q100 -79 100 -192q0 -111 -82 -184q-83 -72 -204 -72q-141 0 -223 91q-63 69 -63 165q0 113 100 192zM362 1228l-27 -123q16 2 29.5 3.5t24.5 1.5q134 0 222 -97q71 -77 71 -184q0 -128 -96 -213
q-88 -77 -211 -77q-134 0 -227 101q-29 30 -56 72l123 82q55 -117 160 -117q67 0 111 42t44 106q0 63 -43 106t-109 43q-39 0 -58 -9q-22 -11 -56 -42l-117 23l89 419h407v-137h-281z" />
    <glyph glyph-name="seveneighths" unicode="&#x215e;" horiz-adv-x="1707" 
d="M1246 358q-60 0 -97.5 -33t-37.5 -87q0 -27 10 -49t28 -37.5t43 -24.5t55 -9q60 0 97.5 33.5t37.5 87.5t-37.5 86.5t-98.5 32.5zM1246 694q-52 0 -84.5 -29.5t-32.5 -75.5q0 -45 33 -73.5t84 -28.5q52 0 85 29t33 74t-33.5 74.5t-84.5 29.5zM1061 431q-75 72 -75 160
q0 99 77 170q73 65 183 65q128 0 202 -83q59 -68 59 -152q0 -88 -74 -160q100 -79 100 -192q0 -112 -82 -184q-83 -72 -204 -72q-140 0 -224 91q-63 69 -63 165q0 112 101 192zM528 1228h-382v137h565v-106l-406 -728l-133 66zM1085 1393l116 -67l-785 -1355l-115 67z" />
    <glyph glyph-name="partialdiff" unicode="&#x2202;" horiz-adv-x="1204" 
d="M598 751q-74 0 -139 -38q-130 -79 -130 -258q0 -149 92 -232q75 -66 179 -66q122 0 200 86q72 79 72 213q0 149 -91 228q-76 67 -183 67zM739 917q-179 229 -498 266l27 182q261 -33 422 -127q161 -95 261 -247q130 -199 130 -473q0 -192 -72 -316q-60 -105 -167 -167
q-110 -63 -242 -63q-213 0 -353 155q-124 136 -124 327q0 219 159 362q133 120 301 120q88 0 172 -36z" />
    <glyph glyph-name="emptyset" unicode="&#x2205;" horiz-adv-x="1292" 
d="M728 1027q-44 10 -84 10q-156 0 -263 -119q-91 -101 -91 -238q0 -75 29 -136q29 -60 97 -130zM564 338q50 -10 86 -10q155 0 261 118q91 98 91 236q0 164 -126 271zM377 -30l-147 76l108 213q-215 171 -215 421q0 237 173 392q151 134 347 134q76 0 163 -25l107 210
l147 -76l-108 -212q96 -84 139 -150q78 -117 78 -264q0 -144 -71 -268q-69 -119 -185 -188q-128 -74 -286 -74q-98 0 -141 25z" />
    <glyph glyph-name="Delta" unicode="&#x2206;" horiz-adv-x="1387" 
d="M346 198h693l-348 904zM1339 0h-1291l531 1365h229z" />
    <glyph glyph-name="product" unicode="&#x220f;" horiz-adv-x="1358" 
d="M432 1168v-1168h-213v1168h-164v197h1248v-197h-164v-1168h-213v1168h-494z" />
    <glyph glyph-name="summation" unicode="&#x2211;" horiz-adv-x="1368" 
d="M249 1194v171h895v-196l-638 1l325 -462l-354 -510h707v-198h-974v171l377 537z" />
    <glyph glyph-name="minus" unicode="&#x2212;" horiz-adv-x="1139" 
d="M1006 730v-183h-874v183h874z" />
    <glyph glyph-name="fraction" unicode="&#x2215;" horiz-adv-x="368" 
d="M518 1393l116 -67l-784 -1355l-116 67z" />
    <glyph glyph-name="uni2218" unicode="&#x2218;" horiz-adv-x="1010" 
d="M502 872q-81 0 -138 -62q-48 -54 -48 -127q0 -84 62 -141q54 -48 127 -48q85 0 141 62q48 54 48 128q0 83 -63 140q-53 48 -129 48zM510 997q133 0 228 -104q81 -89 81 -210q0 -140 -104 -233q-89 -81 -210 -81q-140 0 -233 104q-81 88 -81 212q0 136 104 231
q88 81 215 81z" />
    <glyph glyph-name="radical" unicode="&#x221a;" horiz-adv-x="1287" 
d="M55 844h319l14 -43l166 -494l468 1389h52h568v-198h-464l-511 -1498h-227l-223 655h-162v189z" />
    <glyph glyph-name="infinity" unicode="&#x221e;" horiz-adv-x="1454" 
d="M618 691q-21 32 -40.5 56.5t-38.5 41.5q-62 59 -134 59q-67 0 -112 -45t-45 -113q0 -70 50 -114q48 -42 111 -42q106 0 209 157zM837 692q43 -64 79 -99q61 -58 134 -58q67 0 112 45t45 112q0 71 -50 115q-49 41 -110 41q-107 0 -210 -156zM730 542q-63 -77 -117 -117
q-100 -76 -221 -76q-156 0 -252 106q-85 94 -85 239q0 159 107 254q100 86 231 86q47 0 89 -10.5t82 -34t79.5 -60t81.5 -87.5q40 51 79.5 87.5t80.5 59.5t85 34t94 11q155 0 251 -106q85 -92 85 -238q0 -161 -108 -257q-95 -84 -227 -84q-185 0 -335 193z" />
    <glyph glyph-name="integral" unicode="&#x222b;" horiz-adv-x="626" 
d="M572 1308q-51 15 -81 15q-76 0 -76 -116v-1283q0 -174 -82 -246q-64 -56 -159 -56q-56 0 -119 16v184q54 -14 80 -14q76 0 76 116v1283q0 174 81 246q65 56 161 56q56 0 119 -16v-185z" />
    <glyph glyph-name="similar" unicode="&#x223c;" horiz-adv-x="1182" 
d="M63 548q62 136 128 202q73 73 187 73q92 0 241 -73q130 -62 188 -62q51 0 86 30q34 29 87 119l138 -81q-31 -63 -62 -109.5t-62 -77.5q-37 -37 -92 -59q-57 -24 -106 -24q-56 0 -107 17q-53 17 -200 84q-75 34 -126 34q-22 0 -41.5 -8.5t-39 -27t-40 -49t-44.5 -75.5z
" />
    <glyph glyph-name="uni2243" unicode="&#x2243;" horiz-adv-x="1182" 
d="M1110 552v-181h-1040v181h1040zM63 706q63 136 129 202q73 73 186 73q94 0 241 -73q129 -62 187 -62q52 0 87 30q34 28 87 119l139 -81q-62 -126 -125 -188q-39 -36 -93 -58q-56 -24 -105 -24q-55 0 -108 17q-49 16 -199 84q-74 34 -126 34q-22 0 -41.5 -8.5t-39 -27
t-40 -49.5t-44.5 -76z" />
    <glyph glyph-name="approxequal" unicode="&#x2248;" horiz-adv-x="1182" 
d="M63 373q61 135 128 202q73 73 187 73q93 0 242 -73q129 -62 186 -62q52 0 87 30q34 28 87 119l139 -82q-61 -123 -124 -186q-38 -37 -93 -59q-57 -24 -106 -24q-54 0 -107 17q-26 8 -75.5 29l-124.5 55t-126 34q-21 0 -40.5 -8.5t-39 -27t-40.5 -49.5t-45 -76zM63 740
q63 136 129 202q73 73 186 73q94 0 241 -73q129 -62 187 -62q52 0 87 30q34 28 87 119l139 -81q-62 -126 -125 -188q-39 -36 -93 -58q-56 -24 -105 -24q-56 0 -107 17t-200 84q-75 34 -126 34q-22 0 -41.5 -8.5t-39 -27t-40 -49.5t-44.5 -76z" />
    <glyph glyph-name="notequal" unicode="&#x2260;" horiz-adv-x="1166" 
d="M799 885h304v-183h-395l-62 -124h457v-183h-548l-131 -263l-156 64l99 199h-304v183h395l62 124h-457v183h548l131 263l156 -64z" />
    <glyph glyph-name="lessequal" unicode="&#x2264;" horiz-adv-x="1166" 
d="M1054 0h-942v182h942v-182zM1054 255l-942 423v169l942 428v-207l-683 -303l683 -303v-207z" />
    <glyph glyph-name="greaterequal" unicode="&#x2265;" horiz-adv-x="1166" 
d="M112 0v182h942v-182h-942zM112 255v207l683 303l-683 303v207l942 -428v-169z" />
    <glyph glyph-name="dotmath" unicode="&#x22c5;" horiz-adv-x="497" 
d="M248 813q55 0 93 -37q38 -38 38 -92t-38 -92q-40 -38 -94 -38q-55 0 -92 39q-38 38 -38 93q0 52 39 90q37 37 92 37z" />
    <glyph glyph-name="lozenge" unicode="&#x25ca;" horiz-adv-x="1350" 
d="M978 683l-304 427l-303 -427l303 -428zM674 -81l-549 764l549 764l550 -764z" />
    <glyph glyph-name="openbullet" unicode="&#x25e6;" horiz-adv-x="1010" 
d="M502 872q-81 0 -138 -62q-48 -54 -48 -127q0 -84 62 -141q54 -48 127 -48q85 0 141 62q48 54 48 128q0 83 -63 140q-53 48 -129 48zM510 997q133 0 228 -104q81 -89 81 -210q0 -140 -104 -233q-89 -81 -210 -81q-140 0 -233 104q-81 88 -81 212q0 136 104 231
q88 81 215 81z" />
    <glyph glyph-name="ff" unicode="&#xfb00;" horiz-adv-x="1040" 
d="M1015 724h-159v-724h-204v724h-88v184h88v171q0 174 81 246q65 56 160 56q56 0 119 -16v-184q-54 14 -80 14q-76 0 -76 -116v-171h159v-184zM503 724h-160v-724h-204v724h-88v184h88v151q0 173 82 245q64 56 159 56q54 0 120 -15v-185q-53 14 -81 14q-76 0 -76 -115v-151
h160v-184z" />
    <glyph glyph-name="fi" unicode="&#xfb01;" horiz-adv-x="949" 
d="M731 1344q54 0 94 -38q38 -38 38 -92q0 -55 -38 -93q-40 -38 -94 -38q-56 0 -93 39q-39 37 -39 93q0 53 39 91q40 38 93 38zM833 908v-908h-204v908h204zM503 724h-160v-724h-204v724h-88v184h88v171q0 174 82 246q64 56 159 56q56 0 120 -16v-184q-54 14 -81 14
q-76 0 -76 -116v-171h160v-184z" />
    <glyph glyph-name="fl" unicode="&#xfb02;" horiz-adv-x="952" 
d="M835 0h-204v1365h204v-1365zM503 724h-160v-724h-204v724h-88v184h88v171q0 174 82 246q64 56 159 56q56 0 120 -16v-184q-54 14 -81 14q-76 0 -76 -116v-171h160v-184z" />
    <glyph glyph-name="ffi" unicode="&#xfb03;" horiz-adv-x="1459" 
d="M1241 1344q54 0 94 -38q38 -38 38 -92q0 -55 -38 -93q-40 -38 -94 -38q-56 0 -93 39q-39 37 -39 93q0 53 39 91q40 38 93 38zM1343 908v-908h-204v908h204zM1015 724h-159v-724h-204v724h-88v184h88v171q0 174 81 246q65 56 160 56q56 0 119 -16v-184q-54 14 -80 14
q-76 0 -76 -116v-171h159v-184zM503 724h-160v-724h-204v724h-88v184h88v151q0 173 82 245q64 56 159 56q54 0 120 -15v-185q-53 14 -81 14q-76 0 -76 -115v-151h160v-184z" />
    <glyph glyph-name="ffl" unicode="&#xfb04;" horiz-adv-x="1462" 
d="M1345 0h-204v1365h204v-1365zM1015 724h-159v-724h-204v724h-88v184h88v171q0 174 81 246q65 56 160 56q56 0 119 -16v-184q-54 14 -80 14q-76 0 -76 -116v-171h159v-184zM503 724h-160v-724h-204v724h-88v184h88v151q0 173 82 245q64 56 159 56q54 0 120 -15v-185
q-53 14 -81 14q-76 0 -76 -115v-151h160v-184z" />
    <glyph glyph-name="glyph155" horiz-adv-x="485" 
 />
    <glyph glyph-name="glyph172" horiz-adv-x="1180" 
 />
    <glyph glyph-name="glyph210" horiz-adv-x="485" 
 />
    <glyph glyph-name="seven.denominator" 
d="M517 672h-382v137h565v-106l-406 -729l-133 67z" />
    <glyph glyph-name="eight.denominator" 
d="M396 694q-51 0 -84 -29.5t-33 -75.5q0 -22 9 -41t24.5 -32.5t37 -21t47.5 -7.5q51 0 84 29t33 74t-33 74.5t-85 29.5zM396 358q-60 0 -97.5 -33t-37.5 -87q0 -27 10 -49t28 -37.5t42.5 -24.5t53.5 -9q61 0 99 33.5t38 87.5t-37.5 86.5t-98.5 32.5zM210 431
q-74 71 -74 160q0 99 77 170q71 65 183 65q128 0 202 -83q59 -68 59 -152q0 -90 -75 -160q101 -80 101 -192t-82 -184q-83 -72 -204 -72q-142 0 -224 91q-63 69 -63 165q0 113 100 192z" />
    <glyph glyph-name="nine.denominator" 
d="M398 688q-63 0 -105 -42q-43 -43 -43 -106q0 -58 43 -97q42 -39 105 -39q64 0 107 40q42 40 42 100q0 61 -42 103q-44 41 -107 41zM351 -26l-119 85l157 211q-5 -1 -8.5 -1h-5.5q-66 0 -143 41q-63 34 -98 95.5t-35 133.5q0 125 95 211q85 76 204 76q137 0 227 -98
q73 -79 73 -189q0 -100 -67 -188z" />
    <glyph glyph-name="four.fitted" horiz-adv-x="1139" 
d="M835 1293l-508 -809h341v325h211v-325h162v-194h-162v-290h-211v290h-585v189l579 921z" />
    <glyph glyph-name="three.fitted" horiz-adv-x="1139" 
d="M101 347l207 54q29 -112 69 -161q57 -68 169 -68q117 0 185 75q57 63 57 155q0 101 -65 161q-57 54 -184 54h-90v194h90q124 0 176 61q46 55 46 131q0 88 -60 142q-57 51 -150 51q-73 0 -122 -32q-48 -32 -104 -118l-177 97q57 97 115 148q117 102 287 102q127 0 231 -58
q87 -48 138 -137q50 -86 50 -191q0 -168 -129 -279q160 -129 160 -326t-136 -315q-130 -115 -320 -115q-205 0 -331 137q-44 48 -65 94q-22 47 -45 134z" />
    <glyph glyph-name="zero.denominator" 
d="M396 688q-171 0 -171 -276q0 -290 170 -290q172 0 172 284q0 282 -171 282zM392 826q329 0 329 -422q0 -421 -324 -421q-326 0 -326 427q0 176 61 279q80 137 260 137z" />
    <glyph glyph-name="two.fitted" horiz-adv-x="1139" 
d="M156 0v174l492 547q143 160 143 289q0 83 -57 136q-53 48 -152 48q-118 0 -172 -66q-39 -46 -69 -152l-195 54q31 136 100 218q123 145 341 145q205 0 319 -127q94 -103 94 -261q0 -195 -142 -352l-410 -456h582v-197h-874z" />
    <glyph glyph-name="one.fitted" horiz-adv-x="1139" 
d="M260 194h254v920l-187 -106l-100 172l324 185h175v-1171h229v-194h-695v194z" />
    <glyph glyph-name="Dieresis" horiz-adv-x="975" 
d="M299 1749q54 0 94 -38q38 -38 38 -92t-38 -92q-40 -38 -94 -38q-56 0 -93 39q-38 38 -38 93q0 53 39 91q38 37 92 37zM676 1749q53 0 93 -38q38 -38 38 -92t-38 -92q-40 -38 -93 -38q-28 0 -52 10t-42 28t-28 42t-10 52q0 52 39 90q40 38 93 38z" />
    <glyph glyph-name="Dotaccent" horiz-adv-x="975" 
d="M487 1749q54 0 94 -38q38 -38 38 -92t-38 -92q-40 -38 -94 -38q-56 0 -93 39q-38 38 -38 93q0 53 39 91q38 37 92 37z" />
    <glyph glyph-name="Ring" horiz-adv-x="975" 
d="M486 1725q-21 0 -40.5 -8.5t-33.5 -22.5t-22.5 -34t-8.5 -42q0 -41 32 -73q31 -31 74 -31q45 0 75.5 30.5t30.5 75.5q0 22 -8.5 41t-22.5 33.5t-34 22.5t-42 8zM486 1825q95 0 158 -69q53 -59 53 -136q0 -90 -68 -152q-60 -54 -142 -54q-87 0 -148 60q-62 62 -62 149
q0 84 69 149q59 53 140 53z" />
    <glyph glyph-name="Acute" horiz-adv-x="975" 
d="M788 1728l-295 -297l-135 78l236 324z" />
    <glyph glyph-name="Grave" horiz-adv-x="975" 
d="M187 1728l195 105l235 -324l-135 -78z" />
    <glyph glyph-name="five.fitted" horiz-adv-x="1139" 
d="M947 1170h-464l-54 -264q31 16 105 16q220 0 361 -156q118 -130 118 -312q0 -215 -158 -358q-136 -124 -334 -124q-144 0 -246 65q-106 65 -197 208l169 117q24 -42 43.5 -69.5t33.5 -42.5q77 -80 200 -80q127 0 208 90q69 78 69 188q0 128 -90 211q-77 69 -184 69
q-116 0 -197 -88l-164 35l141 690h640v-195z" />
    <glyph glyph-name="Caron" horiz-adv-x="975" 
d="M488 1639l183 180l153 -77l-267 -292h-139l-267 292l153 77z" />
    <glyph glyph-name="Breve" horiz-adv-x="975" 
d="M367 1773q3 -74 13 -94q31 -67 104 -67t106 71q10 18 19 89l177 -14q-12 -104 -38 -154q-84 -166 -263 -166q-133 0 -218 93q-45 49 -59 94q-17 45 -18 133z" />
    <glyph glyph-name="Tilde" horiz-adv-x="975" 
d="M795 1715q-17 -221 -188 -221q-76 0 -151 42q-50 27 -75 27q-7 0 -11.5 -3t-8.5 -11.5t-7.5 -24t-7.5 -39.5l-166 39q9 89 45 145q49 76 146 76q68 0 154 -46q44 -23 72 -23q20 0 28 78z" />
    <glyph glyph-name="Hungarumlaut" horiz-adv-x="975" 
d="M926 1728l-295 -297l-119 74l238 328zM632 1732l-299 -301l-116 78l235 324z" />
    <glyph glyph-name="Cedilla" horiz-adv-x="975" 
d="M507 -62l187 -81l-241 -306l-146 73z" />
    <glyph glyph-name="Ogonek" horiz-adv-x="975" 
d="M897 0q-74 -94 -74 -134q0 -29 37 -29q36 0 95 22l60 -152q-102 -39 -172 -39q-99 0 -160 67q-46 50 -46 120q0 65 56 145h204z" />
    <glyph glyph-name="Macron" horiz-adv-x="975" 
d="M181 1711h613v-183h-613v183z" />
    <glyph glyph-name="Commaaccent" horiz-adv-x="975" 
d="M300 -436l110 374l196 -60l-156 -361z" />
    <glyph glyph-name="Comma.high" horiz-adv-x="975" 
d="M547 1459l110 373l196 -59l-156 -362z" />
    <glyph glyph-name="Dieresis.alt" horiz-adv-x="975" 
d="M332 1749q54 0 94 -38q38 -38 38 -92t-38 -92q-40 -38 -94 -38q-56 0 -93 39q-38 38 -38 93q0 53 39 91q38 37 92 37zM630 1749q53 0 93 -38q38 -38 38 -92t-38 -92q-40 -38 -94 -38q-56 0 -93 39q-38 38 -38 93q0 52 39 90q40 38 93 38z" />
    <glyph glyph-name="commaaccent" horiz-adv-x="975" 
d="M300 -436l110 374l196 -60l-156 -361z" />
    <glyph glyph-name="comma.high" horiz-adv-x="975" 
d="M547 1049l110 373l196 -59l-156 -361z" />
    <glyph glyph-name="dieresis.alt" horiz-adv-x="975" 
d="M332 1344q54 0 94 -38q38 -38 38 -92t-38 -92q-40 -38 -93 -38q-28 0 -52 10t-42 28t-28 42t-10 52q0 52 39 90q40 38 92 38zM630 1344q53 0 93 -38q38 -38 38 -92t-38 -92q-40 -38 -94 -38q-56 0 -93 39q-38 38 -38 93q0 52 39 90q40 38 93 38z" />
    <glyph glyph-name="commareversed" horiz-adv-x="975" 
d="M853 1374l-111 -373l-195 59l156 362z" />
    <glyph glyph-name="G.salt" horiz-adv-x="1493" 
d="M806 735h557v-468l-10 -13l-37 -44.5t-32 -34.5q-79 -79 -188 -131q-152 -72 -315 -72q-190 0 -353 94q-166 95 -260 261q-96 165 -96 355q0 188 95 355q97 168 261 262q163 94 358 94q244 0 428 -151q14 -11 38 -33.5l59 -55.5l-149 -144q-74 75 -128 112
q-107 72 -247 72q-225 0 -369 -162q-130 -146 -130 -349q0 -233 167 -383q140 -127 328 -127q216 0 368 168v12v185h-345v198z" />
    <glyph glyph-name="M.salt" horiz-adv-x="1711" 
d="M123 0l138 1365h198l397 -821l397 821h198l138 -1365h-215l-97 983l-335 -690h-172l-335 688l-97 -981h-215z" />
    <glyph glyph-name="y.salt" horiz-adv-x="948" 
d="M470 289l270 619h220l-533 -1209q-91 -205 -233 -205q-49 0 -121 23l31 192q4 -2 7 -3t5 -2q36 -17 55 -17q36 0 77 92l113 261l-373 868h221z" />
    <glyph glyph-name="parenleft.salt" horiz-adv-x="637" 
d="M521 1551q-157 -399 -157 -869q0 -471 157 -867l-183 -86q-17 36 -28.5 63l-18.5 44q-22 56 -41 126t-36 157q-57 292 -57 571q0 267 48 515q23 125 56.5 231.5t76.5 199.5z" />
    <glyph glyph-name="parenright.salt" horiz-adv-x="637" 
d="M116 -186q157 402 157 868t-157 868l182 86q58 -122 92 -249q90 -330 90 -698q0 -358 -82 -686q-32 -127 -100 -274z" />
    <glyph glyph-name="bracketleft.salt" horiz-adv-x="617" 
d="M357 1423v-1480h184v-192h-391v1864h391v-192h-184z" />
    <glyph glyph-name="bracketright.salt" horiz-adv-x="617" 
d="M259 -57v1480h-184v192h391v-1864h-391v192h184z" />
    <glyph glyph-name="afii61248.salt" horiz-adv-x="1542" 
d="M1094 1393l116 -67l-784 -1355l-116 67zM572 1114q-48 48 -73 62q-30 14 -70 14q-34 0 -62 -11.5t-47.5 -32t-30.5 -50t-11 -65.5q0 -78 48 -120q43 -37 104 -37q21 0 38.5 4t34.5 13t34 24.5t38 39.5l100 -94q-30 -32 -59 -54.5t-58 -36.5t-60 -20.5t-67 -6.5
q-139 0 -227 97q-74 82 -74 192q0 128 95 214q84 75 206 75q34 0 64.5 -6t59 -19.5t57 -35.5t60.5 -53zM1111 419q-33 0 -60 -11.5t-46.5 -32.5t-30.5 -50t-11 -63q0 -79 49 -122q41 -37 101 -37q34 0 62 11.5t47.5 33t30.5 51t11 65.5q0 34 -11 63t-31.5 49t-48.5 31.5
t-62 11.5zM1119 550q130 0 219 -96q74 -82 74 -193q0 -128 -95 -214q-86 -75 -204 -75q-136 0 -224 96q-74 83 -74 196q0 125 95 211q84 75 209 75z" />
    <glyph glyph-name="braceleft.salt" horiz-adv-x="618" 
d="M568 1428l-41 1q-76 0 -96 -20q-20 -22 -20 -99v-401q0 -42 -5 -75.5t-16 -61t-29 -49.5t-43 -42q38 -30 57 -59q36 -60 36 -173v-394q0 -79 20 -101q20 -20 99 -20l38 1v-184q-31 -1 -52 -1.5t-32 -0.5q-74 0 -127 18t-87 56t-50 97t-16 142v385q0 80 -21 110
q-23 30 -92 48v164q68 19 91 48q22 28 22 100v391q0 126 39 194q63 112 242 112q12 0 33 -0.5t50 -1.5v-184z" />
    </font>
</defs>
</svg>
