<?xml version="1.0" standalone="no"?>
<!DOCTYPE svg PUBLIC "-//W3C//DTD SVG 1.1//EN" "http://www.w3.org/Graphics/SVG/1.1/DTD/svg11.dtd" >
<svg>
<metadata>
Created by FontForge 20090622 at Wed Sep 21 06:08:47 2016
 By deploy user
Copyright (c) 2015 by . All rights reserved.
</metadata>
<defs>
<font id="Baomoi-SemiBoldItalic" horiz-adv-x="792" >
  <font-face 
    font-family="Baomoi"
    font-weight="600"
    font-style="italic"
    font-stretch="normal"
    units-per-em="2048"
    panose-1="0 0 0 0 0 0 0 0 0 0"
    ascent="1638"
    descent="-410"
    x-height="908"
    cap-height="1365"
    bbox="-260 -535 2578 2205"
    underline-thickness="186"
    underline-position="-108"
    unicode-range="U+0020-U+FB04"
  />
<missing-glyph horiz-adv-x="485" 
d="M387 49v1267h-289v-1267h289zM49 0v1365h387v-1365h-387z" />
    <glyph glyph-name=".notdef" horiz-adv-x="485" 
d="M387 49v1267h-289v-1267h289zM49 0v1365h387v-1365h-387z" />
    <glyph glyph-name="glyph1" horiz-adv-x="0" 
 />
    <glyph glyph-name="glyph2" horiz-adv-x="485" 
 />
    <glyph glyph-name="space" unicode=" " horiz-adv-x="485" 
 />
    <glyph glyph-name="exclam" unicode="!" horiz-adv-x="603" 
d="M258 335l144 1030h231l-183 -1030h-192zM340 234q24 0 44.5 -8t35 -22.5t23 -34.5t8.5 -44q0 -60 -46 -105q-47 -45 -109 -45q-48 0 -79 31t-31 79q0 60 47 105q47 44 107 44z" />
    <glyph glyph-name="quotedbl" unicode="&#x22;" horiz-adv-x="662" 
d="M689 812h-159l66 581h211zM389 812h-159l66 581h211z" />
    <glyph glyph-name="numbersign" unicode="#" horiz-adv-x="1205" 
d="M789 545l98 271h-255l-98 -271h255zM299 384h-149l58 161h149l98 271h-149l58 161h150l150 415l162 -40l-136 -375h256l150 415l163 -36l-137 -379h149l-58 -161h-149l-98 -271h149l-58 -161h-149l-151 -415l-162 39l136 376h-255l-151 -415l-162 39z" />
    <glyph glyph-name="dollar" unicode="$" horiz-adv-x="1182" 
d="M494 -23q-140 23 -225 122q-74 88 -88 265l215 55q2 -11 2.5 -19.5t1.5 -13.5q7 -86 38 -133q52 -82 164 -82q139 0 223 116q50 70 50 142q0 34 -17 63q-31 55 -163 109l-116 48q-243 100 -243 299q0 154 107 276q106 121 274 157l30 189h209l-30 -188q45 -11 82.5 -29.5
t68.5 -47t57.5 -68t50.5 -92.5l-189 -109q-17 35 -34 61t-33 43q-52 55 -144 55q-122 0 -193 -98q-42 -57 -42 -115q0 -94 146 -154l122 -50q142 -57 208.5 -134t66.5 -183q0 -158 -109 -289q-109 -133 -278 -182l-32 -202h-209z" />
    <glyph glyph-name="percent" unicode="%" horiz-adv-x="1839" 
d="M612 1244q-94 0 -140 -70q-85 -125 -85 -325q0 -171 134 -171q94 0 140 70q85 127 85 322q0 174 -134 174zM632 1382q271 0 271 -283q0 -98 -23 -201q-24 -100 -62 -171q-103 -187 -315 -187q-139 0 -207 74q-66 72 -66 207q0 99 23 203q22 101 62 171q103 187 317 187z
M1474 1393l106 -67l-999 -1355l-106 67zM1535 688q-94 0 -140 -70q-85 -125 -85 -326q0 -171 134 -171q94 0 140 70q85 127 85 322q0 175 -134 175zM1555 826q271 0 271 -283q0 -98 -23 -202q-24 -100 -62 -171q-105 -187 -315 -187q-139 0 -207 74q-66 72 -66 207
q0 98 23 204q22 101 62 171q103 187 317 187z" />
    <glyph glyph-name="ampersand" unicode="&#x26;" horiz-adv-x="1340" 
d="M623 644q-131 -92 -180 -156q-51 -65 -51 -138q0 -71 50 -126q58 -63 174 -63q138 0 262 104zM699 889q117 85 145 119q46 55 46 113q0 46 -31 75t-82 29q-64 0 -110 -48q-46 -47 -46 -116q0 -52 78 -172zM1017 426q39 57 111 196l183 -52l-16 -32q-43 -90 -84 -158.5
t-80 -119.5l178 -260h-253l-74 110q-185 -138 -394 -138q-145 0 -254 67q-85 52 -125 148q-25 59 -25 129q0 128 81 235q40 54 107 110t161 117l-2 3q-97 137 -97 251q0 109 72 208q112 153 299 153q149 0 221 -100q49 -67 49 -155q0 -103 -65 -191q-32 -44 -87 -91
t-133 -99z" />
    <glyph glyph-name="quotesingle" unicode="'" horiz-adv-x="362" 
d="M389 812h-159l66 581h211z" />
    <glyph glyph-name="parenleft" unicode="(" horiz-adv-x="637" 
d="M748 1434q-327 -597 -327 -1277q0 -242 52 -460l-196 -86l-14 47l-10 35q-41 147 -41 413q0 529 181 1024q80 219 186 389z" />
    <glyph glyph-name="parenright" unicode=")" horiz-adv-x="637" 
d="M68 -303q327 594 327 1276q0 243 -52 461l196 85q66 -212 66 -510q0 -392 -111 -786q-29 -105 -57 -189t-56 -150q-56 -131 -144 -273z" />
    <glyph glyph-name="asterisk" unicode="*" horiz-adv-x="991" 
d="M398 1363l214 -84l28 242h192l-49 -242l241 84l31 -182l-244 -65l120 -190l-172 -112l-103 201l-166 -201l-138 112l181 190l-223 65z" />
    <glyph glyph-name="plus" unicode="+" horiz-adv-x="1139" 
d="M592 730l65 410h187l-65 -410h407l-14 -91l-15 -91h-406l-65 -409h-188l65 409h-407l14 91l15 91h407z" />
    <glyph glyph-name="comma" unicode="," horiz-adv-x="509" 
d="M259 235l177 -68l-310 -513l-137 59z" />
    <glyph glyph-name="hyphen" unicode="-" horiz-adv-x="550" 
d="M151 565h427l-29 -186h-427z" />
    <glyph glyph-name="period" unicode="." horiz-adv-x="497" 
d="M287 234q48 0 79.5 -30.5t31.5 -78.5q0 -59 -46 -104q-46 -46 -107 -46q-49 0 -80.5 30.5t-31.5 79.5q0 59 46 104t108 45z" />
    <glyph glyph-name="slash" unicode="/" horiz-adv-x="1131" 
d="M1093 1396l144 -96l-983 -1331l-145 96z" />
    <glyph glyph-name="zero" unicode="0" horiz-adv-x="1180" 
d="M779 1195q-108 0 -191 -65q-26 -21 -51.5 -54t-48.5 -79q-112 -215 -112 -521t242 -306q201 0 306 232q44 95 69 224q25 128 25 251q0 318 -239 318zM808 1393q241 0 347 -148q84 -119 84 -318q0 -175 -40 -350q-40 -178 -105 -298q-169 -307 -505 -307q-244 0 -349 148
q-84 118 -84 311q0 181 40 357q39 178 105 298q168 307 507 307z" />
    <glyph glyph-name="one" unicode="1" horiz-adv-x="648" 
d="M499 0h-212l176 1115l-203 -107l-73 172l353 185h175z" />
    <glyph glyph-name="two" unicode="2" horiz-adv-x="1002" 
d="M88 0l28 174l578 547q190 180 190 321q0 72 -47.5 112t-132.5 40q-102 0 -161 -47q-59 -46 -115 -171l-187 54q54 139 135 218q145 145 362 145q126 0 221 -56q137 -80 137 -264q0 -54 -13.5 -109.5t-40 -109.5t-64 -105t-85.5 -96l-482 -456h582l-32 -197h-873z" />
    <glyph glyph-name="three" unicode="3" horiz-adv-x="986" 
d="M74 347l215 54q11 -112 45 -161q45 -68 158 -68q145 0 228 111q52 71 52 159q0 175 -217 175h-90l30 194h90q144 0 210 89q46 61 46 137q0 69 -40 110q-46 49 -142 49q-72 0 -127 -33q-55 -32 -124 -117l-161 97q74 98 140 148q133 102 305 102q124 0 220 -57
q78 -46 116 -137q24 -59 24 -130q0 -206 -179 -341q114 -105 114 -254q0 -161 -94 -288q-69 -93 -174 -148q-125 -66 -263 -66q-203 0 -308 137q-36 48 -50 94q-8 24 -13.5 57.5t-9.5 76.5z" />
    <glyph glyph-name="four" unicode="4" horiz-adv-x="1064" 
d="M1005 1293l-637 -809h342l52 325h211l-52 -325h162l-31 -194h-162l-46 -290h-211l46 290h-585l30 189l725 921z" />
    <glyph glyph-name="five" unicode="5" horiz-adv-x="1085" 
d="M1122 1170h-464l-95 -264q31 16 109 16q217 0 334 -156q75 -101 75 -237q0 -169 -109 -317q-81 -111 -201 -174q-125 -66 -265 -66q-206 0 -324 147q-38 46 -75 126l188 117q34 -80 59 -112q63 -80 186 -80q110 0 199 69q60 48 93.5 115.5t33.5 140.5q0 101 -60 164
q-66 69 -173 69q-117 0 -211 -88l-159 35l250 690h640z" />
    <glyph glyph-name="six" unicode="6" horiz-adv-x="1117" 
d="M667 707q-127 0 -221 -92q-93 -92 -93 -219q0 -96 59 -160q64 -67 169 -67q75 0 142 36t113 100q61 85 61 184q0 82 -45 138q-65 80 -185 80zM1006 1278l-334 -384q16 6 41 6q129 0 233 -66q165 -107 165 -311q0 -166 -109 -314q-83 -113 -203 -175q-119 -62 -250 -62
q-211 0 -330 158q-78 105 -78 242q0 206 163 391l557 637z" />
    <glyph glyph-name="seven" unicode="7" horiz-adv-x="927" 
d="M82 61l774 1109h-651l31 195h901l-25 -157l-861 -1244z" />
    <glyph glyph-name="eight" unicode="8" horiz-adv-x="1050" 
d="M716 1207q-132 0 -205 -102q-45 -62 -45 -133q0 -69 43 -113q51 -54 145 -54q103 0 177 68q73 67 73 165q0 68 -44 115q-50 54 -144 54zM619 623q-143 0 -226 -107q-55 -71 -55 -159q0 -80 49 -132q57 -60 166 -60q147 0 231 112q53 71 53 157q0 78 -48 129
q-56 60 -170 60zM363 727q-97 100 -97 223q0 127 86 246q66 90 165 141q107 56 228 56q199 0 295 -132q63 -86 63 -197q0 -190 -185 -337q132 -113 132 -265q0 -148 -92 -275q-67 -92 -175 -150q-124 -65 -263 -65q-132 0 -241 65q-87 53 -128 150q-26 66 -26 140
q0 238 238 400z" />
    <glyph glyph-name="nine" unicode="9" horiz-adv-x="1122" 
d="M752 1196q-103 0 -189 -68q-60 -46 -93.5 -113t-33.5 -139q0 -89 56 -148q65 -68 174 -68q75 0 143 34.5t113 97.5q58 79 58 177q0 96 -59 160q-63 67 -169 67zM327 86l336 385q-19 -4 -48 -4q-122 0 -228 66q-93 58 -136 159q-29 69 -29 151q0 165 109 313
q82 112 204 175q119 62 249 62q211 0 330 -158q78 -104 78 -243q0 -203 -163 -390l-557 -638z" />
    <glyph glyph-name="colon" unicode=":" horiz-adv-x="497" 
d="M388 878q24 0 44.5 -8t35.5 -22.5t23.5 -34.5t8.5 -44q0 -59 -46 -104q-47 -45 -109 -45q-48 0 -79 31t-31 79q0 59 46 104q47 44 107 44zM287 234q48 0 79.5 -30.5t31.5 -78.5q0 -59 -46 -104q-46 -46 -107 -46q-49 0 -80.5 30.5t-31.5 79.5q0 59 46 104t108 45z" />
    <glyph glyph-name="semicolon" unicode=";" horiz-adv-x="502" 
d="M425 878q24 0 44.5 -8t35.5 -22.5t23.5 -34.5t8.5 -44q0 -59 -46 -104q-47 -45 -108 -45q-48 0 -79.5 31t-31.5 79q0 59 47 104q47 44 106 44zM259 235l177 -68l-310 -513l-137 59z" />
    <glyph glyph-name="less" unicode="&#x3c;" horiz-adv-x="1166" 
d="M1247 1216l-34 -214l-734 -312l635 -314l-34 -213l-872 443l27 168z" />
    <glyph glyph-name="equal" unicode="=" horiz-adv-x="1139" 
d="M1103 578l-29 -183h-883l29 183h883zM1151 885l-29 -183h-882l29 183h882z" />
    <glyph glyph-name="greater" unicode="&#x3e;" horiz-adv-x="1166" 
d="M138 163l34 214l734 313l-635 313l34 213l872 -443l-27 -168z" />
    <glyph glyph-name="question" unicode="?" horiz-adv-x="882" 
d="M468 234q24 0 44.5 -8t35 -22.5t23 -34.5t8.5 -44q0 -60 -46 -105q-47 -45 -109 -45q-48 0 -79 31.5t-31 79.5q0 58 47 103q46 45 107 45zM378 335l22 141q17 99 49 150q31 51 118 116l97 72q152 114 152 236q0 60 -36 98q-43 46 -133 46q-33 0 -59.5 -4.5t-51 -15
t-48 -28t-48.5 -42.5q-14 -14 -31 -33t-37 -45l-135 127q169 240 432 240q103 0 182 -32.5t121 -90.5q56 -77 56 -189t-53 -204q-52 -91 -178 -194l-111 -90q-51 -42 -60 -57q-10 -16 -19 -76l-20 -125h-209z" />
    <glyph glyph-name="at" unicode="@" horiz-adv-x="1839" 
d="M1109 398l152 529h-99q-197 0 -297 -133q-75 -99 -75 -220q0 -80 43 -123q50 -53 149 -53h127zM1469 1081l-196 -683h21q177 0 269 129q102 145 102 346q0 255 -175 364q-113 71 -295 71q-303 0 -511 -166q-133 -106 -208 -262q-75 -158 -75 -329q0 -192 106 -317
q147 -176 487 -176q206 0 469 78l31 -147q-255 -85 -528 -85q-124 0 -240 25q-120 26 -198 67q-140 74 -215 209q-75 136 -75 325q0 302 186 553q122 165 303 263q218 116 486 116q231 0 380 -94q235 -148 235 -472q0 -208 -99 -380q-100 -176 -288 -241q-89 -31 -225 -31
h-275q-149 0 -234 82q-86 81 -86 220q0 173 111 322q160 213 474 213h263z" />
    <glyph glyph-name="A" unicode="A" horiz-adv-x="1292" 
d="M512 550h440l-126 595zM408 352l-185 -352h-223l731 1365h262l299 -1365h-224l-75 352h-585z" />
    <glyph glyph-name="B" unicode="B" horiz-adv-x="1078" 
d="M391 195h150q95 0 147 16q55 17 98 57q74 68 74 165q0 93 -69 137q-58 37 -203 37h-132zM485 790h119q85 0 133 14q49 14 86 50q71 66 71 163q0 82 -54 119t-176 37h-118zM150 0l216 1365h306q197 0 294 -61q63 -39 98 -108.5t35 -151.5q0 -181 -173 -318
q145 -82 145 -272q0 -90 -41 -177q-77 -161 -258 -237q-93 -40 -251 -40h-371z" />
    <glyph glyph-name="C" unicode="C" horiz-adv-x="1372" 
d="M1322 1007q-58 73 -109 112q-98 74 -237 74q-197 0 -354 -126q-108 -86 -170 -212q-63 -126 -63 -258q0 -179 112 -297q122 -128 312 -128q164 0 310 105l42 33t61 52l126 -145q-105 -90 -192 -141q-179 -104 -375 -104q-324 0 -498 236q-116 158 -116 365q0 245 160 463
q124 169 303 263q178 94 378 94q73 0 138.5 -14t124.5 -44t113 -75.5t105 -108.5z" />
    <glyph glyph-name="D" unicode="D" horiz-adv-x="1267" 
d="M548 1167l-154 -969h96q264 0 430 154q118 109 159 276q18 72 18 147q0 218 -163 321q-113 71 -290 71h-96zM366 1365h302q251 0 414 -103q231 -146 231 -454q0 -185 -76 -349q-128 -278 -418 -393q-167 -66 -367 -66h-302z" />
    <glyph glyph-name="E" unicode="E" horiz-adv-x="984" 
d="M1077 1169h-529l-60 -378h470l-31 -198h-470l-63 -395h549l-31 -198h-762l216 1365h743z" />
    <glyph glyph-name="F" unicode="F" horiz-adv-x="907" 
d="M1031 1169h-483l-60 -378h441l-31 -198h-441l-94 -593h-213l216 1365h697z" />
    <glyph glyph-name="G" unicode="G" horiz-adv-x="1488" 
d="M920 735h609l-16 -103q-33 -206 -149 -371q-94 -132 -242 -208q-155 -81 -335 -81q-324 0 -500 236q-116 158 -116 364q0 244 160 464q124 169 303 263q178 94 378 94q239 0 399 -151q13 -12 33 -34.5l49 -54.5l-171 -144q-30 37 -57.5 65t-53.5 47q-98 72 -234 72
q-197 0 -354 -126q-109 -85 -171 -212q-63 -126 -63 -258q0 -179 112 -297q122 -128 315 -128q208 0 345 146q74 80 116 219h-388z" />
    <glyph glyph-name="H" unicode="H" horiz-adv-x="1332" 
d="M366 1365h213l-91 -574h606l91 574h213l-216 -1365h-213l94 593h-606l-94 -593h-213z" />
    <glyph glyph-name="I" unicode="I" horiz-adv-x="513" 
d="M579 1365l-216 -1365h-213l216 1365h213z" />
    <glyph glyph-name="J" unicode="J" horiz-adv-x="851" 
d="M917 1365l-150 -946q-8 -53 -17.5 -94t-20.5 -71q-23 -60 -64 -118q-52 -71 -134 -115q-89 -49 -192 -49q-97 0 -170 39q-74 37 -154 129l157 154q98 -122 195 -122q76 0 121.5 59.5t65.5 187.5l150 946h213z" />
    <glyph glyph-name="K" unicode="K" horiz-adv-x="1196" 
d="M788 791l403 -791h-250l-321 635l-184 -170l-73 -465h-213l216 1365h213l-98 -615l663 615h264z" />
    <glyph glyph-name="L" unicode="L" horiz-adv-x="884" 
d="M579 1365l-185 -1168h510l-31 -197h-723l216 1365h213z" />
    <glyph glyph-name="M" unicode="M" horiz-adv-x="1648" 
d="M150 0l216 1365h207l335 -830l598 830h207l-216 -1365h-212l152 964l-482 -671h-170l-270 671l-152 -964h-213z" />
    <glyph glyph-name="N" unicode="N" horiz-adv-x="1450" 
d="M150 0l216 1365h187l592 -1004l159 1004h212l-216 -1365h-187l-591 1004l-159 -1004h-213z" />
    <glyph glyph-name="O" unicode="O" horiz-adv-x="1562" 
d="M973 1193q-188 0 -348 -127q-110 -86 -173 -212t-63 -257q0 -180 119 -302q121 -123 295 -123q187 0 351 128q110 86 173 210q62 124 62 255q0 180 -113 302q-68 70 -162 102q-74 24 -141 24zM1008 1393q183 0 328 -94q149 -97 222 -262q49 -113 49 -245
q0 -246 -162 -466q-122 -164 -302 -259q-182 -95 -374 -95q-260 0 -434 182q-163 169 -163 418q0 253 161 465q126 168 304 262t371 94z" />
    <glyph glyph-name="P" unicode="P" horiz-adv-x="966" 
d="M477 721h107q90 0 147.5 23t95.5 74q56 77 56 175q0 94 -54 136t-174 42h-107zM366 1365h302q189 0 281 -58q145 -88 145 -290q0 -109 -49 -208q-86 -177 -256 -244q-93 -37 -253 -37h-90l-83 -528h-213z" />
    <glyph glyph-name="Q" unicode="Q" horiz-adv-x="1557" 
d="M907 304l168 144l106 -124q207 186 207 440q0 181 -113 303q-119 126 -300 126q-191 0 -351 -126q-108 -86 -172 -212q-63 -126 -63 -258q0 -178 115 -297q122 -128 295 -128q89 0 190 36zM1411 54l-168 -144l-124 146q-176 -84 -354 -84q-175 0 -324 95
q-150 97 -220 260q-50 115 -50 245q0 244 162 465q121 166 304 262q178 94 373 94q179 0 325 -94q152 -96 222 -262q49 -113 49 -245q0 -196 -106 -380q-76 -131 -195 -233z" />
    <glyph glyph-name="R" unicode="R" horiz-adv-x="1121" 
d="M477 721h107q171 0 251 74t80 189q0 98 -62 142.5t-198 44.5h-107zM1083 0h-239l-211 532q-28 -2 -52.5 -3t-44.5 -1h-90l-83 -528h-213l216 1365h302q206 0 308 -63q150 -93 150 -294q0 -134 -75 -249q-77 -117 -202 -176z" />
    <glyph glyph-name="S" unicode="S" horiz-adv-x="1054" 
d="M941 1036q-17 35 -34 61t-33 43q-52 55 -144 55q-122 0 -193 -98q-42 -57 -42 -115q0 -94 146 -154l122 -49q141 -58 208 -135t67 -183q0 -141 -94 -269q-73 -99 -184 -158q-118 -62 -249 -62q-149 0 -250 80q-119 95 -135 313l215 54q2 -11 2.5 -19t1.5 -13
q7 -88 38 -134q52 -82 164 -82q139 0 223 116q50 70 50 142q0 35 -17 64q-32 54 -163 108l-116 48q-243 100 -243 299q0 133 83 246q63 85 162 138q115 61 245 61q191 0 296 -137q31 -42 63 -111z" />
    <glyph glyph-name="T" unicode="T" horiz-adv-x="894" 
d="M1079 1169h-341l-185 -1169h-213l186 1169h-341l31 196h894z" />
    <glyph glyph-name="U" unicode="U" horiz-adv-x="1307" 
d="M366 1365h213l-133 -842q-15 -92 -15 -137q0 -87 56 -141q74 -73 192 -73q80 0 157 36q76 36 120 93q26 35 41 83q15 45 30 139l133 842h213l-140 -881q-27 -172 -102 -272q-75 -102 -198 -167q-136 -73 -286 -73q-142 0 -260 73q-171 105 -171 307q0 32 3 64.5t8 67.5z
" />
    <glyph glyph-name="V" unicode="V" horiz-adv-x="1156" 
d="M216 1365h222l186 -1076l527 1076h221l-670 -1365h-248z" />
    <glyph glyph-name="W" unicode="W" horiz-adv-x="1797" 
d="M438 1365l128 -1009l458 1009h181l138 -1009l449 1009h221l-626 -1365h-102h-98l-135 969l-442 -969h-98h-103l-193 1365h222z" />
    <glyph glyph-name="X" unicode="X" horiz-adv-x="1137" 
d="M1313 1365l-513 -651l337 -714h-242l-244 527l-413 -527h-238l562 711l-306 654h238l218 -468l367 468h234z" />
    <glyph glyph-name="Y" unicode="Y" horiz-adv-x="1083" 
d="M1313 1365l-575 -798l-90 -567h-212l89 567l-322 798h236l227 -586l412 586h235z" />
    <glyph glyph-name="Z" unicode="Z" horiz-adv-x="1046" 
d="M1183 1194l-850 -996h706l-31 -198h-974l27 171l861 999h-644l31 195h901z" />
    <glyph glyph-name="bracketleft" unicode="[" horiz-adv-x="625" 
d="M570 1306l-235 -1481h183l-30 -191h-389l295 1863h389l-30 -191h-183z" />
    <glyph glyph-name="backslash" unicode="\" horiz-adv-x="1131" 
d="M480 1396l562 -1331l-176 -96l-561 1331z" />
    <glyph glyph-name="bracketright" unicode="]" horiz-adv-x="625" 
d="M468 1306h-183l30 191h389l-295 -1863h-389l30 191h183z" />
    <glyph glyph-name="asciicircum" unicode="^" horiz-adv-x="1117" 
d="M1080 711h-247l-276 468l-276 -468h-245l401 693h242z" />
    <glyph glyph-name="underscore" unicode="_" horiz-adv-x="1051" 
d="M-31 -108h1079l-29 -186h-1079z" />
    <glyph glyph-name="grave" unicode="`" horiz-adv-x="975" 
d="M396 1319l211 104l185 -324l-148 -77z" />
    <glyph glyph-name="a" unicode="a" horiz-adv-x="1117" 
d="M647 750q-131 0 -223 -104q-93 -104 -93 -253q0 -109 60 -170q64 -66 167 -66q152 0 246 127q73 98 73 234q0 105 -59 167q-62 65 -171 65zM1001 0h-204l12 79q-155 -107 -295 -107q-116 0 -211 61q-180 115 -180 343q0 175 109 323q82 112 204 176q116 61 236 61
q134 0 256 -107l13 79h204z" />
    <glyph glyph-name="b" unicode="b" horiz-adv-x="1117" 
d="M702 751q-149 0 -243 -126q-73 -97 -73 -232q0 -109 59 -171q61 -64 164 -64q101 0 187 66q89 69 121 195q13 48 13 97q0 98 -52 159q-64 76 -176 76zM115 0l216 1365h205l-85 -536q157 107 295 107q116 0 211 -61q180 -116 180 -341q0 -174 -110 -325
q-79 -110 -204 -175q-116 -62 -235 -62q-134 0 -256 107l-13 -79h-204z" />
    <glyph glyph-name="c" unicode="c" horiz-adv-x="947" 
d="M873 626q-55 73 -101 99t-115 26q-159 0 -254 -128q-72 -98 -72 -229q0 -108 59 -170q64 -67 173 -67q71 0 130 30q58 28 132 102l116 -133q-40 -37 -75 -64t-67 -46q-125 -74 -266 -74q-132 0 -235 64q-96 59 -143 171q-32 79 -32 170q0 173 110 324q79 109 198 171
q121 64 257 64q54 0 100 -10t87.5 -31.5t79.5 -55t75 -80.5z" />
    <glyph glyph-name="d" unicode="d" horiz-adv-x="1117" 
d="M647 750q-131 0 -223 -104q-93 -105 -93 -252q0 -110 60 -171q64 -66 167 -66q102 0 184 64q90 72 121 197q12 49 12 100q0 106 -59 168q-61 64 -169 64zM1001 0h-204l12 79q-155 -107 -295 -107q-116 0 -211 61q-180 115 -180 343q0 175 109 323q82 112 204 176
q116 61 236 61q134 0 256 -107l85 536h204z" />
    <glyph glyph-name="e" unicode="e" horiz-adv-x="1012" 
d="M836 534q-8 86 -42 140q-52 82 -162 82q-94 0 -167.5 -58t-112.5 -164h484zM328 376q3 -70 32 -124q56 -95 188 -95q36 0 71 8.5t67.5 23.5t60.5 36.5t49 48.5l13.5 18t9.5 11l164 -73q-194 -258 -465 -258q-211 0 -320 151q-75 103 -75 252q0 179 113 334q40 55 88.5 97
t105.5 73q110 58 230 58q113 0 205 -57q167 -104 167 -347q0 -57 -18 -157h-686z" />
    <glyph glyph-name="f" unicode="f" horiz-adv-x="530" 
d="M617 724h-159l-115 -724h-204l115 724h-88l29 184h88l27 171q48 302 292 302q53 0 114 -16l-30 -184q-51 14 -77 14q-75 0 -95 -116l-27 -171h159z" />
    <glyph glyph-name="g" unicode="g" horiz-adv-x="1117" 
d="M648 751q-132 0 -224 -104q-93 -105 -93 -253q0 -110 60 -171q64 -66 167 -66q102 0 185 65q90 72 121 196q12 49 12 101q0 104 -59 168q-61 64 -169 64zM1145 908l-146 -925q-37 -234 -207 -368q-154 -121 -355 -121q-102 0 -188.5 34t-143.5 97l-29 36t-41 56l155 133
q7 -9 11.5 -15.5t7.5 -11.5q50 -71 83 -94q68 -50 172 -50q139 0 227 85q82 77 104 219l15 96q-140 -107 -288 -107q-206 0 -321 156q-78 105 -78 249q0 174 109 323q82 111 205 175q116 61 244 61q141 0 248 -107l12 79h204z" />
    <glyph glyph-name="h" unicode="h" horiz-adv-x="1043" 
d="M331 1365h205l-83 -523q110 94 246 94q79 0 149 -32t112 -87q57 -75 57 -189q0 -63 -12 -139l-78 -489h-204l75 473q12 76 12 114q0 161 -159 161q-59 0 -111.5 -24.5t-81.5 -64.5q-45 -63 -67 -205l-72 -454h-204z" />
    <glyph glyph-name="i" unicode="i" horiz-adv-x="436" 
d="M432 1344q48 0 80 -31t32 -79q0 -44 -29 -85q-48 -66 -125 -66q-49 0 -81 31t-32 80q0 58 47 105q46 45 108 45zM464 908l-144 -908h-204l144 908h204z" />
    <glyph glyph-name="j" unicode="j" horiz-adv-x="456" 
d="M-66 -284q60 -19 93 -19q61 0 78 110l174 1101h205l-175 -1101q-27 -174 -120 -246q-74 -56 -167 -56q-53 0 -118 20zM452 1344q24 0 44.5 -8.5t35.5 -23t23.5 -34.5t8.5 -44q0 -60 -47 -105q-46 -46 -109 -46q-48 0 -79.5 31.5t-31.5 80.5q0 59 47 104q46 45 108 45z
" />
    <glyph glyph-name="k" unicode="k" horiz-adv-x="975" 
d="M652 531l333 -531h-252l-242 394l-126 -108l-46 -286h-204l216 1365h205l-130 -819l423 362h267z" />
    <glyph glyph-name="l" unicode="l" horiz-adv-x="439" 
d="M321 0h-204l216 1365h205z" />
    <glyph glyph-name="m" unicode="m" horiz-adv-x="1583" 
d="M924 813q133 123 300 123q186 0 276 -123q57 -80 57 -186q0 -61 -13 -138l-77 -489h-204l74 473q13 77 13 118q0 157 -142 157q-52 0 -99.5 -23t-74.5 -61q-45 -63 -67 -210l-72 -454h-205l75 473q12 75 12 118q0 157 -144 157q-52 0 -99.5 -23t-74.5 -61
q-44 -62 -68 -210l-72 -454h-204l144 908h204l-10 -66q104 94 232 94q150 0 239 -123z" />
    <glyph glyph-name="n" unicode="n" horiz-adv-x="1043" 
d="M259 908h204l-10 -66q112 94 246 94q79 0 149 -32t112 -87q57 -75 57 -189q0 -63 -12 -139l-78 -489h-204l75 473q12 76 12 115q0 160 -159 160q-59 0 -111.5 -24.5t-81.5 -64.5q-45 -63 -67 -205l-72 -454h-204z" />
    <glyph glyph-name="o" unicode="o" horiz-adv-x="1070" 
d="M648 751q-132 0 -224 -104q-93 -105 -93 -253q0 -110 60 -171q64 -66 168 -66q156 0 251 129q73 97 73 232q0 104 -59 166q-64 67 -176 67zM689 936q208 0 325 -157q77 -104 77 -247q0 -173 -110 -324q-82 -112 -204 -175q-118 -61 -248 -61q-212 0 -328 155
q-78 105 -78 250q0 185 122 340q68 87 161 141q130 78 283 78z" />
    <glyph glyph-name="p" unicode="p" horiz-adv-x="1117" 
d="M703 751q-149 0 -243 -126q-74 -101 -74 -235q0 -106 59 -168q61 -64 166 -64q133 0 226 105q93 103 93 252q0 108 -60 170q-65 66 -167 66zM259 908h205l-13 -79q155 107 296 107q116 0 211 -61q180 -116 180 -344q0 -175 -109 -323q-41 -55 -91.5 -99t-113.5 -76
q-116 -61 -235 -61q-133 0 -257 107l-88 -557h-204z" />
    <glyph glyph-name="q" unicode="q" horiz-adv-x="1117" 
d="M653 750q-135 0 -228 -103q-94 -103 -94 -254q0 -135 94 -198q58 -38 138 -38q67 0 130 33t108 93q73 97 73 231q0 110 -59 172q-61 64 -162 64zM1145 908l-219 -1386h-205l88 557q-157 -107 -295 -107q-116 0 -211 61q-180 115 -180 342q0 173 110 324q80 110 204 175
q116 62 235 62q134 0 256 -107l13 79h204z" />
    <glyph glyph-name="r" unicode="r" horiz-adv-x="619" 
d="M259 908h204l-11 -73q65 47 106 62q40 15 101 15q16 0 34 -1t40 -3l-28 -183q-25 1 -42.5 1.5t-28.5 0.5q-124 0 -179 -81q-44 -65 -66 -209l-70 -437h-204z" />
    <glyph glyph-name="s" unicode="s" horiz-adv-x="777" 
d="M265 306q29 -86 62 -118q32 -32 88 -32q61 0 102 37q42 37 42 90q0 16 -8 32q-14 25 -105 62l-88 36q-162 66 -162 203q0 95 59 175q45 60 118 100q85 45 182 45q195 0 269 -198l-173 -81q-14 27 -27.5 46t-29 30.5t-34 16.5t-40.5 5q-27 0 -50 -8t-40.5 -22.5t-27 -34
t-9.5 -42.5q0 -17 8 -31q10 -19 106 -60l80 -32q94 -39 137 -88.5t43 -119.5q0 -97 -65 -186q-53 -71 -132 -113q-86 -46 -186 -46q-124 0 -196.5 64t-102.5 201z" />
    <glyph glyph-name="t" unicode="t" horiz-adv-x="532" 
d="M619 908l-29 -184h-143l-70 -438q-2 -14 -3 -25.5t-1 -21.5q0 -34 10.5 -48t37.5 -14q30 0 98 18l-30 -191q-72 -20 -127 -20q-97 0 -146.5 55t-49.5 163q0 43 7 84l69 438h-97l29 184h97l32 201l217 81l-44 -282h143z" />
    <glyph glyph-name="u" unicode="u" horiz-adv-x="1043" 
d="M928 0h-205l11 66q-110 -94 -246 -94q-81 0 -150 32t-111 87q-57 75 -57 188q0 66 12 140l77 489h204l-75 -473q-5 -37 -8 -65.5t-3 -49.5q0 -160 159 -160q60 0 111.5 23.5t81.5 65.5q44 62 66 205l72 454h204z" />
    <glyph glyph-name="v" unicode="v" horiz-adv-x="943" 
d="M131 908h221l164 -625l362 625h221l-535 -908h-186z" />
    <glyph glyph-name="w" unicode="w" horiz-adv-x="1360" 
d="M350 908l104 -578l288 578h163l105 -578l287 578h219l-477 -908h-164l-105 571l-285 -571h-164l-190 908h219z" />
    <glyph glyph-name="x" unicode="x" horiz-adv-x="954" 
d="M1076 908l-403 -437l285 -471h-241l-189 316l-289 -316h-242l435 470l-265 438h241l170 -284l260 284h238z" />
    <glyph glyph-name="y" unicode="y" horiz-adv-x="948" 
d="M56 -478l311 521l-235 865h221l162 -617l368 617h221l-834 -1386h-214z" />
    <glyph glyph-name="z" unicode="z" horiz-adv-x="849" 
d="M928 752l-586 -568h516l-30 -184h-783l25 155l587 570h-468l29 183h735z" />
    <glyph glyph-name="braceleft" unicode="{" horiz-adv-x="634" 
d="M527 -181l-29 -184q-31 -1 -52 -1.5t-32 -0.5q-124 0 -181.5 51t-57.5 162q0 25 1.5 49t5.5 47l62 389q4 23 4 61q0 21 -4 36t-14 26t-28 19t-46 16l26 164q72 19 99 48q27 30 37 100l62 387q27 169 110 240q81 69 218 69q8 0 29 -0.5t55 -1.5l-29 -183h-35h-16
q-69 0 -91 -19q-23 -20 -33 -90l-65 -410q-6 -42 -16.5 -75.5t-26 -60.5t-36.5 -49.5t-49 -42.5q18 -16 29.5 -31.5t18.5 -33t10 -39t3 -49.5q0 -44 -6 -81l-64 -404q-2 -16 -3.5 -30t-1.5 -28q0 -21 8 -31q18 -20 93 -20z" />
    <glyph glyph-name="bar" unicode="|" horiz-adv-x="1054" 
d="M425 1491h204v-1851h-204v1851z" />
    <glyph glyph-name="braceright" unicode="}" horiz-adv-x="634" 
d="M50 -181l47 -1q73 0 95 19t33 90l64 404q7 45 17.5 79.5t26 62.5t36.5 50t50 42q-18 16 -30 31.5t-19 33t-10 39t-3 49.5q0 20 1.5 39t3.5 36l65 410q6 36 6 59q0 20 -8 30q-18 20 -88 20h-14h-36l29 183q34 1 55.5 1.5t29.5 0.5q124 0 181 -51t57 -162q0 -23 -2 -47
t-6 -49l-61 -387q-4 -20 -4 -53q0 -20 4.5 -34.5t15 -25.5t28.5 -19.5t45 -15.5l-26 -164q-74 -18 -99 -48t-39 -110l-61 -389q-27 -169 -110 -240q-81 -69 -220 -69q-11 0 -31.5 0.5t-51.5 1.5z" />
    <glyph glyph-name="asciitilde" unicode="~" horiz-adv-x="1407" 
d="M177 1240q71 141 130 201q32 32 82.5 51.5t100.5 19.5q93 0 242 -73q130 -62 188 -62q52 0 88 30q35 31 87 118l135 -79q-62 -125 -123 -185q-37 -37 -92 -59q-57 -24 -105 -24q-56 0 -107 17q-25 8 -74.5 28.5t-124.5 54.5q-78 35 -128 35q-22 0 -42 -8.5t-39.5 -27
t-40.5 -49t-45 -74.5z" />
    <glyph glyph-name="nonbreakingspace" unicode="&#xa0;" horiz-adv-x="485" 
 />
    <glyph glyph-name="exclamdown" unicode="&#xa1;" horiz-adv-x="603" 
d="M310 653h192l-144 -1030h-231zM464 1013q24 0 44.5 -8t35 -22.5t23 -34.5t8.5 -44q0 -60 -46 -105q-47 -45 -108 -45q-48 0 -79.5 31t-31.5 79q0 59 47 104q46 45 107 45z" />
    <glyph glyph-name="cent" unicode="&#xa2;" horiz-adv-x="1135" 
d="M524 213q-105 27 -176 94q-120 112 -120 298q0 192 127 346q127 155 318 200l34 214h209l-33 -211q147 -31 252 -167l-157 -133q-55 73 -101 99q-47 26 -115 26q-159 0 -254 -128q-72 -98 -72 -229q0 -108 59 -170q64 -67 173 -67q72 0 131 30q57 28 131 102l116 -133
q-156 -144 -313 -175l-33 -209h-210z" />
    <glyph glyph-name="sterling" unicode="&#xa3;" horiz-adv-x="1153" 
d="M997 781l-30 -191h-372q1 -19 1 -30.5v-16.5q0 -128 -23 -199q-24 -68 -96 -148h619l-31 -196h-925l29 184q8 5 15 10l13 9q115 81 150 141q35 59 35 176q0 34 -3 70h-146l31 191h105v7q0 187 53 314q57 132 178 209q127 82 277 82q245 0 341 -248l-187 -106
q-26 61 -54 94q-53 62 -140 62q-27 0 -54.5 -6.5t-52.5 -18.5t-45.5 -29t-35.5 -38q-66 -92 -66 -267q0 -12 0.5 -25.5t1.5 -29.5h412z" />
    <glyph glyph-name="currency" unicode="&#xa4;" horiz-adv-x="1483" 
d="M893 989q-137 0 -233 -107t-96 -260q0 -114 61 -176q67 -69 176 -69q76 0 145.5 35.5t115.5 98.5q75 100 75 237q0 107 -62 172q-66 69 -182 69zM637 1077q142 88 290 88t261 -88l205 180l98 -112l-209 -183q47 -94 47 -198q0 -202 -135 -359l150 -182l-130 -115
l-150 181q-142 -88 -291 -88q-144 0 -262 88l-207 -181l-94 115l208 182q-47 97 -47 197q0 185 136 360l-151 183l133 112z" />
    <glyph glyph-name="yen" unicode="&#xa5;" horiz-adv-x="1288" 
d="M289 460l28 177h282l-36 89h-232l28 177h132l-186 462h235l227 -586l413 586h235l-333 -462h132l-28 -177h-232l-64 -89h282l-28 -177h-322l-72 -460h-213l73 460h-321z" />
    <glyph glyph-name="brokenbar" unicode="&#xa6;" horiz-adv-x="1054" 
d="M425 336h204v-696h-204v696zM425 1491h204v-696h-204v696z" />
    <glyph glyph-name="section" unicode="&#xa7;" horiz-adv-x="1146" 
d="M773 236q89 89 89 182q0 36 -17 65q-32 54 -166 110l-132 54q-8 4 -13 6q-104 -80 -104 -177q0 -96 147 -156l124 -50q14 -6 31.5 -14.5zM929 111q51 -69 51 -165q0 -141 -88 -259q-32 -44 -70.5 -77.5t-84.5 -56.5q-120 -59 -257 -59q-226 0 -341 163q-17 23 -35.5 60
t-38.5 89l192 110q22 -55 44 -94t44 -63q63 -67 175 -67q128 0 199 96q44 59 44 126q0 53 -43.5 94t-141.5 82l-118 48q-245 102 -245 304q0 183 161 329q-58 71 -58 175q0 132 84 246q63 86 164 140q115 61 245 61q192 0 295 -139q32 -43 63 -112l-191 -110q-35 73 -66 107
q-50 56 -143 56q-122 0 -194 -100q-43 -58 -43 -116q0 -95 150 -156l123 -51q144 -58 211 -135.5t67 -185.5q0 -89 -41 -182q-42 -92 -113 -158z" />
    <glyph glyph-name="dieresis" unicode="&#xa8;" horiz-adv-x="975" 
d="M513 1344q24 0 44.5 -8.5t35.5 -23t23.5 -34.5t8.5 -44q0 -57 -47 -104q-46 -46 -106 -46q-51 0 -82 31t-31 79q0 60 47 105q46 45 107 45zM889 1344q24 0 44.5 -8.5t35.5 -23t23.5 -34.5t8.5 -44q0 -59 -47 -104q-46 -46 -108 -46q-48 0 -79.5 31.5t-31.5 79.5
q0 59 47 104q46 45 107 45z" />
    <glyph glyph-name="copyright" unicode="&#xa9;" horiz-adv-x="1727" 
d="M854 1313q-162 0 -305 -85q-147 -86 -230 -230q-85 -145 -85 -315t85 -315q84 -146 230 -230q145 -85 315 -85q169 0 315 85q147 84 231 230q84 147 84 320q0 272 -209 463q-179 162 -431 162zM876 1458q199 0 375 -104q180 -105 284 -284t104 -387q0 -207 -104 -388
q-103 -179 -284 -283q-179 -104 -387 -104q-206 0 -387 104q-91 52 -161.5 122.5t-122.5 160.5q-104 182 -104 394q0 335 257 569q220 200 530 200zM1145 871q-20 22 -36.5 37.5l-28.5 26.5q-73 64 -181 64q-138 0 -226 -100q-81 -92 -81 -217q0 -146 103 -237
q86 -79 204 -79q73 0 123 26q25 13 56.5 39t71.5 66l121 -118l-9 -8l-15 -15q-84 -81 -165.5 -117.5t-180.5 -36.5q-219 0 -361 159q-123 138 -123 321q0 128 64 240q66 112 177 177q110 64 241 64q170 0 292 -104q11 -9 30 -27l46 -44z" />
    <glyph glyph-name="ordfeminine" unicode="&#xaa;" horiz-adv-x="721" 
d="M552 1263q-74 0 -126 -57q-52 -56 -52 -137q0 -56 31 -87q37 -37 97 -37q74 0 127 56q51 55 51 136q0 58 -34 92t-94 34zM778 832h-147l6 39q-80 -57 -161 -57q-131 0 -204 97q-47 62 -47 143q0 102 66 191q51 69 126 109q76 40 155 40q77 0 139 -57l6 39h147z" />
    <glyph glyph-name="guillemotleft" unicode="&#xab;" horiz-adv-x="956" 
d="M556 150l-153 -108l-270 412l402 421l119 -107l-296 -313zM889 150l-153 -108l-270 412l401 421l119 -107l-296 -313z" />
    <glyph glyph-name="logicalnot" unicode="&#xac;" horiz-adv-x="1393" 
d="M1270 139h-199v405h-948v186h1147v-591z" />
    <glyph glyph-name="uni00AD" unicode="&#xad;" horiz-adv-x="550" 
d="M151 565h427l-29 -186h-427z" />
    <glyph glyph-name="registered" unicode="&#xae;" horiz-adv-x="1727" 
d="M854 1313q-162 0 -304 -85q-147 -85 -231 -230q-84 -146 -84 -315q0 -170 84 -315q84 -146 231 -230q145 -85 314 -85t315 85q148 86 231 230q84 147 84 320q0 272 -209 463q-179 162 -431 162zM874 1458q201 0 377 -104q182 -107 284 -284q104 -178 104 -386t-104 -389
q-104 -182 -284 -284q-178 -103 -387 -103t-387 103q-180 104 -284 284q-104 181 -104 385q0 206 104 390q130 234 394 336q131 52 287 52zM761 983v-257h79q100 0 136 40q30 34 30 88q0 66 -40.5 97.5t-125.5 31.5h-79zM1254 222h-192l-196 346q-18 -1 -44 -1h-61v-345
h-171v921h239q134 0 208 -42q61 -35 99 -99q40 -67 40 -148q0 -82 -37 -146.5t-106 -99.5z" />
    <glyph glyph-name="macron" unicode="&#xaf;" horiz-adv-x="975" 
d="M387 1301h613l-29 -183h-613z" />
    <glyph glyph-name="degree" unicode="&#xb0;" horiz-adv-x="689" 
d="M628 1366q-61 0 -109 -48q-49 -48 -49 -110q0 -24 9 -45.5t24.5 -37t36.5 -24.5t45 -9q63 0 113 48q49 48 49 112q0 24 -9 45t-25 36.5t-38 24t-47 8.5zM657 1519q125 0 198 -97q47 -62 47 -145q0 -103 -65 -192q-24 -34 -56 -61t-68 -46t-75 -29t-78 -10q-126 0 -198 96
q-47 65 -47 150q0 103 65 189q51 67 122 105q74 40 155 40z" />
    <glyph glyph-name="plusminus" unicode="&#xb1;" horiz-adv-x="1139" 
d="M1099 182l-29 -182h-1001l29 182h1001zM611 856l65 410h188l-65 -410h407l-29 -182h-407l-64 -409h-188l65 409h-407l29 182h406z" />
    <glyph glyph-name="twosuperior" unicode="&#xb2;" 
d="M259 831l18 117l349 318q108 99 108 174q0 78 -98 78q-59 0 -90 -25q-32 -26 -67 -103l-134 37q92 230 314 230q52 0 94.5 -13.5t71.5 -39t45 -62t16 -81.5q0 -137 -125 -251l-264 -241h332l-21 -138h-549z" />
    <glyph glyph-name="threesuperior" unicode="&#xb3;" 
d="M503 1186l21 136h66q64 0 101 30.5t37 84.5q0 82 -96 82q-44 0 -74 -18q-32 -20 -75 -72l-117 67q66 86 132.5 123.5t152.5 37.5q103 0 166 -54q63 -56 63 -144q0 -117 -99 -196q62 -60 62 -148q0 -91 -56 -168q-23 -30 -53 -54.5t-65.5 -42t-75 -26.5t-80.5 -9
q-219 0 -242 227l-1 10l154 37q3 -39 10.5 -64.5t20.5 -41.5t32.5 -22.5t48.5 -6.5q65 0 109 41t44 99q0 92 -120 92h-66z" />
    <glyph glyph-name="acute" unicode="&#xb4;" horiz-adv-x="975" 
d="M997 1319l-342 -297l-123 77l287 324z" />
    <glyph glyph-name="mu" unicode="&#xb5;" horiz-adv-x="1043" 
d="M927 0h-204v61q-95 -89 -209 -89q-109 0 -195 89v-539h-204v1386h204v-477q0 -131 33 -191q44 -80 160 -80q28 0 55.5 6.5t50.5 18t41.5 28t29.5 36.5q34 61 34 205v454h204v-908z" />
    <glyph glyph-name="paragraph" unicode="&#xb6;" horiz-adv-x="1317" 
d="M650 424h-8q-196 0 -308 151q-75 102 -75 243q0 169 108 318q79 109 196 169q115 60 239 60h643l-28 -176h-131l-264 -1667h-183l264 1667h-148l-265 -1667h-183z" />
    <glyph glyph-name="periodcentered" unicode="&#xb7;" horiz-adv-x="497" 
d="M379 812q24 0 44 -8.5t35 -23t23.5 -34t8.5 -42.5q0 -60 -46 -105q-47 -45 -109 -45q-48 0 -79 31t-31 79q0 59 46 104q47 44 108 44z" />
    <glyph glyph-name="cedilla" unicode="&#xb8;" horiz-adv-x="975" 
d="M498 -62l174 -81l-290 -306l-134 73z" />
    <glyph glyph-name="onesuperior" unicode="&#xb9;" 
d="M637 831h-152l100 632l-113 -57l-54 120l226 114h121z" />
    <glyph glyph-name="ordmasculine" unicode="&#xba;" horiz-adv-x="708" 
d="M550 1261q-73 0 -124 -54q-51 -56 -51 -134q0 -56 32 -90q36 -37 96 -37q76 0 128 55q51 55 51 135q0 58 -35.5 91.5t-96.5 33.5zM578 1393q134 0 206 -97q47 -64 47 -147q0 -101 -65 -190q-25 -33 -55 -59t-67 -45q-77 -41 -162 -41q-137 0 -209 97q-47 64 -47 148
q0 103 65 189q109 145 287 145z" />
    <glyph glyph-name="guillemotright" unicode="&#xbb;" horiz-adv-x="956" 
d="M114 150l295 305l-197 313l153 107l268 -421l-400 -412zM447 150l295 305l-197 313l153 107l268 -421l-400 -412z" />
    <glyph glyph-name="onequarter" unicode="&#xbc;" horiz-adv-x="1707" 
d="M526 557h-152l100 631l-113 -57l-54 120l226 114h121zM950 291l442 544l113 -75l-372 -457h170l29 187h152l-30 -187h97l-22 -136h-97l-26 -167h-151l26 167h-351zM1325 1393l105 -67l-999 -1355l-105 67z" />
    <glyph glyph-name="onehalf" unicode="&#xbd;" horiz-adv-x="1707" 
d="M1009 0l18 117l349 318q108 99 108 174q0 78 -98 78q-59 0 -90 -25q-32 -26 -67 -103l-135 37q89 230 315 230q52 0 94 -13.5t71.5 -39t45.5 -62t16 -81.5q0 -137 -125 -251l-264 -241h332l-22 -138h-548zM525 557h-152l100 631l-113 -57l-54 120l226 114h121zM1324 1393
l105 -67l-999 -1355l-105 67z" />
    <glyph glyph-name="threequarters" unicode="&#xbe;" horiz-adv-x="1707" 
d="M1030 291l442 544l113 -75l-372 -457h170l29 187h151l-29 -187h97l-22 -136h-97l-26 -167h-151l26 167h-351zM449 911l21 136h66q64 0 101 30.5t37 84.5q0 82 -96 82q-44 0 -74 -18q-32 -20 -75 -72l-117 67q66 85 133 123t152 38q104 0 167 -54q62 -56 62 -144
q0 -118 -99 -197q62 -60 62 -147q0 -91 -56 -168q-23 -30 -53 -54.5t-65.5 -42t-75 -26.5t-80.5 -9q-222 0 -242 227l-1 9l154 38q3 -39 10.5 -64.5t20.5 -41.5t32.5 -22.5t48.5 -6.5q65 0 109 41t44 99q0 92 -120 92h-66zM1450 1393l105 -67l-999 -1355l-105 67z" />
    <glyph glyph-name="questiondown" unicode="&#xbf;" horiz-adv-x="882" 
d="M648 1013q48 0 79 -31t31 -80q0 -60 -46 -103q-47 -45 -108 -45q-24 0 -44.5 8t-35 22.5t-23 34.5t-8.5 44q0 60 47 105q46 45 108 45zM694 653l-22 -141q-15 -96 -48 -149q-33 -52 -119 -117l-97 -72q-151 -112 -151 -237q0 -60 36 -97q43 -46 133 -46q32 0 58.5 4.5
t51 15t47.5 28t49 42.5q29 29 68 78l135 -127q-168 -240 -432 -240q-214 0 -302 123q-56 79 -56 189q0 113 54 205q53 93 176 193l111 90q51 42 61 58q8 15 19 75l19 125h209z" />
    <glyph glyph-name="Agrave" unicode="&#xc0;" horiz-adv-x="1292" 
d="M617 1728l211 105l185 -324l-148 -78zM512 550h440l-126 595zM408 352l-185 -352h-223l731 1365h262l299 -1365h-224l-75 352h-585z" />
    <glyph glyph-name="Aacute" unicode="&#xc1;" horiz-adv-x="1292" 
d="M1217 1728l-343 -297l-123 78l287 324zM512 550h440l-126 595zM408 352l-185 -352h-223l731 1365h262l299 -1365h-224l-75 352h-585z" />
    <glyph glyph-name="Acircumflex" unicode="&#xc2;" horiz-adv-x="1292" 
d="M901 1612l-212 -180l-141 77l314 292h139l220 -292l-165 -77zM512 550h440l-126 595zM408 352l-185 -352h-223l731 1365h262l299 -1365h-224l-75 352h-585z" />
    <glyph glyph-name="Atilde" unicode="&#xc3;" horiz-adv-x="1292" 
d="M1225 1715q-53 -221 -224 -221q-73 0 -143 42q-45 25 -71 27h-1q-21 0 -46 -78l-160 39q22 90 68 145q61 76 158 76q66 0 146 -46q43 -23 68 -23q22 0 42 78zM512 550h440l-126 595zM408 352l-185 -352h-223l731 1365h262l299 -1365h-224l-75 352h-585z" />
    <glyph glyph-name="Adieresis" unicode="&#xc4;" horiz-adv-x="1292" 
d="M735 1749q48 0 80 -31t32 -79q0 -59 -46 -104q-46 -46 -109 -46q-48 0 -79.5 31.5t-31.5 79.5q0 59 47 104q46 45 107 45zM1112 1749q48 0 80 -31t32 -79q0 -59 -46 -104q-46 -46 -109 -46q-48 0 -79.5 31.5t-31.5 79.5q0 59 47 104q46 45 107 45zM512 550h440l-126 595z
M408 352l-185 -352h-223l731 1365h262l299 -1365h-224l-75 352h-585z" />
    <glyph glyph-name="Aring" unicode="&#xc5;" horiz-adv-x="1292" 
d="M919 1725q-49 0 -86 -37q-38 -38 -38 -85q0 -38 25.5 -63.5t63.5 -25.5q51 0 88 37t37 85q0 38 -25.5 63.5t-64.5 25.5zM934 1825q78 0 130 -49q51 -50 51 -124q0 -70 -46 -134q-35 -48 -89 -76t-110 -28q-79 0 -129 50q-51 49 -51 126q0 72 46 131q80 104 198 104z
M512 550h440l-126 595zM408 352l-185 -352h-223l731 1365h262l299 -1365h-224l-75 352h-585z" />
    <glyph glyph-name="AE" unicode="&#xc6;" horiz-adv-x="1719" 
d="M972 550l98 619h-49l-415 -619h366zM941 352h-468l-236 -352h-237l927 1365h916l-31 -196h-530l-59 -378h470l-31 -198h-471l-62 -395h549l-31 -198h-762z" />
    <glyph glyph-name="Ccedilla" unicode="&#xc7;" horiz-adv-x="1372" 
d="M698 -62l174 -81l-290 -306l-134 73zM1322 1007q-58 73 -109 112q-98 74 -237 74q-197 0 -354 -126q-108 -86 -170 -212q-63 -126 -63 -258q0 -179 112 -297q122 -128 312 -128q164 0 310 105l42 33t61 52l126 -145q-105 -90 -192 -141q-179 -104 -375 -104
q-324 0 -498 236q-116 158 -116 365q0 245 160 463q124 169 303 263q178 94 378 94q73 0 138.5 -14t124.5 -44t113 -75.5t105 -108.5z" />
    <glyph glyph-name="Egrave" unicode="&#xc8;" horiz-adv-x="984" 
d="M520 1728l211 105l184 -324l-147 -78zM1077 1169h-529l-60 -378h470l-31 -198h-470l-63 -395h549l-31 -198h-762l216 1365h743z" />
    <glyph glyph-name="Eacute" unicode="&#xc9;" horiz-adv-x="984" 
d="M1092 1728l-343 -297l-123 78l287 324zM1077 1169h-529l-60 -378h470l-31 -198h-470l-63 -395h549l-31 -198h-762l216 1365h743z" />
    <glyph glyph-name="Ecircumflex" unicode="&#xca;" horiz-adv-x="984" 
d="M787 1612l-212 -180l-141 77l314 292h139l220 -292l-165 -77zM1077 1169h-529l-60 -378h470l-31 -198h-470l-63 -395h549l-31 -198h-762l216 1365h743z" />
    <glyph glyph-name="Edieresis" unicode="&#xcb;" horiz-adv-x="984" 
d="M619 1749q48 0 80 -31t32 -79q0 -59 -46 -104q-46 -46 -108 -46q-49 0 -80.5 31t-31.5 79q0 60 47 105q46 45 107 45zM996 1749q24 0 44.5 -8.5t35.5 -23t23.5 -34.5t8.5 -44q0 -59 -47 -104q-46 -46 -107 -46q-49 0 -81 31t-32 79q0 60 47 105q46 45 108 45zM1077 1169
h-529l-60 -378h470l-31 -198h-470l-63 -395h549l-31 -198h-762l216 1365h743z" />
    <glyph glyph-name="Igrave" unicode="&#xcc;" horiz-adv-x="513" 
d="M225 1728l211 105l184 -324l-147 -78zM579 1365l-216 -1365h-213l216 1365h213z" />
    <glyph glyph-name="Iacute" unicode="&#xcd;" horiz-adv-x="513" 
d="M835 1728l-342 -297l-123 78l287 324zM579 1365l-216 -1365h-213l216 1365h213z" />
    <glyph glyph-name="Icircumflex" unicode="&#xce;" horiz-adv-x="513" 
d="M512 1612l-212 -180l-141 77l313 292h139l221 -292l-165 -77zM579 1365l-216 -1365h-213l216 1365h213z" />
    <glyph glyph-name="Idieresis" unicode="&#xcf;" horiz-adv-x="513" 
d="M386 1749q48 0 79.5 -31t31.5 -79q0 -59 -46 -104q-46 -46 -108 -46q-49 0 -80 31.5t-31 79.5q0 59 47 104q46 45 107 45zM682 1749q24 0 44.5 -8.5t35.5 -23t23.5 -34.5t8.5 -44q0 -59 -47 -104q-46 -46 -108 -46q-48 0 -79.5 31.5t-31.5 79.5q0 59 47 104q46 45 107 45
zM579 1365l-216 -1365h-213l216 1365h213z" />
    <glyph glyph-name="Eth" unicode="&#xd0;" horiz-adv-x="1293" 
d="M520 831h304l-29 -189h-305l-70 -444h96q263 0 430 155q117 108 158 276q18 72 18 147q0 217 -163 320q-113 71 -289 71h-97zM146 642l30 189h131l85 534h302q251 0 414 -103q231 -146 231 -454q0 -184 -76 -349q-128 -278 -419 -393q-165 -66 -366 -66h-302l101 642
h-131z" />
    <glyph glyph-name="Ntilde" unicode="&#xd1;" horiz-adv-x="1450" 
d="M1310 1715q-53 -221 -224 -221q-72 0 -144 42q-43 25 -70 27h-1q-21 0 -47 -78l-159 39q22 90 68 145q61 76 158 76q64 0 146 -46q43 -23 68 -23q22 0 42 78zM150 0l216 1365h187l592 -1004l159 1004h212l-216 -1365h-187l-591 1004l-159 -1004h-213z" />
    <glyph glyph-name="Ograve" unicode="&#xd2;" horiz-adv-x="1562" 
d="M755 1728l211 105l184 -324l-147 -78zM973 1193q-188 0 -348 -127q-110 -86 -173 -212t-63 -257q0 -180 119 -302q121 -123 295 -123q187 0 351 128q110 86 173 210q62 124 62 255q0 180 -113 302q-68 70 -162 102q-74 24 -141 24zM1008 1393q183 0 328 -94
q149 -97 222 -262q49 -113 49 -245q0 -246 -162 -466q-122 -164 -302 -259q-182 -95 -374 -95q-260 0 -434 182q-163 169 -163 418q0 253 161 465q126 168 304 262t371 94z" />
    <glyph glyph-name="Oacute" unicode="&#xd3;" horiz-adv-x="1562" 
d="M1355 1728l-343 -297l-123 78l287 324zM973 1193q-188 0 -348 -127q-110 -86 -173 -212t-63 -257q0 -180 119 -302q121 -123 295 -123q187 0 351 128q110 86 173 210q62 124 62 255q0 180 -113 302q-68 70 -162 102q-74 24 -141 24zM1008 1393q183 0 328 -94
q149 -97 222 -262q49 -113 49 -245q0 -246 -162 -466q-122 -164 -302 -259q-182 -95 -374 -95q-260 0 -434 182q-163 169 -163 418q0 253 161 465q126 168 304 262t371 94z" />
    <glyph glyph-name="Ocircumflex" unicode="&#xd4;" horiz-adv-x="1562" 
d="M1036 1612l-212 -180l-141 77l314 292h139l220 -292l-165 -77zM973 1193q-188 0 -348 -127q-110 -86 -173 -212t-63 -257q0 -180 119 -302q121 -123 295 -123q187 0 351 128q110 86 173 210q62 124 62 255q0 180 -113 302q-68 70 -162 102q-74 24 -141 24zM1008 1393
q183 0 328 -94q149 -97 222 -262q49 -113 49 -245q0 -246 -162 -466q-122 -164 -302 -259q-182 -95 -374 -95q-260 0 -434 182q-163 169 -163 418q0 253 161 465q126 168 304 262t371 94z" />
    <glyph glyph-name="Otilde" unicode="&#xd5;" horiz-adv-x="1562" 
d="M1360 1715q-51 -221 -224 -221q-73 0 -143 42q-43 25 -71 27h-1q-21 0 -46 -78l-160 39q22 90 68 145q61 76 159 76q64 0 146 -46q41 -23 68 -23q21 0 41 78zM973 1193q-188 0 -348 -127q-110 -86 -173 -212t-63 -257q0 -180 119 -302q121 -123 295 -123q187 0 351 128
q110 86 173 210q62 124 62 255q0 180 -113 302q-68 70 -162 102q-74 24 -141 24zM1008 1393q183 0 328 -94q149 -97 222 -262q49 -113 49 -245q0 -246 -162 -466q-122 -164 -302 -259q-182 -95 -374 -95q-260 0 -434 182q-163 169 -163 418q0 253 161 465q126 168 304 262
t371 94z" />
    <glyph glyph-name="Odieresis" unicode="&#xd6;" horiz-adv-x="1562" 
d="M871 1749q24 0 44.5 -8.5t35.5 -23t23.5 -34.5t8.5 -44q0 -59 -47 -104q-46 -46 -107 -46q-51 0 -82 31t-31 79q0 60 47 105q46 45 108 45zM1247 1749q24 0 44.5 -8.5t35.5 -23t23.5 -34.5t8.5 -44q0 -59 -47 -104q-46 -46 -108 -46q-48 0 -79.5 31.5t-31.5 79.5
q0 59 47 104q46 45 107 45zM973 1193q-188 0 -348 -127q-110 -86 -173 -212t-63 -257q0 -180 119 -302q121 -123 295 -123q187 0 351 128q110 86 173 210q62 124 62 255q0 180 -113 302q-68 70 -162 102q-74 24 -141 24zM1008 1393q183 0 328 -94q149 -97 222 -262
q49 -113 49 -245q0 -246 -162 -466q-122 -164 -302 -259q-182 -95 -374 -95q-260 0 -434 182q-163 169 -163 418q0 253 161 465q126 168 304 262t371 94z" />
    <glyph glyph-name="multiply" unicode="&#xd7;" horiz-adv-x="1139" 
d="M540 639l-243 289l151 130l243 -289l335 289l109 -130l-334 -289l243 -289l-151 -130l-243 289l-334 -289l-110 130z" />
    <glyph glyph-name="Oslash" unicode="&#xd8;" horiz-adv-x="1577" 
d="M538 275q115 -103 270 -103q189 0 353 128q109 85 173 211q62 126 62 258q0 107 -49 204zM1256 1091q-119 102 -272 102q-193 0 -352 -126q-109 -87 -172 -214q-64 -127 -64 -261q0 -98 49 -200zM272 244q-93 144 -93 329q0 244 161 464q122 165 305 262q178 94 364 94
q246 0 416 -157l155 134l99 -113l-158 -136q92 -143 92 -330q0 -247 -162 -464q-123 -165 -302 -260q-181 -95 -373 -95q-114 0 -220 41t-188 116l-156 -134l-98 113z" />
    <glyph glyph-name="Ugrave" unicode="&#xd9;" horiz-adv-x="1307" 
d="M641 1728l211 105l185 -324l-147 -78zM366 1365h213l-133 -842q-15 -92 -15 -137q0 -87 56 -141q74 -73 192 -73q80 0 157 36q76 36 120 93q26 35 41 83q15 45 30 139l133 842h213l-140 -881q-27 -172 -102 -272q-75 -102 -198 -167q-136 -73 -286 -73q-142 0 -260 73
q-171 105 -171 307q0 32 3 64.5t8 67.5z" />
    <glyph glyph-name="Uacute" unicode="&#xda;" horiz-adv-x="1307" 
d="M1213 1728l-342 -297l-123 78l287 324zM366 1365h213l-133 -842q-15 -92 -15 -137q0 -87 56 -141q74 -73 192 -73q80 0 157 36q76 36 120 93q26 35 41 83q15 45 30 139l133 842h213l-140 -881q-27 -172 -102 -272q-75 -102 -198 -167q-136 -73 -286 -73q-142 0 -260 73
q-171 105 -171 307q0 32 3 64.5t8 67.5z" />
    <glyph glyph-name="Ucircumflex" unicode="&#xdb;" horiz-adv-x="1307" 
d="M909 1612l-212 -180l-141 77l313 292h139l221 -292l-165 -77zM366 1365h213l-133 -842q-15 -92 -15 -137q0 -87 56 -141q74 -73 192 -73q80 0 157 36q76 36 120 93q26 35 41 83q15 45 30 139l133 842h213l-140 -881q-27 -172 -102 -272q-75 -102 -198 -167
q-136 -73 -286 -73q-142 0 -260 73q-171 105 -171 307q0 32 3 64.5t8 67.5z" />
    <glyph glyph-name="Udieresis" unicode="&#xdc;" horiz-adv-x="1307" 
d="M743 1749q48 0 80 -31t32 -79q0 -59 -46 -104q-46 -46 -109 -46q-48 0 -79.5 31.5t-31.5 79.5q0 59 47 104q46 45 107 45zM1119 1749q48 0 80 -31t32 -79q0 -59 -46 -104q-46 -46 -109 -46q-48 0 -79.5 31.5t-31.5 79.5q0 59 47 104q46 45 107 45zM366 1365h213
l-133 -842q-15 -92 -15 -137q0 -87 56 -141q74 -73 192 -73q80 0 157 36q76 36 120 93q26 35 41 83q15 45 30 139l133 842h213l-140 -881q-27 -172 -102 -272q-75 -102 -198 -167q-136 -73 -286 -73q-142 0 -260 73q-171 105 -171 307q0 32 3 64.5t8 67.5z" />
    <glyph glyph-name="Yacute" unicode="&#xdd;" horiz-adv-x="1083" 
d="M1102 1728l-343 -297l-123 78l287 324zM1313 1365l-575 -798l-90 -567h-212l89 567l-322 798h236l227 -586l412 586h235z" />
    <glyph glyph-name="Thorn" unicode="&#xde;" horiz-adv-x="966" 
d="M446 529h108q90 0 147 23t95 74q56 77 56 175q0 94 -53.5 136t-173.5 42h-107zM548 1173h90q187 0 281 -58q144 -89 144 -289q0 -110 -49 -209q-85 -177 -256 -244q-93 -37 -253 -37h-89l-53 -336h-213l216 1365h213z" />
    <glyph glyph-name="germandbls" unicode="&#xdf;" horiz-adv-x="1071" 
d="M115 0l160 1008q34 225 238 334q96 51 202 51q91 0 165 -32t117 -89q58 -77 58 -196q0 -195 -145 -318q58 -41 84 -69q68 -82 68 -215q0 -143 -90 -267q-150 -207 -440 -207h-122l31 193h127q154 0 235 109q52 70 52 150q0 181 -221 181h-31l29 187h31q91 0 138 65
q51 72 51 167q0 73 -38 114q-42 44 -119 44q-87 0 -146 -58q-57 -55 -70 -144l-160 -1008h-204z" />
    <glyph glyph-name="agrave" unicode="&#xe0;" horiz-adv-x="1117" 
d="M438 1319l211 104l185 -324l-148 -77zM647 750q-131 0 -223 -104q-93 -104 -93 -253q0 -109 60 -170q64 -66 167 -66q152 0 246 127q73 98 73 234q0 105 -59 167q-62 65 -171 65zM1001 0h-204l12 79q-155 -107 -295 -107q-116 0 -211 61q-180 115 -180 343q0 175 109 323
q82 112 204 176q116 61 236 61q134 0 256 -107l13 79h204z" />
    <glyph glyph-name="aacute" unicode="&#xe1;" horiz-adv-x="1117" 
d="M1051 1319l-343 -297l-122 77l287 324zM647 750q-131 0 -223 -104q-93 -104 -93 -253q0 -109 60 -170q64 -66 167 -66q152 0 246 127q73 98 73 234q0 105 -59 167q-62 65 -171 65zM1001 0h-204l12 79q-155 -107 -295 -107q-116 0 -211 61q-180 115 -180 343
q0 175 109 323q82 112 204 176q116 61 236 61q134 0 256 -107l13 79h204z" />
    <glyph glyph-name="acircumflex" unicode="&#xe2;" horiz-adv-x="1117" 
d="M720 1203l-212 -180l-141 76l313 293h139l221 -293l-165 -76zM647 750q-131 0 -223 -104q-93 -104 -93 -253q0 -109 60 -170q64 -66 167 -66q152 0 246 127q73 98 73 234q0 105 -59 167q-62 65 -171 65zM1001 0h-204l12 79q-155 -107 -295 -107q-116 0 -211 61
q-180 115 -180 343q0 175 109 323q82 112 204 176q116 61 236 61q134 0 256 -107l13 79h204z" />
    <glyph glyph-name="atilde" unicode="&#xe3;" horiz-adv-x="1117" 
d="M1043 1305q-53 -221 -224 -221q-73 0 -143 42q-47 27 -71 27q-22 0 -47 -78l-160 39q22 90 68 145q61 76 158 76q65 0 147 -46q41 -23 68 -23q21 0 41 78zM647 750q-131 0 -223 -104q-93 -104 -93 -253q0 -109 60 -170q64 -66 167 -66q152 0 246 127q73 98 73 234
q0 105 -59 167q-62 65 -171 65zM1001 0h-204l12 79q-155 -107 -295 -107q-116 0 -211 61q-180 115 -180 343q0 175 109 323q82 112 204 176q116 61 236 61q134 0 256 -107l13 79h204z" />
    <glyph glyph-name="adieresis" unicode="&#xe4;" horiz-adv-x="1117" 
d="M571 1344q48 0 80 -31t32 -79q0 -59 -46 -104q-46 -46 -108 -46q-49 0 -80.5 31t-31.5 79q0 60 47 105q46 45 107 45zM948 1344q24 0 44.5 -8.5t35.5 -23t23.5 -34.5t8.5 -44q0 -59 -47 -104q-46 -46 -108 -46q-48 0 -79.5 31.5t-31.5 79.5q0 59 47 104q46 45 107 45z
M647 750q-131 0 -223 -104q-93 -104 -93 -253q0 -109 60 -170q64 -66 167 -66q152 0 246 127q73 98 73 234q0 105 -59 167q-62 65 -171 65zM1001 0h-204l12 79q-155 -107 -295 -107q-116 0 -211 61q-180 115 -180 343q0 175 109 323q82 112 204 176q116 61 236 61
q134 0 256 -107l13 79h204z" />
    <glyph glyph-name="aring" unicode="&#xe5;" horiz-adv-x="1117" 
d="M762 1316q-49 0 -86 -37q-38 -38 -38 -85q0 -39 25.5 -64.5t63.5 -25.5q50 0 87 37t37 86q0 38 -25.5 63.5t-63.5 25.5zM777 1416q79 0 129 -49q51 -50 51 -125q0 -72 -46 -133q-77 -105 -201 -105q-77 0 -127 50t-50 127q0 72 46 131q80 104 198 104zM647 750
q-131 0 -223 -104q-93 -104 -93 -253q0 -109 60 -170q64 -66 167 -66q152 0 246 127q73 98 73 234q0 105 -59 167q-62 65 -171 65zM1001 0h-204l12 79q-155 -107 -295 -107q-116 0 -211 61q-180 115 -180 343q0 175 109 323q82 112 204 176q116 61 236 61q134 0 256 -107
l13 79h204z" />
    <glyph glyph-name="ae" unicode="&#xe6;" horiz-adv-x="1674" 
d="M1497 534q-7 85 -42 139q-52 82 -162 82q-94 0 -168 -58t-112 -163h484zM782 436h-228q-248 0 -248 -169q0 -54 53.5 -84t150.5 -30q227 0 251 150zM1644 230q-194 -258 -467 -258q-198 0 -310 144q-125 -144 -383 -144q-179 0 -282 72q-103 70 -103 195q0 163 130 263
q122 92 323 92h249q-11 162 -204 162q-150 0 -302 -104l-83 133q116 82 215 117q96 34 217 34t205.5 -39.5t117.5 -109.5q161 149 352 149q195 0 300 -145q75 -104 75 -247q0 -33 -4.5 -75t-14.5 -93h-686q3 -70 32 -124q56 -95 188 -95q36 0 71 8.5t67.5 23.5t60.5 36.5
t49 48.5l13.5 18t9.5 11z" />
    <glyph glyph-name="ccedilla" unicode="&#xe7;" horiz-adv-x="947" 
d="M451 -62l174 -81l-290 -306l-134 73zM873 626q-55 73 -101 99t-115 26q-159 0 -254 -128q-72 -98 -72 -229q0 -108 59 -170q64 -67 173 -67q71 0 130 30q58 28 132 102l116 -133q-40 -37 -75 -64t-67 -46q-125 -74 -266 -74q-132 0 -235 64q-96 59 -143 171
q-32 79 -32 170q0 173 110 324q79 109 198 171q121 64 257 64q54 0 100 -10t87.5 -31.5t79.5 -55t75 -80.5z" />
    <glyph glyph-name="egrave" unicode="&#xe8;" horiz-adv-x="1012" 
d="M426 1319l211 104l185 -324l-148 -77zM836 534q-8 86 -42 140q-52 82 -162 82q-94 0 -167.5 -58t-112.5 -164h484zM328 376q3 -70 32 -124q56 -95 188 -95q36 0 71 8.5t67.5 23.5t60.5 36.5t49 48.5l13.5 18t9.5 11l164 -73q-194 -258 -465 -258q-211 0 -320 151
q-75 103 -75 252q0 179 113 334q40 55 88.5 97t105.5 73q110 58 230 58q113 0 205 -57q167 -104 167 -347q0 -57 -18 -157h-686z" />
    <glyph glyph-name="eacute" unicode="&#xe9;" horiz-adv-x="1012" 
d="M1005 1319l-342 -297l-123 77l287 324zM836 534q-8 86 -42 140q-52 82 -162 82q-94 0 -167.5 -58t-112.5 -164h484zM328 376q3 -70 32 -124q56 -95 188 -95q36 0 71 8.5t67.5 23.5t60.5 36.5t49 48.5l13.5 18t9.5 11l164 -73q-194 -258 -465 -258q-211 0 -320 151
q-75 103 -75 252q0 179 113 334q40 55 88.5 97t105.5 73q110 58 230 58q113 0 205 -57q167 -104 167 -347q0 -57 -18 -157h-686z" />
    <glyph glyph-name="ecircumflex" unicode="&#xea;" horiz-adv-x="1012" 
d="M696 1203l-212 -180l-141 76l314 293h139l221 -293l-165 -76zM836 534q-8 86 -42 140q-52 82 -162 82q-94 0 -167.5 -58t-112.5 -164h484zM328 376q3 -70 32 -124q56 -95 188 -95q36 0 71 8.5t67.5 23.5t60.5 36.5t49 48.5l13.5 18t9.5 11l164 -73q-194 -258 -465 -258
q-211 0 -320 151q-75 103 -75 252q0 179 113 334q40 55 88.5 97t105.5 73q110 58 230 58q113 0 205 -57q167 -104 167 -347q0 -57 -18 -157h-686z" />
    <glyph glyph-name="edieresis" unicode="&#xeb;" horiz-adv-x="1012" 
d="M532 1344q24 0 44.5 -8.5t35.5 -23t23.5 -34.5t8.5 -44q0 -57 -47 -104q-46 -46 -107 -46q-49 0 -80.5 31t-31.5 79q0 60 47 105q46 45 107 45zM908 1344q24 0 44.5 -8.5t35.5 -23t23.5 -34.5t8.5 -44q0 -58 -46 -104t-107 -46q-51 0 -82 31t-31 79q0 60 47 105
q46 45 107 45zM836 534q-8 86 -42 140q-52 82 -162 82q-94 0 -167.5 -58t-112.5 -164h484zM328 376q3 -70 32 -124q56 -95 188 -95q36 0 71 8.5t67.5 23.5t60.5 36.5t49 48.5l13.5 18t9.5 11l164 -73q-194 -258 -465 -258q-211 0 -320 151q-75 103 -75 252q0 179 113 334
q40 55 88.5 97t105.5 73q110 58 230 58q113 0 205 -57q167 -104 167 -347q0 -57 -18 -157h-686z" />
    <glyph glyph-name="igrave" unicode="&#xec;" horiz-adv-x="436" 
d="M115 1319l211 104l185 -324l-148 -77zM464 908l-144 -908h-204l144 908h204z" />
    <glyph glyph-name="iacute" unicode="&#xed;" horiz-adv-x="436" 
d="M739 1319l-342 -297l-123 77l287 324zM464 908l-144 -908h-204l144 908h204z" />
    <glyph glyph-name="icircumflex" unicode="&#xee;" horiz-adv-x="436" 
d="M409 1203l-212 -180l-141 76l313 293h140l220 -293l-165 -76zM464 908l-143 -908h-205l144 908h204z" />
    <glyph glyph-name="idieresis" unicode="&#xef;" horiz-adv-x="436" 
d="M283 1344q48 0 80 -31t32 -79q0 -44 -29 -85q-50 -65 -125 -65q-49 0 -81 31t-32 79q0 60 47 105q46 45 108 45zM579 1344q24 0 44.5 -8.5t35.5 -23t23.5 -34.5t8.5 -44q0 -59 -47 -104q-46 -46 -108 -46q-48 0 -79.5 31.5t-31.5 79.5q0 59 47 104q46 45 107 45zM464 908
l-144 -908h-204l144 908h204z" />
    <glyph glyph-name="eth" unicode="&#xf0;" horiz-adv-x="1070" 
d="M648 751q-132 0 -224 -104q-93 -105 -93 -253q0 -110 60 -171q64 -66 168 -66q156 0 251 129q73 97 73 232q0 104 -59 166q-64 67 -176 67zM894 881q-4 6 -7 18q-39 115 -75 182q-38 67 -92 122l-234 -111l-111 118l205 97q-107 57 -222 93l107 129q174 -48 306 -132
l243 112l101 -116l-221 -106q210 -257 210 -616q0 -292 -126 -466q-76 -106 -196 -169q-121 -64 -253 -64q-212 0 -328 155q-78 105 -78 250q0 172 110 323q79 109 199 173q120 63 252 63q113 0 210 -55z" />
    <glyph glyph-name="ntilde" unicode="&#xf1;" horiz-adv-x="1043" 
d="M1039 1305q-53 -221 -224 -221q-73 0 -143 42q-47 27 -71 27q-7 0 -12.5 -3t-10.5 -11.5t-10.5 -24l-13.5 -39.5l-160 39q22 90 68 145q61 76 158 76q64 0 146 -46q43 -23 68 -23q21 0 41 78zM259 908h204l-10 -66q112 94 246 94q79 0 149 -32t112 -87q57 -75 57 -189
q0 -63 -12 -139l-78 -489h-204l75 473q12 76 12 115q0 160 -159 160q-59 0 -111.5 -24.5t-81.5 -64.5q-45 -63 -67 -205l-72 -454h-204z" />
    <glyph glyph-name="ograve" unicode="&#xf2;" horiz-adv-x="1070" 
d="M444 1319l211 104l184 -324l-147 -77zM648 751q-132 0 -225 -104q-93 -105 -93 -253q0 -110 60 -171q64 -66 169 -66q156 0 251 129q73 98 73 232q0 104 -59 166q-64 67 -176 67zM689 936q208 0 325 -157q77 -104 77 -247q0 -173 -111 -324q-83 -113 -203 -175
q-118 -61 -248 -61q-212 0 -328 155q-78 105 -78 251q0 176 110 322q83 111 199 173q120 63 257 63z" />
    <glyph glyph-name="oacute" unicode="&#xf3;" horiz-adv-x="1070" 
d="M1044 1319l-343 -297l-123 77l287 324zM648 751q-132 0 -225 -104q-93 -105 -93 -253q0 -110 60 -171q64 -66 169 -66q156 0 251 129q73 98 73 232q0 104 -59 166q-64 67 -176 67zM689 936q208 0 325 -157q77 -104 77 -247q0 -173 -111 -324q-83 -113 -203 -175
q-118 -61 -248 -61q-212 0 -328 155q-78 105 -78 251q0 176 110 322q83 111 199 173q120 63 257 63z" />
    <glyph glyph-name="ocircumflex" unicode="&#xf4;" horiz-adv-x="1070" 
d="M725 1203l-212 -180l-141 76l314 293h139l220 -293l-165 -76zM650 751q-133 0 -226 -104q-94 -103 -94 -253q0 -109 60 -170q64 -67 169 -67q155 0 250 129q73 97 73 231q0 105 -59 167q-64 67 -173 67zM689 936q207 0 324 -157q77 -104 77 -247q0 -173 -110 -324
q-82 -112 -204 -175q-118 -61 -247 -61q-212 0 -328 155q-78 105 -78 251q0 178 109 323q85 111 199 172q121 63 258 63z" />
    <glyph glyph-name="otilde" unicode="&#xf5;" horiz-adv-x="1070" 
d="M1048 1305q-51 -221 -223 -221q-74 0 -144 42q-47 27 -70 27t-48 -78l-159 39q22 90 68 145q61 76 158 76q64 0 146 -46q43 -23 68 -23q21 0 41 78zM648 751q-132 0 -225 -104q-93 -105 -93 -253q0 -110 60 -171q64 -66 169 -66q156 0 251 129q73 98 73 232
q0 104 -59 166q-64 67 -176 67zM689 936q208 0 325 -157q77 -104 77 -247q0 -173 -111 -324q-83 -113 -203 -175q-118 -61 -248 -61q-212 0 -328 155q-78 105 -78 251q0 176 110 322q83 111 199 173q120 63 257 63z" />
    <glyph glyph-name="odieresis" unicode="&#xf6;" horiz-adv-x="1070" 
d="M558 1344q24 0 44.5 -8.5t35.5 -23t23.5 -34.5t8.5 -44q0 -59 -47 -104q-46 -46 -108 -46q-48 0 -79.5 31.5t-31.5 79.5q0 59 47 104q46 45 107 45zM934 1344q24 0 44.5 -8.5t35.5 -23t23.5 -34.5t8.5 -44q0 -59 -46 -104q-46 -46 -107 -46q-49 0 -81 31t-32 79
q0 60 47 105q46 45 107 45zM648 751q-132 0 -225 -104q-93 -105 -93 -253q0 -110 60 -171q64 -66 169 -66q156 0 251 129q73 98 73 232q0 104 -59 166q-64 67 -176 67zM689 936q208 0 325 -157q77 -104 77 -247q0 -173 -111 -324q-83 -113 -203 -175q-118 -61 -248 -61
q-212 0 -328 155q-78 105 -78 251q0 176 110 322q83 111 199 173q120 63 257 63z" />
    <glyph glyph-name="divide" unicode="&#xf7;" horiz-adv-x="1139" 
d="M637 418q24 0 45.5 -9t37 -24.5t24.5 -36.5t9 -45q0 -64 -49 -110q-50 -48 -113 -48q-24 0 -45 8.5t-36.5 24t-24.5 37t-9 46.5q0 62 49 110q50 47 112 47zM750 1134q25 0 46.5 -9t37 -24.5t24 -36.5t8.5 -45q0 -64 -49 -110q-50 -48 -113 -48q-24 0 -45 8.5t-36.5 24
t-24.5 37t-9 46.5q0 62 49 110q50 47 112 47zM1151 730l-28 -183h-933l29 183h932z" />
    <glyph glyph-name="oslash" unicode="&#xf8;" horiz-adv-x="1097" 
d="M816 704q-58 47 -147 47q-158 0 -252 -129q-73 -97 -73 -230q0 -38 9 -75zM425 204q61 -47 147 -47q158 0 252 130q73 97 73 231q0 41 -9 73zM86 95l98 82q-48 91 -48 197q0 174 110 326q82 112 204 175q118 61 248 61q166 0 278 -100l92 77l87 -100l-97 -81
q47 -92 47 -198q0 -175 -111 -326q-83 -113 -203 -175q-118 -61 -250 -61q-157 0 -276 100l-91 -77z" />
    <glyph glyph-name="ugrave" unicode="&#xf9;" horiz-adv-x="1043" 
d="M434 1319l211 104l185 -324l-148 -77zM928 0h-205l11 66q-110 -94 -246 -94q-81 0 -150 32t-111 87q-57 75 -57 188q0 66 12 140l77 489h204l-75 -473q-5 -37 -8 -65.5t-3 -49.5q0 -160 159 -160q60 0 111.5 23.5t81.5 65.5q44 62 66 205l72 454h204z" />
    <glyph glyph-name="uacute" unicode="&#xfa;" horiz-adv-x="1043" 
d="M1020 1319l-342 -297l-123 77l287 324zM928 0h-205l11 66q-110 -94 -246 -94q-81 0 -150 32t-111 87q-57 75 -57 188q0 66 12 140l77 489h204l-75 -473q-5 -37 -8 -65.5t-3 -49.5q0 -160 159 -160q60 0 111.5 23.5t81.5 65.5q44 62 66 205l72 454h204z" />
    <glyph glyph-name="ucircumflex" unicode="&#xfb;" horiz-adv-x="1043" 
d="M712 1203l-212 -180l-141 76l313 293h140l220 -293l-165 -76zM928 0h-205l11 66q-110 -94 -246 -94q-81 0 -150 32t-111 87q-57 75 -57 188q0 66 12 140l77 489h204l-75 -473q-5 -37 -8 -65.5t-3 -49.5q0 -160 159 -160q60 0 111.5 23.5t81.5 65.5q44 62 66 205l72 454
h204z" />
    <glyph glyph-name="udieresis" unicode="&#xfc;" horiz-adv-x="1043" 
d="M547 1344q48 0 80 -31t32 -79q0 -59 -46 -104q-46 -46 -107 -46q-49 0 -81 31t-32 79q0 60 47 105q46 45 107 45zM923 1344q48 0 80 -31t32 -79q0 -59 -47 -104q-46 -46 -108 -46q-48 0 -79.5 31.5t-31.5 79.5q0 59 47 104q46 45 107 45zM928 0h-205l11 66
q-110 -94 -246 -94q-81 0 -150 32t-111 87q-57 75 -57 188q0 66 12 140l77 489h204l-75 -473q-5 -37 -8 -65.5t-3 -49.5q0 -160 159 -160q60 0 111.5 23.5t81.5 65.5q44 62 66 205l72 454h204z" />
    <glyph glyph-name="yacute" unicode="&#xfd;" horiz-adv-x="948" 
d="M56 -478l311 521l-235 865h221l162 -617l368 617h221l-834 -1386h-214zM978 1319l-343 -297l-123 77l287 324z" />
    <glyph glyph-name="thorn" unicode="&#xfe;" horiz-adv-x="1119" 
d="M705 751q-149 0 -243 -126q-74 -101 -74 -235q0 -106 59 -168q61 -64 166 -64q133 0 226 105q93 103 93 252q0 108 -60 170q-65 66 -167 66zM334 1365h204l-85 -536q155 107 296 107q116 0 211 -61q180 -116 180 -344q0 -175 -109 -323q-41 -55 -91.5 -99t-113.5 -76
q-116 -61 -235 -61q-133 0 -257 107l-88 -557h-204z" />
    <glyph glyph-name="ydieresis" unicode="&#xff;" horiz-adv-x="948" 
d="M56 -478l311 521l-235 865h221l162 -617l368 617h221l-834 -1386h-214zM499 1344q48 0 80 -31t32 -79q0 -59 -46 -104q-46 -46 -107 -46q-51 0 -82 31t-31 79q0 60 47 105q46 45 107 45zM875 1344q24 0 44.5 -8.5t35.5 -23t23.5 -34.5t8.5 -44q0 -59 -47 -104
q-46 -46 -108 -46q-48 0 -79.5 31.5t-31.5 79.5q0 59 47 104q46 45 107 45z" />
    <glyph glyph-name="Amacron" unicode="&#x100;" horiz-adv-x="1292" 
d="M611 1711h612l-29 -183h-613zM512 550h440l-126 595zM408 352l-185 -352h-223l731 1365h262l299 -1365h-224l-75 352h-585z" />
    <glyph glyph-name="amacron" unicode="&#x101;" horiz-adv-x="1117" 
d="M453 1301h613l-29 -183h-613zM647 750q-131 0 -223 -104q-93 -104 -93 -253q0 -109 60 -170q64 -66 167 -66q152 0 246 127q73 98 73 234q0 105 -59 167q-62 65 -171 65zM1001 0h-204l12 79q-155 -107 -295 -107q-116 0 -211 61q-180 115 -180 343q0 175 109 323
q82 112 204 176q116 61 236 61q134 0 256 -107l13 79h204z" />
    <glyph glyph-name="Abreve" unicode="&#x102;" horiz-adv-x="1292" 
d="M806 1773q-1 -17 -3 -29q-3 -23 -3 -36q0 -43 26.5 -69.5t71.5 -26.5q70 0 117 71q6 10 14 32t18 57l175 -14q-28 -105 -62 -155q-111 -165 -289 -165q-134 0 -204 93q-49 64 -49 142q0 23 9 85zM512 550h440l-126 595zM408 352l-185 -352h-223l731 1365h262l299 -1365
h-224l-75 352h-585z" />
    <glyph glyph-name="abreve" unicode="&#x103;" horiz-adv-x="1117" 
d="M628 1363q-1 -19 -3 -28q-1 -11 -1.5 -20.5t-0.5 -16.5q0 -43 26.5 -69.5t71.5 -26.5q72 0 116 71q12 19 33 90l175 -15q-28 -103 -62 -154q-111 -166 -289 -166q-134 0 -204 93q-49 64 -49 142q0 11 2 32.5t6 53.5zM647 750q-131 0 -223 -104q-93 -104 -93 -253
q0 -109 60 -170q64 -66 167 -66q152 0 246 127q73 98 73 234q0 105 -59 167q-62 65 -171 65zM1001 0h-204l12 79q-155 -107 -295 -107q-116 0 -211 61q-180 115 -180 343q0 175 109 323q82 112 204 176q116 61 236 61q134 0 256 -107l13 79h204z" />
    <glyph glyph-name="Aogonek" unicode="&#x104;" horiz-adv-x="1292" 
d="M512 550h440l-126 595zM731 1365h262l299 -1365q-2 -2 -5 -5.5t-7 -7.5q-83 -86 -83 -126q0 -24 32 -24q35 0 98 22l36 -152q-108 -39 -178 -39q-78 0 -128 44q-50 45 -50 114q0 79 80 174h-19l-75 352h-585l-185 -352h-223z" />
    <glyph glyph-name="aogonek" unicode="&#x105;" horiz-adv-x="1117" 
d="M647 750q-131 0 -223 -104q-93 -104 -93 -253q0 -109 60 -170q64 -66 167 -66q152 0 246 127q73 98 73 234q0 105 -59 167q-62 65 -171 65zM809 79q-155 -107 -295 -107q-116 0 -211 61q-180 115 -180 343q0 175 109 323q82 112 204 176q116 61 236 61q134 0 256 -107
l13 79h204l-144 -908q-2 -3 -10 -11q-85 -88 -85 -128q0 -24 32 -24q34 0 99 22l36 -152q-108 -39 -179 -39q-78 0 -128 44q-50 45 -50 114q0 79 81 174z" />
    <glyph glyph-name="Cacute" unicode="&#x106;" horiz-adv-x="1372" 
d="M1372 1728l-343 -297l-123 78l287 324zM1322 1007q-58 73 -109 112q-98 74 -237 74q-197 0 -354 -126q-108 -86 -170 -212q-63 -126 -63 -258q0 -179 112 -297q122 -128 312 -128q164 0 310 105l42 33t61 52l126 -145q-105 -90 -192 -141q-179 -104 -375 -104
q-324 0 -498 236q-116 158 -116 365q0 245 160 463q124 169 303 263q178 94 378 94q73 0 138.5 -14t124.5 -44t113 -75.5t105 -108.5z" />
    <glyph glyph-name="cacute" unicode="&#x107;" horiz-adv-x="947" 
d="M1019 1319l-343 -297l-123 77l287 324zM873 626q-55 73 -101 99t-115 26q-159 0 -254 -128q-72 -98 -72 -229q0 -108 59 -170q64 -67 173 -67q71 0 130 30q58 28 132 102l116 -133q-40 -37 -75 -64t-67 -46q-125 -74 -266 -74q-132 0 -235 64q-96 59 -143 171
q-32 79 -32 170q0 173 110 324q79 109 198 171q121 64 257 64q54 0 100 -10t87.5 -31.5t79.5 -55t75 -80.5z" />
    <glyph glyph-name="Ccircumflex" unicode="&#x108;" horiz-adv-x="1372" 
d="M1019 1612l-212 -180l-141 77l314 292h139l220 -292l-165 -77zM1322 1007q-58 73 -109 112q-98 74 -237 74q-197 0 -354 -126q-108 -86 -170 -212q-63 -126 -63 -258q0 -179 112 -297q122 -128 312 -128q164 0 310 105l42 33t61 52l126 -145q-105 -90 -192 -141
q-179 -104 -375 -104q-324 0 -498 236q-116 158 -116 365q0 245 160 463q124 169 303 263q178 94 378 94q73 0 138.5 -14t124.5 -44t113 -75.5t105 -108.5z" />
    <glyph glyph-name="ccircumflex" unicode="&#x109;" horiz-adv-x="947" 
d="M704 1203l-212 -180l-140 76l313 293h139l221 -293l-165 -76zM873 626q-55 73 -101 99t-115 26q-159 0 -254 -128q-72 -98 -72 -229q0 -108 59 -170q64 -67 173 -67q71 0 130 30q58 28 132 102l116 -133q-40 -37 -75 -64t-67 -46q-125 -74 -266 -74q-132 0 -235 64
q-96 59 -143 171q-32 79 -32 170q0 173 110 324q79 109 198 171q121 64 257 64q54 0 100 -10t87.5 -31.5t79.5 -55t75 -80.5z" />
    <glyph glyph-name="Cdotaccent" unicode="&#x10a;" horiz-adv-x="1372" 
d="M1059 1749q48 0 80 -31t32 -79q0 -59 -46 -104q-46 -46 -107 -46q-51 0 -82 31t-31 79q0 60 47 105q46 45 107 45zM1322 1007q-58 73 -109 112q-98 74 -237 74q-197 0 -354 -126q-108 -86 -170 -212q-63 -126 -63 -258q0 -179 112 -297q122 -128 312 -128q164 0 310 105
l42 33t61 52l126 -145q-105 -90 -192 -141q-179 -104 -375 -104q-324 0 -498 236q-116 158 -116 365q0 245 160 463q124 169 303 263q178 94 378 94q73 0 138.5 -14t124.5 -44t113 -75.5t105 -108.5z" />
    <glyph glyph-name="cdotaccent" unicode="&#x10b;" horiz-adv-x="947" 
d="M734 1344q48 0 80 -31t32 -79q0 -59 -46 -104q-46 -46 -108 -46q-48 0 -80 31t-32 79q0 60 47 105q46 45 107 45zM873 626q-55 73 -101 99t-115 26q-159 0 -254 -128q-72 -98 -72 -229q0 -108 59 -170q64 -67 173 -67q71 0 130 30q58 28 132 102l116 -133
q-40 -37 -75 -64t-67 -46q-125 -74 -266 -74q-132 0 -235 64q-96 59 -143 171q-32 79 -32 170q0 173 110 324q79 109 198 171q121 64 257 64q54 0 100 -10t87.5 -31.5t79.5 -55t75 -80.5z" />
    <glyph glyph-name="Ccaron" unicode="&#x10c;" horiz-adv-x="1372" 
d="M1023 1639l212 180l141 -77l-313 -292h-139l-221 292l165 77zM1322 1007q-58 73 -109 112q-98 74 -237 74q-197 0 -354 -126q-108 -86 -170 -212q-63 -126 -63 -258q0 -179 112 -297q122 -128 312 -128q164 0 310 105l42 33t61 52l126 -145q-105 -90 -192 -141
q-179 -104 -375 -104q-324 0 -498 236q-116 158 -116 365q0 245 160 463q124 169 303 263q178 94 378 94q73 0 138.5 -14t124.5 -44t113 -75.5t105 -108.5z" />
    <glyph glyph-name="ccaron" unicode="&#x10d;" horiz-adv-x="947" 
d="M709 1229l212 180l141 -77l-313 -292h-140l-220 292l164 77zM873 626q-55 73 -101 99t-115 26q-159 0 -254 -128q-72 -98 -72 -229q0 -108 59 -170q64 -67 173 -67q71 0 130 30q58 28 132 102l116 -133q-40 -37 -75 -64t-67 -46q-125 -74 -266 -74q-132 0 -235 64
q-96 59 -143 171q-32 79 -32 170q0 173 110 324q79 109 198 171q121 64 257 64q54 0 100 -10t87.5 -31.5t79.5 -55t75 -80.5z" />
    <glyph glyph-name="Dcaron" unicode="&#x10e;" horiz-adv-x="1267" 
d="M855 1639l212 180l141 -77l-313 -292h-139l-221 292l165 77zM548 1167l-154 -969h96q264 0 430 154q118 109 159 276q18 72 18 147q0 218 -163 321q-113 71 -290 71h-96zM366 1365h302q251 0 414 -103q231 -146 231 -454q0 -185 -76 -349q-128 -278 -418 -393
q-167 -66 -367 -66h-302z" />
    <glyph glyph-name="dcaron" unicode="&#x10f;" horiz-adv-x="1360" 
d="M1245 1049l169 373l186 -59l-213 -361zM647 750q-131 0 -223 -104q-93 -105 -93 -252q0 -110 60 -171q64 -66 167 -66q102 0 184 64q90 72 121 197q12 49 12 100q0 106 -59 168q-61 64 -169 64zM1001 0h-204l12 79q-155 -107 -295 -107q-116 0 -211 61q-180 115 -180 343
q0 175 109 323q82 112 204 176q116 61 236 61q134 0 256 -107l85 536h204z" />
    <glyph glyph-name="Dcroat" unicode="&#x110;" horiz-adv-x="1293" 
d="M520 831h304l-29 -189h-305l-70 -444h96q263 0 430 155q117 108 158 276q18 72 18 147q0 217 -163 320q-113 71 -289 71h-97zM146 642l30 189h131l85 534h302q251 0 414 -103q231 -146 231 -454q0 -184 -76 -349q-128 -278 -419 -393q-165 -66 -366 -66h-302l101 642
h-131z" />
    <glyph glyph-name="dcroat" unicode="&#x111;" horiz-adv-x="1118" 
d="M647 751q-131 0 -223 -104q-93 -105 -93 -253q0 -110 60 -171q64 -66 167 -66q101 0 184 65q90 72 121 196q12 49 12 101q0 104 -59 168q-61 64 -169 64zM991 1224l22 141h204l-22 -141h118l-29 -184h-118l-165 -1040h-204l12 79q-155 -107 -295 -107q-116 0 -211 61
q-180 115 -180 343q0 175 109 323q82 112 204 176q116 61 236 61q132 0 256 -107l34 211h-235l29 184h235z" />
    <glyph glyph-name="Emacron" unicode="&#x112;" horiz-adv-x="984" 
d="M497 1711h612l-29 -183h-613zM1077 1169h-529l-60 -378h470l-31 -198h-470l-63 -395h549l-31 -198h-762l216 1365h743z" />
    <glyph glyph-name="emacron" unicode="&#x113;" horiz-adv-x="1012" 
d="M406 1301h612l-29 -183h-612zM836 534q-8 86 -42 140q-52 82 -162 82q-94 0 -167.5 -58t-112.5 -164h484zM328 376q3 -70 32 -124q56 -95 188 -95q36 0 71 8.5t67.5 23.5t60.5 36.5t49 48.5l13.5 18t9.5 11l164 -73q-194 -258 -465 -258q-211 0 -320 151q-75 103 -75 252
q0 179 113 334q40 55 88.5 97t105.5 73q110 58 230 58q113 0 205 -57q167 -104 167 -347q0 -57 -18 -157h-686z" />
    <glyph glyph-name="Ebreve" unicode="&#x114;" horiz-adv-x="984" 
d="M691 1773q-6 -51 -6 -65q0 -43 26.5 -69.5t71.5 -26.5q72 0 117 71q13 20 33 89l174 -14q-14 -53 -29.5 -91.5t-32.5 -63.5q-111 -165 -289 -165q-134 0 -204 93q-49 64 -49 142q0 23 9 85zM1077 1169h-529l-60 -378h470l-31 -198h-470l-63 -395h549l-31 -198h-762
l216 1365h743z" />
    <glyph glyph-name="ebreve" unicode="&#x115;" horiz-adv-x="1012" 
d="M604 1363q-1 -19 -3 -28q-1 -11 -1.5 -20t-0.5 -17q0 -42 26.5 -68.5t71.5 -26.5q72 0 116 71q13 20 33 89l174 -15q-28 -104 -62 -154q-111 -166 -289 -166q-134 0 -203 93q-49 64 -49 143q0 13 2 34.5t6 50.5zM836 534q-8 86 -42 140q-52 82 -162 82q-94 0 -167.5 -58
t-112.5 -164h484zM328 376q3 -70 32 -124q56 -95 188 -95q36 0 71 8.5t67.5 23.5t60.5 36.5t49 48.5l13.5 18t9.5 11l164 -73q-194 -258 -465 -258q-211 0 -320 151q-75 103 -75 252q0 179 113 334q40 55 88.5 97t105.5 73q110 58 230 58q113 0 205 -57q167 -104 167 -347
q0 -57 -18 -157h-686z" />
    <glyph glyph-name="Edotaccent" unicode="&#x116;" horiz-adv-x="984" 
d="M809 1749q48 0 80 -31t32 -79q0 -59 -47 -104q-46 -46 -109 -46q-48 0 -79.5 31.5t-31.5 79.5q0 59 47 104q46 45 108 45zM1077 1169h-529l-60 -378h470l-31 -198h-470l-63 -395h549l-31 -198h-762l216 1365h743z" />
    <glyph glyph-name="edotaccent" unicode="&#x117;" horiz-adv-x="1012" 
d="M719 1344q24 0 44.5 -8.5t35.5 -23t23.5 -34.5t8.5 -44q0 -57 -47 -104q-46 -46 -107 -46q-49 0 -80.5 31t-31.5 79q0 60 47 105q46 45 107 45zM836 534q-8 86 -42 140q-52 82 -162 82q-94 0 -167.5 -58t-112.5 -164h484zM328 376q3 -70 32 -124q56 -95 188 -95
q36 0 71 8.5t67.5 23.5t60.5 36.5t49 48.5l13.5 18t9.5 11l164 -73q-194 -258 -465 -258q-211 0 -320 151q-75 103 -75 252q0 179 113 334q40 55 88.5 97t105.5 73q110 58 230 58q113 0 205 -57q167 -104 167 -347q0 -57 -18 -157h-686z" />
    <glyph glyph-name="Eogonek" unicode="&#x118;" horiz-adv-x="984" 
d="M943 198l-31 -198q-2 -2 -4 -4.5t-6 -6.5q-85 -89 -85 -128q0 -24 32 -24q34 0 99 22l36 -152q-110 -39 -179 -39q-78 0 -128 44q-50 45 -50 114q0 79 80 174h-557l216 1365h743l-32 -196h-529l-60 -378h470l-31 -198h-470l-63 -395h549z" />
    <glyph glyph-name="eogonek" unicode="&#x119;" horiz-adv-x="1012" 
d="M836 534q-8 86 -42 140q-52 82 -162 82q-94 0 -167.5 -58t-112.5 -164h484zM983 230q-167 -220 -386 -251q-75 -81 -75 -118q0 -24 32 -24q36 0 99 22l36 -152q-108 -39 -179 -39q-78 0 -128 44q-50 45 -50 114q0 78 70 161q-94 24 -161 88q-118 112 -118 299
q0 180 113 335q40 55 88.5 97t105.5 73q110 58 230 58q113 0 205 -57q167 -104 167 -347q0 -57 -18 -157h-686q3 -70 32 -124q56 -95 188 -95q36 0 71 8.5t67.5 23.5t60.5 36.5t49 48.5l13.5 18l9.5 12z" />
    <glyph glyph-name="Ecaron" unicode="&#x11a;" horiz-adv-x="984" 
d="M791 1639l212 180l141 -77l-313 -292h-139l-221 292l165 77zM1077 1169h-529l-60 -378h470l-31 -198h-470l-63 -395h549l-31 -198h-762l216 1365h743z" />
    <glyph glyph-name="ecaron" unicode="&#x11b;" horiz-adv-x="1012" 
d="M700 1229l213 180l141 -77l-313 -292h-140l-221 292l165 77zM836 534q-8 86 -42 140q-52 82 -162 82q-94 0 -167.5 -58t-112.5 -164h484zM328 376q3 -70 32 -124q56 -95 188 -95q36 0 71 8.5t67.5 23.5t60.5 36.5t49 48.5l13.5 18t9.5 11l164 -73q-194 -258 -465 -258
q-211 0 -320 151q-75 103 -75 252q0 179 113 334q40 55 88.5 97t105.5 73q110 58 230 58q113 0 205 -57q167 -104 167 -347q0 -57 -18 -157h-686z" />
    <glyph glyph-name="Gcircumflex" unicode="&#x11c;" horiz-adv-x="1488" 
d="M1011 1612l-212 -180l-141 77l313 292h140l220 -292l-165 -77zM920 735h609l-16 -103q-33 -206 -149 -371q-94 -132 -242 -208q-155 -81 -335 -81q-324 0 -500 236q-116 158 -116 364q0 244 160 464q124 169 303 263q178 94 378 94q239 0 399 -151q13 -12 33 -34.5
l49 -54.5l-171 -144q-30 37 -57.5 65t-53.5 47q-98 72 -234 72q-197 0 -354 -126q-109 -85 -171 -212q-63 -126 -63 -258q0 -179 112 -297q122 -128 315 -128q208 0 345 146q74 80 116 219h-388z" />
    <glyph glyph-name="gcircumflex" unicode="&#x11d;" horiz-adv-x="1117" 
d="M720 1203l-212 -180l-141 76l313 293h140l220 -293l-165 -76zM648 751q-132 0 -224 -104q-93 -105 -93 -253q0 -110 60 -171q64 -66 167 -66q102 0 185 65q90 72 121 196q12 49 12 101q0 104 -59 168q-61 64 -169 64zM1145 908l-146 -925q-37 -234 -207 -368
q-154 -121 -355 -121q-102 0 -188.5 34t-143.5 97l-29 36t-41 56l155 133q7 -9 11.5 -15.5t7.5 -11.5q50 -71 83 -94q68 -50 172 -50q139 0 227 85q82 77 104 219l15 96q-140 -107 -288 -107q-206 0 -321 156q-78 105 -78 249q0 174 109 323q82 111 205 175q116 61 244 61
q141 0 248 -107l12 79h204z" />
    <glyph glyph-name="Gbreve" unicode="&#x11e;" horiz-adv-x="1488" 
d="M954 1773q-1 -17 -3 -29q-3 -23 -3 -37q0 -42 27.5 -68.5t70.5 -26.5q72 0 117 71q6 10 14 32t18 57l175 -14q-28 -104 -62 -155q-111 -165 -289 -165q-134 0 -204 93q-49 64 -49 143q0 12 2 33t6 51zM920 735h609l-16 -103q-33 -206 -149 -371q-94 -132 -242 -208
q-155 -81 -335 -81q-324 0 -500 236q-116 158 -116 364q0 244 160 464q124 169 303 263q178 94 378 94q239 0 399 -151q13 -12 33 -34.5l49 -54.5l-171 -144q-30 37 -57.5 65t-53.5 47q-98 72 -234 72q-197 0 -354 -126q-109 -85 -171 -212q-63 -126 -63 -258
q0 -179 112 -297q122 -128 315 -128q208 0 345 146q74 80 116 219h-388z" />
    <glyph glyph-name="gbreve" unicode="&#x11f;" horiz-adv-x="1117" 
d="M629 1363q-1 -19 -3 -28q-1 -11 -1.5 -20.5t-0.5 -16.5q0 -42 27.5 -68.5t70.5 -26.5q72 0 116 71q13 20 33 89l174 -15q-29 -105 -61 -154q-112 -166 -289 -166q-134 0 -204 93q-49 64 -49 142q0 13 2 34t6 52zM648 751q-132 0 -224 -104q-93 -105 -93 -253
q0 -110 60 -171q64 -66 167 -66q102 0 185 65q90 72 121 196q12 49 12 101q0 104 -59 168q-61 64 -169 64zM1145 908l-146 -925q-37 -234 -207 -368q-154 -121 -355 -121q-102 0 -188.5 34t-143.5 97l-29 36t-41 56l155 133q7 -9 11.5 -15.5t7.5 -11.5q50 -71 83 -94
q68 -50 172 -50q139 0 227 85q82 77 104 219l15 96q-140 -107 -288 -107q-206 0 -321 156q-78 105 -78 249q0 174 109 323q82 111 205 175q116 61 244 61q141 0 248 -107l12 79h204z" />
    <glyph glyph-name="Gdotaccent" unicode="&#x120;" horiz-adv-x="1488" 
d="M1068 1749q48 0 80 -31t32 -79q0 -59 -47 -104q-46 -46 -109 -46q-48 0 -79.5 31.5t-31.5 79.5q0 59 47 104q46 45 108 45zM920 735h609l-16 -103q-33 -206 -149 -371q-94 -132 -242 -208q-155 -81 -335 -81q-324 0 -500 236q-116 158 -116 364q0 244 160 464
q124 169 303 263q178 94 378 94q239 0 399 -151q13 -12 33 -34.5l49 -54.5l-171 -144q-30 37 -57.5 65t-53.5 47q-98 72 -234 72q-197 0 -354 -126q-109 -85 -171 -212q-63 -126 -63 -258q0 -179 112 -297q122 -128 315 -128q208 0 345 146q74 80 116 219h-388z" />
    <glyph glyph-name="gdotaccent" unicode="&#x121;" horiz-adv-x="1117" 
d="M743 1344q48 0 80 -31t32 -79q0 -59 -46 -104q-46 -46 -107 -46q-49 0 -81 31t-32 79q0 60 47 105q46 45 107 45zM648 751q-132 0 -224 -104q-93 -105 -93 -253q0 -110 60 -171q64 -66 167 -66q102 0 185 65q90 72 121 196q12 49 12 101q0 104 -59 168q-61 64 -169 64z
M1145 908l-146 -925q-37 -234 -207 -368q-154 -121 -355 -121q-102 0 -188.5 34t-143.5 97l-29 36t-41 56l155 133q7 -9 11.5 -15.5t7.5 -11.5q50 -71 83 -94q68 -50 172 -50q139 0 227 85q82 77 104 219l15 96q-140 -107 -288 -107q-206 0 -321 156q-78 105 -78 249
q0 174 109 323q82 111 205 175q116 61 244 61q141 0 248 -107l12 79h204z" />
    <glyph glyph-name="Gcommaaccent" unicode="&#x122;" horiz-adv-x="1488" 
d="M522 -436l170 374l186 -60l-213 -361zM920 735h609l-16 -103q-33 -206 -149 -371q-94 -132 -242 -208q-155 -81 -335 -81q-324 0 -500 236q-116 158 -116 364q0 244 160 464q124 169 303 263q178 94 378 94q239 0 399 -151q13 -12 33 -34.5l49 -54.5l-171 -144
q-30 37 -57.5 65t-53.5 47q-98 72 -234 72q-197 0 -354 -126q-109 -85 -171 -212q-63 -126 -63 -258q0 -179 112 -297q122 -128 315 -128q208 0 345 146q74 80 116 219h-388z" />
    <glyph glyph-name="gcommaaccent" unicode="&#x123;" horiz-adv-x="1117" 
d="M952 1374l-169 -373l-186 59l213 362zM648 751q-132 0 -224 -104q-93 -105 -93 -253q0 -110 60 -171q64 -66 167 -66q102 0 185 65q90 72 121 196q12 49 12 101q0 104 -59 168q-61 64 -169 64zM1145 908l-146 -925q-37 -234 -207 -368q-154 -121 -355 -121
q-102 0 -188.5 34t-143.5 97l-29 36t-41 56l155 133q7 -9 11.5 -15.5t7.5 -11.5q50 -71 83 -94q68 -50 172 -50q139 0 227 85q82 77 104 219l15 96q-140 -107 -288 -107q-206 0 -321 156q-78 105 -78 249q0 174 109 323q82 111 205 175q116 61 244 61q141 0 248 -107l12 79
h204z" />
    <glyph glyph-name="Hcircumflex" unicode="&#x124;" horiz-adv-x="1332" 
d="M921 1612l-212 -180l-141 77l314 292h139l220 -292l-164 -77zM366 1365h213l-91 -574h606l91 574h213l-216 -1365h-213l94 593h-606l-94 -593h-213z" />
    <glyph glyph-name="hcircumflex" unicode="&#x125;" horiz-adv-x="1043" 
d="M783 1612l-212 -180l-141 77l314 292h139l220 -292l-165 -77zM331 1365h205l-83 -523q110 94 246 94q79 0 149 -32t112 -87q57 -75 57 -189q0 -63 -12 -139l-78 -489h-204l75 473q12 76 12 114q0 161 -159 161q-59 0 -111.5 -24.5t-81.5 -64.5q-45 -63 -67 -205l-72 -454
h-204z" />
    <glyph glyph-name="Hbar" unicode="&#x126;" horiz-adv-x="1330" 
d="M1133 1040h-607l-39 -249h606zM1345 1040l-164 -1040h-213l94 593h-607l-94 -593h-212l165 1040h-119l30 184h118l22 141h213l-23 -141h607l22 141h213l-22 -141h118l-29 -184h-119z" />
    <glyph glyph-name="hbar" unicode="&#x127;" horiz-adv-x="1040" 
d="M481 1040l-31 -198q115 94 245 94q81 0 150.5 -32t111.5 -87q57 -77 57 -188q0 -64 -12 -140l-78 -489h-204l75 473q12 75 12 114q0 161 -159 161q-60 0 -112 -23.5t-81 -65.5q-45 -63 -67 -205l-72 -454h-204l165 1040h-119l29 184h119l22 141h205l-23 -141h239
l-29 -184h-239z" />
    <glyph glyph-name="Itilde" unicode="&#x128;" horiz-adv-x="513" 
d="M835 1715q-51 -221 -224 -221q-73 0 -143 42q-43 25 -71 27h-1q-21 0 -46 -78l-160 39q24 91 69 145q61 76 158 76q64 0 146 -46q43 -23 68 -23q21 0 41 78zM579 1365l-217 -1365h-212l216 1365h213z" />
    <glyph glyph-name="itilde" unicode="&#x129;" horiz-adv-x="436" 
d="M733 1305q-53 -221 -224 -221q-73 0 -143 42q-47 27 -71 27q-6 0 -11.5 -3t-10.5 -11.5t-11 -24t-14 -39.5l-160 39q22 90 68 145q61 76 158 76q66 0 146 -46q43 -23 69 -23q21 0 41 78zM465 908l-144 -908h-204l143 908h205z" />
    <glyph glyph-name="Imacron" unicode="&#x12a;" horiz-adv-x="513" 
d="M221 1711h613l-29 -183h-613zM579 1365l-216 -1365h-213l216 1365h213z" />
    <glyph glyph-name="imacron" unicode="&#x12b;" horiz-adv-x="436" 
d="M118 1301h613l-29 -183h-613zM464 908l-144 -908h-204l144 908h204z" />
    <glyph glyph-name="Ibreve" unicode="&#x12c;" horiz-adv-x="513" 
d="M416 1773q-2 -25 -3.5 -41t-1.5 -24q0 -43 26.5 -69.5t71.5 -26.5q71 0 116 71q13 20 33 89l175 -14q-28 -105 -62 -155q-111 -165 -289 -165q-134 0 -204 93q-49 64 -49 142q0 13 2 34.5t6 50.5zM579 1365l-216 -1365h-213l216 1365h213z" />
    <glyph glyph-name="ibreve" unicode="&#x12d;" horiz-adv-x="436" 
d="M313 1363q-2 -25 -3.5 -41t-1.5 -23q0 -43 26.5 -69.5t71.5 -26.5q72 0 117 71q6 10 14 32t18 57l175 -15q-14 -52 -29.5 -90.5t-32.5 -63.5q-111 -166 -289 -166q-134 0 -204 93q-49 64 -49 142q0 12 2 33.5t6 52.5zM464 908l-144 -908h-204l144 908h204z" />
    <glyph glyph-name="Iogonek" unicode="&#x12e;" horiz-adv-x="513" 
d="M366 1365h213l-217 -1365q-3 -4 -12 -13q-83 -86 -83 -126q0 -24 32 -24q36 0 99 21l36 -152q-108 -38 -179 -38q-78 0 -128 44q-50 45 -50 114q0 78 81 174h-8z" />
    <glyph glyph-name="iogonek" unicode="&#x12f;" horiz-adv-x="436" 
d="M432 1344q48 0 80 -31t32 -79q0 -60 -47 -105q-46 -46 -109 -46q-48 0 -79.5 31.5t-31.5 80.5q0 59 47 104q46 45 108 45zM320 0q-1 -2 -10 -11q-85 -88 -85 -128q0 -24 32 -24q36 0 99 22l36 -152q-108 -39 -179 -39q-78 0 -128 44q-50 45 -50 114q0 79 81 174l144 908
h204z" />
    <glyph glyph-name="Idotaccent" unicode="&#x130;" horiz-adv-x="513" 
d="M534 1749q48 0 80 -31t32 -79q0 -44 -29 -85q-48 -65 -124 -65q-51 0 -82 31t-31 79q0 60 47 105q46 45 107 45zM579 1365l-217 -1365h-212l216 1365h213z" />
    <glyph glyph-name="dotlessi" unicode="&#x131;" horiz-adv-x="436" 
d="M464 908l-144 -908h-204l144 908h204z" />
    <glyph glyph-name="IJ" unicode="&#x132;" horiz-adv-x="1347" 
d="M1413 1365l-150 -946q-8 -53 -17.5 -94t-20.5 -71q-23 -60 -64 -118q-52 -71 -134 -115q-89 -49 -192 -49q-97 0 -170 39q-74 37 -154 129l157 154q98 -122 195 -122q76 0 121.5 59.5t66.5 187.5l149 946h213zM579 1365l-216 -1365h-213l216 1365h213z" />
    <glyph glyph-name="ij" unicode="&#x133;" horiz-adv-x="886" 
d="M364 -284q60 -19 93 -19q60 0 78 110l174 1101h204l-174 -1101q-27 -174 -121 -246q-73 -56 -166 -56q-53 0 -118 20zM881 1344q24 0 44.5 -8.5t35.5 -23t23.5 -34.5t8.5 -44q0 -60 -47 -105q-46 -46 -109 -46q-48 0 -79.5 31.5t-31.5 80.5q0 59 47 104q46 45 108 45z
M432 1344q48 0 80 -31t32 -79q0 -44 -29 -85q-48 -66 -125 -66q-49 0 -81 31t-32 80q0 58 47 105q46 45 108 45zM464 908l-144 -908h-204l144 908h204z" />
    <glyph glyph-name="Jcircumflex" unicode="&#x134;" horiz-adv-x="851" 
d="M775 1612l-212 -180l-141 77l313 292h140l220 -292l-165 -77zM917 1365l-150 -946q-8 -53 -17.5 -94t-20.5 -71q-23 -60 -64 -118q-52 -71 -134 -115q-89 -49 -192 -49q-97 0 -170 39q-74 37 -154 129l157 154q98 -122 195 -122q76 0 121.5 59.5t65.5 187.5l150 946h213z
" />
    <glyph glyph-name="jcircumflex" unicode="&#x135;" horiz-adv-x="456" 
d="M403 1203l-212 -180l-141 76l313 293h140l220 -293l-165 -76zM-66 -284q60 -19 93 -19q27 0 43 16q25 23 35 94l174 1101h205l-175 -1101q-27 -174 -120 -246q-74 -56 -167 -56q-52 0 -118 20z" />
    <glyph glyph-name="Kcommaaccent" unicode="&#x136;" horiz-adv-x="1196" 
d="M788 791l403 -791h-250l-321 635l-184 -170l-73 -465h-213l216 1365h213l-98 -615l663 615h264zM405 -436l170 374l186 -60l-213 -361z" />
    <glyph glyph-name="kcommaaccent" unicode="&#x137;" horiz-adv-x="975" 
d="M262 -436l169 374l186 -60l-213 -361zM652 531l333 -531h-252l-242 394l-126 -108l-46 -286h-204l216 1365h205l-130 -819l423 362h267z" />
    <glyph glyph-name="kgreenlandic" unicode="&#x138;" horiz-adv-x="975" 
d="M652 531l333 -531h-252l-242 394l-126 -108l-46 -286h-204l144 908h204l-57 -362l423 362h267z" />
    <glyph glyph-name="Lacute" unicode="&#x139;" horiz-adv-x="873" 
d="M838 1728l-342 -297l-123 78l287 324zM579 1365l-185 -1168h510l-31 -197h-723l216 1365h213z" />
    <glyph glyph-name="lacute" unicode="&#x13a;" horiz-adv-x="439" 
d="M809 1752l-343 -297l-123 77l287 325zM321 0h-204l216 1365h205z" />
    <glyph glyph-name="Lcommaaccent" unicode="&#x13b;" horiz-adv-x="884" 
d="M304 -436l169 374l186 -60l-213 -361zM579 1365l-185 -1168h510l-31 -197h-723l216 1365h213z" />
    <glyph glyph-name="lcommaaccent" unicode="&#x13c;" horiz-adv-x="439" 
d="M-36 -436l170 374l185 -60l-212 -361zM321 0h-204l216 1365h205z" />
    <glyph glyph-name="Lcaron" unicode="&#x13d;" horiz-adv-x="884" 
d="M676 1033l170 373l186 -59l-213 -361zM579 1365l-185 -1168h510l-31 -197h-723l216 1365h213z" />
    <glyph glyph-name="lcaron" unicode="&#x13e;" horiz-adv-x="680" 
d="M565 1049l170 373l185 -59l-213 -361zM321 0h-204l216 1365h205z" />
    <glyph glyph-name="Ldot" unicode="&#x13f;" horiz-adv-x="884" 
d="M579 1365l-185 -1168h510l-31 -197h-723l216 1365h213zM808 812q24 0 44 -8.5t35 -23t23.5 -34t8.5 -42.5q0 -60 -46 -105q-47 -45 -108 -45q-49 0 -80 31t-31 79q0 59 47 104q47 44 107 44z" />
    <glyph glyph-name="ldot" unicode="&#x140;" horiz-adv-x="728" 
d="M711 812q24 0 44.5 -8.5t35.5 -23t23.5 -34t8.5 -42.5q0 -60 -46 -105q-47 -45 -108 -45q-49 0 -80 31t-31 79q0 59 47 104q47 44 106 44zM321 0h-204l216 1365h205z" />
    <glyph glyph-name="Lslash" unicode="&#x141;" horiz-adv-x="910" 
d="M294 745l98 620h213l-78 -493l249 150l-35 -220l-249 -150l-72 -455h510l-31 -197h-723l83 525l-145 -88l35 220z" />
    <glyph glyph-name="lslash" unicode="&#x142;" horiz-adv-x="533" 
d="M165 0l85 540l-140 -85l35 223l140 85l96 602h204l-73 -465l140 84l-36 -222l-140 -85l-107 -677h-204z" />
    <glyph glyph-name="Nacute" unicode="&#x143;" horiz-adv-x="1450" 
d="M1319 1728l-343 -297l-122 78l287 324zM150 0l216 1365h187l592 -1004l159 1004h212l-216 -1365h-187l-591 1004l-159 -1004h-213z" />
    <glyph glyph-name="nacute" unicode="&#x144;" horiz-adv-x="1043" 
d="M1054 1319l-343 -297l-123 77l287 324zM259 908h204l-10 -66q112 94 246 94q79 0 149 -32t112 -87q57 -75 57 -189q0 -63 -12 -139l-78 -489h-204l75 473q12 76 12 115q0 160 -159 160q-59 0 -111.5 -24.5t-81.5 -64.5q-45 -63 -67 -205l-72 -454h-204z" />
    <glyph glyph-name="Ncommaaccent" unicode="&#x145;" horiz-adv-x="1450" 
d="M505 -436l170 374l185 -60l-213 -361zM150 0l216 1365h187l592 -1004l159 1004h212l-216 -1365h-187l-591 1004l-159 -1004h-213z" />
    <glyph glyph-name="ncommaaccent" unicode="&#x146;" horiz-adv-x="1043" 
d="M301 -436l170 374l185 -60l-212 -361zM259 908h204l-10 -66q112 94 246 94q79 0 149 -32t112 -87q57 -75 57 -189q0 -63 -12 -139l-78 -489h-204l75 473q12 76 12 115q0 160 -159 160q-59 0 -111.5 -24.5t-81.5 -64.5q-45 -63 -67 -205l-72 -454h-204z" />
    <glyph glyph-name="Ncaron" unicode="&#x147;" horiz-adv-x="1450" 
d="M1019 1639l212 180l141 -77l-313 -292h-140l-221 292l165 77zM150 0l216 1365h187l592 -1004l159 1004h212l-216 -1365h-187l-591 1004l-159 -1004h-213z" />
    <glyph glyph-name="ncaron" unicode="&#x148;" horiz-adv-x="1043" 
d="M726 1229l212 180l141 -77l-313 -292h-139l-221 292l165 77zM259 908h204l-10 -66q112 94 246 94q79 0 149 -32t112 -87q57 -75 57 -189q0 -63 -12 -139l-78 -489h-204l75 473q12 76 12 115q0 160 -159 160q-59 0 -111.5 -24.5t-81.5 -64.5q-45 -63 -67 -205l-72 -454
h-204z" />
    <glyph glyph-name="napostrophe" unicode="&#x149;" horiz-adv-x="1227" 
d="M392 1377l174 -68l-308 -510l-136 57zM443 908h205l-11 -66q116 94 246 94q79 0 149 -32t112 -87q57 -75 57 -188q0 -34 -3 -68.5t-8 -71.5l-78 -489h-204l75 473q5 36 8 64.5t3 49.5q0 161 -159 161q-58 0 -110.5 -23.5t-82.5 -65.5q-44 -62 -66 -205l-72 -454h-204z
" />
    <glyph glyph-name="Eng" unicode="&#x14a;" horiz-adv-x="1450" 
d="M1516 1365l-217 -1371q-18 -117 -73 -197q-33 -49 -90.5 -78t-123.5 -29q-52 0 -118 20l30 191q60 -19 92 -19q27 0 44 16q23 23 35 94l4 31l-577 981l-159 -1004h-213l216 1365h187l592 -1004l159 1004h212z" />
    <glyph glyph-name="eng" unicode="&#x14b;" horiz-adv-x="1043" 
d="M115 0l144 908h204l-10 -66q112 94 246 94q79 0 149 -32t112 -87q57 -75 57 -189q0 -63 -12 -139l-82 -514q-24 -156 -118 -229q-73 -56 -166 -56q-52 0 -118 20l30 191q60 -19 93 -19q60 0 77 108l77 483q12 76 12 115q0 160 -159 160q-59 0 -111.5 -24.5t-81.5 -64.5
q-45 -63 -67 -205l-72 -454h-204z" />
    <glyph glyph-name="Omacron" unicode="&#x14c;" horiz-adv-x="1562" 
d="M746 1711h612l-29 -183h-612zM973 1193q-188 0 -348 -127q-110 -86 -173 -212t-63 -257q0 -180 119 -302q121 -123 295 -123q187 0 351 128q110 86 173 210q62 124 62 255q0 180 -113 302q-68 70 -162 102q-74 24 -141 24zM1008 1393q183 0 328 -94q149 -97 222 -262
q49 -113 49 -245q0 -246 -162 -466q-122 -164 -302 -259q-182 -95 -374 -95q-260 0 -434 182q-163 169 -163 418q0 253 161 465q126 168 304 262t371 94z" />
    <glyph glyph-name="omacron" unicode="&#x14d;" horiz-adv-x="1070" 
d="M434 1301h613l-29 -183h-613zM648 751q-132 0 -224 -104q-93 -105 -93 -253q0 -110 60 -171q64 -66 168 -66q156 0 251 129q73 97 73 232q0 104 -59 166q-64 67 -176 67zM689 936q208 0 325 -157q77 -104 77 -247q0 -173 -110 -324q-82 -112 -204 -175q-118 -61 -248 -61
q-212 0 -328 155q-78 105 -78 250q0 185 122 340q68 87 161 141q130 78 283 78z" />
    <glyph glyph-name="Obreve" unicode="&#x14e;" horiz-adv-x="1562" 
d="M941 1773q-2 -25 -3.5 -41t-1.5 -24q0 -43 26.5 -69.5t71.5 -26.5q72 0 116 71q13 20 33 89l174 -14q-28 -105 -61 -155q-113 -165 -290 -165q-134 0 -203 93q-49 64 -49 142q0 13 2 34t6 51zM973 1193q-188 0 -348 -127q-110 -86 -173 -212t-63 -257q0 -180 119 -302
q121 -123 295 -123q187 0 351 128q110 86 173 210q62 124 62 255q0 180 -113 302q-68 70 -162 102q-74 24 -141 24zM1008 1393q183 0 328 -94q149 -97 222 -262q49 -113 49 -245q0 -246 -162 -466q-122 -164 -302 -259q-182 -95 -374 -95q-260 0 -434 182q-163 169 -163 418
q0 253 161 465q126 168 304 262t371 94z" />
    <glyph glyph-name="obreve" unicode="&#x14f;" horiz-adv-x="1070" 
d="M630 1363q-1 -19 -3 -28q-3 -24 -3 -37q0 -42 27.5 -68.5t70.5 -26.5q72 0 117 71q6 10 14 32t18 57l175 -15q-14 -53 -29.5 -91t-32.5 -63q-111 -166 -289 -166q-134 0 -204 93q-49 64 -49 142q0 23 9 86zM648 751q-132 0 -224 -104q-93 -105 -93 -253q0 -110 60 -171
q64 -66 168 -66q156 0 251 129q73 97 73 232q0 104 -59 166q-64 67 -176 67zM689 936q208 0 325 -157q77 -104 77 -247q0 -173 -110 -324q-82 -112 -204 -175q-118 -61 -248 -61q-212 0 -328 155q-78 105 -78 250q0 185 122 340q68 87 161 141q130 78 283 78z" />
    <glyph glyph-name="Ohungarumlaut" unicode="&#x150;" horiz-adv-x="1562" 
d="M1500 1728l-342 -297l-108 74l291 328zM1207 1732l-347 -301l-104 78l287 324zM973 1193q-188 0 -348 -127q-110 -86 -173 -212t-63 -257q0 -180 119 -302q121 -123 295 -123q187 0 351 128q110 86 173 210q62 124 62 255q0 180 -113 302q-68 70 -162 102q-74 24 -141 24
zM1008 1393q183 0 328 -94q149 -97 222 -262q49 -113 49 -245q0 -246 -162 -466q-122 -164 -302 -259q-182 -95 -374 -95q-260 0 -434 182q-163 169 -163 418q0 253 161 465q126 168 304 262t371 94z" />
    <glyph glyph-name="ohungarumlaut" unicode="&#x151;" horiz-adv-x="1074" 
d="M1210 1318l-343 -297l-107 74l291 329zM917 1322l-348 -301l-103 79l287 324zM648 751q-132 0 -225 -104q-93 -105 -93 -253q0 -110 60 -171q64 -66 169 -66q156 0 251 129q73 98 73 232q0 104 -59 166q-64 67 -176 67zM689 936q208 0 325 -157q77 -104 77 -247
q0 -173 -111 -324q-83 -113 -203 -175q-118 -61 -248 -61q-212 0 -328 155q-78 105 -78 251q0 176 110 322q83 111 199 173q120 63 257 63z" />
    <glyph glyph-name="OE" unicode="&#x152;" horiz-adv-x="2108" 
d="M972 1193q-187 0 -347 -126q-110 -87 -173 -212q-63 -126 -63 -258q0 -179 119 -301q121 -123 294 -123q188 0 352 128q111 86 172 209q62 124 62 256q0 180 -113 301q-66 70 -161 102q-74 24 -142 24zM1489 1365h743l-32 -196h-529l-60 -378h470l-31 -198h-471l-62 -395
h549l-31 -198h-762l28 179q-248 -207 -520 -207q-192 0 -341 95q-148 94 -219 260q-50 115 -50 245q0 244 162 465q120 165 304 262q179 94 375 94q267 0 449 -206z" />
    <glyph glyph-name="oe" unicode="&#x153;" horiz-adv-x="1761" 
d="M1584 533q-7 84 -42 140q-52 82 -162 82q-94 0 -167.5 -58t-112.5 -164h484zM648 751q-132 0 -224 -104q-93 -105 -93 -253q0 -110 60 -171q64 -66 168 -66q156 0 251 129q73 97 73 232q0 104 -59 166q-64 67 -176 67zM1731 229q-197 -258 -466 -258q-228 0 -335 179
q-168 -178 -399 -178q-214 0 -330 155q-78 106 -78 250q0 172 110 324q80 110 199 172q120 63 254 63q229 0 341 -178q168 178 378 178q197 0 302 -145q73 -100 73 -259q0 -55 -18 -157h-686q3 -71 33 -124q54 -95 187 -95q72 0 139 31.5t109 85.5l13.5 18t9.5 11z" />
    <glyph glyph-name="Racute" unicode="&#x154;" horiz-adv-x="1121" 
d="M477 721h107q171 0 251 74t80 189q0 98 -62 142.5t-198 44.5h-107zM1083 0h-239l-211 532q-28 -2 -52.5 -3t-44.5 -1h-90l-83 -528h-213l216 1365h302q206 0 308 -63q150 -93 150 -294q0 -134 -75 -249q-77 -117 -202 -176zM1093 1728l-342 -297l-123 78l287 324z" />
    <glyph glyph-name="racute" unicode="&#x155;" horiz-adv-x="619" 
d="M806 1319l-342 -297l-123 77l287 324zM259 908h204l-11 -73q65 47 106 62q40 15 101 15q16 0 34 -1t40 -3l-28 -183q-25 1 -42.5 1.5t-28.5 0.5q-124 0 -179 -81q-44 -65 -66 -209l-70 -437h-204z" />
    <glyph glyph-name="Rcommaaccent" unicode="&#x156;" horiz-adv-x="1121" 
d="M477 721h107q171 0 251 74t80 189q0 98 -62 142.5t-198 44.5h-107zM1083 0h-239l-211 532q-28 -2 -52.5 -3t-44.5 -1h-90l-83 -528h-213l216 1365h302q206 0 308 -63q150 -93 150 -294q0 -134 -75 -249q-77 -117 -202 -176zM347 -436l170 374l186 -60l-213 -361z" />
    <glyph glyph-name="rcommaaccent" unicode="&#x157;" horiz-adv-x="620" 
d="M-45 -436l170 374l185 -60l-212 -361zM259 908h204l-11 -73q65 47 106 62q40 15 101 15q16 0 34.5 -1t40.5 -3l-29 -183q-25 1 -42.5 1.5t-28.5 0.5q-124 0 -179 -81q-44 -65 -66 -209l-70 -437h-204z" />
    <glyph glyph-name="Rcaron" unicode="&#x158;" horiz-adv-x="1121" 
d="M477 721h107q171 0 251 74t80 189q0 98 -62 142.5t-198 44.5h-107zM1083 0h-239l-211 532q-28 -2 -52.5 -3t-44.5 -1h-90l-83 -528h-213l216 1365h302q206 0 308 -63q150 -93 150 -294q0 -134 -75 -249q-77 -117 -202 -176zM790 1639l212 180l141 -77l-313 -292h-140
l-221 292l165 77z" />
    <glyph glyph-name="rcaron" unicode="&#x159;" horiz-adv-x="615" 
d="M547 1229l212 180l141 -77l-313 -292h-139l-221 292l165 77zM259 908h204l-11 -73q65 47 106 62q40 15 101 15q16 0 34 -1t40 -3l-28 -183q-25 1 -42.5 1.5t-28.5 0.5q-124 0 -179 -81q-44 -65 -66 -209l-70 -437h-204z" />
    <glyph glyph-name="Sacute" unicode="&#x15a;" horiz-adv-x="1054" 
d="M1123 1728l-343 -297l-123 78l287 324zM941 1036q-17 35 -34 61t-33 43q-52 55 -144 55q-122 0 -193 -98q-42 -57 -42 -115q0 -94 146 -154l122 -49q141 -58 208 -135t67 -183q0 -141 -94 -269q-73 -99 -184 -158q-118 -62 -249 -62q-149 0 -250 80q-119 95 -135 313
l215 54q2 -11 2.5 -19t1.5 -13q7 -88 38 -134q52 -82 164 -82q139 0 223 116q50 70 50 142q0 35 -17 64q-32 54 -163 108l-116 48q-243 100 -243 299q0 133 83 246q63 85 162 138q115 61 245 61q191 0 296 -137q31 -42 63 -111z" />
    <glyph glyph-name="sacute" unicode="&#x15b;" horiz-adv-x="777" 
d="M898 1319l-342 -297l-123 77l287 324zM265 306q29 -86 62 -118q32 -32 88 -32q61 0 102 37q42 37 42 90q0 16 -8 32q-14 25 -105 62l-88 36q-162 66 -162 203q0 95 59 175q45 60 118 100q85 45 182 45q195 0 269 -198l-173 -81q-14 27 -27.5 46t-29 30.5t-34 16.5
t-40.5 5q-27 0 -50 -8t-40.5 -22.5t-27 -34t-9.5 -42.5q0 -17 8 -31q10 -19 106 -60l80 -32q94 -39 137 -88.5t43 -119.5q0 -97 -65 -186q-53 -71 -132 -113q-86 -46 -186 -46q-124 0 -196.5 64t-102.5 201z" />
    <glyph glyph-name="Scircumflex" unicode="&#x15c;" horiz-adv-x="1054" 
d="M777 1612l-212 -180l-141 77l313 292h140l220 -292l-165 -77zM941 1036q-17 35 -34 61t-33 43q-52 55 -144 55q-122 0 -193 -98q-42 -57 -42 -115q0 -94 146 -154l122 -49q141 -58 208 -135t67 -183q0 -141 -94 -269q-73 -99 -184 -158q-118 -62 -249 -62q-149 0 -250 80
q-119 95 -135 313l215 54q2 -11 2.5 -19t1.5 -13q7 -88 38 -134q52 -82 164 -82q139 0 223 116q50 70 50 142q0 35 -17 64q-32 54 -163 108l-116 48q-243 100 -243 299q0 133 83 246q63 85 162 138q115 61 245 61q191 0 296 -137q31 -42 63 -111z" />
    <glyph glyph-name="scircumflex" unicode="&#x15d;" horiz-adv-x="791" 
d="M580 1203l-212 -180l-141 76l313 293h140l220 -293l-165 -76zM265 306q29 -86 62 -118q32 -32 88 -32q61 0 102 37q42 37 42 90q0 16 -8 32q-14 25 -105 62l-88 36q-162 66 -162 203q0 95 59 175q45 60 118 100q85 45 182 45q195 0 269 -198l-173 -81q-14 27 -27.5 46
t-29 30.5t-34 16.5t-40.5 5q-27 0 -50 -8t-40.5 -22.5t-27 -34t-9.5 -42.5q0 -17 8 -31q10 -19 106 -60l80 -32q94 -39 137 -88.5t43 -119.5q0 -97 -65 -186q-53 -71 -132 -113q-86 -46 -186 -46q-124 0 -196.5 64t-102.5 201z" />
    <glyph glyph-name="Scedilla" unicode="&#x15e;" horiz-adv-x="1054" 
d="M520 -62l174 -81l-290 -306l-134 73zM941 1036q-17 35 -34 61t-33 43q-52 55 -144 55q-122 0 -193 -98q-42 -57 -42 -115q0 -94 146 -154l122 -49q141 -58 208 -135t67 -183q0 -141 -94 -269q-73 -99 -184 -158q-118 -62 -249 -62q-149 0 -250 80q-119 95 -135 313
l215 54q2 -11 2.5 -19t1.5 -13q7 -88 38 -134q52 -82 164 -82q139 0 223 116q50 70 50 142q0 35 -17 64q-32 54 -163 108l-116 48q-243 100 -243 299q0 133 83 246q63 85 162 138q115 61 245 61q191 0 296 -137q31 -42 63 -111z" />
    <glyph glyph-name="scedilla" unicode="&#x15f;" horiz-adv-x="777" 
d="M371 -62l174 -81l-290 -306l-134 73zM265 306q29 -86 62 -118q32 -32 88 -32q61 0 102 37q42 37 42 90q0 16 -8 32q-14 25 -105 62l-88 36q-162 66 -162 203q0 95 59 175q45 60 118 100q85 45 182 45q195 0 269 -198l-173 -81q-14 27 -27.5 46t-29 30.5t-34 16.5t-40.5 5
q-27 0 -50 -8t-40.5 -22.5t-27 -34t-9.5 -42.5q0 -17 8 -31q10 -19 106 -60l80 -32q94 -39 137 -88.5t43 -119.5q0 -97 -65 -186q-53 -71 -132 -113q-86 -46 -186 -46q-124 0 -196.5 64t-102.5 201z" />
    <glyph glyph-name="Scaron" unicode="&#x160;" horiz-adv-x="1054" 
d="M781 1639l212 180l141 -77l-313 -292h-139l-221 292l165 77zM941 1036q-17 35 -34 61t-33 43q-52 55 -144 55q-122 0 -193 -98q-42 -57 -42 -115q0 -94 146 -154l122 -49q141 -58 208 -135t67 -183q0 -141 -94 -269q-73 -99 -184 -158q-118 -62 -249 -62q-149 0 -250 80
q-119 95 -135 313l215 54q2 -11 2.5 -19t1.5 -13q7 -88 38 -134q52 -82 164 -82q139 0 223 116q50 70 50 142q0 35 -17 64q-32 54 -163 108l-116 48q-243 100 -243 299q0 133 83 246q63 85 162 138q115 61 245 61q191 0 296 -137q31 -42 63 -111z" />
    <glyph glyph-name="scaron" unicode="&#x161;" horiz-adv-x="791" 
d="M584 1229l212 180l141 -77l-313 -292h-139l-221 292l165 77zM265 306q29 -86 62 -118q32 -32 88 -32q61 0 102 37q42 37 42 90q0 16 -8 32q-14 25 -105 62l-88 36q-162 66 -162 203q0 95 59 175q45 60 118 100q85 45 182 45q195 0 269 -198l-173 -81q-14 27 -27.5 46
t-29 30.5t-34 16.5t-40.5 5q-27 0 -50 -8t-40.5 -22.5t-27 -34t-9.5 -42.5q0 -17 8 -31q10 -19 106 -60l80 -32q94 -39 137 -88.5t43 -119.5q0 -97 -65 -186q-53 -71 -132 -113q-86 -46 -186 -46q-124 0 -196.5 64t-102.5 201z" />
    <glyph glyph-name="Tcommaaccent" unicode="&#x162;" horiz-adv-x="894" 
d="M195 -436l169 374l186 -60l-213 -361zM1079 1169h-341l-185 -1169h-213l186 1169h-341l31 196h894z" />
    <glyph glyph-name="tcommaaccent" unicode="&#x163;" horiz-adv-x="532" 
d="M40 -436l170 374l185 -60l-212 -361zM619 908l-29 -184h-143l-69 -438q-2 -13 -3 -24.5t-1 -22.5q0 -34 10.5 -48t37.5 -14q30 0 98 18l-31 -191q-72 -20 -126 -20q-97 0 -146.5 55t-49.5 163q0 21 1.5 42t5.5 42l69 438h-97l29 184h97l32 201l217 81l-45 -282h143z" />
    <glyph glyph-name="Tcaron" unicode="&#x164;" horiz-adv-x="894" 
d="M706 1639l212 180l141 -77l-313 -292h-139l-221 292l165 77zM1079 1169h-341l-185 -1169h-213l186 1169h-341l31 196h894z" />
    <glyph glyph-name="tcaron" unicode="&#x165;" horiz-adv-x="691" 
d="M576 1049l169 373l186 -59l-213 -361zM619 908l-29 -184h-143l-70 -438q-2 -14 -3 -25.5t-1 -21.5q0 -34 10.5 -48t37.5 -14q30 0 98 18l-30 -191q-72 -20 -127 -20q-97 0 -146.5 55t-49.5 163q0 43 7 84l69 438h-97l29 184h97l32 201l217 81l-44 -282h143z" />
    <glyph glyph-name="Tbar" unicode="&#x166;" horiz-adv-x="894" 
d="M876 720h-209l-114 -720h-213l114 720h-209l30 188h209l42 261h-341l31 196h894l-31 -196h-341l-41 -261h209z" />
    <glyph glyph-name="tbar" unicode="&#x167;" horiz-adv-x="532" 
d="M489 4q-72 -20 -127 -20q-96 0 -145.5 55t-49.5 163q0 45 6 84l29 184h-97l29 182h97l12 74h-98l29 182h98l32 201l217 81l-45 -282h143l-29 -182h-143l-11 -74h142l-28 -182h-143l-29 -184q-4 -20 -4 -47q0 -34 10.5 -48t36.5 -14q32 0 98 18z" />
    <glyph glyph-name="Utilde" unicode="&#x168;" horiz-adv-x="1307" 
d="M1232 1715q-53 -221 -224 -221q-73 0 -143 42q-43 25 -70 27h-1q-23 0 -47 -78l-160 39q24 91 69 145q61 76 158 76q64 0 146 -46q43 -23 68 -23q21 0 41 78zM366 1365h213l-133 -842q-15 -92 -15 -137q0 -87 56 -141q74 -73 192 -73q80 0 157 36q76 36 120 93
q26 35 41 83q15 45 30 139l133 842h213l-140 -881q-27 -172 -102 -272q-75 -102 -198 -167q-136 -73 -286 -73q-142 0 -260 73q-171 105 -171 307q0 32 3 64.5t8 67.5z" />
    <glyph glyph-name="utilde" unicode="&#x169;" horiz-adv-x="1043" 
d="M1035 1305q-53 -221 -223 -221q-74 0 -144 42q-47 27 -70 27t-48 -78l-159 39q22 90 68 145q61 76 158 76q64 0 146 -46q43 -23 68 -23q21 0 41 78zM928 0h-205l11 66q-110 -94 -246 -94q-81 0 -150 32t-111 87q-57 75 -57 188q0 66 12 140l77 489h204l-75 -473
q-5 -37 -8 -65.5t-3 -49.5q0 -160 159 -160q60 0 111.5 23.5t81.5 65.5q44 62 66 205l72 454h204z" />
    <glyph glyph-name="Umacron" unicode="&#x16a;" horiz-adv-x="1307" 
d="M618 1711h613l-30 -183h-612zM366 1365h213l-133 -842q-15 -92 -15 -137q0 -87 56 -141q74 -73 192 -73q80 0 157 36q76 36 120 93q26 35 41 83q15 45 30 139l133 842h213l-140 -881q-27 -172 -102 -272q-75 -102 -198 -167q-136 -73 -286 -73q-142 0 -260 73
q-171 105 -171 307q0 32 3 64.5t8 67.5z" />
    <glyph glyph-name="umacron" unicode="&#x16b;" horiz-adv-x="1043" 
d="M421 1301h613l-29 -183h-613zM928 0h-205l11 66q-110 -94 -246 -94q-81 0 -150 32t-111 87q-57 75 -57 188q0 66 12 140l77 489h204l-75 -473q-5 -37 -8 -65.5t-3 -49.5q0 -160 159 -160q60 0 111.5 23.5t81.5 65.5q44 62 66 205l72 454h204z" />
    <glyph glyph-name="Ubreve" unicode="&#x16c;" horiz-adv-x="1307" 
d="M813 1773q-1 -17 -3 -29q-1 -11 -1.5 -20t-0.5 -16q0 -43 26.5 -69.5t71.5 -26.5q71 0 116 71q14 20 33 89l175 -14q-28 -105 -62 -155q-111 -165 -289 -165q-134 0 -204 93q-49 64 -49 142q0 13 2 34t6 51zM366 1365h213l-133 -842q-15 -92 -15 -137q0 -87 56 -141
q74 -73 192 -73q80 0 157 36q76 36 120 93q26 35 41 83q15 45 30 139l133 842h213l-140 -881q-27 -172 -102 -272q-75 -102 -198 -167q-136 -73 -286 -73q-142 0 -260 73q-171 105 -171 307q0 32 3 64.5t8 67.5z" />
    <glyph glyph-name="ubreve" unicode="&#x16d;" horiz-adv-x="1043" 
d="M616 1363q-2 -25 -3.5 -40.5t-1.5 -23.5q0 -43 26.5 -69.5t71.5 -26.5q72 0 117 71q6 10 14 32t18 57l175 -15q-14 -52 -29.5 -90.5t-32.5 -63.5q-111 -166 -289 -166q-134 0 -204 93q-49 64 -49 142q0 13 2 34.5t6 51.5zM928 0h-205l11 66q-110 -94 -246 -94
q-81 0 -150 32t-111 87q-57 75 -57 188q0 66 12 140l77 489h204l-75 -473q-5 -37 -8 -65.5t-3 -49.5q0 -160 159 -160q60 0 111.5 23.5t81.5 65.5q44 62 66 205l72 454h204z" />
    <glyph glyph-name="Uring" unicode="&#x16e;" horiz-adv-x="1307" 
d="M927 1725q-49 0 -86 -37q-38 -38 -38 -85q0 -38 25.5 -63.5t63.5 -25.5q51 0 88 37t37 85q0 39 -25.5 64t-64.5 25zM942 1825q78 0 130 -49q51 -50 51 -124q0 -72 -46 -134q-35 -48 -88.5 -76t-110.5 -28q-79 0 -129 50q-51 49 -51 126q0 72 46 131q80 104 198 104z
M366 1365h213l-133 -842q-15 -92 -15 -137q0 -87 56 -141q74 -73 192 -73q80 0 157 36q76 36 120 93q26 35 41 83q15 45 30 139l133 842h213l-140 -881q-27 -172 -102 -272q-75 -102 -198 -167q-136 -73 -286 -73q-142 0 -260 73q-171 105 -171 307q0 32 3 64.5t8 67.5z" />
    <glyph glyph-name="uring" unicode="&#x16f;" horiz-adv-x="1043" 
d="M730 1316q-49 0 -86 -37q-38 -38 -38 -85q0 -39 25.5 -64.5t63.5 -25.5q51 0 88 37t37 86q0 38 -25.5 63.5t-64.5 25.5zM745 1416q78 0 130 -49q51 -50 51 -125q0 -71 -46 -133q-35 -48 -89 -76.5t-110 -28.5q-79 0 -129 50q-51 49 -51 126q0 71 46 132q80 104 198 104z
M928 0h-205l11 66q-110 -94 -246 -94q-81 0 -150 32t-111 87q-57 75 -57 188q0 66 12 140l77 489h204l-75 -473q-5 -37 -8 -65.5t-3 -49.5q0 -160 159 -160q60 0 111.5 23.5t81.5 65.5q44 62 66 205l72 454h204z" />
    <glyph glyph-name="Uhungarumlaut" unicode="&#x170;" horiz-adv-x="1307" 
d="M1352 1728l-342 -297l-108 74l291 328zM1059 1732l-347 -301l-103 78l286 324zM366 1365h213l-133 -842q-15 -92 -15 -137q0 -87 56 -141q74 -73 192 -73q80 0 157 36q76 36 120 93q26 35 41 83q15 45 30 139l133 842h213l-140 -881q-27 -172 -102 -272
q-75 -102 -198 -167q-136 -73 -286 -73q-142 0 -260 73q-171 105 -171 307q0 32 3 64.5t8 67.5z" />
    <glyph glyph-name="uhungarumlaut" unicode="&#x171;" horiz-adv-x="1043" 
d="M1166 1318l-343 -297l-107 74l291 329zM873 1322l-348 -301l-103 79l287 324zM928 0h-205l11 66q-110 -94 -246 -94q-81 0 -150 32t-111 87q-57 75 -57 188q0 66 12 140l77 489h204l-75 -473q-5 -37 -8 -65.5t-3 -49.5q0 -160 159 -160q60 0 111.5 23.5t81.5 65.5
q44 62 66 205l72 454h204z" />
    <glyph glyph-name="Uogonek" unicode="&#x172;" horiz-adv-x="1307" 
d="M1373 1365l-140 -881q-9 -59 -23 -107.5t-34 -90t-46.5 -77.5t-61.5 -69q-123 -117 -302 -156q-81 -86 -81 -123q0 -24 32 -24q36 0 99 21l36 -152q-108 -38 -179 -38q-78 0 -128 44q-50 45 -50 114q0 71 64 153q-128 23 -220 101q-123 103 -123 272q0 32 3 64.5t8 67.5
l139 881h213l-133 -842q-15 -92 -15 -137q0 -88 56 -141q74 -73 192 -73q80 0 157 36q76 36 120 93q26 35 41 82q15 46 30 140l133 842h213z" />
    <glyph glyph-name="uogonek" unicode="&#x173;" horiz-adv-x="1043" 
d="M928 0q-2 -2 -6 -6.5t-9 -9.5q-80 -86 -80 -123q0 -24 32 -24q35 0 98 22l36 -152q-108 -39 -178 -39q-78 0 -128 44q-50 45 -50 114q0 79 80 174l11 66q-110 -94 -246 -94q-81 0 -150 32t-111 87q-57 75 -57 188q0 66 12 140l77 489h204l-75 -473q-5 -37 -8 -65.5
t-3 -48.5q0 -161 159 -161q60 0 111.5 23.5t81.5 65.5q44 62 66 205l72 454h204z" />
    <glyph glyph-name="Wcircumflex" unicode="&#x174;" horiz-adv-x="1797" 
d="M1154 1612l-212 -180l-141 77l313 292h140l220 -292l-165 -77zM438 1365l128 -1009l458 1009h181l138 -1009l449 1009h221l-626 -1365h-102h-98l-135 969l-442 -969h-98h-103l-193 1365h222z" />
    <glyph glyph-name="wcircumflex" unicode="&#x175;" horiz-adv-x="1360" 
d="M350 908l104 -578l288 578h163l105 -578l287 578h219l-477 -908h-164l-105 571l-285 -571h-164l-190 908h219zM870 1203l-212 -180l-141 76l314 293h139l220 -293l-165 -76z" />
    <glyph glyph-name="Ycircumflex" unicode="&#x176;" horiz-adv-x="1083" 
d="M798 1612l-212 -180l-141 77l313 292h140l220 -292l-165 -77zM1313 1365l-575 -798l-90 -567h-212l89 567l-322 798h236l227 -586l412 586h235z" />
    <glyph glyph-name="ycircumflex" unicode="&#x177;" horiz-adv-x="948" 
d="M56 -478l311 521l-235 865h221l162 -617l368 617h221l-834 -1386h-214zM666 1203l-212 -180l-141 76l314 293h139l220 -293l-165 -76z" />
    <glyph glyph-name="Ydieresis" unicode="&#x178;" horiz-adv-x="1083" 
d="M631 1749q48 0 80 -31t32 -79q0 -59 -46 -104q-46 -46 -108 -46q-49 0 -80.5 31t-31.5 79q0 60 47 105q46 45 107 45zM1008 1749q24 0 44.5 -8.5t35.5 -23t23.5 -34.5t8.5 -44q0 -59 -46 -104q-46 -46 -107 -46q-49 0 -81 31t-32 79q0 60 47 105q46 45 107 45zM1313 1365
l-575 -798l-90 -567h-212l89 567l-322 798h236l227 -586l412 586h235z" />
    <glyph glyph-name="Zacute" unicode="&#x179;" horiz-adv-x="1046" 
d="M1080 1728l-342 -297l-123 78l287 324zM1183 1194l-850 -996h706l-31 -198h-974l27 171l861 999h-644l31 195h901z" />
    <glyph glyph-name="zacute" unicode="&#x17a;" horiz-adv-x="849" 
d="M928 752l-586 -568h516l-30 -184h-783l25 155l587 570h-468l29 183h735zM931 1319l-342 -297l-123 77l287 324z" />
    <glyph glyph-name="Zdotaccent" unicode="&#x17b;" horiz-adv-x="1046" 
d="M832 1749q48 0 80 -31t32 -79q0 -59 -46 -104q-46 -46 -108 -46q-49 0 -80.5 31t-31.5 79q0 60 47 105q46 45 107 45zM1183 1194l-850 -996h706l-31 -198h-974l27 171l861 999h-644l31 195h901z" />
    <glyph glyph-name="zdotaccent" unicode="&#x17c;" horiz-adv-x="849" 
d="M928 752l-586 -568h516l-30 -184h-783l25 155l587 570h-468l29 183h735zM649 1344q48 0 80 -31t32 -79q0 -59 -46 -104q-46 -46 -107 -46q-49 0 -81 31t-32 79q0 60 47 105q46 45 107 45z" />
    <glyph glyph-name="Zcaron" unicode="&#x17d;" horiz-adv-x="1046" 
d="M814 1639l212 180l141 -77l-313 -292h-139l-221 292l165 77zM1183 1194l-850 -996h706l-31 -198h-974l27 171l861 999h-644l31 195h901z" />
    <glyph glyph-name="zcaron" unicode="&#x17e;" horiz-adv-x="849" 
d="M928 752l-586 -568h516l-30 -184h-783l25 155l587 570h-468l29 183h735zM631 1229l212 180l141 -77l-313 -292h-139l-221 292l165 77z" />
    <glyph glyph-name="longs" unicode="&#x17f;" horiz-adv-x="482" 
d="M682 1181q-51 14 -77 14q-75 0 -95 -116l-171 -1079h-204l115 724h-88l29 184h88l27 171q48 302 292 302q53 0 114 -16z" />
    <glyph glyph-name="florin" unicode="&#x192;" horiz-adv-x="983" 
d="M13 -191q66 -18 86 -18q68 0 112 119l296 814h-90l66 184h91l8 23l54 148q64 178 174 249q82 55 175 55q47 0 125 -23l-70 -192q-66 18 -86 18q-69 0 -112 -120l-57 -158h163l-67 -184h-163l-301 -827q-65 -176 -174 -248q-82 -55 -174 -55q-51 0 -126 22z" />
    <glyph glyph-name="Ohorn" unicode="&#x1a0;" horiz-adv-x="1576" 
d="M972 1193q-188 0 -348 -127q-108 -85 -172 -212q-63 -126 -63 -257q0 -180 119 -302q57 -58 135 -90.5t159 -32.5q187 0 351 128q111 87 172 210q62 124 62 255q0 181 -113 302q-66 70 -161 102q-74 24 -141 24zM1460 1192q60 27 85.5 60t25.5 84q0 60 -84 140l165 77
q103 -84 103 -197q0 -185 -204 -306q54 -123 54 -260q0 -246 -161 -464q-122 -164 -302 -259q-181 -95 -375 -95q-178 0 -327 95q-150 97 -220 259q-49 114 -49 246q0 244 161 465q121 165 305 262q179 94 373 94q208 0 372 -128q20 -16 39.5 -34.5t38.5 -38.5z" />
    <glyph glyph-name="ohorn" unicode="&#x1a1;" horiz-adv-x="1155" 
d="M648 751q-132 0 -224 -104q-93 -105 -93 -253q0 -110 60 -171q64 -66 168 -66q156 0 251 129q73 97 73 232q0 104 -59 166q-64 67 -176 67zM1085 603q2 -20 3.5 -37.5t1.5 -33.5q0 -173 -110 -324q-83 -113 -203 -175q-118 -61 -248 -61q-212 0 -328 155q-78 105 -78 250
q0 172 110 323q79 109 199 173q120 63 253 63q178 0 291 -111q27 -27 50 -64q63 42 63 118q0 60 -84 140l165 77q103 -82 103 -197q0 -177 -188 -296z" />
    <glyph glyph-name="Uhorn" unicode="&#x1af;" horiz-adv-x="1400" 
d="M1347 1204q87 49 87 132q0 62 -84 140l165 77q103 -82 103 -198q0 -114 -77.5 -204t-224.5 -145l-83 -522q-27 -170 -102 -272t-198 -167q-136 -73 -286 -73q-142 0 -260 73q-171 105 -171 307q0 32 3 64.5t8 67.5l139 881h213l-133 -842q-15 -92 -15 -137q0 -87 56 -141
q74 -73 191 -73q80 0 158 36q77 36 120 94q27 36 41 82q15 45 30 139l133 842h213z" />
    <glyph glyph-name="uhorn" unicode="&#x1b0;" horiz-adv-x="1201" 
d="M1046 745q89 50 89 135q0 61 -84 139l165 77q103 -82 103 -198q0 -110 -76 -201q-77 -92 -208 -142l-10.5 -4l-10.5 -4l-86 -547h-205l11 66q-110 -94 -246 -94q-81 0 -150 32t-111 87q-57 75 -57 188q0 66 12 140l77 489h204l-75 -473q-5 -37 -8 -65.5t-3 -49.5
q0 -160 159 -160q60 0 111.5 23.5t81.5 65.5q44 62 66 205l72 454h204z" />
    <glyph glyph-name="uni01C4" unicode="&#x1c4;" horiz-adv-x="2313" 
d="M2082 1639l212 180l140 -77l-313 -292h-139l-221 292l165 77zM2450 1194l-850 -996h707l-32 -198h-974l27 171l862 999h-644l31 195h900zM548 1167l-154 -969h96q264 0 430 154q118 109 159 276q18 72 18 147q0 218 -163 321q-113 71 -290 71h-96zM366 1365h302
q251 0 414 -103q231 -146 231 -454q0 -185 -76 -349q-128 -278 -418 -393q-167 -66 -367 -66h-302z" />
    <glyph glyph-name="uni01C5" unicode="&#x1c5;" horiz-adv-x="2116" 
d="M2196 752l-586 -568h515l-29 -184h-784l25 155l587 570h-468l29 183h735zM1898 1229l212 180l141 -77l-313 -292h-139l-221 292l165 77zM548 1167l-154 -969h96q264 0 430 154q118 109 159 276q18 72 18 147q0 218 -163 321q-113 71 -290 71h-96zM366 1365h302
q251 0 414 -103q231 -146 231 -454q0 -185 -76 -349q-128 -278 -418 -393q-167 -66 -367 -66h-302z" />
    <glyph glyph-name="uni01C6" unicode="&#x1c6;" horiz-adv-x="1966" 
d="M2045 752l-586 -568h515l-29 -184h-783l24 155l588 570h-469l29 183h736zM1748 1229l212 180l141 -77l-313 -292h-140l-221 292l165 77zM647 750q-131 0 -223 -104q-93 -105 -93 -252q0 -110 60 -171q64 -66 167 -66q102 0 184 64q90 72 121 197q12 49 12 100
q0 106 -59 168q-61 64 -169 64zM1001 0h-204l12 79q-155 -107 -295 -107q-116 0 -211 61q-180 115 -180 343q0 175 109 323q82 112 204 176q116 61 236 61q134 0 256 -107l85 536h204z" />
    <glyph glyph-name="uni01C7" unicode="&#x1c7;" horiz-adv-x="1736" 
d="M1802 1365l-150 -946q-8 -53 -17.5 -94t-20.5 -71t-27 -59.5t-38 -58.5q-26 -36 -59.5 -64.5t-73.5 -50.5q-89 -49 -193 -49q-96 0 -169 39q-74 37 -154 129l157 154q98 -122 194 -122q78 0 123 59.5t65 187.5l150 946h213zM579 1365l-185 -1168h510l-31 -197h-723
l216 1365h213z" />
    <glyph glyph-name="uni01C8" unicode="&#x1c8;" horiz-adv-x="1341" 
d="M819 -284q60 -19 92 -19q61 0 78 110l175 1101h204l-174 -1101q-29 -174 -121 -246q-73 -56 -167 -56q-53 0 -118 20zM1336 1344q24 0 44.5 -8.5t35.5 -23t23.5 -34.5t8.5 -44q0 -60 -47 -105q-46 -46 -109 -46q-48 0 -79.5 31.5t-31.5 80.5q0 59 47 104q46 45 108 45z
M579 1365l-185 -1168h510l-31 -197h-723l216 1365h213z" />
    <glyph glyph-name="uni01C9" unicode="&#x1c9;" horiz-adv-x="895" 
d="M373 -284q60 -19 93 -19q61 0 78 110l174 1101h205l-175 -1101q-27 -174 -120 -246q-74 -56 -167 -56q-53 0 -118 20zM890 1344q49 0 81 -31t32 -79q0 -60 -47 -105q-46 -46 -109 -46q-49 0 -80.5 31.5t-31.5 80.5q0 59 47 104q46 45 108 45zM321 0h-204l216 1365h205z
" />
    <glyph glyph-name="uni01CA" unicode="&#x1ca;" horiz-adv-x="2302" 
d="M2368 1365l-150 -946q-17 -105 -39 -165q-23 -60 -64 -118q-26 -36 -59.5 -64.5t-73.5 -50.5q-89 -49 -193 -49q-96 0 -169 39q-74 37 -154 129l157 154q96 -122 194 -122q78 0 123 59.5t65 187.5l150 946h213zM150 0l216 1365h187l592 -1004l159 1004h212l-216 -1365
h-187l-591 1004l-159 -1004h-213z" />
    <glyph glyph-name="uni01CB" unicode="&#x1cb;" horiz-adv-x="1907" 
d="M1385 -284q60 -19 92 -19q61 0 78 110l175 1101h204l-174 -1101q-29 -174 -121 -246q-73 -56 -167 -56q-53 0 -118 20zM1902 1344q24 0 44.5 -8.5t35.5 -23t23.5 -34.5t8.5 -44q0 -60 -47 -105q-46 -46 -109 -46q-48 0 -79.5 31.5t-31.5 80.5q0 59 47 104q46 45 108 45z
M150 0l216 1365h187l592 -1004l159 1004h212l-216 -1365h-187l-591 1004l-159 -1004h-213z" />
    <glyph glyph-name="uni01CC" unicode="&#x1cc;" horiz-adv-x="1499" 
d="M977 -284q60 -19 93 -19q61 0 78 110l174 1101h205l-175 -1101q-27 -174 -120 -246q-74 -56 -167 -56q-53 0 -118 20zM1494 1344q49 0 81 -31t32 -79q0 -60 -47 -105q-46 -46 -109 -46q-49 0 -80.5 31.5t-31.5 80.5q0 59 47 104q46 45 108 45zM259 908h204l-10 -66
q112 94 246 94q79 0 149 -32t112 -87q57 -75 57 -189q0 -63 -12 -139l-78 -489h-204l75 473q12 76 12 115q0 160 -159 160q-59 0 -111.5 -24.5t-81.5 -64.5q-45 -63 -67 -205l-72 -454h-204z" />
    <glyph glyph-name="uni01CD" unicode="&#x1cd;" horiz-adv-x="1292" 
d="M905 1639l212 180l141 -77l-313 -292h-139l-221 292l165 77zM512 550h440l-126 595zM408 352l-185 -352h-223l731 1365h262l299 -1365h-224l-75 352h-585z" />
    <glyph glyph-name="uni01CE" unicode="&#x1ce;" horiz-adv-x="1117" 
d="M724 1229l212 180l141 -77l-313 -292h-140l-220 292l165 77zM647 750q-131 0 -223 -104q-93 -104 -93 -253q0 -109 60 -170q64 -66 167 -66q152 0 246 127q73 98 73 234q0 105 -59 167q-62 65 -171 65zM1001 0h-204l12 79q-155 -107 -295 -107q-116 0 -211 61
q-180 115 -180 343q0 175 109 323q82 112 204 176q116 61 236 61q134 0 256 -107l13 79h204z" />
    <glyph glyph-name="uni01CF" unicode="&#x1cf;" horiz-adv-x="513" 
d="M516 1639l212 180l141 -77l-313 -292h-140l-220 292l165 77zM579 1365l-216 -1365h-213l216 1365h213z" />
    <glyph glyph-name="uni01D0" unicode="&#x1d0;" horiz-adv-x="436" 
d="M413 1229l212 180l141 -77l-313 -292h-139l-221 292l165 77zM464 908l-143 -908h-205l144 908h204z" />
    <glyph glyph-name="uni01D1" unicode="&#x1d1;" horiz-adv-x="1562" 
d="M1041 1639l212 180l141 -77l-314 -292h-139l-221 292l165 77zM973 1193q-188 0 -348 -127q-110 -86 -173 -212t-63 -257q0 -180 119 -302q121 -123 295 -123q187 0 351 128q110 86 173 210q62 124 62 255q0 180 -113 302q-68 70 -162 102q-74 24 -141 24zM1008 1393
q183 0 328 -94q149 -97 222 -262q49 -113 49 -245q0 -246 -162 -466q-122 -164 -302 -259q-182 -95 -374 -95q-260 0 -434 182q-163 169 -163 418q0 253 161 465q126 168 304 262t371 94z" />
    <glyph glyph-name="uni01D2" unicode="&#x1d2;" horiz-adv-x="1070" 
d="M729 1229l213 180l140 -77l-313 -292h-139l-221 292l165 77zM648 751q-132 0 -224 -104q-93 -105 -93 -253q0 -110 60 -171q64 -66 168 -66q156 0 251 129q73 97 73 232q0 104 -59 166q-64 67 -176 67zM689 936q208 0 325 -157q77 -104 77 -247q0 -173 -110 -324
q-82 -112 -204 -175q-118 -61 -248 -61q-212 0 -328 155q-78 105 -78 250q0 185 122 340q68 87 161 141q130 78 283 78z" />
    <glyph glyph-name="uni01D3" unicode="&#x1d3;" horiz-adv-x="1307" 
d="M913 1639l212 180l141 -77l-313 -292h-140l-220 292l165 77zM366 1365h213l-133 -842q-15 -92 -15 -137q0 -87 56 -141q74 -73 192 -73q80 0 157 36q76 36 120 93q26 35 41 83q15 45 30 139l133 842h213l-140 -881q-27 -172 -102 -272q-75 -102 -198 -167
q-136 -73 -286 -73q-142 0 -260 73q-171 105 -171 307q0 32 3 64.5t8 67.5z" />
    <glyph glyph-name="uni01D4" unicode="&#x1d4;" horiz-adv-x="1043" 
d="M716 1229l212 180l141 -77l-313 -292h-139l-221 292l165 77zM928 0h-205l11 66q-110 -94 -246 -94q-81 0 -150 32t-111 87q-57 75 -57 188q0 66 12 140l77 489h204l-75 -473q-5 -37 -8 -65.5t-3 -49.5q0 -160 159 -160q60 0 111.5 23.5t81.5 65.5q44 62 66 205l72 454
h204z" />
    <glyph glyph-name="Gcaron" unicode="&#x1e6;" horiz-adv-x="1488" 
d="M1049 1639l212 180l141 -77l-313 -292h-139l-221 292l165 77zM920 735h609l-16 -103q-33 -206 -149 -371q-94 -132 -242 -208q-155 -81 -335 -81q-324 0 -500 236q-116 158 -116 364q0 244 160 464q124 169 303 263q178 94 378 94q239 0 399 -151q13 -12 33 -34.5
l49 -54.5l-171 -144q-30 37 -57.5 65t-53.5 47q-98 72 -234 72q-197 0 -354 -126q-109 -85 -171 -212q-63 -126 -63 -258q0 -179 112 -297q122 -128 315 -128q208 0 345 146q74 80 116 219h-388z" />
    <glyph glyph-name="gcaron" unicode="&#x1e7;" horiz-adv-x="1117" 
d="M725 1229l212 180l141 -77l-313 -292h-140l-221 292l165 77zM648 751q-132 0 -224 -104q-93 -105 -93 -253q0 -110 60 -171q64 -66 167 -66q102 0 185 65q90 72 121 196q12 49 12 101q0 104 -59 168q-61 64 -169 64zM1145 908l-146 -925q-37 -234 -207 -368
q-154 -121 -355 -121q-102 0 -188.5 34t-143.5 97l-29 36t-41 56l155 133q7 -9 11.5 -15.5t7.5 -11.5q50 -71 83 -94q68 -50 172 -50q139 0 227 85q82 77 104 219l15 96q-140 -107 -288 -107q-206 0 -321 156q-78 105 -78 249q0 174 109 323q82 111 205 175q116 61 244 61
q141 0 248 -107l12 79h204z" />
    <glyph glyph-name="uni01F4" unicode="&#x1f4;" horiz-adv-x="1488" 
d="M1363 1728l-342 -297l-123 78l287 324zM920 735h609l-16 -103q-33 -206 -149 -371q-94 -132 -242 -208q-155 -81 -335 -81q-324 0 -500 236q-116 158 -116 364q0 244 160 464q124 169 303 263q178 94 378 94q239 0 399 -151q13 -12 33 -34.5l49 -54.5l-171 -144
q-30 37 -57.5 65t-53.5 47q-98 72 -234 72q-197 0 -354 -126q-109 -85 -171 -212q-63 -126 -63 -258q0 -179 112 -297q122 -128 315 -128q208 0 345 146q74 80 116 219h-388z" />
    <glyph glyph-name="uni01F5" unicode="&#x1f5;" horiz-adv-x="1117" 
d="M1036 1319l-343 -297l-123 77l287 324zM648 751q-132 0 -224 -104q-93 -105 -93 -253q0 -110 60 -171q64 -66 167 -66q102 0 185 65q90 72 121 196q12 49 12 101q0 104 -59 168q-61 64 -169 64zM1145 908l-146 -925q-37 -234 -207 -368q-154 -121 -355 -121
q-102 0 -188.5 34t-143.5 97l-29 36t-41 56l155 133q7 -9 11.5 -15.5t7.5 -11.5q50 -71 83 -94q68 -50 172 -50q139 0 227 85q82 77 104 219l15 96q-140 -107 -288 -107q-206 0 -321 156q-78 105 -78 249q0 174 109 323q82 111 205 175q116 61 244 61q141 0 248 -107l12 79
h204z" />
    <glyph glyph-name="Aringacute" unicode="&#x1fa;" horiz-adv-x="1292" 
d="M512 550h440l-126 595zM408 352l-185 -352h-223l731 1365h262l299 -1365h-224l-75 352h-585zM919 1725q-49 0 -86 -37q-38 -38 -38 -85q0 -38 25.5 -63.5t63.5 -25.5q51 0 88 37t37 85q0 38 -25.5 63.5t-64.5 25.5zM731 1880l287 325l178 -105l-328 -285q33 10 65 10
q79 0 131 -49q51 -50 51 -125q0 -71 -46 -133q-77 -104 -201 -104q-93 0 -144 69q-35 47 -35 106q0 67 45 129q43 61 113 90z" />
    <glyph glyph-name="aringacute" unicode="&#x1fb;" horiz-adv-x="1117" 
d="M1048 1728l-342 -297l-123 78l287 324zM764 1311q-49 0 -86 -37q-38 -38 -38 -85q0 -38 25.5 -64t63.5 -26q51 0 88 37t37 86q0 38 -25.5 63.5t-64.5 25.5zM779 1411q78 0 130 -49q51 -50 51 -124q0 -72 -46 -134q-35 -48 -88.5 -76.5t-110.5 -28.5q-79 0 -129 50
q-51 49 -51 127q0 70 46 131q80 104 198 104zM647 750q-131 0 -223 -104q-93 -104 -93 -253q0 -109 60 -170q64 -66 167 -66q152 0 246 127q73 98 73 234q0 105 -59 167q-62 65 -171 65zM1001 0h-204l12 79q-155 -107 -295 -107q-116 0 -211 61q-180 115 -180 343
q0 175 109 323q82 112 204 176q116 61 236 61q134 0 256 -107l13 79h204z" />
    <glyph glyph-name="AEacute" unicode="&#x1fc;" horiz-adv-x="1719" 
d="M1637 1728l-343 -297l-123 78l287 324zM972 550l98 619h-49l-415 -619h366zM941 352h-468l-236 -352h-237l927 1365h916l-31 -196h-530l-59 -378h470l-31 -198h-471l-62 -395h549l-31 -198h-762z" />
    <glyph glyph-name="aeacute" unicode="&#x1fd;" horiz-adv-x="1674" 
d="M1334 1319l-342 -297l-123 77l287 324zM1497 534q-7 85 -42 139q-52 82 -162 82q-94 0 -168 -58t-112 -163h484zM782 436h-228q-248 0 -248 -169q0 -54 53.5 -84t150.5 -30q227 0 251 150zM1644 230q-194 -258 -467 -258q-198 0 -310 144q-125 -144 -383 -144
q-179 0 -282 72q-103 70 -103 195q0 163 130 263q122 92 323 92h249q-11 162 -204 162q-150 0 -302 -104l-83 133q116 82 215 117q96 34 217 34t205.5 -39.5t117.5 -109.5q161 149 352 149q195 0 300 -145q75 -104 75 -247q0 -33 -4.5 -75t-14.5 -93h-686q3 -70 32 -124
q56 -95 188 -95q36 0 71 8.5t67.5 23.5t60.5 36.5t49 48.5l13.5 18t9.5 11z" />
    <glyph glyph-name="Oslashacute" unicode="&#x1fe;" horiz-adv-x="1577" 
d="M1362 1728l-343 -297l-122 78l287 324zM538 275q115 -103 270 -103q189 0 353 128q109 85 173 211q62 126 62 258q0 107 -49 204zM1256 1091q-119 102 -272 102q-193 0 -352 -126q-109 -87 -172 -214q-64 -127 -64 -261q0 -98 49 -200zM272 244q-93 144 -93 329
q0 244 161 464q122 165 305 262q178 94 364 94q246 0 416 -157l155 134l99 -113l-158 -136q92 -143 92 -330q0 -247 -162 -464q-123 -165 -302 -260q-181 -95 -373 -95q-114 0 -220 41t-188 116l-156 -134l-98 113z" />
    <glyph glyph-name="oslashacute" unicode="&#x1ff;" horiz-adv-x="1097" 
d="M1057 1319l-342 -297l-123 77l287 324zM816 704q-58 47 -147 47q-158 0 -252 -129q-73 -97 -73 -230q0 -38 9 -75zM425 204q61 -47 147 -47q158 0 252 130q73 97 73 231q0 41 -9 73zM86 95l98 82q-48 91 -48 197q0 174 110 326q82 112 204 175q118 61 248 61
q166 0 278 -100l92 77l87 -100l-97 -81q47 -92 47 -198q0 -175 -111 -326q-83 -113 -203 -175q-118 -61 -250 -61q-157 0 -276 100l-91 -77z" />
    <glyph glyph-name="uni0200" unicode="&#x200;" horiz-adv-x="1292" 
d="M478 1728l204 105l184 -324l-140 -78zM764 1728l204 105l184 -324l-139 -78zM512 550h440l-126 595zM408 352l-185 -352h-223l731 1365h262l299 -1365h-224l-75 352h-585z" />
    <glyph glyph-name="uni0201" unicode="&#x201;" horiz-adv-x="1117" 
d="M245 1318l204 106l184 -324l-140 -79zM531 1318l204 106l185 -324l-140 -79zM641 750q-131 0 -223 -104q-93 -104 -93 -253q0 -109 60 -170q64 -66 167 -66q152 0 246 127q73 98 73 234q0 105 -59 167q-62 65 -171 65zM995 0h-204l12 79q-155 -107 -295 -107
q-116 0 -211 61q-180 115 -180 343q0 175 109 323q82 112 204 176q116 61 236 61q134 0 256 -107l13 79h204z" />
    <glyph glyph-name="Scommaaccent" unicode="&#x218;" horiz-adv-x="1054" 
d="M509 -62l174 -81l-290 -306l-134 73zM941 1036q-17 35 -34 61t-33 43q-52 55 -144 55q-122 0 -193 -98q-42 -57 -42 -115q0 -94 146 -154l122 -49q141 -58 208 -135t67 -183q0 -141 -94 -269q-73 -99 -184 -158q-118 -62 -249 -62q-149 0 -250 80q-119 95 -135 313
l215 54q2 -11 2.5 -19t1.5 -13q7 -88 38 -134q52 -82 164 -82q139 0 223 116q50 70 50 142q0 35 -17 64q-32 54 -163 108l-116 48q-243 100 -243 299q0 133 83 246q63 85 162 138q115 61 245 61q191 0 296 -137q31 -42 63 -111z" />
    <glyph glyph-name="scommaaccent" unicode="&#x219;" horiz-adv-x="777" 
d="M167 -436l170 374l186 -60l-213 -361zM265 306q29 -86 62 -118q32 -32 88 -32q61 0 102 37q42 37 42 90q0 16 -8 32q-14 25 -105 62l-88 36q-162 66 -162 203q0 95 59 175q45 60 118 100q85 45 182 45q195 0 269 -198l-173 -81q-14 27 -27.5 46t-29 30.5t-34 16.5
t-40.5 5q-27 0 -50 -8t-40.5 -22.5t-27 -34t-9.5 -42.5q0 -17 8 -31q10 -19 106 -60l80 -32q94 -39 137 -88.5t43 -119.5q0 -97 -65 -186q-53 -71 -132 -113q-86 -46 -186 -46q-124 0 -196.5 64t-102.5 201z" />
    <glyph glyph-name="uni021A" unicode="&#x21a;" horiz-adv-x="894" 
d="M195 -436l169 374l186 -60l-213 -361zM1079 1169h-341l-185 -1169h-213l186 1169h-341l31 196h894z" />
    <glyph glyph-name="uni021B" unicode="&#x21b;" horiz-adv-x="532" 
d="M40 -436l170 374l185 -60l-212 -361zM619 908l-29 -184h-143l-69 -438q-2 -13 -3 -24.5t-1 -22.5q0 -34 10.5 -48t37.5 -14q30 0 98 18l-31 -191q-72 -20 -126 -20q-97 0 -146.5 55t-49.5 163q0 21 1.5 42t5.5 42l69 438h-97l29 184h97l32 201l217 81l-45 -282h143z" />
    <glyph glyph-name="uni0226" unicode="&#x226;" horiz-adv-x="1292" 
d="M923 1749q48 0 80 -31t32 -79q0 -59 -46 -104q-46 -46 -109 -46q-48 0 -79.5 31.5t-31.5 79.5q0 59 47 104q46 45 107 45zM512 550h440l-126 595zM408 352l-185 -352h-223l731 1365h262l299 -1365h-224l-75 352h-585z" />
    <glyph glyph-name="uni0227" unicode="&#x227;" horiz-adv-x="1117" 
d="M743 1344q48 0 80 -31t32 -79q0 -59 -46 -104q-46 -46 -108 -46q-48 0 -80 31t-32 79q0 60 47 105q46 45 107 45zM647 750q-131 0 -223 -104q-93 -104 -93 -253q0 -109 60 -170q64 -66 167 -66q152 0 246 127q73 98 73 234q0 105 -59 167q-62 65 -171 65zM1001 0h-204
l12 79q-155 -107 -295 -107q-116 0 -211 61q-180 115 -180 343q0 175 109 323q82 112 204 176q116 61 236 61q134 0 256 -107l13 79h204z" />
    <glyph glyph-name="uni0237" unicode="&#x237;" horiz-adv-x="456" 
d="M-66 -284q60 -19 93 -19q61 0 78 110l174 1101h205l-175 -1101q-27 -174 -120 -246q-74 -56 -167 -56q-53 0 -118 20z" />
    <glyph glyph-name="uni02BB" unicode="&#x2bb;" horiz-adv-x="509" 
d="M408 890l-175 67l308 511l136 -58z" />
    <glyph glyph-name="afii57929" unicode="&#x2bc;" horiz-adv-x="580" 
d="M522 1469l177 -68l-310 -513l-137 59z" />
    <glyph glyph-name="circumflex" unicode="&#x2c6;" horiz-adv-x="975" 
d="M678 1203l-212 -180l-141 76l313 293h140l220 -293l-165 -76z" />
    <glyph glyph-name="caron" unicode="&#x2c7;" horiz-adv-x="975" 
d="M682 1229l212 180l141 -77l-313 -292h-139l-221 292l165 77z" />
    <glyph glyph-name="uni02C9" unicode="&#x2c9;" horiz-adv-x="975" 
d="M387 1301h613l-29 -183h-613z" />
    <glyph glyph-name="breve" unicode="&#x2d8;" horiz-adv-x="975" 
d="M582 1363q-1 -19 -3 -28q-1 -11 -1.5 -20.5t-0.5 -16.5q0 -42 27.5 -68.5t70.5 -26.5q72 0 116 71q14 20 33 89l174 -15q-29 -105 -61 -154q-111 -166 -289 -166q-134 0 -204 93q-49 64 -49 142q0 12 2 33.5t6 52.5z" />
    <glyph glyph-name="dotaccent" unicode="&#x2d9;" horiz-adv-x="975" 
d="M701 1344q24 0 44.5 -8.5t35.5 -23t23.5 -34.5t8.5 -44q0 -57 -47 -104q-46 -46 -106 -46q-51 0 -82 31t-31 79q0 60 47 105q46 45 107 45z" />
    <glyph glyph-name="ring" unicode="&#x2da;" horiz-adv-x="975" 
d="M696 1316q-49 0 -86 -37q-38 -38 -38 -85q0 -38 25.5 -64t63.5 -26q51 0 88 37t37 86q0 38 -25.5 63.5t-64.5 25.5zM711 1416q78 0 130 -49q51 -50 51 -125q0 -72 -46 -133q-35 -49 -88.5 -77t-110.5 -28q-79 0 -129 50q-51 49 -51 126q0 71 46 132q80 104 198 104z" />
    <glyph glyph-name="ogonek" unicode="&#x2db;" horiz-adv-x="975" 
d="M896 0q-95 -101 -95 -139q0 -24 32 -24q36 0 99 22l36 -152q-108 -39 -179 -39q-78 0 -128 44q-50 45 -50 114q0 79 81 174h204z" />
    <glyph glyph-name="tilde" unicode="&#x2dc;" horiz-adv-x="975" 
d="M1002 1305q-53 -221 -224 -221q-73 0 -143 42q-47 27 -71 27q-6 0 -11.5 -3t-10.5 -11.5t-11 -24t-14 -39.5l-160 39q22 90 68 145q61 76 158 76q66 0 146 -46q43 -23 69 -23q21 0 41 78z" />
    <glyph glyph-name="hungarumlaut" unicode="&#x2dd;" horiz-adv-x="975" 
d="M1136 1318l-343 -297l-107 74l291 329zM843 1322l-348 -301l-103 79l287 324z" />
    <glyph glyph-name="uni0309" unicode="&#x309;" horiz-adv-x="975" 
d="M623 1799q108 38 184 38q39 0 71.5 -10t56 -29t36 -45t12.5 -57q0 -66 -56 -137l-39 -49q-16 -19 -20 -60h-184q11 54 19 73q10 23 34 50l24 27q29 35 29 47q0 22 -30 22q-34 0 -101 -22z" />
    <glyph glyph-name="uni0323" unicode="&#x323;" horiz-adv-x="975" 
d="M473 -98q24 0 44.5 -8.5t35.5 -23t23.5 -34.5t8.5 -44q0 -59 -47 -106q-47 -45 -109 -45q-48 0 -79.5 31.5t-31.5 79.5q0 60 47 105q46 45 108 45z" />
    <glyph glyph-name="uni037E" unicode="&#x37e;" horiz-adv-x="502" 
d="M425 878q24 0 44.5 -8t35.5 -22.5t23.5 -34.5t8.5 -44q0 -59 -46 -104q-47 -45 -108 -45q-48 0 -79.5 31t-31.5 79q0 59 47 104q47 44 106 44zM259 235l177 -68l-310 -513l-137 59z" />
    <glyph glyph-name="uni0387" unicode="&#x387;" horiz-adv-x="497" 
d="M379 812q24 0 44 -8.5t35 -23t23.5 -34t8.5 -42.5q0 -60 -46 -105q-47 -45 -109 -45q-48 0 -79 31t-31 79q0 59 46 104q47 44 108 44z" />
    <glyph glyph-name="uni1E1E" unicode="&#x1e1e;" horiz-adv-x="907" 
d="M776 1749q48 0 80 -31t32 -79q0 -59 -46 -104q-46 -46 -109 -46q-48 0 -79.5 31.5t-31.5 79.5q0 59 47 104q46 45 107 45zM1031 1169h-483l-60 -378h441l-31 -198h-441l-94 -593h-213l216 1365h697z" />
    <glyph glyph-name="uni1E1F" unicode="&#x1e1f;" horiz-adv-x="530" 
d="M605 1743q24 0 44.5 -8.5t35.5 -23t23.5 -34.5t8.5 -43q0 -60 -46 -105q-46 -46 -108 -46q-49 0 -80.5 31t-31.5 79q0 60 47 105q46 45 107 45zM617 724h-159l-115 -724h-204l115 724h-88l29 184h88l27 171q48 302 292 302q53 0 114 -16l-30 -184q-51 14 -77 14
q-75 0 -95 -116l-27 -171h159z" />
    <glyph glyph-name="Wgrave" unicode="&#x1e80;" horiz-adv-x="1797" 
d="M886 1728l211 105l185 -324l-147 -78zM438 1365l128 -1009l458 1009h181l138 -1009l449 1009h221l-626 -1365h-102h-98l-135 969l-442 -969h-98h-103l-193 1365h222z" />
    <glyph glyph-name="wgrave" unicode="&#x1e81;" horiz-adv-x="1360" 
d="M589 1319l211 104l184 -324l-147 -77zM350 908l104 -578l288 578h163l105 -578l287 578h219l-477 -908h-164l-105 571l-285 -571h-164l-190 908h219z" />
    <glyph glyph-name="Wacute" unicode="&#x1e82;" horiz-adv-x="1797" 
d="M1472 1728l-342 -297l-123 78l287 324zM438 1365l128 -1009l458 1009h181l138 -1009l449 1009h221l-626 -1365h-102h-98l-135 969l-442 -969h-98h-103l-193 1365h222z" />
    <glyph glyph-name="wacute" unicode="&#x1e83;" horiz-adv-x="1364" 
d="M1127 1319l-342 -297l-123 77l287 324zM350 908l104 -578l288 578h163l105 -578l287 578h219l-477 -908h-164l-105 571l-285 -571h-164l-190 908h219z" />
    <glyph glyph-name="Wdieresis" unicode="&#x1e84;" horiz-adv-x="1797" 
d="M988 1749q48 0 80 -31t32 -79q0 -59 -46 -104q-46 -46 -109 -46q-48 0 -79.5 31.5t-31.5 79.5q0 59 47 104q46 45 107 45zM1364 1749q24 0 44.5 -8.5t35.5 -23t23.5 -34.5t8.5 -44q0 -59 -46 -104q-46 -46 -109 -46q-48 0 -79.5 31.5t-31.5 79.5q0 59 47 104
q46 45 107 45zM438 1365l128 -1009l458 1009h181l138 -1009l449 1009h221l-626 -1365h-102h-98l-135 969l-442 -969h-98h-103l-193 1365h222z" />
    <glyph glyph-name="wdieresis" unicode="&#x1e85;" horiz-adv-x="1360" 
d="M705 1344q48 0 80 -31t32 -79q0 -59 -46 -104q-46 -46 -107 -46q-49 0 -81 31t-32 79q0 60 47 105q46 45 107 45zM1081 1344q48 0 80 -31t32 -79q0 -59 -47 -104q-46 -46 -108 -46q-48 0 -79.5 31.5t-31.5 79.5q0 59 47 104q46 45 107 45zM350 908l104 -578l288 578h163
l105 -578l287 578h219l-477 -908h-164l-105 571l-285 -571h-164l-190 908h219z" />
    <glyph glyph-name="uni1EA0" unicode="&#x1ea0;" horiz-adv-x="1292" 
d="M631 -97q48 0 80 -31t32 -79q0 -44 -29 -85q-48 -65 -124 -65q-49 0 -81 31t-32 79q0 60 47 105q46 45 107 45zM512 550h440l-126 595zM408 352l-185 -352h-223l731 1365h262l299 -1365h-224l-75 352h-585z" />
    <glyph glyph-name="uni1EA1" unicode="&#x1ea1;" horiz-adv-x="1117" 
d="M538 -97q24 0 44.5 -8.5t35.5 -23t23.5 -34.5t8.5 -44q0 -59 -46 -105q-47 -45 -109 -45q-48 0 -79.5 31.5t-31.5 79.5q0 59 47 104q46 45 107 45zM647 750q-131 0 -223 -104q-93 -104 -93 -253q0 -109 60 -170q64 -66 167 -66q152 0 246 127q73 98 73 234q0 105 -59 167
q-62 65 -171 65zM1001 0h-204l12 79q-155 -107 -295 -107q-116 0 -211 61q-180 115 -180 343q0 175 109 323q82 112 204 176q116 61 236 61q134 0 256 -107l13 79h204z" />
    <glyph glyph-name="uni1EA2" unicode="&#x1ea2;" horiz-adv-x="1292" 
d="M738 1799q108 38 183 38q40 0 72.5 -10t56 -29t36 -45t12.5 -57q0 -66 -56 -137l-40 -49q-16 -20 -20 -60h-183q9 52 19 73q9 22 33 50l24 27q30 34 30 47q0 22 -30 22q-35 0 -101 -22zM512 550h440l-126 595zM408 352l-185 -352h-223l731 1365h262l299 -1365h-224
l-75 352h-585z" />
    <glyph glyph-name="uni1EA3" unicode="&#x1ea3;" horiz-adv-x="1117" 
d="M565 1377q108 38 183 38q40 0 72.5 -10t56 -28.5t36 -44.5t12.5 -57q0 -67 -56 -138l-40 -49q-14 -19 -20 -60h-184q5 26 10 44t10 29q9 22 33 50l24 27q30 34 30 46q0 23 -30 23q-34 0 -101 -22zM647 750q-131 0 -223 -104q-93 -104 -93 -253q0 -109 60 -170
q64 -66 167 -66q152 0 246 127q73 98 73 234q0 105 -59 167q-62 65 -171 65zM1001 0h-204l12 79q-155 -107 -295 -107q-116 0 -211 61q-180 115 -180 343q0 175 109 323q82 112 204 176q116 61 236 61q134 0 256 -107l13 79h204z" />
    <glyph glyph-name="uni1EA4" unicode="&#x1ea4;" horiz-adv-x="1292" 
d="M512 550h440l-126 595zM408 352l-185 -352h-223l731 1365h262l299 -1365h-224l-75 352h-585zM1160 1590l61 -81l-165 -77l-155 180l-212 -180l-141 77l314 292h139l65 -87l204 231l179 -105z" />
    <glyph glyph-name="uni1EA5" unicode="&#x1ea5;" horiz-adv-x="1117" 
d="M1348 1528l-343 -297l-123 78l287 324zM647 750q-131 0 -223 -104q-93 -104 -93 -253q0 -109 60 -170q64 -66 167 -66q152 0 246 127q73 98 73 234q0 105 -59 167q-62 65 -171 65zM1001 0h-204l12 79q-155 -107 -295 -107q-116 0 -211 61q-180 115 -180 343
q0 175 109 323q82 112 204 176q116 61 236 61q134 0 256 -107l13 79h204zM714 1169l-212 -180l-141 77l314 292h139l220 -292l-165 -77z" />
    <glyph glyph-name="uni1EA6" unicode="&#x1ea6;" horiz-adv-x="1292" 
d="M1031 1841l212 105l184 -325l-147 -77zM901 1612l-212 -180l-141 77l314 292h139l220 -292l-165 -77zM512 550h440l-126 595zM408 352l-185 -352h-223l731 1365h262l299 -1365h-224l-75 352h-585z" />
    <glyph glyph-name="uni1EA7" unicode="&#x1ea7;" horiz-adv-x="1117" 
d="M742 1528l212 105l184 -324l-147 -78zM714 1169l-212 -180l-141 77l314 292h139l220 -292l-165 -77zM647 750q-131 0 -223 -104q-93 -104 -93 -253q0 -109 60 -170q64 -66 167 -66q152 0 246 127q73 98 73 234q0 105 -59 167q-62 65 -171 65zM1001 0h-204l12 79
q-155 -107 -295 -107q-116 0 -211 61q-180 115 -180 343q0 175 109 323q82 112 204 176q116 61 236 61q134 0 256 -107l13 79h204z" />
    <glyph glyph-name="uni1EA8" unicode="&#x1ea8;" horiz-adv-x="1292" 
d="M512 550h440l-126 595zM408 352l-185 -352h-223l731 1365h262l299 -1365h-224l-75 352h-585zM1140 1616q16 33 36 57l24 28q29 34 29 46q0 22 -30 22q-34 0 -101 -22l-36 152q106 39 184 39q39 0 72 -10t56 -29t36 -45t13 -57q0 -68 -57 -138l-39 -49q-16 -20 -20 -60
h-117l31 -42l-165 -76l-155 180l-212 -180l-141 76l314 293h139z" />
    <glyph glyph-name="uni1EA9" unicode="&#x1ea9;" horiz-adv-x="1117" 
d="M647 750q-131 0 -223 -104q-93 -104 -93 -253q0 -109 60 -170q64 -66 167 -66q152 0 246 127q73 98 73 234q0 105 -59 167q-62 65 -171 65zM1001 0h-204l12 79q-155 -107 -295 -107q-116 0 -211 61q-180 115 -180 343q0 175 109 323q82 112 204 176q116 61 236 61
q134 0 256 -107l13 79h204zM897 1248q15 71 51 113l24 28q30 34 30 46q0 23 -30 23q-32 0 -101 -23l-36 152q106 39 183 39q40 0 72.5 -10t56 -29t36 -45t12.5 -57q0 -67 -56 -138l-39 -49q-16 -20 -20 -60h-176l130 -173l-165 -76l-155 180l-212 -180l-141 76l314 293h139z
" />
    <glyph glyph-name="uni1EAA" unicode="&#x1eaa;" horiz-adv-x="1292" 
d="M1271 2007q-53 -221 -224 -221q-73 0 -143 42q-43 25 -71 27h-1q-21 0 -46 -78l-160 39q59 221 226 221q67 0 147 -46q41 -23 67 -23q23 0 42 79zM895 1573l-212 -181l-141 77l313 293h140l220 -293l-165 -77zM512 550h440l-126 595zM408 352l-185 -352h-223l731 1365
h262l299 -1365h-224l-75 352h-585z" />
    <glyph glyph-name="uni1EAB" unicode="&#x1eab;" horiz-adv-x="1117" 
d="M714 1169l-212 -180l-141 77l313 292h140l220 -292l-165 -77zM1093 1626q-53 -221 -223 -221q-74 0 -144 42q-43 25 -70 27h-1q-23 0 -47 -78l-160 39q59 221 227 221q64 0 146 -46q43 -23 68 -23q21 0 41 78zM647 750q-131 0 -223 -104q-93 -104 -93 -253
q0 -109 60 -170q64 -66 167 -66q152 0 246 127q73 98 73 234q0 105 -59 167q-62 65 -171 65zM1001 0h-204l12 79q-155 -107 -295 -107q-116 0 -211 61q-180 115 -180 343q0 175 109 323q82 112 204 176q116 61 236 61q134 0 256 -107l13 79h204z" />
    <glyph glyph-name="uni1EAC" unicode="&#x1eac;" horiz-adv-x="1292" 
d="M631 -97q48 0 80 -31t32 -79q0 -44 -29 -85q-48 -65 -124 -65q-49 0 -81 31t-32 79q0 60 47 105q46 45 107 45zM901 1612l-212 -180l-141 77l314 292h139l220 -292l-165 -77zM512 550h440l-126 595zM408 352l-185 -352h-223l731 1365h262l299 -1365h-224l-75 352h-585z
" />
    <glyph glyph-name="uni1EAD" unicode="&#x1ead;" horiz-adv-x="1117" 
d="M720 1203l-213 -180l-141 76l314 293h139l221 -293l-165 -76zM522 -97q24 0 44.5 -8.5t35.5 -23t23.5 -34.5t8.5 -44q0 -44 -29 -85q-48 -65 -124 -65q-51 0 -82 31t-31 79q0 60 47 105q46 45 107 45zM647 750q-131 0 -223 -104q-93 -104 -93 -253q0 -109 60 -170
q64 -66 167 -66q152 0 246 127q73 98 73 234q0 105 -59 167q-62 65 -171 65zM1001 0h-204l12 79q-155 -107 -295 -107q-116 0 -211 61q-180 115 -180 343q0 175 109 323q82 112 204 176q116 61 236 61q134 0 256 -107l13 79h204z" />
    <glyph glyph-name="uni1EAE" unicode="&#x1eae;" horiz-adv-x="1292" 
d="M512 550h440l-126 595zM408 352l-185 -352h-223l731 1365h262l299 -1365h-224l-75 352h-585zM785 1735l285 322l178 -105l-343 -297l-105 67q-2 -17 -3 -29.5t-1 -21.5q0 -42 27.5 -69t70.5 -27q72 0 116 71q13 19 33 90l175 -14q-14 -52 -29.5 -90.5t-32.5 -64.5
q-111 -166 -290 -166q-133 0 -203 93q-49 64 -49 142q0 12 2 33.5t6 52.5z" />
    <glyph glyph-name="uni1EAF" unicode="&#x1eaf;" horiz-adv-x="1117" 
d="M1085 1574l-342 -297l-123 77l287 324zM623 1329q-6 -50 -6 -65q0 -43 26.5 -69.5t71.5 -26.5q72 0 117 71q13 21 33 89l174 -14q-14 -52 -29.5 -90.5t-32.5 -64.5q-111 -165 -289 -165q-133 0 -204 92q-49 65 -49 143q0 25 9 85zM647 750q-131 0 -223 -104
q-93 -104 -93 -253q0 -109 60 -170q64 -66 167 -66q152 0 246 127q73 98 73 234q0 105 -59 167q-62 65 -171 65zM1001 0h-204l12 79q-155 -107 -295 -107q-116 0 -211 61q-180 115 -180 343q0 175 109 323q82 112 204 176q116 61 236 61q134 0 256 -107l13 79h204z" />
    <glyph glyph-name="uni1EB0" unicode="&#x1eb0;" horiz-adv-x="1292" 
d="M512 550h440l-126 595zM408 352l-185 -352h-223l731 1365h262l299 -1365h-224l-75 352h-585zM1041 1729l-140 -74l-249 297l212 105l182 -321l172 -14q-14 -52 -29.5 -90.5t-32.5 -64.5q-111 -166 -290 -166q-133 0 -203 93q-49 64 -49 142q0 12 2 33.5t6 52.5l179 14
q-1 -19 -3 -28q-1 -11 -1.5 -20.5t-0.5 -16.5q0 -42 27 -69t70 -27q54 0 88.5 35.5t57.5 113.5z" />
    <glyph glyph-name="uni1EB1" unicode="&#x1eb1;" horiz-adv-x="1117" 
d="M472 1574l211 104l184 -324l-147 -77zM623 1329q-6 -50 -6 -65q0 -43 26.5 -69.5t71.5 -26.5q72 0 117 71q13 21 33 89l174 -14q-14 -52 -29.5 -90.5t-32.5 -64.5q-111 -165 -289 -165q-133 0 -204 92q-49 65 -49 143q0 25 9 85zM647 750q-131 0 -223 -104
q-93 -104 -93 -253q0 -109 60 -170q64 -66 167 -66q152 0 246 127q73 98 73 234q0 105 -59 167q-62 65 -171 65zM1001 0h-204l12 79q-155 -107 -295 -107q-116 0 -211 61q-180 115 -180 343q0 175 109 323q82 112 204 176q116 61 236 61q134 0 256 -107l13 79h204z" />
    <glyph glyph-name="uni1EB2" unicode="&#x1eb2;" horiz-adv-x="1292" 
d="M512 550h440l-126 595zM408 352l-185 -352h-223l731 1365h262l299 -1365h-224l-75 352h-585zM751 2039q108 38 184 38q39 0 71.5 -10t56 -29t36 -45t12.5 -57q0 -66 -56 -137l-39 -49q-15 -18 -21 -60h-184q15 77 53 123l24 27q30 34 30 46q0 23 -30 23q-35 0 -101 -22z
M802 1744l-3 -33q-1 -10 -1.5 -18t-0.5 -15q0 -42 27.5 -68t70.5 -26q72 0 117 71q6 10 14 32t18 57l175 -14q-14 -53 -29.5 -91.5t-32.5 -63.5q-111 -166 -289 -166q-134 0 -204 93q-49 64 -49 142q0 13 2 34t6 52z" />
    <glyph glyph-name="uni1EB3" unicode="&#x1eb3;" horiz-adv-x="1117" 
d="M579 1677q109 39 185 39q39 0 71.5 -10t56 -29t36 -45t12.5 -57q0 -66 -56 -137l-40 -50q-14 -19 -20 -59h-184q5 25 10 43t10 29q8 21 33 50l24 28q30 34 30 46q0 23 -30 23q-29 0 -101 -23zM623 1329q-6 -50 -6 -65q0 -43 26.5 -69.5t71.5 -26.5q72 0 117 71
q13 21 33 89l174 -14q-14 -52 -29.5 -90.5t-32.5 -64.5q-111 -165 -289 -165q-133 0 -204 92q-49 65 -49 143q0 25 9 85zM647 750q-131 0 -223 -104q-93 -104 -93 -253q0 -109 60 -170q64 -66 167 -66q152 0 246 127q73 98 73 234q0 105 -59 167q-62 65 -171 65zM1001 0
h-204l12 79q-155 -107 -295 -107q-116 0 -211 61q-180 115 -180 343q0 175 109 323q82 112 204 176q116 61 236 61q134 0 256 -107l13 79h204z" />
    <glyph glyph-name="uni1EB4" unicode="&#x1eb4;" horiz-adv-x="1292" 
d="M801 1744q-1 -19 -3 -28q-1 -11 -1.5 -20.5t-0.5 -16.5q0 -42 27.5 -68.5t70.5 -26.5q72 0 116 71q14 20 33 89l174 -14q-28 -106 -61 -155q-111 -166 -289 -166q-134 0 -204 93q-49 64 -49 143q0 12 2 33t6 52zM1271 2007q-53 -221 -224 -221q-73 0 -143 42
q-43 25 -71 27h-1q-21 0 -46 -78l-160 39q59 221 226 221q67 0 147 -46q41 -23 67 -23q23 0 42 79zM512 550h440l-126 595zM408 352l-185 -352h-223l731 1365h262l299 -1365h-224l-75 352h-585z" />
    <glyph glyph-name="uni1EB5" unicode="&#x1eb5;" horiz-adv-x="1117" 
d="M621 1340q-2 -25 -3.5 -41t-1.5 -24q0 -43 26.5 -69.5t71.5 -26.5q72 0 117 71q5 10 13 32.5t19 57.5l175 -14q-28 -104 -62 -155q-111 -166 -289 -166q-134 0 -204 93q-49 64 -49 142q0 13 2 34t6 52zM1094 1626q-53 -221 -224 -221q-73 0 -143 42q-43 25 -71 27h-1
q-21 0 -46 -78l-160 39q59 221 226 221q65 0 147 -46q43 -23 68 -23q21 0 41 78zM647 750q-131 0 -223 -104q-93 -104 -93 -253q0 -109 60 -170q64 -66 167 -66q152 0 246 127q73 98 73 234q0 105 -59 167q-62 65 -171 65zM1001 0h-204l12 79q-155 -107 -295 -107
q-116 0 -211 61q-180 115 -180 343q0 175 109 323q82 112 204 176q116 61 236 61q134 0 256 -107l13 79h204z" />
    <glyph glyph-name="uni1EB6" unicode="&#x1eb6;" horiz-adv-x="1292" 
d="M806 1773q-1 -17 -3 -29q-3 -23 -3 -36q0 -43 26.5 -69.5t71.5 -26.5q70 0 117 71q6 10 14 32t18 57l175 -14q-28 -105 -62 -155q-111 -165 -289 -165q-134 0 -204 93q-49 64 -49 142q0 23 9 85zM631 -97q48 0 80 -31t32 -79q0 -44 -29 -85q-48 -65 -124 -65
q-49 0 -81 31t-32 79q0 60 47 105q46 45 107 45zM512 550h440l-126 595zM408 352l-185 -352h-223l731 1365h262l299 -1365h-224l-75 352h-585z" />
    <glyph glyph-name="uni1EB7" unicode="&#x1eb7;" horiz-adv-x="1117" 
d="M624 1363q-2 -25 -3.5 -41t-1.5 -24q0 -42 26.5 -68.5t71.5 -26.5q72 0 116 71q12 18 33 89l175 -15q-29 -104 -62 -154q-112 -166 -289 -166q-134 0 -204 93q-49 64 -49 143q0 13 2 34.5t6 50.5zM522 -97q24 0 44.5 -8.5t35.5 -23t23.5 -34.5t8.5 -44q0 -44 -29 -85
q-48 -65 -124 -65q-51 0 -82 31t-31 79q0 60 47 105q46 45 107 45zM647 750q-131 0 -223 -104q-93 -104 -93 -253q0 -109 60 -170q64 -66 167 -66q152 0 246 127q73 98 73 234q0 105 -59 167q-62 65 -171 65zM1001 0h-204l12 79q-155 -107 -295 -107q-116 0 -211 61
q-180 115 -180 343q0 175 109 323q82 112 204 176q116 61 236 61q134 0 256 -107l13 79h204z" />
    <glyph glyph-name="uni1EB8" unicode="&#x1eb8;" horiz-adv-x="984" 
d="M544 -97q24 0 44.5 -8.5t35.5 -23t23.5 -34.5t8.5 -44q0 -59 -46 -105q-47 -45 -109 -45q-48 0 -79.5 31.5t-31.5 79.5q0 59 47 104q46 45 107 45zM1077 1169h-529l-60 -378h470l-31 -198h-470l-63 -395h549l-31 -198h-762l216 1365h743z" />
    <glyph glyph-name="uni1EB9" unicode="&#x1eb9;" horiz-adv-x="1012" 
d="M505 -97q24 0 44.5 -8.5t35.5 -23t23.5 -34.5t8.5 -44q0 -58 -47 -105q-47 -45 -108 -45q-48 0 -79.5 31.5t-31.5 79.5q0 59 47 104q46 45 107 45zM836 534q-8 86 -42 140q-52 82 -162 82q-94 0 -167.5 -58t-112.5 -164h484zM328 376q3 -70 32 -124q56 -95 188 -95
q36 0 71 8.5t67.5 23.5t60.5 36.5t49 48.5l13.5 18t9.5 11l164 -73q-194 -258 -465 -258q-211 0 -320 151q-75 103 -75 252q0 179 113 334q40 55 88.5 97t105.5 73q110 58 230 58q113 0 205 -57q167 -104 167 -347q0 -57 -18 -157h-686z" />
    <glyph glyph-name="uni1EBA" unicode="&#x1eba;" horiz-adv-x="984" 
d="M627 1799q108 38 183 38q39 0 72 -10t56 -29t36 -45t13 -57q0 -66 -56 -137l-39 -49q-16 -20 -20 -60h-184q9 52 19 73q9 22 33 50l24 27q30 34 30 47q0 22 -30 22q-35 0 -101 -22zM1077 1169h-529l-60 -378h470l-31 -198h-470l-63 -395h549l-31 -198h-762l216 1365h743z
" />
    <glyph glyph-name="uni1EBB" unicode="&#x1ebb;" horiz-adv-x="1012" 
d="M542 1377q108 38 184 38q39 0 71.5 -10t56 -28.5t36 -44.5t12.5 -57q0 -67 -56 -138l-39 -49q-16 -19 -20 -60h-184q11 53 19 73q10 23 34 50l24 27q29 35 29 46q0 23 -30 23q-34 0 -101 -22zM836 534q-8 86 -42 140q-52 82 -162 82q-94 0 -167.5 -58t-112.5 -164h484z
M328 376q3 -70 32 -124q56 -95 188 -95q36 0 71 8.5t67.5 23.5t60.5 36.5t49 48.5l13.5 18t9.5 11l164 -73q-194 -258 -465 -258q-211 0 -320 151q-75 103 -75 252q0 179 113 334q40 55 88.5 97t105.5 73q110 58 230 58q113 0 205 -57q167 -104 167 -347q0 -57 -18 -157
h-686z" />
    <glyph glyph-name="uni1EBC" unicode="&#x1ebc;" horiz-adv-x="984" 
d="M1070 1715q-53 -221 -224 -221q-72 0 -144 42q-43 25 -70 27h-1q-21 0 -47 -78l-159 39q22 90 68 145q61 76 158 76q64 0 146 -46q43 -23 68 -23q22 0 42 78zM1077 1169h-529l-60 -378h470l-31 -198h-470l-63 -395h549l-31 -198h-762l216 1365h743z" />
    <glyph glyph-name="uni1EBD" unicode="&#x1ebd;" horiz-adv-x="1012" 
d="M1020 1305q-51 -221 -223 -221q-74 0 -144 42q-43 25 -70 27h-1q-21 0 -47 -78l-159 39q22 90 68 145q61 76 158 76q64 0 146 -46q43 -23 68 -23q21 0 41 78zM836 534q-8 86 -42 140q-52 82 -162 82q-94 0 -167.5 -58t-112.5 -164h484zM328 376q3 -70 32 -124
q56 -95 188 -95q36 0 71 8.5t67.5 23.5t60.5 36.5t49 48.5l13.5 18t9.5 11l164 -73q-194 -258 -465 -258q-211 0 -320 151q-75 103 -75 252q0 179 113 334q40 55 88.5 97t105.5 73q110 58 230 58q113 0 205 -57q167 -104 167 -347q0 -57 -18 -157h-686z" />
    <glyph glyph-name="uni1EBE" unicode="&#x1ebe;" horiz-adv-x="984" 
d="M1077 1169h-529l-60 -378h470l-31 -198h-470l-63 -395h549l-31 -198h-762l216 1365h743zM1022 1590l61 -81l-164 -77l-156 180l-212 -180l-141 77l314 292h139l65 -87l204 231l179 -105z" />
    <glyph glyph-name="uni1EBF" unicode="&#x1ebf;" horiz-adv-x="1012" 
d="M836 534q-8 86 -42 140q-52 82 -162 82q-94 0 -167.5 -58t-112.5 -164h484zM328 376q3 -70 32 -124q56 -95 188 -95q36 0 71 8.5t67.5 23.5t60.5 36.5t49 48.5l13.5 18t9.5 11l164 -73q-194 -258 -465 -258q-211 0 -320 151q-75 103 -75 252q0 179 113 334q40 55 88.5 97
t105.5 73q110 58 230 58q113 0 205 -57q167 -104 167 -347q0 -57 -18 -157h-686zM695 1169l-212 -180l-141 77l313 292h140l220 -292l-165 -77zM1328 1528l-342 -297l-123 78l287 324z" />
    <glyph glyph-name="uni1EC0" unicode="&#x1ec0;" horiz-adv-x="984" 
d="M763 1612l-212 -180l-141 77l314 292h139l220 -292l-165 -77zM893 1841l212 105l184 -325l-147 -77zM1077 1169h-529l-60 -378h470l-31 -198h-470l-63 -395h549l-31 -198h-762l216 1365h743z" />
    <glyph glyph-name="uni1EC1" unicode="&#x1ec1;" horiz-adv-x="1012" 
d="M695 1169l-212 -180l-141 77l313 292h140l220 -292l-165 -77zM723 1528l212 105l184 -324l-147 -78zM836 534q-8 86 -42 140q-52 82 -162 82q-94 0 -167.5 -58t-112.5 -164h484zM328 376q3 -70 32 -124q56 -95 188 -95q36 0 71 8.5t67.5 23.5t60.5 36.5t49 48.5l13.5 18
t9.5 11l164 -73q-194 -258 -465 -258q-211 0 -320 151q-75 103 -75 252q0 179 113 334q40 55 88.5 97t105.5 73q110 58 230 58q113 0 205 -57q167 -104 167 -347q0 -57 -18 -157h-686z" />
    <glyph glyph-name="uni1EC2" unicode="&#x1ec2;" horiz-adv-x="984" 
d="M1077 1169h-529l-60 -378h470l-31 -198h-470l-63 -395h549l-31 -198h-762l216 1365h743zM1002 1617q14 31 36 56l24 28q29 34 29 46q0 22 -30 22q-34 0 -101 -22l-36 152q106 39 184 39q40 0 72.5 -10t56 -29t36 -45t12.5 -57q0 -67 -56 -138l-40 -49q-16 -20 -20 -60
h-117l31 -42l-164 -76l-156 180l-212 -180l-141 76l314 293h139z" />
    <glyph glyph-name="uni1EC3" unicode="&#x1ec3;" horiz-adv-x="1012" 
d="M836 534q-8 86 -42 140q-52 82 -162 82q-94 0 -167.5 -58t-112.5 -164h484zM328 376q3 -70 32 -124q56 -95 188 -95q36 0 71 8.5t67.5 23.5t60.5 36.5t49 48.5l13.5 18t9.5 11l164 -73q-194 -258 -465 -258q-211 0 -320 151q-75 103 -75 252q0 179 113 334q40 55 88.5 97
t105.5 73q110 58 230 58q113 0 205 -57q167 -104 167 -347q0 -57 -18 -157h-686zM877 1248q17 72 52 113l24 28q30 34 30 46q0 23 -30 23t-101 -23l-36 152q106 39 183 39q39 0 72 -10t56 -29t36 -45t13 -57q0 -67 -56 -138l-40 -49q-16 -20 -20 -60h-175l130 -173l-165 -76
l-155 180l-212 -180l-141 76l313 293h140z" />
    <glyph glyph-name="uni1EC4" unicode="&#x1ec4;" horiz-adv-x="984" 
d="M1133 2007q-51 -221 -223 -221q-74 0 -144 42q-47 27 -71 27q-6 0 -11.5 -3t-10.5 -11.5t-11 -24t-14 -39.5l-160 39q59 221 227 221q66 0 146 -46q41 -23 68 -23q22 0 41 79zM757 1573l-212 -181l-141 77l313 293h140l220 -293l-165 -77zM1077 1169h-529l-60 -378h470
l-31 -198h-470l-63 -395h549l-31 -198h-762l216 1365h743z" />
    <glyph glyph-name="uni1EC5" unicode="&#x1ec5;" horiz-adv-x="1012" 
d="M695 1169l-212 -180l-141 77l313 292h140l220 -292l-165 -77zM1075 1626q-53 -221 -224 -221q-74 0 -144 42q-43 25 -70 27h-1q-21 0 -47 -78l-159 39q59 221 226 221q64 0 146 -46q43 -23 68 -23q21 0 41 78zM836 534q-8 86 -42 140q-52 82 -162 82q-94 0 -167.5 -58
t-112.5 -164h484zM328 376q3 -70 32 -124q56 -95 188 -95q36 0 71 8.5t67.5 23.5t60.5 36.5t49 48.5l13.5 18t9.5 11l164 -73q-194 -258 -465 -258q-211 0 -320 151q-75 103 -75 252q0 179 113 334q40 55 88.5 97t105.5 73q110 58 230 58q113 0 205 -57q167 -104 167 -347
q0 -57 -18 -157h-686z" />
    <glyph glyph-name="uni1EC6" unicode="&#x1ec6;" horiz-adv-x="984" 
d="M787 1612l-212 -180l-141 77l314 292h139l220 -292l-165 -77zM544 -97q24 0 44.5 -8.5t35.5 -23t23.5 -34.5t8.5 -44q0 -59 -46 -105q-47 -45 -109 -45q-48 0 -79.5 31.5t-31.5 79.5q0 59 47 104q46 45 107 45zM1077 1169h-529l-60 -378h470l-31 -198h-470l-63 -395h549
l-31 -198h-762l216 1365h743z" />
    <glyph glyph-name="uni1EC7" unicode="&#x1ec7;" horiz-adv-x="1012" 
d="M707 1203l-212 -180l-141 76l313 293h140l220 -293l-165 -76zM505 -97q24 0 44.5 -8.5t35.5 -23t23.5 -34.5t8.5 -44q0 -58 -47 -105q-47 -45 -108 -45q-48 0 -79.5 31.5t-31.5 79.5q0 59 47 104q46 45 107 45zM836 534q-8 86 -42 140q-52 82 -162 82q-94 0 -167.5 -58
t-112.5 -164h484zM328 376q3 -70 32 -124q56 -95 188 -95q36 0 71 8.5t67.5 23.5t60.5 36.5t49 48.5l13.5 18t9.5 11l164 -73q-194 -258 -465 -258q-211 0 -320 151q-75 103 -75 252q0 179 113 334q40 55 88.5 97t105.5 73q110 58 230 58q113 0 205 -57q167 -104 167 -347
q0 -57 -18 -157h-686z" />
    <glyph glyph-name="uni1EC8" unicode="&#x1ec8;" horiz-adv-x="513" 
d="M350 1799q108 38 184 38q81 0 129 -38.5t48 -102.5q0 -66 -56 -137l-40 -49q-14 -19 -20 -60h-184q5 26 10 44t10 29q9 22 33 50l24 27q30 34 30 47q0 22 -30 22q-35 0 -102 -22zM579 1365l-217 -1365h-212l216 1365h213z" />
    <glyph glyph-name="uni1EC9" unicode="&#x1ec9;" horiz-adv-x="436" 
d="M244 1377q109 38 184 38q40 0 72.5 -10t56 -28.5t36 -44.5t12.5 -57q0 -67 -56 -138l-40 -49q-16 -20 -20 -60h-183q9 51 19 72q9 22 33 51l24 27q29 35 29 46q0 23 -30 23q-34 0 -100 -22zM464 908l-144 -908h-204l144 908h204z" />
    <glyph glyph-name="uni1ECA" unicode="&#x1eca;" horiz-adv-x="513" 
d="M242 -97q24 0 44.5 -8.5t35.5 -23t23.5 -34.5t8.5 -44q0 -44 -29 -85q-48 -65 -124 -65q-51 0 -82 31t-31 79q0 60 47 105q46 45 107 45zM579 1365l-216 -1365h-213l217 1365h212z" />
    <glyph glyph-name="uni1ECB" unicode="&#x1ecb;" horiz-adv-x="436" 
d="M204 -97q24 0 44.5 -8.5t35.5 -23t23.5 -34.5t8.5 -44q0 -58 -46 -104t-107 -46q-49 0 -81 31t-32 80q0 59 47 104q46 45 107 45zM432 1344q49 0 81 -31t32 -79q0 -60 -47 -105q-46 -46 -110 -46q-48 0 -79.5 31.5t-31.5 80.5q0 59 47 104q46 45 108 45zM464 908
l-143 -908h-205l144 908h204z" />
    <glyph glyph-name="uni1ECC" unicode="&#x1ecc;" horiz-adv-x="1562" 
d="M766 -97q24 0 44.5 -8.5t35.5 -23t23.5 -34.5t8.5 -44q0 -44 -29 -85q-48 -65 -124 -65q-49 0 -81 31t-32 79q0 60 47 105q46 45 107 45zM973 1193q-188 0 -348 -127q-110 -86 -173 -212t-63 -257q0 -180 119 -302q121 -123 295 -123q187 0 351 128q110 86 173 210
q62 124 62 255q0 180 -113 302q-68 70 -162 102q-74 24 -141 24zM1008 1393q183 0 328 -94q149 -97 222 -262q49 -113 49 -245q0 -246 -162 -466q-122 -164 -302 -259q-182 -95 -374 -95q-260 0 -434 182q-163 169 -163 418q0 253 161 465q126 168 304 262t371 94z" />
    <glyph glyph-name="uni1ECD" unicode="&#x1ecd;" horiz-adv-x="1070" 
d="M520 -97q24 0 44.5 -8.5t35.5 -23t23.5 -34.5t8.5 -44q0 -59 -46 -105q-47 -45 -109 -45q-48 0 -79.5 31.5t-31.5 79.5q0 59 47 104q46 45 107 45zM648 751q-132 0 -224 -104q-93 -105 -93 -253q0 -110 60 -171q64 -66 168 -66q156 0 251 129q73 97 73 232q0 104 -59 166
q-64 67 -176 67zM689 936q208 0 325 -157q77 -104 77 -247q0 -173 -110 -324q-82 -112 -204 -175q-118 -61 -248 -61q-212 0 -328 155q-78 105 -78 250q0 185 122 340q68 87 161 141q130 78 283 78z" />
    <glyph glyph-name="uni1ECE" unicode="&#x1ece;" horiz-adv-x="1562" 
d="M877 1799q108 38 184 38q39 0 71.5 -10t56 -29t36 -45t12.5 -57q0 -66 -56 -137l-39 -49q-16 -20 -20 -60h-184q9 52 19 73q10 23 34 50l23 27q30 34 30 47q0 22 -30 22q-35 0 -101 -22zM973 1193q-188 0 -348 -127q-110 -86 -173 -212t-63 -257q0 -180 119 -302
q121 -123 295 -123q187 0 351 128q110 86 173 210q62 124 62 255q0 180 -113 302q-68 70 -162 102q-74 24 -141 24zM1008 1393q183 0 328 -94q149 -97 222 -262q49 -113 49 -245q0 -246 -162 -466q-122 -164 -302 -259q-182 -95 -374 -95q-260 0 -434 182q-163 169 -163 418
q0 253 161 465q126 168 304 262t371 94z" />
    <glyph glyph-name="uni1ECF" unicode="&#x1ecf;" horiz-adv-x="1070" 
d="M564 1377q108 38 183 38q40 0 72.5 -10t56 -28.5t36 -44.5t12.5 -57q0 -67 -56 -138l-40 -49q-15 -20 -19 -60h-184q11 53 19 73q9 22 33 50l24 27q30 34 30 46q0 23 -30 23q-34 0 -101 -22zM648 751q-132 0 -224 -104q-93 -105 -93 -253q0 -110 60 -171q64 -66 168 -66
q156 0 251 129q73 97 73 232q0 104 -59 166q-64 67 -176 67zM689 936q208 0 325 -157q77 -104 77 -247q0 -173 -110 -324q-82 -112 -204 -175q-118 -61 -248 -61q-212 0 -328 155q-78 105 -78 250q0 185 122 340q68 87 161 141q130 78 283 78z" />
    <glyph glyph-name="uni1ED0" unicode="&#x1ed0;" horiz-adv-x="1562" 
d="M973 1193q-188 0 -348 -127q-110 -86 -173 -212t-63 -257q0 -180 119 -302q121 -123 295 -123q187 0 351 128q110 86 173 210q62 124 62 255q0 180 -113 302q-68 70 -162 102q-74 24 -141 24zM1008 1393q183 0 328 -94q149 -97 222 -262q49 -113 49 -245
q0 -246 -162 -466q-122 -164 -302 -259q-182 -95 -374 -95q-260 0 -434 182q-163 169 -163 418q0 253 161 465q126 168 304 262t371 94zM1295 1590l61 -81l-165 -77l-156 173l-211 -173l-141 77l314 292h139l65 -87l205 231l178 -105z" />
    <glyph glyph-name="uni1ED1" unicode="&#x1ed1;" horiz-adv-x="1070" 
d="M1353 1528l-342 -297l-123 78l287 324zM720 1169l-212 -180l-141 77l313 292h140l220 -292l-165 -77zM648 751q-132 0 -224 -104q-93 -105 -93 -253q0 -110 60 -171q64 -66 168 -66q156 0 251 129q73 97 73 232q0 104 -59 166q-64 67 -176 67zM689 936q208 0 325 -157
q77 -104 77 -247q0 -173 -110 -324q-82 -112 -204 -175q-118 -61 -248 -61q-212 0 -328 155q-78 105 -78 250q0 185 122 340q68 87 161 141q130 78 283 78z" />
    <glyph glyph-name="uni1ED2" unicode="&#x1ed2;" horiz-adv-x="1562" 
d="M1167 1841l211 105l184 -325l-147 -77zM1036 1612l-212 -180l-141 77l314 292h139l220 -292l-165 -77zM973 1193q-188 0 -348 -127q-110 -86 -173 -212t-63 -257q0 -180 119 -302q121 -123 295 -123q187 0 351 128q110 86 173 210q62 124 62 255q0 180 -113 302
q-68 70 -162 102q-74 24 -141 24zM1008 1393q183 0 328 -94q149 -97 222 -262q49 -113 49 -245q0 -246 -162 -466q-122 -164 -302 -259q-182 -95 -374 -95q-260 0 -434 182q-163 169 -163 418q0 253 161 465q126 168 304 262t371 94z" />
    <glyph glyph-name="uni1ED3" unicode="&#x1ed3;" horiz-adv-x="1070" 
d="M748 1528l211 105l185 -324l-148 -78zM720 1169l-212 -180l-141 77l313 292h140l220 -292l-165 -77zM648 751q-132 0 -224 -104q-93 -105 -93 -253q0 -110 60 -171q64 -66 168 -66q156 0 251 129q73 97 73 232q0 104 -59 166q-64 67 -176 67zM689 936q208 0 325 -157
q77 -104 77 -247q0 -173 -110 -324q-82 -112 -204 -175q-118 -61 -248 -61q-212 0 -328 155q-78 105 -78 250q0 185 122 340q68 87 161 141q130 78 283 78z" />
    <glyph glyph-name="uni1ED4" unicode="&#x1ed4;" horiz-adv-x="1562" 
d="M973 1193q-188 0 -348 -127q-110 -86 -173 -212t-63 -257q0 -180 119 -302q121 -123 295 -123q187 0 351 128q110 86 173 210q62 124 62 255q0 180 -113 302q-68 70 -162 102q-74 24 -141 24zM1008 1393q183 0 328 -94q149 -97 222 -262q49 -113 49 -245
q0 -246 -162 -466q-122 -164 -302 -259q-182 -95 -374 -95q-260 0 -434 182q-163 169 -163 418q0 253 161 465q126 168 304 262t371 94zM1275 1617q14 31 36 56l24 28q30 34 30 46q0 22 -30 22q-34 0 -101 -22l-37 152q106 39 185 39q39 0 71.5 -10t56 -29t36 -45t12.5 -57
q0 -67 -56 -138l-40 -49q-16 -20 -20 -60h-117l32 -42l-165 -76l-155 180l-213 -180l-141 76l314 293h139z" />
    <glyph glyph-name="uni1ED5" unicode="&#x1ed5;" horiz-adv-x="1070" 
d="M648 751q-132 0 -224 -104q-93 -105 -93 -253q0 -110 60 -171q64 -66 168 -66q156 0 251 129q73 97 73 232q0 104 -59 166q-64 67 -176 67zM689 936q208 0 325 -157q77 -104 77 -247q0 -173 -110 -324q-82 -112 -204 -175q-118 -61 -248 -61q-212 0 -328 155
q-78 105 -78 250q0 185 122 340q68 87 161 141q130 78 283 78zM902 1248q17 72 52 113l24 28q29 35 29 46q0 23 -30 23t-101 -23l-36 152q106 39 184 39q40 0 72.5 -10t56 -29t36 -45t12.5 -57q0 -68 -57 -138l-39 -49q-16 -20 -20 -60h-175l130 -173l-165 -76l-155 180
l-212 -180l-141 76l313 293h140z" />
    <glyph glyph-name="uni1ED6" unicode="&#x1ed6;" horiz-adv-x="1562" 
d="M1406 2007q-51 -221 -223 -221q-74 0 -144 42q-47 27 -70 27q-7 0 -12.5 -3t-11 -11.5t-11 -24l-13.5 -39.5l-160 39q59 221 227 221q66 0 146 -46q41 -23 68 -23q22 0 41 79zM1030 1573l-212 -181l-141 77l313 293h140l220 -293l-165 -77zM973 1193q-188 0 -348 -127
q-110 -86 -173 -212t-63 -257q0 -180 119 -302q121 -123 295 -123q187 0 351 128q110 86 173 210q62 124 62 255q0 180 -113 302q-68 70 -162 102q-74 24 -141 24zM1008 1393q183 0 328 -94q149 -97 222 -262q49 -113 49 -245q0 -246 -162 -466q-122 -164 -302 -259
q-182 -95 -374 -95q-260 0 -434 182q-163 169 -163 418q0 253 161 465q126 168 304 262t371 94z" />
    <glyph glyph-name="uni1ED7" unicode="&#x1ed7;" horiz-adv-x="1070" 
d="M720 1169l-212 -180l-141 77l313 292h140l220 -292l-165 -77zM1099 1626q-53 -221 -224 -221q-73 0 -143 42q-43 25 -70 27h-1q-23 0 -47 -78l-159 39q57 221 226 221q64 0 146 -46q43 -23 68 -23q21 0 41 78zM648 751q-132 0 -224 -104q-93 -105 -93 -253
q0 -110 60 -171q64 -66 168 -66q156 0 251 129q73 97 73 232q0 104 -59 166q-64 67 -176 67zM689 936q208 0 325 -157q77 -104 77 -247q0 -173 -110 -324q-82 -112 -204 -175q-118 -61 -248 -61q-212 0 -328 155q-78 105 -78 250q0 185 122 340q68 87 161 141q130 78 283 78
z" />
    <glyph glyph-name="uni1ED8" unicode="&#x1ed8;" horiz-adv-x="1562" 
d="M766 -97q24 0 44.5 -8.5t35.5 -23t23.5 -34.5t8.5 -44q0 -44 -29 -85q-48 -65 -124 -65q-49 0 -81 31t-32 79q0 60 47 105q46 45 107 45zM1036 1612l-212 -180l-141 77l314 292h139l220 -292l-165 -77zM973 1193q-188 0 -348 -127q-110 -86 -173 -212t-63 -257
q0 -180 119 -302q121 -123 295 -123q187 0 351 128q110 86 173 210q62 124 62 255q0 180 -113 302q-68 70 -162 102q-74 24 -141 24zM1008 1393q183 0 328 -94q149 -97 222 -262q49 -113 49 -245q0 -246 -162 -466q-122 -164 -302 -259q-182 -95 -374 -95q-260 0 -434 182
q-163 169 -163 418q0 253 161 465q126 168 304 262t371 94z" />
    <glyph glyph-name="uni1ED9" unicode="&#x1ed9;" horiz-adv-x="1070" 
d="M725 1203l-212 -180l-141 76l314 293h139l220 -293l-165 -76zM520 -97q24 0 44.5 -8.5t35.5 -23t23.5 -34.5t8.5 -44q0 -59 -46 -105q-47 -45 -109 -45q-48 0 -79.5 31.5t-31.5 79.5q0 59 47 104q46 45 107 45zM648 751q-132 0 -224 -104q-93 -105 -93 -253
q0 -110 60 -171q64 -66 168 -66q156 0 251 129q73 97 73 232q0 104 -59 166q-64 67 -176 67zM689 936q208 0 325 -157q77 -104 77 -247q0 -173 -110 -324q-82 -112 -204 -175q-118 -61 -248 -61q-212 0 -328 155q-78 105 -78 250q0 185 122 340q68 87 161 141q130 78 283 78
z" />
    <glyph glyph-name="uni1EDA" unicode="&#x1eda;" horiz-adv-x="1576" 
d="M1354 1728l-343 -297l-122 78l287 324zM972 1193q-188 0 -348 -127q-108 -85 -172 -212q-63 -126 -63 -257q0 -180 119 -302q57 -58 135 -90.5t159 -32.5q187 0 351 128q111 87 172 210q62 124 62 255q0 181 -113 302q-66 70 -161 102q-74 24 -141 24zM1460 1192
q60 27 85.5 60t25.5 84q0 60 -84 140l165 77q103 -84 103 -197q0 -185 -204 -306q54 -123 54 -260q0 -246 -161 -464q-122 -164 -302 -259q-181 -95 -375 -95q-178 0 -327 95q-150 97 -220 259q-49 114 -49 246q0 244 161 465q121 165 305 262q179 94 373 94q208 0 372 -128
q20 -16 39.5 -34.5t38.5 -38.5z" />
    <glyph glyph-name="uni1EDB" unicode="&#x1edb;" horiz-adv-x="1155" 
d="M1014 1319l-342 -297l-123 77l287 324zM648 751q-132 0 -224 -104q-93 -105 -93 -253q0 -110 60 -171q64 -66 168 -66q156 0 251 129q73 97 73 232q0 104 -59 166q-64 67 -176 67zM1085 603q2 -20 3.5 -37.5t1.5 -33.5q0 -173 -110 -324q-83 -113 -203 -175
q-118 -61 -248 -61q-212 0 -328 155q-78 105 -78 250q0 172 110 323q79 109 199 173q120 63 253 63q178 0 291 -111q27 -27 50 -64q63 42 63 118q0 60 -84 140l165 77q103 -82 103 -197q0 -177 -188 -296z" />
    <glyph glyph-name="uni1EDC" unicode="&#x1edc;" horiz-adv-x="1576" 
d="M754 1728l211 105l185 -324l-148 -78zM972 1193q-188 0 -348 -127q-108 -85 -172 -212q-63 -126 -63 -257q0 -180 119 -302q57 -58 135 -90.5t159 -32.5q187 0 351 128q111 87 172 210q62 124 62 255q0 181 -113 302q-66 70 -161 102q-74 24 -141 24zM1460 1192
q60 27 85.5 60t25.5 84q0 60 -84 140l165 77q103 -84 103 -197q0 -185 -204 -306q54 -123 54 -260q0 -246 -161 -464q-122 -164 -302 -259q-181 -95 -375 -95q-178 0 -327 95q-150 97 -220 259q-49 114 -49 246q0 244 161 465q121 165 305 262q179 94 373 94q208 0 372 -128
q20 -16 39.5 -34.5t38.5 -38.5z" />
    <glyph glyph-name="uni1EDD" unicode="&#x1edd;" horiz-adv-x="1155" 
d="M444 1319l211 104l184 -324l-147 -77zM648 751q-132 0 -224 -104q-93 -105 -93 -253q0 -110 60 -171q64 -66 168 -66q156 0 251 129q73 97 73 232q0 104 -59 166q-64 67 -176 67zM1085 603q2 -20 3.5 -37.5t1.5 -33.5q0 -173 -110 -324q-83 -113 -203 -175
q-118 -61 -248 -61q-212 0 -328 155q-78 105 -78 250q0 172 110 323q79 109 199 173q120 63 253 63q178 0 291 -111q27 -27 50 -64q63 42 63 118q0 60 -84 140l165 77q103 -82 103 -197q0 -177 -188 -296z" />
    <glyph glyph-name="uni1EDE" unicode="&#x1ede;" horiz-adv-x="1576" 
d="M891 1799q108 38 184 38q39 0 71.5 -10t56 -29t36 -45t12.5 -57q0 -66 -56 -137l-39 -49q-16 -20 -20 -60h-184q9 52 19 73q9 22 33 50l24 27q30 34 30 47q0 22 -30 22q-35 0 -101 -22zM972 1193q-188 0 -348 -127q-108 -85 -172 -212q-63 -126 -63 -257q0 -180 119 -302
q57 -58 135 -90.5t159 -32.5q187 0 351 128q111 87 172 210q62 124 62 255q0 181 -113 302q-66 70 -161 102q-74 24 -141 24zM1460 1192q60 27 85.5 60t25.5 84q0 60 -84 140l165 77q103 -84 103 -197q0 -185 -204 -306q54 -123 54 -260q0 -246 -161 -464
q-122 -164 -302 -259q-181 -95 -375 -95q-178 0 -327 95q-150 97 -220 259q-49 114 -49 246q0 244 161 465q121 165 305 262q179 94 373 94q208 0 372 -128q20 -16 39.5 -34.5t38.5 -38.5z" />
    <glyph glyph-name="uni1EDF" unicode="&#x1edf;" horiz-adv-x="1155" 
d="M575 1377q108 38 184 38q39 0 71.5 -10t56 -28.5t36 -44.5t12.5 -57q0 -67 -56 -138l-39 -49q-16 -20 -20 -60h-184q5 25 10 43t10 29q9 22 33 51l24 27q29 35 29 46q0 23 -30 23q-34 0 -101 -22zM648 751q-132 0 -224 -104q-93 -105 -93 -253q0 -110 60 -171
q64 -66 168 -66q156 0 251 129q73 97 73 232q0 104 -59 166q-64 67 -176 67zM1085 603q2 -20 3.5 -37.5t1.5 -33.5q0 -173 -110 -324q-83 -113 -203 -175q-118 -61 -248 -61q-212 0 -328 155q-78 105 -78 250q0 172 110 323q79 109 199 173q120 63 253 63q178 0 291 -111
q27 -27 50 -64q63 42 63 118q0 60 -84 140l165 77q103 -82 103 -197q0 -177 -188 -296z" />
    <glyph glyph-name="uni1EE0" unicode="&#x1ee0;" horiz-adv-x="1576" 
d="M1358 1715q-51 -221 -224 -221q-73 0 -143 42q-43 25 -71 27h-1q-21 0 -46 -78l-160 39q24 91 69 145q61 76 158 76q64 0 146 -46q43 -23 68 -23q21 0 41 78zM972 1193q-188 0 -348 -127q-108 -85 -172 -212q-63 -126 -63 -257q0 -180 119 -302q57 -58 135 -90.5
t159 -32.5q187 0 351 128q111 87 172 210q62 124 62 255q0 181 -113 302q-66 70 -161 102q-74 24 -141 24zM1460 1192q60 27 85.5 60t25.5 84q0 60 -84 140l165 77q103 -84 103 -197q0 -185 -204 -306q54 -123 54 -260q0 -246 -161 -464q-122 -164 -302 -259
q-181 -95 -375 -95q-178 0 -327 95q-150 97 -220 259q-49 114 -49 246q0 244 161 465q121 165 305 262q179 94 373 94q208 0 372 -128q20 -16 39.5 -34.5t38.5 -38.5z" />
    <glyph glyph-name="uni1EE1" unicode="&#x1ee1;" horiz-adv-x="1155" 
d="M1048 1305q-51 -221 -223 -221q-74 0 -144 42q-47 27 -70 27t-48 -78l-159 39q22 90 68 145q61 76 158 76q64 0 146 -46q43 -23 68 -23q21 0 41 78zM648 751q-132 0 -224 -104q-93 -105 -93 -253q0 -110 60 -171q64 -66 168 -66q156 0 251 129q73 97 73 232
q0 104 -59 166q-64 67 -176 67zM1085 603q2 -20 3.5 -37.5t1.5 -33.5q0 -173 -110 -324q-83 -113 -203 -175q-118 -61 -248 -61q-212 0 -328 155q-78 105 -78 250q0 172 110 323q79 109 199 173q120 63 253 63q178 0 291 -111q27 -27 50 -64q63 42 63 118q0 60 -84 140
l165 77q103 -82 103 -197q0 -177 -188 -296z" />
    <glyph glyph-name="uni1EE2" unicode="&#x1ee2;" horiz-adv-x="1576" 
d="M765 -97q24 0 44.5 -8.5t35.5 -23t23.5 -34.5t8.5 -44q0 -44 -29 -85q-48 -65 -124 -65q-51 0 -82 31t-31 79q0 60 47 105q46 45 107 45zM972 1193q-188 0 -348 -127q-108 -85 -172 -212q-63 -126 -63 -257q0 -180 119 -302q57 -58 135 -90.5t159 -32.5q187 0 351 128
q111 87 172 210q62 124 62 255q0 181 -113 302q-66 70 -161 102q-74 24 -141 24zM1460 1192q60 27 85.5 60t25.5 84q0 60 -84 140l165 77q103 -84 103 -197q0 -185 -204 -306q54 -123 54 -260q0 -246 -161 -464q-122 -164 -302 -259q-181 -95 -375 -95q-178 0 -327 95
q-150 97 -220 259q-49 114 -49 246q0 244 161 465q121 165 305 262q179 94 373 94q208 0 372 -128q20 -16 39.5 -34.5t38.5 -38.5z" />
    <glyph glyph-name="uni1EE3" unicode="&#x1ee3;" horiz-adv-x="1155" 
d="M520 -97q24 0 44.5 -8.5t35.5 -23t23.5 -34.5t8.5 -44q0 -59 -46 -105q-47 -45 -109 -45q-48 0 -79.5 31.5t-31.5 79.5q0 59 47 104q46 45 107 45zM648 751q-132 0 -224 -104q-93 -105 -93 -253q0 -110 60 -171q64 -66 168 -66q156 0 251 129q73 97 73 232q0 104 -59 166
q-64 67 -176 67zM1085 603q2 -20 3.5 -37.5t1.5 -33.5q0 -173 -110 -324q-83 -113 -203 -175q-118 -61 -248 -61q-212 0 -328 155q-78 105 -78 250q0 172 110 323q79 109 199 173q120 63 253 63q178 0 291 -111q27 -27 50 -64q63 42 63 118q0 60 -84 140l165 77
q103 -82 103 -197q0 -177 -188 -296z" />
    <glyph glyph-name="uni1EE4" unicode="&#x1ee4;" horiz-adv-x="1307" 
d="M639 -97q48 0 80 -31t32 -79q0 -59 -46 -105q-47 -45 -109 -45q-48 0 -79.5 31.5t-31.5 79.5q0 59 47 104q46 45 107 45zM366 1365h213l-133 -842q-15 -92 -15 -137q0 -87 56 -141q74 -73 192 -73q80 0 157 36q76 36 120 93q26 35 41 83q15 45 30 139l133 842h213
l-140 -881q-27 -172 -102 -272q-75 -102 -198 -167q-136 -73 -286 -73q-142 0 -260 73q-171 105 -171 307q0 32 3 64.5t8 67.5z" />
    <glyph glyph-name="uni1EE5" unicode="&#x1ee5;" horiz-adv-x="1043" 
d="M499 -97q48 0 80 -31t32 -79q0 -59 -46 -105q-47 -45 -109 -45q-48 0 -79.5 31.5t-31.5 79.5q0 59 47 104q46 45 107 45zM928 0h-205l11 66q-110 -94 -246 -94q-81 0 -150 32t-111 87q-57 75 -57 188q0 66 12 140l77 489h204l-75 -473q-5 -37 -8 -65.5t-3 -49.5
q0 -160 159 -160q60 0 111.5 23.5t81.5 65.5q44 62 66 205l72 454h204z" />
    <glyph glyph-name="uni1EE6" unicode="&#x1ee6;" horiz-adv-x="1307" 
d="M745 1799q108 38 184 38q39 0 71.5 -10t56 -29t36 -45t12.5 -57q0 -66 -56 -137l-39 -49q-16 -20 -20 -60h-184q11 53 19 73q10 23 34 50l24 27q29 35 29 47q0 22 -30 22q-35 0 -101 -22zM366 1365h213l-133 -842q-15 -92 -15 -137q0 -87 56 -141q74 -73 192 -73
q80 0 157 36q76 36 120 93q26 35 41 83q15 45 30 139l133 842h213l-140 -881q-27 -172 -102 -272q-75 -102 -198 -167q-136 -73 -286 -73q-142 0 -260 73q-171 105 -171 307q0 32 3 64.5t8 67.5z" />
    <glyph glyph-name="uni1EE7" unicode="&#x1ee7;" horiz-adv-x="1043" 
d="M546 1377q108 38 184 38q40 0 72.5 -10t56 -28.5t36 -44.5t12.5 -57q0 -67 -56 -138l-40 -49q-16 -20 -20 -60h-184q5 25 10 43t10 29q9 22 33 51l24 27q29 35 29 46q0 23 -30 23q-34 0 -101 -22zM928 0h-205l11 66q-110 -94 -246 -94q-81 0 -150 32t-111 87
q-57 75 -57 188q0 66 12 140l77 489h204l-75 -473q-5 -37 -8 -65.5t-3 -49.5q0 -160 159 -160q60 0 111.5 23.5t81.5 65.5q44 62 66 205l72 454h204z" />
    <glyph glyph-name="uni1EE8" unicode="&#x1ee8;" horiz-adv-x="1400" 
d="M1227 1728l-343 -297l-122 78l287 324zM1347 1204q87 49 87 132q0 62 -84 140l165 77q103 -82 103 -198q0 -114 -77.5 -204t-224.5 -145l-83 -522q-27 -170 -102 -272t-198 -167q-136 -73 -286 -73q-142 0 -260 73q-171 105 -171 307q0 32 3 64.5t8 67.5l139 881h213
l-133 -842q-15 -92 -15 -137q0 -87 56 -141q74 -73 191 -73q80 0 158 36q77 36 120 94q27 36 41 82q15 45 30 139l133 842h213z" />
    <glyph glyph-name="uni1EE9" unicode="&#x1ee9;" horiz-adv-x="1201" 
d="M1020 1319l-342 -297l-123 77l287 324zM1046 745q89 50 89 135q0 61 -84 139l165 77q103 -82 103 -198q0 -110 -76 -201q-77 -92 -208 -142l-10.5 -4l-10.5 -4l-86 -547h-205l11 66q-110 -94 -246 -94q-81 0 -150 32t-111 87q-57 75 -57 188q0 66 12 140l77 489h204
l-75 -473q-5 -37 -8 -65.5t-3 -49.5q0 -160 159 -160q60 0 111.5 23.5t81.5 65.5q44 62 66 205l72 454h204z" />
    <glyph glyph-name="uni1EEA" unicode="&#x1eea;" horiz-adv-x="1400" 
d="M627 1728l211 105l185 -324l-147 -78zM1347 1204q87 49 87 132q0 62 -84 140l165 77q103 -82 103 -198q0 -114 -77.5 -204t-224.5 -145l-83 -522q-27 -170 -102 -272t-198 -167q-136 -73 -286 -73q-142 0 -260 73q-171 105 -171 307q0 32 3 64.5t8 67.5l139 881h213
l-133 -842q-15 -92 -15 -137q0 -87 56 -141q74 -73 191 -73q80 0 158 36q77 36 120 94q27 36 41 82q15 45 30 139l133 842h213z" />
    <glyph glyph-name="uni1EEB" unicode="&#x1eeb;" horiz-adv-x="1201" 
d="M420 1319l212 104l184 -324l-147 -77zM1046 745q89 50 89 135q0 61 -84 139l165 77q103 -82 103 -198q0 -110 -76 -201q-77 -92 -208 -142l-10.5 -4l-10.5 -4l-86 -547h-205l11 66q-110 -94 -246 -94q-81 0 -150 32t-111 87q-57 75 -57 188q0 66 12 140l77 489h204
l-75 -473q-5 -37 -8 -65.5t-3 -49.5q0 -160 159 -160q60 0 111.5 23.5t81.5 65.5q44 62 66 205l72 454h204z" />
    <glyph glyph-name="uni1EEC" unicode="&#x1eec;" horiz-adv-x="1400" 
d="M760 1799q108 38 184 38q81 0 129 -38.5t48 -102.5q0 -67 -57 -137l-39 -49q-14 -19 -20 -60h-184q5 26 10 44t10 29q9 22 33 50l24 27q29 35 29 47q0 22 -30 22q-34 0 -101 -22zM1347 1204q87 49 87 132q0 62 -84 140l165 77q103 -82 103 -198q0 -114 -77.5 -204
t-224.5 -145l-83 -522q-27 -170 -102 -272t-198 -167q-136 -73 -286 -73q-142 0 -260 73q-171 105 -171 307q0 32 3 64.5t8 67.5l139 881h213l-133 -842q-15 -92 -15 -137q0 -87 56 -141q74 -73 191 -73q80 0 158 36q77 36 120 94q27 36 41 82q15 45 30 139l133 842h213z
" />
    <glyph glyph-name="uni1EED" unicode="&#x1eed;" horiz-adv-x="1201" 
d="M552 1377q108 38 183 38q40 0 72.5 -10t56 -28.5t36 -44.5t12.5 -57q0 -67 -56 -138l-40 -49q-15 -21 -19 -60h-184q9 51 19 72q9 22 33 51l24 27q30 34 30 46q0 23 -30 23q-34 0 -101 -22zM1046 745q89 50 89 135q0 61 -84 139l165 77q103 -82 103 -198q0 -110 -76 -201
q-77 -92 -208 -142l-10.5 -4l-10.5 -4l-86 -547h-205l11 66q-110 -94 -246 -94q-81 0 -150 32t-111 87q-57 75 -57 188q0 66 12 140l77 489h204l-75 -473q-5 -37 -8 -65.5t-3 -49.5q0 -160 159 -160q60 0 111.5 23.5t81.5 65.5q44 62 66 205l72 454h204z" />
    <glyph glyph-name="uni1EEE" unicode="&#x1eee;" horiz-adv-x="1400" 
d="M1234 1715q-53 -221 -224 -221q-73 0 -143 42q-45 25 -71 27h-1q-21 0 -46 -78l-160 39q22 90 68 145q61 76 158 76q64 0 146 -46q43 -23 69 -23q21 0 41 78zM1347 1204q87 49 87 132q0 62 -84 140l165 77q103 -82 103 -198q0 -114 -77.5 -204t-224.5 -145l-83 -522
q-27 -170 -102 -272t-198 -167q-136 -73 -286 -73q-142 0 -260 73q-171 105 -171 307q0 32 3 64.5t8 67.5l139 881h213l-133 -842q-15 -92 -15 -137q0 -87 56 -141q74 -73 191 -73q80 0 158 36q77 36 120 94q27 36 41 82q15 45 30 139l133 842h213z" />
    <glyph glyph-name="uni1EEF" unicode="&#x1eef;" horiz-adv-x="1201" 
d="M1036 1305q-51 -221 -224 -221q-73 0 -143 42q-47 27 -71 27q-6 0 -11 -3t-10 -11.5t-11 -24l-15 -39.5l-160 39q24 91 69 145q61 76 158 76q64 0 146 -46q43 -23 68 -23q21 0 41 78zM1046 745q89 50 89 135q0 61 -84 139l165 77q103 -82 103 -198q0 -110 -76 -201
q-77 -92 -208 -142l-10.5 -4l-10.5 -4l-86 -547h-205l11 66q-110 -94 -246 -94q-81 0 -150 32t-111 87q-57 75 -57 188q0 66 12 140l77 489h204l-75 -473q-5 -37 -8 -65.5t-3 -49.5q0 -160 159 -160q60 0 111.5 23.5t81.5 65.5q44 62 66 205l72 454h204z" />
    <glyph glyph-name="uni1EF0" unicode="&#x1ef0;" horiz-adv-x="1400" 
d="M639 -97q24 0 44.5 -8.5t35.5 -23t23.5 -34.5t8.5 -44q0 -44 -29 -85q-48 -65 -124 -65q-51 0 -82 31t-31 79q0 60 47 105q46 45 107 45zM1347 1204q87 49 87 132q0 62 -84 140l165 77q103 -82 103 -198q0 -114 -77.5 -204t-224.5 -145l-83 -522q-27 -170 -102 -272
t-198 -167q-136 -73 -286 -73q-142 0 -260 73q-171 105 -171 307q0 32 3 64.5t8 67.5l139 881h213l-133 -842q-15 -92 -15 -137q0 -87 56 -141q74 -73 191 -73q80 0 158 36q77 36 120 94q27 36 41 82q15 45 30 139l133 842h213z" />
    <glyph glyph-name="uni1EF1" unicode="&#x1ef1;" horiz-adv-x="1201" 
d="M507 -97q24 0 44.5 -8.5t35.5 -23t23.5 -34.5t8.5 -44q0 -44 -29 -85q-48 -65 -124 -65q-51 0 -82 31t-31 79q0 60 47 105q46 45 107 45zM1046 745q89 50 89 135q0 61 -84 139l165 77q103 -82 103 -198q0 -110 -76 -201q-77 -92 -208 -142l-10.5 -4l-10.5 -4l-86 -547
h-205l11 66q-110 -94 -246 -94q-81 0 -150 32t-111 87q-57 75 -57 188q0 66 12 140l77 489h204l-75 -473q-5 -37 -8 -65.5t-3 -49.5q0 -160 159 -160q60 0 111.5 23.5t81.5 65.5q44 62 66 205l72 454h204z" />
    <glyph glyph-name="Ygrave" unicode="&#x1ef2;" horiz-adv-x="1083" 
d="M529 1728l212 105l184 -324l-147 -78zM1313 1365l-575 -798l-90 -567h-212l89 567l-322 798h236l227 -586l412 586h235z" />
    <glyph glyph-name="ygrave" unicode="&#x1ef3;" horiz-adv-x="948" 
d="M397 1319l211 104l184 -324l-147 -77zM56 -478l311 521l-235 865h221l162 -617l368 617h221l-834 -1386h-214z" />
    <glyph glyph-name="uni1EF4" unicode="&#x1ef4;" horiz-adv-x="1083" 
d="M527 -97q24 0 44.5 -8.5t35.5 -23t23.5 -34.5t8.5 -44q0 -44 -29 -85q-48 -65 -124 -65q-51 0 -82 31t-31 79q0 60 47 105q46 45 107 45zM1313 1365l-575 -798l-90 -567h-212l89 567l-322 798h236l227 -586l412 586h235z" />
    <glyph glyph-name="uni1EF5" unicode="&#x1ef5;" horiz-adv-x="948" 
d="M686 -97q24 0 44.5 -8.5t35.5 -23t23.5 -34.5t8.5 -44q0 -44 -29 -85q-48 -65 -124 -65q-51 0 -82 31t-31 79q0 60 47 105q46 45 107 45zM56 -478l311 521l-235 865h221l162 -617l368 617h221l-834 -1386h-214z" />
    <glyph glyph-name="uni1EF6" unicode="&#x1ef6;" horiz-adv-x="1083" 
d="M638 1799q108 38 184 38q39 0 71.5 -10t56 -29t36 -45t12.5 -57q0 -66 -56 -137l-39 -49q-16 -20 -20 -60h-184q9 52 19 73q9 22 33 50l24 27q30 34 30 47q0 22 -30 22q-35 0 -101 -22zM1313 1365l-575 -798l-90 -567h-212l89 567l-322 798h236l227 -586l412 586h235z
" />
    <glyph glyph-name="uni1EF7" unicode="&#x1ef7;" horiz-adv-x="948" 
d="M503 1377q108 38 184 38q39 0 71.5 -10t56 -29t36 -45t12.5 -57q0 -66 -56 -137l-39 -49q-16 -20 -20 -60h-184q9 51 19 72q9 22 33 51l24 27q30 34 30 47q0 22 -30 22q-35 0 -101 -22zM56 -478l311 521l-235 865h221l162 -617l368 617h221l-834 -1386h-214z" />
    <glyph glyph-name="uni1EF8" unicode="&#x1ef8;" horiz-adv-x="1083" 
d="M1121 1715q-53 -221 -224 -221q-73 0 -143 42q-43 25 -71 27h-1q-21 0 -46 -78l-160 39q22 90 68 145q61 76 158 76q65 0 147 -46q41 -23 68 -23q21 0 41 78zM1313 1365l-575 -798l-90 -567h-212l89 567l-322 798h236l227 -586l412 586h235z" />
    <glyph glyph-name="uni1EF9" unicode="&#x1ef9;" horiz-adv-x="948" 
d="M988 1305q-53 -221 -224 -221q-73 0 -143 42q-47 27 -71 27q-22 0 -47 -78l-160 39q22 90 68 145q61 76 158 76q66 0 146 -46q43 -23 69 -23q21 0 41 78zM56 -478l311 521l-235 865h221l162 -617l368 617h221l-834 -1386h-214z" />
    <glyph glyph-name="uni2002" unicode="&#x2002;" horiz-adv-x="1024" 
 />
    <glyph glyph-name="uni2003" unicode="&#x2003;" horiz-adv-x="2048" 
 />
    <glyph glyph-name="uni2004" unicode="&#x2004;" horiz-adv-x="683" 
 />
    <glyph glyph-name="uni2005" unicode="&#x2005;" horiz-adv-x="512" 
 />
    <glyph glyph-name="uni2006" unicode="&#x2006;" horiz-adv-x="137" 
 />
    <glyph glyph-name="uni2007" unicode="&#x2007;" horiz-adv-x="1139" 
 />
    <glyph glyph-name="uni2009" unicode="&#x2009;" horiz-adv-x="256" 
 />
    <glyph glyph-name="uni200A" unicode="&#x200a;" horiz-adv-x="68" 
 />
    <glyph glyph-name="uni2011" unicode="&#x2011;" horiz-adv-x="550" 
d="M151 565h427l-29 -186h-427z" />
    <glyph glyph-name="figuredash" unicode="&#x2012;" horiz-adv-x="1186" 
d="M314 565h736l-29 -186h-736z" />
    <glyph glyph-name="endash" unicode="&#x2013;" horiz-adv-x="1186" 
d="M314 565h736l-29 -186h-736z" />
    <glyph glyph-name="emdash" unicode="&#x2014;" horiz-adv-x="1292" 
d="M151 565h1169l-29 -186h-1169z" />
    <glyph glyph-name="afii00208" unicode="&#x2015;" horiz-adv-x="1292" 
d="M151 565h1169l-29 -186h-1169z" />
    <glyph glyph-name="underscoredbl" unicode="&#x2017;" horiz-adv-x="1051" 
d="M-73 -375h1079l-25 -160h-1079zM-32 -118h1079l-26 -160h-1078z" />
    <glyph glyph-name="quoteleft" unicode="&#x2018;" horiz-adv-x="580" 
d="M430 888l-176 69l310 512l137 -58z" />
    <glyph glyph-name="quoteright" unicode="&#x2019;" horiz-adv-x="511" 
d="M475 1469l177 -68l-310 -513l-137 59z" />
    <glyph glyph-name="quotesinglbase" unicode="&#x201a;" horiz-adv-x="511" 
d="M280 235l177 -68l-310 -513l-137 59z" />
    <glyph glyph-name="quotereversed" unicode="&#x201b;" horiz-adv-x="512" 
d="M501 1469l105 -522l-156 -59l-147 513z" />
    <glyph glyph-name="quotedblleft" unicode="&#x201c;" horiz-adv-x="880" 
d="M430 888l-176 69l310 512l137 -58zM730 888l-176 69l309 512l138 -58z" />
    <glyph glyph-name="quotedblright" unicode="&#x201d;" horiz-adv-x="880" 
d="M823 1469l176 -68l-310 -513l-137 59zM522 1469l177 -68l-310 -513l-137 59z" />
    <glyph glyph-name="quotedblbase" unicode="&#x201e;" horiz-adv-x="880" 
d="M628 235l176 -68l-310 -513l-137 59zM327 235l177 -68l-310 -513l-137 59z" />
    <glyph glyph-name="dagger" unicode="&#x2020;" horiz-adv-x="1131" 
d="M311 908h295l72 453h205l-71 -453h296l-31 -193h-296l-173 -1092h-205l173 1092h-296z" />
    <glyph glyph-name="daggerdbl" unicode="&#x2021;" horiz-adv-x="1131" 
d="M976 77h-296l-72 -454h-205l72 454h-296l31 193h295l71 445h-296l31 193h295l72 453h206l-72 -453h296l-31 -193h-296l-70 -445h296z" />
    <glyph glyph-name="bullet" unicode="&#x2022;" horiz-adv-x="1010" 
d="M666 996q135 0 213 -104q52 -70 52 -160q0 -109 -71 -207q-54 -73 -133 -115q-80 -42 -167 -42q-137 0 -214 104q-51 69 -51 162q0 111 71 205q118 157 300 157z" />
    <glyph glyph-name="ellipsis" unicode="&#x2026;" horiz-adv-x="1560" 
d="M819 234q48 0 79.5 -30.5t31.5 -78.5q0 -59 -46 -104q-46 -46 -107 -46q-49 0 -80.5 30.5t-31.5 79.5q0 59 46 104t108 45zM1328 234q48 0 79.5 -30.5t31.5 -78.5q0 -59 -46 -104q-46 -46 -107 -46q-49 0 -80.5 30.5t-31.5 79.5q0 59 46 104t108 45zM310 234
q48 0 79.5 -30.5t31.5 -78.5q0 -59 -46 -104q-46 -46 -107 -46q-49 0 -80.5 30.5t-31.5 79.5q0 59 46 104t108 45z" />
    <glyph glyph-name="perthousand" unicode="&#x2030;" horiz-adv-x="2592" 
d="M2287 688q-94 0 -140 -70q-85 -127 -85 -326q0 -171 134 -171q94 0 140 70q85 127 85 322q0 175 -134 175zM2307 826q271 0 271 -283q0 -98 -23 -202q-24 -100 -62 -171q-105 -187 -315 -187q-139 0 -207 74q-66 72 -66 207q0 98 23 204q22 101 62 171q103 187 317 187z
M612 1244q-94 0 -140 -70q-85 -125 -85 -325q0 -171 134 -171q94 0 140 70q85 127 85 322q0 174 -134 174zM632 1382q271 0 271 -283q0 -98 -23 -201q-24 -100 -62 -171q-103 -187 -315 -187q-139 0 -207 74q-66 72 -66 207q0 99 23 203q22 101 62 171q103 187 317 187z
M1474 1393l106 -67l-999 -1355l-106 67zM1535 688q-94 0 -140 -70q-85 -125 -85 -326q0 -171 134 -171q94 0 140 70q85 127 85 322q0 175 -134 175zM1555 826q271 0 271 -283q0 -98 -23 -202q-24 -100 -62 -171q-105 -187 -315 -187q-139 0 -207 74q-66 72 -66 207
q0 98 23 204q22 101 62 171q103 187 317 187z" />
    <glyph glyph-name="minute" unicode="&#x2032;" horiz-adv-x="393" 
d="M338 1468l175 -68l-309 -510l-136 57z" />
    <glyph glyph-name="second" unicode="&#x2033;" horiz-adv-x="693" 
d="M638 1468l174 -68l-308 -510l-136 57zM338 1468l174 -68l-308 -510l-136 57z" />
    <glyph glyph-name="guilsinglleft" unicode="&#x2039;" horiz-adv-x="625" 
d="M559 150l-155 -110l-271 414l403 423l120 -109l-296 -313z" />
    <glyph glyph-name="guilsinglright" unicode="&#x203a;" horiz-adv-x="625" 
d="M114 150l295 305l-197 313l155 109l269 -423l-401 -414z" />
    <glyph glyph-name="uni203E" unicode="&#x203e;" horiz-adv-x="1051" 
d="M260 1728h1079l-29 -186h-1079z" />
    <glyph glyph-name="slash.aalt" unicode="&#x2044;" horiz-adv-x="368" 
d="M739 1393l105 -67l-999 -1355l-105 67z" />
    <glyph glyph-name="zerosuperior" unicode="&#x2070;" 
d="M636 1519q-93 0 -139 -70q-85 -125 -85 -326q0 -170 134 -170q93 0 139 70q86 128 86 322q0 174 -135 174zM656 1657q272 0 272 -283q0 -98 -23 -201q-24 -100 -62 -171q-103 -187 -315 -187q-156 0 -222 93q-51 70 -51 188q0 99 23 203q22 101 62 171q103 187 316 187z
" />
    <glyph glyph-name="foursuperior" unicode="&#x2074;" 
d="M268 1122l442 543l113 -74l-372 -457h170l29 187h152l-30 -187h97l-22 -136h-97l-26 -167h-151l26 167h-351z" />
    <glyph glyph-name="fivesuperior" unicode="&#x2075;" 
d="M593 1503l-45 -123q16 2 29.5 3.5t24.5 1.5q134 0 207 -97q45 -60 45 -140q0 -97 -65 -186q-50 -66 -123 -105q-80 -42 -168 -42q-136 0 -212 100q-11 14 -22 32.5t-22 40.5l136 81q41 -116 142 -116q74 0 127 51q53 50 53 121q0 55 -36 89.5t-94 34.5q-62 0 -122 -51
l-114 24l156 418h406l-22 -137h-281z" />
    <glyph glyph-name="sixsuperior" unicode="&#x2076;" 
d="M589 1237q-71 0 -122 -48t-51 -115q0 -54 35.5 -87.5t92.5 -33.5q69 0 122 51q52 49 52 117q0 52 -35.5 84t-93.5 32zM705 1665l105 -84l-189 -210q5 1 9 1h6q66 0 134 -41q101 -62 101 -187q0 -94 -64 -182q-50 -69 -124 -107q-76 -40 -161 -40q-137 0 -211 98
q-47 64 -47 146q0 120 100 230z" />
    <glyph glyph-name="sevensuperior" unicode="&#x2077;" 
d="M755 1503h-382l22 137h565l-17 -106l-521 -728l-122 66z" />
    <glyph glyph-name="eightsuperior" unicode="&#x2078;" 
d="M637 1525q-55 0 -95 -35q-40 -34 -40 -85q0 -39 28 -62.5t74 -23.5q56 0 96 35q39 34 39 84q0 39 -28 63t-74 24zM584 1190q-67 0 -111 -40q-45 -41 -45 -99q0 -46 32.5 -73.5t86.5 -27.5q65 0 111 41q45 40 45 99q0 46 -32 73t-87 27zM410 1263q-52 58 -52 127
q0 75 51 144q88 123 248 123q129 0 189 -83q38 -53 38 -118q0 -109 -102 -193q73 -66 73 -154t-55 -161q-45 -63 -118 -98t-157 -35q-111 0 -180 60t-69 156q0 137 134 232z" />
    <glyph glyph-name="ninesuperior" unicode="&#x2079;" 
d="M638 1519q-68 0 -121 -50q-52 -51 -52 -119q0 -51 35.5 -83t92.5 -32q71 0 122 48t51 115q0 54 -35.5 87.5t-92.5 33.5zM478 806l-105 84l190 211q-5 -1 -9 -1h-6q-98 0 -166 67q-70 66 -70 161q0 94 63 181q49 67 124 108q76 40 161 40q137 0 211 -98q47 -64 47 -146
q0 -122 -99 -231z" />
    <glyph glyph-name="zeroinferior" unicode="&#x2080;" 
d="M463 422q-93 0 -139 -70q-85 -125 -85 -325q0 -171 134 -171q93 0 139 70q86 128 86 322q0 174 -135 174zM484 560q271 0 271 -283q0 -98 -23 -201q-24 -100 -62 -171q-103 -187 -315 -187q-273 0 -273 280q0 100 23 204q22 101 62 171q103 187 317 187z" />
    <glyph glyph-name="oneinferior" unicode="&#x2081;" 
d="M463 -265h-152l100 631l-113 -57l-54 120l226 114h121z" />
    <glyph glyph-name="twoinferior" unicode="&#x2082;" 
d="M85 -265l19 117l348 318q109 100 109 174q0 78 -98 78q-59 0 -90 -25q-32 -26 -68 -103l-134 37q92 230 314 230q52 0 94.5 -13.5t72 -39t45.5 -62t16 -81.5q0 -136 -126 -251l-264 -241h332l-21 -138h-549z" />
    <glyph glyph-name="threeinferior" unicode="&#x2083;" 
d="M329 89l21 136h66q64 0 101 30.5t37 84.5q0 82 -96 82q-43 0 -73 -18q-30 -19 -76 -72l-117 67q123 161 285 161q132 0 192 -82q37 -49 37 -116q0 -118 -99 -197q62 -59 62 -146q0 -92 -56 -169q-23 -30 -53 -54.5t-65.5 -42t-75 -26.5t-80.5 -9q-222 0 -242 227l-1 10
l154 37q3 -39 10.5 -64.5t20.5 -41.5t32.5 -22.5t48.5 -6.5q66 0 109 40q44 41 44 100q0 92 -120 92h-66z" />
    <glyph glyph-name="fourinferior" unicode="&#x2084;" 
d="M94 26l442 543l113 -74l-372 -457h170l29 187h152l-30 -187h97l-22 -136h-97l-26 -167h-151l26 167h-351z" />
    <glyph glyph-name="fiveinferior" unicode="&#x2085;" 
d="M419 407l-45 -123q16 2 29.5 3.5t24.5 1.5q134 0 207 -97q45 -60 45 -141q0 -98 -64 -186q-50 -66 -124 -105q-80 -42 -169 -42q-135 0 -211 100q-11 14 -22 32.5t-22 40.5l136 82q37 -117 142 -117q74 0 127 50q53 51 53 123q0 51 -32 86q-38 38 -98 38q-61 0 -122 -51
l-114 23l156 419h406l-22 -137h-281z" />
    <glyph glyph-name="sixinferior" unicode="&#x2086;" 
d="M416 141q-72 0 -123 -48q-51 -50 -51 -116q0 -54 35.5 -87.5t92.5 -33.5q69 0 122 50q52 51 52 119q0 25 -9.5 46.5t-26.5 37t-40.5 24t-51.5 8.5zM531 569l105 -84l-189 -210q6 1 9.5 1h5.5q64 0 134 -41q101 -62 101 -188q0 -94 -64 -182q-50 -69 -124 -107
q-76 -40 -161 -40q-137 0 -211 98q-47 64 -47 146q0 121 100 231z" />
    <glyph glyph-name="seveninferior" unicode="&#x2087;" 
d="M581 406h-382l22 137h565l-17 -106l-521 -728l-122 66z" />
    <glyph glyph-name="eightinferior" unicode="&#x2088;" 
d="M464 428q-55 0 -95 -35q-40 -34 -40 -85q0 -39 28 -62.5t74 -23.5q56 0 96 35q39 34 39 84q0 39 -28 63t-74 24zM411 93q-67 0 -111 -40q-45 -41 -45 -99q0 -46 32.5 -73.5t86.5 -27.5q67 0 111 40q45 40 45 100q0 46 -32 73t-87 27zM237 166q-52 58 -52 127q0 73 51 144
q90 123 248 123q129 0 189 -83q38 -53 38 -118q0 -109 -102 -193q73 -66 73 -154t-55 -161q-45 -63 -119 -98t-156 -35q-111 0 -180 60t-69 156q0 137 134 232z" />
    <glyph glyph-name="nineinferior" unicode="&#x2089;" 
d="M465 422q-69 0 -122 -50q-52 -49 -52 -118q0 -52 35.5 -83.5t93.5 -31.5q69 0 122 48q51 48 51 114q0 54 -35.5 87.5t-92.5 33.5zM304 -291l-105 84l191 211h-14q-100 0 -168 67q-70 66 -70 160q0 96 64 182q49 66 124 107q76 40 161 40q137 0 211 -98q47 -64 47 -146
q0 -121 -100 -231z" />
    <glyph glyph-name="franc" unicode="&#x20a3;" horiz-adv-x="1489" 
d="M1003 791h204l-12 -73q93 78 209 78q17 0 35 -1.5t38 -3.5l-29 -183q-47 3 -70 3q-124 0 -179 -82q-22 -32 -39 -84t-28 -125l-50 -320h-205zM1113 1169h-483l-60 -378h364l-31 -198h-364l-94 -593h-213l216 1365h697z" />
    <glyph glyph-name="lira" unicode="&#x20a4;" horiz-adv-x="1153" 
d="M588 727q0 -5 1.5 -27.5t3.5 -63.5h381l-27 -175h-354q-1 -3 -1 -7q-7 -132 -115 -258h619l-31 -196h-925l29 184q125 86 164 137q39 52 46 140h-166l28 175h136l-4 67l-1 23l-117 1l28 175h91q7 101 50 200q56 134 176 209q127 82 276 82q246 0 342 -248l-187 -107
q-26 61 -54 95q-53 62 -140 62q-85 0 -145.5 -48t-87.5 -136q-13 -41 -19 -109h432l-28 -175h-401z" />
    <glyph glyph-name="peseta" unicode="&#x20a7;" horiz-adv-x="1236" 
d="M644 1032h353q-12 73 -65 106t-159 33h-107zM617 861l-22 -140h107q106 0 170 34t97 106h-352zM1184 861q-127 -333 -510 -333h-20h-90l-83 -528h-213l136 861h-111l27 171h111l53 333h302q150 0 228 -31q93 -36 143.5 -114.5t54.5 -187.5h119l-27 -171h-120z" />
    <glyph glyph-name="uni20AB" unicode="&#x20ab;" horiz-adv-x="1141" 
d="M51 -108h1041l-30 -186h-1040zM647 751q-131 0 -223 -104q-93 -105 -93 -253q0 -110 60 -171q64 -66 167 -66q101 0 184 65q90 72 121 196q12 49 12 101q0 104 -59 168q-61 64 -169 64zM991 1224l22 141h204l-22 -141h119l-29 -184h-119l-165 -1040h-204l12 79
q-155 -107 -295 -107q-116 0 -211 61q-180 115 -180 343q0 174 110 323q80 112 204 176q115 61 235 61q132 0 256 -107l34 211h-239l29 184h239z" />
    <glyph glyph-name="Euro" unicode="&#x20ac;" horiz-adv-x="1646" 
d="M196 460l103 177h107q2 11 3 20t2 17q4 35 9 52h-182l103 177h141q80 155 200 266q115 106 258 165q147 59 302 59q72 0 134.5 -13t118.5 -40t107.5 -69.5t99.5 -100.5l-110 -190q-68 84 -133 131q-115 82 -264 82q-203 0 -370 -158q-78 -75 -114 -132h837l-102 -177
h-810q-5 -24 -8.5 -46.5t-5.5 -42.5h773l-103 -177h-650q24 -70 85 -146q112 -142 312 -142q123 0 234 53q55 26 116.5 71.5t131.5 110.5l-43 -276q-221 -159 -462 -159q-236 0 -394 128q-160 128 -209 360h-217z" />
    <glyph glyph-name="uni20B4" unicode="&#x20b4;" horiz-adv-x="1265" 
d="M399 636q51 47 149 91h-275l27 171h631q70 57 70 135q0 36 -13 66t-37 51.5t-57.5 33t-75.5 11.5q-70 0 -125 -34t-129 -125l-155 109q36 47 70 82.5t66 60.5q133 105 301 105q127 0 227 -61q80 -49 118 -138q24 -59 24 -126q0 -86 -39 -170h68l-27 -171h-197
q-75 -46 -138 -68l-45 -17q-5 -1 -16 -6h382l-27 -171h-668q-26 -50 -26 -101q0 -78 52 -133q55 -60 150 -60q146 0 230 133q19 28 54 115l198 -54q-57 -149 -138 -234q-152 -159 -372 -159q-128 0 -229 62q-91 56 -134 158q-28 66 -28 143q0 61 21 130h-55l27 171h141z" />
    <glyph glyph-name="uni2101" unicode="&#x2101;" horiz-adv-x="1922" 
d="M1604 1393l105 -67l-999 -1355l-105 67zM564 896h226l-67 295zM489 758l-111 -202h-160l447 809h174l151 -644l-122 -165l-47 202h-332zM1740 592q-14 28 -27 46.5t-27 29.5t-31 15.5t-39 4.5q-50 0 -87 -33q-39 -33 -39 -75q0 -48 83 -80l73 -29q174 -68 174 -194
q0 -82 -56 -159q-23 -32 -53.5 -57.5t-66 -43t-75 -27t-79.5 -9.5q-84 0 -144.5 39.5t-85.5 108.5q-8 25 -16 101l155 37q7 -70 25 -102q26 -44 90 -44q58 0 105 41q45 40 45 94q0 50 -103 90l-71 27q-154 61 -154 185q0 77 50 145q21 28 49.5 51t61.5 39.5t70 25t76 8.5
q157 0 222 -137l6 -12t5 -11z" />
    <glyph glyph-name="afii61248" unicode="&#x2105;" horiz-adv-x="2151" 
d="M1624 1393l105 -67l-999 -1355l-105 67zM1692 686q-112 0 -204 -73q-60 -48 -95 -115.5t-35 -139.5q0 -95 63 -161q72 -75 177 -75q39 0 77.5 10t74.5 28.5t67.5 44.5t55.5 59q62 86 62 184q0 97 -63 165q-69 73 -180 73zM1716 827q194 0 304 -146q71 -95 71 -215
q0 -139 -93 -266q-74 -101 -186 -159q-114 -60 -237 -60q-158 0 -265 104q-108 103 -108 255q0 145 93 268q77 103 185 159q112 60 236 60zM978 1131q-52 63 -97 88q-46 25 -112 25q-170 0 -272 -140q-64 -88 -64 -189q0 -96 62 -163q71 -74 185 -74q69 0 114 22
q48 21 134 93l92 -101q-101 -84 -182 -118q-83 -36 -179 -36q-123 0 -220 60q-91 56 -134 157q-28 66 -28 144q0 139 93 267q72 99 183 158q114 60 241 60q46 0 87 -8.5t78 -27.5t72 -48t71 -69z" />
    <glyph glyph-name="afii61352" unicode="&#x2116;" horiz-adv-x="2171" 
d="M1961 1258q-73 0 -123 -53q-51 -54 -51 -131q0 -57 34 -91t92 -34q74 0 125 54q50 53 50 131q0 57 -34.5 90.5t-92.5 33.5zM1987 1393q132 0 203 -96q47 -64 47 -147q0 -102 -65 -191q-50 -68 -122 -105q-76 -40 -159 -40q-137 0 -207 96q-46 62 -46 149q0 104 65 190
q109 144 284 144zM150 0l216 1365h187l592 -1004l159 1004h212l-216 -1365h-187l-591 1004l-159 -1004h-213zM1590 561l23 146h523l-23 -146h-523z" />
    <glyph glyph-name="uni2117" unicode="&#x2117;" horiz-adv-x="1727" 
d="M854 1313q-162 0 -305 -85q-147 -86 -230 -230q-85 -145 -85 -315t85 -315q84 -146 230 -230q145 -85 315 -85q169 0 315 85q147 84 231 230q84 147 84 320q0 272 -209 463q-179 162 -431 162zM876 1458q199 0 375 -104q180 -105 284 -284t104 -387q0 -207 -104 -388
q-103 -179 -284 -283q-179 -104 -387 -104q-206 0 -387 104q-91 52 -161.5 122.5t-122.5 160.5q-104 182 -104 394q0 335 257 569q220 200 530 200zM796 725h79q90 0 121 37q31 35 31 93q0 66 -37 97.5t-115 31.5h-79v-259zM796 567v-345h-171v921h238q126 0 196 -40
q64 -36 100.5 -102.5t36.5 -145.5q0 -115 -72 -197q-43 -49 -104 -70t-157 -21h-67z" />
    <glyph glyph-name="trademark" unicode="&#x2122;" horiz-adv-x="1382" 
d="M549 1283h-161v-544h-104v544h-161v95h426v-95zM620 739v639h101l219 -385l218 385h101v-639h-104v443l-174 -307h-82l-175 307v-443h-104z" />
    <glyph glyph-name="Omega" unicode="&#x2126;" horiz-adv-x="1630" 
d="M1487 0h-560v292q142 40 230 119q148 132 148 325q0 199 -153 333q-143 125 -337 125q-138 0 -257 -68q-114 -65 -175 -171q-58 -101 -58 -220q0 -111 53 -206.5t150 -161.5q66 -44 175 -75v-292h-561v198h274v2q-307 213 -307 536q0 165 85 310q88 153 252 248
q171 99 369 99t369 -99q163 -95 252 -248q84 -146 84 -310q0 -323 -307 -536v-2h274v-198z" />
    <glyph glyph-name="estimated" unicode="&#x212e;" horiz-adv-x="1517" 
d="M1137 784v200q-36 89 -102 146q-106 91 -263 91q-141 0 -220 -51q-78 -50 -152 -188v-198h737zM400 631v-233q45 -121 100 -170q91 -84 266 -84q151 0 251 66.5t162 207.5h180q-53 -173 -141 -270q-70 -77 -169 -120q-133 -56 -280 -56q-348 0 -519 250
q-120 175 -120 451q0 305 144 490q179 230 496 230q214 0 375 -113q187 -134 225 -390q8 -51 12 -115t5 -144h-987z" />
    <glyph glyph-name="onethird" unicode="&#x2153;" horiz-adv-x="1707" 
d="M525 557h-152l100 631l-113 -57l-54 120l226 114h121zM1258 354l21 137h67q63 0 100.5 30.5t37.5 84.5q0 82 -97 82q-43 0 -74 -19q-16 -10 -34.5 -27.5t-40.5 -43.5l-117 67q122 161 285 161q104 0 167 -54q62 -56 62 -144q0 -116 -99 -197q62 -59 62 -148
q0 -91 -56 -168q-23 -30 -53 -54.5t-65.5 -42t-75 -26.5t-80.5 -9q-219 0 -242 227l-1 10l154 37q4 -39 11.5 -65t20 -41.5t32 -22t48.5 -6.5q66 0 110 41q43 40 43 100q0 91 -120 91h-66zM1324 1393l105 -67l-999 -1355l-105 67z" />
    <glyph glyph-name="twothirds" unicode="&#x2154;" horiz-adv-x="1707" 
d="M1256 354l22 137h66q63 0 100.5 30.5t37.5 84.5q0 82 -97 82q-43 0 -74 -19q-16 -10 -34.5 -27.5t-40.5 -43.5l-117 67q123 161 286 161q103 0 166 -54q62 -56 62 -144q0 -116 -99 -197q63 -59 63 -147q0 -92 -56 -169q-23 -30 -53 -54.5t-66 -42t-75.5 -26.5t-79.5 -9
q-222 0 -242 227l-2 10l154 37q4 -39 11.5 -64.5t20.5 -41.5t32.5 -22.5t48.5 -6.5q65 0 109 41t44 100q0 91 -121 91h-66zM192 556l19 117l348 318q109 100 109 173q0 78 -99 78q-58 0 -89 -25q-32 -26 -68 -102l-134 37q91 229 315 229q105 0 166 -52t61 -143
q0 -136 -126 -251l-264 -241h332l-21 -138h-549zM1418 1393l105 -67l-999 -1355l-105 67z" />
    <glyph glyph-name="onefifth" unicode="&#x2155;" horiz-adv-x="1707" 
d="M525 557h-152l100 631l-113 -57l-54 120l226 114h121zM1323 672l-46 -123q16 2 29.5 3.5t24.5 1.5q135 0 207 -97q46 -61 46 -141q0 -97 -65 -186q-50 -66 -123 -105q-80 -42 -169 -42q-135 0 -212 101q-11 14 -22 32t-22 40l136 82q37 -117 142 -117q75 0 128 51
q53 50 53 121q0 57 -36.5 91t-94.5 34q-62 0 -122 -51l-113 23l155 419h406l-21 -137h-281zM1324 1393l105 -67l-999 -1355l-105 67z" />
    <glyph glyph-name="twofifth" unicode="&#x2156;" horiz-adv-x="1707" 
d="M1322 672l-46 -123q16 2 30 3.5t25 1.5q134 0 207 -97q45 -60 45 -141q0 -97 -65 -186q-50 -66 -123 -105q-80 -42 -169 -42q-135 0 -211 100q-23 29 -44 73l135 82q40 -117 142 -117q75 0 128 51q53 50 53 121q0 27 -9.5 50t-27 39.5t-41.5 26t-52 9.5q-62 0 -123 -51
l-113 23l155 419h407l-22 -137h-281zM193 556l19 117l348 318q109 100 109 173q0 78 -99 78q-58 0 -89 -25q-32 -26 -68 -102l-134 37q91 229 315 229q105 0 166 -52t61 -143q0 -136 -126 -251l-264 -241h332l-21 -138h-549zM1427 1393l105 -67l-999 -1355l-105 67z" />
    <glyph glyph-name="threefifth" unicode="&#x2157;" horiz-adv-x="1707" 
d="M448 911l21 136h66q64 0 101 30.5t37 84.5q0 82 -96 82q-44 0 -74 -18q-32 -20 -75 -72l-117 67q66 85 133 123t152 38q104 0 167 -54q62 -56 62 -144q0 -118 -99 -197q62 -60 62 -147q0 -91 -56 -168q-23 -30 -53 -54.5t-65.5 -42t-75 -26.5t-80.5 -9q-222 0 -242 227
l-1 9l154 38q3 -39 10.5 -64.5t20.5 -41.5t32.5 -22.5t48.5 -6.5q65 0 109 41t44 99q0 92 -120 92h-66zM1322 672l-46 -123q16 2 30 3.5t25 1.5q134 0 207 -97q45 -62 45 -141q0 -97 -65 -186q-50 -66 -123 -105q-80 -42 -169 -42q-136 0 -212 100q-11 14 -22 32.5t-22 40.5
l136 82q40 -117 142 -117q74 0 128 51q53 50 53 121q0 55 -36.5 90t-94.5 35q-61 0 -122 -51l-113 23l155 419h406l-21 -137h-281zM1385 1393l105 -67l-999 -1355l-105 67z" />
    <glyph glyph-name="fourfifth" unicode="&#x2158;" horiz-adv-x="1707" 
d="M1318 672l-45 -123q16 2 29.5 3.5t24.5 1.5q134 0 207 -97q45 -60 45 -141q0 -98 -64 -186q-50 -66 -124 -105q-80 -42 -169 -42q-135 0 -211 100q-11 14 -22 32.5t-22 40.5l136 82q37 -117 142 -117q74 0 127 51q53 50 53 121q0 57 -36.5 91t-93.5 34q-61 0 -122 -51
l-114 23l156 419h406l-22 -137h-281zM238 847l442 543l113 -74l-372 -457h170l29 187h152l-30 -187h97l-22 -136h-97l-26 -167h-151l26 167h-351zM1411 1393l105 -67l-999 -1355l-105 67z" />
    <glyph glyph-name="onesixth" unicode="&#x2159;" horiz-adv-x="1707" 
d="M526 557h-152l100 631l-113 -57l-54 120l226 114h121zM1301 406q-71 0 -122 -48q-51 -50 -51 -116q0 -54 35.5 -87.5t92.5 -33.5q68 0 121 51q52 49 52 118q0 52 -35.5 84t-92.5 32zM1416 835l106 -85l-189 -210q5 1 9 1h6q65 0 133 -41q101 -62 101 -188q0 -95 -63 -182
q-25 -34 -56 -60.5t-68 -46.5q-76 -40 -161 -40q-137 0 -211 98q-47 64 -47 146q0 122 100 231zM1352 1393l105 -67l-999 -1355l-105 67z" />
    <glyph glyph-name="fivesixth" unicode="&#x215a;" horiz-adv-x="1707" 
d="M1300 406q-71 0 -122 -48q-51 -50 -51 -116q0 -54 35.5 -87.5t92.5 -33.5q68 0 121 51q52 49 52 118q0 52 -35.5 84t-92.5 32zM1416 835l105 -85l-189 -210q5 1 9 1h6q65 0 133 -41q101 -62 101 -188q0 -95 -63 -182q-25 -34 -56 -60.5t-68 -46.5q-76 -40 -161 -40
q-137 0 -211 98q-47 64 -47 146q0 122 100 231zM558 1228l-45 -123q16 2 29.5 3.5t24.5 1.5q134 0 207 -97q45 -60 45 -141q0 -97 -65 -186q-50 -66 -123 -105q-80 -42 -169 -42q-134 0 -211 101q-11 14 -22 32t-22 40l136 82q40 -117 142 -117q74 0 127 51q53 50 53 121
q0 57 -36 91t-94 34q-61 0 -122 -51l-114 23l156 419h406l-22 -137h-281zM1432 1393l105 -67l-999 -1355l-105 67z" />
    <glyph glyph-name="oneeighth" unicode="&#x215b;" horiz-adv-x="1707" 
d="M1380 694q-56 0 -96 -35q-40 -34 -40 -85q0 -39 27.5 -63t75.5 -24q56 0 96 35q39 34 39 84q0 39 -28 63.5t-74 24.5zM1327 358q-67 0 -111 -40q-45 -41 -45 -99q0 -46 32.5 -73.5t86.5 -27.5q64 0 110 41q45 40 45 99q0 46 -32 73t-86 27zM1153 431q-53 59 -53 128
q0 73 51 144q90 123 249 123q129 0 189 -83q38 -53 38 -118q0 -109 -103 -194q73 -66 73 -154q0 -87 -55 -161q-45 -63 -118.5 -98t-155.5 -35q-111 0 -180 60t-69 157q0 136 134 231zM525 556h-152l100 632l-113 -57l-54 120l226 114h121zM1324 1393l105 -67l-999 -1355
l-105 67z" />
    <glyph glyph-name="threeeighths" unicode="&#x215c;" horiz-adv-x="1707" 
d="M1376 1393l105 -67l-999 -1355l-105 67zM448 911l21 136h66q64 0 101 30.5t37 84.5q0 82 -96 82q-44 0 -74 -18q-32 -20 -75 -72l-117 67q66 85 133 123t152 38q104 0 167 -54q62 -56 62 -144q0 -118 -99 -197q62 -60 62 -147q0 -91 -56 -168q-23 -30 -53 -54.5
t-65.5 -42t-75 -26.5t-80.5 -9q-222 0 -242 227l-1 9l154 38q3 -39 10.5 -64.5t20.5 -41.5t32.5 -22.5t48.5 -6.5q65 0 109 41t44 99q0 92 -120 92h-66zM1359 694q-55 0 -95 -35q-40 -36 -40 -86q0 -39 28.5 -62.5t74.5 -23.5q56 0 96 35q39 34 39 84q0 40 -28.5 64
t-74.5 24zM1305 358q-66 0 -109 -40q-45 -41 -45 -99q0 -46 32 -73.5t86 -27.5q65 0 111 41q45 40 45 99q0 46 -31.5 73t-88.5 27zM1133 431q-53 59 -53 129q0 72 51 143q90 123 249 123q127 0 189 -83q38 -53 38 -119q0 -108 -103 -193q73 -66 73 -153q0 -88 -55 -162
q-45 -63 -118.5 -98t-155.5 -35q-111 0 -180 60t-69 156q0 137 134 232z" />
    <glyph glyph-name="fiveeighths" unicode="&#x215d;" horiz-adv-x="1707" 
d="M1381 1393l105 -67l-999 -1355l-105 67zM1304 358q-66 0 -109 -40q-45 -41 -45 -99q0 -46 32 -73.5t86 -27.5q65 0 111 41q45 40 45 99q0 46 -31.5 73t-88.5 27zM1358 694q-55 0 -95 -35q-40 -36 -40 -86q0 -38 28.5 -62t74.5 -24q56 0 96 35q39 34 39 84q0 40 -28.5 64
t-74.5 24zM1132 431q-53 59 -53 129q0 72 51 143q90 123 249 123q127 0 189 -83q38 -53 38 -119q0 -108 -103 -193q73 -66 73 -153q0 -88 -55 -162q-45 -63 -118.5 -98t-155.5 -35q-111 0 -180 60t-69 156q0 137 134 232zM556 1228l-45 -123q16 2 29.5 3.5t24.5 1.5
q134 0 207 -97q45 -60 45 -141q0 -97 -65 -186q-50 -66 -123 -105q-80 -42 -169 -42q-134 0 -211 101q-11 14 -22 32t-22 40l136 82q40 -117 142 -117q74 0 127 51q53 50 53 121q0 57 -36 91t-94 34q-61 0 -122 -51l-114 23l156 419h406l-22 -137h-281z" />
    <glyph glyph-name="seveneighths" unicode="&#x215e;" horiz-adv-x="1707" 
d="M1303 358q-67 0 -111 -40q-45 -41 -45 -99q0 -46 32 -73.5t87 -27.5q65 0 111 41q45 40 45 99q0 46 -32 73t-87 27zM1357 694q-55 0 -95 -35q-40 -34 -40 -85q0 -40 28 -63.5t74 -23.5q56 0 96 35q39 34 39 84q0 40 -28 64t-74 24zM1129 431q-52 58 -52 129q0 72 51 143
q90 123 249 123q127 0 189 -83q38 -53 38 -119q0 -108 -103 -193q73 -66 73 -153q0 -89 -55 -162q-45 -63 -119 -98t-156 -35q-111 0 -180 60t-69 156q0 137 134 232zM722 1228h-382l22 137h565l-17 -106l-521 -728l-122 66zM1305 1393l106 -67l-999 -1355l-105 67z" />
    <glyph glyph-name="partialdiff" unicode="&#x2202;" horiz-adv-x="1204" 
d="M598 751q-74 0 -139 -38q-130 -79 -130 -258q0 -149 92 -232q75 -66 179 -66q122 0 200 86q72 79 72 213q0 149 -91 228q-76 67 -183 67zM739 917q-179 229 -498 266l27 182q261 -33 422 -127q161 -95 261 -247q130 -199 130 -473q0 -192 -72 -316q-60 -105 -167 -167
q-110 -63 -242 -63q-213 0 -353 155q-124 136 -124 327q0 219 159 362q133 120 301 120q88 0 172 -36z" />
    <glyph glyph-name="emptyset" unicode="&#x2205;" horiz-adv-x="1292" 
d="M728 1027q-44 10 -84 10q-156 0 -263 -119q-91 -101 -91 -238q0 -75 29 -136q29 -60 97 -130zM564 338q50 -10 86 -10q155 0 261 118q91 98 91 236q0 164 -126 271zM377 -30l-147 76l108 213q-215 171 -215 421q0 237 173 392q151 134 347 134q76 0 163 -25l107 210
l147 -76l-108 -212q96 -84 139 -150q78 -117 78 -264q0 -144 -71 -268q-69 -119 -185 -188q-128 -74 -286 -74q-98 0 -141 25z" />
    <glyph glyph-name="Delta" unicode="&#x2206;" horiz-adv-x="1387" 
d="M346 198h693l-348 904zM1339 0h-1291l531 1365h229z" />
    <glyph glyph-name="product" unicode="&#x220f;" horiz-adv-x="1358" 
d="M432 1168v-1168h-213v1168h-164v197h1248v-197h-164v-1168h-213v1168h-494z" />
    <glyph glyph-name="summation" unicode="&#x2211;" horiz-adv-x="1368" 
d="M249 1194v171h895v-196l-638 1l325 -462l-354 -510h707v-198h-974v171l377 537z" />
    <glyph glyph-name="minus" unicode="&#x2212;" horiz-adv-x="1139" 
d="M1122 730l-29 -183h-874l29 183h874z" />
    <glyph glyph-name="fraction" unicode="&#x2215;" horiz-adv-x="368" 
d="M739 1393l105 -67l-999 -1355l-105 67z" />
    <glyph glyph-name="uni2218" unicode="&#x2218;" horiz-adv-x="1010" 
d="M502 872q-81 0 -138 -62q-48 -54 -48 -127q0 -84 62 -141q54 -48 127 -48q85 0 141 62q48 54 48 128q0 83 -63 140q-53 48 -129 48zM510 997q133 0 228 -104q81 -89 81 -210q0 -140 -104 -233q-89 -81 -210 -81q-140 0 -233 104q-81 88 -81 212q0 136 104 231
q88 81 215 81z" />
    <glyph glyph-name="radical" unicode="&#x221a;" horiz-adv-x="1287" 
d="M55 844h319l14 -43l166 -494l468 1389h52h568v-198h-464l-511 -1498h-227l-223 655h-162v189z" />
    <glyph glyph-name="infinity" unicode="&#x221e;" horiz-adv-x="1454" 
d="M618 691q-21 32 -40.5 56.5t-38.5 41.5q-62 59 -134 59q-67 0 -112 -45t-45 -113q0 -70 50 -114q48 -42 111 -42q106 0 209 157zM837 692q43 -64 79 -99q61 -58 134 -58q67 0 112 45t45 112q0 71 -50 115q-49 41 -110 41q-107 0 -210 -156zM730 542q-63 -77 -117 -117
q-100 -76 -221 -76q-156 0 -252 106q-85 94 -85 239q0 159 107 254q100 86 231 86q47 0 89 -10.5t82 -34t79.5 -60t81.5 -87.5q40 51 79.5 87.5t80.5 59.5t85 34t94 11q155 0 251 -106q85 -92 85 -238q0 -161 -108 -257q-95 -84 -227 -84q-185 0 -335 193z" />
    <glyph glyph-name="integral" unicode="&#x222b;" horiz-adv-x="626" 
d="M572 1308q-51 15 -81 15q-76 0 -76 -116v-1283q0 -174 -82 -246q-64 -56 -159 -56q-56 0 -119 16v184q54 -14 80 -14q76 0 76 116v1283q0 174 81 246q65 56 161 56q56 0 119 -16v-185z" />
    <glyph glyph-name="similar" unicode="&#x223c;" horiz-adv-x="1182" 
d="M63 548q62 136 128 202q73 73 187 73q92 0 241 -73q130 -62 188 -62q51 0 86 30q34 29 87 119l138 -81q-31 -63 -62 -109.5t-62 -77.5q-37 -37 -92 -59q-57 -24 -106 -24q-56 0 -107 17q-53 17 -200 84q-75 34 -126 34q-22 0 -41.5 -8.5t-39 -27t-40 -49t-44.5 -75.5z
" />
    <glyph glyph-name="uni2243" unicode="&#x2243;" horiz-adv-x="1182" 
d="M1110 552v-181h-1040v181h1040zM63 706q63 136 129 202q73 73 186 73q94 0 241 -73q129 -62 187 -62q52 0 87 30q34 28 87 119l139 -81q-62 -126 -125 -188q-39 -36 -93 -58q-56 -24 -105 -24q-55 0 -108 17q-49 16 -199 84q-74 34 -126 34q-22 0 -41.5 -8.5t-39 -27
t-40 -49.5t-44.5 -76z" />
    <glyph glyph-name="approxequal" unicode="&#x2248;" horiz-adv-x="1182" 
d="M63 373q61 135 128 202q73 73 187 73q93 0 242 -73q129 -62 186 -62q52 0 87 30q34 28 87 119l139 -82q-61 -123 -124 -186q-38 -37 -93 -59q-57 -24 -106 -24q-54 0 -107 17q-26 8 -75.5 29l-124.5 55t-126 34q-21 0 -40.5 -8.5t-39 -27t-40.5 -49.5t-45 -76zM63 740
q63 136 129 202q73 73 186 73q94 0 241 -73q129 -62 187 -62q52 0 87 30q34 28 87 119l139 -81q-62 -126 -125 -188q-39 -36 -93 -58q-56 -24 -105 -24q-56 0 -107 17t-200 84q-75 34 -126 34q-22 0 -41.5 -8.5t-39 -27t-40 -49.5t-44.5 -76z" />
    <glyph glyph-name="notequal" unicode="&#x2260;" horiz-adv-x="1166" 
d="M799 885h304v-183h-395l-62 -124h457v-183h-548l-131 -263l-156 64l99 199h-304v183h395l62 124h-457v183h548l131 263l156 -64z" />
    <glyph glyph-name="lessequal" unicode="&#x2264;" horiz-adv-x="1166" 
d="M1054 0h-942l29 182h942zM1094 255l-875 423l27 169l1010 428l-33 -207l-731 -303l635 -303z" />
    <glyph glyph-name="greaterequal" unicode="&#x2265;" horiz-adv-x="1166" 
d="M112 0l29 182h942l-29 -182h-942zM152 255l33 207l731 303l-635 303l33 207l874 -428l-26 -169z" />
    <glyph glyph-name="dotmath" unicode="&#x22c5;" horiz-adv-x="497" 
d="M379 812q24 0 44 -8.5t35 -23t23.5 -34t8.5 -42.5q0 -60 -46 -105q-47 -45 -109 -45q-48 0 -79 31t-31 79q0 59 46 104q47 44 108 44z" />
    <glyph glyph-name="lozenge" unicode="&#x25ca;" horiz-adv-x="1350" 
d="M978 683l-304 427l-303 -427l303 -428zM674 -81l-549 764l549 764l550 -764z" />
    <glyph glyph-name="openbullet" unicode="&#x25e6;" horiz-adv-x="1010" 
d="M502 872q-81 0 -138 -62q-48 -54 -48 -127q0 -84 62 -141q54 -48 127 -48q85 0 141 62q48 54 48 128q0 83 -63 140q-53 48 -129 48zM510 997q133 0 228 -104q81 -89 81 -210q0 -140 -104 -233q-89 -81 -210 -81q-140 0 -233 104q-81 88 -81 212q0 136 104 231
q88 81 215 81z" />
    <glyph glyph-name="ff" unicode="&#xfb00;" horiz-adv-x="1040" 
d="M1130 724h-159l-115 -724h-204l115 724h-88l29 184h88l27 171q48 302 292 302q53 0 114 -16l-30 -184q-51 14 -78 14q-74 0 -94 -116l-27 -171h159zM617 724h-159l-115 -724h-204l115 724h-88l29 184h88l24 151q46 301 292 301q51 0 113 -15l-29 -185q-48 14 -78 14
q-76 0 -94 -115l-24 -151h159z" />
    <glyph glyph-name="fi" unicode="&#xfb01;" horiz-adv-x="949" 
d="M945 1344q48 0 80 -31t32 -79q0 -44 -29 -85q-48 -66 -125 -66q-49 0 -81 31t-32 80q0 58 47 105q46 45 108 45zM977 908l-144 -908h-204l144 908h204zM617 724h-159l-115 -724h-204l115 724h-88l29 184h88l27 171q48 302 292 302q53 0 114 -16l-30 -184q-51 14 -77 14
q-75 0 -95 -116l-27 -171h159z" />
    <glyph glyph-name="fl" unicode="&#xfb02;" horiz-adv-x="952" 
d="M835 0h-205l216 1365h205zM617 724h-159l-115 -724h-204l115 724h-88l29 184h88l27 171q48 302 292 302q53 0 114 -16l-30 -184q-51 14 -77 14q-75 0 -95 -116l-27 -171h159z" />
    </font>
</defs>
</svg>
