<?xml version="1.0" standalone="no"?>
<!DOCTYPE svg PUBLIC "-//W3C//DTD SVG 1.1//EN" "http://www.w3.org/Graphics/SVG/1.1/DTD/svg11.dtd" >
<svg xmlns="http://www.w3.org/2000/svg">
<metadata></metadata>
<defs>
<font id="bentonsansregular" horiz-adv-x="1284" >
<font-face units-per-em="2048" ascent="1638" descent="-410" />
<missing-glyph horiz-adv-x="407" />
<glyph horiz-adv-x="0" />
<glyph horiz-adv-x="682" />
<glyph unicode=" "  horiz-adv-x="407" />
<glyph unicode="&#x09;" horiz-adv-x="407" />
<glyph unicode="&#xa0;" horiz-adv-x="407" />
<glyph unicode="!" horiz-adv-x="575" d="M188 1516h201l-41 -1100h-119zM190 0v205h197v-205h-197z" />
<glyph unicode="&#x22;" horiz-adv-x="751" d="M133 1403v113h160v-113l-29 -408h-100zM461 1403v113h155v-113l-28 -408h-99z" />
<glyph unicode="#" horiz-adv-x="1253" d="M68 438v135h225l65 369h-215v135h240l78 439h151l-77 -439h290l78 439h152l-78 -439h207v-135h-232l-65 -369h221v-135h-246l-76 -438h-153l78 438h-289l-78 -438h-154l78 438h-200zM444 571h291l66 373h-291z" />
<glyph unicode="$" horiz-adv-x="1144" d="M94 342l146 53q49 -111 113.5 -174t154.5 -80v580q-47 21 -78 36.5t-74 40t-70.5 47.5t-58 56t-48 69t-29 83t-11.5 100q0 151 98 251.5t265 115.5v157h131v-159q251 -35 356 -304l-141 -63q-42 96 -94 149t-127 70v-528q53 -23 84.5 -38t79.5 -42t77.5 -50.5t63.5 -59 t53 -73t32 -88t13 -108.5q0 -163 -106 -266.5t-291 -118.5v-188h-131v190q-290 32 -408 342zM303 1163q0 -64 28.5 -115t70 -84t106.5 -67v479q-99 -10 -152 -68t-53 -145zM627 137q107 11 172 70t65 164q0 106 -61.5 173t-175.5 122v-529z" />
<glyph unicode="%" horiz-adv-x="1710" d="M92 1077q0 225 78 344t221 119t219 -119t76 -344q0 -227 -76 -346t-219 -119t-221 119.5t-78 345.5zM236 1077q0 -336 155 -336q79 0 116.5 81.5t37.5 254.5q0 334 -154 334q-80 0 -117.5 -80.5t-37.5 -253.5zM397 0l770 1516h144l-770 -1516h-144zM1024 444 q0 225 78 344t221 119q141 0 217 -119t76 -344q0 -226 -75.5 -345t-217.5 -119q-143 0 -221 119t-78 345zM1165 444q0 -338 158 -338q79 0 116.5 82t37.5 256q0 332 -154 332q-82 0 -120 -80t-38 -252z" />
<glyph unicode="&#x26;" horiz-adv-x="1275" d="M59 356q0 80 24 150t69.5 127.5t95 102t117.5 91.5q-95 192 -95 365q0 156 85 254t237 98q143 0 215 -81.5t72 -207.5q0 -61 -18 -116.5t-45 -98.5t-71.5 -87.5t-86 -77t-99.5 -72.5q23 -40 113 -178q147 -206 209 -275q90 163 112 412h154q-38 -314 -158 -510 q133 -118 250 -121v-151q-183 6 -348 145q-154 -154 -383 -154q-221 0 -335 100.5t-114 284.5zM227 369q0 -124 71.5 -191t215.5 -67q166 0 270 110q-97 109 -239 314q-80 116 -115 174q-203 -154 -203 -340zM430 1202q0 -131 72 -284q109 77 167 151.5t58 173.5 q0 73 -32 117.5t-103 44.5q-80 0 -121 -54.5t-41 -148.5z" />
<glyph unicode="'" horiz-adv-x="430" d="M133 1403v113h160v-113l-29 -408h-100z" />
<glyph unicode="(" horiz-adv-x="714" d="M100 561q0 550 437 977l96 -80q-167 -186 -262 -415.5t-95 -481.5q0 -256 96 -489t263 -412l-98 -80q-437 427 -437 981z" />
<glyph unicode=")" horiz-adv-x="714" d="M80 -340q168 186 263 415.5t95 483.5q0 255 -95.5 487.5t-262.5 411.5l96 80q436 -426 436 -979q0 -549 -436 -979z" />
<glyph unicode="*" horiz-adv-x="948" d="M76 1075v123l340 -27l-197 285l111 68l145 -316l143 316l109 -68l-195 -285l340 27v-123l-340 27l195 -283l-109 -65l-143 313l-145 -313l-111 65l195 283z" />
<glyph unicode="+" horiz-adv-x="1095" d="M100 604v141h375v437h146v-437h374v-141h-374v-434h-146v434h-375z" />
<glyph unicode="," horiz-adv-x="485" d="M145 0v213h191v-193l-92 -229h-78l55 209h-76z" />
<glyph unicode="-" horiz-adv-x="630" d="M106 571v140h420v-140h-420z" />
<glyph unicode="." horiz-adv-x="485" d="M145 0v213h191v-213h-191z" />
<glyph unicode="/" horiz-adv-x="989" d="M35 0l749 1516h170l-749 -1516h-170z" />
<glyph unicode="0" horiz-adv-x="1153" d="M90 758q0 383 125 584.5t363 201.5q237 0 361 -201.5t124 -584.5t-124 -585t-361 -202q-238 0 -363 202t-125 585zM260 758q0 -637 318 -637q315 0 315 637q0 635 -315 635q-157 0 -237.5 -154t-80.5 -481z" />
<glyph unicode="1" horiz-adv-x="780" d="M94 0v150h244v1187q-48 -30 -116 -49.5t-124 -19.5v149q162 6 246 99h160v-1366h217v-150h-627z" />
<glyph unicode="2" horiz-adv-x="1032" d="M76 0v33q0 105 23.5 195t63.5 156t91.5 124t108.5 104.5t114 90.5t108.5 89.5t91.5 94.5t63.5 112t23.5 136q0 124 -60.5 191t-173.5 67q-190 0 -292 -252l-142 59q142 344 445 344q186 0 287.5 -108.5t101.5 -292.5q0 -80 -23 -151.5t-61.5 -127t-88.5 -107t-105 -96.5 t-110.5 -88.5t-105.5 -90t-89 -95.5t-62 -109.5t-23 -127.5h670v-150h-856z" />
<glyph unicode="3" horiz-adv-x="1046" d="M31 307l143 60q52 -133 130 -189.5t192 -56.5q135 0 212.5 80t77.5 211q0 162 -93 241.5t-298 79.5h-53v139h88q169 0 245.5 72t76.5 213q0 108 -57.5 173t-182.5 65q-172 0 -297 -172l-121 82q78 112 188.5 175.5t245.5 63.5q98 0 174 -29.5t122.5 -81t70 -118 t23.5 -144.5q0 -139 -69 -232.5t-179 -129.5q282 -90 282 -397q0 -193 -124.5 -315t-325.5 -122q-183 0 -296 85.5t-175 246.5z" />
<glyph unicode="4" horiz-adv-x="1083" d="M51 354v131l586 1031h190v-1010h213v-152h-213v-354h-163v354h-613zM227 506h439v778h-2z" />
<glyph unicode="5" horiz-adv-x="1032" d="M59 276l140 68q114 -227 305 -227q98 0 165.5 53t96.5 136t29 190q0 174 -71.5 268t-193.5 94q-91 0 -155.5 -41.5t-118.5 -124.5l-129 29l49 795h709l-8 -154h-562l-34 -506q96 143 286 143q181 0 287.5 -128t106.5 -367q0 -248 -121 -390.5t-332 -142.5 q-159 0 -266.5 78.5t-182.5 226.5z" />
<glyph unicode="6" horiz-adv-x="1077" d="M90 731q0 242 55.5 423t171 285.5t279.5 104.5q219 0 352 -194l-129 -86q-22 31 -41.5 52.5t-47.5 41.5t-63 30.5t-77 10.5q-110 0 -186 -79.5t-112 -215.5t-38 -320q149 170 350 170q202 0 303 -129.5t101 -347.5q0 -223 -119 -364.5t-326 -141.5q-217 0 -345 192 t-128 568zM256 629q17 -256 97.5 -385t217.5 -129q130 0 201.5 93t71.5 265q0 334 -264 334q-192 0 -324 -178z" />
<glyph unicode="7" horiz-adv-x="962" d="M76 1362v154h823v-142l-537 -1374h-172l533 1362h-647z" />
<glyph unicode="8" horiz-adv-x="1075" d="M63 360q0 77 24.5 142t73 117t105 92t135.5 82q-66 38 -113 75t-86 83.5t-59 104.5t-20 126q0 72 27 137t77.5 116t131 81t180.5 30q101 0 181.5 -30t130 -81t75.5 -115.5t26 -137.5q0 -125 -69.5 -210t-206.5 -161q81 -44 136 -83.5t103.5 -93t72.5 -120.5t24 -149 q0 -171 -126.5 -283.5t-346.5 -112.5q-226 0 -351 110.5t-125 280.5zM231 373q0 -118 84 -192.5t224 -74.5q138 0 220.5 73.5t82.5 195.5q0 59 -21.5 108.5t-67 92.5t-96.5 77t-129 76q-153 -85 -225 -165t-72 -191zM289 1178q0 -98 62.5 -164t197.5 -137 q124 67 181.5 133.5t57.5 163.5t-61 164t-186 67q-123 0 -187.5 -66t-64.5 -161z" />
<glyph unicode="9" horiz-adv-x="1077" d="M70 1038q0 222 120 364t326 142q218 0 344.5 -191.5t126.5 -568.5q0 -243 -54 -423t-168.5 -285t-279.5 -105q-230 0 -368 205l127 86q53 -71 107 -109t138 -38q162 0 247 167.5t85 448.5q-146 -170 -348 -170q-201 0 -302 130t-101 347zM233 1042q0 -333 269 -333 q188 0 317 178q-15 255 -95.5 383.5t-215.5 128.5q-132 0 -203.5 -92t-71.5 -265z" />
<glyph unicode=":" horiz-adv-x="491" d="M150 0v213h190v-213h-190zM150 868v213h190v-213h-190z" />
<glyph unicode=";" horiz-adv-x="491" d="M150 0v213h190v-190l-94 -232h-78l55 209h-73zM150 868v213h190v-213h-190z" />
<glyph unicode="&#x3c;" horiz-adv-x="1169" d="M119 602v123l921 457v-154l-751 -364l751 -365v-154z" />
<glyph unicode="=" horiz-adv-x="1095" d="M129 367v137h838v-137h-838zM129 827v138h838v-138h-838z" />
<glyph unicode="&#x3e;" horiz-adv-x="1169" d="M131 145v154l750 365l-750 364v154l924 -457v-123z" />
<glyph unicode="?" horiz-adv-x="954" d="M68 1247q143 297 426 297q178 0 278 -99t100 -253q0 -56 -12 -105.5t-28 -82.5t-47.5 -71t-53 -58t-63.5 -56q-71 -65 -103.5 -112.5t-46.5 -112.5t-14 -178h-142q-2 39 -2 123q0 82 25.5 148.5t61 108.5t96.5 95q58 49 90 85.5t53 88t21 115.5q0 100 -59 158.5 t-165 58.5q-171 0 -278 -213zM334 0v207h198v-207h-198z" />
<glyph unicode="@" horiz-adv-x="1523" d="M80 756q0 239 88 419t242.5 274.5t353.5 94.5q148 0 274 -54.5t215.5 -153.5t140 -242.5t50.5 -315.5q0 -221 -83 -340t-226 -119q-93 0 -148.5 44t-75.5 116q-129 -153 -278 -153q-121 0 -188 88t-66 248q0 242 98.5 394t257.5 152q135 0 217 -110l13 92h133l-76 -600 q-21 -176 127 -176q89 0 143 89t54 273q0 310 -161 494t-421 184q-263 0 -423.5 -186.5t-160.5 -509.5q0 -330 159.5 -514.5t422.5 -184.5q189 0 360 95l41 -74q-175 -109 -403 -109q-310 0 -495 208t-185 577zM518 676q-3 -236 150 -236q110 0 217 119l53 424 q-78 107 -190 107q-101 0 -164.5 -115.5t-65.5 -298.5z" />
<glyph unicode="A" horiz-adv-x="1155" d="M53 0l445 1522h159l445 -1522h-172l-121 436h-473l-121 -436h-162zM379 586h389l-66 231q-79 278 -127 467h-4q-47 -188 -127 -463z" />
<glyph unicode="B" horiz-adv-x="1187" d="M156 0v1516h442q221 0 338 -94.5t117 -286.5q0 -77 -20 -138.5t-55 -102.5t-76 -66.5t-89 -39.5v-4q281 -60 281 -372q0 -197 -122.5 -304.5t-338.5 -107.5h-477zM326 150h303q154 0 226.5 69.5t72.5 208.5q0 149 -84.5 214t-247.5 65h-270v-557zM326 850h262 q149 0 225 61.5t76 194.5q0 136 -70 196t-227 60h-266v-512z" />
<glyph unicode="C" horiz-adv-x="1200" d="M94 762q0 373 146 577.5t395 204.5q379 0 469 -479l-160 -29q-37 178 -109.5 264t-203.5 86q-174 0 -269.5 -164.5t-95.5 -457.5q0 -308 95.5 -472.5t273.5 -164.5q133 0 210.5 88.5t117.5 280.5l157 -27q-47 -232 -166.5 -364t-320.5 -132q-253 0 -396 202.5t-143 586.5 z" />
<glyph unicode="D" horiz-adv-x="1226" d="M156 0v1516h333q321 0 482.5 -182t161.5 -574q0 -391 -163 -575.5t-481 -184.5h-333zM328 154h184q231 0 340 144.5t109 461.5q0 310 -109.5 454t-341.5 144h-182v-1204z" />
<glyph unicode="E" horiz-adv-x="1040" d="M156 0v1516h774v-158h-602v-479h440v-156h-440v-567h637v-156h-809z" />
<glyph unicode="F" horiz-adv-x="978" d="M156 0v1516h764v-158h-592v-490h432v-155h-432v-713h-172z" />
<glyph unicode="G" horiz-adv-x="1251" d="M94 762q0 368 143.5 575t397.5 207q195 0 308 -123t159 -356l-156 -31q-39 182 -113 267t-202 85q-170 0 -267.5 -159.5t-97.5 -460.5q0 -317 96.5 -478t276.5 -161q152 0 236 114.5t88 336.5h-289v147h442v-725h-137v207h-2q-42 -98 -133 -166t-223 -68 q-252 0 -389.5 206t-137.5 583z" />
<glyph unicode="H" horiz-adv-x="1269" d="M156 0v1516h172v-637h614v637h172v-1516h-172v721h-614v-721h-172z" />
<glyph unicode="I" horiz-adv-x="507" d="M168 0v1516h172v-1516h-172z" />
<glyph unicode="J" horiz-adv-x="882" d="M39 96l82 125q56 -43 123.5 -68.5t128.5 -25.5q89 0 140.5 52.5t51.5 160.5v1176h172v-1178q0 -175 -94.5 -268t-257.5 -93q-91 0 -182 31t-164 88z" />
<glyph unicode="K" horiz-adv-x="1163" d="M156 0v1516h172v-795q38 65 157 233l394 562h182l-420 -588l487 -928h-182l-411 782l-207 -282v-500h-172z" />
<glyph unicode="L" horiz-adv-x="991" d="M156 0v1516h172v-1360h600v-156h-772z" />
<glyph unicode="M" horiz-adv-x="1505" d="M156 0v1516h215l383 -1276h4l375 1276h215v-1516h-166v1241h-4q-21 -111 -105 -385l-260 -856h-135l-260 860q-68 218 -105 383h-4v-1243h-153z" />
<glyph unicode="N" d="M156 0v1516h200l475 -928q78 -150 134 -269h4v1197h157v-1516h-157l-508 977q-107 207 -144 287h-4v-1264h-157z" />
<glyph unicode="O" d="M94 758q0 187 41 337t114.5 248t174 149.5t219.5 51.5q244 0 395.5 -207t151.5 -579q0 -187 -41 -337.5t-114.5 -248t-173 -149.5t-218.5 -52t-219.5 52t-174 149.5t-114.5 248t-41 337.5zM266 758q0 -299 100.5 -465t276.5 -166q173 0 273 166.5t100 464.5t-100 463 t-273 165q-176 0 -276.5 -165t-100.5 -463z" />
<glyph unicode="P" horiz-adv-x="1132" d="M156 0v1516h424q217 0 342 -106.5t125 -326.5q0 -98 -24.5 -175.5t-67 -128.5t-103.5 -84t-131 -47.5t-152 -14.5h-243v-633h-170zM326 782h249q155 0 230.5 69.5t75.5 225.5q0 149 -75.5 215t-232.5 66h-247v-576z" />
<glyph unicode="Q" d="M94 758q0 373 152.5 579.5t398.5 206.5q242 0 393.5 -207t151.5 -579q0 -347 -129 -546t-342 -228q9 -128 74.5 -175t199.5 -47h88v-147h-127q-207 0 -303 98.5t-98 272.5q-209 32 -334 233t-125 539zM266 758q0 -299 101.5 -467t277.5 -168q172 0 271.5 168t99.5 467 q0 298 -99.5 463t-271.5 165q-176 0 -277.5 -165t-101.5 -463z" />
<glyph unicode="R" horiz-adv-x="1167" d="M156 0v1516h430q224 0 342.5 -107.5t118.5 -323.5q0 -172 -79.5 -273.5t-207.5 -135.5l307 -676h-176l-297 645h-268v-645h-170zM326 793h249q156 0 231 66.5t75 223.5q0 147 -75 211t-231 64h-249v-565z" />
<glyph unicode="S" horiz-adv-x="1120" d="M68 334l147 67q118 -274 356 -274q132 0 208.5 66.5t76.5 177.5q0 37 -9.5 70t-23 58.5t-39.5 51t-48 42.5t-59.5 38.5t-62.5 34.5t-69 34q-157 75 -219 118q-162 111 -186 281q-5 32 -5 68q0 164 118 270.5t294 106.5q168 0 279.5 -87.5t172.5 -231.5l-147 -72 q-104 240 -307 240q-107 0 -173.5 -61t-66.5 -158q0 -37 9.5 -70t23 -58.5t38.5 -51t46.5 -43t58.5 -39t61.5 -34.5t67.5 -34q159 -75 225 -121q165 -115 186 -292q3 -27 3 -56q0 -170 -124.5 -285t-328.5 -115q-349 0 -503 359z" />
<glyph unicode="T" horiz-adv-x="1062" d="M53 1358v158h955v-158h-392v-1358h-172v1358h-391z" />
<glyph unicode="U" horiz-adv-x="1232" d="M143 498v1018h172v-996q0 -197 70 -296t233 -99q162 0 233 98.5t71 292.5v1000h165v-1014q0 -118 -27.5 -213t-83 -166.5t-147 -110.5t-213.5 -39q-243 0 -358 139t-115 386z" />
<glyph unicode="V" horiz-adv-x="1144" d="M53 1516h172l228 -820q53 -187 122 -460h5q34 137 122 456l228 824h162l-439 -1522h-161z" />
<glyph unicode="W" horiz-adv-x="1591" d="M61 1516h164l164 -779q48 -226 90 -448h4q20 120 86 448l154 779h156l159 -799q60 -282 84 -428h4q32 181 84 428l166 799h154l-338 -1522h-145l-248 1220h-4l-250 -1220h-146z" />
<glyph unicode="X" horiz-adv-x="1136" d="M37 0l440 819l-373 697h185l289 -553l282 553h166l-369 -693l441 -823h-180l-357 682l-356 -682h-168z" />
<glyph unicode="Y" horiz-adv-x="1077" d="M33 1516h176l332 -734h4l332 734h165l-417 -887v-629h-172v625z" />
<glyph unicode="Z" horiz-adv-x="1079" d="M68 0v129l725 1229h-676v158h876v-130l-721 -1230h721v-156h-925z" />
<glyph unicode="[" horiz-adv-x="694" d="M145 -410v1926h476v-130h-308v-1667h308v-129h-476z" />
<glyph unicode="\" horiz-adv-x="978" d="M29 1516h172l747 -1516h-170z" />
<glyph unicode="]" horiz-adv-x="694" d="M72 -281h307v1667h-307v130h475v-1926h-475v129z" />
<glyph unicode="^" horiz-adv-x="909" d="M172 1190l225 326h115l225 -326h-100l-184 180l-181 -180h-100z" />
<glyph unicode="_" horiz-adv-x="880" d="M-6 -133h893v-133h-893v133z" />
<glyph unicode="`" horiz-adv-x="909" d="M215 1516h195l163 -320h-112z" />
<glyph unicode="a" horiz-adv-x="964" d="M74 256q0 337 604 457v65q0 92 -40 136t-122 44q-170 0 -319 -145l-93 100q191 191 428 191q308 0 308 -326v-512q0 -194 26 -266h-166q-22 79 -22 139q-140 -153 -346 -153q-122 0 -190 71.5t-68 198.5zM236 279q0 -158 151 -158q160 0 291 141v332q-442 -95 -442 -315z " />
<glyph unicode="b" horiz-adv-x="1040" d="M131 0v1513h166v-571q131 162 297 162q167 0 268 -140.5t101 -420.5t-104.5 -419.5t-274.5 -139.5q-168 0 -287 145v-129h-166zM297 268q122 -147 256 -147q113 0 177.5 103t64.5 317q0 209 -66 314.5t-178 105.5q-71 0 -129.5 -39t-124.5 -113v-541z" />
<glyph unicode="c" horiz-adv-x="933" d="M80 541q0 141 34 251t93 177t134 101t161 34q79 0 141 -25t104 -71.5t69 -100.5t48 -125l-151 -41q-32 110 -80.5 165t-134.5 55q-110 0 -181 -105t-71 -315q0 -198 66.5 -311t185.5 -113q86 0 141 54t86 169l145 -39q-94 -324 -378 -324q-178 0 -295 148t-117 416z" />
<glyph unicode="d" horiz-adv-x="1040" d="M82 541q0 280 103.5 421.5t271.5 141.5q169 0 291 -152v564h163v-1250q0 -192 27 -266h-170q-20 58 -20 141q-134 -157 -299 -157q-167 0 -267 138t-100 419zM248 537q0 -209 66 -312.5t180 -103.5q126 0 254 147v543q-127 150 -256 150q-114 0 -179 -104.5t-65 -319.5z " />
<glyph unicode="e" horiz-adv-x="962" d="M80 541q0 141 34.5 251.5t93.5 177t132.5 100.5t157.5 34q182 0 283.5 -143t101.5 -414v-41h-639q4 -188 73 -288.5t187 -100.5q90 0 148.5 46.5t107.5 141.5l114 -72q-59 -120 -155.5 -188t-222.5 -68q-185 0 -300.5 145.5t-115.5 418.5zM246 631h479q-8 154 -65.5 243 t-163.5 89q-97 0 -167 -84t-83 -248z" />
<glyph unicode="f" horiz-adv-x="608" d="M43 944v137h158v164q0 273 295 273q69 0 79 -5v-137q-2 0 -30 1t-31 1q-149 0 -149 -137v-160h202v-137h-202v-944h-164v944h-158z" />
<glyph unicode="g" horiz-adv-x="1009" d="M31 -150q0 160 176 242q-90 49 -90 135q0 46 32 92.5t84 77.5q-68 53 -105.5 135t-37.5 181q0 174 106 282.5t273 108.5q169 0 272 -109q42 36 102 64t115 37v-156q-91 0 -163 -29q49 -87 49 -198q0 -177 -104 -282t-269 -105q-83 0 -147 24q-62 -34 -62 -84 q0 -32 25.5 -47.5t99.5 -25.5l168 -21q199 -23 285 -87t86 -189q0 -142 -131.5 -224t-337.5 -82q-224 0 -325 66.5t-101 193.5zM184 -125q0 -86 66 -126t225 -40q133 0 215 44.5t82 121.5q0 68 -53 104.5t-191 53.5l-176 22q-5 1 -15 2t-15 2q-67 -32 -102.5 -80.5 t-35.5 -103.5zM250 711q0 -121 58.5 -191.5t162.5 -70.5q102 0 159.5 70.5t57.5 191.5q0 123 -56.5 192.5t-162.5 69.5q-103 0 -161 -71t-58 -191z" />
<glyph unicode="h" horiz-adv-x="1028" d="M131 0v1516h166v-584q63 70 154 121t188 51q131 0 198.5 -76.5t67.5 -224.5v-803h-164v768q0 98 -35.5 144t-117.5 46q-72 0 -150 -45t-141 -110v-803h-166z" />
<glyph unicode="i" horiz-adv-x="450" d="M141 0v1081h166v-1081h-166zM141 1296v179h168v-179h-168z" />
<glyph unicode="j" horiz-adv-x="450" d="M-4 -274q30 -5 57 -5q88 0 88 117v1243h166v-1249q0 -126 -51 -185t-174 -59q-64 0 -86 9v129zM141 1296v179h168v-179h-168z" />
<glyph unicode="k" horiz-adv-x="940" d="M131 0v1516h164v-992q10 18 149 213l248 344h170l-293 -395l330 -686h-170l-262 551l-172 -227v-324h-164z" />
<glyph unicode="l" horiz-adv-x="450" d="M141 0v1516h166v-1516h-166z" />
<glyph unicode="m" horiz-adv-x="1595" d="M131 0v1081h166v-149q68 73 153 122.5t177 49.5q107 0 165.5 -43t79.5 -129q160 172 338 172q130 0 196.5 -76.5t66.5 -224.5v-803h-164v768q0 99 -35 144.5t-117 45.5q-123 0 -272 -145v-813h-166v768q0 100 -32 145t-114 45q-123 0 -276 -153v-805h-166z" />
<glyph unicode="n" horiz-adv-x="1028" d="M131 0v1081h166v-149q63 70 154 121t188 51q131 0 198.5 -76.5t67.5 -224.5v-803h-164v768q0 98 -35.5 144t-117.5 46q-72 0 -150 -45t-141 -110v-803h-166z" />
<glyph unicode="o" horiz-adv-x="1013" d="M80 541q0 270 119.5 416.5t308.5 146.5q188 0 307 -146.5t119 -416.5q0 -269 -119.5 -416.5t-306.5 -147.5q-91 0 -168.5 36.5t-135.5 106t-91 177.5t-33 244zM246 541q0 -123 26 -215.5t86 -150.5t150 -58q126 0 193 113.5t67 310.5q0 120 -26.5 212.5t-86.5 150 t-147 57.5q-128 0 -195 -113t-67 -307z" />
<glyph unicode="p" horiz-adv-x="1040" d="M131 -410v1491h166v-137q132 160 297 160q167 0 267 -140.5t100 -420.5t-104 -419.5t-273 -139.5t-287 147v-541h-166zM297 268q122 -147 256 -147q113 0 177.5 103t64.5 317q0 209 -66 314.5t-178 105.5q-124 0 -254 -150v-543z" />
<glyph unicode="q" horiz-adv-x="1040" d="M82 539q0 281 101 423t268 142q88 0 158 -41t134 -117v135h166v-1491h-166v551q-62 -73 -131.5 -116t-162.5 -43q-167 0 -267 138t-100 419zM248 541q0 -211 66.5 -316.5t179.5 -105.5q69 0 125 36.5t124 110.5v543q-66 75 -124.5 113.5t-126.5 38.5q-114 0 -179 -103.5 t-65 -316.5z" />
<glyph unicode="r" horiz-adv-x="706" d="M131 0v1081h166v-186h4q51 91 138 150t204 59h23l-11 -156q-31 2 -39 2q-103 0 -186.5 -60.5t-132.5 -160.5v-729h-166z" />
<glyph unicode="s" horiz-adv-x="890" d="M41 199l113 82q54 -81 129.5 -124.5t162.5 -43.5q103 0 159.5 42t56.5 117q0 54 -31 93.5t-81 64t-110 46t-120 48t-110 61t-81 92.5t-31 136q0 129 95.5 210t246.5 81q229 0 357 -195l-111 -86q-94 144 -248 144q-89 0 -134.5 -40t-45.5 -106q0 -54 31 -93t80 -63 t109 -45t119.5 -46.5t108.5 -60t80 -93.5t31 -139q0 -138 -106.5 -221t-266.5 -83q-265 0 -403 222z" />
<glyph unicode="t" horiz-adv-x="665" d="M37 944v137h160v385h163v-385h238v-137h-238v-663q0 -87 30.5 -123.5t113.5 -36.5q57 0 92 14v-133q-44 -14 -129 -14q-148 0 -209 58t-61 198v700h-160z" />
<glyph unicode="u" horiz-adv-x="1028" d="M123 279v802h164v-772q0 -97 36.5 -142.5t122.5 -45.5q133 0 285 155v805h166v-1081h-166v150q-158 -173 -342 -173q-130 0 -198 77t-68 225z" />
<glyph unicode="v" horiz-adv-x="903" d="M37 1081h166l176 -614q8 -31 78 -291h4q34 141 76 291l174 614h155l-327 -1085h-174z" />
<glyph unicode="w" horiz-adv-x="1306" d="M39 1081h160l133 -542q18 -71 67 -301h4q27 146 66 307l119 536h145l121 -532q49 -200 68 -313h4q28 143 69 313l127 532h146l-275 -1085h-145l-191 825h-4l-194 -825h-144z" />
<glyph unicode="x" horiz-adv-x="894" d="M37 0l325 565l-292 516h172l219 -391l207 391h159l-292 -512l325 -569h-172l-246 446l-245 -446h-160z" />
<glyph unicode="y" horiz-adv-x="931" d="M12 -387l33 131q72 -16 131 -16q67 0 103 38.5t65 129.5l31 94l-338 1091h170l164 -565q41 -138 88 -326h4q45 174 92 338l160 553h157l-372 -1200q-50 -158 -118 -225.5t-202 -67.5q-90 0 -168 25z" />
<glyph unicode="z" horiz-adv-x="880" d="M66 0v106l526 838h-481v137h677v-108l-526 -838h549v-135h-745z" />
<glyph unicode="{" horiz-adv-x="686" d="M57 489v127q71 0 111 18.5t61 71.5t21 150v379q0 281 256 281h125v-130h-76q-71 0 -104 -37t-33 -114v-387q0 -97 -20 -157.5t-50.5 -88t-83.5 -47.5v-4q53 -20 83.5 -47.5t50.5 -88t20 -157.5v-389q0 -77 33 -113.5t104 -36.5h76v-129h-129q-252 0 -252 281v379 q0 98 -21.5 150.5t-61 70.5t-110.5 18z" />
<glyph unicode="|" horiz-adv-x="630" d="M233 -410v1926h164v-1926h-164z" />
<glyph unicode="}" horiz-adv-x="686" d="M55 -281h76q71 0 104 36.5t33 113.5v395q0 97 20 156t50 84.5t84 46.5v4q-54 21 -84 46.5t-50 84.5t-20 156v393q0 77 -33 114t-104 37h-76v130h133q131 0 189.5 -68.5t58.5 -206.5v-385q0 -97 21 -150t61 -71.5t111 -18.5v-127q-71 0 -110.5 -18t-61 -70.5t-21.5 -150.5 v-385q0 -137 -58.5 -206t-187.5 -69h-135v129z" />
<glyph unicode="~" horiz-adv-x="909" d="M152 836q0 243 170 243q47 0 98 -28.5t94.5 -57t73.5 -28.5q36 0 52.5 24.5t16.5 85.5h99q0 -244 -166 -244q-37 0 -77.5 18t-69 39.5t-61 39.5t-56.5 18q-38 0 -55 -25t-17 -85h-102z" />
<glyph unicode="&#xa1;" horiz-adv-x="575" d="M186 0l39 1100h119l41 -1100h-199zM186 1311v205h197v-205h-197z" />
<glyph unicode="&#xa2;" horiz-adv-x="933" d="M80 541q0 141 34 251t93 177t134 101t161 34h28l41 190h127l-47 -219q146 -64 213 -293l-151 -41q-37 131 -99 185l-176 -807q24 -8 60 -8q86 0 141 56.5t86 172.5l145 -39q-94 -324 -378 -324q-38 0 -76 9l-51 -232h-125l59 277q-101 63 -160 193t-59 317zM246 541 q0 -238 94 -355l168 781h-10q-110 0 -181 -108t-71 -318z" />
<glyph unicode="&#xa3;" horiz-adv-x="1101" d="M33 178q0 102 64 168t165 66q94 0 193 -82q4 58 4 94q0 128 -74 301h-233v131h174q-44 100 -67 171t-23 140q0 172 96 274.5t260 102.5q92 0 161 -30.5t110 -85.5t63 -121.5t28 -149.5l-155 -18q-10 124 -58 192t-151 68q-90 0 -141.5 -58t-51.5 -170q0 -47 17 -108 t30.5 -92.5t49.5 -114.5h294v-131h-239q59 -157 59 -289q0 -121 -35 -217q55 -51 99 -78.5t90 -27.5q76 0 113 63.5t40 210.5h146q-2 -96 -17.5 -168.5t-48 -130t-88 -87.5t-133.5 -30q-74 0 -134.5 35t-125.5 98q-93 -133 -256 -133q-92 0 -158.5 55.5t-66.5 151.5z M162 184q0 -46 28.5 -73t71.5 -27q111 0 160 115q-90 94 -160 94q-45 0 -72.5 -29.5t-27.5 -79.5z" />
<glyph unicode="&#xa4;" horiz-adv-x="1236" d="M31 537v131h202q-2 31 -2 96q0 55 2 82h-202v131h213q33 288 157 427.5t316 139.5q93 0 168 -32.5t127.5 -92t86 -137t50.5 -172.5l-160 -29q-29 150 -91 231t-179 81q-261 0 -309 -416h360v-131h-371q-2 -27 -2 -80q0 -67 2 -98h371v-131h-360q25 -209 102.5 -312.5 t214.5 -103.5q119 0 187.5 83.5t99.5 244.5l155 -25q-36 -202 -149.5 -327.5t-292.5 -125.5q-199 0 -324 139.5t-159 426.5h-213z" />
<glyph unicode="&#xa5;" horiz-adv-x="1077" d="M33 1516h176l332 -734h4l332 734h165l-405 -857h338v-129h-354v-180h354v-129h-354v-221h-164v221h-355v129h355v180h-355v129h336z" />
<glyph unicode="&#xa6;" horiz-adv-x="630" d="M233 -410v838h164v-838h-164zM233 678v838h164v-838h-164z" />
<glyph unicode="&#xa7;" horiz-adv-x="964" d="M84 598q0 104 64.5 190t160.5 142q-84 70 -120.5 137t-36.5 156q0 137 91.5 230t245.5 93q74 0 131.5 -17t96.5 -45t68 -71.5t45.5 -90.5t29.5 -108l-149 -36q-25 115 -73.5 171t-145.5 56q-87 0 -134 -48.5t-47 -125.5t54 -139t180 -146q63 -42 99 -67.5t80.5 -61 t68 -63.5t46 -64.5t31.5 -76t9 -85.5q0 -104 -64 -189.5t-160 -141.5q82 -71 117 -137.5t35 -155.5q0 -137 -90 -229.5t-242 -92.5q-89 0 -154.5 24t-106.5 71t-65 102t-40 131l147 39q26 -113 73.5 -171.5t143.5 -58.5q89 0 131.5 49t42.5 128q0 78 -51.5 139.5 t-173.5 144.5q-64 42 -100 67.5t-81 61t-69 63.5t-47 64.5t-32 76t-9 85.5zM238 618q0 -84 56.5 -145.5t215.5 -167.5q7 -6 22.5 -15t18.5 -11q174 94 174 231q0 44 -12.5 78t-48.5 71.5t-81 71.5t-128 90q-6 4 -19.5 13.5t-19.5 13.5q-84 -44 -131 -103t-47 -127z" />
<glyph unicode="&#xa8;" horiz-adv-x="909" d="M209 1194v184h168v-184h-168zM537 1194v184h163v-184h-163z" />
<glyph unicode="&#xa9;" horiz-adv-x="1458" d="M80 756q0 162 49.5 307.5t135.5 251t206.5 167.5t257.5 62t257.5 -61.5t206.5 -166.5t135.5 -250t49.5 -306q0 -216 -84.5 -397t-234 -286.5t-330.5 -105.5q-183 0 -332.5 105t-233 284.5t-83.5 395.5zM178 760q0 -191 71.5 -351.5t198.5 -254t281 -93.5q155 0 282 93 t198 252t71 350t-71.5 351t-198 253.5t-281.5 93.5t-282 -93t-198 -251.5t-71 -349.5zM426 768q0 210 82 327t223 117q114 0 179.5 -73.5t95.5 -208.5l-115 -21q-22 97 -58 144t-102 47q-87 0 -134.5 -89.5t-47.5 -242.5q0 -159 47 -247.5t137 -88.5q65 0 103.5 49t62.5 154 l113 -23q-61 -295 -281 -295q-143 0 -224 117t-81 334z" />
<glyph unicode="&#xaa;" horiz-adv-x="753" d="M84 938q0 242 424 326v45q0 125 -107 125q-112 0 -223 -107l-76 76q139 139 314 139q112 0 164.5 -58.5t52.5 -174.5v-361q0 -135 22 -192h-131q-16 66 -16 96q-106 -109 -236 -109q-88 0 -138 51t-50 144zM211 954q0 -104 98 -104q106 0 199 100v226q-297 -64 -297 -222 z" />
<glyph unicode="&#xab;" horiz-adv-x="931" d="M68 541l254 538h161l-245 -538l245 -541h-161zM436 541l254 538h162l-248 -538l248 -541h-162z" />
<glyph unicode="&#xac;" horiz-adv-x="1587" d="M35 668v176l332 -27l-23 340h49v51l340 -22l-26 330h176l-29 -330l342 22v-51h49l-22 -340l327 27v-176l-327 28l22 -342h-49v-45l-342 23l29 -332h-176l26 332l-340 -23v45h-49l23 342zM467 700l16 -254l256 -16v270h-272zM467 811h272v274l-256 -14zM850 430l256 16 l16 254h-272v-270zM850 811h272l-16 260l-256 14v-274z" />
<glyph unicode="&#xad;" horiz-adv-x="630" d="M106 571v140h420v-140h-420z" />
<glyph unicode="&#xae;" horiz-adv-x="1458" d="M80 756q0 162 49.5 307.5t135.5 251t206.5 167.5t257.5 62t257.5 -61.5t206.5 -166.5t135.5 -250t49.5 -306q0 -216 -84.5 -397t-234 -286.5t-330.5 -105.5q-183 0 -332.5 105t-233 284.5t-83.5 395.5zM176 760q0 -191 72 -352t199.5 -255t281.5 -94q155 0 282 93.5 t198 253t71 350.5t-72 351.5t-198.5 254.5t-280.5 94q-155 0 -282.5 -93.5t-199 -252.5t-71.5 -350zM481 350v844h248q126 0 194 -62.5t68 -185.5q0 -180 -147 -233l160 -363h-130l-153 346h-121v-346h-119zM600 801h123q75 0 111 33.5t36 109.5q0 72 -36 104.5t-111 32.5 h-123v-280z" />
<glyph unicode="&#xaf;" horiz-adv-x="909" d="M193 1264v137h524v-137h-524z" />
<glyph unicode="&#xb0;" horiz-adv-x="704" d="M96 1255q0 125 71.5 206t186.5 81q112 0 182 -80t70 -207q0 -125 -70 -206.5t-182 -81.5q-115 0 -186.5 80.5t-71.5 207.5zM213 1255q0 -86 38 -137t103 -51q63 0 100.5 51.5t37.5 136.5t-37.5 136t-100.5 51q-65 0 -103 -51t-38 -136z" />
<glyph unicode="&#xb1;" horiz-adv-x="1556" d="M43 944v137h158v164q0 134 73 203.5t215 69.5q66 0 76 -5v-137q-1 0 -27 1t-30 1q-143 0 -143 -137v-160h362v160q0 134 73.5 205.5t213.5 71.5q66 0 76 -5v-137q-2 0 -28 1t-30 1q-143 0 -143 -137v-160h192v-137h-192v-944h-162v944h-362v-944h-164v944h-158zM1251 0 v1516h162v-1516h-162z" />
<glyph unicode="&#xb2;" horiz-adv-x="774" d="M113 625v41q0 75 21.5 136.5t56 103t76 77.5t82.5 67t75.5 63.5t56 75.5t21.5 95q0 61 -28 95t-83 34q-49 0 -86 -38.5t-67 -114.5l-119 49q88 227 278 227q117 0 179.5 -65.5t62.5 -182.5q0 -56 -19.5 -105t-51.5 -85t-70 -69t-77.5 -63.5t-72.5 -61t-55.5 -70 t-26.5 -82.5h375v-127h-528z" />
<glyph unicode="&#xb3;" horiz-adv-x="774" d="M92 831l111 52q34 -81 76.5 -114.5t101.5 -33.5q67 0 106 40.5t39 105.5q0 86 -47.5 128t-152.5 42h-43v96h59q168 0 168 147q0 53 -29.5 87t-89.5 34q-89 0 -170 -108l-96 67q112 162 274 162q120 0 182 -64.5t62 -164.5q0 -142 -127 -201q73 -31 108 -85.5t35 -139.5 q0 -121 -75.5 -195t-200.5 -74q-206 0 -291 219z" />
<glyph unicode="&#xb4;" horiz-adv-x="909" d="M338 1196l166 320h190l-245 -320h-111z" />
<glyph unicode="&#xb5;" horiz-adv-x="1032" d="M125 -410v1491h168v-770q0 -98 36 -145t120 -47q128 0 284 153v809h168v-1081h-168v154q-157 -161 -309 -168q-90 -3 -131 43v-439h-168z" />
<glyph unicode="&#xb6;" horiz-adv-x="1105" d="M96 1098q0 184 104 301t287 117h471v-1926h-141v1784h-166v-1784h-141v1098q-200 5 -307 108.5t-107 301.5z" />
<glyph unicode="&#xb7;" horiz-adv-x="544" d="M168 526v215h209v-215h-209z" />
<glyph unicode="&#xb8;" horiz-adv-x="909" d="M227 -342l49 80q83 -60 183 -60q61 0 92 24t31 67q0 67 -72 67q-48 0 -90 -39l-64 29l52 186h92l-33 -121q45 29 98 29q56 0 95.5 -35t39.5 -104q0 -92 -69 -144.5t-170 -52.5q-134 0 -234 74z" />
<glyph unicode="&#xb9;" horiz-adv-x="692" d="M156 618v125h137v619q-59 -27 -135 -27v123q101 3 153 55h123v-770h121v-125h-399z" />
<glyph unicode="&#xba;" horiz-adv-x="757" d="M74 1145q0 191 85 295t220 104t220 -104t85 -295t-85.5 -295.5t-219.5 -104.5q-133 0 -219 104.5t-86 295.5zM203 1145q0 -131 43.5 -213t132.5 -82q88 0 132 79.5t44 215.5q0 128 -44 208.5t-132 80.5q-87 0 -131.5 -78.5t-44.5 -210.5z" />
<glyph unicode="&#xbb;" horiz-adv-x="931" d="M80 0l250 541l-250 538h164l252 -538l-252 -541h-164zM451 0l245 541l-245 538h161l250 -538l-250 -541h-161z" />
<glyph unicode="&#xbc;" horiz-adv-x="1622" d="M156 618v125h137v619q-59 -27 -135 -27v123q101 3 153 55h123v-770h121v-125h-399zM383 0l770 1516h143l-770 -1516h-143zM920 209v92l337 596h140v-569h121v-119h-121v-209h-131v209h-346zM1057 326h211v374z" />
<glyph unicode="&#xbd;" horiz-adv-x="1703" d="M156 618v125h137v619q-59 -27 -135 -27v123q101 3 153 55h123v-770h121v-125h-399zM383 0l770 1516h143l-770 -1516h-143zM1038 0v41q0 75 21.5 137t56 104t75.5 78t82.5 67.5t76 64t56 75.5t21.5 95q0 60 -28 93t-84 33q-93 0 -154 -153l-117 51q89 227 277 227 q117 0 179.5 -65.5t62.5 -181.5q0 -57 -19.5 -106t-51.5 -85.5t-70 -69.5t-77.5 -64t-72.5 -61.5t-55.5 -70t-26.5 -82.5h375v-127h-527z" />
<glyph unicode="&#xbe;" horiz-adv-x="1660" d="M92 831l111 52q34 -81 76.5 -114.5t101.5 -33.5q67 0 106 40.5t39 105.5q0 86 -47.5 128t-152.5 42h-43v96h59q168 0 168 147q0 53 -29.5 87t-89.5 34q-89 0 -170 -108l-96 67q112 162 274 162q120 0 182 -64.5t62 -164.5q0 -142 -127 -201q73 -31 108 -85.5t35 -139.5 q0 -121 -75.5 -195t-200.5 -74q-206 0 -291 219zM420 0l770 1516h143l-770 -1516h-143zM958 209v92l338 596h138v-569h120v-119h-120v-209h-131v209h-345zM1094 326h211v374z" />
<glyph unicode="&#xbf;" horiz-adv-x="954" d="M82 324q0 56 12.5 105.5t28 82t48 70.5t53 57.5t63.5 56.5q71 65 103.5 113t46.5 113t14 178h141q2 -39 2 -123q0 -118 -44.5 -195t-135.5 -157q-88 -73 -127 -134.5t-39 -154.5q0 -100 58.5 -158.5t164.5 -58.5q172 0 279 213l137 -64q-143 -297 -424 -297 q-179 0 -280 99t-101 254zM422 1309v207h199v-207h-199z" />
<glyph unicode="&#xc0;" horiz-adv-x="1155" d="M53 0l445 1522h159l445 -1522h-172l-121 436h-473l-121 -436h-162zM289 1932h195l163 -320h-112zM379 586h389l-66 231q-79 278 -127 467h-4q-47 -188 -127 -463z" />
<glyph unicode="&#xc1;" horiz-adv-x="1155" d="M53 0l445 1522h159l445 -1522h-172l-121 436h-473l-121 -436h-162zM379 586h389l-66 231q-79 278 -127 467h-4q-47 -188 -127 -463zM508 1612l166 320h190l-245 -320h-111z" />
<glyph unicode="&#xc2;" horiz-adv-x="1155" d="M53 0l445 1522h159l445 -1522h-172l-121 436h-473l-121 -436h-162zM293 1589l225 326h117l225 -326h-102l-180 180l-183 -180h-102zM379 586h389l-66 231q-79 278 -127 467h-4q-47 -188 -127 -463z" />
<glyph unicode="&#xc3;" horiz-adv-x="1155" d="M53 0l445 1522h159l445 -1522h-172l-121 436h-473l-121 -436h-162zM275 1604q0 244 170 244q47 0 98 -29t94.5 -57.5t73.5 -28.5q36 0 52.5 24.5t16.5 85.5h99q0 -243 -166 -243q-37 0 -77.5 18t-69 39t-61 39t-56.5 18q-38 0 -55 -25t-17 -85h-102zM379 586h389l-66 231 q-79 278 -127 467h-4q-47 -188 -127 -463z" />
<glyph unicode="&#xc4;" horiz-adv-x="1155" d="M53 0l445 1522h159l445 -1522h-172l-121 436h-473l-121 -436h-162zM332 1610v184h168v-184h-168zM379 586h389l-66 231q-79 278 -127 467h-4q-47 -188 -127 -463zM660 1610v184h163v-184h-163z" />
<glyph unicode="&#xc5;" horiz-adv-x="1155" d="M53 0l430 1473q-80 55 -80 172q0 86 48 140t127 54q78 0 126 -54.5t48 -139.5q0 -55 -21.5 -100t-58.5 -70l430 -1475h-172l-121 436h-473l-121 -436h-162zM379 586h389l-66 231q-79 278 -127 467h-4q-47 -188 -127 -463zM492 1645q0 -49 23 -83t63 -34t63 34t23 83 q0 48 -23 80t-63 32t-63 -32t-23 -80z" />
<glyph unicode="&#xc6;" horiz-adv-x="1708" d="M43 0l696 1516h858v-158h-602v-481h441v-154h-441v-567h637v-156h-807v469h-401l-213 -469h-168zM487 616h338v736z" />
<glyph unicode="&#xc7;" horiz-adv-x="1200" d="M94 762q0 373 146 577.5t395 204.5q379 0 469 -479l-160 -29q-37 178 -109.5 264t-203.5 86q-174 0 -269.5 -164.5t-95.5 -457.5q0 -308 95.5 -472.5t273.5 -164.5q133 0 210.5 88.5t117.5 280.5l157 -27q-23 -112 -62 -200.5t-97.5 -156t-141 -103.5t-184.5 -36l-23 -82 q45 29 99 29q56 0 95.5 -35t39.5 -104q0 -92 -69.5 -144.5t-170.5 -52.5q-133 0 -233 74l49 80q83 -60 182 -60q61 0 92 24t31 67q0 67 -72 67q-48 0 -90 -39l-63 29l43 154q-214 34 -332.5 233.5t-118.5 548.5z" />
<glyph unicode="&#xc8;" horiz-adv-x="1040" d="M156 0v1516h774v-158h-602v-479h440v-156h-440v-567h637v-156h-809zM281 1932h195l163 -320h-112z" />
<glyph unicode="&#xc9;" horiz-adv-x="1040" d="M156 0v1516h774v-158h-602v-479h440v-156h-440v-567h637v-156h-809zM420 1612l166 320h190l-245 -320h-111z" />
<glyph unicode="&#xca;" horiz-adv-x="1040" d="M156 0v1516h774v-158h-602v-479h440v-156h-440v-567h637v-156h-809zM256 1606l225 326h117l225 -326h-102l-180 180l-183 -180h-102z" />
<glyph unicode="&#xcb;" horiz-adv-x="1040" d="M156 0v1516h774v-158h-602v-479h440v-156h-440v-567h637v-156h-809zM295 1610v184h168v-184h-168zM623 1610v184h163v-184h-163z" />
<glyph unicode="&#xcc;" horiz-adv-x="507" d="M14 1932h195l163 -320h-112zM168 0v1516h172v-1516h-172z" />
<glyph unicode="&#xcd;" horiz-adv-x="507" d="M137 1612l166 320h190l-245 -320h-111zM168 0v1516h172v-1516h-172z" />
<glyph unicode="&#xce;" horiz-adv-x="507" d="M-31 1606l225 326h117l225 -326h-102l-180 180l-183 -180h-102zM168 0v1516h172v-1516h-172z" />
<glyph unicode="&#xcf;" horiz-adv-x="507" d="M8 1610v184h168v-184h-168zM168 0v1516h172v-1516h-172zM336 1610v184h163v-184h-163z" />
<glyph unicode="&#xd0;" horiz-adv-x="1226" d="M29 727v143h127v646h333q321 0 482.5 -182t161.5 -574q0 -391 -163 -575.5t-481 -184.5h-333v727h-127zM324 154h188q231 0 340 144.5t109 461.5q0 310 -109.5 454t-341.5 144h-186v-488h268v-143h-268v-573z" />
<glyph unicode="&#xd1;" d="M156 0v1516h200l475 -928q78 -150 134 -269h4v1197h157v-1516h-157l-508 977q-107 207 -144 287h-4v-1264h-157zM340 1604q0 244 170 244q47 0 98 -29t94.5 -57.5t73.5 -28.5q36 0 52.5 24.5t16.5 85.5h99q0 -243 -166 -243q-37 0 -77.5 18t-69 39t-61 39t-56.5 18 q-38 0 -55 -25t-17 -85h-102z" />
<glyph unicode="&#xd2;" d="M94 758q0 187 41 337t114.5 248t174 149.5t219.5 51.5q244 0 395.5 -207t151.5 -579q0 -187 -41 -337.5t-114.5 -248t-173 -149.5t-218.5 -52t-219.5 52t-174 149.5t-114.5 248t-41 337.5zM266 758q0 -299 100.5 -465t276.5 -166q173 0 273 166.5t100 464.5t-100 463 t-273 165q-176 0 -276.5 -165t-100.5 -463zM403 1932h195l163 -320h-112z" />
<glyph unicode="&#xd3;" d="M94 758q0 187 41 337t114.5 248t174 149.5t219.5 51.5q244 0 395.5 -207t151.5 -579q0 -187 -41 -337.5t-114.5 -248t-173 -149.5t-218.5 -52t-219.5 52t-174 149.5t-114.5 248t-41 337.5zM266 758q0 -299 100.5 -465t276.5 -166q173 0 273 166.5t100 464.5t-100 463 t-273 165q-176 0 -276.5 -165t-100.5 -463zM526 1612l166 320h190l-245 -320h-111z" />
<glyph unicode="&#xd4;" d="M94 758q0 187 41 337t114.5 248t174 149.5t219.5 51.5q244 0 395.5 -207t151.5 -579q0 -187 -41 -337.5t-114.5 -248t-173 -149.5t-218.5 -52t-219.5 52t-174 149.5t-114.5 248t-41 337.5zM266 758q0 -299 100.5 -465t276.5 -166q173 0 273 166.5t100 464.5t-100 463 t-273 165q-176 0 -276.5 -165t-100.5 -463zM358 1606l225 326h117l225 -326h-102l-180 180l-183 -180h-102z" />
<glyph unicode="&#xd5;" d="M94 758q0 187 41 337t114.5 248t174 149.5t219.5 51.5q244 0 395.5 -207t151.5 -579q0 -187 -41 -337.5t-114.5 -248t-173 -149.5t-218.5 -52t-219.5 52t-174 149.5t-114.5 248t-41 337.5zM266 758q0 -299 100.5 -465t276.5 -166q173 0 273 166.5t100 464.5t-100 463 t-273 165q-176 0 -276.5 -165t-100.5 -463zM340 1604q0 244 170 244q47 0 98 -29t94.5 -57.5t73.5 -28.5q36 0 52.5 24.5t16.5 85.5h99q0 -243 -166 -243q-37 0 -77.5 18t-69 39t-61 39t-56.5 18q-38 0 -55 -25t-17 -85h-102z" />
<glyph unicode="&#xd6;" d="M94 758q0 187 41 337t114.5 248t174 149.5t219.5 51.5q244 0 395.5 -207t151.5 -579q0 -187 -41 -337.5t-114.5 -248t-173 -149.5t-218.5 -52t-219.5 52t-174 149.5t-114.5 248t-41 337.5zM266 758q0 -299 100.5 -465t276.5 -166q173 0 273 166.5t100 464.5t-100 463 t-273 165q-176 0 -276.5 -165t-100.5 -463zM397 1610v184h168v-184h-168zM725 1610v184h163v-184h-163z" />
<glyph unicode="&#xd7;" horiz-adv-x="1095" d="M127 354l324 322l-324 321l96 97l324 -324l321 324l97 -97l-324 -321l324 -322l-97 -96l-321 322l-324 -322z" />
<glyph unicode="&#xd8;" d="M94 758q0 187 41 337t114.5 248t174 149.5t219.5 51.5q169 0 293 -100l94 164l105 -60l-109 -194q164 -214 164 -596q0 -187 -41 -337.5t-114.5 -248t-173 -149.5t-218.5 -52q-172 0 -299 103l-90 -164l-107 61l109 195q-162 208 -162 592zM264 758q0 -268 84 -436 l514 974q-93 93 -219 93q-176 0 -277.5 -166.5t-101.5 -464.5zM420 221q90 -96 223 -96q173 0 274 167.5t101 465.5q0 268 -84 436z" />
<glyph unicode="&#xd9;" horiz-adv-x="1232" d="M143 498v1018h172v-996q0 -197 70 -296t233 -99q162 0 233 98.5t71 292.5v1000h165v-1014q0 -118 -27.5 -213t-83 -166.5t-147 -110.5t-213.5 -39q-243 0 -358 139t-115 386zM377 1932h195l163 -320h-112z" />
<glyph unicode="&#xda;" horiz-adv-x="1232" d="M143 498v1018h172v-996q0 -197 70 -296t233 -99q162 0 233 98.5t71 292.5v1000h165v-1014q0 -118 -27.5 -213t-83 -166.5t-147 -110.5t-213.5 -39q-243 0 -358 139t-115 386zM500 1612l166 320h190l-245 -320h-111z" />
<glyph unicode="&#xdb;" horiz-adv-x="1232" d="M143 498v1018h172v-996q0 -197 70 -296t233 -99q162 0 233 98.5t71 292.5v1000h165v-1014q0 -118 -27.5 -213t-83 -166.5t-147 -110.5t-213.5 -39q-243 0 -358 139t-115 386zM334 1606l225 326h117l225 -326h-102l-180 180l-183 -180h-102z" />
<glyph unicode="&#xdc;" horiz-adv-x="1232" d="M143 498v1018h172v-996q0 -197 70 -296t233 -99q162 0 233 98.5t71 292.5v1000h165v-1014q0 -118 -27.5 -213t-83 -166.5t-147 -110.5t-213.5 -39q-243 0 -358 139t-115 386zM371 1610v184h168v-184h-168zM699 1610v184h163v-184h-163z" />
<glyph unicode="&#xdd;" horiz-adv-x="1077" d="M33 1516h176l332 -734h4l332 734h165l-417 -887v-629h-172v625zM422 1612l166 320h190l-245 -320h-111z" />
<glyph unicode="&#xde;" horiz-adv-x="1132" d="M156 0v1516h170v-275h254q217 0 342 -107t125 -327q0 -122 -36.5 -211t-103.5 -140t-150.5 -74.5t-187.5 -23.5h-243v-358h-170zM326 510h249q155 0 230.5 69t75.5 224q0 148 -75.5 214t-232.5 66h-247v-573z" />
<glyph unicode="&#xdf;" horiz-adv-x="1083" d="M129 0v1077q0 209 106 324t289 115q176 0 275.5 -92t99.5 -261q0 -118 -60 -204t-161 -115q152 -28 243 -132t91 -286q0 -203 -95 -324.5t-270 -121.5q-163 0 -258 75l78 117q75 -59 174 -59q94 0 151.5 77.5t57.5 229.5q0 179 -92.5 259t-290.5 89v131q138 1 206 67.5 t68 180.5q0 107 -57.5 166t-161.5 59q-110 0 -168.5 -74t-58.5 -215v-1083h-166z" />
<glyph unicode="&#xe0;" horiz-adv-x="964" d="M74 256q0 337 604 457v65q0 92 -40 136t-122 44q-170 0 -319 -145l-93 100q191 191 428 191q308 0 308 -326v-512q0 -194 26 -266h-166q-22 79 -22 139q-140 -153 -346 -153q-122 0 -190 71.5t-68 198.5zM236 279q0 -158 151 -158q160 0 291 141v332q-442 -95 -442 -315z M242 1516h195l163 -320h-112z" />
<glyph unicode="&#xe1;" horiz-adv-x="964" d="M74 256q0 337 604 457v65q0 92 -40 136t-122 44q-170 0 -319 -145l-93 100q191 191 428 191q308 0 308 -326v-512q0 -194 26 -266h-166q-22 79 -22 139q-140 -153 -346 -153q-122 0 -190 71.5t-68 198.5zM236 279q0 -158 151 -158q160 0 291 141v332q-442 -95 -442 -315z M365 1196l166 320h190l-245 -320h-111z" />
<glyph unicode="&#xe2;" horiz-adv-x="964" d="M74 256q0 337 604 457v65q0 92 -40 136t-122 44q-170 0 -319 -145l-93 100q191 191 428 191q308 0 308 -326v-512q0 -194 26 -266h-166q-22 79 -22 139q-140 -153 -346 -153q-122 0 -190 71.5t-68 198.5zM197 1190l225 326h117l225 -326h-102l-180 180l-183 -180h-102z M236 279q0 -158 151 -158q160 0 291 141v332q-442 -95 -442 -315z" />
<glyph unicode="&#xe3;" horiz-adv-x="964" d="M74 256q0 337 604 457v65q0 92 -40 136t-122 44q-170 0 -319 -145l-93 100q191 191 428 191q308 0 308 -326v-512q0 -194 26 -266h-166q-22 79 -22 139q-140 -153 -346 -153q-122 0 -190 71.5t-68 198.5zM179 1188q0 244 170 244q47 0 98 -29t94.5 -57.5t73.5 -28.5 q36 0 52.5 24.5t16.5 85.5h99q0 -243 -166 -243q-37 0 -77.5 18t-69 39t-61 39t-56.5 18q-38 0 -55 -25t-17 -85h-102zM236 279q0 -158 151 -158q160 0 291 141v332q-442 -95 -442 -315z" />
<glyph unicode="&#xe4;" horiz-adv-x="964" d="M74 256q0 337 604 457v65q0 92 -40 136t-122 44q-170 0 -319 -145l-93 100q191 191 428 191q308 0 308 -326v-512q0 -194 26 -266h-166q-22 79 -22 139q-140 -153 -346 -153q-122 0 -190 71.5t-68 198.5zM236 279q0 -158 151 -158q160 0 291 141v332q-442 -95 -442 -315z M236 1194v184h168v-184h-168zM564 1194v184h163v-184h-163z" />
<glyph unicode="&#xe5;" horiz-adv-x="964" d="M74 256q0 337 604 457v65q0 92 -40 136t-122 44q-170 0 -319 -145l-93 100q191 191 428 191q308 0 308 -326v-512q0 -194 26 -266h-166q-22 79 -22 139q-140 -153 -346 -153q-122 0 -190 71.5t-68 198.5zM236 279q0 -158 151 -158q160 0 291 141v332q-442 -95 -442 -315z M308 1372q0 86 47.5 140.5t126.5 54.5q77 0 125.5 -55t48.5 -140q0 -86 -48.5 -142t-125.5 -56q-78 0 -126 56t-48 142zM396 1372q0 -49 23 -83t63 -34t63 34t23 83q0 48 -23 80.5t-63 32.5t-63 -32.5t-23 -80.5z" />
<glyph unicode="&#xe6;" horiz-adv-x="1552" d="M74 254q0 339 604 459v65q0 92 -40 136t-122 44q-170 0 -319 -145l-93 100q191 191 435 191q204 0 256 -168q55 82 132.5 125t159.5 43q184 0 286 -143t102 -414v-41h-639q4 -188 73 -288.5t187 -100.5q89 0 147 46.5t109 141.5l114 -72q-59 -121 -155 -188.5t-224 -67.5 q-112 0 -200.5 55t-141.5 161q-72 -88 -176.5 -148.5t-236.5 -60.5q-122 0 -190 71.5t-68 198.5zM236 276q0 -80 39.5 -119.5t111.5 -39.5q164 0 322 174q-31 108 -31 250q0 35 2 51q-444 -95 -444 -316zM838 631h479q-8 154 -65.5 243t-164.5 89q-97 0 -166.5 -83.5 t-82.5 -248.5z" />
<glyph unicode="&#xe7;" horiz-adv-x="933" d="M80 541q0 141 34 251t93 177t134 101t161 34q79 0 141 -25t104 -71.5t69 -100.5t48 -125l-151 -41q-32 110 -80.5 165t-134.5 55q-110 0 -181 -105t-71 -315q0 -198 66.5 -311t185.5 -113q86 0 141 54t86 169l145 -39q-44 -153 -136.5 -237t-231.5 -87l-23 -86 q45 29 99 29q56 0 95.5 -35t39.5 -104q0 -92 -69.5 -144.5t-170.5 -52.5q-133 0 -233 74l49 80q83 -60 182 -60q61 0 92 24t31 67q0 67 -72 67q-48 0 -90 -39l-63 29l43 160q-148 32 -240 175.5t-92 379.5z" />
<glyph unicode="&#xe8;" horiz-adv-x="962" d="M80 541q0 141 34.5 251.5t93.5 177t132.5 100.5t157.5 34q182 0 283.5 -143t101.5 -414v-41h-639q4 -188 73 -288.5t187 -100.5q90 0 148.5 46.5t107.5 141.5l114 -72q-59 -120 -155.5 -188t-222.5 -68q-185 0 -300.5 145.5t-115.5 418.5zM242 1516h195l163 -320h-112z M246 631h479q-8 154 -65.5 243t-163.5 89q-97 0 -167 -84t-83 -248z" />
<glyph unicode="&#xe9;" horiz-adv-x="962" d="M80 541q0 141 34.5 251.5t93.5 177t132.5 100.5t157.5 34q182 0 283.5 -143t101.5 -414v-41h-639q4 -188 73 -288.5t187 -100.5q90 0 148.5 46.5t107.5 141.5l114 -72q-59 -120 -155.5 -188t-222.5 -68q-185 0 -300.5 145.5t-115.5 418.5zM246 631h479q-8 154 -65.5 243 t-163.5 89q-97 0 -167 -84t-83 -248zM365 1196l166 320h190l-245 -320h-111z" />
<glyph unicode="&#xea;" horiz-adv-x="962" d="M80 541q0 141 34.5 251.5t93.5 177t132.5 100.5t157.5 34q182 0 283.5 -143t101.5 -414v-41h-639q4 -188 73 -288.5t187 -100.5q90 0 148.5 46.5t107.5 141.5l114 -72q-59 -120 -155.5 -188t-222.5 -68q-185 0 -300.5 145.5t-115.5 418.5zM197 1190l225 326h117l225 -326 h-102l-180 180l-183 -180h-102zM246 631h479q-8 154 -65.5 243t-163.5 89q-97 0 -167 -84t-83 -248z" />
<glyph unicode="&#xeb;" horiz-adv-x="962" d="M80 541q0 141 34.5 251.5t93.5 177t132.5 100.5t157.5 34q182 0 283.5 -143t101.5 -414v-41h-639q4 -188 73 -288.5t187 -100.5q90 0 148.5 46.5t107.5 141.5l114 -72q-59 -120 -155.5 -188t-222.5 -68q-185 0 -300.5 145.5t-115.5 418.5zM236 1194v184h168v-184h-168z M246 631h479q-8 154 -65.5 243t-163.5 89q-97 0 -167 -84t-83 -248zM564 1194v184h163v-184h-163z" />
<glyph unicode="&#xec;" horiz-adv-x="450" d="M-61 1516h195l163 -320h-112zM141 0v1081h166v-1081h-166z" />
<glyph unicode="&#xed;" horiz-adv-x="450" d="M141 0v1081h166v-1081h-166zM154 1196l166 320h190l-245 -320h-111z" />
<glyph unicode="&#xee;" horiz-adv-x="450" d="M-59 1190l225 326h117l225 -326h-102l-180 180l-183 -180h-102zM141 0v1081h166v-1081h-166z" />
<glyph unicode="&#xef;" horiz-adv-x="450" d="M-20 1194v184h168v-184h-168zM141 0v1081h166v-1081h-166zM308 1194v184h163v-184h-163z" />
<glyph unicode="&#xf0;" horiz-adv-x="1013" d="M80 526q0 256 111 396.5t294 140.5q83 0 156 -41t111 -117q-45 183 -150 326l-149 -86l-60 104l131 76q-53 56 -121 109l93 100q86 -64 153 -135l156 90l57 -107l-133 -77q110 -149 156.5 -334t46.5 -422q0 -276 -117 -424t-307 -148q-194 0 -311 147t-117 402zM246 528 q0 -121 27.5 -212t87.5 -146t147 -55q124 0 192 112t68 301q0 181 -67.5 293.5t-192.5 112.5q-126 0 -194 -108t-68 -298z" />
<glyph unicode="&#xf1;" horiz-adv-x="1028" d="M131 0v1081h166v-149q63 70 154 121t188 51q131 0 198.5 -76.5t67.5 -224.5v-803h-164v768q0 98 -35.5 144t-117.5 46q-72 0 -150 -45t-141 -110v-803h-166zM211 1188q0 244 170 244q47 0 98 -29t94.5 -57.5t73.5 -28.5q36 0 52.5 24.5t16.5 85.5h99q0 -243 -166 -243 q-37 0 -77.5 18t-69 39t-61 39t-56.5 18q-38 0 -55 -25t-17 -85h-102z" />
<glyph unicode="&#xf2;" horiz-adv-x="1013" d="M80 541q0 270 119.5 416.5t308.5 146.5q188 0 307 -146.5t119 -416.5q0 -269 -119.5 -416.5t-306.5 -147.5q-91 0 -168.5 36.5t-135.5 106t-91 177.5t-33 244zM246 541q0 -123 26 -215.5t86 -150.5t150 -58q126 0 193 113.5t67 310.5q0 120 -26.5 212.5t-86.5 150 t-147 57.5q-128 0 -195 -113t-67 -307zM268 1516h195l163 -320h-112z" />
<glyph unicode="&#xf3;" horiz-adv-x="1013" d="M80 541q0 270 119.5 416.5t308.5 146.5q188 0 307 -146.5t119 -416.5q0 -269 -119.5 -416.5t-306.5 -147.5q-91 0 -168.5 36.5t-135.5 106t-91 177.5t-33 244zM246 541q0 -123 26 -215.5t86 -150.5t150 -58q126 0 193 113.5t67 310.5q0 120 -26.5 212.5t-86.5 150 t-147 57.5q-128 0 -195 -113t-67 -307zM391 1196l166 320h190l-245 -320h-111z" />
<glyph unicode="&#xf4;" horiz-adv-x="1013" d="M80 541q0 270 119.5 416.5t308.5 146.5q188 0 307 -146.5t119 -416.5q0 -269 -119.5 -416.5t-306.5 -147.5q-91 0 -168.5 36.5t-135.5 106t-91 177.5t-33 244zM223 1190l225 326h117l225 -326h-102l-180 180l-183 -180h-102zM246 541q0 -123 26 -215.5t86 -150.5t150 -58 q126 0 193 113.5t67 310.5q0 120 -26.5 212.5t-86.5 150t-147 57.5q-128 0 -195 -113t-67 -307z" />
<glyph unicode="&#xf5;" horiz-adv-x="1013" d="M80 541q0 270 119.5 416.5t308.5 146.5q188 0 307 -146.5t119 -416.5q0 -269 -119.5 -416.5t-306.5 -147.5q-91 0 -168.5 36.5t-135.5 106t-91 177.5t-33 244zM205 1188q0 244 170 244q47 0 98 -29t94.5 -57.5t73.5 -28.5q36 0 52.5 24.5t16.5 85.5h99q0 -243 -166 -243 q-37 0 -77.5 18t-69 39t-61 39t-56.5 18q-38 0 -55 -25t-17 -85h-102zM246 541q0 -123 26 -215.5t86 -150.5t150 -58q126 0 193 113.5t67 310.5q0 120 -26.5 212.5t-86.5 150t-147 57.5q-128 0 -195 -113t-67 -307z" />
<glyph unicode="&#xf6;" horiz-adv-x="1013" d="M80 541q0 270 119.5 416.5t308.5 146.5q188 0 307 -146.5t119 -416.5q0 -269 -119.5 -416.5t-306.5 -147.5q-91 0 -168.5 36.5t-135.5 106t-91 177.5t-33 244zM246 541q0 -123 26 -215.5t86 -150.5t150 -58q126 0 193 113.5t67 310.5q0 120 -26.5 212.5t-86.5 150 t-147 57.5q-128 0 -195 -113t-67 -307zM262 1194v184h168v-184h-168zM590 1194v184h163v-184h-163z" />
<glyph unicode="&#xf7;" horiz-adv-x="1095" d="M100 604v141h895v-141h-895zM459 215v188h174v-188h-174zM459 948v187h174v-187h-174z" />
<glyph unicode="&#xf8;" horiz-adv-x="1013" d="M80 -27l106 170q-106 147 -106 398q0 270 119.5 416.5t308.5 146.5q137 0 240 -80l92 141l92 -57l-105 -166q107 -148 107 -401q0 -269 -119.5 -416.5t-306.5 -147.5q-136 0 -244 82l-92 -143zM242 541q0 -151 43 -258l383 608q-62 72 -160 72q-128 0 -197 -114.5 t-69 -307.5zM340 188q64 -73 168 -73q126 0 194 115t68 311q0 149 -43 256z" />
<glyph unicode="&#xf9;" horiz-adv-x="1028" d="M123 279v802h164v-772q0 -97 36.5 -142.5t122.5 -45.5q133 0 285 155v805h166v-1081h-166v150q-158 -173 -342 -173q-130 0 -198 77t-68 225zM274 1516h195l163 -320h-112z" />
<glyph unicode="&#xfa;" horiz-adv-x="1028" d="M123 279v802h164v-772q0 -97 36.5 -142.5t122.5 -45.5q133 0 285 155v805h166v-1081h-166v150q-158 -173 -342 -173q-130 0 -198 77t-68 225zM397 1196l166 320h190l-245 -320h-111z" />
<glyph unicode="&#xfb;" horiz-adv-x="1028" d="M123 279v802h164v-772q0 -97 36.5 -142.5t122.5 -45.5q133 0 285 155v805h166v-1081h-166v150q-158 -173 -342 -173q-130 0 -198 77t-68 225zM229 1190l225 326h117l225 -326h-102l-180 180l-183 -180h-102z" />
<glyph unicode="&#xfc;" horiz-adv-x="1028" d="M123 279v802h164v-772q0 -97 36.5 -142.5t122.5 -45.5q133 0 285 155v805h166v-1081h-166v150q-158 -173 -342 -173q-130 0 -198 77t-68 225zM266 1194v184h168v-184h-168zM594 1194v184h163v-184h-163z" />
<glyph unicode="&#xfd;" horiz-adv-x="931" d="M12 -387l33 131q72 -16 131 -16q67 0 103 38.5t65 129.5l31 94l-338 1091h170l164 -565q41 -138 88 -326h4q45 174 92 338l160 553h157l-372 -1200q-50 -158 -118 -225.5t-202 -67.5q-90 0 -168 25zM348 1196l166 320h190l-245 -320h-111z" />
<glyph unicode="&#xfe;" horiz-adv-x="1040" d="M131 -410v1926h166v-572q132 160 297 160q167 0 267 -140.5t100 -420.5t-104 -419.5t-273 -139.5t-287 147v-541h-166zM297 268q122 -147 256 -147q113 0 177.5 103t64.5 317q0 209 -66 314.5t-178 105.5q-124 0 -254 -150v-543z" />
<glyph unicode="&#xff;" horiz-adv-x="931" d="M12 -387l33 131q72 -16 131 -16q67 0 103 38.5t65 129.5l31 94l-338 1091h170l164 -565q41 -138 88 -326h4q45 174 92 338l160 553h157l-372 -1200q-50 -158 -118 -225.5t-202 -67.5q-90 0 -168 25zM219 1194v184h168v-184h-168zM547 1194v184h163v-184h-163z" />
<glyph unicode="&#x152;" horiz-adv-x="1898" d="M94 758q0 187 41 337t114.5 248t174 149.5t219.5 51.5q125 0 223.5 -60.5t161.5 -176.5v209h758v-158h-602v-481h442v-154h-442v-567h639v-156h-795v213q-62 -120 -160.5 -181t-224.5 -61q-119 0 -219.5 52t-174 149.5t-114.5 248t-41 337.5zM266 758q0 -299 100.5 -465 t276.5 -166q173 0 273 166.5t100 464.5t-100 463t-273 165q-176 0 -276.5 -165t-100.5 -463z" />
<glyph unicode="&#x153;" horiz-adv-x="1644" d="M80 541q0 270 119.5 416.5t308.5 146.5q109 0 196.5 -54.5t141.5 -158.5q54 105 141 159t191 54q184 0 286.5 -143.5t102.5 -413.5v-41h-641q6 -188 75 -288.5t187 -100.5q89 0 147 46.5t107 141.5l114 -72q-125 -256 -378 -256q-108 0 -194 54t-138 157 q-55 -103 -142 -157t-196 -54q-91 0 -168.5 36.5t-135.5 106t-91 177.5t-33 244zM246 541q0 -123 26 -215.5t86 -150.5t150 -58q126 0 193 113.5t67 310.5q0 120 -26.5 212.5t-86.5 150t-147 57.5q-128 0 -195 -113t-67 -307zM928 631h479q-8 155 -64.5 243.5t-164.5 88.5 q-97 0 -166.5 -83.5t-83.5 -248.5z" />
<glyph unicode="&#x178;" horiz-adv-x="1077" d="M33 1516h176l332 -734h4l332 734h165l-417 -887v-629h-172v625zM293 1610v184h168v-184h-168zM621 1610v184h163v-184h-163z" />
<glyph unicode="&#x2c6;" horiz-adv-x="909" d="M170 1190l225 326h117l225 -326h-102l-180 180l-183 -180h-102z" />
<glyph unicode="&#x2dc;" horiz-adv-x="909" d="M152 1188q0 244 170 244q47 0 98 -29t94.5 -57.5t73.5 -28.5q36 0 52.5 24.5t16.5 85.5h99q0 -243 -166 -243q-37 0 -77.5 18t-69 39t-61 39t-56.5 18q-38 0 -55 -25t-17 -85h-102z" />
<glyph unicode="&#x2000;" horiz-adv-x="966" />
<glyph unicode="&#x2001;" horiz-adv-x="1932" />
<glyph unicode="&#x2002;" horiz-adv-x="966" />
<glyph unicode="&#x2003;" horiz-adv-x="1932" />
<glyph unicode="&#x2004;" horiz-adv-x="644" />
<glyph unicode="&#x2005;" horiz-adv-x="483" />
<glyph unicode="&#x2006;" horiz-adv-x="322" />
<glyph unicode="&#x2007;" horiz-adv-x="322" />
<glyph unicode="&#x2008;" horiz-adv-x="241" />
<glyph unicode="&#x2009;" horiz-adv-x="386" />
<glyph unicode="&#x200a;" horiz-adv-x="107" />
<glyph unicode="&#x2010;" horiz-adv-x="630" d="M106 571v140h420v-140h-420z" />
<glyph unicode="&#x2011;" horiz-adv-x="630" d="M106 571v140h420v-140h-420z" />
<glyph unicode="&#x2012;" horiz-adv-x="630" d="M106 571v140h420v-140h-420z" />
<glyph unicode="&#x2013;" horiz-adv-x="1140" d="M106 567v148h928v-148h-928z" />
<glyph unicode="&#x2014;" horiz-adv-x="1560" d="M104 567v148h1350v-148h-1350z" />
<glyph unicode="&#x2018;" horiz-adv-x="487" d="M150 1090v196l96 230h78l-56 -216h68v-210h-186z" />
<glyph unicode="&#x2019;" horiz-adv-x="487" d="M147 1303v213h189v-197l-94 -229h-78l55 213h-72z" />
<glyph unicode="&#x201a;" horiz-adv-x="487" d="M147 0v213h189v-197l-94 -231h-78l55 215h-72z" />
<glyph unicode="&#x201c;" horiz-adv-x="841" d="M150 1090v196l96 230h78l-56 -216h68v-210h-186zM506 1090v196l94 230h76l-53 -216h69v-210h-186z" />
<glyph unicode="&#x201d;" horiz-adv-x="841" d="M147 1303v213h189v-197l-94 -229h-78l55 213h-72zM506 1303v213h184v-197l-94 -229h-76l55 213h-69z" />
<glyph unicode="&#x201e;" horiz-adv-x="841" d="M147 0v213h189v-197l-94 -231h-78l55 215h-72zM506 0v213h184v-197l-94 -231h-76l55 215h-69z" />
<glyph unicode="&#x2022;" horiz-adv-x="948" d="M231 717q0 106 69 175t173 69q106 0 175 -69t69 -175q0 -104 -69 -173t-175 -69q-104 0 -173 69t-69 173z" />
<glyph unicode="&#x2026;" horiz-adv-x="1456" d="M145 0v213h191v-213h-191zM631 0v213h190v-213h-190zM1116 0v213h191v-213h-191z" />
<glyph unicode="&#x202f;" horiz-adv-x="386" />
<glyph unicode="&#x2039;" horiz-adv-x="565" d="M61 541l254 538h162l-248 -538l248 -541h-162z" />
<glyph unicode="&#x203a;" horiz-adv-x="565" d="M86 0l250 541l-250 538h164l254 -538l-254 -541h-164z" />
<glyph unicode="&#x205f;" horiz-adv-x="483" />
<glyph unicode="&#x20ac;" horiz-adv-x="1236" d="M31 537v131h202q-2 31 -2 96q0 55 2 82h-202v131h213q33 288 157 427.5t316 139.5q93 0 168 -32.5t127.5 -92t86 -137t50.5 -172.5l-160 -29q-29 150 -91 231t-179 81q-261 0 -309 -416h360v-131h-371q-2 -27 -2 -80q0 -67 2 -98h371v-131h-360q25 -209 102.5 -312.5 t214.5 -103.5q119 0 187.5 83.5t99.5 244.5l155 -25q-36 -202 -149.5 -327.5t-292.5 -125.5q-199 0 -324 139.5t-159 426.5h-213z" />
<glyph unicode="&#x2122;" horiz-adv-x="1531" d="M51 1403v113h557v-113h-219v-766h-123v766h-215zM717 637v879h151l201 -699l201 699h155v-879h-118v647l-189 -647h-102l-191 649v-649h-108z" />
<glyph unicode="&#x25fc;" horiz-adv-x="1085" d="M0 0v1085h1085v-1085h-1085z" />
<glyph unicode="&#xfb01;" horiz-adv-x="1032" d="M43 944v137h158v164q0 134 73.5 203.5t214.5 69.5q66 0 76 -5v-137q-1 0 -27 1t-30 1q-143 0 -143 -137v-160h192v-137h-192v-944h-164v944h-158zM725 1296v179h166v-179h-166zM727 0v1081h162v-1081h-162z" />
<glyph unicode="&#xfb02;" horiz-adv-x="1032" d="M43 944v137h158v164q0 134 73.5 203.5t214.5 69.5q66 0 76 -5v-137q-1 0 -27 1t-30 1q-143 0 -143 -137v-160h192v-137h-192v-944h-164v944h-158zM727 0v1516h162v-1516h-162z" />
</font>
</defs>
</svg>
