<?xml version="1.0" standalone="no"?>
<!DOCTYPE svg PUBLIC "-//W3C//DTD SVG 1.1//EN" "http://www.w3.org/Graphics/SVG/1.1/DTD/svg11.dtd" >
<svg xmlns="http://www.w3.org/2000/svg">
<metadata></metadata>
<defs>
<font id="bentonsansregular" horiz-adv-x="1058" >
<font-face units-per-em="2048" ascent="1638" descent="-410" />
<missing-glyph horiz-adv-x="432" />
<glyph horiz-adv-x="0" />
<glyph horiz-adv-x="682" />
<glyph unicode=" "  horiz-adv-x="432" />
<glyph unicode="&#x09;" horiz-adv-x="432" />
<glyph unicode="&#xa0;" horiz-adv-x="432" />
<glyph unicode="!" horiz-adv-x="608" d="M164 1516h285l-52 -1082h-180zM176 0v248h262v-248h-262z" />
<glyph unicode="&#x22;" horiz-adv-x="792" d="M119 1395v121h209v-121l-29 -412h-152zM467 1395v121h207v-121l-29 -412h-149z" />
<glyph unicode="#" horiz-adv-x="1294" d="M53 418v184h228l55 311h-207v185h242l73 418h211l-73 -418h239l74 418h211l-74 -418h209v-185h-242l-57 -311h223v-184h-256l-71 -418h-213l73 418h-237l-74 -418h-213l74 418h-195zM492 598h239l57 320h-239z" />
<glyph unicode="$" horiz-adv-x="1165" d="M76 377l205 63q40 -99 93 -159.5t128 -81.5v491q-48 20 -80.5 35t-75.5 39t-72 47.5t-60 57t-49 70t-30 85t-12 104.5q0 158 99.5 263t271.5 127v159h172v-161q143 -22 229.5 -107.5t138.5 -224.5l-198 -82q-66 163 -177 207v-447q42 -17 66 -27.5t64 -29.5t64 -34 t57 -38.5t53 -46t42.5 -53.5t35 -64t20.5 -75t8 -88q0 -166 -105 -276t-298 -130v-190h-172v192q-307 40 -418 375zM350 1145q0 -71 39.5 -120.5t112.5 -90.5v385q-72 -13 -112 -60t-40 -114zM659 193q82 14 131.5 62.5t49.5 129.5t-47.5 135.5t-133.5 97.5v-425z" />
<glyph unicode="%" horiz-adv-x="1800" d="M72 1059q0 234 84 356.5t241 122.5q156 0 240 -122t84 -357t-84 -357t-240 -122q-157 0 -241 122.5t-84 356.5zM268 1059q0 -161 30.5 -232t98.5 -71q70 0 99.5 71t29.5 232q0 159 -30.5 230t-98.5 71q-70 0 -99.5 -69.5t-29.5 -231.5zM416 0l770 1516h196l-770 -1516 h-196zM1079 461q0 233 84.5 355t241.5 122q155 0 238 -122t83 -355q0 -235 -83 -357t-238 -122q-157 0 -241.5 122.5t-84.5 356.5zM1274 461q0 -161 31 -233t100 -72q70 0 99.5 71t29.5 234q0 158 -30.5 228.5t-98.5 70.5q-71 0 -101 -69t-30 -230z" />
<glyph unicode="&#x26;" horiz-adv-x="1300" d="M45 356q0 83 23 153.5t67.5 127t93.5 99t115 85.5q-90 188 -90 359q0 163 94 263.5t260 100.5q160 0 240 -86t80 -215q0 -63 -18 -120t-45.5 -100.5t-72 -87.5t-85 -75t-97.5 -69q8 -14 95 -148q115 -158 182 -233q73 150 92 362h205q-33 -292 -144 -487 q121 -95 236 -101v-204q-207 6 -375 131q-153 -140 -383 -140q-223 0 -348 102t-125 283zM276 381q0 -99 63.5 -161t186.5 -62q140 0 224 78q-85 95 -215 276q-65 91 -103 152q-156 -129 -156 -283zM473 1192q0 -111 62 -254q91 65 140.5 132t49.5 155q0 133 -115 133 q-66 0 -101.5 -43t-35.5 -123z" />
<glyph unicode="'" horiz-adv-x="450" d="M119 1395v121h211v-121l-29 -412h-154z" />
<glyph unicode="(" horiz-adv-x="724" d="M86 567q0 553 438 985l138 -106q-155 -187 -243.5 -411t-88.5 -468q0 -249 90 -478t244 -404l-140 -105q-438 428 -438 987z" />
<glyph unicode=")" horiz-adv-x="724" d="M61 -315q156 187 245 411t89 469q0 248 -89 476.5t-243 404.5l138 106q438 -428 438 -987q0 -553 -438 -985z" />
<glyph unicode="*" horiz-adv-x="966" d="M68 1040v156l333 -29l-196 275l141 84l137 -305l140 305l139 -84l-193 -275l330 29v-156l-330 27l193 -270l-139 -82l-140 301l-137 -301l-141 82l190 270z" />
<glyph unicode="+" horiz-adv-x="1126" d="M104 590v194h359v420h201v-420h358v-194h-358v-418h-201v418h-359z" />
<glyph unicode="," horiz-adv-x="493" d="M121 0v262h250v-235l-113 -246h-111l72 219h-98z" />
<glyph unicode="-" horiz-adv-x="638" d="M90 549v180h459v-180h-459z" />
<glyph unicode="." horiz-adv-x="493" d="M121 0v262h250v-262h-250z" />
<glyph unicode="/" horiz-adv-x="1048" d="M29 0l749 1516h240l-748 -1516h-241z" />
<glyph unicode="0" horiz-adv-x="1185" d="M78 758q0 384 132 585t382 201q251 0 382.5 -200.5t131.5 -585.5t-131.5 -586t-382.5 -201q-250 0 -382 201.5t-132 585.5zM317 758q0 -302 69.5 -439t205.5 -137q138 0 206 136t68 440q0 204 -32.5 332t-92 183.5t-149.5 55.5q-139 0 -207 -134t-68 -437z" />
<glyph unicode="1" horiz-adv-x="806" d="M74 0v207h239v1069q-49 -30 -114 -50t-121 -20v211q157 6 241 99h228v-1309h213v-207h-686z" />
<glyph unicode="2" d="M59 0v33q0 138 37.5 252t97 190.5t132 141t145 119.5t132 109.5t97 127t37.5 157.5q0 97 -49 148t-143 51q-175 0 -271 -231l-196 86q151 360 481 360q195 0 303.5 -110t108.5 -293q0 -99 -35 -186t-91 -151.5t-124 -122.5t-136.5 -111.5t-125 -106.5t-92.5 -118.5 t-37 -137.5h641v-207h-912z" />
<glyph unicode="3" horiz-adv-x="1075" d="M18 311l201 88q50 -120 118 -172.5t167 -52.5q120 0 188 68t68 180q0 145 -85 212.5t-269 67.5h-62v193h88q160 0 227.5 61.5t67.5 186.5q0 192 -205 192q-159 0 -274 -161l-168 114q82 120 199.5 188t265.5 68q198 0 307 -105t109 -272q0 -134 -66.5 -228.5 t-171.5 -129.5q127 -42 198.5 -138.5t71.5 -252.5q0 -202 -132 -323.5t-347 -121.5q-193 0 -312 88.5t-184 249.5z" />
<glyph unicode="4" horiz-adv-x="1134" d="M43 322v186l584 1008h262v-988h211v-206h-211v-322h-232v322h-614zM283 528h379v664h-3z" />
<glyph unicode="5" horiz-adv-x="1060" d="M41 291l197 92q101 -211 276 -211q129 0 192.5 87t63.5 239q0 155 -63.5 235t-174.5 80q-153 0 -247 -145l-172 39l49 809h760l-13 -213h-555l-30 -429q91 134 280 134q190 0 295 -129.5t105 -372.5q0 -251 -127 -393t-353 -142q-180 0 -294.5 82.5t-188.5 237.5z" />
<glyph unicode="6" horiz-adv-x="1105" d="M78 731q0 387 139 600t393 213q251 0 389 -229l-186 -113q-40 64 -89.5 101.5t-121.5 37.5q-140 0 -213.5 -135.5t-79.5 -388.5q148 148 334 148q196 0 302 -129.5t106 -354.5q0 -226 -126.5 -368t-344.5 -142q-235 0 -368.5 192.5t-133.5 567.5zM309 627 q15 -237 85.5 -347t197.5 -110q113 0 172 78t59 225q0 137 -52.5 213t-174.5 76q-170 0 -287 -135z" />
<glyph unicode="7" horiz-adv-x="962" d="M49 1303v213h873v-193l-516 -1323h-244l512 1303h-625z" />
<glyph unicode="8" horiz-adv-x="1103" d="M51 369q0 73 23.5 135t69.5 111.5t98 87t125 77.5q-124 76 -190 168.5t-66 225.5q0 75 28 141t81 118.5t139 83.5t194 31q110 0 196 -30.5t138 -83t79 -118t27 -140.5q0 -121 -64 -205t-190 -158q58 -32 101.5 -62t85.5 -70.5t68.5 -84t42.5 -100.5t16 -123 q0 -179 -135 -292.5t-365 -113.5q-241 0 -371.5 111.5t-130.5 290.5zM287 387q0 -102 71 -167.5t193 -65.5t192 64.5t70 168.5q0 97 -67 165.5t-209 143.5q-127 -74 -188.5 -144t-61.5 -165zM342 1161q0 -86 54.5 -144t170.5 -120q102 59 149.5 118t47.5 142 q0 84 -51.5 141.5t-157.5 57.5q-104 0 -158.5 -56t-54.5 -139z" />
<glyph unicode="9" horiz-adv-x="1105" d="M55 1034q0 225 129 367.5t344 142.5q238 0 369 -191.5t131 -568.5q0 -388 -136 -600.5t-392 -212.5q-262 0 -402 238l185 113q23 -34 41.5 -56t46.5 -46.5t61.5 -37t73.5 -12.5q139 0 212.5 137t78.5 391q-144 -147 -334 -147q-195 0 -301.5 129.5t-106.5 353.5z M283 1042q0 -288 231 -288q166 0 283 135q-25 452 -281 452q-115 0 -174 -76t-59 -223z" />
<glyph unicode=":" horiz-adv-x="505" d="M127 0v262h250v-262h-250zM127 823v262h250v-262h-250z" />
<glyph unicode=";" horiz-adv-x="505" d="M127 0v262h250v-231l-115 -250h-110l71 219h-96zM127 823v262h250v-262h-250z" />
<glyph unicode="&#x3c;" horiz-adv-x="1175" d="M123 586v155l921 453v-205l-686 -325l686 -326v-205z" />
<glyph unicode="=" horiz-adv-x="1126" d="M125 350v182h876v-182h-876zM125 803v182h876v-182h-876z" />
<glyph unicode="&#x3e;" horiz-adv-x="1175" d="M133 133v205l684 326l-684 325v205l922 -453v-155z" />
<glyph unicode="?" horiz-adv-x="991" d="M66 1217q66 154 180 240.5t278 86.5q187 0 290.5 -99.5t103.5 -254.5q0 -40 -6.5 -77t-14.5 -64.5t-26 -57.5t-30 -47.5t-38 -45t-38.5 -39.5t-43.5 -40q-72 -67 -103.5 -113.5t-45 -107t-13.5 -166.5h-199q-4 43 -4 123q0 62 14 114.5t44 97t58 74.5t73 72 q76 68 110.5 123t34.5 135t-47 125t-133 45q-82 0 -146 -56.5t-106 -147.5zM326 0v250h264v-250h-264z" />
<glyph unicode="@" horiz-adv-x="1533" d="M74 756q0 238 88.5 417.5t246 275t361.5 95.5q203 0 359.5 -94t243.5 -268.5t87 -403.5q0 -222 -87.5 -341.5t-246.5 -119.5q-185 0 -237 162q-122 -151 -271 -151q-119 0 -183.5 90.5t-61.5 251.5q1 244 96.5 391t249.5 147q132 0 207 -110l10 92h180l-76 -600 q-20 -160 113 -160q85 0 136.5 84.5t51.5 261.5q0 305 -157.5 482.5t-415.5 177.5q-260 0 -416.5 -180t-156.5 -498q0 -332 154 -507t417 -175q204 0 358 94l52 -88q-79 -52 -190 -81.5t-224 -29.5q-319 0 -503.5 206.5t-184.5 578.5zM559 690q-2 -108 28.5 -159.5 t96.5 -51.5q86 0 172 92l51 396q-66 84 -153 84t-139.5 -99.5t-55.5 -261.5z" />
<glyph unicode="A" horiz-adv-x="1193" d="M39 0l442 1522h232l442 -1522h-242l-98 362h-450l-101 -362h-225zM422 573h336l-49 185q-91 329 -115 440h-4q-24 -106 -117 -438z" />
<glyph unicode="B" horiz-adv-x="1212" d="M141 0v1516h480q103 0 185 -20t146.5 -63.5t99.5 -118.5t35 -177q0 -78 -20 -141t-54.5 -103.5t-72.5 -65.5t-82 -39v-4q266 -62 266 -370q0 -105 -37.5 -185.5t-103.5 -129.5t-151 -74t-185 -25h-506zM379 205h256q134 0 196 59t62 182q0 128 -70 181t-211 53h-233v-475 zM379 874h225q130 0 192 47.5t62 163.5q0 119 -58.5 168.5t-191.5 49.5h-229v-429z" />
<glyph unicode="C" horiz-adv-x="1220" d="M80 760q0 383 152.5 583.5t412.5 200.5q219 0 336 -130.5t156 -369.5l-226 -40q-32 167 -93.5 241t-178.5 74q-156 0 -236.5 -142.5t-80.5 -414.5q0 -283 81.5 -427.5t239.5 -144.5q120 0 186 76.5t101 259.5l223 -37q-99 -516 -512 -516q-262 0 -411.5 199t-149.5 588z " />
<glyph unicode="D" horiz-adv-x="1255" d="M141 0v1516h365q160 0 280 -40t209.5 -127.5t135 -234.5t45.5 -352q0 -207 -46.5 -356t-136.5 -237t-209.5 -128.5t-277.5 -40.5h-365zM383 215h149q214 0 307 125.5t93 421.5q0 287 -93.5 409.5t-308.5 122.5h-147v-1079z" />
<glyph unicode="E" d="M141 0v1516h822v-224h-580v-389h420v-217h-420v-469h610v-217h-852z" />
<glyph unicode="F" horiz-adv-x="995" d="M141 0v1516h807v-224h-565v-409h410v-217h-410v-666h-242z" />
<glyph unicode="G" horiz-adv-x="1275" d="M80 762q0 372 148 577t417 205q207 0 325 -124t165 -376l-220 -45q-35 174 -99 248t-177 74q-71 0 -127 -30.5t-99.5 -94.5t-67 -173t-23.5 -257q0 -576 327 -576q267 0 287 359h-254v201h471v-750h-182v201h-4q-35 -92 -126.5 -160t-222.5 -68q-258 0 -398 207t-140 582 z" />
<glyph unicode="H" horiz-adv-x="1298" d="M141 0v1516h242v-609h532v609h242v-1516h-242v684h-532v-684h-242z" />
<glyph unicode="I" horiz-adv-x="546" d="M152 0v1516h241v-1516h-241z" />
<glyph unicode="J" horiz-adv-x="909" d="M29 94l102 176q125 -86 246 -86q78 0 122 46.5t44 144.5v1141h241v-1156q0 -184 -99 -283.5t-284 -99.5q-101 0 -198 30.5t-174 86.5z" />
<glyph unicode="K" horiz-adv-x="1202" d="M141 0v1516h240v-728q42 75 143 226l338 502h258l-413 -592l471 -924h-260l-365 719l-172 -236v-483h-240z" />
<glyph unicode="L" horiz-adv-x="1019" d="M141 0v1516h242v-1299h584v-217h-826z" />
<glyph unicode="M" horiz-adv-x="1538" d="M141 0v1516h305l324 -1180h4l313 1180h308v-1516h-230v1153h-4q-20 -140 -92 -379l-219 -774h-182l-219 776q-23 74 -51.5 190t-41.5 191h-4v-1157h-211z" />
<glyph unicode="N" horiz-adv-x="1308" d="M141 0v1516h260l412 -805q62 -119 129 -265h4v1070h219v-1516h-223l-450 856q-94 184 -127 256h-5v-1112h-219z" />
<glyph unicode="O" horiz-adv-x="1308" d="M80 758q0 192 44 343.5t122 247.5t182 145.5t227 49.5q122 0 225.5 -49.5t182 -145.5t122.5 -247.5t44 -343.5t-44 -344t-122.5 -247.5t-182 -145.5t-225.5 -50q-123 0 -227 50t-182 145.5t-122 247.5t-44 344zM322 758q0 -275 87 -421.5t246 -146.5q158 0 244 146.5 t86 421.5q0 274 -86 418.5t-244 144.5q-160 0 -246.5 -144t-86.5 -419z" />
<glyph unicode="P" horiz-adv-x="1153" d="M141 0v1516h441q108 0 196 -25.5t156.5 -79t106.5 -145.5t38 -217q0 -107 -27.5 -190.5t-73.5 -137.5t-112 -88.5t-138 -49t-155 -14.5h-194v-569h-238zM379 778h203q138 0 202 61.5t64 202.5q0 135 -64 193.5t-204 58.5h-201v-516z" />
<glyph unicode="Q" horiz-adv-x="1308" d="M80 758q0 192 44.5 343.5t123 247.5t182.5 145.5t227 49.5q121 0 224 -49.5t181 -145t122.5 -247.5t44.5 -344q0 -174 -35 -313.5t-98.5 -233.5t-147.5 -150t-186 -73q7 -58 25 -94t53.5 -55t77.5 -25.5t110 -6.5h86v-202h-162q-114 0 -196.5 28.5t-131 82t-71 121.5 t-23.5 155q-204 40 -327 237t-123 529zM322 758q0 -275 88 -424.5t247 -149.5q156 0 242 149t86 425q0 274 -85.5 418.5t-242.5 144.5q-160 0 -247.5 -144.5t-87.5 -418.5z" />
<glyph unicode="R" horiz-adv-x="1191" d="M141 0v1516h451q235 0 361 -113.5t126 -345.5q0 -163 -71.5 -268.5t-190.5 -143.5l291 -645h-248l-270 592h-213v-592h-236zM377 797h205q137 0 201.5 58t64.5 198q0 133 -64 187t-202 54h-205v-497z" />
<glyph unicode="S" horiz-adv-x="1161" d="M61 338l203 100q119 -254 334 -254q116 0 180 51.5t64 145.5q0 44 -17 82t-39.5 64t-67 54t-76.5 44t-91 43q-157 72 -218 111q-166 107 -199 271q-9 45 -9 95q0 177 126 288t320 111q333 0 484 -330l-203 -104q-49 105 -116 163t-169 58q-94 0 -149.5 -47.5 t-55.5 -128.5q0 -43 16 -80t38.5 -63t64 -54t74 -45t86.5 -43q161 -73 225 -114q174 -113 204 -284q7 -40 7 -83q0 -85 -32.5 -160t-92 -132t-151.5 -90.5t-203 -33.5q-371 0 -537 365z" />
<glyph unicode="T" horiz-adv-x="1081" d="M43 1292v224h993v-224h-374v-1292h-242v1292h-377z" />
<glyph unicode="U" horiz-adv-x="1243" d="M125 510v1006h242v-984q0 -177 60 -260.5t200 -83.5q138 0 198 83t60 257v988h231v-1002q0 -258 -120.5 -399.5t-372.5 -141.5q-498 0 -498 537z" />
<glyph unicode="V" horiz-adv-x="1173" d="M39 1516h242l202 -768q56 -205 109 -433h4q35 161 109 428l204 773h226l-433 -1522h-231z" />
<glyph unicode="W" horiz-adv-x="1624" d="M45 1516h231l142 -695q48 -234 80 -426h4q29 185 78 426l133 695h215l139 -711q53 -264 74 -410h4q24 151 76 408l143 713h213l-338 -1522h-207l-217 1110h-4l-219 -1110h-209z" />
<glyph unicode="X" horiz-adv-x="1183" d="M37 0l426 809l-371 707h260l254 -508l244 508h233l-364 -699l428 -817h-256l-311 618l-308 -618h-235z" />
<glyph unicode="Y" horiz-adv-x="1128" d="M18 1516h248l301 -687h4l301 687h236l-424 -904v-612h-242v610z" />
<glyph unicode="Z" horiz-adv-x="1103" d="M55 0v176l684 1116h-635v224h926v-181l-676 -1118h676v-217h-975z" />
<glyph unicode="[" horiz-adv-x="733" d="M129 -410v1926h545v-175h-305v-1579h305v-172h-545z" />
<glyph unicode="\" horiz-adv-x="1028" d="M18 1516h242l748 -1516h-240z" />
<glyph unicode="]" horiz-adv-x="733" d="M57 -238h308v1579h-308v175h545v-1926h-545v172z" />
<glyph unicode="^" horiz-adv-x="946" d="M168 1196l225 332h160l223 -332h-137l-168 162l-166 -162h-137z" />
<glyph unicode="_" horiz-adv-x="888" d="M-10 -113h909v-176h-909v176z" />
<glyph unicode="`" horiz-adv-x="948" d="M199 1528h245l164 -330h-159z" />
<glyph unicode="a" horiz-adv-x="991" d="M57 266q0 340 596 453v47q0 76 -31.5 108.5t-103.5 32.5q-164 0 -307 -125l-117 144q90 83 208 132.5t245 49.5q170 0 252 -85.5t82 -256.5v-500q0 -187 26 -266h-231q-23 79 -23 137q-56 -71 -143 -110t-191 -39q-118 0 -190 73t-72 205zM285 305q0 -66 33.5 -99.5 t93.5 -33.5q135 0 241 113v274q-368 -79 -368 -254z" />
<glyph unicode="b" horiz-adv-x="1067" d="M117 0v1513h233v-561q120 156 291 156q165 0 262.5 -141t97.5 -422t-102.5 -421t-271.5 -140q-172 0 -277 133v-117h-233zM350 291q93 -117 213 -117q203 0 203 369q0 366 -205 366q-58 0 -108.5 -33.5t-102.5 -91.5v-493z" />
<glyph unicode="c" horiz-adv-x="958" d="M66 543q0 117 24.5 212.5t67 160t100 108.5t122 64t134.5 20q71 0 129.5 -17.5t99 -47.5t73 -74.5t53 -92.5t36.5 -108l-209 -51q-27 101 -69 146.5t-117 45.5q-97 0 -154 -88.5t-57 -277.5q0 -182 53 -277.5t158 -95.5q76 0 124 45.5t73 155.5l202 -52 q-42 -161 -142 -251.5t-263 -90.5q-89 0 -167 35t-139 102.5t-96.5 177.5t-35.5 251z" />
<glyph unicode="d" horiz-adv-x="1067" d="M68 543q0 281 102.5 423t271.5 142q91 0 156.5 -34t120.5 -103v545h233v-1250q0 -192 27 -266h-240q-20 55 -20 141q-121 -157 -291 -157q-166 0 -263 139t-97 420zM303 537q0 -363 205 -363q51 0 112 39t99 84v496q-92 116 -213 116q-203 0 -203 -372z" />
<glyph unicode="e" horiz-adv-x="987" d="M66 543q0 145 38 257t102 177.5t141 98t163 32.5q191 0 301.5 -143t110.5 -428v-64h-627q7 -151 66.5 -228t162.5 -77q81 0 136.5 36t111.5 111l148 -106q-65 -103 -172 -167.5t-234 -64.5q-96 0 -176 34t-141.5 101.5t-96 177.5t-34.5 253zM297 637h408 q-15 276 -197 276q-83 0 -140.5 -66.5t-70.5 -209.5z" />
<glyph unicode="f" horiz-adv-x="659" d="M37 899v186h156v134q0 144 73 222.5t248 78.5q91 0 119 -7v-188q-16 4 -70 4q-65 0 -101 -28t-36 -99v-117h199v-186h-199v-899h-233v899h-156z" />
<glyph unicode="g" horiz-adv-x="1042" d="M16 -160q0 150 170 232q-88 53 -88 137q0 52 35.5 102.5t93.5 87.5q-72 52 -110.5 134t-38.5 182q0 177 110 285t293 108q187 0 293 -109q43 40 107 69.5t120 37.5v-203q-80 0 -155 -22q35 -72 35 -166q0 -179 -108 -284t-290 -105q-82 0 -143 20q-43 -27 -43 -67 q0 -30 22.5 -43.5t88.5 -20.5l153 -16q222 -20 316 -87t94 -202q0 -149 -142 -234.5t-368 -85.5q-237 0 -341 63.5t-104 186.5zM229 -121q0 -75 59.5 -106t205.5 -31q122 0 194 34t72 99q0 62 -48 92t-188 43l-170 17q-4 1 -13.5 2t-14.5 2q-97 -57 -97 -152zM299 711 q0 -106 48.5 -165t137.5 -59q87 0 134 59t47 165q0 108 -46.5 165.5t-136.5 57.5q-88 0 -136 -59t-48 -164z" />
<glyph unicode="h" d="M117 0v1516h233v-572q54 67 143 115.5t191 48.5q126 0 196 -78t70 -227v-803h-233v750q0 81 -29.5 119t-95.5 38q-60 0 -127.5 -40t-114.5 -87v-780h-233z" />
<glyph unicode="i" horiz-adv-x="489" d="M127 0v1085h233v-1085h-233zM127 1264v219h235v-219h-235z" />
<glyph unicode="j" horiz-adv-x="489" d="M-35 -227q18 -6 66 -6q49 0 72.5 29t23.5 91v1198h233v-1220q0 -67 -12.5 -115.5t-42.5 -86t-84.5 -56.5t-134.5 -19q-94 0 -121 9v176zM127 1264v219h235v-219h-235z" />
<glyph unicode="k" horiz-adv-x="980" d="M117 0v1516h231v-928q19 40 125 192l209 305h238l-289 -399l319 -686h-237l-228 496l-137 -185v-311h-231z" />
<glyph unicode="l" horiz-adv-x="489" d="M127 0v1516h233v-1516h-233z" />
<glyph unicode="m" horiz-adv-x="1619" d="M117 0v1085h233v-141q52 65 142 114.5t180 49.5q110 0 166.5 -37.5t76.5 -122.5q59 68 144 114t186 46q126 0 196 -78t70 -227v-803h-233v750q0 81 -29.5 119t-95.5 38q-93 0 -223 -108v-799h-234v750q0 83 -25 120t-93 37q-99 0 -228 -125v-782h-233z" />
<glyph unicode="n" d="M117 0v1085h233v-141q54 67 143 115.5t191 48.5q126 0 196 -78t70 -227v-803h-233v750q0 81 -29.5 119t-95.5 38q-60 0 -127.5 -40t-114.5 -87v-780h-233z" />
<glyph unicode="o" horiz-adv-x="1040" d="M66 543q0 142 36 252.5t99 177.5t144 101t175 34t174 -34t143.5 -101t99.5 -177.5t36 -252.5q0 -141 -36 -251t-99 -178t-144 -102.5t-174 -34.5t-174 34.5t-144 102.5t-99.5 178t-36.5 251zM299 543q0 -115 21.5 -196t71.5 -130t128 -49q219 0 219 375 q0 173 -53.5 270.5t-165.5 97.5q-221 0 -221 -368z" />
<glyph unicode="p" horiz-adv-x="1067" d="M117 -410v1495h233v-133q120 156 291 156q165 0 262.5 -141t97.5 -422t-102.5 -421t-271.5 -140q-91 0 -156.5 34t-120.5 103v-531h-233zM350 291q93 -117 213 -117q203 0 203 369q0 366 -205 366q-51 0 -112 -39t-99 -84v-495z" />
<glyph unicode="q" horiz-adv-x="1067" d="M68 541q0 281 98.5 424t263.5 143t287 -152v129h233v-1495h-233v547q-125 -155 -289 -155q-166 0 -263 138.5t-97 420.5zM303 543q0 -375 205 -375q57 0 105.5 32t103.5 91v495q-54 61 -103.5 92t-107.5 31q-203 0 -203 -366z" />
<glyph unicode="r" horiz-adv-x="731" d="M117 0v1085h233v-167h4q43 77 126.5 133.5t197.5 56.5h20l-6 -215q-1 0 -21.5 1t-31.5 1q-93 0 -167.5 -47t-121.5 -125v-723h-233z" />
<glyph unicode="s" horiz-adv-x="921" d="M20 188l144 121q59 -73 138.5 -112t162.5 -39q178 0 178 123q0 42 -24 73.5t-63 50.5t-89 38.5t-102.5 35.5t-102.5 43t-89 60.5t-63 89.5t-24 127q0 144 105.5 226.5t267.5 82.5q115 0 216 -48.5t167 -135.5l-140 -127q-48 56 -111.5 91.5t-133.5 35.5 q-73 0 -111.5 -29.5t-38.5 -83.5q0 -41 24 -72.5t63 -50t88.5 -37t102 -34.5t102 -43t88.5 -61t63 -90t24 -128q0 -147 -115.5 -232.5t-285.5 -85.5q-144 0 -256 56t-185 155z" />
<glyph unicode="t" horiz-adv-x="708" d="M31 899v186h155v381h234v-381h235v-186h-235v-577q0 -86 28.5 -119t106.5 -33q56 0 92 12v-180q-40 -14 -160 -14q-170 0 -235.5 62t-65.5 208v641h-155z" />
<glyph unicode="u" d="M109 283v802h233v-753q0 -81 30 -118.5t99 -37.5q107 0 238 127v782h233v-1085h-233v141q-62 -71 -147 -117.5t-187 -46.5q-126 0 -196 78.5t-70 227.5z" />
<glyph unicode="v" horiz-adv-x="931" d="M18 1085h236l147 -548q38 -145 72 -295h4q31 142 70 293l147 550h219l-323 -1089h-248z" />
<glyph unicode="w" horiz-adv-x="1337" d="M20 1085h228l104 -454q34 -140 62 -309h4q24 143 63 313l101 450h198l101 -444q48 -209 65 -319h4q13 84 62 317l102 446h203l-266 -1089h-209l-170 749h-4l-174 -749h-207z" />
<glyph unicode="x" horiz-adv-x="927" d="M25 0l323 563l-295 522h242l188 -348l174 348h224l-295 -514l321 -571h-239l-211 395l-209 -395h-223z" />
<glyph unicode="y" horiz-adv-x="958" d="M-2 -385l45 184q81 -18 145 -18q60 0 92 31t56 104l22 72l-340 1097h242l135 -493q53 -190 82 -332h4q42 177 86 342l135 483h226l-377 -1198q-50 -159 -124 -230t-216 -71q-119 0 -213 29z" />
<glyph unicode="z" horiz-adv-x="903" d="M55 0v145l488 754h-447v186h725v-147l-489 -754h516v-184h-793z" />
<glyph unicode="{" horiz-adv-x="735" d="M49 467v172q109 0 151 46.5t42 186.5v357q0 138 67.5 212.5t206.5 74.5h176v-175h-76q-71 0 -104 -37t-33 -114v-336q0 -142 -37.5 -205.5t-119.5 -93.5v-4q82 -30 119.5 -93.5t37.5 -205.5v-340q0 -77 33 -113.5t104 -36.5h76v-172h-182q-135 0 -201.5 75t-66.5 212v356 q0 97 -21 148t-60 68.5t-112 17.5z" />
<glyph unicode="|" horiz-adv-x="669" d="M217 -410v1926h236v-1926h-236z" />
<glyph unicode="}" horiz-adv-x="735" d="M43 -238h76q71 0 104 36.5t33 113.5v350q0 97 20 156.5t51 85.5t87 47v4q-56 21 -87 47t-51 85.5t-20 156.5v346q0 77 -33 114t-104 37h-76v175h188q139 0 201 -69.5t62 -207.5v-367q0 -140 41.5 -186.5t150.5 -46.5v-172q-73 0 -112 -17.5t-59.5 -68.5t-20.5 -148v-366 q0 -137 -61.5 -207t-194.5 -70h-195v172z" />
<glyph unicode="~" horiz-adv-x="948" d="M143 801q0 284 195 284q41 0 82 -18t68 -39t59 -39t57 -18q37 0 54.5 25t17.5 85h127q0 -284 -191 -284q-42 0 -83 18t-68.5 39t-59 39t-55.5 18q-37 0 -54.5 -25t-17.5 -85h-131z" />
<glyph unicode="&#xa1;" horiz-adv-x="608" d="M160 0l49 1081h182l51 -1081h-282zM168 1268v248h264v-248h-264z" />
<glyph unicode="&#xa2;" horiz-adv-x="958" d="M66 543q0 117 24.5 212.5t67 160t100 108.5t122 64t134.5 20h8l35 176h170l-41 -209q86 -38 137 -116t82 -191l-209 -51q-25 97 -61 143l-143 -698h18q74 0 122.5 49t74.5 160l202 -52q-42 -161 -142 -251.5t-263 -90.5q-23 0 -41 3l-43 -207h-170l53 256 q-110 61 -173.5 191t-63.5 323zM299 543q0 -193 57 -289l136 666q-88 -10 -140.5 -103t-52.5 -274z" />
<glyph unicode="&#xa3;" horiz-adv-x="1173" d="M23 195q0 113 71.5 184.5t179.5 71.5q94 0 191 -72q2 14 2 47q0 114 -66 264h-249v170h170q-86 179 -86 295q0 176 104.5 282.5t280.5 106.5q100 0 175 -30t120.5 -86t70.5 -125t35 -158l-217 -29q-10 111 -51 170.5t-131 59.5q-75 0 -117.5 -46.5t-42.5 -138.5 q0 -47 15 -102.5t31 -93.5t48 -105h303v-170h-231q43 -127 43 -248q0 -116 -37 -209q90 -69 156 -69q72 0 105 54t36 194h205q-2 -102 -18.5 -178.5t-52 -138t-98 -93t-151.5 -31.5q-138 0 -270 121q-108 -121 -273 -121q-105 0 -178 58t-73 166zM188 201q0 -41 25.5 -65.5 t65.5 -24.5q97 0 147 100q-86 86 -150 86q-40 0 -64 -26t-24 -70z" />
<glyph unicode="&#xa4;" horiz-adv-x="1263" d="M33 512v170h190q-2 27 -2 80v61h-188v170h203q37 280 165.5 415.5t327.5 135.5q194 0 310 -119.5t149 -330.5l-221 -37q-23 134 -78 204t-158 70q-109 0 -174 -83.5t-88 -254.5h324v-170h-338v-59q0 -55 2 -82h336v-170h-324q22 -169 86.5 -250.5t181.5 -81.5 q102 0 163 71t87 218l217 -29q-34 -207 -155.5 -338t-311.5 -131q-203 0 -331.5 132.5t-167.5 408.5h-205z" />
<glyph unicode="&#xa5;" horiz-adv-x="1128" d="M18 1516h248l301 -689h4l301 689h236l-408 -859h316v-170h-338v-141h338v-170h-338v-176h-229v176h-336v170h336v141h-336v170h313z" />
<glyph unicode="&#xa6;" horiz-adv-x="669" d="M217 -410v838h236v-838h-236zM217 678v838h236v-838h-236z" />
<glyph unicode="&#xa7;" horiz-adv-x="1015" d="M82 598q0 100 58 184.5t145 141.5q-71 65 -104.5 129.5t-33.5 148.5q0 146 99 245t270 99q80 0 142 -17t104 -46t73.5 -74t50.5 -92.5t34 -110.5l-207 -55q-24 103 -67 154t-126 51q-74 0 -113.5 -38.5t-39.5 -103.5q0 -69 54 -125t175 -135q55 -36 79 -52t69 -49 t65.5 -53.5t49.5 -54.5t42 -63.5t23 -69t10 -82.5q0 -100 -58 -185t-145 -142q69 -63 100 -128t31 -149q0 -147 -96.5 -245.5t-265.5 -98.5q-97 0 -167.5 24.5t-115 73t-71 105t-44.5 135.5l201 55q23 -97 67.5 -151.5t125.5 -54.5q147 0 147 143q0 70 -52 126.5t-169 133.5 q-43 28 -62 40.5t-56 38.5t-54.5 41t-46 40.5t-42.5 44.5t-32 46.5t-26.5 53t-14.5 56.5t-6 65zM291 633q0 -54 27.5 -98.5t76 -84t148.5 -104.5q8 -6 26.5 -17.5t26.5 -17.5q129 79 129 185q0 78 -51.5 133t-198.5 151q-45 30 -53 35q-131 -77 -131 -182z" />
<glyph unicode="&#xa8;" horiz-adv-x="948" d="M190 1194v233h211v-233h-211zM549 1194v233h209v-233h-209z" />
<glyph unicode="&#xa9;" horiz-adv-x="1468" d="M76 756q0 217 85.5 398t237 285.5t336.5 104.5q140 0 262.5 -61t209 -165.5t136.5 -249.5t50 -308q0 -217 -85.5 -398t-237.5 -286t-337 -105q-186 0 -337 104t-235.5 283.5t-84.5 397.5zM199 760q0 -188 68.5 -342.5t191.5 -244t276 -89.5t275.5 88.5t191 242 t68.5 341.5q0 140 -40.5 265t-111 215.5t-171 143t-214.5 52.5q-153 0 -275.5 -88.5t-190.5 -242t-68 -341.5zM426 766q0 212 82.5 328t228.5 116q225 0 281 -284l-144 -27q-19 85 -49 126.5t-88 41.5q-75 0 -115 -81.5t-40 -219.5q0 -143 39.5 -222t115.5 -79 q58 0 91.5 42.5t52.5 135.5l143 -29q-30 -142 -99 -219.5t-190 -77.5q-145 0 -227 116t-82 333z" />
<glyph unicode="&#xaa;" horiz-adv-x="776" d="M78 942q0 237 418 318v36q0 107 -90 107q-106 0 -218 -96l-88 102q142 133 332 133q120 0 176 -61t56 -185v-350q0 -134 20 -190h-172q-16 62 -16 100q-95 -113 -230 -113q-86 0 -137 50.5t-51 148.5zM246 969q0 -43 22.5 -65.5t61.5 -22.5q88 0 166 82v194 q-250 -55 -250 -188z" />
<glyph unicode="&#xab;" horiz-adv-x="1019" d="M53 543l264 540h224l-256 -540l256 -543h-224zM469 543l264 540h223l-258 -540l258 -543h-223z" />
<glyph unicode="&#xac;" horiz-adv-x="1576" d="M31 633v246l301 -37l-27 342h55v59l342 -26l-36 299h245l-37 -299l343 26v-59h57l-27 -342l299 37v-246l-299 37l27 -342h-57v-54l-343 27l37 -301h-245l36 301l-342 -27v54h-55l27 342zM467 680l16 -227l230 -17v244h-246zM467 831h246v248l-228 -16zM864 436l230 17 l16 227h-246v-244zM864 831h246l-16 232l-230 16v-248z" />
<glyph unicode="&#xad;" horiz-adv-x="638" d="M90 549v180h459v-180h-459z" />
<glyph unicode="&#xae;" horiz-adv-x="1468" d="M76 756q0 217 85.5 398t237 285.5t336.5 104.5q140 0 262.5 -61t209 -165.5t136.5 -249.5t50 -308q0 -217 -85.5 -398t-237.5 -286t-337 -105q-186 0 -337 104t-235.5 283.5t-84.5 397.5zM197 760q0 -189 69 -345t192.5 -246.5t276.5 -90.5t276 89.5t192 244.5t69 344 q0 188 -69.5 344.5t-193.5 247t-276 90.5q-153 0 -276 -89.5t-191.5 -244.5t-68.5 -344zM475 350v846h264q132 0 204.5 -65.5t72.5 -196.5q0 -181 -137 -240l147 -344h-166l-137 322h-94v-322h-154zM629 799h102q67 0 99 30.5t32 98.5q0 66 -32 95.5t-99 29.5h-102v-254z " />
<glyph unicode="&#xaf;" horiz-adv-x="948" d="M186 1251v181h574v-181h-574z" />
<glyph unicode="&#xb0;" horiz-adv-x="710" d="M84 1243q0 131 75.5 215t196.5 84q120 0 194.5 -83t74.5 -214t-75 -216t-194 -85q-121 0 -196.5 84t-75.5 215zM227 1243q0 -82 34.5 -129t94.5 -47q59 0 93 47t34 129t-34 129t-93 47q-60 0 -94.5 -47t-34.5 -129z" />
<glyph unicode="&#xb1;" horiz-adv-x="1640" d="M37 899v186h156v134q0 301 311 301q80 0 108 -7v-188q-16 4 -59 4q-127 0 -127 -127v-117h311v125q0 142 75.5 226t234.5 84q80 0 108 -7v-188q-16 4 -59 4q-127 0 -127 -127v-117h178v-186h-178v-899h-232v899h-311v-899h-233v899h-156zM1280 0v1516h231v-1516h-231z " />
<glyph unicode="&#xb2;" horiz-adv-x="790" d="M94 590v47q0 80 21.5 145.5t56.5 109.5t76.5 81t83.5 68t77 62.5t56.5 72.5t21.5 90q0 46 -23 72t-67 26q-81 0 -141 -150l-162 68q101 250 316 250q128 0 196 -69t68 -193q0 -66 -25.5 -123t-64 -94.5t-84.5 -75.5t-86 -68t-69 -69.5t-34 -81.5h363v-168h-580z" />
<glyph unicode="&#xb3;" horiz-adv-x="790" d="M72 811l145 72q60 -144 168 -144q61 0 96 34.5t35 92.5q0 80 -45 117t-143 37h-41v117h55q156 0 156 131q0 44 -26.5 72t-76.5 28q-85 0 -166 -108l-127 90q121 182 306 182q128 0 198 -67.5t70 -174.5q0 -144 -127 -203q147 -63 147 -227q0 -129 -84.5 -205.5 t-220.5 -76.5q-225 0 -319 233z" />
<glyph unicode="&#xb4;" horiz-adv-x="948" d="M340 1198l166 330h244l-250 -330h-160z" />
<glyph unicode="&#xb5;" horiz-adv-x="1062" d="M113 -410v1497h235v-753q0 -81 29.5 -120.5t97.5 -39.5q107 0 238 121v792h233v-1087h-233v152q-131 -146 -273 -160q-63 -3 -92 26v-428h-235z" />
<glyph unicode="&#xb6;" horiz-adv-x="1146" d="M82 1092q0 185 107 304.5t290 119.5h547v-1926h-186v1735h-152v-1735h-184v1086q-201 3 -311.5 110t-110.5 306z" />
<glyph unicode="&#xb7;" horiz-adv-x="546" d="M135 492v264h277v-264h-277z" />
<glyph unicode="&#xb8;" horiz-adv-x="948" d="M227 -350l56 94q83 -57 192 -57q53 0 82 20t29 57q0 62 -66 62q-46 0 -86 -37l-74 33l56 190h110l-32 -116q44 28 106 28q57 0 97 -36.5t40 -106.5q0 -91 -72.5 -147t-181.5 -56q-145 0 -256 72z" />
<glyph unicode="&#xb9;" horiz-adv-x="692" d="M129 590v164h139v561q-62 -25 -135 -25v166q105 6 156 57h172v-759h121v-164h-453z" />
<glyph unicode="&#xba;" horiz-adv-x="790" d="M74 1145q0 197 90.5 298t230.5 101q67 0 124 -24t102 -71.5t70.5 -125.5t25.5 -178q0 -196 -91.5 -298t-230.5 -102q-138 0 -229.5 102.5t-91.5 297.5zM246 1145q0 -264 149 -264q150 0 150 264q0 120 -37 189t-113 69q-149 0 -149 -258z" />
<glyph unicode="&#xbb;" horiz-adv-x="1019" d="M63 0l259 543l-259 540h224l264 -540l-264 -543h-224zM479 0l256 543l-256 540h223l263 -540l-263 -543h-223z" />
<glyph unicode="&#xbc;" horiz-adv-x="1720" d="M129 590v164h139v561q-62 -25 -135 -25v166q105 6 156 57h172v-759h121v-164h-453zM406 0l770 1516h196l-770 -1516h-196zM983 201v127l346 598h191v-568h120v-157h-120v-201h-183v201h-354zM1159 354h182v320z" />
<glyph unicode="&#xbd;" horiz-adv-x="1802" d="M129 590v164h139v561q-62 -25 -135 -25v166q105 6 156 57h172v-759h121v-164h-453zM406 0l770 1516h196l-770 -1516h-196zM1102 0v47q0 80 22 145.5t56.5 109.5t77 81t84.5 68t76.5 62.5t56.5 72.5t22 90q0 46 -23.5 72t-68.5 26q-81 0 -141 -151l-160 69q98 250 313 250 q128 0 196 -69t68 -193q0 -57 -19 -107t-49.5 -86t-67.5 -68.5t-75 -61.5t-70.5 -57t-54.5 -61.5t-26 -70.5h362v-168h-579z" />
<glyph unicode="&#xbe;" horiz-adv-x="1767" d="M72 811l145 72q60 -144 168 -144q61 0 96 34.5t35 92.5q0 80 -45 117t-143 37h-41v117h55q156 0 156 131q0 44 -26.5 72t-76.5 28q-85 0 -166 -108l-127 90q121 182 306 182q128 0 198 -67.5t70 -174.5q0 -144 -127 -203q147 -63 147 -227q0 -129 -84.5 -205.5 t-220.5 -76.5q-225 0 -319 233zM453 0l768 1516h196l-768 -1516h-196zM1030 201v127l346 598h189v-568h121v-157h-121v-201h-181v201h-354zM1204 354h182v320z" />
<glyph unicode="&#xbf;" horiz-adv-x="991" d="M74 326q0 56 12 105t26.5 81t46.5 71t50.5 57t60.5 56q72 67 103.5 113.5t45 107t13.5 166.5h199q4 -43 4 -122q0 -62 -14 -114.5t-44 -97t-58 -75t-73 -72.5q-76 -68 -110.5 -123t-34.5 -135t47 -125t133 -45q82 0 146 57t106 148l193 -80q-66 -154 -181 -241t-278 -87 q-187 0 -290 99.5t-103 255.5zM401 1266v250h265v-250h-265z" />
<glyph unicode="&#xc0;" horiz-adv-x="1193" d="M39 0l442 1522h232l442 -1522h-242l-98 362h-450l-101 -362h-225zM289 1938h245l164 -330h-159zM422 573h336l-49 185q-91 329 -115 440h-4q-24 -106 -117 -438z" />
<glyph unicode="&#xc1;" horiz-adv-x="1193" d="M39 0l442 1522h232l442 -1522h-242l-98 362h-450l-101 -362h-225zM422 573h336l-49 185q-91 329 -115 440h-4q-24 -106 -117 -438zM494 1608l166 330h244l-250 -330h-160z" />
<glyph unicode="&#xc2;" horiz-adv-x="1193" d="M39 0l442 1522h232l442 -1522h-242l-98 362h-450l-101 -362h-225zM291 1595l225 332h160l225 -332h-139l-166 162l-166 -162h-139zM422 573h336l-49 185q-91 329 -115 440h-4q-24 -106 -117 -438z" />
<glyph unicode="&#xc3;" horiz-adv-x="1193" d="M39 0l442 1522h232l442 -1522h-242l-98 362h-450l-101 -362h-225zM266 1594q0 284 195 284q41 0 82 -18t68 -39t59 -39t57 -18q37 0 54.5 25t17.5 85h127q0 -284 -191 -284q-42 0 -83 18t-68.5 39t-59 39t-55.5 18q-37 0 -54.5 -25t-17.5 -85h-131zM422 573h336l-49 185 q-91 329 -115 440h-4q-24 -106 -117 -438z" />
<glyph unicode="&#xc4;" horiz-adv-x="1193" d="M39 0l442 1522h232l442 -1522h-242l-98 362h-450l-101 -362h-225zM313 1604v233h211v-233h-211zM422 573h336l-49 185q-91 329 -115 440h-4q-24 -106 -117 -438zM672 1604v233h209v-233h-209z" />
<glyph unicode="&#xc5;" horiz-adv-x="1193" d="M39 0l430 1479q-63 60 -63 161q0 92 52.5 151.5t137.5 59.5t138.5 -59.5t53.5 -151.5q0 -102 -63 -159l430 -1481h-242l-96 362h-455l-98 -362h-225zM420 573h340l-51 193q-91 329 -115 440h-4q-24 -106 -117 -438zM516 1640q0 -46 21.5 -78t58.5 -32q38 0 60 32t22 78 q0 45 -22 76t-60 31q-37 0 -58.5 -31t-21.5 -76z" />
<glyph unicode="&#xc6;" horiz-adv-x="1761" d="M31 0l692 1516h940v-224h-578v-391h420v-213h-420v-471h611v-217h-850v428h-387l-191 -428h-237zM549 631h297v653z" />
<glyph unicode="&#xc7;" horiz-adv-x="1220" d="M80 760q0 383 152.5 583.5t412.5 200.5q219 0 336 -130.5t156 -369.5l-226 -40q-32 167 -93.5 241t-178.5 74q-156 0 -236.5 -142.5t-80.5 -414.5q0 -283 81.5 -427.5t239.5 -144.5q120 0 186 76.5t101 259.5l223 -37q-99 -508 -502 -516l-20 -77q44 28 106 28 q57 0 97 -36.5t40 -106.5q0 -91 -72 -147t-181 -56q-145 0 -256 72l55 94q83 -57 192 -57q53 0 82 20t29 57q0 62 -66 62q-46 0 -86 -37l-73 33l45 160q-218 35 -340.5 231t-122.5 547z" />
<glyph unicode="&#xc8;" d="M141 0v1516h822v-224h-580v-389h420v-217h-420v-469h610v-217h-852zM254 1938h245l164 -330h-159z" />
<glyph unicode="&#xc9;" d="M141 0v1516h822v-224h-580v-389h420v-217h-420v-469h610v-217h-852zM406 1608l166 330h244l-250 -330h-160z" />
<glyph unicode="&#xca;" d="M141 0v1516h822v-224h-580v-389h420v-217h-420v-469h610v-217h-852zM244 1606l225 332h160l225 -332h-139l-166 162l-166 -162h-139z" />
<glyph unicode="&#xcb;" d="M141 0v1516h822v-224h-580v-389h420v-217h-420v-469h610v-217h-852zM266 1604v233h211v-233h-211zM625 1604v233h209v-233h-209z" />
<glyph unicode="&#xcc;" horiz-adv-x="546" d="M-2 1938h245l164 -330h-159zM152 0v1516h241v-1516h-241z" />
<glyph unicode="&#xcd;" horiz-adv-x="546" d="M139 1608l166 330h244l-250 -330h-160zM152 0v1516h241v-1516h-241z" />
<glyph unicode="&#xce;" horiz-adv-x="546" d="M-33 1606l225 332h160l225 -332h-139l-166 162l-166 -162h-139zM152 0v1516h241v-1516h-241z" />
<glyph unicode="&#xcf;" horiz-adv-x="546" d="M-11 1604v233h211v-233h-211zM152 0v1516h241v-1516h-241zM348 1604v233h209v-233h-209z" />
<glyph unicode="&#xd0;" horiz-adv-x="1255" d="M23 696v191h118v629h365q160 0 280 -40t209.5 -127.5t135 -234.5t45.5 -352q0 -207 -46.5 -356t-136.5 -237t-209.5 -128.5t-277.5 -40.5h-365v696h-118zM383 215h149q214 0 307 125.5t93 421.5q0 287 -93.5 409.5t-308.5 122.5h-147v-407h248v-191h-248v-481z" />
<glyph unicode="&#xd1;" horiz-adv-x="1308" d="M141 0v1516h260l412 -805q62 -119 129 -265h4v1070h219v-1516h-223l-450 856q-94 184 -127 256h-5v-1112h-219zM325 1594q0 284 195 284q41 0 82 -18t68 -39t59 -39t57 -18q37 0 54.5 25t17.5 85h127q0 -284 -191 -284q-42 0 -83 18t-68.5 39t-59 39t-55.5 18 q-37 0 -54.5 -25t-17.5 -85h-131z" />
<glyph unicode="&#xd2;" horiz-adv-x="1308" d="M80 758q0 192 44 343.5t122 247.5t182 145.5t227 49.5q122 0 225.5 -49.5t182 -145.5t122.5 -247.5t44 -343.5t-44 -344t-122.5 -247.5t-182 -145.5t-225.5 -50q-123 0 -227 50t-182 145.5t-122 247.5t-44 344zM322 758q0 -275 87 -421.5t246 -146.5q158 0 244 146.5 t86 421.5q0 274 -86 418.5t-244 144.5q-160 0 -246.5 -144t-86.5 -419zM381 1938h245l164 -330h-159z" />
<glyph unicode="&#xd3;" horiz-adv-x="1308" d="M80 758q0 192 44 343.5t122 247.5t182 145.5t227 49.5q122 0 225.5 -49.5t182 -145.5t122.5 -247.5t44 -343.5t-44 -344t-122.5 -247.5t-182 -145.5t-225.5 -50q-123 0 -227 50t-182 145.5t-122 247.5t-44 344zM322 758q0 -275 87 -421.5t246 -146.5q158 0 244 146.5 t86 421.5q0 274 -86 418.5t-244 144.5q-160 0 -246.5 -144t-86.5 -419zM522 1608l166 330h244l-250 -330h-160z" />
<glyph unicode="&#xd4;" horiz-adv-x="1308" d="M80 758q0 192 44 343.5t122 247.5t182 145.5t227 49.5q122 0 225.5 -49.5t182 -145.5t122.5 -247.5t44 -343.5t-44 -344t-122.5 -247.5t-182 -145.5t-225.5 -50q-123 0 -227 50t-182 145.5t-122 247.5t-44 344zM322 758q0 -275 87 -421.5t246 -146.5q158 0 244 146.5 t86 421.5q0 274 -86 418.5t-244 144.5q-160 0 -246.5 -144t-86.5 -419zM350 1606l225 332h160l225 -332h-139l-166 162l-166 -162h-139z" />
<glyph unicode="&#xd5;" horiz-adv-x="1308" d="M80 758q0 192 44 343.5t122 247.5t182 145.5t227 49.5q122 0 225.5 -49.5t182 -145.5t122.5 -247.5t44 -343.5t-44 -344t-122.5 -247.5t-182 -145.5t-225.5 -50q-123 0 -227 50t-182 145.5t-122 247.5t-44 344zM322 758q0 -275 87 -421.5t246 -146.5q158 0 244 146.5 t86 421.5q0 274 -86 418.5t-244 144.5q-160 0 -246.5 -144t-86.5 -419zM325 1594q0 284 195 284q41 0 82 -18t68 -39t59 -39t57 -18q37 0 54.5 25t17.5 85h127q0 -284 -191 -284q-42 0 -83 18t-68.5 39t-59 39t-55.5 18q-37 0 -54.5 -25t-17.5 -85h-131z" />
<glyph unicode="&#xd6;" horiz-adv-x="1308" d="M80 758q0 192 44 343.5t122 247.5t182 145.5t227 49.5q122 0 225.5 -49.5t182 -145.5t122.5 -247.5t44 -343.5t-44 -344t-122.5 -247.5t-182 -145.5t-225.5 -50q-123 0 -227 50t-182 145.5t-122 247.5t-44 344zM322 758q0 -275 87 -421.5t246 -146.5q158 0 244 146.5 t86 421.5q0 274 -86 418.5t-244 144.5q-160 0 -246.5 -144t-86.5 -419zM372 1604v233h211v-233h-211zM731 1604v233h209v-233h-209z" />
<glyph unicode="&#xd7;" horiz-adv-x="1126" d="M121 377l311 311l-311 309l131 131l311 -311l309 311l132 -131l-312 -309l312 -311l-132 -131l-309 311l-311 -311z" />
<glyph unicode="&#xd8;" horiz-adv-x="1308" d="M80 758q0 192 44 343.5t122 247.5t182 145.5t227 49.5q178 0 310 -100l104 168l133 -82l-125 -203q152 -209 152 -569q0 -192 -44 -344t-122.5 -247.5t-182 -145.5t-225.5 -50q-177 0 -313 103l-102 -168l-134 82l123 202q-149 208 -149 568zM317 758q0 -206 54 -348 l481 833q-82 82 -197 82q-160 0 -249 -146.5t-89 -420.5zM453 272q80 -86 202 -86q158 0 246 148.5t88 423.5q0 212 -53 348z" />
<glyph unicode="&#xd9;" horiz-adv-x="1243" d="M125 510v1006h242v-984q0 -177 60 -260.5t200 -83.5q138 0 198 83t60 257v988h231v-1002q0 -258 -120.5 -399.5t-372.5 -141.5q-498 0 -498 537zM346 1938h245l164 -330h-159z" />
<glyph unicode="&#xda;" horiz-adv-x="1243" d="M125 510v1006h242v-984q0 -177 60 -260.5t200 -83.5q138 0 198 83t60 257v988h231v-1002q0 -258 -120.5 -399.5t-372.5 -141.5q-498 0 -498 537zM487 1608l166 330h244l-250 -330h-160z" />
<glyph unicode="&#xdb;" horiz-adv-x="1243" d="M125 510v1006h242v-984q0 -177 60 -260.5t200 -83.5q138 0 198 83t60 257v988h231v-1002q0 -258 -120.5 -399.5t-372.5 -141.5q-498 0 -498 537zM320 1606l225 332h160l225 -332h-139l-166 162l-166 -162h-139z" />
<glyph unicode="&#xdc;" horiz-adv-x="1243" d="M125 510v1006h242v-984q0 -177 60 -260.5t200 -83.5q138 0 198 83t60 257v988h231v-1002q0 -258 -120.5 -399.5t-372.5 -141.5q-498 0 -498 537zM337 1604v233h211v-233h-211zM696 1604v233h209v-233h-209z" />
<glyph unicode="&#xdd;" horiz-adv-x="1128" d="M18 1516h248l301 -687h4l301 687h236l-424 -904v-612h-242v610zM430 1608l166 330h244l-250 -330h-160z" />
<glyph unicode="&#xde;" horiz-adv-x="1153" d="M141 0v1516h238v-261h203q108 0 196 -25.5t156.5 -79t106.5 -145.5t38 -217q0 -107 -27.5 -190.5t-73.5 -137t-112 -88t-138 -49t-155 -14.5h-194v-309h-238zM379 520h203q138 0 202 61.5t64 200.5q0 135 -64 193.5t-204 58.5h-201v-514z" />
<glyph unicode="&#xdf;" horiz-adv-x="1140" d="M119 0v1055q0 223 118 342t322 119q191 0 300.5 -94t109.5 -267q0 -119 -59.5 -206.5t-149.5 -119.5q149 -32 236 -135.5t87 -269.5q0 -199 -105 -321.5t-292 -122.5q-173 0 -268 65l96 162q71 -43 154 -43q82 0 137 66t55 190q0 156 -85 224t-277 79v178q252 3 252 223 q0 90 -50 140.5t-143 50.5q-205 0 -205 -254v-1061h-233z" />
<glyph unicode="&#xe0;" horiz-adv-x="991" d="M57 266q0 340 596 453v47q0 76 -31.5 108.5t-103.5 32.5q-164 0 -307 -125l-117 144q90 83 208 132.5t245 49.5q170 0 252 -85.5t82 -256.5v-500q0 -187 26 -266h-231q-23 79 -23 137q-56 -71 -143 -110t-191 -39q-118 0 -190 73t-72 205zM222 1528h245l164 -330h-159z M285 305q0 -66 33.5 -99.5t93.5 -33.5q135 0 241 113v274q-368 -79 -368 -254z" />
<glyph unicode="&#xe1;" horiz-adv-x="991" d="M57 266q0 340 596 453v47q0 76 -31.5 108.5t-103.5 32.5q-164 0 -307 -125l-117 144q90 83 208 132.5t245 49.5q170 0 252 -85.5t82 -256.5v-500q0 -187 26 -266h-231q-23 79 -23 137q-56 -71 -143 -110t-191 -39q-118 0 -190 73t-72 205zM285 305q0 -66 33.5 -99.5 t93.5 -33.5q135 0 241 113v274q-368 -79 -368 -254zM363 1198l166 330h244l-250 -330h-160z" />
<glyph unicode="&#xe2;" horiz-adv-x="991" d="M57 266q0 340 596 453v47q0 76 -31.5 108.5t-103.5 32.5q-164 0 -307 -125l-117 144q90 83 208 132.5t245 49.5q170 0 252 -85.5t82 -256.5v-500q0 -187 26 -266h-231q-23 79 -23 137q-56 -71 -143 -110t-191 -39q-118 0 -190 73t-72 205zM191 1196l225 332h160l225 -332 h-139l-166 162l-166 -162h-139zM285 305q0 -66 33.5 -99.5t93.5 -33.5q135 0 241 113v274q-368 -79 -368 -254z" />
<glyph unicode="&#xe3;" horiz-adv-x="991" d="M57 266q0 340 596 453v47q0 76 -31.5 108.5t-103.5 32.5q-164 0 -307 -125l-117 144q90 83 208 132.5t245 49.5q170 0 252 -85.5t82 -256.5v-500q0 -187 26 -266h-231q-23 79 -23 137q-56 -71 -143 -110t-191 -39q-118 0 -190 73t-72 205zM166 1184q0 284 195 284 q41 0 82 -18t68 -39t59 -39t57 -18q37 0 54.5 25t17.5 85h127q0 -284 -191 -284q-42 0 -83 18t-68.5 39t-59 39t-55.5 18q-37 0 -54.5 -25t-17.5 -85h-131zM285 305q0 -66 33.5 -99.5t93.5 -33.5q135 0 241 113v274q-368 -79 -368 -254z" />
<glyph unicode="&#xe4;" horiz-adv-x="991" d="M57 266q0 340 596 453v47q0 76 -31.5 108.5t-103.5 32.5q-164 0 -307 -125l-117 144q90 83 208 132.5t245 49.5q170 0 252 -85.5t82 -256.5v-500q0 -187 26 -266h-231q-23 79 -23 137q-56 -71 -143 -110t-191 -39q-118 0 -190 73t-72 205zM213 1194v233h211v-233h-211z M285 305q0 -66 33.5 -99.5t93.5 -33.5q135 0 241 113v274q-368 -79 -368 -254zM572 1194v233h209v-233h-209z" />
<glyph unicode="&#xe5;" horiz-adv-x="991" d="M57 266q0 340 596 453v47q0 76 -31.5 108.5t-103.5 32.5q-164 0 -307 -125l-117 144q90 83 208 132.5t245 49.5q170 0 252 -85.5t82 -256.5v-500q0 -187 26 -266h-231q-23 79 -23 137q-56 -71 -143 -110t-191 -39q-118 0 -190 73t-72 205zM285 305q0 -66 33.5 -99.5 t93.5 -33.5q135 0 241 113v274q-368 -79 -368 -254zM306 1384q0 92 52.5 151.5t137.5 59.5t139 -59.5t54 -151.5q0 -90 -54 -150t-139 -60t-137.5 59.5t-52.5 150.5zM416 1384q0 -46 21.5 -78t58.5 -32q38 0 60 32t22 78q0 45 -22 76t-60 31q-37 0 -58.5 -31t-21.5 -76z" />
<glyph unicode="&#xe6;" horiz-adv-x="1566" d="M57 266q0 340 596 453v47q0 76 -31.5 108.5t-103.5 32.5q-164 0 -307 -125l-117 144q91 84 210 133t253 49q194 0 252 -125q59 62 132 93.5t149 31.5q191 0 302 -143t111 -428v-64h-626q7 -151 66.5 -228t162.5 -77q81 0 136.5 36t111.5 111l147 -106 q-66 -105 -169.5 -168.5t-237.5 -63.5q-118 0 -212 52t-151 155q-166 -196 -412 -196q-118 0 -190 73t-72 205zM285 305q0 -66 33.5 -99.5t93.5 -33.5q144 0 270 135q-29 110 -29 236v14q-368 -81 -368 -252zM879 637h407q-15 276 -196 276q-83 0 -140.5 -66.5t-70.5 -209.5 z" />
<glyph unicode="&#xe7;" horiz-adv-x="958" d="M66 543q0 117 24.5 212.5t67 160t100 108.5t122 64t134.5 20q71 0 129.5 -17.5t99 -47.5t73 -74.5t53 -92.5t36.5 -108l-209 -51q-27 101 -69 146.5t-117 45.5q-97 0 -154 -88.5t-57 -277.5q0 -182 53 -277.5t158 -95.5q76 0 124 45.5t73 155.5l202 -52 q-40 -155 -136 -245.5t-251 -96.5l-22 -81q44 28 106 28q57 0 97 -36.5t40 -106.5q0 -91 -72.5 -147t-181.5 -56q-145 0 -256 72l56 94q83 -57 192 -57q53 0 82 20t29 57q0 62 -66 62q-46 0 -86 -37l-73 33l47 164q-154 33 -251 175t-97 382z" />
<glyph unicode="&#xe8;" horiz-adv-x="987" d="M66 543q0 145 38 257t102 177.5t141 98t163 32.5q191 0 301.5 -143t110.5 -428v-64h-627q7 -151 66.5 -228t162.5 -77q81 0 136.5 36t111.5 111l148 -106q-65 -103 -172 -167.5t-234 -64.5q-96 0 -176 34t-141.5 101.5t-96 177.5t-34.5 253zM219 1528h245l164 -330h-159z M297 637h408q-15 276 -197 276q-83 0 -140.5 -66.5t-70.5 -209.5z" />
<glyph unicode="&#xe9;" horiz-adv-x="987" d="M66 543q0 145 38 257t102 177.5t141 98t163 32.5q191 0 301.5 -143t110.5 -428v-64h-627q7 -151 66.5 -228t162.5 -77q81 0 136.5 36t111.5 111l148 -106q-65 -103 -172 -167.5t-234 -64.5q-96 0 -176 34t-141.5 101.5t-96 177.5t-34.5 253zM297 637h408 q-15 276 -197 276q-83 0 -140.5 -66.5t-70.5 -209.5zM360 1198l166 330h244l-250 -330h-160z" />
<glyph unicode="&#xea;" horiz-adv-x="987" d="M66 543q0 145 38 257t102 177.5t141 98t163 32.5q191 0 301.5 -143t110.5 -428v-64h-627q7 -151 66.5 -228t162.5 -77q81 0 136.5 36t111.5 111l148 -106q-65 -103 -172 -167.5t-234 -64.5q-96 0 -176 34t-141.5 101.5t-96 177.5t-34.5 253zM188 1196l225 332h160 l225 -332h-139l-166 162l-166 -162h-139zM297 637h408q-15 276 -197 276q-83 0 -140.5 -66.5t-70.5 -209.5z" />
<glyph unicode="&#xeb;" horiz-adv-x="987" d="M66 543q0 145 38 257t102 177.5t141 98t163 32.5q191 0 301.5 -143t110.5 -428v-64h-627q7 -151 66.5 -228t162.5 -77q81 0 136.5 36t111.5 111l148 -106q-65 -103 -172 -167.5t-234 -64.5q-96 0 -176 34t-141.5 101.5t-96 177.5t-34.5 253zM210 1194v233h211v-233h-211z M297 637h408q-15 276 -197 276q-83 0 -140.5 -66.5t-70.5 -209.5zM569 1194v233h209v-233h-209z" />
<glyph unicode="&#xec;" horiz-adv-x="489" d="M-61 1528h245l164 -330h-159zM127 0v1085h233v-1085h-233z" />
<glyph unicode="&#xed;" horiz-adv-x="489" d="M127 0v1085h233v-1085h-233zM141 1198l166 330h244l-250 -330h-160z" />
<glyph unicode="&#xee;" horiz-adv-x="489" d="M-61 1196l225 332h160l225 -332h-139l-166 162l-166 -162h-139zM127 0v1085h233v-1085h-233z" />
<glyph unicode="&#xef;" horiz-adv-x="489" d="M-39 1194v233h211v-233h-211zM127 0v1085h233v-1085h-233zM320 1194v233h209v-233h-209z" />
<glyph unicode="&#xf0;" horiz-adv-x="1038" d="M66 516q0 252 113.5 388t299.5 136q78 0 150.5 -37t111.5 -106q-30 152 -127 295l-147 -84l-78 139l121 70q-38 43 -109 100l125 131q86 -62 154 -133l151 88l78 -139l-127 -74q100 -145 144.5 -324.5t44.5 -406.5q0 -281 -122.5 -431.5t-328.5 -150.5t-330 144t-124 395 zM299 518q0 -168 55.5 -260t165.5 -92q106 0 162.5 92t56.5 262q0 165 -56.5 256.5t-162.5 91.5q-107 0 -164 -89t-57 -261z" />
<glyph unicode="&#xf1;" d="M117 0v1085h233v-141q54 67 143 115.5t191 48.5q126 0 196 -78t70 -227v-803h-233v750q0 81 -29.5 119t-95.5 38q-60 0 -127.5 -40t-114.5 -87v-780h-233zM198 1184q0 284 195 284q41 0 82 -18t68 -39t59 -39t57 -18q37 0 54.5 25t17.5 85h127q0 -284 -191 -284 q-42 0 -83 18t-68.5 39t-59 39t-55.5 18q-37 0 -54.5 -25t-17.5 -85h-131z" />
<glyph unicode="&#xf2;" horiz-adv-x="1040" d="M66 543q0 142 36 252.5t99 177.5t144 101t175 34t174 -34t143.5 -101t99.5 -177.5t36 -252.5q0 -141 -36 -251t-99 -178t-144 -102.5t-174 -34.5t-174 34.5t-144 102.5t-99.5 178t-36.5 251zM246 1528h245l164 -330h-159zM299 543q0 -115 21.5 -196t71.5 -130t128 -49 q219 0 219 375q0 173 -53.5 270.5t-165.5 97.5q-221 0 -221 -368z" />
<glyph unicode="&#xf3;" horiz-adv-x="1040" d="M66 543q0 142 36 252.5t99 177.5t144 101t175 34t174 -34t143.5 -101t99.5 -177.5t36 -252.5q0 -141 -36 -251t-99 -178t-144 -102.5t-174 -34.5t-174 34.5t-144 102.5t-99.5 178t-36.5 251zM299 543q0 -115 21.5 -196t71.5 -130t128 -49q219 0 219 375 q0 173 -53.5 270.5t-165.5 97.5q-221 0 -221 -368zM387 1198l166 330h244l-250 -330h-160z" />
<glyph unicode="&#xf4;" horiz-adv-x="1040" d="M66 543q0 142 36 252.5t99 177.5t144 101t175 34t174 -34t143.5 -101t99.5 -177.5t36 -252.5q0 -141 -36 -251t-99 -178t-144 -102.5t-174 -34.5t-174 34.5t-144 102.5t-99.5 178t-36.5 251zM215 1196l225 332h160l225 -332h-139l-166 162l-166 -162h-139zM299 543 q0 -115 21.5 -196t71.5 -130t128 -49q219 0 219 375q0 173 -53.5 270.5t-165.5 97.5q-221 0 -221 -368z" />
<glyph unicode="&#xf5;" horiz-adv-x="1040" d="M66 543q0 142 36 252.5t99 177.5t144 101t175 34t174 -34t143.5 -101t99.5 -177.5t36 -252.5q0 -141 -36 -251t-99 -178t-144 -102.5t-174 -34.5t-174 34.5t-144 102.5t-99.5 178t-36.5 251zM190 1184q0 284 195 284q41 0 82 -18t68 -39t59 -39t57 -18q37 0 54.5 25 t17.5 85h127q0 -284 -191 -284q-42 0 -83 18t-68.5 39t-59 39t-55.5 18q-37 0 -54.5 -25t-17.5 -85h-131zM299 543q0 -115 21.5 -196t71.5 -130t128 -49q219 0 219 375q0 173 -53.5 270.5t-165.5 97.5q-221 0 -221 -368z" />
<glyph unicode="&#xf6;" horiz-adv-x="1040" d="M66 543q0 142 36 252.5t99 177.5t144 101t175 34t174 -34t143.5 -101t99.5 -177.5t36 -252.5q0 -141 -36 -251t-99 -178t-144 -102.5t-174 -34.5t-174 34.5t-144 102.5t-99.5 178t-36.5 251zM237 1194v233h211v-233h-211zM299 543q0 -115 21.5 -196t71.5 -130t128 -49 q219 0 219 375q0 173 -53.5 270.5t-165.5 97.5q-221 0 -221 -368zM596 1194v233h209v-233h-209z" />
<glyph unicode="&#xf7;" horiz-adv-x="1126" d="M104 590v194h918v-194h-918zM455 201v219h215v-219h-215zM455 954v217h215v-217h-215z" />
<glyph unicode="&#xf8;" horiz-adv-x="1040" d="M66 543q0 142 36 252.5t99 177.5t144 101t175 34q136 0 240 -70l94 138l113 -74l-105 -160q111 -150 111 -399q0 -141 -36 -251t-99 -178t-144 -102.5t-174 -34.5q-136 0 -246 72l-90 -135l-114 74l104 159q-108 151 -108 396zM293 543q0 -107 22 -197l336 518 q-51 51 -131 51q-111 0 -169 -96.5t-58 -275.5zM381 223q53 -59 139 -59q111 0 168 98.5t57 280.5q0 115 -24 198z" />
<glyph unicode="&#xf9;" d="M109 283v802h233v-753q0 -81 30 -118.5t99 -37.5q107 0 238 127v782h233v-1085h-233v141q-62 -71 -147 -117.5t-187 -46.5q-126 0 -196 78.5t-70 227.5zM254 1528h245l164 -330h-159z" />
<glyph unicode="&#xfa;" d="M109 283v802h233v-753q0 -81 30 -118.5t99 -37.5q107 0 238 127v782h233v-1085h-233v141q-62 -71 -147 -117.5t-187 -46.5q-126 0 -196 78.5t-70 227.5zM395 1198l166 330h244l-250 -330h-160z" />
<glyph unicode="&#xfb;" d="M109 283v802h233v-753q0 -81 30 -118.5t99 -37.5q107 0 238 127v782h233v-1085h-233v141q-62 -71 -147 -117.5t-187 -46.5q-126 0 -196 78.5t-70 227.5zM221 1196l225 332h160l225 -332h-139l-166 162l-166 -162h-139z" />
<glyph unicode="&#xfc;" d="M109 283v802h233v-753q0 -81 30 -118.5t99 -37.5q107 0 238 127v782h233v-1085h-233v141q-62 -71 -147 -117.5t-187 -46.5q-126 0 -196 78.5t-70 227.5zM243 1194v233h211v-233h-211zM602 1194v233h209v-233h-209z" />
<glyph unicode="&#xfd;" horiz-adv-x="958" d="M-2 -385l45 184q81 -18 145 -18q60 0 92 31t56 104l22 72l-340 1097h242l135 -493q53 -190 82 -332h4q42 177 86 342l135 483h226l-377 -1198q-50 -159 -124 -230t-216 -71q-119 0 -213 29zM346 1198l166 330h244l-250 -330h-160z" />
<glyph unicode="&#xfe;" horiz-adv-x="1067" d="M117 -410v1926h233v-564q120 156 291 156q165 0 262.5 -141t97.5 -422t-102.5 -421t-271.5 -140q-91 0 -156.5 34t-120.5 103v-531h-233zM350 291q93 -117 213 -117q203 0 203 369q0 366 -205 366q-51 0 -112 -39t-99 -84v-495z" />
<glyph unicode="&#xff;" horiz-adv-x="958" d="M-2 -385l45 184q81 -18 145 -18q60 0 92 31t56 104l22 72l-340 1097h242l135 -493q53 -190 82 -332h4q42 177 86 342l135 483h226l-377 -1198q-50 -159 -124 -230t-216 -71q-119 0 -213 29zM196 1194v233h211v-233h-211zM555 1194v233h209v-233h-209z" />
<glyph unicode="&#x152;" horiz-adv-x="1902" d="M80 758q0 192 44 343.5t122 247.5t182 145.5t227 49.5q109 0 200 -41.5t153 -124.5v138h796v-224h-579v-391h422v-213h-422v-471h612v-217h-829v147q-116 -176 -353 -176q-123 0 -227 50t-182 145.5t-122 247.5t-44 344zM322 758q0 -275 87 -421.5t246 -146.5 q158 0 244 146.5t86 421.5q0 274 -86 418.5t-244 144.5q-160 0 -246.5 -144t-86.5 -419z" />
<glyph unicode="&#x153;" horiz-adv-x="1652" d="M66 543q0 142 36 252.5t99 177.5t144 101t175 34q103 0 188.5 -44t141.5 -130q60 87 144.5 130.5t181.5 43.5q191 0 302 -143t111 -428v-64h-626q7 -151 66.5 -228t162.5 -77q81 0 136.5 36t111.5 111l147 -106q-66 -105 -169.5 -168.5t-237.5 -63.5q-215 0 -332 170 q-58 -84 -142.5 -127t-185.5 -43q-93 0 -174 34.5t-144 102.5t-99.5 178t-36.5 251zM299 543q0 -115 21.5 -196t71.5 -130t128 -49q219 0 219 375q0 173 -53.5 270.5t-165.5 97.5q-221 0 -221 -368zM965 637h407q-15 276 -196 276q-83 0 -140.5 -66.5t-70.5 -209.5z" />
<glyph unicode="&#x178;" horiz-adv-x="1128" d="M18 1516h248l301 -687h4l301 687h236l-424 -904v-612h-242v610zM280 1604v233h211v-233h-211zM639 1604v233h209v-233h-209z" />
<glyph unicode="&#x2c6;" horiz-adv-x="948" d="M168 1196l225 332h160l225 -332h-139l-166 162l-166 -162h-139z" />
<glyph unicode="&#x2dc;" horiz-adv-x="948" d="M143 1184q0 284 195 284q41 0 82 -18t68 -39t59 -39t57 -18q37 0 54.5 25t17.5 85h127q0 -284 -191 -284q-42 0 -83 18t-68.5 39t-59 39t-55.5 18q-37 0 -54.5 -25t-17.5 -85h-131z" />
<glyph unicode="&#x2000;" horiz-adv-x="969" />
<glyph unicode="&#x2001;" horiz-adv-x="1938" />
<glyph unicode="&#x2002;" horiz-adv-x="969" />
<glyph unicode="&#x2003;" horiz-adv-x="1938" />
<glyph unicode="&#x2004;" horiz-adv-x="646" />
<glyph unicode="&#x2005;" horiz-adv-x="484" />
<glyph unicode="&#x2006;" horiz-adv-x="323" />
<glyph unicode="&#x2007;" horiz-adv-x="323" />
<glyph unicode="&#x2008;" horiz-adv-x="242" />
<glyph unicode="&#x2009;" horiz-adv-x="387" />
<glyph unicode="&#x200a;" horiz-adv-x="107" />
<glyph unicode="&#x2010;" horiz-adv-x="638" d="M90 549v180h459v-180h-459z" />
<glyph unicode="&#x2011;" horiz-adv-x="638" d="M90 549v180h459v-180h-459z" />
<glyph unicode="&#x2012;" horiz-adv-x="638" d="M90 549v180h459v-180h-459z" />
<glyph unicode="&#x2013;" horiz-adv-x="1165" d="M96 537v202h971v-202h-971z" />
<glyph unicode="&#x2014;" horiz-adv-x="1572" d="M94 537v202h1383v-202h-1383z" />
<glyph unicode="&#x2018;" horiz-adv-x="497" d="M125 1024v244l119 248h110l-71 -230h88v-262h-246z" />
<glyph unicode="&#x2019;" horiz-adv-x="497" d="M125 1253v263h246v-244l-117 -248h-111l72 229h-90z" />
<glyph unicode="&#x201a;" horiz-adv-x="497" d="M125 0v262h246v-244l-117 -247h-111l72 229h-90z" />
<glyph unicode="&#x201c;" horiz-adv-x="899" d="M125 1024v244l119 248h110l-71 -230h88v-262h-246zM528 1024v244l117 248h109l-70 -230h88v-262h-244z" />
<glyph unicode="&#x201d;" horiz-adv-x="899" d="M125 1253v263h246v-244l-117 -248h-111l72 229h-90zM528 1253v263h244v-244l-117 -248h-110l71 229h-88z" />
<glyph unicode="&#x201e;" horiz-adv-x="899" d="M125 0v262h246v-244l-117 -247h-111l72 229h-90zM528 0v262h244v-244l-117 -247h-110l71 229h-88z" />
<glyph unicode="&#x2022;" horiz-adv-x="948" d="M221 717q0 110 71.5 182t180.5 72q110 0 182 -72t72 -182q0 -109 -72 -180.5t-182 -71.5q-109 0 -180.5 71.5t-71.5 180.5z" />
<glyph unicode="&#x2026;" horiz-adv-x="1480" d="M121 0v262h250v-262h-250zM614 0v262h250v-262h-250zM1108 0v262h250v-262h-250z" />
<glyph unicode="&#x202f;" horiz-adv-x="387" />
<glyph unicode="&#x2039;" horiz-adv-x="606" d="M49 543l264 540h224l-256 -540l256 -543h-224z" />
<glyph unicode="&#x203a;" horiz-adv-x="606" d="M68 0l258 543l-258 540h223l266 -540l-266 -543h-223z" />
<glyph unicode="&#x205f;" horiz-adv-x="484" />
<glyph unicode="&#x20ac;" horiz-adv-x="1263" d="M33 512v170h190q-2 27 -2 80v61h-188v170h203q37 280 165.5 415.5t327.5 135.5q194 0 310 -119.5t149 -330.5l-221 -37q-23 134 -78 204t-158 70q-109 0 -174 -83.5t-88 -254.5h324v-170h-338v-59q0 -55 2 -82h336v-170h-324q22 -169 86.5 -250.5t181.5 -81.5 q102 0 163 71t87 218l217 -29q-34 -207 -155.5 -338t-311.5 -131q-203 0 -331.5 132.5t-167.5 408.5h-205z" />
<glyph unicode="&#x2122;" horiz-adv-x="1572" d="M49 1368v148h574v-148h-207v-727h-162v727h-205zM725 641v875h211l166 -637l166 637h211v-875h-156v604l-160 -604h-133l-162 604v-604h-143z" />
<glyph unicode="&#x25fc;" horiz-adv-x="1085" d="M0 0v1085h1085v-1085h-1085z" />
<glyph unicode="&#xfb01;" horiz-adv-x="1097" d="M37 899v186h156v134q0 141 75.5 221t235.5 80q80 0 108 -7v-188q-16 4 -59 4q-127 0 -127 -127v-117h178v-186h-178v-899h-233v899h-156zM735 1264v219h236v-219h-236zM737 0v1085h232v-1085h-232z" />
<glyph unicode="&#xfb02;" horiz-adv-x="1097" d="M37 899v186h156v134q0 141 75.5 221t235.5 80q80 0 108 -7v-188q-16 4 -59 4q-127 0 -127 -127v-117h178v-186h-178v-899h-233v899h-156zM737 0v1516h232v-1516h-232z" />
</font>
</defs>
</svg>
