<?xml version="1.0" encoding="UTF-8"?>
<svg xmlns="http://www.w3.org/2000/svg" xmlns:xlink="http://www.w3.org/1999/xlink" version="1.2" >
<font id="HipVan Symbols Regular">
<font-face  font-family="HipVan Symbols" units-per-em="1000" ascent="800" descent="-200" font-style="normal" font-weight="400" font-stretch="normal" cap-height="700" x-height="500" underline-position="-75" underline-thickness="50" />
<missing-glyph  horiz-adv-x="1000" d="M490 366 C502 366 512 376 512 388 C512 453 543 477 579 504 C613 531 653 561 652 630 C651 653 646 673 635 692 C626 709 612 724 595 736 C564 757 524 769 481 768 C438 768 397 755 366 733 C330 706 311 669 311 624 C311 612 321 602 333 602 C345 602 355 612 355 624 C355 655 368 679 393 697 C415 714 448 724 481 724 C515 724 547 715 570 700 C594 682 607 659 608 629 C608 583 585 564 552 539 C515 510 468 475 468 388 C468 376 478 366 490 366 L490 366 Z M492 201 C507 201 519 213 519 228 C519 242 507 254 492 254 C477 254 465 242 465 228 C465 213 477 201 492 201 L492 201 Z " />
<glyph glyph-name="NULL" d="" />
<glyph glyph-name="CR" unicode="&#xd;" horiz-adv-x="250" d="" />
<glyph glyph-name="space" unicode="&#x20;" horiz-adv-x="600" d="" />
<glyph glyph-name="uniE011" unicode="&#xe011;" horiz-adv-x="1000" d="M333 202 C365 202 391 227 392 259 L608 259 C609 227 635 202 667 202 C699 202 725 227 726 259 L748 259 C750 259 753 260 755 262 C757 264 759 267 759 270 L758 558 C758 577 754 609 745 641 C732 686 712 718 686 738 C654 761 600 761 502 761 L498 761 C400 761 346 761 314 738 C288 718 268 686 255 641 C246 609 242 577 242 558 L242 270 C241 267 243 264 245 262 C247 260 250 259 253 259 L274 259 C275 227 301 202 333 202 L333 202 Z M333 224 C313 224 296 241 296 261 L296 270 C296 276 291 281 285 281 L264 281 L264 558 C264 562 265 596 276 635 C287 674 305 704 327 720 C353 739 408 739 499 739 L501 739 C592 739 647 739 673 720 C695 704 713 674 724 635 C735 596 736 562 736 558 L736 281 L715 281 C709 281 704 276 704 270 L704 261 C704 241 687 224 667 224 C646 224 630 241 630 261 L630 270 C630 276 625 281 619 281 L381 281 C375 281 370 276 370 270 L370 261 C370 241 354 224 333 224 L333 224 Z M313 542 L687 542 C695 542 702 546 706 551 C710 556 711 561 711 566 C711 568 711 571 710 573 L680 674 C676 688 662 699 647 699 L353 699 C338 699 324 688 320 674 L290 573 C288 565 289 557 294 551 C298 546 305 542 313 542 L313 542 Z M313 564 C312 564 311 564 311 565 L311 567 L341 668 C342 673 348 677 353 677 L647 677 C652 677 658 673 659 668 L689 567 L689 565 C689 564 688 564 687 564 L313 564 Z M341 338 C372 338 396 362 396 393 C396 423 372 448 341 448 C311 448 287 423 287 393 C287 362 311 338 341 338 L341 338 Z M659 338 C689 338 713 362 713 393 C713 423 689 448 659 448 C628 448 604 423 604 393 C604 362 628 338 659 338 L659 338 Z M341 360 C323 360 309 375 309 393 C309 411 323 426 341 426 C359 426 374 411 374 393 C374 375 359 360 341 360 L341 360 Z M659 360 C641 360 626 375 626 393 C626 411 641 426 659 426 C677 426 691 411 691 393 C691 375 677 360 659 360 L659 360 Z " />
<glyph glyph-name="uniE012" unicode="&#xe012;" horiz-adv-x="1000" d="M505 674 C537 674 571 691 592 720 C611 744 621 772 621 799 C621 804 621 809 620 814 C619 820 614 824 608 824 C578 821 541 802 520 776 C501 752 490 724 490 698 C490 693 491 688 492 683 C493 678 497 674 502 674 L505 674 Z M512 696 C511 727 531 754 537 762 C552 780 577 795 599 800 C600 769 583 743 575 733 C559 713 535 699 512 696 L512 696 Z M410 192 C429 192 444 198 457 203 C471 210 486 216 512 216 C536 216 550 210 564 204 C577 198 590 192 610 192 C657 192 693 237 722 282 C740 310 747 324 761 355 C762 358 762 361 761 364 C760 367 757 369 754 370 C708 387 678 431 678 483 C678 526 701 563 739 585 C742 587 745 590 745 594 C745 597 744 599 742 601 C710 641 665 665 622 665 C591 665 570 657 551 650 C537 645 525 640 510 640 C494 640 479 645 463 651 C445 657 424 665 398 665 C348 665 298 635 267 586 C248 557 238 518 238 475 C238 408 261 338 300 277 C311 260 327 238 345 221 C366 202 388 192 410 192 L410 192 Z M410 214 C393 214 377 221 360 237 C343 253 329 273 319 289 C282 346 260 413 260 475 C260 514 269 549 285 574 C313 616 356 643 398 643 C420 643 438 636 456 630 C473 624 490 618 510 618 C529 618 543 623 559 629 C577 636 595 643 622 643 C655 643 690 626 717 597 C697 584 682 566 671 546 C661 527 656 505 656 482 C656 452 666 423 682 399 C696 380 714 364 736 354 C725 330 719 317 703 294 C679 257 647 214 610 214 C595 213 585 218 573 224 C558 231 541 238 511 238 C481 238 463 231 448 224 C435 218 425 213 410 214 L410 214 Z " />
<glyph glyph-name="uniE013" unicode="&#xe013;" horiz-adv-x="1000" d="M331 631 L669 631 C675 631 680 635 680 642 C680 682 661 719 626 747 C616 755 606 762 594 768 L619 806 C622 811 621 817 616 821 C611 824 604 823 601 818 L573 777 C551 785 526 790 500 790 C474 790 449 785 427 777 L399 818 C397 821 394 823 390 823 C388 823 386 822 384 821 C381 819 379 815 379 812 C379 810 380 807 381 806 L406 768 C394 762 384 755 374 747 C339 719 320 682 320 642 C320 635 325 631 331 631 L331 631 Z M343 653 C350 717 418 768 500 768 C582 768 650 717 657 653 L343 653 Z M429 689 C438 689 446 697 446 707 C446 716 438 724 429 724 C419 724 411 716 411 707 C411 697 419 689 429 689 L429 689 Z M571 689 C581 689 589 697 589 707 C589 716 581 724 571 724 C562 724 554 716 554 707 C554 697 562 689 571 689 L571 689 Z M252 358 C275 358 294 377 294 400 L294 563 C294 586 275 605 252 605 C229 605 210 586 210 563 L210 400 C210 377 229 358 252 358 L252 358 Z M432 171 C458 171 479 192 479 218 L479 292 L521 292 L521 218 C521 192 542 171 568 171 C594 171 616 192 616 218 L616 292 L631 292 C658 292 680 314 680 341 L680 594 C680 600 675 605 669 605 L331 605 C325 605 320 600 320 594 L320 341 C320 314 342 292 369 292 L384 292 L384 218 C384 192 406 171 432 171 L432 171 Z M748 358 C771 358 790 377 790 400 L790 563 C790 586 771 605 748 605 C725 605 706 586 706 563 L706 400 C706 377 725 358 748 358 L748 358 Z M252 380 C241 380 232 389 232 400 L232 563 C232 574 241 583 252 583 C263 583 272 574 272 563 L272 400 C272 389 263 380 252 380 L252 380 Z M432 193 C418 193 406 204 406 218 L406 303 C406 309 402 314 395 314 L369 314 C354 314 342 326 342 341 L342 583 L658 583 L658 341 C658 326 646 314 631 314 L605 314 C599 314 594 309 594 303 L594 218 C594 204 582 193 568 193 C554 193 543 204 543 218 L543 303 C543 309 538 314 532 314 L468 314 C462 314 457 309 457 303 L457 218 C457 204 446 193 432 193 L432 193 Z M748 380 C737 380 728 389 728 400 L728 563 C728 574 737 583 748 583 C759 583 768 574 768 563 L768 400 C768 389 759 380 748 380 L748 380 Z " />
<glyph glyph-name="uniE020" unicode="&#xe020;" horiz-adv-x="1000" d="M398 286 C412 286 420 296 423 316 C424 329 424 348 424 369 C424 407 421 434 417 454 C425 467 435 475 447 475 C472 475 484 464 484 439 C484 423 467 402 440 402 C433 402 428 396 428 390 C428 383 433 377 440 377 C459 377 477 384 490 397 C501 409 508 424 508 439 C508 465 498 484 479 493 L477 495 C464 508 455 520 455 536 C455 559 472 573 489 573 C521 573 526 554 526 543 L526 411 C526 391 539 370 565 370 C581 370 596 382 603 399 C612 420 620 454 628 487 C636 518 647 564 654 574 C659 575 662 580 662 585 C662 592 657 598 650 598 C631 598 624 571 604 493 C596 461 588 428 580 408 C577 400 570 395 565 395 C560 395 550 396 550 411 L550 543 C550 576 526 598 489 598 C453 598 431 566 431 536 C431 522 435 510 442 499 C428 498 417 491 408 482 C403 492 398 498 393 503 C390 506 387 507 384 507 C381 507 378 506 375 503 C373 501 372 498 372 494 C372 491 373 488 375 486 C380 481 386 473 391 457 C386 448 382 438 379 429 C377 422 375 415 374 408 L372 408 C367 406 363 405 359 405 C356 405 354 405 352 406 C349 408 347 412 347 417 L347 487 C347 494 342 500 335 500 L306 499 L306 585 C306 592 300 598 293 598 C286 598 281 592 281 585 L281 497 C257 495 235 491 215 486 L215 585 C215 592 210 598 203 598 C196 598 191 592 191 585 L191 478 C176 472 163 465 152 457 C121 435 113 409 113 397 C113 375 126 359 145 356 L151 356 C163 356 174 360 184 368 C201 382 212 405 215 430 L215 460 C236 467 259 470 281 473 L281 392 C281 385 286 380 293 380 C300 380 306 385 306 392 L306 474 L323 475 L323 417 C323 403 328 392 338 386 C344 382 351 380 359 380 L368 381 C366 366 365 353 365 348 C365 326 372 286 398 286 L398 286 Z M335 515 C343 515 349 522 349 529 C349 537 343 543 335 543 C327 543 321 537 321 529 C321 522 327 515 335 515 L335 515 Z M673 378 C687 378 701 384 712 396 L715 400 C718 391 722 388 724 386 C730 382 737 380 744 380 L750 380 C754 381 757 382 760 384 C763 380 767 379 769 379 C776 379 781 385 781 392 C781 399 782 420 788 439 C799 475 818 475 825 475 C828 475 837 475 837 445 C837 435 836 426 835 419 L835 407 C835 396 842 386 852 381 C856 380 860 379 863 379 C872 379 880 383 887 389 C890 392 891 395 891 398 C891 401 890 404 887 407 C885 409 882 410 879 410 C875 410 872 409 870 407 C867 404 864 403 862 404 C861 404 859 405 859 407 L860 417 C860 424 861 434 861 444 C861 451 861 458 860 464 C857 487 844 500 825 500 C806 500 792 492 781 479 L781 487 C781 494 776 500 769 500 C762 500 756 494 756 487 L757 434 L757 414 C752 408 748 404 744 404 C743 404 741 404 739 406 C737 410 735 424 734 438 C738 450 740 462 740 472 C740 478 739 483 738 486 C734 493 728 494 725 494 L724 494 C721 494 714 492 712 482 C710 476 709 464 709 452 C709 449 709 445 710 441 C706 431 701 421 694 413 C689 407 681 402 673 402 C669 402 665 403 662 406 C657 408 653 415 652 424 C651 428 651 431 651 434 C651 446 654 457 660 464 C666 471 673 475 680 475 C683 475 686 474 688 472 C693 468 701 469 705 475 C709 480 708 488 703 492 C696 497 688 500 680 500 C666 500 652 493 641 480 C632 469 626 451 626 434 C626 411 635 393 649 384 C656 380 665 378 673 378 L673 378 Z M148 381 C139 382 138 390 138 397 C138 402 143 420 167 437 C174 443 182 447 191 451 L190 433 C188 414 180 397 169 387 C165 384 158 381 151 381 L148 381 Z M397 313 C394 318 389 332 389 348 C389 357 392 382 399 407 C399 396 400 383 400 369 C400 348 400 323 397 313 L397 313 Z " />
<glyph glyph-name="uniE021" unicode="&#xe021;" horiz-adv-x="1000" d="M316 201 L319 201 C343 201 363 221 363 245 L363 259 L637 259 L637 245 C637 221 657 201 681 201 L684 201 C708 201 727 221 727 245 L727 259 L760 259 L760 562 C759 591 749 697 688 742 C658 764 600 764 497 764 C398 764 342 763 312 742 C251 697 241 591 240 562 L240 259 L273 259 L273 245 C273 221 292 201 316 201 L316 201 Z M288 562 C279 562 273 568 273 576 L274 580 L302 683 C304 693 315 702 325 702 L675 702 C685 702 696 693 698 683 L726 580 C729 570 722 562 712 562 L288 562 Z M329 339 C300 339 277 362 277 391 C277 420 300 443 329 443 C357 443 380 420 380 391 C380 362 357 339 329 339 L329 339 Z M671 339 C643 339 620 362 620 391 C620 420 643 443 671 443 C700 443 723 420 723 391 C723 362 700 339 671 339 L671 339 Z " />
<glyph glyph-name="uniE022" unicode="&#xe022;" horiz-adv-x="1000" d="M502 676 C530 675 562 691 584 717 C606 744 616 776 615 806 C586 803 553 785 533 762 C517 743 499 709 502 676 L502 676 Z M408 207 C426 207 438 212 452 218 C468 225 484 232 510 232 C535 232 550 225 565 219 C578 213 591 208 608 208 C648 208 672 241 700 280 C724 316 737 350 740 361 C733 365 717 373 702 388 C683 406 659 438 659 489 C659 521 671 551 692 576 C704 591 716 600 723 605 C687 653 634 658 618 659 C590 661 563 651 540 642 C525 636 512 631 502 631 C490 631 477 636 462 642 C444 650 424 658 403 658 L401 658 C352 657 306 629 280 584 C261 551 255 514 255 481 C255 461 257 443 260 427 C269 375 290 322 318 282 C340 250 370 207 408 207 L408 207 Z " />
<glyph glyph-name="uniE023" unicode="&#xe023;" horiz-adv-x="1000" d="M335 621 L665 621 C665 673 635 725 584 752 L610 799 C611 801 611 805 608 807 L607 807 L606 808 C603 809 600 808 599 805 L573 758 C551 767 526 772 500 772 C474 772 449 767 427 758 L401 805 C400 808 397 809 394 808 C393 808 393 808 393 807 L392 807 C389 805 389 801 390 799 L416 752 C365 725 335 673 335 621 L335 621 Z M423 674 C412 674 404 682 404 693 C404 703 412 712 423 712 C433 712 442 703 442 693 C442 682 433 674 423 674 L423 674 Z M577 674 C567 674 558 682 558 693 C558 703 567 712 577 712 C588 712 596 703 596 693 C596 682 588 674 577 674 L577 674 Z M273 372 C293 372 310 389 310 410 L310 567 C310 588 293 605 273 605 C252 605 235 588 235 567 L235 410 C235 389 252 372 273 372 L273 372 Z M727 372 C748 372 765 389 765 410 L765 567 C765 588 748 605 727 605 C707 605 690 588 690 567 L690 410 C690 389 707 372 727 372 L727 372 Z M437 193 C458 193 475 210 475 230 L475 315 L525 315 L525 230 C525 210 542 193 563 193 C584 193 601 210 601 230 L601 315 L624 315 C646 315 664 333 664 355 L664 595 L336 595 L336 355 C336 333 354 315 376 315 L399 315 L399 230 C399 210 416 193 437 193 L437 193 Z " />
<glyph glyph-name="uniE030" unicode="&#xe030;" horiz-adv-x="1000" d="M297 209 L494 209 C505 209 514 218 514 229 L514 411 C514 422 505 431 494 431 L446 431 L446 470 L494 470 C505 470 514 479 514 490 L514 548 C514 602 544 633 596 633 C612 633 626 632 637 631 L637 599 L615 599 C593 599 578 593 568 581 C557 569 556 552 556 541 L556 490 C556 479 565 470 576 470 L631 470 L626 431 L576 431 C565 431 556 422 556 411 L556 229 C556 218 565 209 576 209 L703 209 C746 209 782 244 782 288 L782 693 C782 737 746 772 703 772 L297 772 C254 772 218 737 218 693 L218 288 C218 244 254 209 297 209 L297 209 Z M297 249 C276 249 258 266 258 288 L258 693 C258 714 276 732 297 732 L703 732 C724 732 742 714 742 693 L742 288 C742 266 724 249 703 249 L596 249 L596 391 L644 391 C654 391 662 399 664 409 L674 488 C675 493 673 499 669 503 C665 508 660 510 654 510 L596 510 L596 541 C596 551 597 554 598 556 C600 557 605 559 615 559 L657 559 C668 559 677 568 677 579 L677 650 C677 660 669 668 659 670 C653 670 628 673 596 673 C560 673 530 662 508 640 C486 618 474 586 474 548 L474 510 L426 510 C415 510 406 501 406 490 L406 411 C406 400 415 391 426 391 L474 391 L474 249 L297 249 Z " />
<glyph glyph-name="uniE031" unicode="&#xe031;" horiz-adv-x="1000" d="M500 208 C581 208 653 209 683 221 C702 229 738 243 764 295 C781 331 783 403 782 473 L782 507 C783 578 781 650 764 686 C738 737 702 752 683 759 C653 771 581 773 500 773 C419 773 347 771 317 759 C298 752 262 737 236 686 C219 650 217 578 218 507 L218 473 C217 403 219 331 236 295 C262 243 298 229 317 221 C347 209 419 208 500 208 L500 208 Z M500 248 C463 248 359 248 332 258 C310 267 290 278 272 313 C257 343 258 428 258 473 L258 508 C258 553 257 638 272 668 C290 703 310 714 332 722 C359 733 463 733 500 733 C537 733 641 733 668 722 C690 714 710 703 728 668 C743 638 742 553 742 508 L742 473 C742 428 743 343 728 313 C710 278 690 267 668 258 C641 248 537 248 500 248 L500 248 Z M653 612 C670 612 683 626 683 643 C683 660 670 674 653 674 C636 674 622 660 622 643 C622 626 636 612 653 612 L653 612 Z M500 352 C576 352 638 414 638 490 C638 566 576 628 500 628 C424 628 362 566 362 490 C362 414 424 352 500 352 L500 352 Z M500 392 C446 392 402 436 402 490 C402 544 446 588 500 588 C554 588 598 544 598 490 C598 436 554 392 500 392 L500 392 Z " />
<glyph glyph-name="uniE032" unicode="&#xe032;" horiz-adv-x="1000" d="M500 199 C577 199 650 230 705 284 C760 339 790 412 790 489 C790 567 760 640 705 694 C650 749 577 779 500 779 C423 779 350 749 295 694 C240 640 210 567 210 489 C210 412 240 339 295 284 C350 230 423 199 500 199 L500 199 Z M500 239 C483 239 465 241 449 245 L483 362 C494 353 510 346 532 346 C567 346 598 361 621 389 C638 408 650 433 655 461 C657 471 658 481 658 492 C658 525 648 557 629 584 C600 626 553 649 502 649 C470 649 439 641 412 624 C370 596 343 551 343 499 C343 482 346 465 353 448 C362 425 376 406 393 395 C396 393 400 392 404 392 C410 392 417 395 420 401 C423 405 424 408 424 412 C424 419 420 425 414 429 C394 442 383 473 383 501 C383 538 403 570 434 590 C454 603 477 609 502 609 C540 609 575 592 596 561 C610 541 618 517 618 492 C618 431 578 386 532 386 C520 386 510 390 503 397 L495 406 C507 449 517 486 520 503 C520 507 521 510 521 513 C521 527 515 539 506 547 C499 553 491 556 483 556 C479 556 474 555 470 553 C456 548 446 534 443 516 C441 505 440 492 440 477 C440 453 443 426 453 402 L410 256 C378 268 348 287 323 313 C276 360 250 423 250 489 C250 556 276 619 323 666 C370 713 433 739 500 739 C567 739 630 713 677 666 C724 619 750 556 750 489 C750 423 724 360 677 313 C630 265 567 239 500 239 L500 239 Z " />
<glyph glyph-name="uniE033" unicode="&#xe033;" horiz-adv-x="1000" d="M389 216 C446 216 499 228 547 250 C591 271 630 300 663 338 C723 407 757 499 757 589 L757 596 C780 613 799 635 815 659 C817 662 818 666 818 670 C818 674 816 679 813 683 C809 687 804 690 798 690 C795 690 793 689 790 688 C794 696 798 704 801 713 C803 721 800 729 794 734 C790 737 786 739 782 739 C778 739 774 738 771 736 C752 724 732 716 710 711 C684 734 650 748 615 748 C536 748 472 683 472 604 L473 598 C434 602 398 614 363 632 C323 653 288 682 259 718 C255 722 250 725 243 725 L242 725 C235 725 229 721 226 715 C214 693 207 668 207 643 C207 619 213 595 224 575 C221 574 218 574 216 572 C210 569 206 562 206 555 L206 553 C206 510 225 471 255 444 L254 443 C251 439 249 434 249 429 C249 427 249 425 250 423 C263 382 293 350 332 334 C300 318 266 310 230 310 C220 310 212 312 202 312 C192 312 182 303 182 292 C182 285 185 279 191 275 C250 237 319 216 389 216 L389 216 Z M389 256 C352 256 316 262 281 275 C323 283 362 301 395 328 C400 332 403 337 403 343 C403 345 403 348 402 350 C399 358 392 363 383 363 C350 364 320 381 301 408 C311 408 321 410 330 412 C338 415 344 423 344 432 C344 442 337 449 328 451 C290 459 261 488 250 524 C260 521 270 520 281 519 C292 519 301 528 301 539 C301 546 298 552 293 556 C264 575 247 608 247 643 C247 651 248 659 250 668 C278 639 309 615 345 596 C391 572 442 558 495 555 C501 555 507 558 511 563 C514 566 516 571 516 575 C516 577 515 578 515 580 C513 587 512 595 512 604 C512 661 558 708 615 708 C643 708 670 696 689 675 C693 671 698 669 704 669 L708 669 C714 670 720 672 727 674 L717 667 C711 663 708 657 708 650 C708 648 708 646 709 643 C712 635 719 630 728 630 L730 630 C733 630 735 631 738 631 L725 621 C720 618 717 612 717 605 L717 589 C717 551 710 510 696 472 C681 432 660 396 633 364 C604 331 569 305 530 286 C488 266 440 256 389 256 L389 256 Z " />
<glyph glyph-name="uniE034" unicode="&#xe034;" horiz-adv-x="1000" d="M211 260 L789 260 C808 260 823 275 823 294 L823 688 C823 707 808 723 789 723 L211 723 C192 723 177 707 177 688 L177 294 C177 275 192 260 211 260 L211 260 Z M494 471 L247 683 L753 683 L506 471 C503 467 497 467 494 471 L494 471 Z M217 300 L217 656 L467 440 C477 432 488 428 500 428 C512 428 523 432 533 440 L783 656 L783 300 L217 300 Z " />
<glyph glyph-name="uniE035" unicode="&#xe035;" horiz-adv-x="1000" d="M745 423 C753 423 760 427 763 435 C770 452 775 470 778 488 C781 504 782 520 782 535 C782 590 766 641 733 684 C686 747 612 783 529 783 C520 783 511 783 502 782 C492 781 484 772 484 762 L484 760 C485 750 494 742 504 742 L506 742 C513 743 521 743 529 743 C537 743 545 743 553 742 C613 736 666 707 701 660 C728 624 742 581 742 535 C742 522 741 509 739 495 C736 480 732 464 726 450 C722 440 727 428 737 424 C740 423 742 423 745 423 L745 423 Z M551 178 L558 178 C605 181 646 199 683 234 C686 237 693 244 699 277 C700 281 703 298 703 311 C703 327 697 334 691 337 C660 353 597 382 564 396 C561 398 557 399 553 399 C541 399 525 392 502 377 L476 358 C463 365 428 391 397 431 C367 472 351 512 349 528 C355 532 364 540 374 548 C402 572 412 587 410 601 C405 637 394 705 387 740 C386 745 383 752 373 756 C362 761 337 764 332 764 C325 765 318 765 313 765 C295 765 290 762 287 760 C243 735 214 700 198 655 C193 640 190 622 190 602 C190 529 227 433 289 350 C367 248 473 178 551 178 L551 178 Z M551 218 C521 218 483 232 444 258 C400 286 357 328 321 374 C286 421 259 474 243 524 C234 552 230 579 230 602 C230 617 232 631 236 642 C248 678 270 704 305 725 C313 726 337 724 350 721 C356 688 365 633 370 600 C364 591 341 571 318 555 C316 553 314 551 313 549 C311 546 308 542 308 532 C308 523 311 508 320 486 C331 460 347 432 366 407 C384 383 406 360 429 342 C467 312 481 316 487 318 C490 318 492 320 494 321 C516 339 542 355 552 358 C582 345 633 321 663 306 C662 293 658 269 654 262 C623 233 591 218 551 218 L551 218 Z M635 475 C644 475 652 480 654 489 C658 502 660 516 660 529 C660 558 651 586 633 609 C608 643 568 662 524 662 C513 662 504 654 504 643 C504 631 512 622 523 622 C555 622 583 609 601 585 C613 569 620 549 620 529 C620 519 618 510 616 500 C613 489 619 478 629 475 L635 475 Z " />
<glyph glyph-name="uniE036" unicode="&#xe036;" horiz-adv-x="1000" d="M225 199 L230 200 L368 236 C409 215 455 204 501 204 C663 204 795 336 795 498 C795 577 765 651 709 706 C654 762 580 793 501 793 C339 793 207 661 207 499 C207 450 219 402 242 359 L206 225 C204 218 206 210 211 205 C214 202 220 199 225 199 L225 199 Z M501 244 C459 244 417 255 380 275 C377 277 373 278 370 278 L365 277 L253 248 L283 356 C284 361 284 367 281 371 C259 410 247 454 247 498 C247 639 361 753 501 753 C569 753 633 726 681 678 C729 630 755 566 755 498 C755 358 641 244 501 244 L501 244 Z M580 339 C588 339 596 340 603 342 C631 349 653 364 665 384 C667 387 672 395 672 422 C672 433 670 443 661 448 C643 460 608 478 585 483 C570 487 558 476 543 458 L535 447 C524 452 504 462 486 477 C469 491 457 507 451 516 L458 524 C467 537 473 547 473 557 C473 560 472 563 471 566 C464 585 448 621 440 639 C437 643 431 651 413 651 L398 651 C379 649 373 645 369 641 C345 619 333 594 333 562 C333 540 341 515 358 487 C375 459 399 431 428 407 C456 383 487 364 519 352 C541 344 562 339 580 339 L580 339 Z M580 379 C550 379 501 398 453 438 C400 482 373 534 373 562 C373 581 380 596 394 610 C397 610 403 611 408 611 C416 595 425 573 432 557 C429 551 421 541 414 533 C412 531 411 529 410 526 C406 515 411 503 424 485 C434 471 447 458 460 446 C474 435 491 424 508 416 C524 407 534 405 542 405 C547 405 550 406 553 407 C556 409 558 411 560 414 C568 425 577 437 583 442 C596 438 616 428 632 419 C632 414 631 407 630 404 C623 393 610 385 593 381 C589 380 585 379 580 379 L580 379 Z " />
<glyph glyph-name="uniE037" unicode="&#xe037;" horiz-adv-x="1000" d="M321 173 C325 173 328 174 331 175 L421 225 C447 219 473 215 500 215 C581 215 658 245 715 299 C773 352 805 424 805 501 C805 577 773 649 715 703 C658 757 581 786 500 786 C419 786 342 757 285 703 C227 649 195 577 195 501 C195 417 234 339 301 284 L301 193 C301 186 305 179 311 176 C314 174 318 173 321 173 L321 173 Z M341 227 L341 294 C341 300 338 306 333 310 C271 357 235 427 235 501 C235 566 262 628 312 674 C362 721 429 746 500 746 C571 746 638 721 688 674 C738 628 765 566 765 501 C765 436 738 374 688 328 C638 281 571 255 500 255 C474 255 448 259 424 266 C419 267 413 267 409 264 L341 227 Z M532 385 C537 385 543 388 547 392 L699 562 C702 566 704 570 704 575 C704 580 703 584 700 587 C696 593 690 595 684 595 C681 595 678 595 675 593 L545 526 L481 593 C477 597 472 599 466 599 C461 599 455 596 452 592 L299 422 C296 418 294 414 294 409 C294 405 296 400 298 397 C302 392 308 389 314 389 C317 389 320 390 323 391 L455 459 L517 392 C521 388 526 385 532 385 L532 385 Z M531 435 L474 497 C470 501 465 503 459 503 C456 503 453 502 450 501 L401 476 L467 549 L526 487 C530 483 536 481 541 481 C544 481 547 482 550 483 L596 507 L531 435 Z " />
<glyph glyph-name="uniE038" unicode="&#xe038;" horiz-adv-x="1000" d="M364 200 C372 200 379 203 383 209 L476 320 L763 320 C796 320 823 347 823 380 L823 699 C823 732 796 759 763 759 L237 759 C204 759 177 732 177 699 L177 380 C177 347 204 320 237 320 L339 320 L339 225 C339 215 346 205 356 202 C359 201 361 200 364 200 L364 200 Z M379 266 L379 340 C379 351 370 360 359 360 L237 360 C226 360 217 369 217 380 L217 699 C217 710 226 719 237 719 L763 719 C774 719 783 710 783 699 L783 380 C783 369 774 360 763 360 L467 360 C461 360 456 357 452 353 L379 266 Z " />
<glyph glyph-name="uniE040" unicode="&#xe040;" horiz-adv-x="1000" d="M297 218 L494 218 C500 218 505 223 505 229 L505 411 C505 417 500 422 494 422 L437 422 L437 479 L494 479 C500 479 505 484 505 490 L505 548 C505 578 514 602 530 618 C546 634 569 642 596 642 C616 642 634 641 646 640 L646 590 L615 590 C570 590 565 562 565 541 L565 490 C565 484 570 479 576 479 L642 479 L634 422 L576 422 C570 422 565 417 565 411 L565 229 C565 223 570 218 576 218 L703 218 C741 218 773 249 773 288 L773 693 C773 732 741 763 703 763 L297 763 C259 763 227 732 227 693 L227 288 C227 249 259 218 297 218 L297 218 Z M297 240 C271 240 249 261 249 288 L249 693 C249 719 271 741 297 741 L703 741 C729 741 751 719 751 693 L751 288 C751 261 729 240 703 240 L587 240 L587 400 L644 400 C649 400 654 404 655 410 L665 489 C665 492 664 495 662 498 C660 500 657 501 654 501 L587 501 L587 541 C587 560 591 568 615 568 L657 568 C663 568 668 573 668 579 L668 650 C668 655 664 660 658 661 C650 662 625 664 596 664 C563 664 535 653 515 634 C494 614 483 584 483 548 L483 501 L426 501 C420 501 415 496 415 490 L415 411 C415 405 420 400 426 400 L483 400 L483 240 L297 240 Z " />
<glyph glyph-name="uniE041" unicode="&#xe041;" horiz-adv-x="1000" d="M500 216 C573 216 651 217 680 229 C705 239 733 253 756 298 C772 331 773 388 773 463 L773 512 C773 589 772 648 756 682 C733 727 705 741 680 751 C651 762 573 764 500 764 C427 764 349 762 320 751 C295 741 267 727 244 682 C228 649 227 591 227 516 L227 468 C227 391 228 332 244 298 C267 253 295 239 320 229 C349 217 427 216 500 216 L500 216 Z M500 238 C460 238 357 238 328 249 C306 258 283 270 264 308 C248 340 249 419 249 490 C249 561 248 640 264 672 C283 710 306 722 328 730 C357 742 460 742 500 742 C540 742 643 742 672 730 C694 722 717 710 736 672 C749 645 751 585 751 524 L751 465 C751 401 750 336 736 308 C717 270 694 258 672 249 C643 238 540 238 500 238 L500 238 Z M653 621 C665 621 674 631 674 643 C674 655 665 665 653 665 C641 665 631 655 631 643 C631 631 641 621 653 621 L653 621 Z M500 361 C571 361 629 419 629 490 C629 561 571 619 500 619 C429 619 371 561 371 490 C371 419 429 361 500 361 L500 361 Z M500 383 C441 383 393 431 393 490 C393 549 441 597 500 597 C559 597 607 549 607 490 C607 431 559 383 500 383 L500 383 Z " />
<glyph glyph-name="uniE042" unicode="&#xe042;" horiz-adv-x="1000" d="M500 208 C575 208 646 238 699 291 C752 344 781 414 781 489 C781 564 752 635 699 688 C646 741 575 770 500 770 C425 770 354 741 301 688 C248 635 219 564 219 489 C219 414 248 344 301 291 C354 238 425 208 500 208 L500 208 Z M500 230 C479 230 458 233 437 238 C444 261 462 320 478 378 L481 375 C495 361 512 355 532 355 C539 355 546 356 553 357 C577 362 598 375 614 394 C630 413 641 436 646 463 C648 472 649 482 649 492 C649 523 640 553 622 579 C594 618 551 640 502 640 C472 640 442 632 417 616 C377 591 352 548 352 500 C352 483 355 467 361 452 C369 430 383 412 398 403 C403 399 410 401 413 406 C416 411 415 418 410 421 C391 433 374 465 374 499 C374 541 395 576 429 598 C450 611 476 618 502 618 C543 618 580 600 604 566 C619 545 627 518 627 492 C627 483 626 475 625 467 C614 414 577 377 532 377 C518 377 506 381 497 390 C492 394 489 399 486 405 C501 459 512 507 512 513 C512 529 504 537 500 540 C495 545 489 547 483 547 C480 547 476 546 473 545 C462 541 454 530 452 514 C450 503 449 490 449 477 C449 466 450 455 451 445 C453 429 457 415 462 403 C445 340 424 270 416 244 C379 257 345 278 317 306 C268 355 241 420 241 489 C241 559 268 624 317 673 C366 721 431 748 500 748 C569 748 634 721 683 673 C732 624 759 559 759 489 C759 420 732 355 683 306 C634 257 569 230 500 230 L500 230 Z M473 443 C472 454 471 466 471 477 C471 489 472 501 473 511 C475 518 477 523 481 524 L483 525 C484 525 485 524 486 523 C488 522 490 518 490 513 C490 512 489 510 489 508 C487 496 481 472 473 443 L473 443 Z " />
<glyph glyph-name="uniE043" unicode="&#xe043;" horiz-adv-x="1000" d="M389 225 C445 225 497 236 543 258 C586 278 624 307 656 344 C715 412 748 501 748 589 L748 600 C771 618 791 639 807 664 C810 668 810 673 806 677 C804 679 801 681 798 681 C796 681 795 680 793 680 C785 676 776 672 767 670 C778 683 787 699 792 715 C793 720 792 725 788 727 C785 730 780 730 776 728 C755 715 732 706 708 701 C683 725 649 739 615 739 C541 739 481 678 481 604 C481 598 482 593 482 587 C439 591 398 604 359 624 C318 645 282 675 252 712 C250 715 247 716 243 716 C239 716 236 714 234 711 C222 690 216 666 216 643 C216 611 227 582 245 558 L231 564 C228 566 224 566 220 564 C217 562 215 559 215 555 L215 553 C215 506 239 464 277 439 L271 440 C267 441 263 440 261 437 C258 434 257 430 258 426 C273 381 309 347 354 336 C317 313 274 301 230 301 C220 301 211 303 201 303 C196 303 191 298 191 292 C191 288 193 285 196 283 C254 245 321 225 389 225 L389 225 Z M389 247 C340 247 291 258 246 280 C299 283 348 302 390 335 C393 337 394 340 394 343 C394 344 394 346 393 347 C392 351 388 354 383 354 C341 355 304 379 286 416 L292 416 C304 416 316 418 327 421 C332 422 335 427 335 432 C335 437 331 441 326 442 C280 452 245 490 238 537 C252 532 266 529 281 528 C287 528 292 533 292 539 C292 543 291 546 288 548 C256 570 238 605 238 643 C238 657 241 672 246 685 C275 652 310 625 349 604 C394 580 444 567 495 564 C498 564 502 566 504 568 C506 571 507 575 506 578 C504 586 503 595 503 604 C503 666 553 717 615 717 C645 717 675 704 696 681 C698 679 701 678 704 678 L706 678 C724 681 741 687 758 694 C749 680 737 668 722 659 C719 657 717 654 717 650 L717 646 C719 642 723 639 728 639 L729 639 C742 641 754 643 766 646 C756 635 744 624 731 614 C728 612 726 609 726 605 L726 589 C726 550 719 508 704 469 C689 428 667 391 639 358 C610 324 574 297 534 278 C490 258 442 247 389 247 L389 247 Z " />
<glyph glyph-name="uniE044" unicode="&#xe044;" horiz-adv-x="1000" d="M211 269 L789 269 C803 269 814 280 814 294 L814 688 C814 702 803 714 789 714 L211 714 C197 714 186 702 186 688 L186 294 C186 280 197 269 211 269 L211 269 Z M512 464 C509 461 504 459 500 459 C496 459 491 461 488 464 L223 692 L777 692 L512 464 Z M211 291 C209 291 208 292 208 294 L208 676 L473 447 C481 441 491 437 500 437 C510 437 519 440 527 447 L792 676 L792 294 C792 292 791 291 789 291 L211 291 Z " />
<glyph glyph-name="uniE045" unicode="&#xe045;" horiz-adv-x="1000" d="M745 432 C749 432 753 434 755 438 C761 455 766 472 769 489 C772 505 773 520 773 535 C773 588 757 637 726 679 C680 739 609 774 529 774 C520 774 511 774 503 773 C497 772 493 768 493 762 L493 761 C493 755 498 751 504 751 L505 751 C513 752 521 752 529 752 C537 752 545 752 554 751 C617 745 672 714 708 666 C737 628 751 583 751 535 C751 522 750 507 748 493 C745 477 740 462 734 447 C732 441 735 435 741 432 L745 432 Z M551 187 L557 187 C603 189 642 207 677 241 C679 243 685 249 691 279 C693 291 695 309 694 318 C693 323 691 327 687 329 C657 344 594 373 561 388 C553 391 541 391 507 369 C495 361 483 352 478 348 C474 349 463 354 445 369 C426 385 406 405 390 426 C374 447 360 472 350 494 C341 516 339 527 339 532 C345 536 356 545 368 554 C399 581 402 592 401 600 C396 637 385 705 378 738 C378 742 375 746 370 748 C362 751 344 754 331 755 C324 756 318 756 313 756 C298 756 293 754 291 753 C249 728 221 695 207 652 C201 637 199 620 199 602 C199 531 235 437 297 355 C372 255 476 187 551 187 L551 187 Z M551 209 C483 209 385 275 314 369 C256 446 221 536 221 602 C221 618 223 633 227 645 C241 683 264 711 302 733 C303 734 307 734 313 734 C318 734 324 734 332 733 C344 732 353 730 358 729 C364 695 374 633 379 598 C378 596 374 588 351 569 C337 557 324 547 323 547 L320 544 C318 541 318 537 318 532 C318 521 321 507 329 489 C339 464 355 437 373 413 C391 389 412 366 434 349 C457 331 474 323 485 326 L488 328 C489 328 502 339 517 349 C542 366 551 367 553 368 C585 353 642 327 672 311 C672 307 672 297 669 285 C666 268 663 259 661 256 C629 225 594 209 551 209 L551 209 Z M635 484 C640 484 644 487 646 492 C649 504 651 516 651 529 C651 556 642 582 626 604 C602 635 565 653 524 653 C517 653 513 649 513 642 C513 636 517 631 524 631 C558 631 589 616 608 590 C622 573 629 551 629 529 C629 518 627 508 624 498 C623 492 626 486 632 484 L635 484 Z " />
<glyph glyph-name="uniE046" unicode="&#xe046;" horiz-adv-x="1000" d="M225 208 L228 209 L369 246 C409 225 455 213 501 213 C658 213 786 341 786 498 C786 574 757 646 703 700 C649 754 577 784 501 784 C344 784 216 656 216 499 C216 450 228 402 252 360 L214 222 C213 219 214 215 217 212 C219 210 222 208 225 208 L225 208 Z M240 235 L274 359 C275 361 275 364 273 367 C250 407 238 452 238 499 C238 644 356 762 501 762 C571 762 638 734 687 684 C737 635 764 569 764 498 C764 353 646 235 501 235 C457 235 414 246 375 267 C373 269 370 269 367 268 L240 235 Z M580 348 C588 348 595 349 601 351 C626 357 646 371 657 389 C661 394 663 406 663 422 C663 433 661 438 656 440 C639 451 604 470 583 475 C574 477 565 470 550 452 L538 436 C528 439 502 451 480 470 C458 488 444 509 441 517 L451 530 C463 546 466 555 463 563 L432 635 C430 639 427 641 422 642 C415 643 384 643 375 634 C354 615 342 591 342 562 C342 520 379 460 433 414 C482 373 539 348 580 348 L580 348 Z M595 372 C591 371 586 370 580 370 C566 370 549 374 530 381 C502 392 473 409 448 431 C422 452 400 478 385 503 C371 525 364 546 364 562 C364 584 373 602 389 618 C394 619 407 621 414 620 C422 603 434 574 442 557 C440 551 430 538 421 527 C420 526 419 525 418 523 C417 518 417 510 431 490 C441 477 453 464 466 453 C479 442 496 431 512 424 C539 410 546 414 549 415 L553 419 C563 434 575 448 581 452 C596 448 622 435 641 424 C641 418 640 404 638 400 C630 387 615 377 595 372 L595 372 Z " />
<glyph glyph-name="uniE047" unicode="&#xe047;" horiz-adv-x="1000" d="M321 182 C323 182 325 182 327 183 L420 235 C446 228 473 224 500 224 C579 224 653 253 709 305 C765 357 796 427 796 501 C796 575 765 644 709 697 C653 749 579 777 500 777 C421 777 347 749 291 697 C235 644 204 575 204 501 C204 418 243 341 310 289 L310 193 C310 189 312 185 316 183 C317 182 319 182 321 182 L321 182 Z M332 212 L332 294 C332 298 331 301 328 303 C263 352 226 424 226 501 C226 569 254 633 306 681 C358 729 427 755 500 755 C573 755 642 729 694 681 C746 633 774 569 774 501 C774 433 746 369 694 321 C642 273 573 246 500 246 C473 246 447 250 421 257 C418 258 415 257 413 256 L332 212 Z M532 394 C535 394 538 396 540 398 L692 568 C696 572 696 578 693 582 C691 585 687 586 684 586 C682 586 681 586 679 585 L543 514 L474 586 C472 589 469 590 466 590 C463 590 460 588 458 586 L306 416 C302 412 302 406 305 402 C308 399 311 398 314 398 C316 398 318 398 319 399 L457 470 L524 398 C526 396 529 394 532 394 L532 394 Z M532 422 L467 491 C465 493 462 494 459 494 C457 494 456 494 454 493 L362 446 L467 563 L533 493 C535 491 538 490 541 490 C543 490 544 490 546 491 L636 538 L532 422 Z " />
<glyph glyph-name="uniE048" unicode="&#xe048;" horiz-adv-x="1000" d="M364 209 C369 209 373 211 377 215 L472 329 L763 329 C791 329 814 352 814 380 L814 699 C814 727 791 750 763 750 L237 750 C209 750 186 727 186 699 L186 380 C186 352 209 329 237 329 L348 329 L348 225 C348 218 352 212 359 210 C361 209 362 209 364 209 L364 209 Z M370 242 L370 340 C370 346 365 351 359 351 L237 351 C221 351 208 364 208 380 L208 699 C208 715 221 728 237 728 L763 728 C779 728 792 715 792 699 L792 380 C792 364 779 351 763 351 L467 351 C464 351 461 349 459 347 L370 242 Z " />
<glyph glyph-name="uniE050" unicode="&#xe050;" horiz-adv-x="1000" d="M302 227 L494 227 L494 405 L428 405 L428 482 L494 482 L494 539 C494 605 535 641 593 641 C622 641 646 639 653 638 L653 569 L612 569 C580 569 574 554 574 531 L574 482 L650 482 L640 405 L574 405 L574 227 L698 227 C729 227 755 253 755 285 L755 680 C755 712 729 737 698 737 L302 737 C271 737 245 712 245 680 L245 285 C245 253 271 227 302 227 L302 227 Z " />
<glyph glyph-name="uniE051" unicode="&#xe051;" horiz-adv-x="1000" d="M517 227 C565 227 647 228 674 239 C696 248 723 260 744 302 C758 332 760 396 760 446 C760 462 760 476 760 487 L760 528 C760 578 758 643 744 672 C723 714 696 727 674 736 C643 748 539 748 497 748 C452 748 356 748 326 736 C304 727 277 714 256 672 C242 643 240 578 240 528 C240 513 240 498 240 487 L240 446 C240 396 242 332 256 302 C277 260 304 248 326 239 C362 225 492 227 517 227 L517 227 Z M644 599 C627 599 613 613 613 630 C613 646 627 660 644 660 C661 660 674 646 674 630 C674 613 661 599 644 599 L644 599 Z M501 358 C429 358 371 416 371 487 C371 559 429 617 501 617 C572 617 630 559 630 487 C630 416 572 358 501 358 L501 358 Z M501 411 C543 411 577 445 577 487 C577 530 543 564 501 564 C459 564 424 530 424 487 C424 445 459 411 501 411 L501 411 Z " />
<glyph glyph-name="uniE052" unicode="&#xe052;" horiz-adv-x="1000" d="M500 219 C650 219 771 341 771 490 C771 640 650 761 500 761 C350 761 229 640 229 490 C229 379 296 284 391 242 C390 261 391 284 396 304 L431 452 C431 452 422 469 422 495 C422 535 445 565 474 565 C499 565 511 547 511 524 C511 500 495 463 487 428 C486 425 486 421 486 418 C486 394 505 376 530 376 C581 376 616 442 616 520 C616 580 576 624 503 624 C421 624 370 563 370 494 C370 471 376 454 387 441 C391 437 392 435 392 431 C392 430 392 428 391 426 L386 404 C384 399 381 396 377 396 C375 396 374 397 372 397 C334 413 317 454 317 501 C317 578 382 670 510 670 C614 670 682 595 682 515 C682 409 623 329 536 329 C506 329 479 345 470 363 L450 288 C445 268 433 247 423 230 C448 223 473 219 500 219 L500 219 Z " />
<glyph glyph-name="uniE053" unicode="&#xe053;" horiz-adv-x="1000" d="M389 236 C614 236 737 425 737 589 L737 605 C761 623 782 645 798 670 C776 660 752 653 728 650 C753 665 772 690 782 719 C758 704 732 694 704 689 C682 713 650 728 615 728 C547 728 492 672 492 604 C492 594 493 585 496 575 C394 581 304 630 243 705 C233 687 227 665 227 643 C227 600 249 562 281 539 C261 540 242 546 226 555 L226 553 C226 493 268 443 324 432 C314 429 303 427 292 427 C284 427 276 428 269 429 C284 380 330 344 383 343 C341 310 288 290 231 290 C221 290 212 291 202 292 C256 257 320 236 389 236 L389 236 Z " />
<glyph glyph-name="uniE054" unicode="&#xe054;" horiz-adv-x="1000" d="M484 492 C489 489 495 487 500 487 C505 487 511 489 516 492 L804 704 C798 711 790 714 780 714 L220 714 C210 714 202 711 196 704 L484 492 Z M220 268 L780 268 C799 268 814 283 814 302 L814 642 L549 447 C534 436 517 431 500 431 C483 431 466 436 451 447 L186 642 L186 302 C186 283 201 268 220 268 L220 268 Z " />
<glyph glyph-name="uniE055" unicode="&#xe055;" horiz-adv-x="1000" d="M724 427 C730 424 737 427 740 434 C750 462 755 492 755 522 C755 532 755 543 753 553 C748 598 731 642 703 679 C675 715 638 744 596 762 C558 777 518 784 478 782 C471 781 467 776 467 770 L467 768 L472 722 C473 716 478 711 484 712 C513 713 542 708 569 697 C600 684 627 663 647 636 C672 604 685 563 685 522 C685 501 682 480 675 460 C672 454 675 447 681 445 L724 427 Z M514 207 L522 207 C567 210 607 228 642 262 C653 273 660 324 658 336 C658 338 658 343 653 345 C625 359 577 381 545 395 L534 400 C528 403 517 402 483 380 C468 370 455 361 451 357 C447 357 437 359 420 371 C401 384 382 403 366 425 C349 446 336 470 329 492 C325 505 324 514 324 520 L324 525 C329 528 342 538 355 549 C386 576 389 586 388 593 L387 605 C382 640 374 692 368 723 C367 728 363 730 361 730 C353 734 327 739 306 739 C297 739 290 738 286 735 C243 711 214 677 200 635 C194 617 191 598 191 577 C191 511 221 431 277 358 C347 264 438 207 514 207 L514 207 Z M589 483 C595 480 603 484 605 491 C608 501 609 512 609 522 C609 546 601 571 586 591 C565 619 531 636 496 636 C489 636 483 631 483 624 C483 624 483 623 484 623 L489 576 C489 571 494 566 500 566 C512 565 523 559 530 549 C536 541 539 532 539 522 C539 520 539 517 538 514 C537 509 540 503 546 501 L589 483 Z " />
<glyph glyph-name="uniE056" unicode="&#xe056;" horiz-adv-x="1000" d="M218 223 L380 266 C418 247 459 237 501 237 C651 237 772 359 772 508 C772 581 744 649 693 700 C642 751 574 779 501 779 C352 779 230 658 230 508 C230 464 241 421 262 382 L218 223 Z M593 378 C587 377 580 376 573 376 C536 376 488 395 442 434 C389 479 360 530 360 568 C360 596 371 616 390 633 C393 636 410 638 420 638 C425 638 429 638 429 637 C438 619 454 583 461 565 C465 556 440 529 440 529 C438 522 449 500 477 476 C505 453 534 443 541 446 C541 446 566 484 575 482 C594 477 628 460 646 448 C647 448 647 444 647 438 C647 429 646 415 644 412 C635 397 617 384 593 378 L593 378 Z " />
<glyph glyph-name="uniE057" unicode="&#xe057;" horiz-adv-x="1000" d="M321 193 L418 246 C444 239 472 235 500 235 C657 235 785 354 785 501 C785 648 657 766 500 766 C343 766 215 648 215 501 C215 417 256 343 321 294 L321 193 Z M314 409 L470 575 L544 497 L684 575 L528 409 L456 487 L314 409 Z " />
<glyph glyph-name="uniE058" unicode="&#xe058;" horiz-adv-x="1000" d="M364 206 C370 206 375 209 379 213 L474 326 L763 326 C792 326 817 350 817 380 L817 699 C817 729 792 753 763 753 L237 753 C208 753 183 729 183 699 L183 380 C183 350 208 326 237 326 L345 326 L345 225 C345 217 350 210 358 207 C360 207 362 206 364 206 L364 206 Z " />
<glyph glyph-name="uniE110" unicode="&#xe110;" horiz-adv-x="1000" d="M410 297 C415 297 420 299 424 303 L790 669 C794 673 795 678 795 683 C795 688 794 693 790 697 C786 701 781 703 776 703 C770 703 765 701 761 697 L410 345 L235 521 C231 525 226 526 221 526 C215 526 210 525 206 521 C202 517 201 512 201 506 C201 501 202 496 206 492 L396 303 C399 299 405 297 410 297 L410 297 Z " />
<glyph glyph-name="uniE111" unicode="&#xe111;" horiz-adv-x="1000" d="M308 288 C313 288 318 289 322 293 L500 472 L678 293 C682 289 687 288 693 288 C698 288 703 289 707 293 C711 297 712 302 712 308 C712 313 711 318 707 322 L528 500 L707 678 C711 682 712 687 712 693 C712 698 711 703 707 707 C703 711 698 712 693 712 C687 712 682 711 678 707 L500 528 L322 707 C318 711 313 712 308 712 C302 712 297 711 293 707 C289 703 287 698 287 693 C287 687 289 682 293 678 L472 500 L293 322 C289 318 287 313 287 308 C287 302 289 297 293 293 C297 289 302 288 308 288 L308 288 Z " />
<glyph glyph-name="uniE112" unicode="&#xe112;" horiz-adv-x="1000" d="M500 250 C511 250 520 259 520 270 L520 480 L730 480 C741 480 750 489 750 500 C750 511 741 520 730 520 L520 520 L520 730 C520 741 511 750 500 750 C489 750 480 741 480 730 L480 520 L270 520 C259 520 250 511 250 500 C250 489 259 480 270 480 L480 480 L480 270 C480 259 489 250 500 250 L500 250 Z " />
<glyph glyph-name="uniE113" unicode="&#xe113;" horiz-adv-x="1000" d="M255 480 L745 480 C756 480 765 489 765 500 C765 511 756 520 745 520 L255 520 C244 520 235 511 235 500 C235 489 244 480 255 480 L255 480 Z " />
<glyph glyph-name="uniE114" unicode="&#xe114;" horiz-adv-x="1000" d="M611 256 C617 256 622 258 627 262 C631 267 633 272 633 278 C633 283 631 289 627 293 L420 500 L627 707 C631 711 633 717 633 722 C633 728 631 733 627 738 C622 742 617 744 611 744 C605 744 600 742 596 738 L373 516 C369 511 367 506 367 500 C367 494 369 489 373 484 L596 262 C600 258 605 256 611 256 L611 256 Z " />
<glyph glyph-name="uniE115" unicode="&#xe115;" horiz-adv-x="1000" d="M389 256 C395 256 400 258 404 262 L627 484 C631 489 633 494 633 500 C633 506 631 511 627 516 L404 738 C400 742 395 744 389 744 C383 744 378 742 373 738 C369 733 367 728 367 722 C367 717 369 711 373 707 L580 500 L373 293 C369 289 367 283 367 278 C367 272 369 267 373 262 C378 258 383 256 389 256 L389 256 Z " />
<glyph glyph-name="uniE116" unicode="&#xe116;" horiz-adv-x="1000" d="M500 367 C506 367 511 369 516 373 L738 596 C742 600 744 605 744 611 C744 617 742 622 738 627 C733 631 728 633 722 633 C717 633 711 631 707 627 L500 420 L293 627 C289 631 283 633 278 633 C272 633 267 631 262 627 C258 622 256 617 256 611 C256 605 258 600 262 596 L484 373 C489 369 494 367 500 367 L500 367 Z " />
<glyph glyph-name="uniE117" unicode="&#xe117;" horiz-adv-x="1000" d="M722 367 C728 367 733 369 738 373 C742 378 744 383 744 389 C744 395 742 400 738 404 L516 627 C511 631 506 633 500 633 C494 633 489 631 484 627 L262 404 C258 400 256 395 256 389 C256 383 258 378 262 373 C267 369 272 367 278 367 C283 367 289 369 293 373 L500 580 L707 373 C711 369 717 367 722 367 L722 367 Z " />
<glyph glyph-name="uniE118" unicode="&#xe118;" horiz-adv-x="1000" d="M511 258 C516 258 521 260 525 264 C529 268 531 273 531 278 C531 283 529 288 525 292 L317 500 L525 708 C529 712 531 717 531 722 C531 727 529 732 525 736 C521 740 516 742 511 742 C506 742 501 740 497 736 L275 514 C271 510 269 505 269 500 C269 495 271 490 275 486 L497 264 C501 260 506 258 511 258 L511 258 Z M711 258 C716 258 721 260 725 264 C729 268 731 273 731 278 C731 283 729 288 725 292 L517 500 L725 708 C729 712 731 717 731 722 C731 727 729 732 725 736 C721 740 716 742 711 742 C706 742 701 740 697 736 L475 514 C471 510 469 505 469 500 C469 495 471 490 475 486 L697 264 C701 260 706 258 711 258 L711 258 Z " />
<glyph glyph-name="uniE119" unicode="&#xe119;" horiz-adv-x="1000" d="M289 258 C294 258 299 260 303 264 L525 486 C529 490 531 495 531 500 C531 505 529 510 525 514 L303 736 C299 740 294 742 289 742 C284 742 279 740 275 736 C271 732 269 727 269 722 C269 717 271 712 275 708 L483 500 L275 292 C271 288 269 283 269 278 C269 273 271 268 275 264 C279 260 284 258 289 258 L289 258 Z M489 258 C494 258 499 260 503 264 L725 486 C729 490 731 495 731 500 C731 505 729 510 725 514 L503 736 C499 740 494 742 489 742 C484 742 479 740 475 736 C471 732 469 727 469 722 C469 717 471 712 475 708 L683 500 L475 292 C471 288 469 283 469 278 C469 273 471 268 475 264 C479 260 484 258 489 258 L489 258 Z " />
<glyph glyph-name="uniE11A" unicode="&#xe11a;" horiz-adv-x="1000" d="M680 556 C685 556 690 558 694 562 C698 566 700 571 700 576 C700 581 698 586 694 590 L514 770 C510 774 505 776 500 776 C495 776 490 774 486 770 L306 590 C302 586 300 581 300 576 C300 571 302 566 306 562 C310 558 315 556 320 556 C325 556 330 558 334 562 L500 728 L666 562 C670 558 675 556 680 556 L680 556 Z M500 224 C505 224 510 226 514 230 L694 410 C698 414 700 419 700 424 C700 429 698 434 694 438 C690 442 685 444 680 444 C675 444 670 442 666 438 L500 272 L334 438 C330 442 325 444 320 444 C315 444 310 442 306 438 C302 434 300 429 300 424 C300 419 302 414 306 410 L486 230 C490 226 495 224 500 224 L500 224 Z " />
<glyph glyph-name="uniE11B" unicode="&#xe11b;" horiz-adv-x="1000" d="M361 244 C367 244 372 246 376 250 L485 360 C493 368 493 380 485 388 C477 396 465 396 457 388 L381 313 L381 736 C381 747 372 756 361 756 C350 756 341 747 341 736 L341 313 L266 388 C258 396 246 396 238 388 C230 380 230 368 238 360 L347 250 C351 246 356 244 361 244 L361 244 Z M639 244 C650 244 659 253 659 264 L659 687 L734 612 C738 608 743 606 748 606 C753 606 758 608 762 612 C770 620 770 632 762 640 L653 750 C649 754 644 756 639 756 C633 756 628 754 624 750 L515 640 C507 632 507 620 515 612 C523 604 535 604 543 612 L619 687 L619 264 C619 253 628 244 639 244 L639 244 Z " />
<glyph glyph-name="uniE11C" unicode="&#xe11c;" horiz-adv-x="1000" d="M448 193 C452 193 456 194 460 197 L560 274 C565 278 568 284 568 290 L568 436 L767 652 C770 655 772 660 772 665 L772 753 C772 764 763 773 752 773 L244 773 C233 773 224 764 224 753 L224 665 C224 660 226 655 229 652 L428 436 L428 213 C428 205 432 198 439 195 C442 193 445 193 448 193 L448 193 Z M468 253 L468 444 C468 449 466 454 462 458 L264 673 L264 733 L732 733 L732 673 L534 458 C530 454 528 449 528 444 L528 300 L468 253 Z " />
<glyph glyph-name="uniE11D" unicode="&#xe11d;" horiz-adv-x="1000" d="M274 206 C285 206 294 215 294 226 L294 551 C324 560 346 587 346 620 C346 652 324 680 294 688 L294 774 C294 785 285 794 274 794 C263 794 254 785 254 774 L254 688 C224 680 203 652 203 620 C203 587 224 560 254 551 L254 226 C254 215 263 206 274 206 L274 206 Z M500 206 C511 206 520 215 520 226 L520 325 C550 334 572 361 572 394 C572 426 550 454 520 462 L520 774 C520 785 511 794 500 794 C489 794 480 785 480 774 L480 462 C450 454 428 426 428 394 C428 361 450 334 480 325 L480 226 C480 215 489 206 500 206 L500 206 Z M726 206 C737 206 746 215 746 226 L746 551 C776 560 798 587 798 620 C798 652 776 680 746 688 L746 774 C746 785 737 794 726 794 C715 794 706 785 706 774 L706 688 C676 680 654 652 654 620 C654 587 676 560 706 551 L706 226 C706 215 715 206 726 206 L726 206 Z M274 588 C257 588 243 602 243 620 C243 637 257 651 274 651 C291 651 306 637 306 620 C306 602 291 588 274 588 L274 588 Z M726 588 C709 588 694 602 694 620 C694 637 709 651 726 651 C743 651 758 637 758 620 C758 602 743 588 726 588 L726 588 Z M500 362 C483 362 468 376 468 394 C468 411 483 425 500 425 C517 425 532 411 532 394 C532 376 517 362 500 362 L500 362 Z " />
<glyph glyph-name="uniE130" unicode="&#xe130;" horiz-adv-x="1000" d="M721 201 C727 201 732 203 735 207 L797 268 C800 272 802 277 802 282 C802 287 800 292 796 296 L666 427 C688 464 700 507 700 552 C700 618 674 680 627 727 C580 774 518 800 452 800 C385 800 323 774 276 727 C229 680 203 618 203 552 C203 486 229 423 276 376 C323 329 385 304 452 304 C496 304 539 315 577 337 L707 207 C711 203 716 201 721 201 L721 201 Z M304 405 C265 444 243 496 243 552 C243 607 265 660 304 699 C345 740 398 760 452 760 C505 760 558 740 599 699 C639 658 660 605 660 552 C660 499 639 445 599 405 C558 364 505 344 452 344 C398 344 345 364 304 405 L304 405 Z M595 530 C606 530 615 539 615 550 C615 641 540 715 449 715 C438 715 429 706 429 695 C429 684 438 675 449 675 C518 675 575 619 575 550 C575 539 583 530 595 530 L595 530 Z M721 249 L610 361 C616 366 622 371 627 376 C633 382 638 388 643 394 L754 282 L721 249 Z " />
<glyph glyph-name="uniE131" unicode="&#xe131;" horiz-adv-x="1000" d="M369 332 L710 332 C722 332 730 341 730 352 C730 363 722 372 710 372 L369 372 C359 372 351 379 349 389 L342 435 L694 435 C723 435 748 456 753 485 L785 678 C786 683 784 689 780 694 C776 698 771 701 765 701 L298 701 L282 792 C281 802 273 809 263 809 L186 809 C175 809 166 800 166 789 C166 778 175 769 186 769 L246 769 L310 382 C315 353 340 332 369 332 L369 332 Z M335 475 L304 661 L741 661 L713 491 C712 482 703 475 694 475 L335 475 Z M375 194 C405 194 430 219 430 250 C430 280 405 305 375 305 C344 305 320 280 320 250 C320 219 344 194 375 194 L375 194 Z M681 194 C711 194 736 219 736 250 C736 280 711 305 681 305 C650 305 626 280 626 250 C626 219 650 194 681 194 L681 194 Z M375 234 C366 234 360 241 360 250 C360 258 366 265 375 265 C383 265 390 258 390 250 C390 241 383 234 375 234 L375 234 Z M681 234 C673 234 666 241 666 250 C666 258 673 265 681 265 C689 265 696 258 696 250 C696 241 689 234 681 234 L681 234 Z " />
<glyph glyph-name="uniE132" unicode="&#xe132;" horiz-adv-x="1000" d="M283 205 L658 205 C689 205 714 230 714 261 L714 315 L757 315 C773 315 787 329 787 346 L787 723 C787 740 773 754 757 754 L713 754 C710 781 686 802 658 802 L283 802 C252 802 227 777 227 746 L227 261 C227 230 252 205 283 205 L283 205 Z M283 245 C274 245 267 252 267 261 L267 746 C267 755 274 762 283 762 L658 762 C667 762 674 755 674 746 L674 261 C674 252 667 245 658 245 L283 245 Z M714 654 L714 714 L747 714 L747 654 L714 654 Z M470 368 C475 368 480 370 484 373 L570 457 C585 472 595 491 599 510 C600 517 601 523 601 529 C601 541 599 553 594 564 C582 595 554 614 522 614 C504 614 489 606 479 599 C475 596 472 593 468 589 C465 593 461 596 457 599 C447 606 432 614 414 614 C382 614 355 594 342 563 C338 552 336 541 336 530 C336 503 348 477 370 457 L456 373 C460 370 465 368 470 368 L470 368 Z M714 554 L714 614 L747 614 L747 554 L714 554 Z M470 416 L397 486 C382 500 376 515 376 529 C376 536 378 543 380 548 C386 565 399 574 414 574 C426 574 444 561 451 547 C454 540 461 536 469 536 C476 536 483 540 486 547 C493 561 511 574 522 574 C538 574 551 565 557 549 C560 543 561 537 561 529 C561 515 556 500 542 486 L470 416 Z M714 455 L714 514 L747 514 L747 455 L714 455 Z M714 355 L714 415 L747 415 L747 355 L714 355 Z " />
<glyph glyph-name="uniE133" unicode="&#xe133;" horiz-adv-x="1000" d="M428 179 L572 179 C582 179 590 187 591 197 L599 261 C620 270 640 282 659 296 L719 270 C721 269 724 269 727 269 C734 269 740 272 744 279 L815 402 C817 406 818 409 818 412 C818 419 815 425 810 429 L758 467 C759 479 760 490 760 502 C760 514 759 525 758 537 L810 575 C815 579 818 585 818 592 C818 595 817 598 815 602 L744 725 C740 732 734 735 727 735 C724 735 721 735 719 734 L659 708 C640 722 620 734 599 743 L591 807 C590 817 582 825 572 825 L428 825 C418 825 410 817 409 807 L401 743 C380 734 360 722 341 708 L281 734 C279 735 276 735 273 735 C266 735 260 732 256 725 L185 602 C183 598 182 595 182 592 C182 585 185 579 190 575 L242 537 C241 525 240 514 240 502 C240 490 241 479 242 467 L190 429 C185 425 182 419 182 412 C182 409 183 406 185 402 L256 279 C260 272 266 269 273 269 C276 269 279 269 281 270 L341 296 C360 282 380 270 401 261 L409 197 C410 187 418 179 428 179 L428 179 Z M446 219 L440 278 C439 286 434 292 426 295 C401 304 378 317 357 335 C354 338 349 339 344 339 C342 339 339 339 336 338 L282 314 L228 407 L276 442 C281 446 284 452 284 458 L284 462 C281 475 280 489 280 502 C280 515 281 529 284 542 C285 549 282 557 276 562 L228 597 L282 690 L336 666 C339 665 342 665 344 665 C349 665 354 666 357 669 C378 687 401 700 426 709 C434 712 439 718 440 726 L446 785 L554 785 L560 726 C561 718 566 712 574 709 C599 700 622 687 643 669 C646 666 651 665 656 665 C658 665 661 665 664 666 L718 690 L772 597 L724 562 C719 558 716 552 716 546 L716 542 C719 529 720 515 720 502 C720 489 719 475 716 462 C715 455 718 447 724 442 L772 407 L718 314 L664 338 C661 339 658 339 656 339 C651 339 646 338 643 335 C622 317 599 304 574 295 C566 292 561 286 560 278 L554 219 L446 219 Z M500 372 C572 372 630 430 630 502 C630 574 572 632 500 632 C428 632 370 574 370 502 C370 430 428 372 500 372 L500 372 Z M500 412 C450 412 410 452 410 502 C410 552 450 592 500 592 C550 592 590 552 590 502 C590 452 550 412 500 412 L500 412 Z " />
<glyph glyph-name="uniE134" unicode="&#xe134;" horiz-adv-x="1000" d="M509 165 C513 165 517 167 521 169 C526 173 529 179 529 185 L529 241 L669 241 C680 241 689 250 689 261 L689 354 C689 365 680 374 669 374 C658 374 649 365 649 354 L649 281 L529 281 L529 710 C529 719 523 727 514 729 L388 766 L649 766 L649 698 C649 687 658 678 669 678 C680 678 689 687 689 698 L689 786 C689 797 680 806 669 806 L249 806 C237 806 229 797 229 786 L229 261 C229 253 234 245 243 242 L503 166 L509 165 Z M489 212 L269 276 L269 759 L489 695 L489 212 Z M693 390 C699 390 704 392 708 396 L823 512 C827 516 829 521 829 526 C829 531 827 536 823 540 L708 657 C704 660 699 663 693 663 C691 663 688 662 686 661 C678 658 673 651 673 643 L673 613 L588 613 C577 613 568 604 568 593 L568 459 C568 448 577 439 588 439 L673 439 L673 410 C673 402 678 395 686 392 C688 391 691 390 693 390 L693 390 Z M713 459 C713 463 712 467 710 471 C706 476 700 479 693 479 L608 479 L608 573 L693 573 C700 573 706 577 710 582 C712 586 713 589 713 594 L780 526 L713 459 Z M434 434 C448 434 459 447 459 462 C459 478 448 490 434 490 C420 490 410 478 410 462 C410 447 420 434 434 434 L434 434 Z " />
<glyph glyph-name="uniE135" unicode="&#xe135;" horiz-adv-x="1000" d="M263 206 L737 206 C750 206 763 211 772 221 C781 230 785 243 785 256 C782 312 763 366 730 411 C701 450 663 480 619 500 C651 533 671 583 671 633 C671 679 653 722 621 756 C589 789 546 808 500 808 C454 808 411 789 379 756 C347 722 329 679 329 633 C329 583 349 533 381 500 C337 480 299 450 270 411 C237 366 218 312 215 256 C215 243 219 230 228 221 C237 211 250 206 263 206 L263 206 Z M263 246 C260 246 258 247 257 248 C256 250 255 251 255 254 C257 302 274 348 302 387 C331 425 370 454 414 470 C425 474 432 484 432 496 C432 504 428 512 421 517 C390 541 369 588 369 633 C369 668 383 702 407 728 C432 754 465 768 500 768 C535 768 568 754 593 728 C617 702 631 668 631 633 C631 588 610 541 579 517 C572 512 568 504 568 496 L568 492 C570 482 577 474 586 470 C630 454 669 425 698 387 C726 348 743 302 745 254 C745 251 744 250 743 248 C742 247 740 246 737 246 L263 246 Z " />
<glyph glyph-name="uniE136" unicode="&#xe136;" horiz-adv-x="1000" d="M295 217 L705 217 C730 217 750 237 751 262 L763 494 C783 498 799 515 800 536 L807 618 C808 631 803 644 795 653 C786 663 773 668 760 668 L661 668 C670 673 677 679 684 686 C694 698 699 712 699 727 C699 763 668 789 626 789 C603 789 578 781 555 766 C535 752 517 733 502 709 C488 733 470 754 449 771 C420 794 387 807 356 807 C318 807 289 787 277 754 C274 746 273 738 273 731 C273 718 277 706 285 695 C292 685 303 676 316 668 L240 668 C227 668 214 663 205 653 C197 644 192 631 193 618 L200 536 C201 515 217 498 237 494 L249 262 C250 237 270 217 295 217 L295 217 Z M474 677 C432 678 397 683 370 690 C337 699 323 710 317 718 C315 721 313 725 313 731 C313 734 314 737 315 741 C323 763 342 767 356 767 C378 767 402 757 424 740 C439 728 459 708 474 677 L474 677 Z M530 677 C543 701 559 720 578 733 C593 743 611 749 626 749 L634 749 C640 748 659 744 659 727 C659 721 657 717 653 713 C644 701 621 692 591 685 C569 681 548 678 530 677 L530 677 Z M246 533 C243 533 240 535 239 539 L233 621 C233 623 234 625 235 626 C236 627 237 628 240 628 L480 628 L480 533 L246 533 Z M520 533 L520 628 L760 628 C763 628 764 627 765 626 C766 625 767 623 767 621 L761 539 C760 535 757 533 754 533 L520 533 Z M295 257 C292 257 289 260 288 264 L277 493 L480 493 L480 257 L295 257 Z M520 257 L520 493 L723 493 L712 264 C711 260 708 257 705 257 L520 257 Z " />
<glyph glyph-name="uniE137" unicode="&#xe137;" horiz-adv-x="1000" d="M353 207 L411 207 C427 207 442 217 451 233 C456 241 458 250 458 258 C458 266 456 273 452 280 L413 341 C400 361 400 382 399 406 L398 424 L412 424 C498 424 586 332 633 283 C662 253 672 242 686 242 L692 242 C723 242 748 267 748 298 L748 428 C766 435 782 447 794 463 C808 482 816 505 816 530 C816 554 808 577 794 597 C782 612 766 624 748 632 L748 762 C748 792 723 817 692 817 L686 817 C672 817 662 806 633 776 C586 727 498 636 412 636 L248 636 C210 636 180 605 180 567 L180 492 C180 455 210 424 248 424 L252 424 L293 254 C299 228 325 207 353 207 L353 207 Z M691 282 C685 287 673 300 662 311 C636 338 600 375 558 406 C514 439 472 458 432 463 L432 597 C472 602 514 621 558 653 C600 684 636 722 662 749 C673 760 685 773 691 777 L692 777 C701 777 708 770 708 762 L708 298 C708 289 701 282 692 282 L691 282 Z M248 464 C233 464 220 477 220 492 L220 567 C220 583 233 596 248 596 L392 596 L392 464 L248 464 Z M748 474 L748 586 C765 573 776 552 776 530 C776 507 765 487 748 474 L748 474 Z M353 247 C344 247 333 255 331 263 L293 424 L358 424 L359 405 C360 379 361 348 379 320 L418 258 C418 258 418 255 416 252 C414 249 412 247 411 247 L353 247 Z " />
<glyph glyph-name="uniE138" unicode="&#xe138;" horiz-adv-x="1000" d="M225 689 L775 689 C786 689 795 698 795 709 C795 720 786 729 775 729 L225 729 C214 729 205 720 205 709 C205 698 214 689 225 689 L225 689 Z M225 462 L775 462 C786 462 795 471 795 482 C795 493 786 502 775 502 L225 502 C214 502 205 493 205 482 C205 471 214 462 225 462 L225 462 Z M225 235 L775 235 C786 235 795 244 795 255 C795 266 786 275 775 275 L225 275 C214 275 205 266 205 255 C205 244 214 235 225 235 L225 235 Z " />
<glyph glyph-name="uniE139" unicode="&#xe139;" horiz-adv-x="1000" d="M230 214 L770 214 C799 214 823 238 823 267 L823 625 C823 653 799 677 770 677 L704 677 L673 772 C671 780 663 786 654 786 L341 786 C332 786 324 780 322 772 L291 677 L230 677 C201 677 178 653 178 625 L178 267 C178 238 201 214 230 214 L230 214 Z M230 254 C223 254 218 260 218 267 L218 625 C218 631 223 637 230 637 L305 637 C314 637 321 642 324 651 L355 746 L640 746 L671 651 C674 642 681 637 690 637 L770 637 C777 637 783 631 783 625 L783 267 C783 260 777 254 770 254 L230 254 Z M682 304 C688 304 694 306 698 311 C701 315 702 319 702 324 C702 330 700 335 695 339 L626 397 C642 422 652 452 652 484 C652 572 580 644 492 644 C403 644 331 572 331 484 C331 396 403 324 492 324 C534 324 572 340 600 367 L670 309 C673 306 678 304 682 304 L682 304 Z M492 364 C425 364 371 418 371 484 C371 550 425 604 492 604 C558 604 612 550 612 484 C612 418 558 364 492 364 L492 364 Z " />
<glyph glyph-name="uniE13A" unicode="&#xe13a;" horiz-adv-x="1000" d="M279 344 L723 344 C747 344 767 361 772 384 L822 612 C824 624 815 636 802 636 C793 636 784 630 782 620 L733 392 C732 388 728 384 723 384 L279 384 C275 384 271 388 270 392 L192 755 C190 764 182 771 173 771 L91 771 C80 771 71 762 71 751 C71 740 80 731 91 731 L156 731 L230 384 C235 361 256 344 279 344 L279 344 Z M368 194 C398 194 423 219 423 250 C423 280 398 305 368 305 C337 305 313 280 313 250 C313 219 337 194 368 194 L368 194 Z M635 194 C665 194 690 219 690 250 C690 280 665 305 635 305 C605 305 580 280 580 250 C580 219 605 194 635 194 L635 194 Z M368 234 C359 234 353 241 353 250 C353 258 359 265 368 265 C376 265 383 258 383 250 C383 241 376 234 368 234 L368 234 Z M635 234 C627 234 620 241 620 250 C620 258 627 265 635 265 C643 265 650 258 650 250 C650 241 643 234 635 234 L635 234 Z " />
<glyph glyph-name="uniE13B" unicode="&#xe13b;" horiz-adv-x="1000" d="M203 223 L797 223 C812 223 825 236 825 251 L825 737 C825 753 812 765 797 765 L721 765 L721 783 C721 794 712 803 701 803 C690 803 681 794 681 783 L681 765 L587 765 L587 783 C587 794 578 803 567 803 C556 803 547 794 547 783 L547 765 L453 765 L453 783 C453 794 444 803 433 803 C422 803 413 794 413 783 L413 765 L319 765 L319 783 C319 794 310 803 299 803 C288 803 279 794 279 783 L279 765 L203 765 C188 765 175 753 175 737 L175 251 C175 236 188 223 203 223 L203 223 Z M215 670 L215 725 L279 725 L279 707 C279 696 288 687 299 687 C310 687 319 696 319 707 L319 725 L413 725 L413 707 C413 696 422 687 433 687 C444 687 453 696 453 707 L453 725 L547 725 L547 707 C547 696 556 687 567 687 C578 687 587 696 587 707 L587 725 L681 725 L681 707 C681 696 690 687 701 687 C712 687 721 696 721 707 L721 725 L785 725 L785 670 L215 670 Z M215 263 L215 630 L785 630 L785 263 L215 263 Z M608 529 C619 529 628 538 628 549 L628 569 C628 580 619 589 608 589 C596 589 588 580 588 569 L588 549 C588 538 596 529 608 529 L608 529 Z M715 529 C726 529 735 538 735 549 L735 569 C735 580 726 589 715 589 C704 589 695 580 695 569 L695 549 C695 538 704 529 715 529 L715 529 Z M285 529 C296 529 305 538 305 549 L305 568 C305 579 296 588 285 588 C274 588 265 579 265 568 L265 549 C265 538 274 529 285 529 L285 529 Z M393 529 C404 529 413 538 413 549 L413 568 C413 579 404 588 393 588 C381 588 373 579 373 568 L373 549 C373 538 381 529 393 529 L393 529 Z M500 529 C511 529 520 538 520 549 L520 568 C520 579 511 588 500 588 C489 588 480 579 480 568 L480 549 C480 538 489 529 500 529 L500 529 Z M582 390 L634 390 C651 390 666 405 666 422 L666 470 C666 488 651 502 634 502 L582 502 C564 502 550 488 550 470 L550 422 C550 405 564 390 582 390 L582 390 Z M715 417 C726 417 735 426 735 437 L735 457 C735 468 726 477 715 477 C704 477 695 468 695 457 L695 437 C695 426 704 417 715 417 L715 417 Z M285 417 C296 417 305 426 305 437 L305 456 C305 467 296 476 285 476 C274 476 265 467 265 456 L265 437 C265 426 274 417 285 417 L285 417 Z M393 417 C404 417 413 426 413 437 L413 456 C413 467 404 476 393 476 C381 476 373 467 373 456 L373 437 C373 426 381 417 393 417 L393 417 Z M500 417 C511 417 520 426 520 437 L520 456 C520 467 511 476 500 476 C489 476 480 467 480 456 L480 437 C480 426 489 417 500 417 L500 417 Z M590 430 L590 462 L626 462 L626 430 L590 430 Z M285 305 C296 305 305 314 305 325 L305 344 C305 355 296 364 285 364 C274 364 265 355 265 344 L265 325 C265 314 274 305 285 305 L285 305 Z M393 305 C404 305 413 314 413 325 L413 344 C413 355 404 364 393 364 C381 364 373 355 373 344 L373 325 C373 314 381 305 393 305 L393 305 Z M500 305 C511 305 520 314 520 325 L520 344 C520 355 511 364 500 364 C489 364 480 355 480 344 L480 325 C480 314 489 305 500 305 L500 305 Z " />
<glyph glyph-name="uniE140" unicode="&#xe140;" horiz-adv-x="1000" d="M721 210 C724 210 727 211 729 213 L790 274 C792 277 793 279 793 282 C793 285 792 288 790 290 L655 425 C678 463 691 506 691 552 C691 616 666 676 621 721 C576 766 515 791 452 791 C388 791 328 766 282 721 C237 676 212 616 212 552 C212 488 237 428 282 383 C328 337 388 313 452 313 C497 313 541 325 578 349 L713 213 C716 211 718 210 721 210 L721 210 Z M452 335 C394 335 339 357 298 398 C257 439 234 494 234 552 C234 610 257 664 298 705 C339 746 394 769 452 769 C510 769 564 746 605 705 C646 664 669 610 669 552 C669 494 646 439 605 398 C564 357 510 335 452 335 L452 335 Z M595 539 C601 539 606 544 606 550 C606 636 536 706 449 706 C443 706 438 701 438 695 C438 689 443 684 449 684 C523 684 584 624 584 550 C584 544 588 539 595 539 L595 539 Z M721 237 L597 361 C605 368 613 375 621 383 C628 390 636 399 642 407 L767 282 L721 237 Z " />
<glyph glyph-name="uniE141" unicode="&#xe141;" horiz-adv-x="1000" d="M369 341 L710 341 C717 341 721 346 721 352 C721 358 717 363 710 363 L369 363 C355 363 343 373 341 387 L331 444 L694 444 C719 444 740 461 744 486 L776 679 C776 682 775 686 773 688 C771 691 768 692 765 692 L290 692 L274 791 C273 796 268 800 263 800 L186 800 C180 800 175 795 175 789 C175 783 180 778 186 778 L253 778 L319 384 C323 359 344 341 369 341 L369 341 Z M328 466 L294 670 L752 670 L722 490 C720 476 708 466 694 466 L328 466 Z M375 203 C400 203 421 224 421 250 C421 275 400 296 375 296 C349 296 329 275 329 250 C329 224 349 203 375 203 L375 203 Z M681 203 C706 203 727 224 727 250 C727 275 706 296 681 296 C655 296 635 275 635 250 C635 224 655 203 681 203 L681 203 Z M375 225 C361 225 351 236 351 250 C351 263 361 274 375 274 C388 274 399 263 399 250 C399 236 388 225 375 225 L375 225 Z M681 225 C668 225 657 236 657 250 C657 263 668 274 681 274 C694 274 705 263 705 250 C705 236 694 225 681 225 L681 225 Z " />
<glyph glyph-name="uniE142" unicode="&#xe142;" horiz-adv-x="1000" d="M283 214 L658 214 C684 214 705 235 705 261 L705 324 L757 324 C768 324 778 334 778 346 L778 723 C778 735 768 745 757 745 L705 745 L705 746 C705 772 684 793 658 793 L283 793 C257 793 236 772 236 746 L236 261 C236 235 257 214 283 214 L283 214 Z M283 236 C269 236 258 248 258 261 L258 746 C258 760 269 771 283 771 L658 771 C672 771 683 760 683 746 L683 261 C683 248 672 236 658 236 L283 236 Z M705 645 L705 723 L756 723 L756 645 L705 645 Z M705 545 L705 623 L756 623 L756 545 L705 545 Z M470 377 C473 377 476 378 478 380 L563 464 C577 478 587 494 590 512 C591 518 592 524 592 529 C592 540 590 551 586 561 C575 588 550 605 522 605 C502 605 482 592 468 576 C455 592 434 605 414 605 C386 605 362 588 351 559 C347 550 345 540 345 530 C345 523 346 517 348 511 C352 493 361 477 376 464 L463 380 C465 378 468 377 470 377 L470 377 Z M470 403 L391 480 C374 495 367 513 367 529 C367 537 369 545 371 551 C379 571 395 583 414 583 C429 583 450 568 459 551 C461 547 465 545 469 545 C473 545 477 548 478 551 C487 568 507 583 522 583 C541 583 558 571 566 552 C568 546 570 538 570 529 C570 513 564 495 548 479 L470 403 Z M705 446 L705 523 L756 523 L756 446 L705 446 Z M705 346 L705 424 L756 424 L756 346 L705 346 Z " />
<glyph glyph-name="uniE143" unicode="&#xe143;" horiz-adv-x="1000" d="M428 188 L572 188 C577 188 582 192 582 198 L590 268 C615 277 637 290 658 307 L722 279 C727 276 733 278 736 283 L808 407 C810 412 809 418 805 421 L748 463 C750 476 751 489 751 502 C751 515 750 528 748 541 L805 583 C808 585 809 588 809 592 C809 593 809 595 808 597 L736 721 C734 724 730 726 727 726 C725 726 724 726 722 725 L658 697 C637 714 615 727 590 736 L582 806 C582 812 577 816 572 816 L428 816 C423 816 418 812 418 806 L410 736 C385 727 363 714 342 697 L278 725 C273 728 267 726 264 721 L192 597 C190 592 191 586 195 583 L252 541 C250 528 249 515 249 502 C249 489 250 476 252 463 L195 421 C192 419 191 416 191 412 C191 411 191 409 192 407 L264 283 C266 280 270 278 273 278 C275 278 276 278 278 279 L342 307 C363 290 385 277 410 268 L418 198 C418 192 423 188 428 188 L428 188 Z M438 210 L431 277 C430 281 427 285 423 286 C397 295 373 309 351 328 C348 330 344 331 340 329 L278 303 L216 409 L271 450 C273 452 275 455 275 458 L275 460 C272 474 271 488 271 502 C271 516 272 530 275 544 C276 548 274 552 271 554 L216 595 L278 701 L340 675 C344 673 348 674 351 676 C373 695 397 709 423 718 C427 719 430 723 431 727 L438 794 L562 794 L569 727 C570 723 573 719 577 718 C603 709 627 695 649 676 C652 674 656 673 660 675 L722 701 L784 595 L729 554 C727 552 725 549 725 546 L725 544 C728 530 729 516 729 502 C729 488 728 474 725 460 C724 456 726 452 729 450 L784 409 L722 303 L660 329 C656 331 652 330 649 328 C627 309 603 295 577 286 C573 285 570 281 569 277 L562 210 L438 210 Z M500 381 C567 381 621 435 621 502 C621 569 567 623 500 623 C433 623 379 569 379 502 C379 435 433 381 500 381 L500 381 Z M500 403 C445 403 401 447 401 502 C401 557 445 601 500 601 C555 601 599 557 599 502 C599 447 555 403 500 403 L500 403 Z " />
<glyph glyph-name="uniE144" unicode="&#xe144;" horiz-adv-x="1000" d="M509 174 C511 174 513 175 515 177 C518 179 520 182 520 185 L520 250 L669 250 C676 250 680 255 680 261 L680 354 C680 360 676 365 669 365 C663 365 658 360 658 354 L658 272 L520 272 L520 710 C520 715 516 719 512 721 L325 775 L658 775 L658 698 C658 692 663 687 669 687 C676 687 680 692 680 698 L680 786 C680 792 676 797 669 797 L249 797 C242 797 238 792 238 786 L238 261 C238 257 241 252 245 251 L505 175 L509 174 Z M498 200 L260 270 L260 771 L498 702 L498 200 Z M693 399 C696 399 699 400 701 402 L816 519 C818 521 820 523 820 526 C820 529 818 532 816 534 L701 650 C699 652 696 654 693 654 C692 654 691 653 689 653 C685 651 682 647 682 643 L682 604 L588 604 C582 604 577 599 577 593 L577 459 C577 453 582 448 588 448 L682 448 L682 410 C682 406 685 402 689 400 L693 399 Z M704 437 L704 459 C704 465 699 470 693 470 L599 470 L599 582 L693 582 C699 582 704 587 704 593 L704 616 L793 526 L704 437 Z M434 443 C443 443 450 452 450 462 C450 473 443 481 434 481 C426 481 419 473 419 462 C419 452 426 443 434 443 L434 443 Z " />
<glyph glyph-name="uniE145" unicode="&#xe145;" horiz-adv-x="1000" d="M263 215 L737 215 C748 215 758 219 765 227 C772 234 776 244 776 254 L776 256 C773 310 755 362 722 405 C692 447 651 478 603 497 C639 527 662 581 662 633 C662 676 645 718 615 749 C584 781 543 799 500 799 C457 799 416 781 385 749 C355 718 338 676 338 633 C338 581 361 527 397 497 C349 478 308 447 278 405 C245 362 227 310 224 256 C224 245 227 235 235 227 C242 219 252 215 263 215 L263 215 Z M263 237 C258 237 254 239 251 242 C248 245 246 250 246 254 L246 255 C248 304 265 352 295 392 C325 432 365 462 411 479 C418 481 423 488 423 496 C423 501 420 507 416 510 C399 523 385 541 375 563 C365 585 360 610 360 633 C360 671 374 707 401 734 C428 762 463 777 500 777 C537 777 572 762 599 734 C626 707 640 671 640 633 C640 610 635 585 625 563 C615 541 601 523 584 510 C580 507 577 501 577 496 L577 493 C578 487 583 481 589 479 C635 462 675 432 705 392 C735 352 752 304 754 255 C754 250 752 246 749 242 C746 239 742 237 737 237 L263 237 Z " />
<glyph glyph-name="uniE146" unicode="&#xe146;" horiz-adv-x="1000" d="M295 226 L705 226 C725 226 742 242 742 262 L754 502 C774 502 790 517 791 537 L798 618 C799 629 795 639 788 647 C781 655 771 659 760 659 L615 659 C644 667 665 678 677 692 C686 702 690 714 690 727 C690 758 664 780 626 780 C585 780 535 753 502 690 C468 761 405 798 356 798 C322 798 296 781 286 751 C283 744 282 738 282 731 C282 720 285 710 292 700 C304 683 328 669 362 660 L365 659 L240 659 C229 659 219 655 212 647 C206 640 202 631 202 621 L202 618 L209 537 C210 517 226 502 246 502 L258 262 C258 242 275 226 295 226 L295 226 Z M487 668 C439 668 398 673 368 681 C339 689 319 700 310 713 C306 719 304 725 304 731 C304 735 305 739 306 744 C316 772 342 776 356 776 C380 776 407 765 430 747 C448 733 472 708 487 668 L487 668 Z M515 668 C530 699 549 724 573 740 C590 752 609 758 626 758 L635 758 C655 755 668 743 668 727 C668 719 666 713 660 707 C637 680 571 669 515 668 L515 668 Z M246 524 C238 524 231 530 230 538 L224 620 C224 625 225 629 228 632 C231 635 235 637 240 637 L489 637 L489 524 L246 524 Z M511 524 L511 637 L760 637 C765 637 769 635 772 632 C775 629 776 625 776 621 L776 620 L770 538 C769 530 762 524 754 524 L511 524 Z M295 248 C287 248 280 255 279 263 L268 502 L489 502 L489 248 L295 248 Z M511 248 L511 502 L732 502 L721 263 C720 255 713 248 705 248 L511 248 Z " />
<glyph glyph-name="uniE147" unicode="&#xe147;" horiz-adv-x="1000" d="M353 216 L411 216 C424 216 436 224 443 237 C447 244 449 251 449 258 C449 264 447 270 444 275 L405 336 C391 358 391 381 390 406 C390 415 389 424 389 433 L412 433 C451 433 494 416 540 382 C580 352 615 316 640 289 C667 260 677 251 686 251 L692 251 C718 251 739 272 739 298 L739 434 C758 441 774 453 786 468 C800 486 807 507 807 530 C807 552 800 573 786 591 C774 607 758 619 739 626 L739 762 C739 787 718 808 692 808 L686 808 C677 808 667 799 640 770 C615 744 580 708 540 678 C494 644 451 627 412 627 L248 627 C215 627 189 600 189 567 L189 492 C189 460 215 433 248 433 L259 433 L301 256 C307 234 330 216 353 216 L353 216 Z M688 273 C683 276 668 291 656 305 C630 332 595 368 553 399 C507 433 463 452 423 455 L423 605 C463 608 507 626 553 660 C595 691 630 728 656 755 C668 768 683 783 688 786 L692 786 C706 786 717 775 717 762 L717 298 C717 284 706 273 692 273 L688 273 Z M248 455 C228 455 211 472 211 492 L211 567 C211 588 228 605 248 605 L401 605 L401 455 L248 455 Z M739 458 L739 602 C767 589 785 561 785 530 C785 499 767 470 739 458 L739 458 Z M353 238 C340 238 326 249 323 261 L282 433 L366 433 C367 424 368 415 368 406 C369 379 370 351 387 324 L426 263 C428 260 427 254 424 248 C421 242 416 238 411 238 L353 238 Z " />
<glyph glyph-name="uniE148" unicode="&#xe148;" horiz-adv-x="1000" d="M225 698 L775 698 C781 698 786 703 786 709 C786 715 781 720 775 720 L225 720 C219 720 214 715 214 709 C214 703 219 698 225 698 L225 698 Z M225 471 L775 471 C781 471 786 476 786 482 C786 488 781 493 775 493 L225 493 C219 493 214 488 214 482 C214 476 219 471 225 471 L225 471 Z M225 244 L775 244 C781 244 786 249 786 255 C786 261 781 266 775 266 L225 266 C219 266 214 261 214 255 C214 249 219 244 225 244 L225 244 Z " />
<glyph glyph-name="uniE149" unicode="&#xe149;" horiz-adv-x="1000" d="M230 223 L770 223 C794 223 814 243 814 267 L814 625 C814 648 794 668 770 668 L698 668 L665 769 C663 773 659 777 654 777 L341 777 C336 777 332 773 330 769 L297 668 L230 668 C206 668 187 648 187 625 L187 267 C187 243 206 223 230 223 L230 223 Z M230 245 C218 245 209 255 209 267 L209 625 C209 636 218 646 230 646 L305 646 C310 646 314 649 315 653 L349 755 L646 755 L679 653 C681 649 685 646 690 646 L770 646 C782 646 792 636 792 625 L792 267 C792 255 782 245 770 245 L230 245 Z M682 313 C686 313 689 314 691 317 C695 322 694 329 689 332 L614 396 C632 421 643 451 643 484 C643 568 575 635 492 635 C408 635 340 568 340 484 C340 401 408 333 492 333 C534 333 572 351 600 379 L675 316 C677 314 680 313 682 313 L682 313 Z M492 355 C420 355 362 413 362 484 C362 555 420 613 492 613 C563 613 621 555 621 484 C621 413 563 355 492 355 L492 355 Z " />
<glyph glyph-name="uniE14A" unicode="&#xe14a;" horiz-adv-x="1000" d="M289 353 L723 353 C743 353 759 367 763 386 L813 614 C814 621 809 627 802 627 C797 627 792 624 791 618 L742 390 C740 382 732 375 723 375 L289 375 C280 375 273 382 271 390 L193 753 C192 758 188 762 183 762 L101 762 C95 762 90 757 90 751 C90 745 95 740 101 740 L174 740 L249 386 C253 367 270 353 289 353 L289 353 Z M378 203 C403 203 424 224 424 250 C424 275 403 296 378 296 C352 296 332 275 332 250 C332 224 352 203 378 203 L378 203 Z M635 203 C660 203 681 224 681 250 C681 275 660 296 635 296 C609 296 589 275 589 250 C589 224 609 203 635 203 L635 203 Z M378 225 C364 225 354 236 354 250 C354 263 364 274 378 274 C391 274 402 263 402 250 C402 236 391 225 378 225 L378 225 Z M635 225 C622 225 611 236 611 250 C611 263 622 274 635 274 C648 274 659 263 659 250 C659 236 648 225 635 225 L635 225 Z " />
<glyph glyph-name="uniE14B" unicode="&#xe14b;" horiz-adv-x="1000" d="M203 232 L797 232 C807 232 816 241 816 251 L816 737 C816 748 807 756 797 756 L712 756 L712 783 C712 789 707 794 701 794 C695 794 690 789 690 783 L690 756 L578 756 L578 783 C578 789 573 794 567 794 C561 794 556 789 556 783 L556 756 L444 756 L444 783 C444 789 439 794 433 794 C427 794 422 789 422 783 L422 756 L310 756 L310 783 C310 789 305 794 299 794 C293 794 288 789 288 783 L288 756 L203 756 C193 756 184 748 184 737 L184 251 C184 241 193 232 203 232 L203 232 Z M206 661 L206 734 L288 734 L288 707 C288 701 293 696 299 696 C305 696 310 701 310 707 L310 734 L422 734 L422 707 C422 701 427 696 433 696 C439 696 444 701 444 707 L444 734 L556 734 L556 707 C556 701 561 696 567 696 C573 696 578 701 578 707 L578 734 L690 734 L690 707 C690 701 695 696 701 696 C707 696 712 701 712 707 L712 734 L794 734 L794 661 L206 661 Z M206 254 L206 639 L794 639 L794 254 L206 254 Z M608 538 C614 538 619 543 619 549 L619 569 C619 575 614 580 608 580 C601 580 597 575 597 569 L597 549 C597 543 601 538 608 538 L608 538 Z M715 538 C721 538 726 543 726 549 L726 569 C726 575 721 580 715 580 C709 580 704 575 704 569 L704 549 C704 543 709 538 715 538 L715 538 Z M285 538 C291 538 296 543 296 549 L296 568 C296 574 291 579 285 579 C279 579 274 574 274 568 L274 549 C274 543 279 538 285 538 L285 538 Z M393 538 C399 538 404 543 404 549 L404 568 C404 574 399 579 393 579 C386 579 382 574 382 568 L382 549 C382 543 386 538 393 538 L393 538 Z M500 538 C506 538 511 543 511 549 L511 568 C511 574 506 579 500 579 C494 579 489 574 489 568 L489 549 C489 543 494 538 500 538 L500 538 Z M582 399 L634 399 C646 399 657 410 657 422 L657 470 C657 483 646 493 634 493 L582 493 C569 493 559 483 559 470 L559 422 C559 410 569 399 582 399 L582 399 Z M582 421 C581 421 581 422 581 422 L581 470 C581 471 581 471 582 471 L634 471 C634 471 635 471 635 470 L635 422 L634 421 L582 421 Z M715 426 C721 426 726 431 726 437 L726 457 C726 463 721 468 715 468 C709 468 704 463 704 457 L704 437 C704 431 709 426 715 426 L715 426 Z M285 426 C291 426 296 431 296 437 L296 456 C296 462 291 467 285 467 C279 467 274 462 274 456 L274 437 C274 431 279 426 285 426 L285 426 Z M393 426 C399 426 404 431 404 437 L404 456 C404 462 399 467 393 467 C386 467 382 462 382 456 L382 437 C382 431 386 426 393 426 L393 426 Z M500 426 C506 426 511 431 511 437 L511 456 C511 462 506 467 500 467 C494 467 489 462 489 456 L489 437 C489 431 494 426 500 426 L500 426 Z M285 314 C291 314 296 319 296 325 L296 344 C296 350 291 355 285 355 C279 355 274 350 274 344 L274 325 C274 319 279 314 285 314 L285 314 Z M393 314 C399 314 404 319 404 325 L404 344 C404 350 399 355 393 355 C386 355 382 350 382 344 L382 325 C382 319 386 314 393 314 L393 314 Z M500 314 C506 314 511 319 511 325 L511 344 C511 350 506 355 500 355 C494 355 489 350 489 344 L489 325 C489 319 494 314 500 314 L500 314 Z " />
<glyph glyph-name="uniE155" unicode="&#xe155;" horiz-adv-x="1000" d="M263 206 L737 206 C750 206 763 211 772 221 C781 230 785 243 785 256 C782 312 763 366 730 411 C701 450 663 480 619 500 C651 533 671 583 671 633 C671 679 653 722 621 756 C589 789 546 808 500 808 C454 808 411 789 379 756 C347 722 329 679 329 633 C329 583 349 533 381 500 C337 480 299 450 270 411 C237 366 218 312 215 256 C215 243 219 230 228 221 C237 211 250 206 263 206 L263 206 Z " />
<glyph glyph-name="uniE156" unicode="&#xe156;" horiz-adv-x="1000" d="M237 494 L480 494 L480 618 C480 629 489 638 500 638 C511 638 520 629 520 618 L520 494 L763 494 C783 498 799 515 800 536 L807 618 C808 631 803 644 795 653 C786 663 773 668 760 668 L665 668 C673 673 680 679 685 685 C696 697 701 711 701 727 C701 764 670 791 626 791 C602 791 577 783 554 767 C534 754 517 735 502 713 C488 736 471 756 450 773 C421 796 387 809 356 809 C318 809 287 789 275 755 C272 747 271 739 271 731 C271 718 275 705 283 694 C290 684 300 676 312 668 L240 668 C227 668 214 663 205 653 C197 644 192 631 193 618 L200 536 C201 515 217 498 237 494 L237 494 Z M470 679 C430 681 397 685 370 692 C336 701 323 713 319 719 C317 722 315 726 315 731 C315 734 316 737 317 740 C324 761 342 765 356 765 C377 765 402 755 423 738 C437 727 456 708 470 679 L470 679 Z M534 680 C546 702 561 719 579 731 C594 741 611 747 626 747 L634 747 C639 746 657 742 657 727 C657 722 656 718 652 714 C642 703 620 693 590 687 C571 683 551 681 534 680 L534 680 Z M295 217 L480 217 L480 454 L239 454 L249 262 C250 237 270 217 295 217 L295 217 Z M520 217 L705 217 C730 217 750 237 751 262 L761 454 L520 454 L520 217 Z " />
<glyph glyph-name="uniE159" unicode="&#xe159;" horiz-adv-x="1000" d="M230 214 L770 214 C799 214 823 238 823 267 L823 625 C823 653 799 677 770 677 L704 677 L673 772 C671 780 663 786 654 786 L341 786 C332 786 324 780 322 772 L291 677 L230 677 C201 677 178 653 178 625 L178 267 C178 238 201 214 230 214 L230 214 Z M682 304 C678 304 673 306 670 309 L600 367 C572 340 534 324 492 324 C403 324 331 396 331 484 C331 572 403 644 492 644 C580 644 652 572 652 484 C652 452 642 422 626 397 L695 339 C700 335 702 330 702 324 C702 319 701 315 698 311 C694 306 688 304 682 304 L682 304 Z M492 364 C558 364 612 418 612 484 C612 550 558 604 492 604 C425 604 371 550 371 484 C371 418 425 364 492 364 L492 364 Z " />
<glyph glyph-name="uniE160" unicode="&#xe160;" horiz-adv-x="1000" d="M500 184 C583 184 660 216 718 274 C777 332 809 410 809 493 C809 575 777 653 718 711 C660 769 583 802 500 802 C417 802 340 769 282 711 C223 653 191 575 191 493 C191 410 223 332 282 274 C340 216 417 184 500 184 L500 184 Z M500 224 C428 224 361 251 310 302 C259 353 231 421 231 493 C231 564 259 632 310 683 C361 734 428 762 500 762 C572 762 639 734 690 683 C741 632 769 564 769 493 C769 421 741 353 690 302 C639 251 572 224 500 224 L500 224 Z M513 586 C541 586 563 608 563 635 C563 662 541 684 513 684 C486 684 464 662 464 635 C464 608 486 586 513 586 L513 586 Z M513 626 C508 626 504 630 504 635 C504 640 508 644 513 644 C519 644 523 640 523 635 C523 630 519 626 513 626 L513 626 Z M473 290 C479 290 485 291 492 293 C508 298 525 308 542 323 C548 329 555 337 561 344 C564 348 566 352 566 357 C566 363 563 368 559 372 C555 375 550 377 546 377 C540 377 534 374 530 370 C525 363 520 358 515 353 C496 335 481 331 474 330 L532 530 C534 539 532 548 526 555 C521 560 514 564 506 564 C505 564 504 563 502 563 L425 551 C416 549 409 540 409 531 L409 528 C411 518 419 511 429 511 L432 511 L487 520 L433 335 C433 332 432 329 432 325 C432 314 438 303 449 297 C456 293 464 290 473 290 L473 290 Z " />
<glyph glyph-name="uniE161" unicode="&#xe161;" horiz-adv-x="1000" d="M760 220 C765 220 770 222 774 226 C778 230 780 235 780 240 C780 245 778 250 774 254 L628 400 C663 441 681 493 681 547 C681 608 658 665 615 708 C572 751 514 775 453 775 C392 775 335 751 292 708 C249 665 225 608 225 547 C225 486 249 428 292 385 C335 342 392 319 453 319 C507 319 559 337 600 372 L746 226 C750 222 755 220 760 220 L760 220 Z M586 414 C550 377 501 359 453 359 C405 359 357 377 320 414 C283 450 265 499 265 547 C265 595 283 643 320 680 C357 717 405 735 453 735 C501 735 550 717 586 680 C623 643 641 595 641 547 C641 499 623 450 586 414 L586 414 Z M453 430 C464 430 473 439 473 450 L473 527 L550 527 C561 527 570 536 570 547 C570 558 561 567 550 567 L473 567 L473 644 C473 655 464 664 453 664 C442 664 433 655 433 644 L433 567 L356 567 C345 567 336 558 336 547 C336 536 345 527 356 527 L433 527 L433 450 C433 439 442 430 453 430 L453 430 Z " />
<glyph glyph-name="uniE162" unicode="&#xe162;" horiz-adv-x="1000" d="M760 220 C765 220 770 222 774 226 C778 230 780 235 780 240 C780 245 778 250 774 254 L628 400 C663 441 681 493 681 547 C681 608 658 665 615 708 C572 751 514 775 453 775 C392 775 335 751 292 708 C249 665 225 608 225 547 C225 486 249 428 292 385 C335 342 392 319 453 319 C507 319 559 337 600 372 L746 226 C750 222 755 220 760 220 L760 220 Z M586 414 C550 377 501 359 453 359 C405 359 357 377 320 414 C283 450 265 499 265 547 C265 595 283 643 320 680 C357 717 405 735 453 735 C501 735 550 717 586 680 C623 643 641 595 641 547 C641 499 623 450 586 414 L586 414 Z M356 527 L550 527 C561 527 570 536 570 547 C570 558 561 567 550 567 L356 567 C345 567 336 558 336 547 C336 536 345 527 356 527 L356 527 Z " />
<glyph glyph-name="uniE163" unicode="&#xe163;" horiz-adv-x="1000" d="M256 616 L364 616 C375 616 384 625 384 636 L384 744 C384 755 375 764 364 764 C353 764 344 755 344 744 L344 656 L256 656 C245 656 236 647 236 636 C236 625 245 616 256 616 L256 616 Z M636 616 L744 616 C755 616 764 625 764 636 C764 647 755 656 744 656 L656 656 L656 744 C656 755 647 764 636 764 C625 764 616 755 616 744 L616 636 C616 625 625 616 636 616 L636 616 Z M364 236 C375 236 384 245 384 256 L384 364 C384 375 375 384 364 384 L256 384 C245 384 236 375 236 364 C236 353 245 344 256 344 L344 344 L344 256 C344 245 353 236 364 236 L364 236 Z M636 236 C647 236 656 245 656 256 L656 344 L744 344 C755 344 764 353 764 364 C764 375 755 384 744 384 L636 384 C625 384 616 375 616 364 L616 256 C616 245 625 236 636 236 L636 236 Z " />
<glyph glyph-name="uniE164" unicode="&#xe164;" horiz-adv-x="1000" d="M256 616 C267 616 276 625 276 636 L276 724 L364 724 C375 724 384 733 384 744 C384 755 375 764 364 764 L256 764 C245 764 236 755 236 744 L236 636 C236 625 245 616 256 616 L256 616 Z M744 616 C755 616 764 625 764 636 L764 744 C764 755 755 764 744 764 L636 764 C625 764 616 755 616 744 C616 733 625 724 636 724 L724 724 L724 636 C724 625 733 616 744 616 L744 616 Z M256 236 L364 236 C375 236 384 245 384 256 C384 267 375 276 364 276 L276 276 L276 364 C276 375 267 384 256 384 C245 384 236 375 236 364 L236 256 C236 245 245 236 256 236 L256 236 Z M636 236 L744 236 C755 236 764 245 764 256 L764 364 C764 375 755 384 744 384 C733 384 724 375 724 364 L724 276 L636 276 C625 276 616 267 616 256 C616 245 625 236 636 236 L636 236 Z " />
<glyph glyph-name="uniE165" unicode="&#xe165;" horiz-adv-x="1000" d="M349 208 L651 208 C673 208 690 225 690 247 L690 317 L767 317 C778 317 787 326 787 337 L787 587 C787 598 778 607 767 607 L690 607 L690 733 C690 755 673 772 651 772 L349 772 C327 772 310 755 310 733 L310 607 L233 607 C222 607 213 598 213 587 L213 337 C213 326 222 317 233 317 L310 317 L310 247 C310 225 327 208 349 208 L349 208 Z M350 607 L350 732 L650 732 L650 607 L350 607 Z M253 357 L253 567 L747 567 L747 357 L690 357 L690 449 C690 460 681 469 670 469 L330 469 C319 469 310 460 310 449 L310 357 L253 357 Z M670 490 C685 490 698 502 698 518 C698 533 685 545 670 545 C655 545 642 533 642 518 C642 502 655 490 670 490 L670 490 Z M350 248 L350 429 L650 429 L650 248 L350 248 Z M405 355 L595 355 C606 355 615 364 615 375 C615 386 606 395 595 395 L405 395 C394 395 385 386 385 375 C385 364 394 355 405 355 L405 355 Z M405 281 L521 281 C532 281 541 290 541 301 C541 312 532 321 521 321 L405 321 C394 321 385 312 385 301 C385 290 394 281 405 281 L405 281 Z " />
<glyph glyph-name="uniE166" unicode="&#xe166;" horiz-adv-x="1000" d="M513 431 C539 431 564 441 583 460 L711 588 C731 607 740 633 740 659 C740 684 731 710 711 729 L655 785 C637 804 611 814 585 814 C558 814 533 804 514 785 L386 657 C367 638 357 613 357 586 C357 580 357 574 359 567 C361 558 369 551 378 551 L382 551 C392 553 398 562 398 571 L398 575 C397 579 397 583 397 586 C397 602 403 617 414 629 L542 757 C554 768 569 774 585 774 C601 774 616 768 627 757 L683 701 C694 689 700 674 700 659 C700 643 694 628 683 616 L555 488 C544 477 529 471 513 471 C496 471 481 477 470 488 L459 499 C455 503 450 505 445 505 C440 505 435 503 431 499 C427 495 425 490 425 485 C425 480 427 475 431 471 L442 460 C461 441 486 431 513 431 L513 431 Z M415 206 C442 206 467 216 486 235 L614 363 C633 382 643 407 643 434 C643 440 643 446 641 453 C639 462 631 469 622 469 L618 469 C608 467 602 458 602 449 L602 445 C603 441 603 437 603 434 C603 418 597 403 586 391 L458 263 C446 252 431 246 415 246 C399 246 384 252 373 263 L317 319 C306 331 300 346 300 361 C300 377 306 392 317 404 L445 532 C456 543 471 549 487 549 C504 549 519 543 530 532 L541 521 C545 517 550 515 555 515 C560 515 565 517 569 521 C573 525 575 530 575 535 C575 540 573 545 569 549 L558 560 C539 579 514 589 487 589 C461 589 436 579 417 560 L289 432 C269 413 260 387 260 361 C260 336 269 310 289 291 L345 235 C363 216 389 206 415 206 L415 206 Z " />
<glyph glyph-name="uniE167" unicode="&#xe167;" horiz-adv-x="1000" d="M676 181 C712 181 747 200 766 233 C776 249 780 267 780 284 C780 320 761 355 728 374 C712 383 695 388 677 388 C668 388 659 387 650 384 C630 379 612 368 599 353 L401 467 C405 477 407 489 407 500 C407 511 405 523 401 533 L599 647 C612 632 630 621 650 616 C659 613 668 612 677 612 C695 612 712 617 728 626 C761 645 780 680 780 716 C780 733 776 751 766 767 C747 800 712 819 676 819 C659 819 641 814 625 805 C601 791 584 769 577 742 C574 733 573 724 573 715 C573 704 575 693 579 682 L381 568 L377 573 C356 593 330 603 303 603 C277 603 250 593 230 573 C210 553 200 526 200 500 C200 474 210 447 230 427 C250 407 277 397 303 397 C330 397 356 407 377 427 L381 432 L579 318 C575 307 573 296 573 285 C573 276 574 267 577 258 C584 231 601 209 625 195 C641 186 659 181 676 181 L676 181 Z M660 654 C644 659 630 669 622 684 C616 694 613 704 613 715 C613 721 614 726 615 732 C620 748 630 762 645 770 C655 776 666 779 676 779 C698 779 720 767 732 747 C737 737 740 727 740 716 C740 710 739 705 738 699 C733 683 723 669 708 661 C699 655 688 652 677 652 C671 652 666 653 660 654 L660 654 Z M259 455 C246 468 240 484 240 500 C240 516 246 532 259 545 C271 557 287 563 303 563 C320 563 336 557 348 545 C361 532 367 516 367 500 C367 484 361 468 348 455 C336 443 320 437 303 437 C287 437 271 443 259 455 L259 455 Z M645 230 C630 238 620 252 615 268 C614 274 613 279 613 285 C613 296 616 306 622 316 C630 331 644 341 660 346 C666 347 671 348 677 348 C688 348 699 345 708 339 C729 328 740 306 740 284 C740 274 737 263 732 253 C720 233 698 221 676 221 C666 221 655 224 645 230 L645 230 Z " />
<glyph glyph-name="uniE168" unicode="&#xe168;" horiz-adv-x="1000" d="M500 389 C511 389 520 398 520 409 L520 766 L586 700 C590 696 595 694 600 694 C605 694 610 696 614 700 C618 704 620 709 620 714 C620 719 618 724 614 728 L514 828 C510 832 505 834 500 834 C495 834 490 832 486 828 L386 728 C382 724 380 719 380 714 C380 709 382 704 386 700 C390 696 395 694 400 694 C405 694 410 696 414 700 L480 766 L480 409 C480 398 489 389 500 389 L500 389 Z M260 181 L740 181 C751 181 760 190 760 201 L760 631 C760 642 751 651 740 651 L603 651 C591 651 583 642 583 631 C583 620 591 611 603 611 L720 611 L720 221 L280 221 L280 611 L397 611 C409 611 417 620 417 631 C417 642 409 651 397 651 L260 651 C249 651 240 642 240 631 L240 201 C240 190 249 181 260 181 L260 181 Z " />
<glyph glyph-name="uniE169" unicode="&#xe169;" horiz-adv-x="1000" d="M476 456 C481 456 486 458 490 462 L735 707 L735 606 C735 594 744 586 755 586 C766 586 775 594 775 606 L775 755 C775 766 766 775 755 775 L606 775 C594 775 586 766 586 755 C586 744 594 735 606 735 L707 735 L462 490 C458 486 456 481 456 476 C456 471 458 466 462 462 C466 458 471 456 476 456 L476 456 Z M298 225 L641 225 C681 225 713 258 713 298 L713 509 C713 520 704 529 693 529 C682 529 673 520 673 509 L673 298 C673 280 659 265 641 265 L298 265 C280 265 265 280 265 298 L265 641 C265 659 280 673 298 673 L509 673 C520 673 529 682 529 693 C529 704 520 713 509 713 L298 713 C258 713 225 681 225 641 L225 298 C225 258 258 225 298 225 L298 225 Z " />
<glyph glyph-name="uniE16A" unicode="&#xe16a;" horiz-adv-x="1000" d="M500 368 C505 368 510 371 514 374 L707 567 C711 571 713 576 713 581 C713 586 711 592 707 595 C703 599 698 601 693 601 C688 601 683 599 679 595 L520 437 L520 771 C520 782 511 791 500 791 C489 791 480 782 480 771 L480 437 L321 595 C317 599 312 601 307 601 C302 601 297 599 293 595 C289 592 287 586 287 581 C287 576 289 571 293 567 L486 374 C490 371 495 368 500 368 L500 368 Z M226 224 L774 224 C785 224 794 233 794 244 L794 400 C794 411 785 420 774 420 C763 420 754 411 754 400 L754 264 L246 264 L246 400 C246 411 237 420 226 420 C215 420 206 411 206 400 L206 244 C206 233 215 224 226 224 L226 224 Z " />
<glyph glyph-name="uniE16B" unicode="&#xe16b;" horiz-adv-x="1000" d="M390 430 L395 431 L513 462 C516 463 519 465 522 467 L765 710 C779 724 786 742 786 761 C786 782 777 804 761 820 C744 837 722 845 701 845 C683 845 664 838 651 825 L407 582 C405 579 403 576 402 573 L371 455 C369 448 371 441 376 436 C380 432 385 430 390 430 L390 430 Z M726 728 L668 786 L679 796 C685 802 693 805 701 805 C712 805 723 801 732 792 C741 783 746 772 746 761 C746 753 743 745 737 739 L726 728 Z M235 216 L765 216 C776 216 785 225 785 236 L785 638 C785 649 776 658 765 658 C754 658 745 649 745 638 L745 256 L255 256 L255 746 L511 746 C522 746 531 755 531 766 C531 777 522 786 511 786 L235 786 C224 786 215 777 215 766 L215 236 C215 225 224 216 235 216 L235 216 Z M508 510 L450 567 L640 758 L698 700 L508 510 Z M418 478 L432 529 L469 492 L418 478 Z " />
<glyph glyph-name="uniE16C" unicode="&#xe16c;" horiz-adv-x="1000" d="M500 155 C506 155 511 158 515 162 C572 230 689 377 724 454 C742 493 750 529 750 565 C750 632 724 695 677 742 C630 789 567 815 500 815 C433 815 370 789 323 742 C276 695 250 632 250 565 C250 529 258 493 276 454 C311 377 428 230 485 162 C489 158 494 155 500 155 L500 155 Z M500 207 C435 285 341 408 312 471 C297 504 290 535 290 565 C290 681 384 775 500 775 C616 775 710 681 710 565 C710 535 703 504 688 471 C659 408 565 285 500 207 L500 207 Z M500 444 C567 444 622 498 622 565 C622 632 567 687 500 687 C433 687 378 632 378 565 C378 498 433 444 500 444 L500 444 Z M500 484 C455 484 418 520 418 565 C418 610 455 647 500 647 C545 647 582 610 582 565 C582 520 545 484 500 484 L500 484 Z " />
<glyph glyph-name="uniE16D" unicode="&#xe16d;" horiz-adv-x="1000" d="M245 669 L755 669 C766 669 775 678 775 689 C775 700 766 709 755 709 L590 709 L590 728 C590 759 564 784 533 784 L467 784 C436 784 410 759 410 728 L410 709 L245 709 C234 709 225 700 225 689 C225 678 234 669 245 669 L245 669 Z M450 709 L450 728 C450 737 458 744 467 744 L533 744 C542 744 550 737 550 728 L550 709 L450 709 Z M321 234 L679 234 C690 234 699 242 699 253 L718 611 C719 623 710 633 698 633 C688 633 679 624 678 614 L660 274 L340 274 L322 614 C321 624 312 633 302 633 L301 632 C290 632 282 623 282 613 L282 611 L301 253 C301 242 310 234 321 234 L321 234 Z M437 319 C448 319 457 328 457 339 L450 589 C450 600 441 609 430 608 C419 608 410 599 410 588 L417 338 C417 327 426 319 437 319 L437 319 Z M563 319 C574 319 583 327 583 338 L590 588 C590 599 581 608 570 608 C559 609 550 600 550 589 L543 339 C543 328 552 319 563 319 L563 319 Z " />
<glyph glyph-name="uniE16E" unicode="&#xe16e;" horiz-adv-x="1000" d="M390 223 L717 223 C737 223 753 239 753 259 L753 633 C753 653 737 669 717 669 L646 669 L646 740 C646 759 630 776 610 776 L374 776 C368 776 363 774 360 770 L253 663 C249 659 247 654 247 649 L247 366 C247 346 263 330 283 330 L354 330 L354 259 C354 239 370 223 390 223 L390 223 Z M287 370 L287 629 L357 629 C377 629 394 645 394 665 L394 736 L606 736 L606 370 L287 370 Z M315 669 L354 707 L354 669 L315 669 Z M451 629 L549 629 C560 629 569 638 569 649 C569 660 560 669 549 669 L451 669 C440 669 431 660 431 649 C431 638 440 629 451 629 L451 629 Z M394 263 L394 330 L610 330 C630 330 646 346 646 366 L646 629 L713 629 L713 263 L394 263 Z M345 530 L549 530 C560 530 569 539 569 550 C569 561 560 570 549 570 L345 570 C334 570 325 561 325 550 C325 539 334 530 345 530 L345 530 Z M345 432 L549 432 C560 432 569 441 569 452 C569 463 560 472 549 472 L345 472 C334 472 325 463 325 452 C325 441 334 432 345 432 L345 432 Z " />
<glyph glyph-name="uniE16F" unicode="&#xe16f;" horiz-adv-x="1000" d="M390 223 L626 223 C632 223 637 225 640 229 L747 336 C751 339 753 345 753 350 L753 633 C753 653 737 669 717 669 L646 669 L646 740 C646 759 630 776 610 776 L522 776 C518 791 504 803 488 803 L405 803 C389 803 375 791 371 776 L283 776 C263 776 247 759 247 740 L247 366 C247 346 263 330 283 330 L354 330 L354 259 C354 239 370 223 390 223 L390 223 Z M390 736 C401 736 410 745 410 756 L410 763 L483 763 L483 756 C483 745 492 736 503 736 L390 736 Z M287 370 L287 736 L318 736 L318 716 C318 705 327 696 338 696 L556 696 C567 696 576 705 576 716 L576 736 L606 736 L606 669 L390 669 C370 669 354 653 354 633 L354 370 L287 370 Z M394 263 L394 629 L713 629 L713 370 L643 370 C623 370 606 354 606 333 L606 263 L394 263 Z M451 527 L655 527 C666 527 675 536 675 547 C675 558 666 567 655 567 L451 567 C440 567 431 558 431 547 C431 536 440 527 451 527 L451 527 Z M451 428 L655 428 C666 428 675 437 675 448 C675 459 666 468 655 468 L451 468 C440 468 431 459 431 448 C431 437 440 428 451 428 L451 428 Z M451 330 L549 330 C560 330 569 339 569 350 C569 361 560 370 549 370 L451 370 C440 370 431 361 431 350 C431 339 440 330 451 330 L451 330 Z M646 291 L646 330 L685 330 L646 291 Z " />
<glyph glyph-name="uniE170" unicode="&#xe170;" horiz-adv-x="1000" d="M500 193 C580 193 655 224 712 280 C769 337 800 412 800 493 C800 573 769 648 712 705 C655 761 580 793 500 793 C420 793 345 761 288 705 C231 648 200 573 200 493 C200 412 231 337 288 280 C345 224 420 193 500 193 L500 193 Z M500 215 C426 215 356 243 303 296 C251 348 222 418 222 493 C222 567 251 637 303 689 C356 742 426 771 500 771 C574 771 644 742 697 689 C749 637 778 567 778 493 C778 418 749 348 697 296 C644 243 574 215 500 215 L500 215 Z M513 595 C536 595 554 613 554 635 C554 657 536 675 513 675 C491 675 473 657 473 635 C473 613 491 595 513 595 L513 595 Z M513 617 C503 617 495 625 495 635 C495 645 503 653 513 653 C524 653 532 645 532 635 C532 625 524 617 513 617 L513 617 Z M473 299 C490 299 512 307 536 330 C542 336 548 343 554 350 C558 355 558 362 553 365 C548 369 541 369 537 364 C532 357 526 351 521 346 C501 327 484 321 473 321 C470 321 467 322 465 323 C463 325 463 326 463 326 L523 533 C525 538 523 544 519 549 C516 553 511 555 506 555 C505 555 504 555 504 554 L427 542 C422 541 418 536 418 531 L418 529 C419 524 423 520 429 520 L431 520 L500 531 L442 332 C439 322 443 311 453 305 C458 301 465 299 473 299 L473 299 Z " />
<glyph glyph-name="uniE171" unicode="&#xe171;" horiz-adv-x="1000" d="M760 229 C763 229 766 230 768 232 C770 234 771 237 771 240 C771 243 770 246 768 248 L616 400 C652 440 672 492 672 547 C672 605 650 660 608 702 C567 743 512 766 453 766 C395 766 340 743 298 702 C257 660 234 605 234 547 C234 488 257 433 298 392 C340 350 395 328 453 328 C508 328 560 348 600 384 L752 232 C754 230 757 229 760 229 L760 229 Z M593 407 C554 369 504 350 453 350 C403 350 352 369 314 407 C275 446 256 496 256 547 C256 597 275 648 314 686 C352 725 403 744 453 744 C504 744 554 725 593 686 C631 648 650 597 650 547 C650 496 631 446 593 407 L593 407 Z M453 439 C459 439 464 444 464 450 L464 536 L550 536 C556 536 561 541 561 547 C561 553 556 558 550 558 L464 558 L464 644 C464 650 459 655 453 655 C447 655 442 650 442 644 L442 558 L356 558 C350 558 345 553 345 547 C345 541 350 536 356 536 L442 536 L442 450 C442 444 447 439 453 439 L453 439 Z " />
<glyph glyph-name="uniE172" unicode="&#xe172;" horiz-adv-x="1000" d="M760 229 C763 229 766 230 768 232 C770 234 771 237 771 240 C771 243 770 246 768 248 L616 400 C652 440 672 492 672 547 C672 605 650 660 608 702 C567 743 512 766 453 766 C395 766 340 743 298 702 C257 660 234 605 234 547 C234 488 257 433 298 392 C340 350 395 328 453 328 C508 328 560 348 600 384 L752 232 C754 230 757 229 760 229 L760 229 Z M593 407 C554 369 504 350 453 350 C403 350 352 369 314 407 C275 446 256 496 256 547 C256 597 275 648 314 686 C352 725 403 744 453 744 C504 744 554 725 593 686 C631 648 650 597 650 547 C650 496 631 446 593 407 L593 407 Z M356 536 L550 536 C556 536 561 541 561 547 C561 553 556 558 550 558 L356 558 C350 558 345 553 345 547 C345 541 350 536 356 536 L356 536 Z " />
<glyph glyph-name="uniE173" unicode="&#xe173;" horiz-adv-x="1000" d="M256 625 L364 625 C371 625 375 629 375 636 L375 744 C375 750 371 755 364 755 C358 755 353 750 353 744 L353 647 L256 647 C250 647 245 642 245 636 C245 629 250 625 256 625 L256 625 Z M636 625 L744 625 C750 625 755 629 755 636 C755 642 750 647 744 647 L647 647 L647 744 C647 750 642 755 636 755 C629 755 625 750 625 744 L625 636 C625 629 629 625 636 625 L636 625 Z M364 245 C371 245 375 250 375 256 L375 364 C375 371 371 375 364 375 L256 375 C250 375 245 371 245 364 C245 358 250 353 256 353 L353 353 L353 256 C353 250 358 245 364 245 L364 245 Z M636 245 C642 245 647 250 647 256 L647 353 L744 353 C750 353 755 358 755 364 C755 371 750 375 744 375 L636 375 C629 375 625 371 625 364 L625 256 C625 250 629 245 636 245 L636 245 Z " />
<glyph glyph-name="uniE174" unicode="&#xe174;" horiz-adv-x="1000" d="M256 625 C262 625 267 629 267 636 L267 733 L364 733 C371 733 375 738 375 744 C375 750 371 755 364 755 L256 755 C250 755 245 750 245 744 L245 636 C245 629 250 625 256 625 L256 625 Z M744 625 C750 625 755 629 755 636 L755 744 C755 750 750 755 744 755 L636 755 C629 755 625 750 625 744 C625 738 629 733 636 733 L733 733 L733 636 C733 629 738 625 744 625 L744 625 Z M256 245 L364 245 C371 245 375 250 375 256 C375 262 371 267 364 267 L267 267 L267 364 C267 371 262 375 256 375 C250 375 245 371 245 364 L245 256 C245 250 250 245 256 245 L256 245 Z M636 245 L744 245 C750 245 755 250 755 256 L755 364 C755 371 750 375 744 375 C738 375 733 371 733 364 L733 267 L636 267 C629 267 625 262 625 256 C625 250 629 245 636 245 L636 245 Z " />
</font>
</svg>
